<?xml version="1.0" encoding="utf-8" standalone="no"?>
<!DOCTYPE svg PUBLIC "-//W3C//DTD SVG 1.1//EN"
  "http://www.w3.org/Graphics/SVG/1.1/DTD/svg11.dtd">
<svg xmlns:xlink="http://www.w3.org/1999/xlink" width="576pt" height="432pt" viewBox="0 0 576 432" xmlns="http://www.w3.org/2000/svg" version="1.1">
 <metadata>
  <rdf:RDF xmlns:dc="http://purl.org/dc/elements/1.1/" xmlns:cc="http://creativecommons.org/ns#" xmlns:rdf="http://www.w3.org/1999/02/22-rdf-syntax-ns#">
   <cc:Work>
    <dc:type rdf:resource="http://purl.org/dc/dcmitype/StillImage"/>
    <dc:date>2023-12-19T07:21:41.068744</dc:date>
    <dc:format>image/svg+xml</dc:format>
    <dc:creator>
     <cc:Agent>
      <dc:title>Matplotlib v3.7.0, https://matplotlib.org/</dc:title>
     </cc:Agent>
    </dc:creator>
   </cc:Work>
  </rdf:RDF>
 </metadata>
 <defs>
  <style type="text/css">*{stroke-linejoin: round; stroke-linecap: butt}</style>
 </defs>
 <g id="figure_1">
  <g id="patch_1">
   <path d="M 0 432 
L 576 432 
L 576 0 
L 0 0 
z
" style="fill: #ffffff"/>
  </g>
  <g id="axes_1">
   <g id="patch_2">
    <path d="M 72 384.48 
L 518.4 384.48 
L 518.4 51.84 
L 72 51.84 
z
" style="fill: #ffffff"/>
   </g>
   <g id="PathCollection_1">
    <defs>
     <path id="meaee37874c" d="M 0 3 
C 0.795609 3 1.55874 2.683901 2.12132 2.12132 
C 2.683901 1.55874 3 0.795609 3 0 
C 3 -0.795609 2.683901 -1.55874 2.12132 -2.12132 
C 1.55874 -2.683901 0.795609 -3 0 -3 
C -0.795609 -3 -1.55874 -2.683901 -2.12132 -2.12132 
C -2.683901 -1.55874 -3 -0.795609 -3 0 
C -3 0.795609 -2.683901 1.55874 -2.12132 2.12132 
C -1.55874 2.683901 -0.795609 3 0 3 
z
" style="stroke: #ff0000"/>
    </defs>
    <g clip-path="url(#p9843c80bd5)">
     <use xlink:href="#meaee37874c" x="297.877215" y="233.435043" style="fill: #ff0000; stroke: #ff0000"/>
     <use xlink:href="#meaee37874c" x="360.201846" y="145.848214" style="fill: #ff0000; stroke: #ff0000"/>
     <use xlink:href="#meaee37874c" x="318.086913" y="177.568029" style="fill: #ff0000; stroke: #ff0000"/>
     <use xlink:href="#meaee37874c" x="296.404912" y="244.716305" style="fill: #ff0000; stroke: #ff0000"/>
     <use xlink:href="#meaee37874c" x="250.992589" y="179.056141" style="fill: #ff0000; stroke: #ff0000"/>
     <use xlink:href="#meaee37874c" x="334.243747" y="129.289975" style="fill: #ff0000; stroke: #ff0000"/>
     <use xlink:href="#meaee37874c" x="256.21169" y="185.512556" style="fill: #ff0000; stroke: #ff0000"/>
     <use xlink:href="#meaee37874c" x="426.350322" y="146.455602" style="fill: #ff0000; stroke: #ff0000"/>
     <use xlink:href="#meaee37874c" x="453.280327" y="159.589468" style="fill: #ff0000; stroke: #ff0000"/>
     <use xlink:href="#meaee37874c" x="235.928638" y="198.352375" style="fill: #ff0000; stroke: #ff0000"/>
     <use xlink:href="#meaee37874c" x="388.872216" y="169.995353" style="fill: #ff0000; stroke: #ff0000"/>
     <use xlink:href="#meaee37874c" x="290.415686" y="168.605009" style="fill: #ff0000; stroke: #ff0000"/>
     <use xlink:href="#meaee37874c" x="305.081196" y="190.87943" style="fill: #ff0000; stroke: #ff0000"/>
     <use xlink:href="#meaee37874c" x="439.020704" y="107.596008" style="fill: #ff0000; stroke: #ff0000"/>
     <use xlink:href="#meaee37874c" x="118.901116" y="271.884255" style="fill: #ff0000; stroke: #ff0000"/>
     <use xlink:href="#meaee37874c" x="124.929667" y="259.114059" style="fill: #ff0000; stroke: #ff0000"/>
     <use xlink:href="#meaee37874c" x="99.864749" y="290.485684" style="fill: #ff0000; stroke: #ff0000"/>
     <use xlink:href="#meaee37874c" x="404.191468" y="100.410923" style="fill: #ff0000; stroke: #ff0000"/>
     <use xlink:href="#meaee37874c" x="383.789516" y="157.170474" style="fill: #ff0000; stroke: #ff0000"/>
     <use xlink:href="#meaee37874c" x="418.198677" y="133.554411" style="fill: #ff0000; stroke: #ff0000"/>
     <use xlink:href="#meaee37874c" x="458.882709" y="72.591309" style="fill: #ff0000; stroke: #ff0000"/>
     <use xlink:href="#meaee37874c" x="391.656825" y="195.720067" style="fill: #ff0000; stroke: #ff0000"/>
     <use xlink:href="#meaee37874c" x="265.161724" y="251.423859" style="fill: #ff0000; stroke: #ff0000"/>
     <use xlink:href="#meaee37874c" x="384.67823" y="132.682339" style="fill: #ff0000; stroke: #ff0000"/>
     <use xlink:href="#meaee37874c" x="136.596674" y="307.501149" style="fill: #ff0000; stroke: #ff0000"/>
     <use xlink:href="#meaee37874c" x="332.006219" y="128.950017" style="fill: #ff0000; stroke: #ff0000"/>
     <use xlink:href="#meaee37874c" x="145.991251" y="281.490695" style="fill: #ff0000; stroke: #ff0000"/>
     <use xlink:href="#meaee37874c" x="446.165207" y="153.605923" style="fill: #ff0000; stroke: #ff0000"/>
     <use xlink:href="#meaee37874c" x="287.77602" y="149.790773" style="fill: #ff0000; stroke: #ff0000"/>
     <use xlink:href="#meaee37874c" x="247.623852" y="180.819594" style="fill: #ff0000; stroke: #ff0000"/>
     <use xlink:href="#meaee37874c" x="191.393811" y="195.499964" style="fill: #ff0000; stroke: #ff0000"/>
     <use xlink:href="#meaee37874c" x="382.319932" y="135.572857" style="fill: #ff0000; stroke: #ff0000"/>
     <use xlink:href="#meaee37874c" x="263.165462" y="240.639684" style="fill: #ff0000; stroke: #ff0000"/>
     <use xlink:href="#meaee37874c" x="305.227061" y="142.169332" style="fill: #ff0000; stroke: #ff0000"/>
     <use xlink:href="#meaee37874c" x="99.329595" y="298.691326" style="fill: #ff0000; stroke: #ff0000"/>
     <use xlink:href="#meaee37874c" x="323.65803" y="165.390644" style="fill: #ff0000; stroke: #ff0000"/>
     <use xlink:href="#meaee37874c" x="321.582823" y="162.201943" style="fill: #ff0000; stroke: #ff0000"/>
     <use xlink:href="#meaee37874c" x="323.395247" y="192.878811" style="fill: #ff0000; stroke: #ff0000"/>
     <use xlink:href="#meaee37874c" x="445.820259" y="114.846272" style="fill: #ff0000; stroke: #ff0000"/>
     <use xlink:href="#meaee37874c" x="347.701747" y="150.959943" style="fill: #ff0000; stroke: #ff0000"/>
     <use xlink:href="#meaee37874c" x="226.963071" y="221.837475" style="fill: #ff0000; stroke: #ff0000"/>
     <use xlink:href="#meaee37874c" x="256.00369" y="250.726425" style="fill: #ff0000; stroke: #ff0000"/>
     <use xlink:href="#meaee37874c" x="353.624531" y="166.083626" style="fill: #ff0000; stroke: #ff0000"/>
     <use xlink:href="#meaee37874c" x="114.851455" y="246.01162" style="fill: #ff0000; stroke: #ff0000"/>
     <use xlink:href="#meaee37874c" x="342.062653" y="199.754928" style="fill: #ff0000; stroke: #ff0000"/>
     <use xlink:href="#meaee37874c" x="343.512793" y="183.514851" style="fill: #ff0000; stroke: #ff0000"/>
     <use xlink:href="#meaee37874c" x="171.100511" y="270.610596" style="fill: #ff0000; stroke: #ff0000"/>
     <use xlink:href="#meaee37874c" x="140.586881" y="219.283569" style="fill: #ff0000; stroke: #ff0000"/>
     <use xlink:href="#meaee37874c" x="210.450811" y="220.94018" style="fill: #ff0000; stroke: #ff0000"/>
     <use xlink:href="#meaee37874c" x="228.537473" y="220.229546" style="fill: #ff0000; stroke: #ff0000"/>
     <use xlink:href="#meaee37874c" x="305.887417" y="218.470564" style="fill: #ff0000; stroke: #ff0000"/>
     <use xlink:href="#meaee37874c" x="256.591649" y="203.618695" style="fill: #ff0000; stroke: #ff0000"/>
     <use xlink:href="#meaee37874c" x="462.537131" y="144.020358" style="fill: #ff0000; stroke: #ff0000"/>
     <use xlink:href="#meaee37874c" x="130.517038" y="275.84261" style="fill: #ff0000; stroke: #ff0000"/>
     <use xlink:href="#meaee37874c" x="170.536434" y="276.605363" style="fill: #ff0000; stroke: #ff0000"/>
     <use xlink:href="#meaee37874c" x="152.71768" y="247.253531" style="fill: #ff0000; stroke: #ff0000"/>
     <use xlink:href="#meaee37874c" x="336.946201" y="165.763048" style="fill: #ff0000; stroke: #ff0000"/>
     <use xlink:href="#meaee37874c" x="187.174298" y="256.76729" style="fill: #ff0000; stroke: #ff0000"/>
     <use xlink:href="#meaee37874c" x="266.971577" y="202.960898" style="fill: #ff0000; stroke: #ff0000"/>
     <use xlink:href="#meaee37874c" x="183.853078" y="283.577548" style="fill: #ff0000; stroke: #ff0000"/>
     <use xlink:href="#meaee37874c" x="151.841137" y="309.615286" style="fill: #ff0000; stroke: #ff0000"/>
     <use xlink:href="#meaee37874c" x="133.637591" y="262.764371" style="fill: #ff0000; stroke: #ff0000"/>
     <use xlink:href="#meaee37874c" x="338.152891" y="176.927517" style="fill: #ff0000; stroke: #ff0000"/>
     <use xlink:href="#meaee37874c" x="144.054436" y="252.403192" style="fill: #ff0000; stroke: #ff0000"/>
     <use xlink:href="#meaee37874c" x="165.930937" y="192.420185" style="fill: #ff0000; stroke: #ff0000"/>
     <use xlink:href="#meaee37874c" x="230.415874" y="204.019659" style="fill: #ff0000; stroke: #ff0000"/>
     <use xlink:href="#meaee37874c" x="399.836121" y="179.543315" style="fill: #ff0000; stroke: #ff0000"/>
     <use xlink:href="#meaee37874c" x="128.665183" y="245.671898" style="fill: #ff0000; stroke: #ff0000"/>
     <use xlink:href="#meaee37874c" x="406.186243" y="188.157707" style="fill: #ff0000; stroke: #ff0000"/>
     <use xlink:href="#meaee37874c" x="128.289507" y="290.96602" style="fill: #ff0000; stroke: #ff0000"/>
     <use xlink:href="#meaee37874c" x="458.07399" y="128.739417" style="fill: #ff0000; stroke: #ff0000"/>
     <use xlink:href="#meaee37874c" x="267.848305" y="164.905278" style="fill: #ff0000; stroke: #ff0000"/>
     <use xlink:href="#meaee37874c" x="458.186979" y="148.024885" style="fill: #ff0000; stroke: #ff0000"/>
     <use xlink:href="#meaee37874c" x="318.866887" y="214.143861" style="fill: #ff0000; stroke: #ff0000"/>
     <use xlink:href="#meaee37874c" x="369.22008" y="170.282457" style="fill: #ff0000; stroke: #ff0000"/>
     <use xlink:href="#meaee37874c" x="106.970711" y="306.49714" style="fill: #ff0000; stroke: #ff0000"/>
     <use xlink:href="#meaee37874c" x="198.230793" y="213.548089" style="fill: #ff0000; stroke: #ff0000"/>
     <use xlink:href="#meaee37874c" x="137.316709" y="304.507738" style="fill: #ff0000; stroke: #ff0000"/>
     <use xlink:href="#meaee37874c" x="203.225441" y="276.263558" style="fill: #ff0000; stroke: #ff0000"/>
     <use xlink:href="#meaee37874c" x="136.766479" y="286.405777" style="fill: #ff0000; stroke: #ff0000"/>
     <use xlink:href="#meaee37874c" x="211.407853" y="253.954211" style="fill: #ff0000; stroke: #ff0000"/>
     <use xlink:href="#meaee37874c" x="247.474406" y="168.053475" style="fill: #ff0000; stroke: #ff0000"/>
     <use xlink:href="#meaee37874c" x="116.320651" y="256.114013" style="fill: #ff0000; stroke: #ff0000"/>
     <use xlink:href="#meaee37874c" x="351.691933" y="172.990612" style="fill: #ff0000; stroke: #ff0000"/>
     <use xlink:href="#meaee37874c" x="304.540606" y="232.107562" style="fill: #ff0000; stroke: #ff0000"/>
     <use xlink:href="#meaee37874c" x="191.706184" y="224.603598" style="fill: #ff0000; stroke: #ff0000"/>
     <use xlink:href="#meaee37874c" x="288.300362" y="233.105137" style="fill: #ff0000; stroke: #ff0000"/>
     <use xlink:href="#meaee37874c" x="127.481156" y="322.297494" style="fill: #ff0000; stroke: #ff0000"/>
     <use xlink:href="#meaee37874c" x="308.041272" y="161.519296" style="fill: #ff0000; stroke: #ff0000"/>
     <use xlink:href="#meaee37874c" x="440.406564" y="125.818039" style="fill: #ff0000; stroke: #ff0000"/>
     <use xlink:href="#meaee37874c" x="211.627284" y="213.296701" style="fill: #ff0000; stroke: #ff0000"/>
     <use xlink:href="#meaee37874c" x="342.303771" y="170.680884" style="fill: #ff0000; stroke: #ff0000"/>
     <use xlink:href="#meaee37874c" x="141.662573" y="247.158422" style="fill: #ff0000; stroke: #ff0000"/>
     <use xlink:href="#meaee37874c" x="360.628082" y="190.010623" style="fill: #ff0000; stroke: #ff0000"/>
     <use xlink:href="#meaee37874c" x="200.702836" y="274.182065" style="fill: #ff0000; stroke: #ff0000"/>
     <use xlink:href="#meaee37874c" x="160.91465" y="243.35323" style="fill: #ff0000; stroke: #ff0000"/>
     <use xlink:href="#meaee37874c" x="311.999475" y="216.629682" style="fill: #ff0000; stroke: #ff0000"/>
     <use xlink:href="#meaee37874c" x="99.823224" y="310.514653" style="fill: #ff0000; stroke: #ff0000"/>
     <use xlink:href="#meaee37874c" x="402.813003" y="165.10943" style="fill: #ff0000; stroke: #ff0000"/>
     <use xlink:href="#meaee37874c" x="94.049841" y="292.948403" style="fill: #ff0000; stroke: #ff0000"/>
    </g>
   </g>
   <g id="matplotlib.axis_1">
    <g id="xtick_1">
     <g id="line2d_1">
      <defs>
       <path id="mb651ed7687" d="M 0 0 
L 0 3.5 
" style="stroke: #000000; stroke-width: 0.8"/>
      </defs>
      <g>
       <use xlink:href="#mb651ed7687" x="92.290909" y="322.836923" style="stroke: #000000; stroke-width: 0.8"/>
      </g>
     </g>
     <g id="text_1">
      <!-- −2 -->
      <g transform="translate(84.919815 337.435361) scale(0.1 -0.1)">
       <defs>
        <path id="DejaVuSans-2212" d="M 678 2272 
L 4684 2272 
L 4684 1741 
L 678 1741 
L 678 2272 
z
" transform="scale(0.015625)"/>
        <path id="DejaVuSans-32" d="M 1228 531 
L 3431 531 
L 3431 0 
L 469 0 
L 469 531 
Q 828 903 1448 1529 
Q 2069 2156 2228 2338 
Q 2531 2678 2651 2914 
Q 2772 3150 2772 3378 
Q 2772 3750 2511 3984 
Q 2250 4219 1831 4219 
Q 1534 4219 1204 4116 
Q 875 4013 500 3803 
L 500 4441 
Q 881 4594 1212 4672 
Q 1544 4750 1819 4750 
Q 2544 4750 2975 4387 
Q 3406 4025 3406 3419 
Q 3406 3131 3298 2873 
Q 3191 2616 2906 2266 
Q 2828 2175 2409 1742 
Q 1991 1309 1228 531 
z
" transform="scale(0.015625)"/>
       </defs>
       <use xlink:href="#DejaVuSans-2212"/>
       <use xlink:href="#DejaVuSans-32" x="83.789062"/>
      </g>
     </g>
    </g>
    <g id="xtick_2">
     <g id="line2d_2">
      <g>
       <use xlink:href="#mb651ed7687" x="154.724476" y="322.836923" style="stroke: #000000; stroke-width: 0.8"/>
      </g>
     </g>
     <g id="text_2">
      <!-- 0 -->
      <g transform="translate(151.543226 337.435361) scale(0.1 -0.1)">
       <defs>
        <path id="DejaVuSans-30" d="M 2034 4250 
Q 1547 4250 1301 3770 
Q 1056 3291 1056 2328 
Q 1056 1369 1301 889 
Q 1547 409 2034 409 
Q 2525 409 2770 889 
Q 3016 1369 3016 2328 
Q 3016 3291 2770 3770 
Q 2525 4250 2034 4250 
z
M 2034 4750 
Q 2819 4750 3233 4129 
Q 3647 3509 3647 2328 
Q 3647 1150 3233 529 
Q 2819 -91 2034 -91 
Q 1250 -91 836 529 
Q 422 1150 422 2328 
Q 422 3509 836 4129 
Q 1250 4750 2034 4750 
z
" transform="scale(0.015625)"/>
       </defs>
       <use xlink:href="#DejaVuSans-30"/>
      </g>
     </g>
    </g>
    <g id="xtick_3">
     <g id="line2d_3">
      <g>
       <use xlink:href="#mb651ed7687" x="217.158042" y="322.836923" style="stroke: #000000; stroke-width: 0.8"/>
      </g>
     </g>
     <g id="text_3">
      <!-- 2 -->
      <g transform="translate(213.976792 337.435361) scale(0.1 -0.1)">
       <use xlink:href="#DejaVuSans-32"/>
      </g>
     </g>
    </g>
    <g id="xtick_4">
     <g id="line2d_4">
      <g>
       <use xlink:href="#mb651ed7687" x="279.591608" y="322.836923" style="stroke: #000000; stroke-width: 0.8"/>
      </g>
     </g>
     <g id="text_4">
      <!-- 4 -->
      <g transform="translate(276.410358 337.435361) scale(0.1 -0.1)">
       <defs>
        <path id="DejaVuSans-34" d="M 2419 4116 
L 825 1625 
L 2419 1625 
L 2419 4116 
z
M 2253 4666 
L 3047 4666 
L 3047 1625 
L 3713 1625 
L 3713 1100 
L 3047 1100 
L 3047 0 
L 2419 0 
L 2419 1100 
L 313 1100 
L 313 1709 
L 2253 4666 
z
" transform="scale(0.015625)"/>
       </defs>
       <use xlink:href="#DejaVuSans-34"/>
      </g>
     </g>
    </g>
    <g id="xtick_5">
     <g id="line2d_5">
      <g>
       <use xlink:href="#mb651ed7687" x="342.025175" y="322.836923" style="stroke: #000000; stroke-width: 0.8"/>
      </g>
     </g>
     <g id="text_5">
      <!-- 6 -->
      <g transform="translate(338.843925 337.435361) scale(0.1 -0.1)">
       <defs>
        <path id="DejaVuSans-36" d="M 2113 2584 
Q 1688 2584 1439 2293 
Q 1191 2003 1191 1497 
Q 1191 994 1439 701 
Q 1688 409 2113 409 
Q 2538 409 2786 701 
Q 3034 994 3034 1497 
Q 3034 2003 2786 2293 
Q 2538 2584 2113 2584 
z
M 3366 4563 
L 3366 3988 
Q 3128 4100 2886 4159 
Q 2644 4219 2406 4219 
Q 1781 4219 1451 3797 
Q 1122 3375 1075 2522 
Q 1259 2794 1537 2939 
Q 1816 3084 2150 3084 
Q 2853 3084 3261 2657 
Q 3669 2231 3669 1497 
Q 3669 778 3244 343 
Q 2819 -91 2113 -91 
Q 1303 -91 875 529 
Q 447 1150 447 2328 
Q 447 3434 972 4092 
Q 1497 4750 2381 4750 
Q 2619 4750 2861 4703 
Q 3103 4656 3366 4563 
z
" transform="scale(0.015625)"/>
       </defs>
       <use xlink:href="#DejaVuSans-36"/>
      </g>
     </g>
    </g>
    <g id="xtick_6">
     <g id="line2d_6">
      <g>
       <use xlink:href="#mb651ed7687" x="404.458741" y="322.836923" style="stroke: #000000; stroke-width: 0.8"/>
      </g>
     </g>
     <g id="text_6">
      <!-- 8 -->
      <g transform="translate(401.277491 337.435361) scale(0.1 -0.1)">
       <defs>
        <path id="DejaVuSans-38" d="M 2034 2216 
Q 1584 2216 1326 1975 
Q 1069 1734 1069 1313 
Q 1069 891 1326 650 
Q 1584 409 2034 409 
Q 2484 409 2743 651 
Q 3003 894 3003 1313 
Q 3003 1734 2745 1975 
Q 2488 2216 2034 2216 
z
M 1403 2484 
Q 997 2584 770 2862 
Q 544 3141 544 3541 
Q 544 4100 942 4425 
Q 1341 4750 2034 4750 
Q 2731 4750 3128 4425 
Q 3525 4100 3525 3541 
Q 3525 3141 3298 2862 
Q 3072 2584 2669 2484 
Q 3125 2378 3379 2068 
Q 3634 1759 3634 1313 
Q 3634 634 3220 271 
Q 2806 -91 2034 -91 
Q 1263 -91 848 271 
Q 434 634 434 1313 
Q 434 1759 690 2068 
Q 947 2378 1403 2484 
z
M 1172 3481 
Q 1172 3119 1398 2916 
Q 1625 2713 2034 2713 
Q 2441 2713 2670 2916 
Q 2900 3119 2900 3481 
Q 2900 3844 2670 4047 
Q 2441 4250 2034 4250 
Q 1625 4250 1398 4047 
Q 1172 3844 1172 3481 
z
" transform="scale(0.015625)"/>
       </defs>
       <use xlink:href="#DejaVuSans-38"/>
      </g>
     </g>
    </g>
    <g id="xtick_7">
     <g id="line2d_7">
      <g>
       <use xlink:href="#mb651ed7687" x="466.892308" y="322.836923" style="stroke: #000000; stroke-width: 0.8"/>
      </g>
     </g>
     <g id="text_7">
      <!-- 10 -->
      <g transform="translate(460.529808 337.435361) scale(0.1 -0.1)">
       <defs>
        <path id="DejaVuSans-31" d="M 794 531 
L 1825 531 
L 1825 4091 
L 703 3866 
L 703 4441 
L 1819 4666 
L 2450 4666 
L 2450 531 
L 3481 531 
L 3481 0 
L 794 0 
L 794 531 
z
" transform="scale(0.015625)"/>
       </defs>
       <use xlink:href="#DejaVuSans-31"/>
       <use xlink:href="#DejaVuSans-30" x="63.623047"/>
      </g>
     </g>
    </g>
    <g id="text_8">
     <!-- x -->
     <g transform="translate(512.48125 351.113486) scale(0.1 -0.1)">
      <defs>
       <path id="DejaVuSans-78" d="M 3513 3500 
L 2247 1797 
L 3578 0 
L 2900 0 
L 1881 1375 
L 863 0 
L 184 0 
L 1544 1831 
L 300 3500 
L 978 3500 
L 1906 2253 
L 2834 3500 
L 3513 3500 
z
" transform="scale(0.015625)"/>
      </defs>
      <use xlink:href="#DejaVuSans-78"/>
     </g>
    </g>
   </g>
   <g id="matplotlib.axis_2">
    <g id="ytick_1">
     <g id="line2d_8">
      <defs>
       <path id="m0ee16cfe4d" d="M 0 0 
L -3.5 0 
" style="stroke: #000000; stroke-width: 0.8"/>
      </defs>
      <g>
       <use xlink:href="#m0ee16cfe4d" x="154.724476" y="380.004163" style="stroke: #000000; stroke-width: 0.8"/>
      </g>
     </g>
     <g id="text_9">
      <!-- −2 -->
      <g transform="translate(132.982288 383.803382) scale(0.1 -0.1)">
       <use xlink:href="#DejaVuSans-2212"/>
       <use xlink:href="#DejaVuSans-32" x="83.789062"/>
      </g>
     </g>
    </g>
    <g id="ytick_2">
     <g id="line2d_9">
      <g>
       <use xlink:href="#m0ee16cfe4d" x="154.724476" y="322.836923" style="stroke: #000000; stroke-width: 0.8"/>
      </g>
     </g>
     <g id="text_10">
      <!-- 0 -->
      <g transform="translate(141.361976 326.636142) scale(0.1 -0.1)">
       <use xlink:href="#DejaVuSans-30"/>
      </g>
     </g>
    </g>
    <g id="ytick_3">
     <g id="line2d_10">
      <g>
       <use xlink:href="#m0ee16cfe4d" x="154.724476" y="265.669683" style="stroke: #000000; stroke-width: 0.8"/>
      </g>
     </g>
     <g id="text_11">
      <!-- 2 -->
      <g transform="translate(141.361976 269.468902) scale(0.1 -0.1)">
       <use xlink:href="#DejaVuSans-32"/>
      </g>
     </g>
    </g>
    <g id="ytick_4">
     <g id="line2d_11">
      <g>
       <use xlink:href="#m0ee16cfe4d" x="154.724476" y="208.502443" style="stroke: #000000; stroke-width: 0.8"/>
      </g>
     </g>
     <g id="text_12">
      <!-- 4 -->
      <g transform="translate(141.361976 212.301661) scale(0.1 -0.1)">
       <use xlink:href="#DejaVuSans-34"/>
      </g>
     </g>
    </g>
    <g id="ytick_5">
     <g id="line2d_12">
      <g>
       <use xlink:href="#m0ee16cfe4d" x="154.724476" y="151.335202" style="stroke: #000000; stroke-width: 0.8"/>
      </g>
     </g>
     <g id="text_13">
      <!-- 6 -->
      <g transform="translate(141.361976 155.134421) scale(0.1 -0.1)">
       <use xlink:href="#DejaVuSans-36"/>
      </g>
     </g>
    </g>
    <g id="ytick_6">
     <g id="line2d_13">
      <g>
       <use xlink:href="#m0ee16cfe4d" x="154.724476" y="94.167962" style="stroke: #000000; stroke-width: 0.8"/>
      </g>
     </g>
     <g id="text_14">
      <!-- 8 -->
      <g transform="translate(141.361976 97.967181) scale(0.1 -0.1)">
       <use xlink:href="#DejaVuSans-38"/>
      </g>
     </g>
    </g>
    <g id="text_15">
     <!-- y -->
     <g transform="translate(123.063538 49.760312) scale(0.1 -0.1)">
      <defs>
       <path id="DejaVuSans-79" d="M 2059 -325 
Q 1816 -950 1584 -1140 
Q 1353 -1331 966 -1331 
L 506 -1331 
L 506 -850 
L 844 -850 
Q 1081 -850 1212 -737 
Q 1344 -625 1503 -206 
L 1606 56 
L 191 3500 
L 800 3500 
L 1894 763 
L 2988 3500 
L 3597 3500 
L 2059 -325 
z
" transform="scale(0.015625)"/>
      </defs>
      <use xlink:href="#DejaVuSans-79"/>
     </g>
    </g>
   </g>
   <g id="line2d_14">
    <path d="M 92.290909 369.36 
L 498.109091 66.96 
" clip-path="url(#p9843c80bd5)" style="fill: none; stroke: #0000ff; stroke-width: 1.5; stroke-linecap: square"/>
   </g>
   <g id="line2d_15">
    <path d="M 72 322.836923 
L 518.4 322.836923 
" clip-path="url(#p9843c80bd5)" style="fill: none; stroke: #000000; stroke-width: 1.5; stroke-linecap: square"/>
   </g>
   <g id="line2d_16">
    <path d="M 154.724476 384.48 
L 154.724476 51.84 
" clip-path="url(#p9843c80bd5)" style="fill: none; stroke: #000000; stroke-width: 1.5; stroke-linecap: square"/>
   </g>
   <g id="patch_3">
    <path d="M 154.724476 384.48 
L 154.724476 51.84 
" style="fill: none; stroke: #000000; stroke-width: 0.8; stroke-linejoin: miter; stroke-linecap: square"/>
   </g>
   <g id="patch_4">
    <path d="M 72 322.836923 
L 518.4 322.836923 
" style="fill: none; stroke: #000000; stroke-width: 0.8; stroke-linejoin: miter; stroke-linecap: square"/>
   </g>
  </g>
 </g>
 <defs>
  <clipPath id="p9843c80bd5">
   <rect x="72" y="51.84" width="446.4" height="332.64"/>
  </clipPath>
 </defs>
</svg>
