<?xml version="1.0" encoding="utf-8" standalone="no"?>
<!DOCTYPE svg PUBLIC "-//W3C//DTD SVG 1.1//EN"
  "http://www.w3.org/Graphics/SVG/1.1/DTD/svg11.dtd">
<svg xmlns:xlink="http://www.w3.org/1999/xlink" width="576pt" height="432pt" viewBox="0 0 576 432" xmlns="http://www.w3.org/2000/svg" version="1.1">
 <metadata>
  <rdf:RDF xmlns:dc="http://purl.org/dc/elements/1.1/" xmlns:cc="http://creativecommons.org/ns#" xmlns:rdf="http://www.w3.org/1999/02/22-rdf-syntax-ns#">
   <cc:Work>
    <dc:type rdf:resource="http://purl.org/dc/dcmitype/StillImage"/>
    <dc:date>2023-12-19T07:22:17.655633</dc:date>
    <dc:format>image/svg+xml</dc:format>
    <dc:creator>
     <cc:Agent>
      <dc:title>Matplotlib v3.7.0, https://matplotlib.org/</dc:title>
     </cc:Agent>
    </dc:creator>
   </cc:Work>
  </rdf:RDF>
 </metadata>
 <defs>
  <style type="text/css">*{stroke-linejoin: round; stroke-linecap: butt}</style>
 </defs>
 <g id="figure_1">
  <g id="patch_1">
   <path d="M 0 432 
L 576 432 
L 576 0 
L 0 0 
z
" style="fill: #ffffff"/>
  </g>
  <g id="axes_1">
   <g id="patch_2">
    <path d="M 72 384.48 
L 518.4 384.48 
L 518.4 51.84 
L 72 51.84 
z
" style="fill: #ffffff"/>
   </g>
   <g id="PathCollection_1">
    <defs>
     <path id="mce141a53b8" d="M 0 3 
C 0.795609 3 1.55874 2.683901 2.12132 2.12132 
C 2.683901 1.55874 3 0.795609 3 0 
C 3 -0.795609 2.683901 -1.55874 2.12132 -2.12132 
C 1.55874 -2.683901 0.795609 -3 0 -3 
C -0.795609 -3 -1.55874 -2.683901 -2.12132 -2.12132 
C -2.683901 -1.55874 -3 -0.795609 -3 0 
C -3 0.795609 -2.683901 1.55874 -2.12132 2.12132 
C -1.55874 2.683901 -0.795609 3 0 3 
z
" style="stroke: #ff0000"/>
    </defs>
    <g clip-path="url(#pfbe275fdfa)">
     <use xlink:href="#mce141a53b8" x="316.767727" y="261.745504" style="fill: #ff0000; stroke: #ff0000"/>
     <use xlink:href="#mce141a53b8" x="385.406372" y="155.675816" style="fill: #ff0000; stroke: #ff0000"/>
     <use xlink:href="#mce141a53b8" x="339.024839" y="194.08925" style="fill: #ff0000; stroke: #ff0000"/>
     <use xlink:href="#mce141a53b8" x="315.146267" y="275.407376" style="fill: #ff0000; stroke: #ff0000"/>
     <use xlink:href="#mce141a53b8" x="265.133291" y="195.891388" style="fill: #ff0000; stroke: #ff0000"/>
     <use xlink:href="#mce141a53b8" x="356.818498" y="135.623404" style="fill: #ff0000; stroke: #ff0000"/>
     <use xlink:href="#mce141a53b8" x="270.881131" y="203.710257" style="fill: #ff0000; stroke: #ff0000"/>
     <use xlink:href="#mce141a53b8" x="458.256251" y="156.411377" style="fill: #ff0000; stroke: #ff0000"/>
     <use xlink:href="#mce141a53b8" x="487.914494" y="172.316794" style="fill: #ff0000; stroke: #ff0000"/>
     <use xlink:href="#mce141a53b8" x="248.543233" y="219.259577" style="fill: #ff0000; stroke: #ff0000"/>
     <use xlink:href="#mce141a53b8" x="416.981294" y="184.918564" style="fill: #ff0000; stroke: #ff0000"/>
     <use xlink:href="#mce141a53b8" x="308.550281" y="183.234824" style="fill: #ff0000; stroke: #ff0000"/>
     <use xlink:href="#mce141a53b8" x="324.701533" y="210.209667" style="fill: #ff0000; stroke: #ff0000"/>
     <use xlink:href="#mce141a53b8" x="472.21025" y="109.351504" style="fill: #ff0000; stroke: #ff0000"/>
     <use xlink:href="#mce141a53b8" x="119.659829" y="308.308395" style="fill: #ff0000; stroke: #ff0000"/>
     <use xlink:href="#mce141a53b8" x="126.299123" y="292.84339" style="fill: #ff0000; stroke: #ff0000"/>
     <use xlink:href="#mce141a53b8" x="98.694917" y="330.835158" style="fill: #ff0000; stroke: #ff0000"/>
     <use xlink:href="#mce141a53b8" x="433.852516" y="100.6502" style="fill: #ff0000; stroke: #ff0000"/>
     <use xlink:href="#mce141a53b8" x="411.383674" y="169.387337" style="fill: #ff0000; stroke: #ff0000"/>
     <use xlink:href="#mce141a53b8" x="449.278774" y="140.787735" style="fill: #ff0000; stroke: #ff0000"/>
     <use xlink:href="#mce141a53b8" x="494.084445" y="66.96" style="fill: #ff0000; stroke: #ff0000"/>
     <use xlink:href="#mce141a53b8" x="420.048008" y="216.071791" style="fill: #ff0000; stroke: #ff0000"/>
     <use xlink:href="#mce141a53b8" x="280.737878" y="283.530379" style="fill: #ff0000; stroke: #ff0000"/>
     <use xlink:href="#mce141a53b8" x="412.362422" y="139.731635" style="fill: #ff0000; stroke: #ff0000"/>
     <use xlink:href="#mce141a53b8" x="139.148098" y="351.441282" style="fill: #ff0000; stroke: #ff0000"/>
     <use xlink:href="#mce141a53b8" x="354.354289" y="135.211707" style="fill: #ff0000; stroke: #ff0000"/>
     <use xlink:href="#mce141a53b8" x="149.494425" y="319.942017" style="fill: #ff0000; stroke: #ff0000"/>
     <use xlink:href="#mce141a53b8" x="480.078551" y="165.070582" style="fill: #ff0000; stroke: #ff0000"/>
     <use xlink:href="#mce141a53b8" x="305.643195" y="160.450348" style="fill: #ff0000; stroke: #ff0000"/>
     <use xlink:href="#mce141a53b8" x="261.423271" y="198.026972" style="fill: #ff0000; stroke: #ff0000"/>
     <use xlink:href="#mce141a53b8" x="199.49665" y="215.805241" style="fill: #ff0000; stroke: #ff0000"/>
     <use xlink:href="#mce141a53b8" x="409.765208" y="143.232119" style="fill: #ff0000; stroke: #ff0000"/>
     <use xlink:href="#mce141a53b8" x="278.539378" y="270.470492" style="fill: #ff0000; stroke: #ff0000"/>
     <use xlink:href="#mce141a53b8" x="324.862175" y="151.220604" style="fill: #ff0000; stroke: #ff0000"/>
     <use xlink:href="#mce141a53b8" x="98.105547" y="340.772382" style="fill: #ff0000; stroke: #ff0000"/>
     <use xlink:href="#mce141a53b8" x="345.160358" y="179.342153" style="fill: #ff0000; stroke: #ff0000"/>
     <use xlink:href="#mce141a53b8" x="342.874914" y="175.480562" style="fill: #ff0000; stroke: #ff0000"/>
     <use xlink:href="#mce141a53b8" x="344.870952" y="212.630963" style="fill: #ff0000; stroke: #ff0000"/>
     <use xlink:href="#mce141a53b8" x="479.698658" y="118.131743" style="fill: #ff0000; stroke: #ff0000"/>
     <use xlink:href="#mce141a53b8" x="371.639907" y="161.866239" style="fill: #ff0000; stroke: #ff0000"/>
     <use xlink:href="#mce141a53b8" x="238.669378" y="247.70058" style="fill: #ff0000; stroke: #ff0000"/>
     <use xlink:href="#mce141a53b8" x="270.652059" y="282.685771" style="fill: #ff0000; stroke: #ff0000"/>
     <use xlink:href="#mce141a53b8" x="378.162719" y="180.181371" style="fill: #ff0000; stroke: #ff0000"/>
     <use xlink:href="#mce141a53b8" x="115.199903" y="276.976032" style="fill: #ff0000; stroke: #ff0000"/>
     <use xlink:href="#mce141a53b8" x="365.429525" y="220.958101" style="fill: #ff0000; stroke: #ff0000"/>
     <use xlink:href="#mce141a53b8" x="367.026577" y="201.29099" style="fill: #ff0000; stroke: #ff0000"/>
     <use xlink:href="#mce141a53b8" x="177.147466" y="306.765963" style="fill: #ff0000; stroke: #ff0000"/>
     <use xlink:href="#mce141a53b8" x="143.542546" y="244.60774" style="fill: #ff0000; stroke: #ff0000"/>
     <use xlink:href="#mce141a53b8" x="220.484285" y="246.613934" style="fill: #ff0000; stroke: #ff0000"/>
     <use xlink:href="#mce141a53b8" x="240.40328" y="245.75334" style="fill: #ff0000; stroke: #ff0000"/>
     <use xlink:href="#mce141a53b8" x="325.58943" y="243.623172" style="fill: #ff0000; stroke: #ff0000"/>
     <use xlink:href="#mce141a53b8" x="271.299583" y="225.637213" style="fill: #ff0000; stroke: #ff0000"/>
     <use xlink:href="#mce141a53b8" x="498.109091" y="153.46224" style="fill: #ff0000; stroke: #ff0000"/>
     <use xlink:href="#mce141a53b8" x="132.452543" y="313.102054" style="fill: #ff0000; stroke: #ff0000"/>
     <use xlink:href="#mce141a53b8" x="176.526244" y="314.025766" style="fill: #ff0000; stroke: #ff0000"/>
     <use xlink:href="#mce141a53b8" x="156.902298" y="278.480014" style="fill: #ff0000; stroke: #ff0000"/>
     <use xlink:href="#mce141a53b8" x="359.794733" y="179.793144" style="fill: #ff0000; stroke: #ff0000"/>
     <use xlink:href="#mce141a53b8" x="194.849664" y="290.001398" style="fill: #ff0000; stroke: #ff0000"/>
     <use xlink:href="#mce141a53b8" x="282.731085" y="224.840605" style="fill: #ff0000; stroke: #ff0000"/>
     <use xlink:href="#mce141a53b8" x="191.191976" y="322.469245" style="fill: #ff0000; stroke: #ff0000"/>
     <use xlink:href="#mce141a53b8" x="155.936955" y="354.001552" style="fill: #ff0000; stroke: #ff0000"/>
     <use xlink:href="#mce141a53b8" x="135.889235" y="297.264003" style="fill: #ff0000; stroke: #ff0000"/>
     <use xlink:href="#mce141a53b8" x="361.123671" y="193.313576" style="fill: #ff0000; stroke: #ff0000"/>
     <use xlink:href="#mce141a53b8" x="147.361394" y="284.716374" style="fill: #ff0000; stroke: #ff0000"/>
     <use xlink:href="#mce141a53b8" x="171.45417" y="212.075557" style="fill: #ff0000; stroke: #ff0000"/>
     <use xlink:href="#mce141a53b8" x="242.471979" y="226.12279" style="fill: #ff0000; stroke: #ff0000"/>
     <use xlink:href="#mce141a53b8" x="429.055936" y="196.481368" style="fill: #ff0000; stroke: #ff0000"/>
     <use xlink:href="#mce141a53b8" x="130.413079" y="276.56462" style="fill: #ff0000; stroke: #ff0000"/>
     <use xlink:href="#mce141a53b8" x="436.04938" y="206.913597" style="fill: #ff0000; stroke: #ff0000"/>
     <use xlink:href="#mce141a53b8" x="129.999344" y="331.416856" style="fill: #ff0000; stroke: #ff0000"/>
     <use xlink:href="#mce141a53b8" x="493.193796" y="134.956665" style="fill: #ff0000; stroke: #ff0000"/>
     <use xlink:href="#mce141a53b8" x="283.696633" y="178.754364" style="fill: #ff0000; stroke: #ff0000"/>
     <use xlink:href="#mce141a53b8" x="493.318231" y="158.311815" style="fill: #ff0000; stroke: #ff0000"/>
     <use xlink:href="#mce141a53b8" x="339.883831" y="238.383434" style="fill: #ff0000; stroke: #ff0000"/>
     <use xlink:href="#mce141a53b8" x="395.33823" y="185.266253" style="fill: #ff0000; stroke: #ff0000"/>
     <use xlink:href="#mce141a53b8" x="106.520773" y="350.225404" style="fill: #ff0000; stroke: #ff0000"/>
     <use xlink:href="#mce141a53b8" x="207.026276" y="237.66194" style="fill: #ff0000; stroke: #ff0000"/>
     <use xlink:href="#mce141a53b8" x="139.941078" y="347.816191" style="fill: #ff0000; stroke: #ff0000"/>
     <use xlink:href="#mce141a53b8" x="212.526925" y="313.611832" style="fill: #ff0000; stroke: #ff0000"/>
     <use xlink:href="#mce141a53b8" x="139.335105" y="325.894295" style="fill: #ff0000; stroke: #ff0000"/>
     <use xlink:href="#mce141a53b8" x="221.538284" y="286.594694" style="fill: #ff0000; stroke: #ff0000"/>
     <use xlink:href="#mce141a53b8" x="261.258686" y="182.566904" style="fill: #ff0000; stroke: #ff0000"/>
     <use xlink:href="#mce141a53b8" x="116.817941" y="289.210265" style="fill: #ff0000; stroke: #ff0000"/>
     <use xlink:href="#mce141a53b8" x="376.034333" y="188.545891" style="fill: #ff0000; stroke: #ff0000"/>
     <use xlink:href="#mce141a53b8" x="324.106176" y="260.137894" style="fill: #ff0000; stroke: #ff0000"/>
     <use xlink:href="#mce141a53b8" x="199.840668" y="251.050419" style="fill: #ff0000; stroke: #ff0000"/>
     <use xlink:href="#mce141a53b8" x="306.220657" y="261.34598" style="fill: #ff0000; stroke: #ff0000"/>
     <use xlink:href="#mce141a53b8" x="129.1091" y="369.36" style="fill: #ff0000; stroke: #ff0000"/>
     <use xlink:href="#mce141a53b8" x="327.961489" y="174.653861" style="fill: #ff0000; stroke: #ff0000"/>
     <use xlink:href="#mce141a53b8" x="473.73651" y="131.418808" style="fill: #ff0000; stroke: #ff0000"/>
     <use xlink:href="#mce141a53b8" x="221.779946" y="237.357503" style="fill: #ff0000; stroke: #ff0000"/>
     <use xlink:href="#mce141a53b8" x="365.69507" y="185.748758" style="fill: #ff0000; stroke: #ff0000"/>
     <use xlink:href="#mce141a53b8" x="144.727215" y="278.364836" style="fill: #ff0000; stroke: #ff0000"/>
     <use xlink:href="#mce141a53b8" x="385.875789" y="209.157521" style="fill: #ff0000; stroke: #ff0000"/>
     <use xlink:href="#mce141a53b8" x="209.748758" y="311.091095" style="fill: #ff0000; stroke: #ff0000"/>
     <use xlink:href="#mce141a53b8" x="165.92969" y="273.75666" style="fill: #ff0000; stroke: #ff0000"/>
     <use xlink:href="#mce141a53b8" x="332.320692" y="241.393821" style="fill: #ff0000; stroke: #ff0000"/>
     <use xlink:href="#mce141a53b8" x="98.649185" y="355.090706" style="fill: #ff0000; stroke: #ff0000"/>
     <use xlink:href="#mce141a53b8" x="432.334402" y="179.001597" style="fill: #ff0000; stroke: #ff0000"/>
     <use xlink:href="#mce141a53b8" x="92.290909" y="333.817568" style="fill: #ff0000; stroke: #ff0000"/>
    </g>
   </g>
   <g id="matplotlib.axis_1">
    <g id="xtick_1">
     <g id="line2d_1">
      <defs>
       <path id="m01ff0459d0" d="M 0 0 
L 0 3.5 
" style="stroke: #000000; stroke-width: 0.8"/>
      </defs>
      <g>
       <use xlink:href="#m01ff0459d0" x="90.353782" y="370.013261" style="stroke: #000000; stroke-width: 0.8"/>
      </g>
     </g>
     <g id="text_1">
      <!-- −2 -->
      <g transform="translate(82.982689 384.611699) scale(0.1 -0.1)">
       <defs>
        <path id="DejaVuSans-2212" d="M 678 2272 
L 4684 2272 
L 4684 1741 
L 678 1741 
L 678 2272 
z
" transform="scale(0.015625)"/>
        <path id="DejaVuSans-32" d="M 1228 531 
L 3431 531 
L 3431 0 
L 469 0 
L 469 531 
Q 828 903 1448 1529 
Q 2069 2156 2228 2338 
Q 2531 2678 2651 2914 
Q 2772 3150 2772 3378 
Q 2772 3750 2511 3984 
Q 2250 4219 1831 4219 
Q 1534 4219 1204 4116 
Q 875 4013 500 3803 
L 500 4441 
Q 881 4594 1212 4672 
Q 1544 4750 1819 4750 
Q 2544 4750 2975 4387 
Q 3406 4025 3406 3419 
Q 3406 3131 3298 2873 
Q 3191 2616 2906 2266 
Q 2828 2175 2409 1742 
Q 1991 1309 1228 531 
z
" transform="scale(0.015625)"/>
       </defs>
       <use xlink:href="#DejaVuSans-2212"/>
       <use xlink:href="#DejaVuSans-32" x="83.789062"/>
      </g>
     </g>
    </g>
    <g id="xtick_2">
     <g id="line2d_2">
      <g>
       <use xlink:href="#m01ff0459d0" x="159.112399" y="370.013261" style="stroke: #000000; stroke-width: 0.8"/>
      </g>
     </g>
     <g id="text_2">
      <!-- 0 -->
      <g transform="translate(155.931149 384.611699) scale(0.1 -0.1)">
       <defs>
        <path id="DejaVuSans-30" d="M 2034 4250 
Q 1547 4250 1301 3770 
Q 1056 3291 1056 2328 
Q 1056 1369 1301 889 
Q 1547 409 2034 409 
Q 2525 409 2770 889 
Q 3016 1369 3016 2328 
Q 3016 3291 2770 3770 
Q 2525 4250 2034 4250 
z
M 2034 4750 
Q 2819 4750 3233 4129 
Q 3647 3509 3647 2328 
Q 3647 1150 3233 529 
Q 2819 -91 2034 -91 
Q 1250 -91 836 529 
Q 422 1150 422 2328 
Q 422 3509 836 4129 
Q 1250 4750 2034 4750 
z
" transform="scale(0.015625)"/>
       </defs>
       <use xlink:href="#DejaVuSans-30"/>
      </g>
     </g>
    </g>
    <g id="xtick_3">
     <g id="line2d_3">
      <g>
       <use xlink:href="#m01ff0459d0" x="227.871016" y="370.013261" style="stroke: #000000; stroke-width: 0.8"/>
      </g>
     </g>
     <g id="text_3">
      <!-- 2 -->
      <g transform="translate(224.689766 384.611699) scale(0.1 -0.1)">
       <use xlink:href="#DejaVuSans-32"/>
      </g>
     </g>
    </g>
    <g id="xtick_4">
     <g id="line2d_4">
      <g>
       <use xlink:href="#m01ff0459d0" x="296.629633" y="370.013261" style="stroke: #000000; stroke-width: 0.8"/>
      </g>
     </g>
     <g id="text_4">
      <!-- 4 -->
      <g transform="translate(293.448383 384.611699) scale(0.1 -0.1)">
       <defs>
        <path id="DejaVuSans-34" d="M 2419 4116 
L 825 1625 
L 2419 1625 
L 2419 4116 
z
M 2253 4666 
L 3047 4666 
L 3047 1625 
L 3713 1625 
L 3713 1100 
L 3047 1100 
L 3047 0 
L 2419 0 
L 2419 1100 
L 313 1100 
L 313 1709 
L 2253 4666 
z
" transform="scale(0.015625)"/>
       </defs>
       <use xlink:href="#DejaVuSans-34"/>
      </g>
     </g>
    </g>
    <g id="xtick_5">
     <g id="line2d_5">
      <g>
       <use xlink:href="#m01ff0459d0" x="365.38825" y="370.013261" style="stroke: #000000; stroke-width: 0.8"/>
      </g>
     </g>
     <g id="text_5">
      <!-- 6 -->
      <g transform="translate(362.207 384.611699) scale(0.1 -0.1)">
       <defs>
        <path id="DejaVuSans-36" d="M 2113 2584 
Q 1688 2584 1439 2293 
Q 1191 2003 1191 1497 
Q 1191 994 1439 701 
Q 1688 409 2113 409 
Q 2538 409 2786 701 
Q 3034 994 3034 1497 
Q 3034 2003 2786 2293 
Q 2538 2584 2113 2584 
z
M 3366 4563 
L 3366 3988 
Q 3128 4100 2886 4159 
Q 2644 4219 2406 4219 
Q 1781 4219 1451 3797 
Q 1122 3375 1075 2522 
Q 1259 2794 1537 2939 
Q 1816 3084 2150 3084 
Q 2853 3084 3261 2657 
Q 3669 2231 3669 1497 
Q 3669 778 3244 343 
Q 2819 -91 2113 -91 
Q 1303 -91 875 529 
Q 447 1150 447 2328 
Q 447 3434 972 4092 
Q 1497 4750 2381 4750 
Q 2619 4750 2861 4703 
Q 3103 4656 3366 4563 
z
" transform="scale(0.015625)"/>
       </defs>
       <use xlink:href="#DejaVuSans-36"/>
      </g>
     </g>
    </g>
    <g id="xtick_6">
     <g id="line2d_6">
      <g>
       <use xlink:href="#m01ff0459d0" x="434.146867" y="370.013261" style="stroke: #000000; stroke-width: 0.8"/>
      </g>
     </g>
     <g id="text_6">
      <!-- 8 -->
      <g transform="translate(430.965617 384.611699) scale(0.1 -0.1)">
       <defs>
        <path id="DejaVuSans-38" d="M 2034 2216 
Q 1584 2216 1326 1975 
Q 1069 1734 1069 1313 
Q 1069 891 1326 650 
Q 1584 409 2034 409 
Q 2484 409 2743 651 
Q 3003 894 3003 1313 
Q 3003 1734 2745 1975 
Q 2488 2216 2034 2216 
z
M 1403 2484 
Q 997 2584 770 2862 
Q 544 3141 544 3541 
Q 544 4100 942 4425 
Q 1341 4750 2034 4750 
Q 2731 4750 3128 4425 
Q 3525 4100 3525 3541 
Q 3525 3141 3298 2862 
Q 3072 2584 2669 2484 
Q 3125 2378 3379 2068 
Q 3634 1759 3634 1313 
Q 3634 634 3220 271 
Q 2806 -91 2034 -91 
Q 1263 -91 848 271 
Q 434 634 434 1313 
Q 434 1759 690 2068 
Q 947 2378 1403 2484 
z
M 1172 3481 
Q 1172 3119 1398 2916 
Q 1625 2713 2034 2713 
Q 2441 2713 2670 2916 
Q 2900 3119 2900 3481 
Q 2900 3844 2670 4047 
Q 2441 4250 2034 4250 
Q 1625 4250 1398 4047 
Q 1172 3844 1172 3481 
z
" transform="scale(0.015625)"/>
       </defs>
       <use xlink:href="#DejaVuSans-38"/>
      </g>
     </g>
    </g>
    <g id="xtick_7">
     <g id="line2d_7">
      <g>
       <use xlink:href="#m01ff0459d0" x="502.905484" y="370.013261" style="stroke: #000000; stroke-width: 0.8"/>
      </g>
     </g>
     <g id="text_7">
      <!-- 10 -->
      <g transform="translate(496.542984 384.611699) scale(0.1 -0.1)">
       <defs>
        <path id="DejaVuSans-31" d="M 794 531 
L 1825 531 
L 1825 4091 
L 703 3866 
L 703 4441 
L 1819 4666 
L 2450 4666 
L 2450 531 
L 3481 531 
L 3481 0 
L 794 0 
L 794 531 
z
" transform="scale(0.015625)"/>
       </defs>
       <use xlink:href="#DejaVuSans-31"/>
       <use xlink:href="#DejaVuSans-30" x="63.623047"/>
      </g>
     </g>
    </g>
    <g id="text_8">
     <!-- x -->
     <g transform="translate(512.48125 398.289824) scale(0.1 -0.1)">
      <defs>
       <path id="DejaVuSans-78" d="M 3513 3500 
L 2247 1797 
L 3578 0 
L 2900 0 
L 1881 1375 
L 863 0 
L 184 0 
L 1544 1831 
L 300 3500 
L 978 3500 
L 1906 2253 
L 2834 3500 
L 3513 3500 
z
" transform="scale(0.015625)"/>
      </defs>
      <use xlink:href="#DejaVuSans-78"/>
     </g>
    </g>
   </g>
   <g id="matplotlib.axis_2">
    <g id="ytick_1">
     <g id="line2d_8">
      <defs>
       <path id="mc42f4689aa" d="M 0 0 
L -3.5 0 
" style="stroke: #000000; stroke-width: 0.8"/>
      </defs>
      <g>
       <use xlink:href="#mc42f4689aa" x="159.112399" y="370.013261" style="stroke: #000000; stroke-width: 0.8"/>
      </g>
     </g>
     <g id="text_9">
      <!-- 0 -->
      <g transform="translate(145.749899 373.81248) scale(0.1 -0.1)">
       <use xlink:href="#DejaVuSans-30"/>
      </g>
     </g>
    </g>
    <g id="ytick_2">
     <g id="line2d_9">
      <g>
       <use xlink:href="#mc42f4689aa" x="159.112399" y="300.782403" style="stroke: #000000; stroke-width: 0.8"/>
      </g>
     </g>
     <g id="text_10">
      <!-- 2 -->
      <g transform="translate(145.749899 304.581622) scale(0.1 -0.1)">
       <use xlink:href="#DejaVuSans-32"/>
      </g>
     </g>
    </g>
    <g id="ytick_3">
     <g id="line2d_10">
      <g>
       <use xlink:href="#mc42f4689aa" x="159.112399" y="231.551545" style="stroke: #000000; stroke-width: 0.8"/>
      </g>
     </g>
     <g id="text_11">
      <!-- 4 -->
      <g transform="translate(145.749899 235.350764) scale(0.1 -0.1)">
       <use xlink:href="#DejaVuSans-34"/>
      </g>
     </g>
    </g>
    <g id="ytick_4">
     <g id="line2d_11">
      <g>
       <use xlink:href="#mc42f4689aa" x="159.112399" y="162.320687" style="stroke: #000000; stroke-width: 0.8"/>
      </g>
     </g>
     <g id="text_12">
      <!-- 6 -->
      <g transform="translate(145.749899 166.119906) scale(0.1 -0.1)">
       <use xlink:href="#DejaVuSans-36"/>
      </g>
     </g>
    </g>
    <g id="ytick_5">
     <g id="line2d_12">
      <g>
       <use xlink:href="#mc42f4689aa" x="159.112399" y="93.089829" style="stroke: #000000; stroke-width: 0.8"/>
      </g>
     </g>
     <g id="text_13">
      <!-- 8 -->
      <g transform="translate(145.749899 96.889048) scale(0.1 -0.1)">
       <use xlink:href="#DejaVuSans-38"/>
      </g>
     </g>
    </g>
    <g id="text_14">
     <!-- y -->
     <g transform="translate(135.831149 49.760312) scale(0.1 -0.1)">
      <defs>
       <path id="DejaVuSans-79" d="M 2059 -325 
Q 1816 -950 1584 -1140 
Q 1353 -1331 966 -1331 
L 506 -1331 
L 506 -850 
L 844 -850 
Q 1081 -850 1212 -737 
Q 1344 -625 1503 -206 
L 1606 56 
L 191 3500 
L 800 3500 
L 1894 763 
L 2988 3500 
L 3597 3500 
L 2059 -325 
z
" transform="scale(0.015625)"/>
      </defs>
      <use xlink:href="#DejaVuSans-79"/>
     </g>
    </g>
   </g>
   <g id="line2d_13">
    <path d="M 72 370.013261 
L 518.4 370.013261 
" clip-path="url(#pfbe275fdfa)" style="fill: none; stroke: #000000; stroke-width: 1.5; stroke-linecap: square"/>
   </g>
   <g id="line2d_14">
    <path d="M 159.112399 384.48 
L 159.112399 51.84 
" clip-path="url(#pfbe275fdfa)" style="fill: none; stroke: #000000; stroke-width: 1.5; stroke-linecap: square"/>
   </g>
   <g id="patch_3">
    <path d="M 159.112399 384.48 
L 159.112399 51.84 
" style="fill: none; stroke: #000000; stroke-width: 0.8; stroke-linejoin: miter; stroke-linecap: square"/>
   </g>
   <g id="patch_4">
    <path d="M 72 370.013261 
L 518.4 370.013261 
" style="fill: none; stroke: #000000; stroke-width: 0.8; stroke-linejoin: miter; stroke-linecap: square"/>
   </g>
  </g>
 </g>
 <defs>
  <clipPath id="pfbe275fdfa">
   <rect x="72" y="51.84" width="446.4" height="332.64"/>
  </clipPath>
 </defs>
</svg>
