<?xml version="1.0" encoding="utf-8" standalone="no"?>
<!DOCTYPE svg PUBLIC "-//W3C//DTD SVG 1.1//EN"
  "http://www.w3.org/Graphics/SVG/1.1/DTD/svg11.dtd">
<svg xmlns:xlink="http://www.w3.org/1999/xlink" width="576pt" height="432pt" viewBox="0 0 576 432" xmlns="http://www.w3.org/2000/svg" version="1.1">
 <metadata>
  <rdf:RDF xmlns:dc="http://purl.org/dc/elements/1.1/" xmlns:cc="http://creativecommons.org/ns#" xmlns:rdf="http://www.w3.org/1999/02/22-rdf-syntax-ns#">
   <cc:Work>
    <dc:type rdf:resource="http://purl.org/dc/dcmitype/StillImage"/>
    <dc:date>2023-12-18T08:51:29.625479</dc:date>
    <dc:format>image/svg+xml</dc:format>
    <dc:creator>
     <cc:Agent>
      <dc:title>Matplotlib v3.7.0, https://matplotlib.org/</dc:title>
     </cc:Agent>
    </dc:creator>
   </cc:Work>
  </rdf:RDF>
 </metadata>
 <defs>
  <style type="text/css">*{stroke-linejoin: round; stroke-linecap: butt}</style>
 </defs>
 <g id="figure_1">
  <g id="patch_1">
   <path d="M 0 432 
L 576 432 
L 576 0 
L 0 0 
z
" style="fill: #ffffff"/>
  </g>
  <g id="axes_1">
   <g id="patch_2">
    <path d="M 72 384.48 
L 518.4 384.48 
L 518.4 51.84 
L 72 51.84 
z
" style="fill: #ffffff"/>
   </g>
   <g id="PathCollection_1">
    <defs>
     <path id="mbe3ca310b7" d="M 0 3 
C 0.795609 3 1.55874 2.683901 2.12132 2.12132 
C 2.683901 1.55874 3 0.795609 3 0 
C 3 -0.795609 2.683901 -1.55874 2.12132 -2.12132 
C 1.55874 -2.683901 0.795609 -3 0 -3 
C -0.795609 -3 -1.55874 -2.683901 -2.12132 -2.12132 
C -2.683901 -1.55874 -3 -0.795609 -3 0 
C -3 0.795609 -2.683901 1.55874 -2.12132 2.12132 
C -1.55874 2.683901 -0.795609 3 0 3 
z
" style="stroke: #ff0000"/>
    </defs>
    <g clip-path="url(#p4fcbe7c0c5)">
     <use xlink:href="#mbe3ca310b7" x="316.767727" y="247.944944" style="fill: #ff0000; stroke: #ff0000"/>
     <use xlink:href="#mbe3ca310b7" x="385.406372" y="156.059046" style="fill: #ff0000; stroke: #ff0000"/>
     <use xlink:href="#mbe3ca310b7" x="339.024839" y="194.477076" style="fill: #ff0000; stroke: #ff0000"/>
     <use xlink:href="#mbe3ca310b7" x="315.146267" y="258.055502" style="fill: #ff0000; stroke: #ff0000"/>
     <use xlink:href="#mbe3ca310b7" x="265.133291" y="213.409774" style="fill: #ff0000; stroke: #ff0000"/>
     <use xlink:href="#mbe3ca310b7" x="356.818498" y="148.616248" style="fill: #ff0000; stroke: #ff0000"/>
     <use xlink:href="#mbe3ca310b7" x="270.881131" y="217.60156" style="fill: #ff0000; stroke: #ff0000"/>
     <use xlink:href="#mbe3ca310b7" x="458.256251" y="139.181264" style="fill: #ff0000; stroke: #ff0000"/>
     <use xlink:href="#mbe3ca310b7" x="487.914494" y="143.416943" style="fill: #ff0000; stroke: #ff0000"/>
     <use xlink:href="#mbe3ca310b7" x="248.543233" y="234.00386" style="fill: #ff0000; stroke: #ff0000"/>
     <use xlink:href="#mbe3ca310b7" x="416.981294" y="169.329167" style="fill: #ff0000; stroke: #ff0000"/>
     <use xlink:href="#mbe3ca310b7" x="308.550281" y="194.031211" style="fill: #ff0000; stroke: #ff0000"/>
     <use xlink:href="#mbe3ca310b7" x="324.701533" y="209.371425" style="fill: #ff0000; stroke: #ff0000"/>
     <use xlink:href="#mbe3ca310b7" x="472.21025" y="102.355305" style="fill: #ff0000; stroke: #ff0000"/>
     <use xlink:href="#mbe3ca310b7" x="119.659829" y="328.166251" style="fill: #ff0000; stroke: #ff0000"/>
     <use xlink:href="#mbe3ca310b7" x="126.299123" y="315.573806" style="fill: #ff0000; stroke: #ff0000"/>
     <use xlink:href="#mbe3ca310b7" x="98.694917" y="349.206488" style="fill: #ff0000; stroke: #ff0000"/>
     <use xlink:href="#mbe3ca310b7" x="433.852516" y="105.324847" style="fill: #ff0000; stroke: #ff0000"/>
     <use xlink:href="#mbe3ca310b7" x="411.383674" y="159.612561" style="fill: #ff0000; stroke: #ff0000"/>
     <use xlink:href="#mbe3ca310b7" x="449.278774" y="130.206215" style="fill: #ff0000; stroke: #ff0000"/>
     <use xlink:href="#mbe3ca310b7" x="494.084445" y="66.96" style="fill: #ff0000; stroke: #ff0000"/>
     <use xlink:href="#mbe3ca310b7" x="420.048008" y="190.768604" style="fill: #ff0000; stroke: #ff0000"/>
     <use xlink:href="#mbe3ca310b7" x="280.737878" y="272.055659" style="fill: #ff0000; stroke: #ff0000"/>
     <use xlink:href="#mbe3ca310b7" x="412.362422" y="138.272605" style="fill: #ff0000; stroke: #ff0000"/>
     <use xlink:href="#mbe3ca310b7" x="139.148098" y="354.20916" style="fill: #ff0000; stroke: #ff0000"/>
     <use xlink:href="#mbe3ca310b7" x="354.354289" y="148.911853" style="fill: #ff0000; stroke: #ff0000"/>
     <use xlink:href="#mbe3ca310b7" x="149.494425" y="329.31954" style="fill: #ff0000; stroke: #ff0000"/>
     <use xlink:href="#mbe3ca310b7" x="480.078551" y="140.131496" style="fill: #ff0000; stroke: #ff0000"/>
     <use xlink:href="#mbe3ca310b7" x="305.643195" y="178.509743" style="fill: #ff0000; stroke: #ff0000"/>
     <use xlink:href="#mbe3ca310b7" x="261.423271" y="215.815878" style="fill: #ff0000; stroke: #ff0000"/>
     <use xlink:href="#mbe3ca310b7" x="199.49665" y="243.260897" style="fill: #ff0000; stroke: #ff0000"/>
     <use xlink:href="#mbe3ca310b7" x="409.765208" y="141.384308" style="fill: #ff0000; stroke: #ff0000"/>
     <use xlink:href="#mbe3ca310b7" x="278.539378" y="263.285992" style="fill: #ff0000; stroke: #ff0000"/>
     <use xlink:href="#mbe3ca310b7" x="324.862175" y="167.35013" style="fill: #ff0000; stroke: #ff0000"/>
     <use xlink:href="#mbe3ca310b7" x="98.105547" y="356.419658" style="fill: #ff0000; stroke: #ff0000"/>
     <use xlink:href="#mbe3ca310b7" x="345.160358" y="182.515905" style="fill: #ff0000; stroke: #ff0000"/>
     <use xlink:href="#mbe3ca310b7" x="342.874914" y="180.313497" style="fill: #ff0000; stroke: #ff0000"/>
     <use xlink:href="#mbe3ca310b7" x="344.870952" y="206.276909" style="fill: #ff0000; stroke: #ff0000"/>
     <use xlink:href="#mbe3ca310b7" x="479.698658" y="106.815544" style="fill: #ff0000; stroke: #ff0000"/>
     <use xlink:href="#mbe3ca310b7" x="371.639907" y="163.753139" style="fill: #ff0000; stroke: #ff0000"/>
     <use xlink:href="#mbe3ca310b7" x="238.669378" y="256.604036" style="fill: #ff0000; stroke: #ff0000"/>
     <use xlink:href="#mbe3ca310b7" x="270.652059" y="273.863695" style="fill: #ff0000; stroke: #ff0000"/>
     <use xlink:href="#mbe3ca310b7" x="378.162719" y="175.230073" style="fill: #ff0000; stroke: #ff0000"/>
     <use xlink:href="#mbe3ca310b7" x="115.199903" y="306.932113" style="fill: #ff0000; stroke: #ff0000"/>
     <use xlink:href="#mbe3ca310b7" x="365.429525" y="207.292668" style="fill: #ff0000; stroke: #ff0000"/>
     <use xlink:href="#mbe3ca310b7" x="367.026577" y="192.91397" style="fill: #ff0000; stroke: #ff0000"/>
     <use xlink:href="#mbe3ca310b7" x="177.147466" y="313.336708" style="fill: #ff0000; stroke: #ff0000"/>
     <use xlink:href="#mbe3ca310b7" x="143.542546" y="277.125311" style="fill: #ff0000; stroke: #ff0000"/>
     <use xlink:href="#mbe3ca310b7" x="220.484285" y="260.174445" style="fill: #ff0000; stroke: #ff0000"/>
     <use xlink:href="#mbe3ca310b7" x="240.40328" y="254.804003" style="fill: #ff0000; stroke: #ff0000"/>
     <use xlink:href="#mbe3ca310b7" x="325.58943" y="232.939959" style="fill: #ff0000; stroke: #ff0000"/>
     <use xlink:href="#mbe3ca310b7" x="271.299583" y="233.107172" style="fill: #ff0000; stroke: #ff0000"/>
     <use xlink:href="#mbe3ca310b7" x="498.109091" y="127.562894" style="fill: #ff0000; stroke: #ff0000"/>
     <use xlink:href="#mbe3ca310b7" x="132.452543" y="328.5222" style="fill: #ff0000; stroke: #ff0000"/>
     <use xlink:href="#mbe3ca310b7" x="176.526244" y="318.651948" style="fill: #ff0000; stroke: #ff0000"/>
     <use xlink:href="#mbe3ca310b7" x="156.902298" y="298.041265" style="fill: #ff0000; stroke: #ff0000"/>
     <use xlink:href="#mbe3ca310b7" x="359.794733" y="179.341238" style="fill: #ff0000; stroke: #ff0000"/>
     <use xlink:href="#mbe3ca310b7" x="194.849664" y="297.176816" style="fill: #ff0000; stroke: #ff0000"/>
     <use xlink:href="#mbe3ca310b7" x="282.731085" y="229.809635" style="fill: #ff0000; stroke: #ff0000"/>
     <use xlink:href="#mbe3ca310b7" x="191.191976" y="321.1581" style="fill: #ff0000; stroke: #ff0000"/>
     <use xlink:href="#mbe3ca310b7" x="155.936955" y="352.021051" style="fill: #ff0000; stroke: #ff0000"/>
     <use xlink:href="#mbe3ca310b7" x="135.889235" y="316.429244" style="fill: #ff0000; stroke: #ff0000"/>
     <use xlink:href="#mbe3ca310b7" x="361.123671" y="188.646386" style="fill: #ff0000; stroke: #ff0000"/>
     <use xlink:href="#mbe3ca310b7" x="147.361394" y="304.758713" style="fill: #ff0000; stroke: #ff0000"/>
     <use xlink:href="#mbe3ca310b7" x="171.45417" y="247.304821" style="fill: #ff0000; stroke: #ff0000"/>
     <use xlink:href="#mbe3ca310b7" x="242.471979" y="240.338666" style="fill: #ff0000; stroke: #ff0000"/>
     <use xlink:href="#mbe3ca310b7" x="429.055936" y="174.674285" style="fill: #ff0000; stroke: #ff0000"/>
     <use xlink:href="#mbe3ca310b7" x="130.413079" y="303.005413" style="fill: #ff0000; stroke: #ff0000"/>
     <use xlink:href="#mbe3ca310b7" x="436.04938" y="180.428486" style="fill: #ff0000; stroke: #ff0000"/>
     <use xlink:href="#mbe3ca310b7" x="129.999344" y="342.142954" style="fill: #ff0000; stroke: #ff0000"/>
     <use xlink:href="#mbe3ca310b7" x="493.193796" y="115.56644" style="fill: #ff0000; stroke: #ff0000"/>
     <use xlink:href="#mbe3ca310b7" x="283.696633" y="196.779104" style="fill: #ff0000; stroke: #ff0000"/>
     <use xlink:href="#mbe3ca310b7" x="493.318231" y="132.158739" style="fill: #ff0000; stroke: #ff0000"/>
     <use xlink:href="#mbe3ca310b7" x="339.883831" y="225.796369" style="fill: #ff0000; stroke: #ff0000"/>
     <use xlink:href="#mbe3ca310b7" x="395.33823" y="174.74639" style="fill: #ff0000; stroke: #ff0000"/>
     <use xlink:href="#mbe3ca310b7" x="106.520773" y="361.137337" style="fill: #ff0000; stroke: #ff0000"/>
     <use xlink:href="#mbe3ca310b7" x="207.026276" y="257.017896" style="fill: #ff0000; stroke: #ff0000"/>
     <use xlink:href="#mbe3ca310b7" x="139.941078" y="351.439742" style="fill: #ff0000; stroke: #ff0000"/>
     <use xlink:href="#mbe3ca310b7" x="212.526925" y="309.758046" style="fill: #ff0000; stroke: #ff0000"/>
     <use xlink:href="#mbe3ca310b7" x="139.335105" y="335.982523" style="fill: #ff0000; stroke: #ff0000"/>
     <use xlink:href="#mbe3ca310b7" x="221.538284" y="288.377264" style="fill: #ff0000; stroke: #ff0000"/>
     <use xlink:href="#mbe3ca310b7" x="261.258686" y="204.852155" style="fill: #ff0000; stroke: #ff0000"/>
     <use xlink:href="#mbe3ca310b7" x="116.817941" y="315.252808" style="fill: #ff0000; stroke: #ff0000"/>
     <use xlink:href="#mbe3ca310b7" x="376.034333" y="181.691557" style="fill: #ff0000; stroke: #ff0000"/>
     <use xlink:href="#mbe3ca310b7" x="324.106176" y="245.047898" style="fill: #ff0000; stroke: #ff0000"/>
     <use xlink:href="#mbe3ca310b7" x="199.840668" y="268.262959" style="fill: #ff0000; stroke: #ff0000"/>
     <use xlink:href="#mbe3ca310b7" x="306.220657" y="250.179926" style="fill: #ff0000; stroke: #ff0000"/>
     <use xlink:href="#mbe3ca310b7" x="129.1091" y="369.36" style="fill: #ff0000; stroke: #ff0000"/>
     <use xlink:href="#mbe3ca310b7" x="327.961489" y="183.287423" style="fill: #ff0000; stroke: #ff0000"/>
     <use xlink:href="#mbe3ca310b7" x="473.73651" y="117.696188" style="fill: #ff0000; stroke: #ff0000"/>
     <use xlink:href="#mbe3ca310b7" x="221.779946" y="253.277091" style="fill: #ff0000; stroke: #ff0000"/>
     <use xlink:href="#mbe3ca310b7" x="365.69507" y="182.170506" style="fill: #ff0000; stroke: #ff0000"/>
     <use xlink:href="#mbe3ca310b7" x="144.727215" y="300.867493" style="fill: #ff0000; stroke: #ff0000"/>
     <use xlink:href="#mbe3ca310b7" x="385.875789" y="194.010217" style="fill: #ff0000; stroke: #ff0000"/>
     <use xlink:href="#mbe3ca310b7" x="209.748758" y="308.627627" style="fill: #ff0000; stroke: #ff0000"/>
     <use xlink:href="#mbe3ca310b7" x="165.92969" y="292.523293" style="fill: #ff0000; stroke: #ff0000"/>
     <use xlink:href="#mbe3ca310b7" x="332.320692" y="229.745452" style="fill: #ff0000; stroke: #ff0000"/>
     <use xlink:href="#mbe3ca310b7" x="98.649185" y="366.480252" style="fill: #ff0000; stroke: #ff0000"/>
     <use xlink:href="#mbe3ca310b7" x="432.334402" y="161.450701" style="fill: #ff0000; stroke: #ff0000"/>
     <use xlink:href="#mbe3ca310b7" x="92.290909" y="352.858783" style="fill: #ff0000; stroke: #ff0000"/>
    </g>
   </g>
   <g id="matplotlib.axis_1">
    <g id="xtick_1">
     <g id="line2d_1">
      <defs>
       <path id="m506b93ab30" d="M 0 0 
L 0 3.5 
" style="stroke: #000000; stroke-width: 0.8"/>
      </defs>
      <g>
       <use xlink:href="#m506b93ab30" x="79.129835" y="233.230145" style="stroke: #000000; stroke-width: 0.8"/>
      </g>
     </g>
     <g id="text_1">
      <!-- −10.0 -->
      <g transform="translate(63.807178 247.828582) scale(0.1 -0.1)">
       <defs>
        <path id="DejaVuSans-2212" d="M 678 2272 
L 4684 2272 
L 4684 1741 
L 678 1741 
L 678 2272 
z
" transform="scale(0.015625)"/>
        <path id="DejaVuSans-31" d="M 794 531 
L 1825 531 
L 1825 4091 
L 703 3866 
L 703 4441 
L 1819 4666 
L 2450 4666 
L 2450 531 
L 3481 531 
L 3481 0 
L 794 0 
L 794 531 
z
" transform="scale(0.015625)"/>
        <path id="DejaVuSans-30" d="M 2034 4250 
Q 1547 4250 1301 3770 
Q 1056 3291 1056 2328 
Q 1056 1369 1301 889 
Q 1547 409 2034 409 
Q 2525 409 2770 889 
Q 3016 1369 3016 2328 
Q 3016 3291 2770 3770 
Q 2525 4250 2034 4250 
z
M 2034 4750 
Q 2819 4750 3233 4129 
Q 3647 3509 3647 2328 
Q 3647 1150 3233 529 
Q 2819 -91 2034 -91 
Q 1250 -91 836 529 
Q 422 1150 422 2328 
Q 422 3509 836 4129 
Q 1250 4750 2034 4750 
z
" transform="scale(0.015625)"/>
        <path id="DejaVuSans-2e" d="M 684 794 
L 1344 794 
L 1344 0 
L 684 0 
L 684 794 
z
" transform="scale(0.015625)"/>
       </defs>
       <use xlink:href="#DejaVuSans-2212"/>
       <use xlink:href="#DejaVuSans-31" x="83.789062"/>
       <use xlink:href="#DejaVuSans-30" x="147.412109"/>
       <use xlink:href="#DejaVuSans-2e" x="211.035156"/>
       <use xlink:href="#DejaVuSans-30" x="242.822266"/>
      </g>
     </g>
    </g>
    <g id="xtick_2">
     <g id="line2d_2">
      <g>
       <use xlink:href="#m506b93ab30" x="130.698797" y="233.230145" style="stroke: #000000; stroke-width: 0.8"/>
      </g>
     </g>
     <g id="text_2">
      <!-- −7.5 -->
      <g transform="translate(118.557391 247.828582) scale(0.1 -0.1)">
       <defs>
        <path id="DejaVuSans-37" d="M 525 4666 
L 3525 4666 
L 3525 4397 
L 1831 0 
L 1172 0 
L 2766 4134 
L 525 4134 
L 525 4666 
z
" transform="scale(0.015625)"/>
        <path id="DejaVuSans-35" d="M 691 4666 
L 3169 4666 
L 3169 4134 
L 1269 4134 
L 1269 2991 
Q 1406 3038 1543 3061 
Q 1681 3084 1819 3084 
Q 2600 3084 3056 2656 
Q 3513 2228 3513 1497 
Q 3513 744 3044 326 
Q 2575 -91 1722 -91 
Q 1428 -91 1123 -41 
Q 819 9 494 109 
L 494 744 
Q 775 591 1075 516 
Q 1375 441 1709 441 
Q 2250 441 2565 725 
Q 2881 1009 2881 1497 
Q 2881 1984 2565 2268 
Q 2250 2553 1709 2553 
Q 1456 2553 1204 2497 
Q 953 2441 691 2322 
L 691 4666 
z
" transform="scale(0.015625)"/>
       </defs>
       <use xlink:href="#DejaVuSans-2212"/>
       <use xlink:href="#DejaVuSans-37" x="83.789062"/>
       <use xlink:href="#DejaVuSans-2e" x="147.412109"/>
       <use xlink:href="#DejaVuSans-35" x="179.199219"/>
      </g>
     </g>
    </g>
    <g id="xtick_3">
     <g id="line2d_3">
      <g>
       <use xlink:href="#m506b93ab30" x="182.26776" y="233.230145" style="stroke: #000000; stroke-width: 0.8"/>
      </g>
     </g>
     <g id="text_3">
      <!-- −5.0 -->
      <g transform="translate(170.126354 247.828582) scale(0.1 -0.1)">
       <use xlink:href="#DejaVuSans-2212"/>
       <use xlink:href="#DejaVuSans-35" x="83.789062"/>
       <use xlink:href="#DejaVuSans-2e" x="147.412109"/>
       <use xlink:href="#DejaVuSans-30" x="179.199219"/>
      </g>
     </g>
    </g>
    <g id="xtick_4">
     <g id="line2d_4">
      <g>
       <use xlink:href="#m506b93ab30" x="233.836723" y="233.230145" style="stroke: #000000; stroke-width: 0.8"/>
      </g>
     </g>
     <g id="text_4">
      <!-- −2.5 -->
      <g transform="translate(221.695316 247.828582) scale(0.1 -0.1)">
       <defs>
        <path id="DejaVuSans-32" d="M 1228 531 
L 3431 531 
L 3431 0 
L 469 0 
L 469 531 
Q 828 903 1448 1529 
Q 2069 2156 2228 2338 
Q 2531 2678 2651 2914 
Q 2772 3150 2772 3378 
Q 2772 3750 2511 3984 
Q 2250 4219 1831 4219 
Q 1534 4219 1204 4116 
Q 875 4013 500 3803 
L 500 4441 
Q 881 4594 1212 4672 
Q 1544 4750 1819 4750 
Q 2544 4750 2975 4387 
Q 3406 4025 3406 3419 
Q 3406 3131 3298 2873 
Q 3191 2616 2906 2266 
Q 2828 2175 2409 1742 
Q 1991 1309 1228 531 
z
" transform="scale(0.015625)"/>
       </defs>
       <use xlink:href="#DejaVuSans-2212"/>
       <use xlink:href="#DejaVuSans-32" x="83.789062"/>
       <use xlink:href="#DejaVuSans-2e" x="147.412109"/>
       <use xlink:href="#DejaVuSans-35" x="179.199219"/>
      </g>
     </g>
    </g>
    <g id="xtick_5">
     <g id="line2d_5">
      <g>
       <use xlink:href="#m506b93ab30" x="285.405685" y="233.230145" style="stroke: #000000; stroke-width: 0.8"/>
      </g>
     </g>
     <g id="text_5">
      <!-- 0.0 -->
      <g transform="translate(277.454123 247.828582) scale(0.1 -0.1)">
       <use xlink:href="#DejaVuSans-30"/>
       <use xlink:href="#DejaVuSans-2e" x="63.623047"/>
       <use xlink:href="#DejaVuSans-30" x="95.410156"/>
      </g>
     </g>
    </g>
    <g id="xtick_6">
     <g id="line2d_6">
      <g>
       <use xlink:href="#m506b93ab30" x="336.974648" y="233.230145" style="stroke: #000000; stroke-width: 0.8"/>
      </g>
     </g>
     <g id="text_6">
      <!-- 2.5 -->
      <g transform="translate(329.023085 247.828582) scale(0.1 -0.1)">
       <use xlink:href="#DejaVuSans-32"/>
       <use xlink:href="#DejaVuSans-2e" x="63.623047"/>
       <use xlink:href="#DejaVuSans-35" x="95.410156"/>
      </g>
     </g>
    </g>
    <g id="xtick_7">
     <g id="line2d_7">
      <g>
       <use xlink:href="#m506b93ab30" x="388.543611" y="233.230145" style="stroke: #000000; stroke-width: 0.8"/>
      </g>
     </g>
     <g id="text_7">
      <!-- 5.0 -->
      <g transform="translate(380.592048 247.828582) scale(0.1 -0.1)">
       <use xlink:href="#DejaVuSans-35"/>
       <use xlink:href="#DejaVuSans-2e" x="63.623047"/>
       <use xlink:href="#DejaVuSans-30" x="95.410156"/>
      </g>
     </g>
    </g>
    <g id="xtick_8">
     <g id="line2d_8">
      <g>
       <use xlink:href="#m506b93ab30" x="440.112573" y="233.230145" style="stroke: #000000; stroke-width: 0.8"/>
      </g>
     </g>
     <g id="text_8">
      <!-- 7.5 -->
      <g transform="translate(432.161011 247.828582) scale(0.1 -0.1)">
       <use xlink:href="#DejaVuSans-37"/>
       <use xlink:href="#DejaVuSans-2e" x="63.623047"/>
       <use xlink:href="#DejaVuSans-35" x="95.410156"/>
      </g>
     </g>
    </g>
    <g id="xtick_9">
     <g id="line2d_9">
      <g>
       <use xlink:href="#m506b93ab30" x="491.681536" y="233.230145" style="stroke: #000000; stroke-width: 0.8"/>
      </g>
     </g>
     <g id="text_9">
      <!-- 10.0 -->
      <g transform="translate(480.548724 247.828582) scale(0.1 -0.1)">
       <use xlink:href="#DejaVuSans-31"/>
       <use xlink:href="#DejaVuSans-30" x="63.623047"/>
       <use xlink:href="#DejaVuSans-2e" x="127.246094"/>
       <use xlink:href="#DejaVuSans-30" x="159.033203"/>
      </g>
     </g>
    </g>
    <g id="text_10">
     <!-- x -->
     <g transform="translate(512.48125 261.506707) scale(0.1 -0.1)">
      <defs>
       <path id="DejaVuSans-78" d="M 3513 3500 
L 2247 1797 
L 3578 0 
L 2900 0 
L 1881 1375 
L 863 0 
L 184 0 
L 1544 1831 
L 300 3500 
L 978 3500 
L 1906 2253 
L 2834 3500 
L 3513 3500 
z
" transform="scale(0.015625)"/>
      </defs>
      <use xlink:href="#DejaVuSans-78"/>
     </g>
    </g>
   </g>
   <g id="matplotlib.axis_2">
    <g id="ytick_1">
     <g id="line2d_10">
      <defs>
       <path id="m3eb40650b0" d="M 0 0 
L -3.5 0 
" style="stroke: #000000; stroke-width: 0.8"/>
      </defs>
      <g>
       <use xlink:href="#m3eb40650b0" x="285.405685" y="381.046383" style="stroke: #000000; stroke-width: 0.8"/>
      </g>
     </g>
     <g id="text_11">
      <!-- −6 -->
      <g transform="translate(263.663498 384.845602) scale(0.1 -0.1)">
       <defs>
        <path id="DejaVuSans-36" d="M 2113 2584 
Q 1688 2584 1439 2293 
Q 1191 2003 1191 1497 
Q 1191 994 1439 701 
Q 1688 409 2113 409 
Q 2538 409 2786 701 
Q 3034 994 3034 1497 
Q 3034 2003 2786 2293 
Q 2538 2584 2113 2584 
z
M 3366 4563 
L 3366 3988 
Q 3128 4100 2886 4159 
Q 2644 4219 2406 4219 
Q 1781 4219 1451 3797 
Q 1122 3375 1075 2522 
Q 1259 2794 1537 2939 
Q 1816 3084 2150 3084 
Q 2853 3084 3261 2657 
Q 3669 2231 3669 1497 
Q 3669 778 3244 343 
Q 2819 -91 2113 -91 
Q 1303 -91 875 529 
Q 447 1150 447 2328 
Q 447 3434 972 4092 
Q 1497 4750 2381 4750 
Q 2619 4750 2861 4703 
Q 3103 4656 3366 4563 
z
" transform="scale(0.015625)"/>
       </defs>
       <use xlink:href="#DejaVuSans-2212"/>
       <use xlink:href="#DejaVuSans-36" x="83.789062"/>
      </g>
     </g>
    </g>
    <g id="ytick_2">
     <g id="line2d_11">
      <g>
       <use xlink:href="#m3eb40650b0" x="285.405685" y="331.774304" style="stroke: #000000; stroke-width: 0.8"/>
      </g>
     </g>
     <g id="text_12">
      <!-- −4 -->
      <g transform="translate(263.663498 335.573522) scale(0.1 -0.1)">
       <defs>
        <path id="DejaVuSans-34" d="M 2419 4116 
L 825 1625 
L 2419 1625 
L 2419 4116 
z
M 2253 4666 
L 3047 4666 
L 3047 1625 
L 3713 1625 
L 3713 1100 
L 3047 1100 
L 3047 0 
L 2419 0 
L 2419 1100 
L 313 1100 
L 313 1709 
L 2253 4666 
z
" transform="scale(0.015625)"/>
       </defs>
       <use xlink:href="#DejaVuSans-2212"/>
       <use xlink:href="#DejaVuSans-34" x="83.789062"/>
      </g>
     </g>
    </g>
    <g id="ytick_3">
     <g id="line2d_12">
      <g>
       <use xlink:href="#m3eb40650b0" x="285.405685" y="282.502224" style="stroke: #000000; stroke-width: 0.8"/>
      </g>
     </g>
     <g id="text_13">
      <!-- −2 -->
      <g transform="translate(263.663498 286.301443) scale(0.1 -0.1)">
       <use xlink:href="#DejaVuSans-2212"/>
       <use xlink:href="#DejaVuSans-32" x="83.789062"/>
      </g>
     </g>
    </g>
    <g id="ytick_4">
     <g id="line2d_13">
      <g>
       <use xlink:href="#m3eb40650b0" x="285.405685" y="233.230145" style="stroke: #000000; stroke-width: 0.8"/>
      </g>
     </g>
     <g id="text_14">
      <!-- 0 -->
      <g transform="translate(272.043185 237.029363) scale(0.1 -0.1)">
       <use xlink:href="#DejaVuSans-30"/>
      </g>
     </g>
    </g>
    <g id="ytick_5">
     <g id="line2d_14">
      <g>
       <use xlink:href="#m3eb40650b0" x="285.405685" y="183.958065" style="stroke: #000000; stroke-width: 0.8"/>
      </g>
     </g>
     <g id="text_15">
      <!-- 2 -->
      <g transform="translate(272.043185 187.757284) scale(0.1 -0.1)">
       <use xlink:href="#DejaVuSans-32"/>
      </g>
     </g>
    </g>
    <g id="ytick_6">
     <g id="line2d_15">
      <g>
       <use xlink:href="#m3eb40650b0" x="285.405685" y="134.685985" style="stroke: #000000; stroke-width: 0.8"/>
      </g>
     </g>
     <g id="text_16">
      <!-- 4 -->
      <g transform="translate(272.043185 138.485204) scale(0.1 -0.1)">
       <use xlink:href="#DejaVuSans-34"/>
      </g>
     </g>
    </g>
    <g id="ytick_7">
     <g id="line2d_16">
      <g>
       <use xlink:href="#m3eb40650b0" x="285.405685" y="85.413906" style="stroke: #000000; stroke-width: 0.8"/>
      </g>
     </g>
     <g id="text_17">
      <!-- 6 -->
      <g transform="translate(272.043185 89.213125) scale(0.1 -0.1)">
       <use xlink:href="#DejaVuSans-36"/>
      </g>
     </g>
    </g>
    <g id="text_18">
     <!-- y -->
     <g transform="translate(253.744748 49.760312) scale(0.1 -0.1)">
      <defs>
       <path id="DejaVuSans-79" d="M 2059 -325 
Q 1816 -950 1584 -1140 
Q 1353 -1331 966 -1331 
L 506 -1331 
L 506 -850 
L 844 -850 
Q 1081 -850 1212 -737 
Q 1344 -625 1503 -206 
L 1606 56 
L 191 3500 
L 800 3500 
L 1894 763 
L 2988 3500 
L 3597 3500 
L 2059 -325 
z
" transform="scale(0.015625)"/>
      </defs>
      <use xlink:href="#DejaVuSans-79"/>
     </g>
    </g>
   </g>
   <g id="line2d_17">
    <path d="M 72 233.230145 
L 518.4 233.230145 
" clip-path="url(#p4fcbe7c0c5)" style="fill: none; stroke: #000000; stroke-width: 1.5; stroke-linecap: square"/>
   </g>
   <g id="line2d_18">
    <path d="M 285.405685 384.48 
L 285.405685 51.84 
" clip-path="url(#p4fcbe7c0c5)" style="fill: none; stroke: #000000; stroke-width: 1.5; stroke-linecap: square"/>
   </g>
   <g id="patch_3">
    <path d="M 285.405685 384.48 
L 285.405685 51.84 
" style="fill: none; stroke: #000000; stroke-width: 0.8; stroke-linejoin: miter; stroke-linecap: square"/>
   </g>
   <g id="patch_4">
    <path d="M 72 233.230145 
L 518.4 233.230145 
" style="fill: none; stroke: #000000; stroke-width: 0.8; stroke-linejoin: miter; stroke-linecap: square"/>
   </g>
  </g>
 </g>
 <defs>
  <clipPath id="p4fcbe7c0c5">
   <rect x="72" y="51.84" width="446.4" height="332.64"/>
  </clipPath>
 </defs>
</svg>
