<svg xmlns="http://www.w3.org/2000/svg" viewBox="0 0 64 64"><path d="M47.415 31.17q.463-4.36.463-7.176 0-6.946-3.666-10.727-3.627-3.82-9.685-3.82-4.09 0-6.79 1.543-2.702 1.544-4.824 4.592h-1.775q2.971-6.096 6.405-8.836 3.434-2.778 8.296-2.778 3.473 0 6.753 1.89 3.318 1.891 5.324 6.097 2.045 4.206 2.045 11.383 0 13.659-5.942 24.54-6.675 12.154-16.9 12.154-6.02 0-9.57-3.473-3.51-3.472-3.51-9.453 0-4.514 1.775-8.836 1.813-4.36 4.553-7.37t6.096-4.784q4.36-2.315 8.875-2.315 3.164 0 5.71 1.234 2.585 1.197 4.245 2.933 1.041 1.08 2.122 3.202m-.656 3.434q-1.505-4.282-4.515-6.482-2.97-2.2-6.56-2.2-3.472 0-6.829 2.393t-5.826 8.412q-2.47 5.98-2.47 11.961 0 4.399 2.123 6.791 2.122 2.354 5.402 2.354 4.746 0 9.684-5.016 6.29-6.405 8.99-18.213" aria-label="∂"/></svg>
