<svg xmlns="http://www.w3.org/2000/svg" width="300.933" height="47.84" viewBox="0 0 79.622 12.658"><path d="M29.243 88.125h2.554q.176 0 .26-.091.085-.092.085-.276v-8.643h1.179v8.523q0 .523-.106.826-.099.31-.325.473-.218.162-.564.204-.339.05-.819.05H29.49zm2.836-10.71v-.438q0-.331.056-.388.064-.056.402-.056h.438q.339 0 .395.056.064.057.064.388v.438q0 .332-.064.395-.056.056-.395.056h-.438q-.338 0-.402-.056-.056-.063-.056-.395m5.285 8.798q-.727 0-1.122-.282t-.395-1.051v-1.623q0-.748.493-1.016.501-.275 1.2-.275h3.951v-1.552q0-.177-.085-.269-.077-.098-.26-.098h-3.677q-.183 0-.268.098-.084.092-.084.269v.627l-1.179-.225v-.445q0-.755.41-1.023.409-.275 1.107-.275h3.697q.699 0 1.108.275.41.268.41 1.023v5.8H41.49v-.727q-.127.438-.48.607-.345.162-.783.162zm-.34-1.34q0 .176.086.275.084.092.26.092h4.121v-2.294h-4.12q-.177 0-.261.092t-.085.275zm8.44 1.298v-7.056h1.178v.487q.155-.26.5-.395.346-.134.932-.134h2.37q.953 0 1.39.367.438.367.438 1.164v5.567h-1.178v-5.673q0-.176-.092-.268-.092-.099-.275-.099h-4.085v6.04zm9.602 0v-7.056h1.178v.487q.155-.26.501-.395.346-.134.931-.134h1.863q.466 0 .89.12.422.12.585.55.127-.324.48-.494.36-.176 1.016-.176h1.63q.952 0 1.39.367t.437 1.164v5.567h-1.171v-5.673q0-.176-.1-.268-.091-.099-.267-.099h-3.324v6.04h-1.178v-6.04h-3.683v6.04zm13.695 0v-7.056h1.178v.487q.155-.26.501-.395.346-.134.931-.134h1.397q.48 0 .826.092.346.084.564.275.226.19.332.48.113.289.113.684v.459l-1.179.232v-.797q0-.176-.084-.268-.085-.099-.268-.099h-3.133v6.04zm5.729-.543v-.459q0-.43.077-.501.078-.078.508-.078h.445q.444 0 .522.078.078.07.078.501v.459q0 .437-.085.515-.078.07-.515.07h-.445q-.437 0-.515-.07-.07-.078-.07-.515m4.36-.79v-4.432q0-.698.374-1.016.374-.317 1.185-.317h3.86q.818 0 1.185.317.374.318.374 1.016v.748l-1.178.226v-.882q0-.176-.085-.268-.085-.099-.26-.099h-3.93q-.177 0-.262.1-.085.09-.085.267v4.29q0 .176.085.275.085.092.261.092h3.958q.177 0 .261-.092.085-.099.085-.275V83.8l1.178.254v.783q0 .727-.367 1.052-.366.324-1.192.324H80.41q-.825 0-1.192-.324-.367-.325-.367-1.052m9.25 0v-4.432q0-.691.374-1.008.374-.325 1.185-.325h4.029q.818 0 1.185.325.374.317.374 1.008v4.431q0 .727-.367 1.052-.36.324-1.192.324h-4.029q-.818 0-1.192-.324-.367-.325-.367-1.052m1.178-.05q0 .176.085.275.085.092.261.092h4.1q.183 0 .26-.092.085-.099.085-.275v-4.29q0-.176-.085-.268-.077-.099-.26-.099h-4.1q-.176 0-.261.1-.085.09-.085.267zm8.686 1.383v-7.056h1.178v.487q.155-.26.5-.395.347-.134.932-.134h1.863q.466 0 .889.12t.585.55q.127-.324.48-.494.36-.176 1.016-.176h1.63q.953 0 1.39.367t.437 1.164v5.567h-1.17v-5.673q0-.176-.1-.268-.091-.099-.268-.099h-3.323v6.04h-1.178v-6.04h-3.683v6.04z" aria-label="janmr.com" style="stroke-width:.264583" transform="translate(-29.243 -76.533)"/></svg>
