<?xml version="1.0" encoding="utf-8" standalone="no"?>
<!DOCTYPE svg PUBLIC "-//W3C//DTD SVG 1.1//EN"
  "http://www.w3.org/Graphics/SVG/1.1/DTD/svg11.dtd">
<svg xmlns:xlink="http://www.w3.org/1999/xlink" width="1144.50625pt" height="424.592531pt" viewBox="0 0 1144.50625 424.592531" xmlns="http://www.w3.org/2000/svg" version="1.1">
 <metadata>
  <rdf:RDF xmlns:dc="http://purl.org/dc/elements/1.1/" xmlns:cc="http://creativecommons.org/ns#" xmlns:rdf="http://www.w3.org/1999/02/22-rdf-syntax-ns#">
   <cc:Work>
    <dc:type rdf:resource="http://purl.org/dc/dcmitype/StillImage"/>
    <dc:date>2026-06-21T10:18:21.212599</dc:date>
    <dc:format>image/svg+xml</dc:format>
    <dc:creator>
     <cc:Agent>
      <dc:title>Matplotlib v3.10.8, https://matplotlib.org/</dc:title>
     </cc:Agent>
    </dc:creator>
   </cc:Work>
  </rdf:RDF>
 </metadata>
 <defs>
  <style type="text/css">*{stroke-linejoin: round; stroke-linecap: butt}</style>
 </defs>
 <g id="figure_1">
  <g id="patch_1">
   <path d="M 0 424.592531 
L 1144.50625 424.592531 
L 1144.50625 0 
L 0 0 
z
" style="fill: #ffffff"/>
  </g>
  <g id="axes_1">
   <g id="patch_2">
    <path d="M 36.17625 375.909812 
L 1137.30625 375.909812 
L 1137.30625 37.837812 
L 36.17625 37.837812 
z
" style="fill: #ffffff"/>
   </g>
   <g id="matplotlib.axis_1">
    <g id="xtick_1">
     <g id="line2d_1">
      <defs>
       <path id="m2bd7f24883" d="M 0 0 
L 0 3.5 
" style="stroke: #000000; stroke-width: 0.8"/>
      </defs>
      <g>
       <use xlink:href="#m2bd7f24883" x="91.804367" y="375.909812" style="stroke: #000000; stroke-width: 0.8"/>
      </g>
     </g>
     <g id="text_1">
      <!-- Jun 20 -->
      <g transform="translate(77.616711 389.748406) scale(0.09 -0.09)">
       <defs>
        <path id="DejaVuSans-4a" d="M 628 4666 
L 1259 4666 
L 1259 325 
Q 1259 -519 939 -900 
Q 619 -1281 -91 -1281 
L -331 -1281 
L -331 -750 
L -134 -750 
Q 284 -750 456 -515 
Q 628 -281 628 325 
L 628 4666 
z
" transform="scale(0.015625)"/>
        <path id="DejaVuSans-75" d="M 544 1381 
L 544 3500 
L 1119 3500 
L 1119 1403 
Q 1119 906 1312 657 
Q 1506 409 1894 409 
Q 2359 409 2629 706 
Q 2900 1003 2900 1516 
L 2900 3500 
L 3475 3500 
L 3475 0 
L 2900 0 
L 2900 538 
Q 2691 219 2414 64 
Q 2138 -91 1772 -91 
Q 1169 -91 856 284 
Q 544 659 544 1381 
z
M 1991 3584 
L 1991 3584 
z
" transform="scale(0.015625)"/>
        <path id="DejaVuSans-6e" d="M 3513 2113 
L 3513 0 
L 2938 0 
L 2938 2094 
Q 2938 2591 2744 2837 
Q 2550 3084 2163 3084 
Q 1697 3084 1428 2787 
Q 1159 2491 1159 1978 
L 1159 0 
L 581 0 
L 581 3500 
L 1159 3500 
L 1159 2956 
Q 1366 3272 1645 3428 
Q 1925 3584 2291 3584 
Q 2894 3584 3203 3211 
Q 3513 2838 3513 2113 
z
" transform="scale(0.015625)"/>
        <path id="DejaVuSans-20" transform="scale(0.015625)"/>
        <path id="DejaVuSans-32" d="M 1228 531 
L 3431 531 
L 3431 0 
L 469 0 
L 469 531 
Q 828 903 1448 1529 
Q 2069 2156 2228 2338 
Q 2531 2678 2651 2914 
Q 2772 3150 2772 3378 
Q 2772 3750 2511 3984 
Q 2250 4219 1831 4219 
Q 1534 4219 1204 4116 
Q 875 4013 500 3803 
L 500 4441 
Q 881 4594 1212 4672 
Q 1544 4750 1819 4750 
Q 2544 4750 2975 4387 
Q 3406 4025 3406 3419 
Q 3406 3131 3298 2873 
Q 3191 2616 2906 2266 
Q 2828 2175 2409 1742 
Q 1991 1309 1228 531 
z
" transform="scale(0.015625)"/>
        <path id="DejaVuSans-30" d="M 2034 4250 
Q 1547 4250 1301 3770 
Q 1056 3291 1056 2328 
Q 1056 1369 1301 889 
Q 1547 409 2034 409 
Q 2525 409 2770 889 
Q 3016 1369 3016 2328 
Q 3016 3291 2770 3770 
Q 2525 4250 2034 4250 
z
M 2034 4750 
Q 2819 4750 3233 4129 
Q 3647 3509 3647 2328 
Q 3647 1150 3233 529 
Q 2819 -91 2034 -91 
Q 1250 -91 836 529 
Q 422 1150 422 2328 
Q 422 3509 836 4129 
Q 1250 4750 2034 4750 
z
" transform="scale(0.015625)"/>
       </defs>
       <use xlink:href="#DejaVuSans-4a"/>
       <use xlink:href="#DejaVuSans-75" transform="translate(29.492188 0)"/>
       <use xlink:href="#DejaVuSans-6e" transform="translate(92.871094 0)"/>
       <use xlink:href="#DejaVuSans-20" transform="translate(156.25 0)"/>
       <use xlink:href="#DejaVuSans-32" transform="translate(188.037109 0)"/>
       <use xlink:href="#DejaVuSans-30" transform="translate(251.660156 0)"/>
      </g>
      <!-- 00:00 -->
      <g transform="translate(78.83593 399.826437) scale(0.09 -0.09)">
       <defs>
        <path id="DejaVuSans-3a" d="M 750 794 
L 1409 794 
L 1409 0 
L 750 0 
L 750 794 
z
M 750 3309 
L 1409 3309 
L 1409 2516 
L 750 2516 
L 750 3309 
z
" transform="scale(0.015625)"/>
       </defs>
       <use xlink:href="#DejaVuSans-30"/>
       <use xlink:href="#DejaVuSans-30" transform="translate(63.623047 0)"/>
       <use xlink:href="#DejaVuSans-3a" transform="translate(127.246094 0)"/>
       <use xlink:href="#DejaVuSans-30" transform="translate(160.9375 0)"/>
       <use xlink:href="#DejaVuSans-30" transform="translate(224.560547 0)"/>
      </g>
     </g>
    </g>
    <g id="xtick_2">
     <g id="line2d_2">
      <g>
       <use xlink:href="#m2bd7f24883" x="175.455671" y="375.909812" style="stroke: #000000; stroke-width: 0.8"/>
      </g>
     </g>
     <g id="text_2">
      <!-- Jun 20 -->
      <g transform="translate(161.268015 389.748406) scale(0.09 -0.09)">
       <use xlink:href="#DejaVuSans-4a"/>
       <use xlink:href="#DejaVuSans-75" transform="translate(29.492188 0)"/>
       <use xlink:href="#DejaVuSans-6e" transform="translate(92.871094 0)"/>
       <use xlink:href="#DejaVuSans-20" transform="translate(156.25 0)"/>
       <use xlink:href="#DejaVuSans-32" transform="translate(188.037109 0)"/>
       <use xlink:href="#DejaVuSans-30" transform="translate(251.660156 0)"/>
      </g>
      <!-- 06:00 -->
      <g transform="translate(162.487234 399.826437) scale(0.09 -0.09)">
       <defs>
        <path id="DejaVuSans-36" d="M 2113 2584 
Q 1688 2584 1439 2293 
Q 1191 2003 1191 1497 
Q 1191 994 1439 701 
Q 1688 409 2113 409 
Q 2538 409 2786 701 
Q 3034 994 3034 1497 
Q 3034 2003 2786 2293 
Q 2538 2584 2113 2584 
z
M 3366 4563 
L 3366 3988 
Q 3128 4100 2886 4159 
Q 2644 4219 2406 4219 
Q 1781 4219 1451 3797 
Q 1122 3375 1075 2522 
Q 1259 2794 1537 2939 
Q 1816 3084 2150 3084 
Q 2853 3084 3261 2657 
Q 3669 2231 3669 1497 
Q 3669 778 3244 343 
Q 2819 -91 2113 -91 
Q 1303 -91 875 529 
Q 447 1150 447 2328 
Q 447 3434 972 4092 
Q 1497 4750 2381 4750 
Q 2619 4750 2861 4703 
Q 3103 4656 3366 4563 
z
" transform="scale(0.015625)"/>
       </defs>
       <use xlink:href="#DejaVuSans-30"/>
       <use xlink:href="#DejaVuSans-36" transform="translate(63.623047 0)"/>
       <use xlink:href="#DejaVuSans-3a" transform="translate(127.246094 0)"/>
       <use xlink:href="#DejaVuSans-30" transform="translate(160.9375 0)"/>
       <use xlink:href="#DejaVuSans-30" transform="translate(224.560547 0)"/>
      </g>
     </g>
    </g>
    <g id="xtick_3">
     <g id="line2d_3">
      <g>
       <use xlink:href="#m2bd7f24883" x="259.106976" y="375.909812" style="stroke: #000000; stroke-width: 0.8"/>
      </g>
     </g>
     <g id="text_3">
      <!-- Jun 20 -->
      <g transform="translate(244.919319 389.748406) scale(0.09 -0.09)">
       <use xlink:href="#DejaVuSans-4a"/>
       <use xlink:href="#DejaVuSans-75" transform="translate(29.492188 0)"/>
       <use xlink:href="#DejaVuSans-6e" transform="translate(92.871094 0)"/>
       <use xlink:href="#DejaVuSans-20" transform="translate(156.25 0)"/>
       <use xlink:href="#DejaVuSans-32" transform="translate(188.037109 0)"/>
       <use xlink:href="#DejaVuSans-30" transform="translate(251.660156 0)"/>
      </g>
      <!-- 12:00 -->
      <g transform="translate(246.138538 399.826437) scale(0.09 -0.09)">
       <defs>
        <path id="DejaVuSans-31" d="M 794 531 
L 1825 531 
L 1825 4091 
L 703 3866 
L 703 4441 
L 1819 4666 
L 2450 4666 
L 2450 531 
L 3481 531 
L 3481 0 
L 794 0 
L 794 531 
z
" transform="scale(0.015625)"/>
       </defs>
       <use xlink:href="#DejaVuSans-31"/>
       <use xlink:href="#DejaVuSans-32" transform="translate(63.623047 0)"/>
       <use xlink:href="#DejaVuSans-3a" transform="translate(127.246094 0)"/>
       <use xlink:href="#DejaVuSans-30" transform="translate(160.9375 0)"/>
       <use xlink:href="#DejaVuSans-30" transform="translate(224.560547 0)"/>
      </g>
     </g>
    </g>
    <g id="xtick_4">
     <g id="line2d_4">
      <g>
       <use xlink:href="#m2bd7f24883" x="342.75828" y="375.909812" style="stroke: #000000; stroke-width: 0.8"/>
      </g>
     </g>
     <g id="text_4">
      <!-- Jun 20 -->
      <g transform="translate(328.570623 389.748406) scale(0.09 -0.09)">
       <use xlink:href="#DejaVuSans-4a"/>
       <use xlink:href="#DejaVuSans-75" transform="translate(29.492188 0)"/>
       <use xlink:href="#DejaVuSans-6e" transform="translate(92.871094 0)"/>
       <use xlink:href="#DejaVuSans-20" transform="translate(156.25 0)"/>
       <use xlink:href="#DejaVuSans-32" transform="translate(188.037109 0)"/>
       <use xlink:href="#DejaVuSans-30" transform="translate(251.660156 0)"/>
      </g>
      <!-- 18:00 -->
      <g transform="translate(329.789842 399.826437) scale(0.09 -0.09)">
       <defs>
        <path id="DejaVuSans-38" d="M 2034 2216 
Q 1584 2216 1326 1975 
Q 1069 1734 1069 1313 
Q 1069 891 1326 650 
Q 1584 409 2034 409 
Q 2484 409 2743 651 
Q 3003 894 3003 1313 
Q 3003 1734 2745 1975 
Q 2488 2216 2034 2216 
z
M 1403 2484 
Q 997 2584 770 2862 
Q 544 3141 544 3541 
Q 544 4100 942 4425 
Q 1341 4750 2034 4750 
Q 2731 4750 3128 4425 
Q 3525 4100 3525 3541 
Q 3525 3141 3298 2862 
Q 3072 2584 2669 2484 
Q 3125 2378 3379 2068 
Q 3634 1759 3634 1313 
Q 3634 634 3220 271 
Q 2806 -91 2034 -91 
Q 1263 -91 848 271 
Q 434 634 434 1313 
Q 434 1759 690 2068 
Q 947 2378 1403 2484 
z
M 1172 3481 
Q 1172 3119 1398 2916 
Q 1625 2713 2034 2713 
Q 2441 2713 2670 2916 
Q 2900 3119 2900 3481 
Q 2900 3844 2670 4047 
Q 2441 4250 2034 4250 
Q 1625 4250 1398 4047 
Q 1172 3844 1172 3481 
z
" transform="scale(0.015625)"/>
       </defs>
       <use xlink:href="#DejaVuSans-31"/>
       <use xlink:href="#DejaVuSans-38" transform="translate(63.623047 0)"/>
       <use xlink:href="#DejaVuSans-3a" transform="translate(127.246094 0)"/>
       <use xlink:href="#DejaVuSans-30" transform="translate(160.9375 0)"/>
       <use xlink:href="#DejaVuSans-30" transform="translate(224.560547 0)"/>
      </g>
     </g>
    </g>
    <g id="xtick_5">
     <g id="line2d_5">
      <g>
       <use xlink:href="#m2bd7f24883" x="426.409584" y="375.909812" style="stroke: #000000; stroke-width: 0.8"/>
      </g>
     </g>
     <g id="text_5">
      <!-- Jun 21 -->
      <g transform="translate(412.221928 389.748406) scale(0.09 -0.09)">
       <use xlink:href="#DejaVuSans-4a"/>
       <use xlink:href="#DejaVuSans-75" transform="translate(29.492188 0)"/>
       <use xlink:href="#DejaVuSans-6e" transform="translate(92.871094 0)"/>
       <use xlink:href="#DejaVuSans-20" transform="translate(156.25 0)"/>
       <use xlink:href="#DejaVuSans-32" transform="translate(188.037109 0)"/>
       <use xlink:href="#DejaVuSans-31" transform="translate(251.660156 0)"/>
      </g>
      <!-- 00:00 -->
      <g transform="translate(413.441146 399.826437) scale(0.09 -0.09)">
       <use xlink:href="#DejaVuSans-30"/>
       <use xlink:href="#DejaVuSans-30" transform="translate(63.623047 0)"/>
       <use xlink:href="#DejaVuSans-3a" transform="translate(127.246094 0)"/>
       <use xlink:href="#DejaVuSans-30" transform="translate(160.9375 0)"/>
       <use xlink:href="#DejaVuSans-30" transform="translate(224.560547 0)"/>
      </g>
     </g>
    </g>
    <g id="xtick_6">
     <g id="line2d_6">
      <g>
       <use xlink:href="#m2bd7f24883" x="510.060888" y="375.909812" style="stroke: #000000; stroke-width: 0.8"/>
      </g>
     </g>
     <g id="text_6">
      <!-- Jun 21 -->
      <g transform="translate(495.873232 389.748406) scale(0.09 -0.09)">
       <use xlink:href="#DejaVuSans-4a"/>
       <use xlink:href="#DejaVuSans-75" transform="translate(29.492188 0)"/>
       <use xlink:href="#DejaVuSans-6e" transform="translate(92.871094 0)"/>
       <use xlink:href="#DejaVuSans-20" transform="translate(156.25 0)"/>
       <use xlink:href="#DejaVuSans-32" transform="translate(188.037109 0)"/>
       <use xlink:href="#DejaVuSans-31" transform="translate(251.660156 0)"/>
      </g>
      <!-- 06:00 -->
      <g transform="translate(497.09245 399.826437) scale(0.09 -0.09)">
       <use xlink:href="#DejaVuSans-30"/>
       <use xlink:href="#DejaVuSans-36" transform="translate(63.623047 0)"/>
       <use xlink:href="#DejaVuSans-3a" transform="translate(127.246094 0)"/>
       <use xlink:href="#DejaVuSans-30" transform="translate(160.9375 0)"/>
       <use xlink:href="#DejaVuSans-30" transform="translate(224.560547 0)"/>
      </g>
     </g>
    </g>
    <g id="xtick_7">
     <g id="line2d_7">
      <g>
       <use xlink:href="#m2bd7f24883" x="593.712192" y="375.909812" style="stroke: #000000; stroke-width: 0.8"/>
      </g>
     </g>
     <g id="text_7">
      <!-- Jun 21 -->
      <g transform="translate(579.524536 389.748406) scale(0.09 -0.09)">
       <use xlink:href="#DejaVuSans-4a"/>
       <use xlink:href="#DejaVuSans-75" transform="translate(29.492188 0)"/>
       <use xlink:href="#DejaVuSans-6e" transform="translate(92.871094 0)"/>
       <use xlink:href="#DejaVuSans-20" transform="translate(156.25 0)"/>
       <use xlink:href="#DejaVuSans-32" transform="translate(188.037109 0)"/>
       <use xlink:href="#DejaVuSans-31" transform="translate(251.660156 0)"/>
      </g>
      <!-- 12:00 -->
      <g transform="translate(580.743755 399.826437) scale(0.09 -0.09)">
       <use xlink:href="#DejaVuSans-31"/>
       <use xlink:href="#DejaVuSans-32" transform="translate(63.623047 0)"/>
       <use xlink:href="#DejaVuSans-3a" transform="translate(127.246094 0)"/>
       <use xlink:href="#DejaVuSans-30" transform="translate(160.9375 0)"/>
       <use xlink:href="#DejaVuSans-30" transform="translate(224.560547 0)"/>
      </g>
     </g>
    </g>
    <g id="xtick_8">
     <g id="line2d_8">
      <g>
       <use xlink:href="#m2bd7f24883" x="677.363496" y="375.909812" style="stroke: #000000; stroke-width: 0.8"/>
      </g>
     </g>
     <g id="text_8">
      <!-- Jun 21 -->
      <g transform="translate(663.17584 389.748406) scale(0.09 -0.09)">
       <use xlink:href="#DejaVuSans-4a"/>
       <use xlink:href="#DejaVuSans-75" transform="translate(29.492188 0)"/>
       <use xlink:href="#DejaVuSans-6e" transform="translate(92.871094 0)"/>
       <use xlink:href="#DejaVuSans-20" transform="translate(156.25 0)"/>
       <use xlink:href="#DejaVuSans-32" transform="translate(188.037109 0)"/>
       <use xlink:href="#DejaVuSans-31" transform="translate(251.660156 0)"/>
      </g>
      <!-- 18:00 -->
      <g transform="translate(664.395059 399.826437) scale(0.09 -0.09)">
       <use xlink:href="#DejaVuSans-31"/>
       <use xlink:href="#DejaVuSans-38" transform="translate(63.623047 0)"/>
       <use xlink:href="#DejaVuSans-3a" transform="translate(127.246094 0)"/>
       <use xlink:href="#DejaVuSans-30" transform="translate(160.9375 0)"/>
       <use xlink:href="#DejaVuSans-30" transform="translate(224.560547 0)"/>
      </g>
     </g>
    </g>
    <g id="xtick_9">
     <g id="line2d_9">
      <g>
       <use xlink:href="#m2bd7f24883" x="761.0148" y="375.909812" style="stroke: #000000; stroke-width: 0.8"/>
      </g>
     </g>
     <g id="text_9">
      <!-- Jun 22 -->
      <g transform="translate(746.827144 389.748406) scale(0.09 -0.09)">
       <use xlink:href="#DejaVuSans-4a"/>
       <use xlink:href="#DejaVuSans-75" transform="translate(29.492188 0)"/>
       <use xlink:href="#DejaVuSans-6e" transform="translate(92.871094 0)"/>
       <use xlink:href="#DejaVuSans-20" transform="translate(156.25 0)"/>
       <use xlink:href="#DejaVuSans-32" transform="translate(188.037109 0)"/>
       <use xlink:href="#DejaVuSans-32" transform="translate(251.660156 0)"/>
      </g>
      <!-- 00:00 -->
      <g transform="translate(748.046363 399.826437) scale(0.09 -0.09)">
       <use xlink:href="#DejaVuSans-30"/>
       <use xlink:href="#DejaVuSans-30" transform="translate(63.623047 0)"/>
       <use xlink:href="#DejaVuSans-3a" transform="translate(127.246094 0)"/>
       <use xlink:href="#DejaVuSans-30" transform="translate(160.9375 0)"/>
       <use xlink:href="#DejaVuSans-30" transform="translate(224.560547 0)"/>
      </g>
     </g>
    </g>
    <g id="xtick_10">
     <g id="line2d_10">
      <g>
       <use xlink:href="#m2bd7f24883" x="844.666104" y="375.909812" style="stroke: #000000; stroke-width: 0.8"/>
      </g>
     </g>
     <g id="text_10">
      <!-- Jun 22 -->
      <g transform="translate(830.478448 389.748406) scale(0.09 -0.09)">
       <use xlink:href="#DejaVuSans-4a"/>
       <use xlink:href="#DejaVuSans-75" transform="translate(29.492188 0)"/>
       <use xlink:href="#DejaVuSans-6e" transform="translate(92.871094 0)"/>
       <use xlink:href="#DejaVuSans-20" transform="translate(156.25 0)"/>
       <use xlink:href="#DejaVuSans-32" transform="translate(188.037109 0)"/>
       <use xlink:href="#DejaVuSans-32" transform="translate(251.660156 0)"/>
      </g>
      <!-- 06:00 -->
      <g transform="translate(831.697667 399.826437) scale(0.09 -0.09)">
       <use xlink:href="#DejaVuSans-30"/>
       <use xlink:href="#DejaVuSans-36" transform="translate(63.623047 0)"/>
       <use xlink:href="#DejaVuSans-3a" transform="translate(127.246094 0)"/>
       <use xlink:href="#DejaVuSans-30" transform="translate(160.9375 0)"/>
       <use xlink:href="#DejaVuSans-30" transform="translate(224.560547 0)"/>
      </g>
     </g>
    </g>
    <g id="xtick_11">
     <g id="line2d_11">
      <g>
       <use xlink:href="#m2bd7f24883" x="928.317409" y="375.909812" style="stroke: #000000; stroke-width: 0.8"/>
      </g>
     </g>
     <g id="text_11">
      <!-- Jun 22 -->
      <g transform="translate(914.129752 389.748406) scale(0.09 -0.09)">
       <use xlink:href="#DejaVuSans-4a"/>
       <use xlink:href="#DejaVuSans-75" transform="translate(29.492188 0)"/>
       <use xlink:href="#DejaVuSans-6e" transform="translate(92.871094 0)"/>
       <use xlink:href="#DejaVuSans-20" transform="translate(156.25 0)"/>
       <use xlink:href="#DejaVuSans-32" transform="translate(188.037109 0)"/>
       <use xlink:href="#DejaVuSans-32" transform="translate(251.660156 0)"/>
      </g>
      <!-- 12:00 -->
      <g transform="translate(915.348971 399.826437) scale(0.09 -0.09)">
       <use xlink:href="#DejaVuSans-31"/>
       <use xlink:href="#DejaVuSans-32" transform="translate(63.623047 0)"/>
       <use xlink:href="#DejaVuSans-3a" transform="translate(127.246094 0)"/>
       <use xlink:href="#DejaVuSans-30" transform="translate(160.9375 0)"/>
       <use xlink:href="#DejaVuSans-30" transform="translate(224.560547 0)"/>
      </g>
     </g>
    </g>
    <g id="xtick_12">
     <g id="line2d_12">
      <g>
       <use xlink:href="#m2bd7f24883" x="1011.968713" y="375.909812" style="stroke: #000000; stroke-width: 0.8"/>
      </g>
     </g>
     <g id="text_12">
      <!-- Jun 22 -->
      <g transform="translate(997.781056 389.748406) scale(0.09 -0.09)">
       <use xlink:href="#DejaVuSans-4a"/>
       <use xlink:href="#DejaVuSans-75" transform="translate(29.492188 0)"/>
       <use xlink:href="#DejaVuSans-6e" transform="translate(92.871094 0)"/>
       <use xlink:href="#DejaVuSans-20" transform="translate(156.25 0)"/>
       <use xlink:href="#DejaVuSans-32" transform="translate(188.037109 0)"/>
       <use xlink:href="#DejaVuSans-32" transform="translate(251.660156 0)"/>
      </g>
      <!-- 18:00 -->
      <g transform="translate(999.000275 399.826437) scale(0.09 -0.09)">
       <use xlink:href="#DejaVuSans-31"/>
       <use xlink:href="#DejaVuSans-38" transform="translate(63.623047 0)"/>
       <use xlink:href="#DejaVuSans-3a" transform="translate(127.246094 0)"/>
       <use xlink:href="#DejaVuSans-30" transform="translate(160.9375 0)"/>
       <use xlink:href="#DejaVuSans-30" transform="translate(224.560547 0)"/>
      </g>
     </g>
    </g>
    <g id="text_13">
     <!-- June Day / Hour (UTC) -->
     <g transform="translate(513.369688 414.803156) scale(0.12 -0.12)">
      <defs>
       <path id="DejaVuSans-Bold-4a" d="M 588 4666 
L 1791 4666 
L 1791 453 
Q 1791 -419 1317 -850 
Q 844 -1281 -116 -1281 
L -359 -1281 
L -359 -372 
L -172 -372 
Q 203 -372 395 -162 
Q 588 47 588 453 
L 588 4666 
z
" transform="scale(0.015625)"/>
       <path id="DejaVuSans-Bold-75" d="M 500 1363 
L 500 3500 
L 1625 3500 
L 1625 3150 
Q 1625 2866 1622 2436 
Q 1619 2006 1619 1863 
Q 1619 1441 1641 1255 
Q 1663 1069 1716 984 
Q 1784 875 1895 815 
Q 2006 756 2150 756 
Q 2500 756 2700 1025 
Q 2900 1294 2900 1772 
L 2900 3500 
L 4019 3500 
L 4019 0 
L 2900 0 
L 2900 506 
Q 2647 200 2364 54 
Q 2081 -91 1741 -91 
Q 1134 -91 817 281 
Q 500 653 500 1363 
z
" transform="scale(0.015625)"/>
       <path id="DejaVuSans-Bold-6e" d="M 4056 2131 
L 4056 0 
L 2931 0 
L 2931 347 
L 2931 1631 
Q 2931 2084 2911 2256 
Q 2891 2428 2841 2509 
Q 2775 2619 2662 2680 
Q 2550 2741 2406 2741 
Q 2056 2741 1856 2470 
Q 1656 2200 1656 1722 
L 1656 0 
L 538 0 
L 538 3500 
L 1656 3500 
L 1656 2988 
Q 1909 3294 2193 3439 
Q 2478 3584 2822 3584 
Q 3428 3584 3742 3212 
Q 4056 2841 4056 2131 
z
" transform="scale(0.015625)"/>
       <path id="DejaVuSans-Bold-65" d="M 4031 1759 
L 4031 1441 
L 1416 1441 
Q 1456 1047 1700 850 
Q 1944 653 2381 653 
Q 2734 653 3104 758 
Q 3475 863 3866 1075 
L 3866 213 
Q 3469 63 3072 -14 
Q 2675 -91 2278 -91 
Q 1328 -91 801 392 
Q 275 875 275 1747 
Q 275 2603 792 3093 
Q 1309 3584 2216 3584 
Q 3041 3584 3536 3087 
Q 4031 2591 4031 1759 
z
M 2881 2131 
Q 2881 2450 2695 2645 
Q 2509 2841 2209 2841 
Q 1884 2841 1681 2658 
Q 1478 2475 1428 2131 
L 2881 2131 
z
" transform="scale(0.015625)"/>
       <path id="DejaVuSans-Bold-20" transform="scale(0.015625)"/>
       <path id="DejaVuSans-Bold-44" d="M 1791 3756 
L 1791 909 
L 2222 909 
Q 2959 909 3348 1275 
Q 3738 1641 3738 2338 
Q 3738 3031 3350 3393 
Q 2963 3756 2222 3756 
L 1791 3756 
z
M 588 4666 
L 1856 4666 
Q 2919 4666 3439 4514 
Q 3959 4363 4331 4000 
Q 4659 3684 4818 3271 
Q 4978 2859 4978 2338 
Q 4978 1809 4818 1395 
Q 4659 981 4331 666 
Q 3956 303 3431 151 
Q 2906 0 1856 0 
L 588 0 
L 588 4666 
z
" transform="scale(0.015625)"/>
       <path id="DejaVuSans-Bold-61" d="M 2106 1575 
Q 1756 1575 1579 1456 
Q 1403 1338 1403 1106 
Q 1403 894 1545 773 
Q 1688 653 1941 653 
Q 2256 653 2472 879 
Q 2688 1106 2688 1447 
L 2688 1575 
L 2106 1575 
z
M 3816 1997 
L 3816 0 
L 2688 0 
L 2688 519 
Q 2463 200 2181 54 
Q 1900 -91 1497 -91 
Q 953 -91 614 226 
Q 275 544 275 1050 
Q 275 1666 698 1953 
Q 1122 2241 2028 2241 
L 2688 2241 
L 2688 2328 
Q 2688 2594 2478 2717 
Q 2269 2841 1825 2841 
Q 1466 2841 1156 2769 
Q 847 2697 581 2553 
L 581 3406 
Q 941 3494 1303 3539 
Q 1666 3584 2028 3584 
Q 2975 3584 3395 3211 
Q 3816 2838 3816 1997 
z
" transform="scale(0.015625)"/>
       <path id="DejaVuSans-Bold-79" d="M 78 3500 
L 1197 3500 
L 2138 1125 
L 2938 3500 
L 4056 3500 
L 2584 -331 
Q 2363 -916 2067 -1148 
Q 1772 -1381 1288 -1381 
L 641 -1381 
L 641 -647 
L 991 -647 
Q 1275 -647 1404 -556 
Q 1534 -466 1606 -231 
L 1638 -134 
L 78 3500 
z
" transform="scale(0.015625)"/>
       <path id="DejaVuSans-Bold-2f" d="M 1644 4666 
L 2338 4666 
L 691 -594 
L 0 -594 
L 1644 4666 
z
" transform="scale(0.015625)"/>
       <path id="DejaVuSans-Bold-48" d="M 588 4666 
L 1791 4666 
L 1791 2888 
L 3566 2888 
L 3566 4666 
L 4769 4666 
L 4769 0 
L 3566 0 
L 3566 1978 
L 1791 1978 
L 1791 0 
L 588 0 
L 588 4666 
z
" transform="scale(0.015625)"/>
       <path id="DejaVuSans-Bold-6f" d="M 2203 2784 
Q 1831 2784 1636 2517 
Q 1441 2250 1441 1747 
Q 1441 1244 1636 976 
Q 1831 709 2203 709 
Q 2569 709 2762 976 
Q 2956 1244 2956 1747 
Q 2956 2250 2762 2517 
Q 2569 2784 2203 2784 
z
M 2203 3584 
Q 3106 3584 3614 3096 
Q 4122 2609 4122 1747 
Q 4122 884 3614 396 
Q 3106 -91 2203 -91 
Q 1297 -91 786 396 
Q 275 884 275 1747 
Q 275 2609 786 3096 
Q 1297 3584 2203 3584 
z
" transform="scale(0.015625)"/>
       <path id="DejaVuSans-Bold-72" d="M 3138 2547 
Q 2991 2616 2845 2648 
Q 2700 2681 2553 2681 
Q 2122 2681 1889 2404 
Q 1656 2128 1656 1613 
L 1656 0 
L 538 0 
L 538 3500 
L 1656 3500 
L 1656 2925 
Q 1872 3269 2151 3426 
Q 2431 3584 2822 3584 
Q 2878 3584 2943 3579 
Q 3009 3575 3134 3559 
L 3138 2547 
z
" transform="scale(0.015625)"/>
       <path id="DejaVuSans-Bold-28" d="M 2413 -844 
L 1484 -844 
Q 1006 -72 778 623 
Q 550 1319 550 2003 
Q 550 2688 779 3389 
Q 1009 4091 1484 4856 
L 2413 4856 
Q 2013 4116 1813 3408 
Q 1613 2700 1613 2009 
Q 1613 1319 1811 609 
Q 2009 -100 2413 -844 
z
" transform="scale(0.015625)"/>
       <path id="DejaVuSans-Bold-55" d="M 588 4666 
L 1791 4666 
L 1791 1869 
Q 1791 1291 1980 1042 
Q 2169 794 2597 794 
Q 3028 794 3217 1042 
Q 3406 1291 3406 1869 
L 3406 4666 
L 4609 4666 
L 4609 1869 
Q 4609 878 4112 393 
Q 3616 -91 2597 -91 
Q 1581 -91 1084 393 
Q 588 878 588 1869 
L 588 4666 
z
" transform="scale(0.015625)"/>
       <path id="DejaVuSans-Bold-54" d="M 31 4666 
L 4331 4666 
L 4331 3756 
L 2784 3756 
L 2784 0 
L 1581 0 
L 1581 3756 
L 31 3756 
L 31 4666 
z
" transform="scale(0.015625)"/>
       <path id="DejaVuSans-Bold-43" d="M 4288 256 
Q 3956 84 3597 -3 
Q 3238 -91 2847 -91 
Q 1681 -91 1000 561 
Q 319 1213 319 2328 
Q 319 3447 1000 4098 
Q 1681 4750 2847 4750 
Q 3238 4750 3597 4662 
Q 3956 4575 4288 4403 
L 4288 3438 
Q 3953 3666 3628 3772 
Q 3303 3878 2944 3878 
Q 2300 3878 1931 3465 
Q 1563 3053 1563 2328 
Q 1563 1606 1931 1193 
Q 2300 781 2944 781 
Q 3303 781 3628 887 
Q 3953 994 4288 1222 
L 4288 256 
z
" transform="scale(0.015625)"/>
       <path id="DejaVuSans-Bold-29" d="M 513 -844 
Q 913 -100 1113 609 
Q 1313 1319 1313 2009 
Q 1313 2700 1113 3408 
Q 913 4116 513 4856 
L 1441 4856 
Q 1916 4091 2145 3389 
Q 2375 2688 2375 2003 
Q 2375 1319 2147 623 
Q 1919 -72 1441 -844 
L 513 -844 
z
" transform="scale(0.015625)"/>
      </defs>
      <use xlink:href="#DejaVuSans-Bold-4a"/>
      <use xlink:href="#DejaVuSans-Bold-75" transform="translate(37.207031 0)"/>
      <use xlink:href="#DejaVuSans-Bold-6e" transform="translate(108.398438 0)"/>
      <use xlink:href="#DejaVuSans-Bold-65" transform="translate(179.589844 0)"/>
      <use xlink:href="#DejaVuSans-Bold-20" transform="translate(247.412109 0)"/>
      <use xlink:href="#DejaVuSans-Bold-44" transform="translate(282.226562 0)"/>
      <use xlink:href="#DejaVuSans-Bold-61" transform="translate(365.234375 0)"/>
      <use xlink:href="#DejaVuSans-Bold-79" transform="translate(429.589844 0)"/>
      <use xlink:href="#DejaVuSans-Bold-20" transform="translate(494.775391 0)"/>
      <use xlink:href="#DejaVuSans-Bold-2f" transform="translate(529.589844 0)"/>
      <use xlink:href="#DejaVuSans-Bold-20" transform="translate(566.113281 0)"/>
      <use xlink:href="#DejaVuSans-Bold-48" transform="translate(600.927734 0)"/>
      <use xlink:href="#DejaVuSans-Bold-6f" transform="translate(684.619141 0)"/>
      <use xlink:href="#DejaVuSans-Bold-75" transform="translate(753.320312 0)"/>
      <use xlink:href="#DejaVuSans-Bold-72" transform="translate(824.511719 0)"/>
      <use xlink:href="#DejaVuSans-Bold-20" transform="translate(873.828125 0)"/>
      <use xlink:href="#DejaVuSans-Bold-28" transform="translate(908.642578 0)"/>
      <use xlink:href="#DejaVuSans-Bold-55" transform="translate(954.345703 0)"/>
      <use xlink:href="#DejaVuSans-Bold-54" transform="translate(1035.546875 0)"/>
      <use xlink:href="#DejaVuSans-Bold-43" transform="translate(1103.759766 0)"/>
      <use xlink:href="#DejaVuSans-Bold-29" transform="translate(1177.148438 0)"/>
     </g>
    </g>
   </g>
   <g id="matplotlib.axis_2">
    <g id="ytick_1">
     <g id="line2d_13">
      <path d="M 36.17625 375.909812 
L 1137.30625 375.909812 
" clip-path="url(#p07011b4aca)" style="fill: none; stroke-dasharray: 2.96,1.28; stroke-dashoffset: 0; stroke: #b0b0b0; stroke-opacity: 0.3; stroke-width: 0.8"/>
     </g>
     <g id="line2d_14">
      <defs>
       <path id="me7318a2479" d="M 0 0 
L -3.5 0 
" style="stroke: #000000; stroke-width: 0.8"/>
      </defs>
      <g>
       <use xlink:href="#me7318a2479" x="36.17625" y="375.909812" style="stroke: #000000; stroke-width: 0.8"/>
      </g>
     </g>
     <g id="text_14">
      <!-- 0 -->
      <g transform="translate(22.81375 379.709031) scale(0.1 -0.1)">
       <use xlink:href="#DejaVuSans-30"/>
      </g>
     </g>
    </g>
    <g id="ytick_2">
     <g id="line2d_15">
      <path d="M 36.17625 335.663146 
L 1137.30625 335.663146 
" clip-path="url(#p07011b4aca)" style="fill: none; stroke-dasharray: 2.96,1.28; stroke-dashoffset: 0; stroke: #b0b0b0; stroke-opacity: 0.3; stroke-width: 0.8"/>
     </g>
     <g id="line2d_16">
      <g>
       <use xlink:href="#me7318a2479" x="36.17625" y="335.663146" style="stroke: #000000; stroke-width: 0.8"/>
      </g>
     </g>
     <g id="text_15">
      <!-- 1 -->
      <g transform="translate(22.81375 339.462365) scale(0.1 -0.1)">
       <use xlink:href="#DejaVuSans-31"/>
      </g>
     </g>
    </g>
    <g id="ytick_3">
     <g id="line2d_17">
      <path d="M 36.17625 295.416479 
L 1137.30625 295.416479 
" clip-path="url(#p07011b4aca)" style="fill: none; stroke-dasharray: 2.96,1.28; stroke-dashoffset: 0; stroke: #b0b0b0; stroke-opacity: 0.3; stroke-width: 0.8"/>
     </g>
     <g id="line2d_18">
      <g>
       <use xlink:href="#me7318a2479" x="36.17625" y="295.416479" style="stroke: #000000; stroke-width: 0.8"/>
      </g>
     </g>
     <g id="text_16">
      <!-- 2 -->
      <g transform="translate(22.81375 299.215698) scale(0.1 -0.1)">
       <use xlink:href="#DejaVuSans-32"/>
      </g>
     </g>
    </g>
    <g id="ytick_4">
     <g id="line2d_19">
      <path d="M 36.17625 255.169812 
L 1137.30625 255.169812 
" clip-path="url(#p07011b4aca)" style="fill: none; stroke-dasharray: 2.96,1.28; stroke-dashoffset: 0; stroke: #b0b0b0; stroke-opacity: 0.3; stroke-width: 0.8"/>
     </g>
     <g id="line2d_20">
      <g>
       <use xlink:href="#me7318a2479" x="36.17625" y="255.169812" style="stroke: #000000; stroke-width: 0.8"/>
      </g>
     </g>
     <g id="text_17">
      <!-- 3 -->
      <g transform="translate(22.81375 258.969031) scale(0.1 -0.1)">
       <defs>
        <path id="DejaVuSans-33" d="M 2597 2516 
Q 3050 2419 3304 2112 
Q 3559 1806 3559 1356 
Q 3559 666 3084 287 
Q 2609 -91 1734 -91 
Q 1441 -91 1130 -33 
Q 819 25 488 141 
L 488 750 
Q 750 597 1062 519 
Q 1375 441 1716 441 
Q 2309 441 2620 675 
Q 2931 909 2931 1356 
Q 2931 1769 2642 2001 
Q 2353 2234 1838 2234 
L 1294 2234 
L 1294 2753 
L 1863 2753 
Q 2328 2753 2575 2939 
Q 2822 3125 2822 3475 
Q 2822 3834 2567 4026 
Q 2313 4219 1838 4219 
Q 1578 4219 1281 4162 
Q 984 4106 628 3988 
L 628 4550 
Q 988 4650 1302 4700 
Q 1616 4750 1894 4750 
Q 2613 4750 3031 4423 
Q 3450 4097 3450 3541 
Q 3450 3153 3228 2886 
Q 3006 2619 2597 2516 
z
" transform="scale(0.015625)"/>
       </defs>
       <use xlink:href="#DejaVuSans-33"/>
      </g>
     </g>
    </g>
    <g id="ytick_5">
     <g id="line2d_21">
      <path d="M 36.17625 214.923146 
L 1137.30625 214.923146 
" clip-path="url(#p07011b4aca)" style="fill: none; stroke-dasharray: 2.96,1.28; stroke-dashoffset: 0; stroke: #b0b0b0; stroke-opacity: 0.3; stroke-width: 0.8"/>
     </g>
     <g id="line2d_22">
      <g>
       <use xlink:href="#me7318a2479" x="36.17625" y="214.923146" style="stroke: #000000; stroke-width: 0.8"/>
      </g>
     </g>
     <g id="text_18">
      <!-- 4 -->
      <g transform="translate(22.81375 218.722365) scale(0.1 -0.1)">
       <defs>
        <path id="DejaVuSans-34" d="M 2419 4116 
L 825 1625 
L 2419 1625 
L 2419 4116 
z
M 2253 4666 
L 3047 4666 
L 3047 1625 
L 3713 1625 
L 3713 1100 
L 3047 1100 
L 3047 0 
L 2419 0 
L 2419 1100 
L 313 1100 
L 313 1709 
L 2253 4666 
z
" transform="scale(0.015625)"/>
       </defs>
       <use xlink:href="#DejaVuSans-34"/>
      </g>
     </g>
    </g>
    <g id="ytick_6">
     <g id="line2d_23">
      <path d="M 36.17625 174.676479 
L 1137.30625 174.676479 
" clip-path="url(#p07011b4aca)" style="fill: none; stroke-dasharray: 2.96,1.28; stroke-dashoffset: 0; stroke: #b0b0b0; stroke-opacity: 0.3; stroke-width: 0.8"/>
     </g>
     <g id="line2d_24">
      <g>
       <use xlink:href="#me7318a2479" x="36.17625" y="174.676479" style="stroke: #000000; stroke-width: 0.8"/>
      </g>
     </g>
     <g id="text_19">
      <!-- 5 -->
      <g transform="translate(22.81375 178.475698) scale(0.1 -0.1)">
       <defs>
        <path id="DejaVuSans-35" d="M 691 4666 
L 3169 4666 
L 3169 4134 
L 1269 4134 
L 1269 2991 
Q 1406 3038 1543 3061 
Q 1681 3084 1819 3084 
Q 2600 3084 3056 2656 
Q 3513 2228 3513 1497 
Q 3513 744 3044 326 
Q 2575 -91 1722 -91 
Q 1428 -91 1123 -41 
Q 819 9 494 109 
L 494 744 
Q 775 591 1075 516 
Q 1375 441 1709 441 
Q 2250 441 2565 725 
Q 2881 1009 2881 1497 
Q 2881 1984 2565 2268 
Q 2250 2553 1709 2553 
Q 1456 2553 1204 2497 
Q 953 2441 691 2322 
L 691 4666 
z
" transform="scale(0.015625)"/>
       </defs>
       <use xlink:href="#DejaVuSans-35"/>
      </g>
     </g>
    </g>
    <g id="ytick_7">
     <g id="line2d_25">
      <path d="M 36.17625 134.429812 
L 1137.30625 134.429812 
" clip-path="url(#p07011b4aca)" style="fill: none; stroke-dasharray: 2.96,1.28; stroke-dashoffset: 0; stroke: #b0b0b0; stroke-opacity: 0.3; stroke-width: 0.8"/>
     </g>
     <g id="line2d_26">
      <g>
       <use xlink:href="#me7318a2479" x="36.17625" y="134.429812" style="stroke: #000000; stroke-width: 0.8"/>
      </g>
     </g>
     <g id="text_20">
      <!-- 6 -->
      <g transform="translate(22.81375 138.229031) scale(0.1 -0.1)">
       <use xlink:href="#DejaVuSans-36"/>
      </g>
     </g>
    </g>
    <g id="ytick_8">
     <g id="line2d_27">
      <path d="M 36.17625 94.183146 
L 1137.30625 94.183146 
" clip-path="url(#p07011b4aca)" style="fill: none; stroke-dasharray: 2.96,1.28; stroke-dashoffset: 0; stroke: #b0b0b0; stroke-opacity: 0.3; stroke-width: 0.8"/>
     </g>
     <g id="line2d_28">
      <g>
       <use xlink:href="#me7318a2479" x="36.17625" y="94.183146" style="stroke: #000000; stroke-width: 0.8"/>
      </g>
     </g>
     <g id="text_21">
      <!-- 7 -->
      <g transform="translate(22.81375 97.982365) scale(0.1 -0.1)">
       <defs>
        <path id="DejaVuSans-37" d="M 525 4666 
L 3525 4666 
L 3525 4397 
L 1831 0 
L 1172 0 
L 2766 4134 
L 525 4134 
L 525 4666 
z
" transform="scale(0.015625)"/>
       </defs>
       <use xlink:href="#DejaVuSans-37"/>
      </g>
     </g>
    </g>
    <g id="ytick_9">
     <g id="line2d_29">
      <path d="M 36.17625 53.936479 
L 1137.30625 53.936479 
" clip-path="url(#p07011b4aca)" style="fill: none; stroke-dasharray: 2.96,1.28; stroke-dashoffset: 0; stroke: #b0b0b0; stroke-opacity: 0.3; stroke-width: 0.8"/>
     </g>
     <g id="line2d_30">
      <g>
       <use xlink:href="#me7318a2479" x="36.17625" y="53.936479" style="stroke: #000000; stroke-width: 0.8"/>
      </g>
     </g>
     <g id="text_22">
      <!-- 8 -->
      <g transform="translate(22.81375 57.735698) scale(0.1 -0.1)">
       <use xlink:href="#DejaVuSans-38"/>
      </g>
     </g>
    </g>
    <g id="text_23">
     <!-- Number of Occurrences -->
     <g transform="translate(16.318125 286.593187) rotate(-90) scale(0.12 -0.12)">
      <defs>
       <path id="DejaVuSans-Bold-4e" d="M 588 4666 
L 1931 4666 
L 3628 1466 
L 3628 4666 
L 4769 4666 
L 4769 0 
L 3425 0 
L 1728 3200 
L 1728 0 
L 588 0 
L 588 4666 
z
" transform="scale(0.015625)"/>
       <path id="DejaVuSans-Bold-6d" d="M 3781 2919 
Q 3994 3244 4286 3414 
Q 4578 3584 4928 3584 
Q 5531 3584 5847 3212 
Q 6163 2841 6163 2131 
L 6163 0 
L 5038 0 
L 5038 1825 
Q 5041 1866 5042 1909 
Q 5044 1953 5044 2034 
Q 5044 2406 4934 2573 
Q 4825 2741 4581 2741 
Q 4263 2741 4089 2478 
Q 3916 2216 3909 1719 
L 3909 0 
L 2784 0 
L 2784 1825 
Q 2784 2406 2684 2573 
Q 2584 2741 2328 2741 
Q 2006 2741 1831 2477 
Q 1656 2213 1656 1722 
L 1656 0 
L 531 0 
L 531 3500 
L 1656 3500 
L 1656 2988 
Q 1863 3284 2130 3434 
Q 2397 3584 2719 3584 
Q 3081 3584 3359 3409 
Q 3638 3234 3781 2919 
z
" transform="scale(0.015625)"/>
       <path id="DejaVuSans-Bold-62" d="M 2400 722 
Q 2759 722 2948 984 
Q 3138 1247 3138 1747 
Q 3138 2247 2948 2509 
Q 2759 2772 2400 2772 
Q 2041 2772 1848 2508 
Q 1656 2244 1656 1747 
Q 1656 1250 1848 986 
Q 2041 722 2400 722 
z
M 1656 2988 
Q 1888 3294 2169 3439 
Q 2450 3584 2816 3584 
Q 3463 3584 3878 3070 
Q 4294 2556 4294 1747 
Q 4294 938 3878 423 
Q 3463 -91 2816 -91 
Q 2450 -91 2169 54 
Q 1888 200 1656 506 
L 1656 0 
L 538 0 
L 538 4863 
L 1656 4863 
L 1656 2988 
z
" transform="scale(0.015625)"/>
       <path id="DejaVuSans-Bold-66" d="M 2841 4863 
L 2841 4128 
L 2222 4128 
Q 1984 4128 1890 4042 
Q 1797 3956 1797 3744 
L 1797 3500 
L 2753 3500 
L 2753 2700 
L 1797 2700 
L 1797 0 
L 678 0 
L 678 2700 
L 122 2700 
L 122 3500 
L 678 3500 
L 678 3744 
Q 678 4316 997 4589 
Q 1316 4863 1984 4863 
L 2841 4863 
z
" transform="scale(0.015625)"/>
       <path id="DejaVuSans-Bold-4f" d="M 2719 3878 
Q 2169 3878 1866 3472 
Q 1563 3066 1563 2328 
Q 1563 1594 1866 1187 
Q 2169 781 2719 781 
Q 3272 781 3575 1187 
Q 3878 1594 3878 2328 
Q 3878 3066 3575 3472 
Q 3272 3878 2719 3878 
z
M 2719 4750 
Q 3844 4750 4481 4106 
Q 5119 3463 5119 2328 
Q 5119 1197 4481 553 
Q 3844 -91 2719 -91 
Q 1597 -91 958 553 
Q 319 1197 319 2328 
Q 319 3463 958 4106 
Q 1597 4750 2719 4750 
z
" transform="scale(0.015625)"/>
       <path id="DejaVuSans-Bold-63" d="M 3366 3391 
L 3366 2478 
Q 3138 2634 2908 2709 
Q 2678 2784 2431 2784 
Q 1963 2784 1702 2511 
Q 1441 2238 1441 1747 
Q 1441 1256 1702 982 
Q 1963 709 2431 709 
Q 2694 709 2930 787 
Q 3166 866 3366 1019 
L 3366 103 
Q 3103 6 2833 -42 
Q 2563 -91 2291 -91 
Q 1344 -91 809 395 
Q 275 881 275 1747 
Q 275 2613 809 3098 
Q 1344 3584 2291 3584 
Q 2566 3584 2833 3536 
Q 3100 3488 3366 3391 
z
" transform="scale(0.015625)"/>
       <path id="DejaVuSans-Bold-73" d="M 3272 3391 
L 3272 2541 
Q 2913 2691 2578 2766 
Q 2244 2841 1947 2841 
Q 1628 2841 1473 2761 
Q 1319 2681 1319 2516 
Q 1319 2381 1436 2309 
Q 1553 2238 1856 2203 
L 2053 2175 
Q 2913 2066 3209 1816 
Q 3506 1566 3506 1031 
Q 3506 472 3093 190 
Q 2681 -91 1863 -91 
Q 1516 -91 1145 -36 
Q 775 19 384 128 
L 384 978 
Q 719 816 1070 734 
Q 1422 653 1784 653 
Q 2113 653 2278 743 
Q 2444 834 2444 1013 
Q 2444 1163 2330 1236 
Q 2216 1309 1875 1350 
L 1678 1375 
Q 931 1469 631 1722 
Q 331 1975 331 2491 
Q 331 3047 712 3315 
Q 1094 3584 1881 3584 
Q 2191 3584 2531 3537 
Q 2872 3491 3272 3391 
z
" transform="scale(0.015625)"/>
      </defs>
      <use xlink:href="#DejaVuSans-Bold-4e"/>
      <use xlink:href="#DejaVuSans-Bold-75" transform="translate(83.691406 0)"/>
      <use xlink:href="#DejaVuSans-Bold-6d" transform="translate(154.882812 0)"/>
      <use xlink:href="#DejaVuSans-Bold-62" transform="translate(259.082031 0)"/>
      <use xlink:href="#DejaVuSans-Bold-65" transform="translate(330.664062 0)"/>
      <use xlink:href="#DejaVuSans-Bold-72" transform="translate(398.486328 0)"/>
      <use xlink:href="#DejaVuSans-Bold-20" transform="translate(447.802734 0)"/>
      <use xlink:href="#DejaVuSans-Bold-6f" transform="translate(482.617188 0)"/>
      <use xlink:href="#DejaVuSans-Bold-66" transform="translate(551.318359 0)"/>
      <use xlink:href="#DejaVuSans-Bold-20" transform="translate(594.824219 0)"/>
      <use xlink:href="#DejaVuSans-Bold-4f" transform="translate(629.638672 0)"/>
      <use xlink:href="#DejaVuSans-Bold-63" transform="translate(714.648438 0)"/>
      <use xlink:href="#DejaVuSans-Bold-63" transform="translate(773.925781 0)"/>
      <use xlink:href="#DejaVuSans-Bold-75" transform="translate(833.203125 0)"/>
      <use xlink:href="#DejaVuSans-Bold-72" transform="translate(904.394531 0)"/>
      <use xlink:href="#DejaVuSans-Bold-72" transform="translate(953.710938 0)"/>
      <use xlink:href="#DejaVuSans-Bold-65" transform="translate(1003.027344 0)"/>
      <use xlink:href="#DejaVuSans-Bold-6e" transform="translate(1070.849609 0)"/>
      <use xlink:href="#DejaVuSans-Bold-63" transform="translate(1142.041016 0)"/>
      <use xlink:href="#DejaVuSans-Bold-65" transform="translate(1201.318359 0)"/>
      <use xlink:href="#DejaVuSans-Bold-73" transform="translate(1269.140625 0)"/>
     </g>
    </g>
   </g>
   <g id="patch_3">
    <path d="M 86.227614 375.909812 
L 97.381121 375.909812 
L 97.381121 375.909812 
L 86.227614 375.909812 
z
" clip-path="url(#p07011b4aca)" style="fill: #4ecdc4; opacity: 0.7; stroke: #000000; stroke-width: 0.5; stroke-linejoin: miter"/>
   </g>
   <g id="patch_4">
    <path d="M 100.169498 375.909812 
L 111.323005 375.909812 
L 111.323005 375.909812 
L 100.169498 375.909812 
z
" clip-path="url(#p07011b4aca)" style="fill: #4ecdc4; opacity: 0.7; stroke: #000000; stroke-width: 0.5; stroke-linejoin: miter"/>
   </g>
   <g id="patch_5">
    <path d="M 114.111382 375.909812 
L 125.264889 375.909812 
L 125.264889 375.909812 
L 114.111382 375.909812 
z
" clip-path="url(#p07011b4aca)" style="fill: #4ecdc4; opacity: 0.7; stroke: #000000; stroke-width: 0.5; stroke-linejoin: miter"/>
   </g>
   <g id="patch_6">
    <path d="M 128.053266 375.909812 
L 139.206773 375.909812 
L 139.206773 375.909812 
L 128.053266 375.909812 
z
" clip-path="url(#p07011b4aca)" style="fill: #4ecdc4; opacity: 0.7; stroke: #000000; stroke-width: 0.5; stroke-linejoin: miter"/>
   </g>
   <g id="patch_7">
    <path d="M 141.99515 375.909812 
L 153.148657 375.909812 
L 153.148657 375.909812 
L 141.99515 375.909812 
z
" clip-path="url(#p07011b4aca)" style="fill: #4ecdc4; opacity: 0.7; stroke: #000000; stroke-width: 0.5; stroke-linejoin: miter"/>
   </g>
   <g id="patch_8">
    <path d="M 155.937034 375.909812 
L 167.090541 375.909812 
L 167.090541 375.909812 
L 155.937034 375.909812 
z
" clip-path="url(#p07011b4aca)" style="fill: #4ecdc4; opacity: 0.7; stroke: #000000; stroke-width: 0.5; stroke-linejoin: miter"/>
   </g>
   <g id="patch_9">
    <path d="M 169.878918 375.909812 
L 181.032425 375.909812 
L 181.032425 335.663146 
L 169.878918 335.663146 
z
" clip-path="url(#p07011b4aca)" style="fill: #4ecdc4; opacity: 0.7; stroke: #000000; stroke-width: 0.5; stroke-linejoin: miter"/>
   </g>
   <g id="patch_10">
    <path d="M 183.820802 375.909812 
L 194.974309 375.909812 
L 194.974309 295.416479 
L 183.820802 295.416479 
z
" clip-path="url(#p07011b4aca)" style="fill: #4ecdc4; opacity: 0.7; stroke: #000000; stroke-width: 0.5; stroke-linejoin: miter"/>
   </g>
   <g id="patch_11">
    <path d="M 197.762686 375.909812 
L 208.916193 375.909812 
L 208.916193 335.663146 
L 197.762686 335.663146 
z
" clip-path="url(#p07011b4aca)" style="fill: #4ecdc4; opacity: 0.7; stroke: #000000; stroke-width: 0.5; stroke-linejoin: miter"/>
   </g>
   <g id="patch_12">
    <path d="M 211.70457 375.909812 
L 222.858077 375.909812 
L 222.858077 335.663146 
L 211.70457 335.663146 
z
" clip-path="url(#p07011b4aca)" style="fill: #4ecdc4; opacity: 0.7; stroke: #000000; stroke-width: 0.5; stroke-linejoin: miter"/>
   </g>
   <g id="patch_13">
    <path d="M 225.646454 375.909812 
L 236.799961 375.909812 
L 236.799961 335.663146 
L 225.646454 335.663146 
z
" clip-path="url(#p07011b4aca)" style="fill: #4ecdc4; opacity: 0.7; stroke: #000000; stroke-width: 0.5; stroke-linejoin: miter"/>
   </g>
   <g id="patch_14">
    <path d="M 239.588338 375.909812 
L 250.741845 375.909812 
L 250.741845 295.416479 
L 239.588338 295.416479 
z
" clip-path="url(#p07011b4aca)" style="fill: #4ecdc4; opacity: 0.7; stroke: #000000; stroke-width: 0.5; stroke-linejoin: miter"/>
   </g>
   <g id="patch_15">
    <path d="M 253.530222 375.909812 
L 264.683729 375.909812 
L 264.683729 295.416479 
L 253.530222 295.416479 
z
" clip-path="url(#p07011b4aca)" style="fill: #4ecdc4; opacity: 0.7; stroke: #000000; stroke-width: 0.5; stroke-linejoin: miter"/>
   </g>
   <g id="patch_16">
    <path d="M 267.472106 375.909812 
L 278.625613 375.909812 
L 278.625613 255.169812 
L 267.472106 255.169812 
z
" clip-path="url(#p07011b4aca)" style="fill: #4ecdc4; opacity: 0.7; stroke: #000000; stroke-width: 0.5; stroke-linejoin: miter"/>
   </g>
   <g id="patch_17">
    <path d="M 281.41399 375.909812 
L 292.567497 375.909812 
L 292.567497 295.416479 
L 281.41399 295.416479 
z
" clip-path="url(#p07011b4aca)" style="fill: #4ecdc4; opacity: 0.7; stroke: #000000; stroke-width: 0.5; stroke-linejoin: miter"/>
   </g>
   <g id="patch_18">
    <path d="M 295.355874 375.909812 
L 306.509381 375.909812 
L 306.509381 255.169812 
L 295.355874 255.169812 
z
" clip-path="url(#p07011b4aca)" style="fill: #4ecdc4; opacity: 0.7; stroke: #000000; stroke-width: 0.5; stroke-linejoin: miter"/>
   </g>
   <g id="patch_19">
    <path d="M 309.297758 375.909812 
L 320.451265 375.909812 
L 320.451265 295.416479 
L 309.297758 295.416479 
z
" clip-path="url(#p07011b4aca)" style="fill: #4ecdc4; opacity: 0.7; stroke: #000000; stroke-width: 0.5; stroke-linejoin: miter"/>
   </g>
   <g id="patch_20">
    <path d="M 323.239642 375.909812 
L 334.393149 375.909812 
L 334.393149 255.169812 
L 323.239642 255.169812 
z
" clip-path="url(#p07011b4aca)" style="fill: #4ecdc4; opacity: 0.7; stroke: #000000; stroke-width: 0.5; stroke-linejoin: miter"/>
   </g>
   <g id="patch_21">
    <path d="M 337.181526 375.909812 
L 348.335033 375.909812 
L 348.335033 214.923146 
L 337.181526 214.923146 
z
" clip-path="url(#p07011b4aca)" style="fill: #4ecdc4; opacity: 0.7; stroke: #000000; stroke-width: 0.5; stroke-linejoin: miter"/>
   </g>
   <g id="patch_22">
    <path d="M 351.12341 375.909812 
L 362.276917 375.909812 
L 362.276917 255.169812 
L 351.12341 255.169812 
z
" clip-path="url(#p07011b4aca)" style="fill: #4ecdc4; opacity: 0.7; stroke: #000000; stroke-width: 0.5; stroke-linejoin: miter"/>
   </g>
   <g id="patch_23">
    <path d="M 365.065294 375.909812 
L 376.218801 375.909812 
L 376.218801 214.923146 
L 365.065294 214.923146 
z
" clip-path="url(#p07011b4aca)" style="fill: #4ecdc4; opacity: 0.7; stroke: #000000; stroke-width: 0.5; stroke-linejoin: miter"/>
   </g>
   <g id="patch_24">
    <path d="M 379.007178 375.909812 
L 390.160685 375.909812 
L 390.160685 174.676479 
L 379.007178 174.676479 
z
" clip-path="url(#p07011b4aca)" style="fill: #4ecdc4; opacity: 0.7; stroke: #000000; stroke-width: 0.5; stroke-linejoin: miter"/>
   </g>
   <g id="patch_25">
    <path d="M 392.949062 375.909812 
L 404.102569 375.909812 
L 404.102569 255.169812 
L 392.949062 255.169812 
z
" clip-path="url(#p07011b4aca)" style="fill: #4ecdc4; opacity: 0.7; stroke: #000000; stroke-width: 0.5; stroke-linejoin: miter"/>
   </g>
   <g id="patch_26">
    <path d="M 406.890946 375.909812 
L 418.044453 375.909812 
L 418.044453 174.676479 
L 406.890946 174.676479 
z
" clip-path="url(#p07011b4aca)" style="fill: #4ecdc4; opacity: 0.7; stroke: #000000; stroke-width: 0.5; stroke-linejoin: miter"/>
   </g>
   <g id="patch_27">
    <path d="M 420.83283 375.909812 
L 431.986337 375.909812 
L 431.986337 214.923146 
L 420.83283 214.923146 
z
" clip-path="url(#p07011b4aca)" style="fill: #4ecdc4; opacity: 0.7; stroke: #000000; stroke-width: 0.5; stroke-linejoin: miter"/>
   </g>
   <g id="patch_28">
    <path d="M 434.774714 375.909812 
L 445.928221 375.909812 
L 445.928221 174.676479 
L 434.774714 174.676479 
z
" clip-path="url(#p07011b4aca)" style="fill: #4ecdc4; opacity: 0.7; stroke: #000000; stroke-width: 0.5; stroke-linejoin: miter"/>
   </g>
   <g id="patch_29">
    <path d="M 448.716598 375.909812 
L 459.870105 375.909812 
L 459.870105 134.429812 
L 448.716598 134.429812 
z
" clip-path="url(#p07011b4aca)" style="fill: #4ecdc4; opacity: 0.7; stroke: #000000; stroke-width: 0.5; stroke-linejoin: miter"/>
   </g>
   <g id="patch_30">
    <path d="M 462.658482 375.909812 
L 473.811989 375.909812 
L 473.811989 174.676479 
L 462.658482 174.676479 
z
" clip-path="url(#p07011b4aca)" style="fill: #4ecdc4; opacity: 0.7; stroke: #000000; stroke-width: 0.5; stroke-linejoin: miter"/>
   </g>
   <g id="patch_31">
    <path d="M 476.600366 375.909812 
L 487.753873 375.909812 
L 487.753873 255.169812 
L 476.600366 255.169812 
z
" clip-path="url(#p07011b4aca)" style="fill: #4ecdc4; opacity: 0.7; stroke: #000000; stroke-width: 0.5; stroke-linejoin: miter"/>
   </g>
   <g id="patch_32">
    <path d="M 490.54225 375.909812 
L 501.695757 375.909812 
L 501.695757 53.936479 
L 490.54225 53.936479 
z
" clip-path="url(#p07011b4aca)" style="fill: #4ecdc4; opacity: 0.7; stroke: #000000; stroke-width: 0.5; stroke-linejoin: miter"/>
   </g>
   <g id="patch_33">
    <path d="M 504.484134 375.909812 
L 515.637641 375.909812 
L 515.637641 214.923146 
L 504.484134 214.923146 
z
" clip-path="url(#p07011b4aca)" style="fill: #4ecdc4; opacity: 0.7; stroke: #000000; stroke-width: 0.5; stroke-linejoin: miter"/>
   </g>
   <g id="patch_34">
    <path d="M 518.426018 375.909812 
L 529.579526 375.909812 
L 529.579526 174.676479 
L 518.426018 174.676479 
z
" clip-path="url(#p07011b4aca)" style="fill: #4ecdc4; opacity: 0.7; stroke: #000000; stroke-width: 0.5; stroke-linejoin: miter"/>
   </g>
   <g id="patch_35">
    <path d="M 532.367902 375.909812 
L 543.52141 375.909812 
L 543.52141 134.429812 
L 532.367902 134.429812 
z
" clip-path="url(#p07011b4aca)" style="fill: #4ecdc4; opacity: 0.7; stroke: #000000; stroke-width: 0.5; stroke-linejoin: miter"/>
   </g>
   <g id="patch_36">
    <path d="M 546.309786 375.909812 
L 557.463294 375.909812 
L 557.463294 214.923146 
L 546.309786 214.923146 
z
" clip-path="url(#p07011b4aca)" style="fill: #4ecdc4; opacity: 0.7; stroke: #000000; stroke-width: 0.5; stroke-linejoin: miter"/>
   </g>
   <g id="patch_37">
    <path d="M 560.25167 375.909812 
L 571.405178 375.909812 
L 571.405178 134.429812 
L 560.25167 134.429812 
z
" clip-path="url(#p07011b4aca)" style="fill: #4ecdc4; opacity: 0.7; stroke: #000000; stroke-width: 0.5; stroke-linejoin: miter"/>
   </g>
   <g id="patch_38">
    <path d="M 574.193554 375.909812 
L 585.347062 375.909812 
L 585.347062 214.923146 
L 574.193554 214.923146 
z
" clip-path="url(#p07011b4aca)" style="fill: #4ecdc4; opacity: 0.7; stroke: #000000; stroke-width: 0.5; stroke-linejoin: miter"/>
   </g>
   <g id="patch_39">
    <path d="M 588.135438 375.909812 
L 599.288946 375.909812 
L 599.288946 214.923146 
L 588.135438 214.923146 
z
" clip-path="url(#p07011b4aca)" style="fill: #4ecdc4; opacity: 0.7; stroke: #000000; stroke-width: 0.5; stroke-linejoin: miter"/>
   </g>
   <g id="patch_40">
    <path d="M 602.077322 375.909812 
L 613.23083 375.909812 
L 613.23083 134.429812 
L 602.077322 134.429812 
z
" clip-path="url(#p07011b4aca)" style="fill: #4ecdc4; opacity: 0.7; stroke: #000000; stroke-width: 0.5; stroke-linejoin: miter"/>
   </g>
   <g id="patch_41">
    <path d="M 616.019206 375.909812 
L 627.172714 375.909812 
L 627.172714 134.429812 
L 616.019206 134.429812 
z
" clip-path="url(#p07011b4aca)" style="fill: #4ecdc4; opacity: 0.7; stroke: #000000; stroke-width: 0.5; stroke-linejoin: miter"/>
   </g>
   <g id="patch_42">
    <path d="M 629.96109 375.909812 
L 641.114598 375.909812 
L 641.114598 214.923146 
L 629.96109 214.923146 
z
" clip-path="url(#p07011b4aca)" style="fill: #4ecdc4; opacity: 0.7; stroke: #000000; stroke-width: 0.5; stroke-linejoin: miter"/>
   </g>
   <g id="patch_43">
    <path d="M 643.902974 375.909812 
L 655.056482 375.909812 
L 655.056482 134.429812 
L 643.902974 134.429812 
z
" clip-path="url(#p07011b4aca)" style="fill: #4ecdc4; opacity: 0.7; stroke: #000000; stroke-width: 0.5; stroke-linejoin: miter"/>
   </g>
   <g id="patch_44">
    <path d="M 657.844859 375.909812 
L 668.998366 375.909812 
L 668.998366 255.169812 
L 657.844859 255.169812 
z
" clip-path="url(#p07011b4aca)" style="fill: #4ecdc4; opacity: 0.7; stroke: #000000; stroke-width: 0.5; stroke-linejoin: miter"/>
   </g>
   <g id="patch_45">
    <path d="M 671.786743 375.909812 
L 682.94025 375.909812 
L 682.94025 134.429812 
L 671.786743 134.429812 
z
" clip-path="url(#p07011b4aca)" style="fill: #4ecdc4; opacity: 0.7; stroke: #000000; stroke-width: 0.5; stroke-linejoin: miter"/>
   </g>
   <g id="patch_46">
    <path d="M 685.728627 375.909812 
L 696.882134 375.909812 
L 696.882134 174.676479 
L 685.728627 174.676479 
z
" clip-path="url(#p07011b4aca)" style="fill: #4ecdc4; opacity: 0.7; stroke: #000000; stroke-width: 0.5; stroke-linejoin: miter"/>
   </g>
   <g id="patch_47">
    <path d="M 699.670511 375.909812 
L 710.824018 375.909812 
L 710.824018 174.676479 
L 699.670511 174.676479 
z
" clip-path="url(#p07011b4aca)" style="fill: #4ecdc4; opacity: 0.7; stroke: #000000; stroke-width: 0.5; stroke-linejoin: miter"/>
   </g>
   <g id="patch_48">
    <path d="M 713.612395 375.909812 
L 724.765902 375.909812 
L 724.765902 174.676479 
L 713.612395 174.676479 
z
" clip-path="url(#p07011b4aca)" style="fill: #4ecdc4; opacity: 0.7; stroke: #000000; stroke-width: 0.5; stroke-linejoin: miter"/>
   </g>
   <g id="patch_49">
    <path d="M 727.554279 375.909812 
L 738.707786 375.909812 
L 738.707786 214.923146 
L 727.554279 214.923146 
z
" clip-path="url(#p07011b4aca)" style="fill: #4ecdc4; opacity: 0.7; stroke: #000000; stroke-width: 0.5; stroke-linejoin: miter"/>
   </g>
   <g id="patch_50">
    <path d="M 741.496163 375.909812 
L 752.64967 375.909812 
L 752.64967 214.923146 
L 741.496163 214.923146 
z
" clip-path="url(#p07011b4aca)" style="fill: #4ecdc4; opacity: 0.7; stroke: #000000; stroke-width: 0.5; stroke-linejoin: miter"/>
   </g>
   <g id="patch_51">
    <path d="M 755.438047 375.909812 
L 766.591554 375.909812 
L 766.591554 255.169812 
L 755.438047 255.169812 
z
" clip-path="url(#p07011b4aca)" style="fill: #4ecdc4; opacity: 0.7; stroke: #000000; stroke-width: 0.5; stroke-linejoin: miter"/>
   </g>
   <g id="patch_52">
    <path d="M 769.379931 375.909812 
L 780.533438 375.909812 
L 780.533438 255.169812 
L 769.379931 255.169812 
z
" clip-path="url(#p07011b4aca)" style="fill: #4ecdc4; opacity: 0.7; stroke: #000000; stroke-width: 0.5; stroke-linejoin: miter"/>
   </g>
   <g id="patch_53">
    <path d="M 783.321815 375.909812 
L 794.475322 375.909812 
L 794.475322 174.676479 
L 783.321815 174.676479 
z
" clip-path="url(#p07011b4aca)" style="fill: #4ecdc4; opacity: 0.7; stroke: #000000; stroke-width: 0.5; stroke-linejoin: miter"/>
   </g>
   <g id="patch_54">
    <path d="M 797.263699 375.909812 
L 808.417206 375.909812 
L 808.417206 214.923146 
L 797.263699 214.923146 
z
" clip-path="url(#p07011b4aca)" style="fill: #4ecdc4; opacity: 0.7; stroke: #000000; stroke-width: 0.5; stroke-linejoin: miter"/>
   </g>
   <g id="patch_55">
    <path d="M 811.205583 375.909812 
L 822.35909 375.909812 
L 822.35909 295.416479 
L 811.205583 295.416479 
z
" clip-path="url(#p07011b4aca)" style="fill: #4ecdc4; opacity: 0.7; stroke: #000000; stroke-width: 0.5; stroke-linejoin: miter"/>
   </g>
   <g id="patch_56">
    <path d="M 825.147467 375.909812 
L 836.300974 375.909812 
L 836.300974 255.169812 
L 825.147467 255.169812 
z
" clip-path="url(#p07011b4aca)" style="fill: #4ecdc4; opacity: 0.7; stroke: #000000; stroke-width: 0.5; stroke-linejoin: miter"/>
   </g>
   <g id="patch_57">
    <path d="M 839.089351 375.909812 
L 850.242858 375.909812 
L 850.242858 295.416479 
L 839.089351 295.416479 
z
" clip-path="url(#p07011b4aca)" style="fill: #4ecdc4; opacity: 0.7; stroke: #000000; stroke-width: 0.5; stroke-linejoin: miter"/>
   </g>
   <g id="patch_58">
    <path d="M 853.031235 375.909812 
L 864.184742 375.909812 
L 864.184742 255.169812 
L 853.031235 255.169812 
z
" clip-path="url(#p07011b4aca)" style="fill: #4ecdc4; opacity: 0.7; stroke: #000000; stroke-width: 0.5; stroke-linejoin: miter"/>
   </g>
   <g id="patch_59">
    <path d="M 866.973119 375.909812 
L 878.126626 375.909812 
L 878.126626 295.416479 
L 866.973119 295.416479 
z
" clip-path="url(#p07011b4aca)" style="fill: #4ecdc4; opacity: 0.7; stroke: #000000; stroke-width: 0.5; stroke-linejoin: miter"/>
   </g>
   <g id="patch_60">
    <path d="M 880.915003 375.909812 
L 892.06851 375.909812 
L 892.06851 295.416479 
L 880.915003 295.416479 
z
" clip-path="url(#p07011b4aca)" style="fill: #4ecdc4; opacity: 0.7; stroke: #000000; stroke-width: 0.5; stroke-linejoin: miter"/>
   </g>
   <g id="patch_61">
    <path d="M 894.856887 375.909812 
L 906.010394 375.909812 
L 906.010394 335.663146 
L 894.856887 335.663146 
z
" clip-path="url(#p07011b4aca)" style="fill: #4ecdc4; opacity: 0.7; stroke: #000000; stroke-width: 0.5; stroke-linejoin: miter"/>
   </g>
   <g id="patch_62">
    <path d="M 908.798771 375.909812 
L 919.952278 375.909812 
L 919.952278 295.416479 
L 908.798771 295.416479 
z
" clip-path="url(#p07011b4aca)" style="fill: #4ecdc4; opacity: 0.7; stroke: #000000; stroke-width: 0.5; stroke-linejoin: miter"/>
   </g>
   <g id="patch_63">
    <path d="M 922.740655 375.909812 
L 933.894162 375.909812 
L 933.894162 335.663146 
L 922.740655 335.663146 
z
" clip-path="url(#p07011b4aca)" style="fill: #4ecdc4; opacity: 0.7; stroke: #000000; stroke-width: 0.5; stroke-linejoin: miter"/>
   </g>
   <g id="patch_64">
    <path d="M 936.682539 375.909812 
L 947.836046 375.909812 
L 947.836046 335.663146 
L 936.682539 335.663146 
z
" clip-path="url(#p07011b4aca)" style="fill: #4ecdc4; opacity: 0.7; stroke: #000000; stroke-width: 0.5; stroke-linejoin: miter"/>
   </g>
   <g id="patch_65">
    <path d="M 950.624423 375.909812 
L 961.77793 375.909812 
L 961.77793 335.663146 
L 950.624423 335.663146 
z
" clip-path="url(#p07011b4aca)" style="fill: #4ecdc4; opacity: 0.7; stroke: #000000; stroke-width: 0.5; stroke-linejoin: miter"/>
   </g>
   <g id="patch_66">
    <path d="M 964.566307 375.909812 
L 975.719814 375.909812 
L 975.719814 335.663146 
L 964.566307 335.663146 
z
" clip-path="url(#p07011b4aca)" style="fill: #4ecdc4; opacity: 0.7; stroke: #000000; stroke-width: 0.5; stroke-linejoin: miter"/>
   </g>
   <g id="patch_67">
    <path d="M 978.508191 375.909812 
L 989.661698 375.909812 
L 989.661698 375.909812 
L 978.508191 375.909812 
z
" clip-path="url(#p07011b4aca)" style="fill: #4ecdc4; opacity: 0.7; stroke: #000000; stroke-width: 0.5; stroke-linejoin: miter"/>
   </g>
   <g id="patch_68">
    <path d="M 992.450075 375.909812 
L 1003.603582 375.909812 
L 1003.603582 375.909812 
L 992.450075 375.909812 
z
" clip-path="url(#p07011b4aca)" style="fill: #4ecdc4; opacity: 0.7; stroke: #000000; stroke-width: 0.5; stroke-linejoin: miter"/>
   </g>
   <g id="patch_69">
    <path d="M 1006.391959 375.909812 
L 1017.545466 375.909812 
L 1017.545466 375.909812 
L 1006.391959 375.909812 
z
" clip-path="url(#p07011b4aca)" style="fill: #4ecdc4; opacity: 0.7; stroke: #000000; stroke-width: 0.5; stroke-linejoin: miter"/>
   </g>
   <g id="patch_70">
    <path d="M 1020.333843 375.909812 
L 1031.48735 375.909812 
L 1031.48735 375.909812 
L 1020.333843 375.909812 
z
" clip-path="url(#p07011b4aca)" style="fill: #4ecdc4; opacity: 0.7; stroke: #000000; stroke-width: 0.5; stroke-linejoin: miter"/>
   </g>
   <g id="patch_71">
    <path d="M 1034.275727 375.909812 
L 1045.429234 375.909812 
L 1045.429234 375.909812 
L 1034.275727 375.909812 
z
" clip-path="url(#p07011b4aca)" style="fill: #4ecdc4; opacity: 0.7; stroke: #000000; stroke-width: 0.5; stroke-linejoin: miter"/>
   </g>
   <g id="patch_72">
    <path d="M 1048.217611 375.909812 
L 1059.371118 375.909812 
L 1059.371118 375.909812 
L 1048.217611 375.909812 
z
" clip-path="url(#p07011b4aca)" style="fill: #4ecdc4; opacity: 0.7; stroke: #000000; stroke-width: 0.5; stroke-linejoin: miter"/>
   </g>
   <g id="patch_73">
    <path d="M 1062.159495 375.909812 
L 1073.313002 375.909812 
L 1073.313002 375.909812 
L 1062.159495 375.909812 
z
" clip-path="url(#p07011b4aca)" style="fill: #4ecdc4; opacity: 0.7; stroke: #000000; stroke-width: 0.5; stroke-linejoin: miter"/>
   </g>
   <g id="patch_74">
    <path d="M 1076.101379 375.909812 
L 1087.254886 375.909812 
L 1087.254886 375.909812 
L 1076.101379 375.909812 
z
" clip-path="url(#p07011b4aca)" style="fill: #4ecdc4; opacity: 0.7; stroke: #000000; stroke-width: 0.5; stroke-linejoin: miter"/>
   </g>
   <g id="patch_75">
    <path d="M 86.227614 375.909812 
L 97.381121 375.909812 
L 97.381121 375.909812 
L 86.227614 375.909812 
z
" clip-path="url(#p07011b4aca)" style="fill: #ff6b6b; opacity: 0.8; stroke: #000000; stroke-width: 0.5; stroke-linejoin: miter"/>
   </g>
   <g id="patch_76">
    <path d="M 100.169498 375.909812 
L 111.323005 375.909812 
L 111.323005 375.909812 
L 100.169498 375.909812 
z
" clip-path="url(#p07011b4aca)" style="fill: #ff6b6b; opacity: 0.8; stroke: #000000; stroke-width: 0.5; stroke-linejoin: miter"/>
   </g>
   <g id="patch_77">
    <path d="M 114.111382 375.909812 
L 125.264889 375.909812 
L 125.264889 375.909812 
L 114.111382 375.909812 
z
" clip-path="url(#p07011b4aca)" style="fill: #ff6b6b; opacity: 0.8; stroke: #000000; stroke-width: 0.5; stroke-linejoin: miter"/>
   </g>
   <g id="patch_78">
    <path d="M 128.053266 375.909812 
L 139.206773 375.909812 
L 139.206773 375.909812 
L 128.053266 375.909812 
z
" clip-path="url(#p07011b4aca)" style="fill: #ff6b6b; opacity: 0.8; stroke: #000000; stroke-width: 0.5; stroke-linejoin: miter"/>
   </g>
   <g id="patch_79">
    <path d="M 141.99515 375.909812 
L 153.148657 375.909812 
L 153.148657 375.909812 
L 141.99515 375.909812 
z
" clip-path="url(#p07011b4aca)" style="fill: #ff6b6b; opacity: 0.8; stroke: #000000; stroke-width: 0.5; stroke-linejoin: miter"/>
   </g>
   <g id="patch_80">
    <path d="M 155.937034 375.909812 
L 167.090541 375.909812 
L 167.090541 375.909812 
L 155.937034 375.909812 
z
" clip-path="url(#p07011b4aca)" style="fill: #ff6b6b; opacity: 0.8; stroke: #000000; stroke-width: 0.5; stroke-linejoin: miter"/>
   </g>
   <g id="patch_81">
    <path d="M 169.878918 375.909812 
L 181.032425 375.909812 
L 181.032425 375.909812 
L 169.878918 375.909812 
z
" clip-path="url(#p07011b4aca)" style="fill: #ff6b6b; opacity: 0.8; stroke: #000000; stroke-width: 0.5; stroke-linejoin: miter"/>
   </g>
   <g id="patch_82">
    <path d="M 183.820802 375.909812 
L 194.974309 375.909812 
L 194.974309 375.909812 
L 183.820802 375.909812 
z
" clip-path="url(#p07011b4aca)" style="fill: #ff6b6b; opacity: 0.8; stroke: #000000; stroke-width: 0.5; stroke-linejoin: miter"/>
   </g>
   <g id="patch_83">
    <path d="M 197.762686 375.909812 
L 208.916193 375.909812 
L 208.916193 375.909812 
L 197.762686 375.909812 
z
" clip-path="url(#p07011b4aca)" style="fill: #ff6b6b; opacity: 0.8; stroke: #000000; stroke-width: 0.5; stroke-linejoin: miter"/>
   </g>
   <g id="patch_84">
    <path d="M 211.70457 375.909812 
L 222.858077 375.909812 
L 222.858077 375.909812 
L 211.70457 375.909812 
z
" clip-path="url(#p07011b4aca)" style="fill: #ff6b6b; opacity: 0.8; stroke: #000000; stroke-width: 0.5; stroke-linejoin: miter"/>
   </g>
   <g id="patch_85">
    <path d="M 225.646454 375.909812 
L 236.799961 375.909812 
L 236.799961 375.909812 
L 225.646454 375.909812 
z
" clip-path="url(#p07011b4aca)" style="fill: #ff6b6b; opacity: 0.8; stroke: #000000; stroke-width: 0.5; stroke-linejoin: miter"/>
   </g>
   <g id="patch_86">
    <path d="M 239.588338 375.909812 
L 250.741845 375.909812 
L 250.741845 295.416479 
L 239.588338 295.416479 
z
" clip-path="url(#p07011b4aca)" style="fill: #ff6b6b; opacity: 0.8; stroke: #000000; stroke-width: 0.5; stroke-linejoin: miter"/>
   </g>
   <g id="patch_87">
    <path d="M 253.530222 375.909812 
L 264.683729 375.909812 
L 264.683729 335.663146 
L 253.530222 335.663146 
z
" clip-path="url(#p07011b4aca)" style="fill: #ff6b6b; opacity: 0.8; stroke: #000000; stroke-width: 0.5; stroke-linejoin: miter"/>
   </g>
   <g id="patch_88">
    <path d="M 267.472106 375.909812 
L 278.625613 375.909812 
L 278.625613 335.663146 
L 267.472106 335.663146 
z
" clip-path="url(#p07011b4aca)" style="fill: #ff6b6b; opacity: 0.8; stroke: #000000; stroke-width: 0.5; stroke-linejoin: miter"/>
   </g>
   <g id="patch_89">
    <path d="M 281.41399 375.909812 
L 292.567497 375.909812 
L 292.567497 335.663146 
L 281.41399 335.663146 
z
" clip-path="url(#p07011b4aca)" style="fill: #ff6b6b; opacity: 0.8; stroke: #000000; stroke-width: 0.5; stroke-linejoin: miter"/>
   </g>
   <g id="patch_90">
    <path d="M 295.355874 375.909812 
L 306.509381 375.909812 
L 306.509381 295.416479 
L 295.355874 295.416479 
z
" clip-path="url(#p07011b4aca)" style="fill: #ff6b6b; opacity: 0.8; stroke: #000000; stroke-width: 0.5; stroke-linejoin: miter"/>
   </g>
   <g id="patch_91">
    <path d="M 309.297758 375.909812 
L 320.451265 375.909812 
L 320.451265 335.663146 
L 309.297758 335.663146 
z
" clip-path="url(#p07011b4aca)" style="fill: #ff6b6b; opacity: 0.8; stroke: #000000; stroke-width: 0.5; stroke-linejoin: miter"/>
   </g>
   <g id="patch_92">
    <path d="M 323.239642 375.909812 
L 334.393149 375.909812 
L 334.393149 255.169812 
L 323.239642 255.169812 
z
" clip-path="url(#p07011b4aca)" style="fill: #ff6b6b; opacity: 0.8; stroke: #000000; stroke-width: 0.5; stroke-linejoin: miter"/>
   </g>
   <g id="patch_93">
    <path d="M 337.181526 375.909812 
L 348.335033 375.909812 
L 348.335033 295.416479 
L 337.181526 295.416479 
z
" clip-path="url(#p07011b4aca)" style="fill: #ff6b6b; opacity: 0.8; stroke: #000000; stroke-width: 0.5; stroke-linejoin: miter"/>
   </g>
   <g id="patch_94">
    <path d="M 351.12341 375.909812 
L 362.276917 375.909812 
L 362.276917 295.416479 
L 351.12341 295.416479 
z
" clip-path="url(#p07011b4aca)" style="fill: #ff6b6b; opacity: 0.8; stroke: #000000; stroke-width: 0.5; stroke-linejoin: miter"/>
   </g>
   <g id="patch_95">
    <path d="M 365.065294 375.909812 
L 376.218801 375.909812 
L 376.218801 295.416479 
L 365.065294 295.416479 
z
" clip-path="url(#p07011b4aca)" style="fill: #ff6b6b; opacity: 0.8; stroke: #000000; stroke-width: 0.5; stroke-linejoin: miter"/>
   </g>
   <g id="patch_96">
    <path d="M 379.007178 375.909812 
L 390.160685 375.909812 
L 390.160685 295.416479 
L 379.007178 295.416479 
z
" clip-path="url(#p07011b4aca)" style="fill: #ff6b6b; opacity: 0.8; stroke: #000000; stroke-width: 0.5; stroke-linejoin: miter"/>
   </g>
   <g id="patch_97">
    <path d="M 392.949062 375.909812 
L 404.102569 375.909812 
L 404.102569 295.416479 
L 392.949062 295.416479 
z
" clip-path="url(#p07011b4aca)" style="fill: #ff6b6b; opacity: 0.8; stroke: #000000; stroke-width: 0.5; stroke-linejoin: miter"/>
   </g>
   <g id="patch_98">
    <path d="M 406.890946 375.909812 
L 418.044453 375.909812 
L 418.044453 295.416479 
L 406.890946 295.416479 
z
" clip-path="url(#p07011b4aca)" style="fill: #ff6b6b; opacity: 0.8; stroke: #000000; stroke-width: 0.5; stroke-linejoin: miter"/>
   </g>
   <g id="patch_99">
    <path d="M 420.83283 375.909812 
L 431.986337 375.909812 
L 431.986337 295.416479 
L 420.83283 295.416479 
z
" clip-path="url(#p07011b4aca)" style="fill: #ff6b6b; opacity: 0.8; stroke: #000000; stroke-width: 0.5; stroke-linejoin: miter"/>
   </g>
   <g id="patch_100">
    <path d="M 434.774714 375.909812 
L 445.928221 375.909812 
L 445.928221 255.169812 
L 434.774714 255.169812 
z
" clip-path="url(#p07011b4aca)" style="fill: #ff6b6b; opacity: 0.8; stroke: #000000; stroke-width: 0.5; stroke-linejoin: miter"/>
   </g>
   <g id="patch_101">
    <path d="M 448.716598 375.909812 
L 459.870105 375.909812 
L 459.870105 255.169812 
L 448.716598 255.169812 
z
" clip-path="url(#p07011b4aca)" style="fill: #ff6b6b; opacity: 0.8; stroke: #000000; stroke-width: 0.5; stroke-linejoin: miter"/>
   </g>
   <g id="patch_102">
    <path d="M 462.658482 375.909812 
L 473.811989 375.909812 
L 473.811989 335.663146 
L 462.658482 335.663146 
z
" clip-path="url(#p07011b4aca)" style="fill: #ff6b6b; opacity: 0.8; stroke: #000000; stroke-width: 0.5; stroke-linejoin: miter"/>
   </g>
   <g id="patch_103">
    <path d="M 476.600366 375.909812 
L 487.753873 375.909812 
L 487.753873 295.416479 
L 476.600366 295.416479 
z
" clip-path="url(#p07011b4aca)" style="fill: #ff6b6b; opacity: 0.8; stroke: #000000; stroke-width: 0.5; stroke-linejoin: miter"/>
   </g>
   <g id="patch_104">
    <path d="M 490.54225 375.909812 
L 501.695757 375.909812 
L 501.695757 255.169812 
L 490.54225 255.169812 
z
" clip-path="url(#p07011b4aca)" style="fill: #ff6b6b; opacity: 0.8; stroke: #000000; stroke-width: 0.5; stroke-linejoin: miter"/>
   </g>
   <g id="patch_105">
    <path d="M 504.484134 375.909812 
L 515.637641 375.909812 
L 515.637641 295.416479 
L 504.484134 295.416479 
z
" clip-path="url(#p07011b4aca)" style="fill: #ff6b6b; opacity: 0.8; stroke: #000000; stroke-width: 0.5; stroke-linejoin: miter"/>
   </g>
   <g id="patch_106">
    <path d="M 518.426018 375.909812 
L 529.579526 375.909812 
L 529.579526 255.169812 
L 518.426018 255.169812 
z
" clip-path="url(#p07011b4aca)" style="fill: #ff6b6b; opacity: 0.8; stroke: #000000; stroke-width: 0.5; stroke-linejoin: miter"/>
   </g>
   <g id="patch_107">
    <path d="M 532.367902 375.909812 
L 543.52141 375.909812 
L 543.52141 295.416479 
L 532.367902 295.416479 
z
" clip-path="url(#p07011b4aca)" style="fill: #ff6b6b; opacity: 0.8; stroke: #000000; stroke-width: 0.5; stroke-linejoin: miter"/>
   </g>
   <g id="patch_108">
    <path d="M 546.309786 375.909812 
L 557.463294 375.909812 
L 557.463294 335.663146 
L 546.309786 335.663146 
z
" clip-path="url(#p07011b4aca)" style="fill: #ff6b6b; opacity: 0.8; stroke: #000000; stroke-width: 0.5; stroke-linejoin: miter"/>
   </g>
   <g id="patch_109">
    <path d="M 560.25167 375.909812 
L 571.405178 375.909812 
L 571.405178 295.416479 
L 560.25167 295.416479 
z
" clip-path="url(#p07011b4aca)" style="fill: #ff6b6b; opacity: 0.8; stroke: #000000; stroke-width: 0.5; stroke-linejoin: miter"/>
   </g>
   <g id="patch_110">
    <path d="M 574.193554 375.909812 
L 585.347062 375.909812 
L 585.347062 335.663146 
L 574.193554 335.663146 
z
" clip-path="url(#p07011b4aca)" style="fill: #ff6b6b; opacity: 0.8; stroke: #000000; stroke-width: 0.5; stroke-linejoin: miter"/>
   </g>
   <g id="patch_111">
    <path d="M 588.135438 375.909812 
L 599.288946 375.909812 
L 599.288946 335.663146 
L 588.135438 335.663146 
z
" clip-path="url(#p07011b4aca)" style="fill: #ff6b6b; opacity: 0.8; stroke: #000000; stroke-width: 0.5; stroke-linejoin: miter"/>
   </g>
   <g id="patch_112">
    <path d="M 602.077322 375.909812 
L 613.23083 375.909812 
L 613.23083 335.663146 
L 602.077322 335.663146 
z
" clip-path="url(#p07011b4aca)" style="fill: #ff6b6b; opacity: 0.8; stroke: #000000; stroke-width: 0.5; stroke-linejoin: miter"/>
   </g>
   <g id="patch_113">
    <path d="M 616.019206 375.909812 
L 627.172714 375.909812 
L 627.172714 335.663146 
L 616.019206 335.663146 
z
" clip-path="url(#p07011b4aca)" style="fill: #ff6b6b; opacity: 0.8; stroke: #000000; stroke-width: 0.5; stroke-linejoin: miter"/>
   </g>
   <g id="patch_114">
    <path d="M 629.96109 375.909812 
L 641.114598 375.909812 
L 641.114598 375.909812 
L 629.96109 375.909812 
z
" clip-path="url(#p07011b4aca)" style="fill: #ff6b6b; opacity: 0.8; stroke: #000000; stroke-width: 0.5; stroke-linejoin: miter"/>
   </g>
   <g id="patch_115">
    <path d="M 643.902974 375.909812 
L 655.056482 375.909812 
L 655.056482 375.909812 
L 643.902974 375.909812 
z
" clip-path="url(#p07011b4aca)" style="fill: #ff6b6b; opacity: 0.8; stroke: #000000; stroke-width: 0.5; stroke-linejoin: miter"/>
   </g>
   <g id="patch_116">
    <path d="M 657.844859 375.909812 
L 668.998366 375.909812 
L 668.998366 375.909812 
L 657.844859 375.909812 
z
" clip-path="url(#p07011b4aca)" style="fill: #ff6b6b; opacity: 0.8; stroke: #000000; stroke-width: 0.5; stroke-linejoin: miter"/>
   </g>
   <g id="patch_117">
    <path d="M 671.786743 375.909812 
L 682.94025 375.909812 
L 682.94025 375.909812 
L 671.786743 375.909812 
z
" clip-path="url(#p07011b4aca)" style="fill: #ff6b6b; opacity: 0.8; stroke: #000000; stroke-width: 0.5; stroke-linejoin: miter"/>
   </g>
   <g id="patch_118">
    <path d="M 685.728627 375.909812 
L 696.882134 375.909812 
L 696.882134 375.909812 
L 685.728627 375.909812 
z
" clip-path="url(#p07011b4aca)" style="fill: #ff6b6b; opacity: 0.8; stroke: #000000; stroke-width: 0.5; stroke-linejoin: miter"/>
   </g>
   <g id="patch_119">
    <path d="M 699.670511 375.909812 
L 710.824018 375.909812 
L 710.824018 375.909812 
L 699.670511 375.909812 
z
" clip-path="url(#p07011b4aca)" style="fill: #ff6b6b; opacity: 0.8; stroke: #000000; stroke-width: 0.5; stroke-linejoin: miter"/>
   </g>
   <g id="patch_120">
    <path d="M 713.612395 375.909812 
L 724.765902 375.909812 
L 724.765902 375.909812 
L 713.612395 375.909812 
z
" clip-path="url(#p07011b4aca)" style="fill: #ff6b6b; opacity: 0.8; stroke: #000000; stroke-width: 0.5; stroke-linejoin: miter"/>
   </g>
   <g id="patch_121">
    <path d="M 727.554279 375.909812 
L 738.707786 375.909812 
L 738.707786 375.909812 
L 727.554279 375.909812 
z
" clip-path="url(#p07011b4aca)" style="fill: #ff6b6b; opacity: 0.8; stroke: #000000; stroke-width: 0.5; stroke-linejoin: miter"/>
   </g>
   <g id="patch_122">
    <path d="M 741.496163 375.909812 
L 752.64967 375.909812 
L 752.64967 375.909812 
L 741.496163 375.909812 
z
" clip-path="url(#p07011b4aca)" style="fill: #ff6b6b; opacity: 0.8; stroke: #000000; stroke-width: 0.5; stroke-linejoin: miter"/>
   </g>
   <g id="patch_123">
    <path d="M 755.438047 375.909812 
L 766.591554 375.909812 
L 766.591554 375.909812 
L 755.438047 375.909812 
z
" clip-path="url(#p07011b4aca)" style="fill: #ff6b6b; opacity: 0.8; stroke: #000000; stroke-width: 0.5; stroke-linejoin: miter"/>
   </g>
   <g id="patch_124">
    <path d="M 769.379931 375.909812 
L 780.533438 375.909812 
L 780.533438 375.909812 
L 769.379931 375.909812 
z
" clip-path="url(#p07011b4aca)" style="fill: #ff6b6b; opacity: 0.8; stroke: #000000; stroke-width: 0.5; stroke-linejoin: miter"/>
   </g>
   <g id="patch_125">
    <path d="M 783.321815 375.909812 
L 794.475322 375.909812 
L 794.475322 375.909812 
L 783.321815 375.909812 
z
" clip-path="url(#p07011b4aca)" style="fill: #ff6b6b; opacity: 0.8; stroke: #000000; stroke-width: 0.5; stroke-linejoin: miter"/>
   </g>
   <g id="patch_126">
    <path d="M 797.263699 375.909812 
L 808.417206 375.909812 
L 808.417206 375.909812 
L 797.263699 375.909812 
z
" clip-path="url(#p07011b4aca)" style="fill: #ff6b6b; opacity: 0.8; stroke: #000000; stroke-width: 0.5; stroke-linejoin: miter"/>
   </g>
   <g id="patch_127">
    <path d="M 811.205583 375.909812 
L 822.35909 375.909812 
L 822.35909 375.909812 
L 811.205583 375.909812 
z
" clip-path="url(#p07011b4aca)" style="fill: #ff6b6b; opacity: 0.8; stroke: #000000; stroke-width: 0.5; stroke-linejoin: miter"/>
   </g>
   <g id="patch_128">
    <path d="M 825.147467 375.909812 
L 836.300974 375.909812 
L 836.300974 375.909812 
L 825.147467 375.909812 
z
" clip-path="url(#p07011b4aca)" style="fill: #ff6b6b; opacity: 0.8; stroke: #000000; stroke-width: 0.5; stroke-linejoin: miter"/>
   </g>
   <g id="patch_129">
    <path d="M 839.089351 375.909812 
L 850.242858 375.909812 
L 850.242858 375.909812 
L 839.089351 375.909812 
z
" clip-path="url(#p07011b4aca)" style="fill: #ff6b6b; opacity: 0.8; stroke: #000000; stroke-width: 0.5; stroke-linejoin: miter"/>
   </g>
   <g id="patch_130">
    <path d="M 853.031235 375.909812 
L 864.184742 375.909812 
L 864.184742 375.909812 
L 853.031235 375.909812 
z
" clip-path="url(#p07011b4aca)" style="fill: #ff6b6b; opacity: 0.8; stroke: #000000; stroke-width: 0.5; stroke-linejoin: miter"/>
   </g>
   <g id="patch_131">
    <path d="M 866.973119 375.909812 
L 878.126626 375.909812 
L 878.126626 375.909812 
L 866.973119 375.909812 
z
" clip-path="url(#p07011b4aca)" style="fill: #ff6b6b; opacity: 0.8; stroke: #000000; stroke-width: 0.5; stroke-linejoin: miter"/>
   </g>
   <g id="patch_132">
    <path d="M 880.915003 375.909812 
L 892.06851 375.909812 
L 892.06851 375.909812 
L 880.915003 375.909812 
z
" clip-path="url(#p07011b4aca)" style="fill: #ff6b6b; opacity: 0.8; stroke: #000000; stroke-width: 0.5; stroke-linejoin: miter"/>
   </g>
   <g id="patch_133">
    <path d="M 894.856887 375.909812 
L 906.010394 375.909812 
L 906.010394 375.909812 
L 894.856887 375.909812 
z
" clip-path="url(#p07011b4aca)" style="fill: #ff6b6b; opacity: 0.8; stroke: #000000; stroke-width: 0.5; stroke-linejoin: miter"/>
   </g>
   <g id="patch_134">
    <path d="M 908.798771 375.909812 
L 919.952278 375.909812 
L 919.952278 375.909812 
L 908.798771 375.909812 
z
" clip-path="url(#p07011b4aca)" style="fill: #ff6b6b; opacity: 0.8; stroke: #000000; stroke-width: 0.5; stroke-linejoin: miter"/>
   </g>
   <g id="patch_135">
    <path d="M 922.740655 375.909812 
L 933.894162 375.909812 
L 933.894162 375.909812 
L 922.740655 375.909812 
z
" clip-path="url(#p07011b4aca)" style="fill: #ff6b6b; opacity: 0.8; stroke: #000000; stroke-width: 0.5; stroke-linejoin: miter"/>
   </g>
   <g id="patch_136">
    <path d="M 936.682539 375.909812 
L 947.836046 375.909812 
L 947.836046 375.909812 
L 936.682539 375.909812 
z
" clip-path="url(#p07011b4aca)" style="fill: #ff6b6b; opacity: 0.8; stroke: #000000; stroke-width: 0.5; stroke-linejoin: miter"/>
   </g>
   <g id="patch_137">
    <path d="M 950.624423 375.909812 
L 961.77793 375.909812 
L 961.77793 375.909812 
L 950.624423 375.909812 
z
" clip-path="url(#p07011b4aca)" style="fill: #ff6b6b; opacity: 0.8; stroke: #000000; stroke-width: 0.5; stroke-linejoin: miter"/>
   </g>
   <g id="patch_138">
    <path d="M 964.566307 375.909812 
L 975.719814 375.909812 
L 975.719814 375.909812 
L 964.566307 375.909812 
z
" clip-path="url(#p07011b4aca)" style="fill: #ff6b6b; opacity: 0.8; stroke: #000000; stroke-width: 0.5; stroke-linejoin: miter"/>
   </g>
   <g id="patch_139">
    <path d="M 978.508191 375.909812 
L 989.661698 375.909812 
L 989.661698 375.909812 
L 978.508191 375.909812 
z
" clip-path="url(#p07011b4aca)" style="fill: #ff6b6b; opacity: 0.8; stroke: #000000; stroke-width: 0.5; stroke-linejoin: miter"/>
   </g>
   <g id="patch_140">
    <path d="M 992.450075 375.909812 
L 1003.603582 375.909812 
L 1003.603582 375.909812 
L 992.450075 375.909812 
z
" clip-path="url(#p07011b4aca)" style="fill: #ff6b6b; opacity: 0.8; stroke: #000000; stroke-width: 0.5; stroke-linejoin: miter"/>
   </g>
   <g id="patch_141">
    <path d="M 1006.391959 375.909812 
L 1017.545466 375.909812 
L 1017.545466 375.909812 
L 1006.391959 375.909812 
z
" clip-path="url(#p07011b4aca)" style="fill: #ff6b6b; opacity: 0.8; stroke: #000000; stroke-width: 0.5; stroke-linejoin: miter"/>
   </g>
   <g id="patch_142">
    <path d="M 1020.333843 375.909812 
L 1031.48735 375.909812 
L 1031.48735 375.909812 
L 1020.333843 375.909812 
z
" clip-path="url(#p07011b4aca)" style="fill: #ff6b6b; opacity: 0.8; stroke: #000000; stroke-width: 0.5; stroke-linejoin: miter"/>
   </g>
   <g id="patch_143">
    <path d="M 1034.275727 375.909812 
L 1045.429234 375.909812 
L 1045.429234 375.909812 
L 1034.275727 375.909812 
z
" clip-path="url(#p07011b4aca)" style="fill: #ff6b6b; opacity: 0.8; stroke: #000000; stroke-width: 0.5; stroke-linejoin: miter"/>
   </g>
   <g id="patch_144">
    <path d="M 1048.217611 375.909812 
L 1059.371118 375.909812 
L 1059.371118 375.909812 
L 1048.217611 375.909812 
z
" clip-path="url(#p07011b4aca)" style="fill: #ff6b6b; opacity: 0.8; stroke: #000000; stroke-width: 0.5; stroke-linejoin: miter"/>
   </g>
   <g id="patch_145">
    <path d="M 1062.159495 375.909812 
L 1073.313002 375.909812 
L 1073.313002 375.909812 
L 1062.159495 375.909812 
z
" clip-path="url(#p07011b4aca)" style="fill: #ff6b6b; opacity: 0.8; stroke: #000000; stroke-width: 0.5; stroke-linejoin: miter"/>
   </g>
   <g id="patch_146">
    <path d="M 1076.101379 375.909812 
L 1087.254886 375.909812 
L 1087.254886 375.909812 
L 1076.101379 375.909812 
z
" clip-path="url(#p07011b4aca)" style="fill: #ff6b6b; opacity: 0.8; stroke: #000000; stroke-width: 0.5; stroke-linejoin: miter"/>
   </g>
   <g id="line2d_31">
    <path d="M 419.438642 375.909812 
L 419.438642 37.837812 
" clip-path="url(#p07011b4aca)" style="fill: none; stroke: #000000; stroke-opacity: 0.7; stroke-width: 2; stroke-linecap: square"/>
   </g>
   <g id="line2d_32">
    <path d="M 754.043858 375.909812 
L 754.043858 37.837812 
" clip-path="url(#p07011b4aca)" style="fill: none; stroke: #000000; stroke-opacity: 0.7; stroke-width: 2; stroke-linecap: square"/>
   </g>
   <g id="patch_147">
    <path d="M 36.17625 375.909812 
L 36.17625 37.837812 
" style="fill: none; stroke: #000000; stroke-width: 0.8; stroke-linejoin: miter; stroke-linecap: square"/>
   </g>
   <g id="patch_148">
    <path d="M 1137.30625 375.909812 
L 1137.30625 37.837812 
" style="fill: none; stroke: #000000; stroke-width: 0.8; stroke-linejoin: miter; stroke-linecap: square"/>
   </g>
   <g id="patch_149">
    <path d="M 36.17625 375.909812 
L 1137.30625 375.909812 
" style="fill: none; stroke: #000000; stroke-width: 0.8; stroke-linejoin: miter; stroke-linecap: square"/>
   </g>
   <g id="patch_150">
    <path d="M 36.17625 37.837812 
L 1137.30625 37.837812 
" style="fill: none; stroke: #000000; stroke-width: 0.8; stroke-linejoin: miter; stroke-linecap: square"/>
   </g>
   <g id="text_24">
    <!-- June Solstice Distribution by Day and Hour (1900-2100 with 2025-2075 Overlay) -->
    <g transform="translate(271.1025 17.837812) scale(0.14 -0.14)">
     <defs>
      <path id="DejaVuSans-Bold-53" d="M 3834 4519 
L 3834 3531 
Q 3450 3703 3084 3790 
Q 2719 3878 2394 3878 
Q 1963 3878 1756 3759 
Q 1550 3641 1550 3391 
Q 1550 3203 1689 3098 
Q 1828 2994 2194 2919 
L 2706 2816 
Q 3484 2659 3812 2340 
Q 4141 2022 4141 1434 
Q 4141 663 3683 286 
Q 3225 -91 2284 -91 
Q 1841 -91 1394 -6 
Q 947 78 500 244 
L 500 1259 
Q 947 1022 1364 901 
Q 1781 781 2169 781 
Q 2563 781 2772 912 
Q 2981 1044 2981 1288 
Q 2981 1506 2839 1625 
Q 2697 1744 2272 1838 
L 1806 1941 
Q 1106 2091 782 2419 
Q 459 2747 459 3303 
Q 459 4000 909 4375 
Q 1359 4750 2203 4750 
Q 2588 4750 2994 4692 
Q 3400 4634 3834 4519 
z
" transform="scale(0.015625)"/>
      <path id="DejaVuSans-Bold-6c" d="M 538 4863 
L 1656 4863 
L 1656 0 
L 538 0 
L 538 4863 
z
" transform="scale(0.015625)"/>
      <path id="DejaVuSans-Bold-74" d="M 1759 4494 
L 1759 3500 
L 2913 3500 
L 2913 2700 
L 1759 2700 
L 1759 1216 
Q 1759 972 1856 886 
Q 1953 800 2241 800 
L 2816 800 
L 2816 0 
L 1856 0 
Q 1194 0 917 276 
Q 641 553 641 1216 
L 641 2700 
L 84 2700 
L 84 3500 
L 641 3500 
L 641 4494 
L 1759 4494 
z
" transform="scale(0.015625)"/>
      <path id="DejaVuSans-Bold-69" d="M 538 3500 
L 1656 3500 
L 1656 0 
L 538 0 
L 538 3500 
z
M 538 4863 
L 1656 4863 
L 1656 3950 
L 538 3950 
L 538 4863 
z
" transform="scale(0.015625)"/>
      <path id="DejaVuSans-Bold-64" d="M 2919 2988 
L 2919 4863 
L 4044 4863 
L 4044 0 
L 2919 0 
L 2919 506 
Q 2688 197 2409 53 
Q 2131 -91 1766 -91 
Q 1119 -91 703 423 
Q 288 938 288 1747 
Q 288 2556 703 3070 
Q 1119 3584 1766 3584 
Q 2128 3584 2408 3439 
Q 2688 3294 2919 2988 
z
M 2181 722 
Q 2541 722 2730 984 
Q 2919 1247 2919 1747 
Q 2919 2247 2730 2509 
Q 2541 2772 2181 2772 
Q 1825 2772 1636 2509 
Q 1447 2247 1447 1747 
Q 1447 1247 1636 984 
Q 1825 722 2181 722 
z
" transform="scale(0.015625)"/>
      <path id="DejaVuSans-Bold-31" d="M 750 831 
L 1813 831 
L 1813 3847 
L 722 3622 
L 722 4441 
L 1806 4666 
L 2950 4666 
L 2950 831 
L 4013 831 
L 4013 0 
L 750 0 
L 750 831 
z
" transform="scale(0.015625)"/>
      <path id="DejaVuSans-Bold-39" d="M 641 103 
L 641 966 
Q 928 831 1190 764 
Q 1453 697 1709 697 
Q 2247 697 2547 995 
Q 2847 1294 2900 1881 
Q 2688 1725 2447 1647 
Q 2206 1569 1925 1569 
Q 1209 1569 770 1986 
Q 331 2403 331 3084 
Q 331 3838 820 4291 
Q 1309 4744 2131 4744 
Q 3044 4744 3544 4128 
Q 4044 3513 4044 2388 
Q 4044 1231 3459 570 
Q 2875 -91 1856 -91 
Q 1528 -91 1228 -42 
Q 928 6 641 103 
z
M 2125 2350 
Q 2441 2350 2600 2554 
Q 2759 2759 2759 3169 
Q 2759 3575 2600 3781 
Q 2441 3988 2125 3988 
Q 1809 3988 1650 3781 
Q 1491 3575 1491 3169 
Q 1491 2759 1650 2554 
Q 1809 2350 2125 2350 
z
" transform="scale(0.015625)"/>
      <path id="DejaVuSans-Bold-30" d="M 2944 2338 
Q 2944 3213 2780 3570 
Q 2616 3928 2228 3928 
Q 1841 3928 1675 3570 
Q 1509 3213 1509 2338 
Q 1509 1453 1675 1090 
Q 1841 728 2228 728 
Q 2613 728 2778 1090 
Q 2944 1453 2944 2338 
z
M 4147 2328 
Q 4147 1169 3647 539 
Q 3147 -91 2228 -91 
Q 1306 -91 806 539 
Q 306 1169 306 2328 
Q 306 3491 806 4120 
Q 1306 4750 2228 4750 
Q 3147 4750 3647 4120 
Q 4147 3491 4147 2328 
z
" transform="scale(0.015625)"/>
      <path id="DejaVuSans-Bold-2d" d="M 347 2297 
L 2309 2297 
L 2309 1388 
L 347 1388 
L 347 2297 
z
" transform="scale(0.015625)"/>
      <path id="DejaVuSans-Bold-32" d="M 1844 884 
L 3897 884 
L 3897 0 
L 506 0 
L 506 884 
L 2209 2388 
Q 2438 2594 2547 2791 
Q 2656 2988 2656 3200 
Q 2656 3528 2436 3728 
Q 2216 3928 1850 3928 
Q 1569 3928 1234 3808 
Q 900 3688 519 3450 
L 519 4475 
Q 925 4609 1322 4679 
Q 1719 4750 2100 4750 
Q 2938 4750 3402 4381 
Q 3866 4013 3866 3353 
Q 3866 2972 3669 2642 
Q 3472 2313 2841 1759 
L 1844 884 
z
" transform="scale(0.015625)"/>
      <path id="DejaVuSans-Bold-77" d="M 225 3500 
L 1313 3500 
L 1900 1088 
L 2491 3500 
L 3425 3500 
L 4013 1113 
L 4603 3500 
L 5691 3500 
L 4769 0 
L 3547 0 
L 2956 2406 
L 2369 0 
L 1147 0 
L 225 3500 
z
" transform="scale(0.015625)"/>
      <path id="DejaVuSans-Bold-68" d="M 4056 2131 
L 4056 0 
L 2931 0 
L 2931 347 
L 2931 1625 
Q 2931 2084 2911 2256 
Q 2891 2428 2841 2509 
Q 2775 2619 2662 2680 
Q 2550 2741 2406 2741 
Q 2056 2741 1856 2470 
Q 1656 2200 1656 1722 
L 1656 0 
L 538 0 
L 538 4863 
L 1656 4863 
L 1656 2988 
Q 1909 3294 2193 3439 
Q 2478 3584 2822 3584 
Q 3428 3584 3742 3212 
Q 4056 2841 4056 2131 
z
" transform="scale(0.015625)"/>
      <path id="DejaVuSans-Bold-35" d="M 678 4666 
L 3669 4666 
L 3669 3781 
L 1638 3781 
L 1638 3059 
Q 1775 3097 1914 3117 
Q 2053 3138 2203 3138 
Q 3056 3138 3531 2711 
Q 4006 2284 4006 1522 
Q 4006 766 3489 337 
Q 2972 -91 2053 -91 
Q 1656 -91 1267 -14 
Q 878 63 494 219 
L 494 1166 
Q 875 947 1217 837 
Q 1559 728 1863 728 
Q 2300 728 2551 942 
Q 2803 1156 2803 1522 
Q 2803 1891 2551 2103 
Q 2300 2316 1863 2316 
Q 1603 2316 1309 2248 
Q 1016 2181 678 2041 
L 678 4666 
z
" transform="scale(0.015625)"/>
      <path id="DejaVuSans-Bold-37" d="M 428 4666 
L 3944 4666 
L 3944 3988 
L 2125 0 
L 953 0 
L 2675 3781 
L 428 3781 
L 428 4666 
z
" transform="scale(0.015625)"/>
      <path id="DejaVuSans-Bold-76" d="M 97 3500 
L 1216 3500 
L 2088 1081 
L 2956 3500 
L 4078 3500 
L 2700 0 
L 1472 0 
L 97 3500 
z
" transform="scale(0.015625)"/>
     </defs>
     <use xlink:href="#DejaVuSans-Bold-4a"/>
     <use xlink:href="#DejaVuSans-Bold-75" transform="translate(37.207031 0)"/>
     <use xlink:href="#DejaVuSans-Bold-6e" transform="translate(108.398438 0)"/>
     <use xlink:href="#DejaVuSans-Bold-65" transform="translate(179.589844 0)"/>
     <use xlink:href="#DejaVuSans-Bold-20" transform="translate(247.412109 0)"/>
     <use xlink:href="#DejaVuSans-Bold-53" transform="translate(282.226562 0)"/>
     <use xlink:href="#DejaVuSans-Bold-6f" transform="translate(354.248047 0)"/>
     <use xlink:href="#DejaVuSans-Bold-6c" transform="translate(422.949219 0)"/>
     <use xlink:href="#DejaVuSans-Bold-73" transform="translate(457.226562 0)"/>
     <use xlink:href="#DejaVuSans-Bold-74" transform="translate(516.748047 0)"/>
     <use xlink:href="#DejaVuSans-Bold-69" transform="translate(564.550781 0)"/>
     <use xlink:href="#DejaVuSans-Bold-63" transform="translate(598.828125 0)"/>
     <use xlink:href="#DejaVuSans-Bold-65" transform="translate(658.105469 0)"/>
     <use xlink:href="#DejaVuSans-Bold-20" transform="translate(725.927734 0)"/>
     <use xlink:href="#DejaVuSans-Bold-44" transform="translate(760.742188 0)"/>
     <use xlink:href="#DejaVuSans-Bold-69" transform="translate(843.75 0)"/>
     <use xlink:href="#DejaVuSans-Bold-73" transform="translate(878.027344 0)"/>
     <use xlink:href="#DejaVuSans-Bold-74" transform="translate(937.548828 0)"/>
     <use xlink:href="#DejaVuSans-Bold-72" transform="translate(985.351562 0)"/>
     <use xlink:href="#DejaVuSans-Bold-69" transform="translate(1034.667969 0)"/>
     <use xlink:href="#DejaVuSans-Bold-62" transform="translate(1068.945312 0)"/>
     <use xlink:href="#DejaVuSans-Bold-75" transform="translate(1140.527344 0)"/>
     <use xlink:href="#DejaVuSans-Bold-74" transform="translate(1211.71875 0)"/>
     <use xlink:href="#DejaVuSans-Bold-69" transform="translate(1259.521484 0)"/>
     <use xlink:href="#DejaVuSans-Bold-6f" transform="translate(1293.798828 0)"/>
     <use xlink:href="#DejaVuSans-Bold-6e" transform="translate(1362.5 0)"/>
     <use xlink:href="#DejaVuSans-Bold-20" transform="translate(1433.691406 0)"/>
     <use xlink:href="#DejaVuSans-Bold-62" transform="translate(1468.505859 0)"/>
     <use xlink:href="#DejaVuSans-Bold-79" transform="translate(1540.087891 0)"/>
     <use xlink:href="#DejaVuSans-Bold-20" transform="translate(1605.273438 0)"/>
     <use xlink:href="#DejaVuSans-Bold-44" transform="translate(1640.087891 0)"/>
     <use xlink:href="#DejaVuSans-Bold-61" transform="translate(1723.095703 0)"/>
     <use xlink:href="#DejaVuSans-Bold-79" transform="translate(1787.451172 0)"/>
     <use xlink:href="#DejaVuSans-Bold-20" transform="translate(1852.636719 0)"/>
     <use xlink:href="#DejaVuSans-Bold-61" transform="translate(1887.451172 0)"/>
     <use xlink:href="#DejaVuSans-Bold-6e" transform="translate(1954.931641 0)"/>
     <use xlink:href="#DejaVuSans-Bold-64" transform="translate(2026.123047 0)"/>
     <use xlink:href="#DejaVuSans-Bold-20" transform="translate(2097.705078 0)"/>
     <use xlink:href="#DejaVuSans-Bold-48" transform="translate(2132.519531 0)"/>
     <use xlink:href="#DejaVuSans-Bold-6f" transform="translate(2216.210938 0)"/>
     <use xlink:href="#DejaVuSans-Bold-75" transform="translate(2284.912109 0)"/>
     <use xlink:href="#DejaVuSans-Bold-72" transform="translate(2356.103516 0)"/>
     <use xlink:href="#DejaVuSans-Bold-20" transform="translate(2405.419922 0)"/>
     <use xlink:href="#DejaVuSans-Bold-28" transform="translate(2440.234375 0)"/>
     <use xlink:href="#DejaVuSans-Bold-31" transform="translate(2485.9375 0)"/>
     <use xlink:href="#DejaVuSans-Bold-39" transform="translate(2555.517578 0)"/>
     <use xlink:href="#DejaVuSans-Bold-30" transform="translate(2625.097656 0)"/>
     <use xlink:href="#DejaVuSans-Bold-30" transform="translate(2694.677734 0)"/>
     <use xlink:href="#DejaVuSans-Bold-2d" transform="translate(2764.257812 0)"/>
     <use xlink:href="#DejaVuSans-Bold-32" transform="translate(2805.761719 0)"/>
     <use xlink:href="#DejaVuSans-Bold-31" transform="translate(2875.341797 0)"/>
     <use xlink:href="#DejaVuSans-Bold-30" transform="translate(2944.921875 0)"/>
     <use xlink:href="#DejaVuSans-Bold-30" transform="translate(3014.501953 0)"/>
     <use xlink:href="#DejaVuSans-Bold-20" transform="translate(3084.082031 0)"/>
     <use xlink:href="#DejaVuSans-Bold-77" transform="translate(3118.896484 0)"/>
     <use xlink:href="#DejaVuSans-Bold-69" transform="translate(3211.279297 0)"/>
     <use xlink:href="#DejaVuSans-Bold-74" transform="translate(3245.556641 0)"/>
     <use xlink:href="#DejaVuSans-Bold-68" transform="translate(3293.359375 0)"/>
     <use xlink:href="#DejaVuSans-Bold-20" transform="translate(3364.550781 0)"/>
     <use xlink:href="#DejaVuSans-Bold-32" transform="translate(3399.365234 0)"/>
     <use xlink:href="#DejaVuSans-Bold-30" transform="translate(3468.945312 0)"/>
     <use xlink:href="#DejaVuSans-Bold-32" transform="translate(3538.525391 0)"/>
     <use xlink:href="#DejaVuSans-Bold-35" transform="translate(3608.105469 0)"/>
     <use xlink:href="#DejaVuSans-Bold-2d" transform="translate(3677.685547 0)"/>
     <use xlink:href="#DejaVuSans-Bold-32" transform="translate(3719.189453 0)"/>
     <use xlink:href="#DejaVuSans-Bold-30" transform="translate(3788.769531 0)"/>
     <use xlink:href="#DejaVuSans-Bold-37" transform="translate(3858.349609 0)"/>
     <use xlink:href="#DejaVuSans-Bold-35" transform="translate(3927.929688 0)"/>
     <use xlink:href="#DejaVuSans-Bold-20" transform="translate(3997.509766 0)"/>
     <use xlink:href="#DejaVuSans-Bold-4f" transform="translate(4032.324219 0)"/>
     <use xlink:href="#DejaVuSans-Bold-76" transform="translate(4117.333984 0)"/>
     <use xlink:href="#DejaVuSans-Bold-65" transform="translate(4182.519531 0)"/>
     <use xlink:href="#DejaVuSans-Bold-72" transform="translate(4250.341797 0)"/>
     <use xlink:href="#DejaVuSans-Bold-6c" transform="translate(4299.658203 0)"/>
     <use xlink:href="#DejaVuSans-Bold-61" transform="translate(4333.935547 0)"/>
     <use xlink:href="#DejaVuSans-Bold-79" transform="translate(4398.291016 0)"/>
     <use xlink:href="#DejaVuSans-Bold-29" transform="translate(4463.476562 0)"/>
    </g>
   </g>
   <g id="legend_1">
    <g id="patch_151">
     <path d="M 1043.798438 75.194062 
L 1130.30625 75.194062 
Q 1132.30625 75.194062 1132.30625 73.194062 
L 1132.30625 44.837812 
Q 1132.30625 42.837812 1130.30625 42.837812 
L 1043.798438 42.837812 
Q 1041.798438 42.837812 1041.798438 44.837812 
L 1041.798438 73.194062 
Q 1041.798438 75.194062 1043.798438 75.194062 
z
" style="fill: #ffffff; opacity: 0.8; stroke: #cccccc; stroke-linejoin: miter"/>
    </g>
    <g id="patch_152">
     <path d="M 1045.798438 54.43625 
L 1065.798438 54.43625 
L 1065.798438 47.43625 
L 1045.798438 47.43625 
z
" style="fill: #4ecdc4; opacity: 0.7; stroke: #000000; stroke-width: 0.5; stroke-linejoin: miter"/>
    </g>
    <g id="text_25">
     <!-- 1900-2100 -->
     <g transform="translate(1073.798438 54.43625) scale(0.1 -0.1)">
      <defs>
       <path id="DejaVuSans-39" d="M 703 97 
L 703 672 
Q 941 559 1184 500 
Q 1428 441 1663 441 
Q 2288 441 2617 861 
Q 2947 1281 2994 2138 
Q 2813 1869 2534 1725 
Q 2256 1581 1919 1581 
Q 1219 1581 811 2004 
Q 403 2428 403 3163 
Q 403 3881 828 4315 
Q 1253 4750 1959 4750 
Q 2769 4750 3195 4129 
Q 3622 3509 3622 2328 
Q 3622 1225 3098 567 
Q 2575 -91 1691 -91 
Q 1453 -91 1209 -44 
Q 966 3 703 97 
z
M 1959 2075 
Q 2384 2075 2632 2365 
Q 2881 2656 2881 3163 
Q 2881 3666 2632 3958 
Q 2384 4250 1959 4250 
Q 1534 4250 1286 3958 
Q 1038 3666 1038 3163 
Q 1038 2656 1286 2365 
Q 1534 2075 1959 2075 
z
" transform="scale(0.015625)"/>
       <path id="DejaVuSans-2d" d="M 313 2009 
L 1997 2009 
L 1997 1497 
L 313 1497 
L 313 2009 
z
" transform="scale(0.015625)"/>
      </defs>
      <use xlink:href="#DejaVuSans-31"/>
      <use xlink:href="#DejaVuSans-39" transform="translate(63.623047 0)"/>
      <use xlink:href="#DejaVuSans-30" transform="translate(127.246094 0)"/>
      <use xlink:href="#DejaVuSans-30" transform="translate(190.869141 0)"/>
      <use xlink:href="#DejaVuSans-2d" transform="translate(254.492188 0)"/>
      <use xlink:href="#DejaVuSans-32" transform="translate(290.576172 0)"/>
      <use xlink:href="#DejaVuSans-31" transform="translate(354.199219 0)"/>
      <use xlink:href="#DejaVuSans-30" transform="translate(417.822266 0)"/>
      <use xlink:href="#DejaVuSans-30" transform="translate(481.445312 0)"/>
     </g>
    </g>
    <g id="patch_153">
     <path d="M 1045.798438 69.114375 
L 1065.798438 69.114375 
L 1065.798438 62.114375 
L 1045.798438 62.114375 
z
" style="fill: #ff6b6b; opacity: 0.8; stroke: #000000; stroke-width: 0.5; stroke-linejoin: miter"/>
    </g>
    <g id="text_26">
     <!-- 2025-2075 -->
     <g transform="translate(1073.798438 69.114375) scale(0.1 -0.1)">
      <use xlink:href="#DejaVuSans-32"/>
      <use xlink:href="#DejaVuSans-30" transform="translate(63.623047 0)"/>
      <use xlink:href="#DejaVuSans-32" transform="translate(127.246094 0)"/>
      <use xlink:href="#DejaVuSans-35" transform="translate(190.869141 0)"/>
      <use xlink:href="#DejaVuSans-2d" transform="translate(254.492188 0)"/>
      <use xlink:href="#DejaVuSans-32" transform="translate(290.576172 0)"/>
      <use xlink:href="#DejaVuSans-30" transform="translate(354.199219 0)"/>
      <use xlink:href="#DejaVuSans-37" transform="translate(417.822266 0)"/>
      <use xlink:href="#DejaVuSans-35" transform="translate(481.445312 0)"/>
     </g>
    </g>
   </g>
  </g>
 </g>
 <defs>
  <clipPath id="p07011b4aca">
   <rect x="36.17625" y="37.837812" width="1101.13" height="338.072"/>
  </clipPath>
 </defs>
</svg>
