<?xml version="1.0" encoding="utf-8" standalone="no"?>
<!DOCTYPE svg PUBLIC "-//W3C//DTD SVG 1.1//EN"
  "http://www.w3.org/Graphics/SVG/1.1/DTD/svg11.dtd">
<svg xmlns:xlink="http://www.w3.org/1999/xlink" width="1144.50625pt" height="424.605656pt" viewBox="0 0 1144.50625 424.605656" xmlns="http://www.w3.org/2000/svg" version="1.1">
 <metadata>
  <rdf:RDF xmlns:dc="http://purl.org/dc/elements/1.1/" xmlns:cc="http://creativecommons.org/ns#" xmlns:rdf="http://www.w3.org/1999/02/22-rdf-syntax-ns#">
   <cc:Work>
    <dc:type rdf:resource="http://purl.org/dc/dcmitype/StillImage"/>
    <dc:date>2026-03-21T16:23:43.233332</dc:date>
    <dc:format>image/svg+xml</dc:format>
    <dc:creator>
     <cc:Agent>
      <dc:title>Matplotlib v3.10.8, https://matplotlib.org/</dc:title>
     </cc:Agent>
    </dc:creator>
   </cc:Work>
  </rdf:RDF>
 </metadata>
 <defs>
  <style type="text/css">*{stroke-linejoin: round; stroke-linecap: butt}</style>
 </defs>
 <g id="figure_1">
  <g id="patch_1">
   <path d="M 0 424.605656 
L 1144.50625 424.605656 
L 1144.50625 0 
L 0 0 
z
" style="fill: #ffffff"/>
  </g>
  <g id="axes_1">
   <g id="patch_2">
    <path d="M 36.17625 375.909812 
L 1137.30625 375.909812 
L 1137.30625 37.837812 
L 36.17625 37.837812 
z
" style="fill: #ffffff"/>
   </g>
   <g id="matplotlib.axis_1">
    <g id="xtick_1">
     <g id="line2d_1">
      <defs>
       <path id="mf780e86db1" d="M 0 0 
L 0 3.5 
" style="stroke: #000000; stroke-width: 0.8"/>
      </defs>
      <g>
       <use xlink:href="#mf780e86db1" x="169.646553" y="375.909812" style="stroke: #000000; stroke-width: 0.8"/>
      </g>
     </g>
     <g id="text_1">
      <!-- Mar 19 -->
      <g transform="translate(153.999912 389.748406) scale(0.09 -0.09)">
       <defs>
        <path id="DejaVuSans-4d" d="M 628 4666 
L 1569 4666 
L 2759 1491 
L 3956 4666 
L 4897 4666 
L 4897 0 
L 4281 0 
L 4281 4097 
L 3078 897 
L 2444 897 
L 1241 4097 
L 1241 0 
L 628 0 
L 628 4666 
z
" transform="scale(0.015625)"/>
        <path id="DejaVuSans-61" d="M 2194 1759 
Q 1497 1759 1228 1600 
Q 959 1441 959 1056 
Q 959 750 1161 570 
Q 1363 391 1709 391 
Q 2188 391 2477 730 
Q 2766 1069 2766 1631 
L 2766 1759 
L 2194 1759 
z
M 3341 1997 
L 3341 0 
L 2766 0 
L 2766 531 
Q 2569 213 2275 61 
Q 1981 -91 1556 -91 
Q 1019 -91 701 211 
Q 384 513 384 1019 
Q 384 1609 779 1909 
Q 1175 2209 1959 2209 
L 2766 2209 
L 2766 2266 
Q 2766 2663 2505 2880 
Q 2244 3097 1772 3097 
Q 1472 3097 1187 3025 
Q 903 2953 641 2809 
L 641 3341 
Q 956 3463 1253 3523 
Q 1550 3584 1831 3584 
Q 2591 3584 2966 3190 
Q 3341 2797 3341 1997 
z
" transform="scale(0.015625)"/>
        <path id="DejaVuSans-72" d="M 2631 2963 
Q 2534 3019 2420 3045 
Q 2306 3072 2169 3072 
Q 1681 3072 1420 2755 
Q 1159 2438 1159 1844 
L 1159 0 
L 581 0 
L 581 3500 
L 1159 3500 
L 1159 2956 
Q 1341 3275 1631 3429 
Q 1922 3584 2338 3584 
Q 2397 3584 2469 3576 
Q 2541 3569 2628 3553 
L 2631 2963 
z
" transform="scale(0.015625)"/>
        <path id="DejaVuSans-20" transform="scale(0.015625)"/>
        <path id="DejaVuSans-31" d="M 794 531 
L 1825 531 
L 1825 4091 
L 703 3866 
L 703 4441 
L 1819 4666 
L 2450 4666 
L 2450 531 
L 3481 531 
L 3481 0 
L 794 0 
L 794 531 
z
" transform="scale(0.015625)"/>
        <path id="DejaVuSans-39" d="M 703 97 
L 703 672 
Q 941 559 1184 500 
Q 1428 441 1663 441 
Q 2288 441 2617 861 
Q 2947 1281 2994 2138 
Q 2813 1869 2534 1725 
Q 2256 1581 1919 1581 
Q 1219 1581 811 2004 
Q 403 2428 403 3163 
Q 403 3881 828 4315 
Q 1253 4750 1959 4750 
Q 2769 4750 3195 4129 
Q 3622 3509 3622 2328 
Q 3622 1225 3098 567 
Q 2575 -91 1691 -91 
Q 1453 -91 1209 -44 
Q 966 3 703 97 
z
M 1959 2075 
Q 2384 2075 2632 2365 
Q 2881 2656 2881 3163 
Q 2881 3666 2632 3958 
Q 2384 4250 1959 4250 
Q 1534 4250 1286 3958 
Q 1038 3666 1038 3163 
Q 1038 2656 1286 2365 
Q 1534 2075 1959 2075 
z
" transform="scale(0.015625)"/>
       </defs>
       <use xlink:href="#DejaVuSans-4d"/>
       <use xlink:href="#DejaVuSans-61" transform="translate(86.279297 0)"/>
       <use xlink:href="#DejaVuSans-72" transform="translate(147.558594 0)"/>
       <use xlink:href="#DejaVuSans-20" transform="translate(188.671875 0)"/>
       <use xlink:href="#DejaVuSans-31" transform="translate(220.458984 0)"/>
       <use xlink:href="#DejaVuSans-39" transform="translate(284.082031 0)"/>
      </g>
      <!-- 18:00 -->
      <g transform="translate(156.678116 399.826437) scale(0.09 -0.09)">
       <defs>
        <path id="DejaVuSans-38" d="M 2034 2216 
Q 1584 2216 1326 1975 
Q 1069 1734 1069 1313 
Q 1069 891 1326 650 
Q 1584 409 2034 409 
Q 2484 409 2743 651 
Q 3003 894 3003 1313 
Q 3003 1734 2745 1975 
Q 2488 2216 2034 2216 
z
M 1403 2484 
Q 997 2584 770 2862 
Q 544 3141 544 3541 
Q 544 4100 942 4425 
Q 1341 4750 2034 4750 
Q 2731 4750 3128 4425 
Q 3525 4100 3525 3541 
Q 3525 3141 3298 2862 
Q 3072 2584 2669 2484 
Q 3125 2378 3379 2068 
Q 3634 1759 3634 1313 
Q 3634 634 3220 271 
Q 2806 -91 2034 -91 
Q 1263 -91 848 271 
Q 434 634 434 1313 
Q 434 1759 690 2068 
Q 947 2378 1403 2484 
z
M 1172 3481 
Q 1172 3119 1398 2916 
Q 1625 2713 2034 2713 
Q 2441 2713 2670 2916 
Q 2900 3119 2900 3481 
Q 2900 3844 2670 4047 
Q 2441 4250 2034 4250 
Q 1625 4250 1398 4047 
Q 1172 3844 1172 3481 
z
" transform="scale(0.015625)"/>
        <path id="DejaVuSans-3a" d="M 750 794 
L 1409 794 
L 1409 0 
L 750 0 
L 750 794 
z
M 750 3309 
L 1409 3309 
L 1409 2516 
L 750 2516 
L 750 3309 
z
" transform="scale(0.015625)"/>
        <path id="DejaVuSans-30" d="M 2034 4250 
Q 1547 4250 1301 3770 
Q 1056 3291 1056 2328 
Q 1056 1369 1301 889 
Q 1547 409 2034 409 
Q 2525 409 2770 889 
Q 3016 1369 3016 2328 
Q 3016 3291 2770 3770 
Q 2525 4250 2034 4250 
z
M 2034 4750 
Q 2819 4750 3233 4129 
Q 3647 3509 3647 2328 
Q 3647 1150 3233 529 
Q 2819 -91 2034 -91 
Q 1250 -91 836 529 
Q 422 1150 422 2328 
Q 422 3509 836 4129 
Q 1250 4750 2034 4750 
z
" transform="scale(0.015625)"/>
       </defs>
       <use xlink:href="#DejaVuSans-31"/>
       <use xlink:href="#DejaVuSans-38" transform="translate(63.623047 0)"/>
       <use xlink:href="#DejaVuSans-3a" transform="translate(127.246094 0)"/>
       <use xlink:href="#DejaVuSans-30" transform="translate(160.9375 0)"/>
       <use xlink:href="#DejaVuSans-30" transform="translate(224.560547 0)"/>
      </g>
     </g>
    </g>
    <g id="xtick_2">
     <g id="line2d_2">
      <g>
       <use xlink:href="#mf780e86db1" x="283.399652" y="375.909812" style="stroke: #000000; stroke-width: 0.8"/>
      </g>
     </g>
     <g id="text_2">
      <!-- Mar 20 -->
      <g transform="translate(267.753012 389.748406) scale(0.09 -0.09)">
       <defs>
        <path id="DejaVuSans-32" d="M 1228 531 
L 3431 531 
L 3431 0 
L 469 0 
L 469 531 
Q 828 903 1448 1529 
Q 2069 2156 2228 2338 
Q 2531 2678 2651 2914 
Q 2772 3150 2772 3378 
Q 2772 3750 2511 3984 
Q 2250 4219 1831 4219 
Q 1534 4219 1204 4116 
Q 875 4013 500 3803 
L 500 4441 
Q 881 4594 1212 4672 
Q 1544 4750 1819 4750 
Q 2544 4750 2975 4387 
Q 3406 4025 3406 3419 
Q 3406 3131 3298 2873 
Q 3191 2616 2906 2266 
Q 2828 2175 2409 1742 
Q 1991 1309 1228 531 
z
" transform="scale(0.015625)"/>
       </defs>
       <use xlink:href="#DejaVuSans-4d"/>
       <use xlink:href="#DejaVuSans-61" transform="translate(86.279297 0)"/>
       <use xlink:href="#DejaVuSans-72" transform="translate(147.558594 0)"/>
       <use xlink:href="#DejaVuSans-20" transform="translate(188.671875 0)"/>
       <use xlink:href="#DejaVuSans-32" transform="translate(220.458984 0)"/>
       <use xlink:href="#DejaVuSans-30" transform="translate(284.082031 0)"/>
      </g>
      <!-- 00:00 -->
      <g transform="translate(270.431215 399.826437) scale(0.09 -0.09)">
       <use xlink:href="#DejaVuSans-30"/>
       <use xlink:href="#DejaVuSans-30" transform="translate(63.623047 0)"/>
       <use xlink:href="#DejaVuSans-3a" transform="translate(127.246094 0)"/>
       <use xlink:href="#DejaVuSans-30" transform="translate(160.9375 0)"/>
       <use xlink:href="#DejaVuSans-30" transform="translate(224.560547 0)"/>
      </g>
     </g>
    </g>
    <g id="xtick_3">
     <g id="line2d_3">
      <g>
       <use xlink:href="#mf780e86db1" x="397.152751" y="375.909812" style="stroke: #000000; stroke-width: 0.8"/>
      </g>
     </g>
     <g id="text_3">
      <!-- Mar 20 -->
      <g transform="translate(381.506111 389.748406) scale(0.09 -0.09)">
       <use xlink:href="#DejaVuSans-4d"/>
       <use xlink:href="#DejaVuSans-61" transform="translate(86.279297 0)"/>
       <use xlink:href="#DejaVuSans-72" transform="translate(147.558594 0)"/>
       <use xlink:href="#DejaVuSans-20" transform="translate(188.671875 0)"/>
       <use xlink:href="#DejaVuSans-32" transform="translate(220.458984 0)"/>
       <use xlink:href="#DejaVuSans-30" transform="translate(284.082031 0)"/>
      </g>
      <!-- 06:00 -->
      <g transform="translate(384.184314 399.826437) scale(0.09 -0.09)">
       <defs>
        <path id="DejaVuSans-36" d="M 2113 2584 
Q 1688 2584 1439 2293 
Q 1191 2003 1191 1497 
Q 1191 994 1439 701 
Q 1688 409 2113 409 
Q 2538 409 2786 701 
Q 3034 994 3034 1497 
Q 3034 2003 2786 2293 
Q 2538 2584 2113 2584 
z
M 3366 4563 
L 3366 3988 
Q 3128 4100 2886 4159 
Q 2644 4219 2406 4219 
Q 1781 4219 1451 3797 
Q 1122 3375 1075 2522 
Q 1259 2794 1537 2939 
Q 1816 3084 2150 3084 
Q 2853 3084 3261 2657 
Q 3669 2231 3669 1497 
Q 3669 778 3244 343 
Q 2819 -91 2113 -91 
Q 1303 -91 875 529 
Q 447 1150 447 2328 
Q 447 3434 972 4092 
Q 1497 4750 2381 4750 
Q 2619 4750 2861 4703 
Q 3103 4656 3366 4563 
z
" transform="scale(0.015625)"/>
       </defs>
       <use xlink:href="#DejaVuSans-30"/>
       <use xlink:href="#DejaVuSans-36" transform="translate(63.623047 0)"/>
       <use xlink:href="#DejaVuSans-3a" transform="translate(127.246094 0)"/>
       <use xlink:href="#DejaVuSans-30" transform="translate(160.9375 0)"/>
       <use xlink:href="#DejaVuSans-30" transform="translate(224.560547 0)"/>
      </g>
     </g>
    </g>
    <g id="xtick_4">
     <g id="line2d_4">
      <g>
       <use xlink:href="#mf780e86db1" x="510.905851" y="375.909812" style="stroke: #000000; stroke-width: 0.8"/>
      </g>
     </g>
     <g id="text_4">
      <!-- Mar 20 -->
      <g transform="translate(495.25921 389.748406) scale(0.09 -0.09)">
       <use xlink:href="#DejaVuSans-4d"/>
       <use xlink:href="#DejaVuSans-61" transform="translate(86.279297 0)"/>
       <use xlink:href="#DejaVuSans-72" transform="translate(147.558594 0)"/>
       <use xlink:href="#DejaVuSans-20" transform="translate(188.671875 0)"/>
       <use xlink:href="#DejaVuSans-32" transform="translate(220.458984 0)"/>
       <use xlink:href="#DejaVuSans-30" transform="translate(284.082031 0)"/>
      </g>
      <!-- 12:00 -->
      <g transform="translate(497.937413 399.826437) scale(0.09 -0.09)">
       <use xlink:href="#DejaVuSans-31"/>
       <use xlink:href="#DejaVuSans-32" transform="translate(63.623047 0)"/>
       <use xlink:href="#DejaVuSans-3a" transform="translate(127.246094 0)"/>
       <use xlink:href="#DejaVuSans-30" transform="translate(160.9375 0)"/>
       <use xlink:href="#DejaVuSans-30" transform="translate(224.560547 0)"/>
      </g>
     </g>
    </g>
    <g id="xtick_5">
     <g id="line2d_5">
      <g>
       <use xlink:href="#mf780e86db1" x="624.65895" y="375.909812" style="stroke: #000000; stroke-width: 0.8"/>
      </g>
     </g>
     <g id="text_5">
      <!-- Mar 20 -->
      <g transform="translate(609.012309 389.748406) scale(0.09 -0.09)">
       <use xlink:href="#DejaVuSans-4d"/>
       <use xlink:href="#DejaVuSans-61" transform="translate(86.279297 0)"/>
       <use xlink:href="#DejaVuSans-72" transform="translate(147.558594 0)"/>
       <use xlink:href="#DejaVuSans-20" transform="translate(188.671875 0)"/>
       <use xlink:href="#DejaVuSans-32" transform="translate(220.458984 0)"/>
       <use xlink:href="#DejaVuSans-30" transform="translate(284.082031 0)"/>
      </g>
      <!-- 18:00 -->
      <g transform="translate(611.690512 399.826437) scale(0.09 -0.09)">
       <use xlink:href="#DejaVuSans-31"/>
       <use xlink:href="#DejaVuSans-38" transform="translate(63.623047 0)"/>
       <use xlink:href="#DejaVuSans-3a" transform="translate(127.246094 0)"/>
       <use xlink:href="#DejaVuSans-30" transform="translate(160.9375 0)"/>
       <use xlink:href="#DejaVuSans-30" transform="translate(224.560547 0)"/>
      </g>
     </g>
    </g>
    <g id="xtick_6">
     <g id="line2d_6">
      <g>
       <use xlink:href="#mf780e86db1" x="738.412049" y="375.909812" style="stroke: #000000; stroke-width: 0.8"/>
      </g>
     </g>
     <g id="text_6">
      <!-- Mar 21 -->
      <g transform="translate(722.765408 389.748406) scale(0.09 -0.09)">
       <use xlink:href="#DejaVuSans-4d"/>
       <use xlink:href="#DejaVuSans-61" transform="translate(86.279297 0)"/>
       <use xlink:href="#DejaVuSans-72" transform="translate(147.558594 0)"/>
       <use xlink:href="#DejaVuSans-20" transform="translate(188.671875 0)"/>
       <use xlink:href="#DejaVuSans-32" transform="translate(220.458984 0)"/>
       <use xlink:href="#DejaVuSans-31" transform="translate(284.082031 0)"/>
      </g>
      <!-- 00:00 -->
      <g transform="translate(725.443611 399.826437) scale(0.09 -0.09)">
       <use xlink:href="#DejaVuSans-30"/>
       <use xlink:href="#DejaVuSans-30" transform="translate(63.623047 0)"/>
       <use xlink:href="#DejaVuSans-3a" transform="translate(127.246094 0)"/>
       <use xlink:href="#DejaVuSans-30" transform="translate(160.9375 0)"/>
       <use xlink:href="#DejaVuSans-30" transform="translate(224.560547 0)"/>
      </g>
     </g>
    </g>
    <g id="xtick_7">
     <g id="line2d_7">
      <g>
       <use xlink:href="#mf780e86db1" x="852.165148" y="375.909812" style="stroke: #000000; stroke-width: 0.8"/>
      </g>
     </g>
     <g id="text_7">
      <!-- Mar 21 -->
      <g transform="translate(836.518507 389.748406) scale(0.09 -0.09)">
       <use xlink:href="#DejaVuSans-4d"/>
       <use xlink:href="#DejaVuSans-61" transform="translate(86.279297 0)"/>
       <use xlink:href="#DejaVuSans-72" transform="translate(147.558594 0)"/>
       <use xlink:href="#DejaVuSans-20" transform="translate(188.671875 0)"/>
       <use xlink:href="#DejaVuSans-32" transform="translate(220.458984 0)"/>
       <use xlink:href="#DejaVuSans-31" transform="translate(284.082031 0)"/>
      </g>
      <!-- 06:00 -->
      <g transform="translate(839.196711 399.826437) scale(0.09 -0.09)">
       <use xlink:href="#DejaVuSans-30"/>
       <use xlink:href="#DejaVuSans-36" transform="translate(63.623047 0)"/>
       <use xlink:href="#DejaVuSans-3a" transform="translate(127.246094 0)"/>
       <use xlink:href="#DejaVuSans-30" transform="translate(160.9375 0)"/>
       <use xlink:href="#DejaVuSans-30" transform="translate(224.560547 0)"/>
      </g>
     </g>
    </g>
    <g id="xtick_8">
     <g id="line2d_8">
      <g>
       <use xlink:href="#mf780e86db1" x="965.918247" y="375.909812" style="stroke: #000000; stroke-width: 0.8"/>
      </g>
     </g>
     <g id="text_8">
      <!-- Mar 21 -->
      <g transform="translate(950.271607 389.748406) scale(0.09 -0.09)">
       <use xlink:href="#DejaVuSans-4d"/>
       <use xlink:href="#DejaVuSans-61" transform="translate(86.279297 0)"/>
       <use xlink:href="#DejaVuSans-72" transform="translate(147.558594 0)"/>
       <use xlink:href="#DejaVuSans-20" transform="translate(188.671875 0)"/>
       <use xlink:href="#DejaVuSans-32" transform="translate(220.458984 0)"/>
       <use xlink:href="#DejaVuSans-31" transform="translate(284.082031 0)"/>
      </g>
      <!-- 12:00 -->
      <g transform="translate(952.94981 399.826437) scale(0.09 -0.09)">
       <use xlink:href="#DejaVuSans-31"/>
       <use xlink:href="#DejaVuSans-32" transform="translate(63.623047 0)"/>
       <use xlink:href="#DejaVuSans-3a" transform="translate(127.246094 0)"/>
       <use xlink:href="#DejaVuSans-30" transform="translate(160.9375 0)"/>
       <use xlink:href="#DejaVuSans-30" transform="translate(224.560547 0)"/>
      </g>
     </g>
    </g>
    <g id="xtick_9">
     <g id="line2d_9">
      <g>
       <use xlink:href="#mf780e86db1" x="1079.671346" y="375.909812" style="stroke: #000000; stroke-width: 0.8"/>
      </g>
     </g>
     <g id="text_9">
      <!-- Mar 21 -->
      <g transform="translate(1064.024706 389.748406) scale(0.09 -0.09)">
       <use xlink:href="#DejaVuSans-4d"/>
       <use xlink:href="#DejaVuSans-61" transform="translate(86.279297 0)"/>
       <use xlink:href="#DejaVuSans-72" transform="translate(147.558594 0)"/>
       <use xlink:href="#DejaVuSans-20" transform="translate(188.671875 0)"/>
       <use xlink:href="#DejaVuSans-32" transform="translate(220.458984 0)"/>
       <use xlink:href="#DejaVuSans-31" transform="translate(284.082031 0)"/>
      </g>
      <!-- 18:00 -->
      <g transform="translate(1066.702909 399.826437) scale(0.09 -0.09)">
       <use xlink:href="#DejaVuSans-31"/>
       <use xlink:href="#DejaVuSans-38" transform="translate(63.623047 0)"/>
       <use xlink:href="#DejaVuSans-3a" transform="translate(127.246094 0)"/>
       <use xlink:href="#DejaVuSans-30" transform="translate(160.9375 0)"/>
       <use xlink:href="#DejaVuSans-30" transform="translate(224.560547 0)"/>
      </g>
     </g>
    </g>
    <g id="text_10">
     <!-- March Day / Hour (UTC) -->
     <g transform="translate(507.407188 414.816281) scale(0.12 -0.12)">
      <defs>
       <path id="DejaVuSans-Bold-4d" d="M 588 4666 
L 2119 4666 
L 3181 2169 
L 4250 4666 
L 5778 4666 
L 5778 0 
L 4641 0 
L 4641 3413 
L 3566 897 
L 2803 897 
L 1728 3413 
L 1728 0 
L 588 0 
L 588 4666 
z
" transform="scale(0.015625)"/>
       <path id="DejaVuSans-Bold-61" d="M 2106 1575 
Q 1756 1575 1579 1456 
Q 1403 1338 1403 1106 
Q 1403 894 1545 773 
Q 1688 653 1941 653 
Q 2256 653 2472 879 
Q 2688 1106 2688 1447 
L 2688 1575 
L 2106 1575 
z
M 3816 1997 
L 3816 0 
L 2688 0 
L 2688 519 
Q 2463 200 2181 54 
Q 1900 -91 1497 -91 
Q 953 -91 614 226 
Q 275 544 275 1050 
Q 275 1666 698 1953 
Q 1122 2241 2028 2241 
L 2688 2241 
L 2688 2328 
Q 2688 2594 2478 2717 
Q 2269 2841 1825 2841 
Q 1466 2841 1156 2769 
Q 847 2697 581 2553 
L 581 3406 
Q 941 3494 1303 3539 
Q 1666 3584 2028 3584 
Q 2975 3584 3395 3211 
Q 3816 2838 3816 1997 
z
" transform="scale(0.015625)"/>
       <path id="DejaVuSans-Bold-72" d="M 3138 2547 
Q 2991 2616 2845 2648 
Q 2700 2681 2553 2681 
Q 2122 2681 1889 2404 
Q 1656 2128 1656 1613 
L 1656 0 
L 538 0 
L 538 3500 
L 1656 3500 
L 1656 2925 
Q 1872 3269 2151 3426 
Q 2431 3584 2822 3584 
Q 2878 3584 2943 3579 
Q 3009 3575 3134 3559 
L 3138 2547 
z
" transform="scale(0.015625)"/>
       <path id="DejaVuSans-Bold-63" d="M 3366 3391 
L 3366 2478 
Q 3138 2634 2908 2709 
Q 2678 2784 2431 2784 
Q 1963 2784 1702 2511 
Q 1441 2238 1441 1747 
Q 1441 1256 1702 982 
Q 1963 709 2431 709 
Q 2694 709 2930 787 
Q 3166 866 3366 1019 
L 3366 103 
Q 3103 6 2833 -42 
Q 2563 -91 2291 -91 
Q 1344 -91 809 395 
Q 275 881 275 1747 
Q 275 2613 809 3098 
Q 1344 3584 2291 3584 
Q 2566 3584 2833 3536 
Q 3100 3488 3366 3391 
z
" transform="scale(0.015625)"/>
       <path id="DejaVuSans-Bold-68" d="M 4056 2131 
L 4056 0 
L 2931 0 
L 2931 347 
L 2931 1625 
Q 2931 2084 2911 2256 
Q 2891 2428 2841 2509 
Q 2775 2619 2662 2680 
Q 2550 2741 2406 2741 
Q 2056 2741 1856 2470 
Q 1656 2200 1656 1722 
L 1656 0 
L 538 0 
L 538 4863 
L 1656 4863 
L 1656 2988 
Q 1909 3294 2193 3439 
Q 2478 3584 2822 3584 
Q 3428 3584 3742 3212 
Q 4056 2841 4056 2131 
z
" transform="scale(0.015625)"/>
       <path id="DejaVuSans-Bold-20" transform="scale(0.015625)"/>
       <path id="DejaVuSans-Bold-44" d="M 1791 3756 
L 1791 909 
L 2222 909 
Q 2959 909 3348 1275 
Q 3738 1641 3738 2338 
Q 3738 3031 3350 3393 
Q 2963 3756 2222 3756 
L 1791 3756 
z
M 588 4666 
L 1856 4666 
Q 2919 4666 3439 4514 
Q 3959 4363 4331 4000 
Q 4659 3684 4818 3271 
Q 4978 2859 4978 2338 
Q 4978 1809 4818 1395 
Q 4659 981 4331 666 
Q 3956 303 3431 151 
Q 2906 0 1856 0 
L 588 0 
L 588 4666 
z
" transform="scale(0.015625)"/>
       <path id="DejaVuSans-Bold-79" d="M 78 3500 
L 1197 3500 
L 2138 1125 
L 2938 3500 
L 4056 3500 
L 2584 -331 
Q 2363 -916 2067 -1148 
Q 1772 -1381 1288 -1381 
L 641 -1381 
L 641 -647 
L 991 -647 
Q 1275 -647 1404 -556 
Q 1534 -466 1606 -231 
L 1638 -134 
L 78 3500 
z
" transform="scale(0.015625)"/>
       <path id="DejaVuSans-Bold-2f" d="M 1644 4666 
L 2338 4666 
L 691 -594 
L 0 -594 
L 1644 4666 
z
" transform="scale(0.015625)"/>
       <path id="DejaVuSans-Bold-48" d="M 588 4666 
L 1791 4666 
L 1791 2888 
L 3566 2888 
L 3566 4666 
L 4769 4666 
L 4769 0 
L 3566 0 
L 3566 1978 
L 1791 1978 
L 1791 0 
L 588 0 
L 588 4666 
z
" transform="scale(0.015625)"/>
       <path id="DejaVuSans-Bold-6f" d="M 2203 2784 
Q 1831 2784 1636 2517 
Q 1441 2250 1441 1747 
Q 1441 1244 1636 976 
Q 1831 709 2203 709 
Q 2569 709 2762 976 
Q 2956 1244 2956 1747 
Q 2956 2250 2762 2517 
Q 2569 2784 2203 2784 
z
M 2203 3584 
Q 3106 3584 3614 3096 
Q 4122 2609 4122 1747 
Q 4122 884 3614 396 
Q 3106 -91 2203 -91 
Q 1297 -91 786 396 
Q 275 884 275 1747 
Q 275 2609 786 3096 
Q 1297 3584 2203 3584 
z
" transform="scale(0.015625)"/>
       <path id="DejaVuSans-Bold-75" d="M 500 1363 
L 500 3500 
L 1625 3500 
L 1625 3150 
Q 1625 2866 1622 2436 
Q 1619 2006 1619 1863 
Q 1619 1441 1641 1255 
Q 1663 1069 1716 984 
Q 1784 875 1895 815 
Q 2006 756 2150 756 
Q 2500 756 2700 1025 
Q 2900 1294 2900 1772 
L 2900 3500 
L 4019 3500 
L 4019 0 
L 2900 0 
L 2900 506 
Q 2647 200 2364 54 
Q 2081 -91 1741 -91 
Q 1134 -91 817 281 
Q 500 653 500 1363 
z
" transform="scale(0.015625)"/>
       <path id="DejaVuSans-Bold-28" d="M 2413 -844 
L 1484 -844 
Q 1006 -72 778 623 
Q 550 1319 550 2003 
Q 550 2688 779 3389 
Q 1009 4091 1484 4856 
L 2413 4856 
Q 2013 4116 1813 3408 
Q 1613 2700 1613 2009 
Q 1613 1319 1811 609 
Q 2009 -100 2413 -844 
z
" transform="scale(0.015625)"/>
       <path id="DejaVuSans-Bold-55" d="M 588 4666 
L 1791 4666 
L 1791 1869 
Q 1791 1291 1980 1042 
Q 2169 794 2597 794 
Q 3028 794 3217 1042 
Q 3406 1291 3406 1869 
L 3406 4666 
L 4609 4666 
L 4609 1869 
Q 4609 878 4112 393 
Q 3616 -91 2597 -91 
Q 1581 -91 1084 393 
Q 588 878 588 1869 
L 588 4666 
z
" transform="scale(0.015625)"/>
       <path id="DejaVuSans-Bold-54" d="M 31 4666 
L 4331 4666 
L 4331 3756 
L 2784 3756 
L 2784 0 
L 1581 0 
L 1581 3756 
L 31 3756 
L 31 4666 
z
" transform="scale(0.015625)"/>
       <path id="DejaVuSans-Bold-43" d="M 4288 256 
Q 3956 84 3597 -3 
Q 3238 -91 2847 -91 
Q 1681 -91 1000 561 
Q 319 1213 319 2328 
Q 319 3447 1000 4098 
Q 1681 4750 2847 4750 
Q 3238 4750 3597 4662 
Q 3956 4575 4288 4403 
L 4288 3438 
Q 3953 3666 3628 3772 
Q 3303 3878 2944 3878 
Q 2300 3878 1931 3465 
Q 1563 3053 1563 2328 
Q 1563 1606 1931 1193 
Q 2300 781 2944 781 
Q 3303 781 3628 887 
Q 3953 994 4288 1222 
L 4288 256 
z
" transform="scale(0.015625)"/>
       <path id="DejaVuSans-Bold-29" d="M 513 -844 
Q 913 -100 1113 609 
Q 1313 1319 1313 2009 
Q 1313 2700 1113 3408 
Q 913 4116 513 4856 
L 1441 4856 
Q 1916 4091 2145 3389 
Q 2375 2688 2375 2003 
Q 2375 1319 2147 623 
Q 1919 -72 1441 -844 
L 513 -844 
z
" transform="scale(0.015625)"/>
      </defs>
      <use xlink:href="#DejaVuSans-Bold-4d"/>
      <use xlink:href="#DejaVuSans-Bold-61" transform="translate(99.511719 0)"/>
      <use xlink:href="#DejaVuSans-Bold-72" transform="translate(166.992188 0)"/>
      <use xlink:href="#DejaVuSans-Bold-63" transform="translate(216.308594 0)"/>
      <use xlink:href="#DejaVuSans-Bold-68" transform="translate(275.585938 0)"/>
      <use xlink:href="#DejaVuSans-Bold-20" transform="translate(346.777344 0)"/>
      <use xlink:href="#DejaVuSans-Bold-44" transform="translate(381.591797 0)"/>
      <use xlink:href="#DejaVuSans-Bold-61" transform="translate(464.599609 0)"/>
      <use xlink:href="#DejaVuSans-Bold-79" transform="translate(528.955078 0)"/>
      <use xlink:href="#DejaVuSans-Bold-20" transform="translate(594.140625 0)"/>
      <use xlink:href="#DejaVuSans-Bold-2f" transform="translate(628.955078 0)"/>
      <use xlink:href="#DejaVuSans-Bold-20" transform="translate(665.478516 0)"/>
      <use xlink:href="#DejaVuSans-Bold-48" transform="translate(700.292969 0)"/>
      <use xlink:href="#DejaVuSans-Bold-6f" transform="translate(783.984375 0)"/>
      <use xlink:href="#DejaVuSans-Bold-75" transform="translate(852.685547 0)"/>
      <use xlink:href="#DejaVuSans-Bold-72" transform="translate(923.876953 0)"/>
      <use xlink:href="#DejaVuSans-Bold-20" transform="translate(973.193359 0)"/>
      <use xlink:href="#DejaVuSans-Bold-28" transform="translate(1008.007812 0)"/>
      <use xlink:href="#DejaVuSans-Bold-55" transform="translate(1053.710938 0)"/>
      <use xlink:href="#DejaVuSans-Bold-54" transform="translate(1134.912109 0)"/>
      <use xlink:href="#DejaVuSans-Bold-43" transform="translate(1203.125 0)"/>
      <use xlink:href="#DejaVuSans-Bold-29" transform="translate(1276.513672 0)"/>
     </g>
    </g>
   </g>
   <g id="matplotlib.axis_2">
    <g id="ytick_1">
     <g id="line2d_10">
      <path d="M 36.17625 375.909812 
L 1137.30625 375.909812 
" clip-path="url(#pd5053dabcc)" style="fill: none; stroke-dasharray: 2.96,1.28; stroke-dashoffset: 0; stroke: #b0b0b0; stroke-opacity: 0.3; stroke-width: 0.8"/>
     </g>
     <g id="line2d_11">
      <defs>
       <path id="m4b14f572da" d="M 0 0 
L -3.5 0 
" style="stroke: #000000; stroke-width: 0.8"/>
      </defs>
      <g>
       <use xlink:href="#m4b14f572da" x="36.17625" y="375.909812" style="stroke: #000000; stroke-width: 0.8"/>
      </g>
     </g>
     <g id="text_11">
      <!-- 0 -->
      <g transform="translate(22.81375 379.709031) scale(0.1 -0.1)">
       <use xlink:href="#DejaVuSans-30"/>
      </g>
     </g>
    </g>
    <g id="ytick_2">
     <g id="line2d_12">
      <path d="M 36.17625 335.663146 
L 1137.30625 335.663146 
" clip-path="url(#pd5053dabcc)" style="fill: none; stroke-dasharray: 2.96,1.28; stroke-dashoffset: 0; stroke: #b0b0b0; stroke-opacity: 0.3; stroke-width: 0.8"/>
     </g>
     <g id="line2d_13">
      <g>
       <use xlink:href="#m4b14f572da" x="36.17625" y="335.663146" style="stroke: #000000; stroke-width: 0.8"/>
      </g>
     </g>
     <g id="text_12">
      <!-- 1 -->
      <g transform="translate(22.81375 339.462365) scale(0.1 -0.1)">
       <use xlink:href="#DejaVuSans-31"/>
      </g>
     </g>
    </g>
    <g id="ytick_3">
     <g id="line2d_14">
      <path d="M 36.17625 295.416479 
L 1137.30625 295.416479 
" clip-path="url(#pd5053dabcc)" style="fill: none; stroke-dasharray: 2.96,1.28; stroke-dashoffset: 0; stroke: #b0b0b0; stroke-opacity: 0.3; stroke-width: 0.8"/>
     </g>
     <g id="line2d_15">
      <g>
       <use xlink:href="#m4b14f572da" x="36.17625" y="295.416479" style="stroke: #000000; stroke-width: 0.8"/>
      </g>
     </g>
     <g id="text_13">
      <!-- 2 -->
      <g transform="translate(22.81375 299.215698) scale(0.1 -0.1)">
       <use xlink:href="#DejaVuSans-32"/>
      </g>
     </g>
    </g>
    <g id="ytick_4">
     <g id="line2d_16">
      <path d="M 36.17625 255.169812 
L 1137.30625 255.169812 
" clip-path="url(#pd5053dabcc)" style="fill: none; stroke-dasharray: 2.96,1.28; stroke-dashoffset: 0; stroke: #b0b0b0; stroke-opacity: 0.3; stroke-width: 0.8"/>
     </g>
     <g id="line2d_17">
      <g>
       <use xlink:href="#m4b14f572da" x="36.17625" y="255.169812" style="stroke: #000000; stroke-width: 0.8"/>
      </g>
     </g>
     <g id="text_14">
      <!-- 3 -->
      <g transform="translate(22.81375 258.969031) scale(0.1 -0.1)">
       <defs>
        <path id="DejaVuSans-33" d="M 2597 2516 
Q 3050 2419 3304 2112 
Q 3559 1806 3559 1356 
Q 3559 666 3084 287 
Q 2609 -91 1734 -91 
Q 1441 -91 1130 -33 
Q 819 25 488 141 
L 488 750 
Q 750 597 1062 519 
Q 1375 441 1716 441 
Q 2309 441 2620 675 
Q 2931 909 2931 1356 
Q 2931 1769 2642 2001 
Q 2353 2234 1838 2234 
L 1294 2234 
L 1294 2753 
L 1863 2753 
Q 2328 2753 2575 2939 
Q 2822 3125 2822 3475 
Q 2822 3834 2567 4026 
Q 2313 4219 1838 4219 
Q 1578 4219 1281 4162 
Q 984 4106 628 3988 
L 628 4550 
Q 988 4650 1302 4700 
Q 1616 4750 1894 4750 
Q 2613 4750 3031 4423 
Q 3450 4097 3450 3541 
Q 3450 3153 3228 2886 
Q 3006 2619 2597 2516 
z
" transform="scale(0.015625)"/>
       </defs>
       <use xlink:href="#DejaVuSans-33"/>
      </g>
     </g>
    </g>
    <g id="ytick_5">
     <g id="line2d_18">
      <path d="M 36.17625 214.923146 
L 1137.30625 214.923146 
" clip-path="url(#pd5053dabcc)" style="fill: none; stroke-dasharray: 2.96,1.28; stroke-dashoffset: 0; stroke: #b0b0b0; stroke-opacity: 0.3; stroke-width: 0.8"/>
     </g>
     <g id="line2d_19">
      <g>
       <use xlink:href="#m4b14f572da" x="36.17625" y="214.923146" style="stroke: #000000; stroke-width: 0.8"/>
      </g>
     </g>
     <g id="text_15">
      <!-- 4 -->
      <g transform="translate(22.81375 218.722365) scale(0.1 -0.1)">
       <defs>
        <path id="DejaVuSans-34" d="M 2419 4116 
L 825 1625 
L 2419 1625 
L 2419 4116 
z
M 2253 4666 
L 3047 4666 
L 3047 1625 
L 3713 1625 
L 3713 1100 
L 3047 1100 
L 3047 0 
L 2419 0 
L 2419 1100 
L 313 1100 
L 313 1709 
L 2253 4666 
z
" transform="scale(0.015625)"/>
       </defs>
       <use xlink:href="#DejaVuSans-34"/>
      </g>
     </g>
    </g>
    <g id="ytick_6">
     <g id="line2d_20">
      <path d="M 36.17625 174.676479 
L 1137.30625 174.676479 
" clip-path="url(#pd5053dabcc)" style="fill: none; stroke-dasharray: 2.96,1.28; stroke-dashoffset: 0; stroke: #b0b0b0; stroke-opacity: 0.3; stroke-width: 0.8"/>
     </g>
     <g id="line2d_21">
      <g>
       <use xlink:href="#m4b14f572da" x="36.17625" y="174.676479" style="stroke: #000000; stroke-width: 0.8"/>
      </g>
     </g>
     <g id="text_16">
      <!-- 5 -->
      <g transform="translate(22.81375 178.475698) scale(0.1 -0.1)">
       <defs>
        <path id="DejaVuSans-35" d="M 691 4666 
L 3169 4666 
L 3169 4134 
L 1269 4134 
L 1269 2991 
Q 1406 3038 1543 3061 
Q 1681 3084 1819 3084 
Q 2600 3084 3056 2656 
Q 3513 2228 3513 1497 
Q 3513 744 3044 326 
Q 2575 -91 1722 -91 
Q 1428 -91 1123 -41 
Q 819 9 494 109 
L 494 744 
Q 775 591 1075 516 
Q 1375 441 1709 441 
Q 2250 441 2565 725 
Q 2881 1009 2881 1497 
Q 2881 1984 2565 2268 
Q 2250 2553 1709 2553 
Q 1456 2553 1204 2497 
Q 953 2441 691 2322 
L 691 4666 
z
" transform="scale(0.015625)"/>
       </defs>
       <use xlink:href="#DejaVuSans-35"/>
      </g>
     </g>
    </g>
    <g id="ytick_7">
     <g id="line2d_22">
      <path d="M 36.17625 134.429812 
L 1137.30625 134.429812 
" clip-path="url(#pd5053dabcc)" style="fill: none; stroke-dasharray: 2.96,1.28; stroke-dashoffset: 0; stroke: #b0b0b0; stroke-opacity: 0.3; stroke-width: 0.8"/>
     </g>
     <g id="line2d_23">
      <g>
       <use xlink:href="#m4b14f572da" x="36.17625" y="134.429812" style="stroke: #000000; stroke-width: 0.8"/>
      </g>
     </g>
     <g id="text_17">
      <!-- 6 -->
      <g transform="translate(22.81375 138.229031) scale(0.1 -0.1)">
       <use xlink:href="#DejaVuSans-36"/>
      </g>
     </g>
    </g>
    <g id="ytick_8">
     <g id="line2d_24">
      <path d="M 36.17625 94.183146 
L 1137.30625 94.183146 
" clip-path="url(#pd5053dabcc)" style="fill: none; stroke-dasharray: 2.96,1.28; stroke-dashoffset: 0; stroke: #b0b0b0; stroke-opacity: 0.3; stroke-width: 0.8"/>
     </g>
     <g id="line2d_25">
      <g>
       <use xlink:href="#m4b14f572da" x="36.17625" y="94.183146" style="stroke: #000000; stroke-width: 0.8"/>
      </g>
     </g>
     <g id="text_18">
      <!-- 7 -->
      <g transform="translate(22.81375 97.982365) scale(0.1 -0.1)">
       <defs>
        <path id="DejaVuSans-37" d="M 525 4666 
L 3525 4666 
L 3525 4397 
L 1831 0 
L 1172 0 
L 2766 4134 
L 525 4134 
L 525 4666 
z
" transform="scale(0.015625)"/>
       </defs>
       <use xlink:href="#DejaVuSans-37"/>
      </g>
     </g>
    </g>
    <g id="ytick_9">
     <g id="line2d_26">
      <path d="M 36.17625 53.936479 
L 1137.30625 53.936479 
" clip-path="url(#pd5053dabcc)" style="fill: none; stroke-dasharray: 2.96,1.28; stroke-dashoffset: 0; stroke: #b0b0b0; stroke-opacity: 0.3; stroke-width: 0.8"/>
     </g>
     <g id="line2d_27">
      <g>
       <use xlink:href="#m4b14f572da" x="36.17625" y="53.936479" style="stroke: #000000; stroke-width: 0.8"/>
      </g>
     </g>
     <g id="text_19">
      <!-- 8 -->
      <g transform="translate(22.81375 57.735698) scale(0.1 -0.1)">
       <use xlink:href="#DejaVuSans-38"/>
      </g>
     </g>
    </g>
    <g id="text_20">
     <!-- Number of Occurrences -->
     <g transform="translate(16.318125 286.593187) rotate(-90) scale(0.12 -0.12)">
      <defs>
       <path id="DejaVuSans-Bold-4e" d="M 588 4666 
L 1931 4666 
L 3628 1466 
L 3628 4666 
L 4769 4666 
L 4769 0 
L 3425 0 
L 1728 3200 
L 1728 0 
L 588 0 
L 588 4666 
z
" transform="scale(0.015625)"/>
       <path id="DejaVuSans-Bold-6d" d="M 3781 2919 
Q 3994 3244 4286 3414 
Q 4578 3584 4928 3584 
Q 5531 3584 5847 3212 
Q 6163 2841 6163 2131 
L 6163 0 
L 5038 0 
L 5038 1825 
Q 5041 1866 5042 1909 
Q 5044 1953 5044 2034 
Q 5044 2406 4934 2573 
Q 4825 2741 4581 2741 
Q 4263 2741 4089 2478 
Q 3916 2216 3909 1719 
L 3909 0 
L 2784 0 
L 2784 1825 
Q 2784 2406 2684 2573 
Q 2584 2741 2328 2741 
Q 2006 2741 1831 2477 
Q 1656 2213 1656 1722 
L 1656 0 
L 531 0 
L 531 3500 
L 1656 3500 
L 1656 2988 
Q 1863 3284 2130 3434 
Q 2397 3584 2719 3584 
Q 3081 3584 3359 3409 
Q 3638 3234 3781 2919 
z
" transform="scale(0.015625)"/>
       <path id="DejaVuSans-Bold-62" d="M 2400 722 
Q 2759 722 2948 984 
Q 3138 1247 3138 1747 
Q 3138 2247 2948 2509 
Q 2759 2772 2400 2772 
Q 2041 2772 1848 2508 
Q 1656 2244 1656 1747 
Q 1656 1250 1848 986 
Q 2041 722 2400 722 
z
M 1656 2988 
Q 1888 3294 2169 3439 
Q 2450 3584 2816 3584 
Q 3463 3584 3878 3070 
Q 4294 2556 4294 1747 
Q 4294 938 3878 423 
Q 3463 -91 2816 -91 
Q 2450 -91 2169 54 
Q 1888 200 1656 506 
L 1656 0 
L 538 0 
L 538 4863 
L 1656 4863 
L 1656 2988 
z
" transform="scale(0.015625)"/>
       <path id="DejaVuSans-Bold-65" d="M 4031 1759 
L 4031 1441 
L 1416 1441 
Q 1456 1047 1700 850 
Q 1944 653 2381 653 
Q 2734 653 3104 758 
Q 3475 863 3866 1075 
L 3866 213 
Q 3469 63 3072 -14 
Q 2675 -91 2278 -91 
Q 1328 -91 801 392 
Q 275 875 275 1747 
Q 275 2603 792 3093 
Q 1309 3584 2216 3584 
Q 3041 3584 3536 3087 
Q 4031 2591 4031 1759 
z
M 2881 2131 
Q 2881 2450 2695 2645 
Q 2509 2841 2209 2841 
Q 1884 2841 1681 2658 
Q 1478 2475 1428 2131 
L 2881 2131 
z
" transform="scale(0.015625)"/>
       <path id="DejaVuSans-Bold-66" d="M 2841 4863 
L 2841 4128 
L 2222 4128 
Q 1984 4128 1890 4042 
Q 1797 3956 1797 3744 
L 1797 3500 
L 2753 3500 
L 2753 2700 
L 1797 2700 
L 1797 0 
L 678 0 
L 678 2700 
L 122 2700 
L 122 3500 
L 678 3500 
L 678 3744 
Q 678 4316 997 4589 
Q 1316 4863 1984 4863 
L 2841 4863 
z
" transform="scale(0.015625)"/>
       <path id="DejaVuSans-Bold-4f" d="M 2719 3878 
Q 2169 3878 1866 3472 
Q 1563 3066 1563 2328 
Q 1563 1594 1866 1187 
Q 2169 781 2719 781 
Q 3272 781 3575 1187 
Q 3878 1594 3878 2328 
Q 3878 3066 3575 3472 
Q 3272 3878 2719 3878 
z
M 2719 4750 
Q 3844 4750 4481 4106 
Q 5119 3463 5119 2328 
Q 5119 1197 4481 553 
Q 3844 -91 2719 -91 
Q 1597 -91 958 553 
Q 319 1197 319 2328 
Q 319 3463 958 4106 
Q 1597 4750 2719 4750 
z
" transform="scale(0.015625)"/>
       <path id="DejaVuSans-Bold-6e" d="M 4056 2131 
L 4056 0 
L 2931 0 
L 2931 347 
L 2931 1631 
Q 2931 2084 2911 2256 
Q 2891 2428 2841 2509 
Q 2775 2619 2662 2680 
Q 2550 2741 2406 2741 
Q 2056 2741 1856 2470 
Q 1656 2200 1656 1722 
L 1656 0 
L 538 0 
L 538 3500 
L 1656 3500 
L 1656 2988 
Q 1909 3294 2193 3439 
Q 2478 3584 2822 3584 
Q 3428 3584 3742 3212 
Q 4056 2841 4056 2131 
z
" transform="scale(0.015625)"/>
       <path id="DejaVuSans-Bold-73" d="M 3272 3391 
L 3272 2541 
Q 2913 2691 2578 2766 
Q 2244 2841 1947 2841 
Q 1628 2841 1473 2761 
Q 1319 2681 1319 2516 
Q 1319 2381 1436 2309 
Q 1553 2238 1856 2203 
L 2053 2175 
Q 2913 2066 3209 1816 
Q 3506 1566 3506 1031 
Q 3506 472 3093 190 
Q 2681 -91 1863 -91 
Q 1516 -91 1145 -36 
Q 775 19 384 128 
L 384 978 
Q 719 816 1070 734 
Q 1422 653 1784 653 
Q 2113 653 2278 743 
Q 2444 834 2444 1013 
Q 2444 1163 2330 1236 
Q 2216 1309 1875 1350 
L 1678 1375 
Q 931 1469 631 1722 
Q 331 1975 331 2491 
Q 331 3047 712 3315 
Q 1094 3584 1881 3584 
Q 2191 3584 2531 3537 
Q 2872 3491 3272 3391 
z
" transform="scale(0.015625)"/>
      </defs>
      <use xlink:href="#DejaVuSans-Bold-4e"/>
      <use xlink:href="#DejaVuSans-Bold-75" transform="translate(83.691406 0)"/>
      <use xlink:href="#DejaVuSans-Bold-6d" transform="translate(154.882812 0)"/>
      <use xlink:href="#DejaVuSans-Bold-62" transform="translate(259.082031 0)"/>
      <use xlink:href="#DejaVuSans-Bold-65" transform="translate(330.664062 0)"/>
      <use xlink:href="#DejaVuSans-Bold-72" transform="translate(398.486328 0)"/>
      <use xlink:href="#DejaVuSans-Bold-20" transform="translate(447.802734 0)"/>
      <use xlink:href="#DejaVuSans-Bold-6f" transform="translate(482.617188 0)"/>
      <use xlink:href="#DejaVuSans-Bold-66" transform="translate(551.318359 0)"/>
      <use xlink:href="#DejaVuSans-Bold-20" transform="translate(594.824219 0)"/>
      <use xlink:href="#DejaVuSans-Bold-4f" transform="translate(629.638672 0)"/>
      <use xlink:href="#DejaVuSans-Bold-63" transform="translate(714.648438 0)"/>
      <use xlink:href="#DejaVuSans-Bold-63" transform="translate(773.925781 0)"/>
      <use xlink:href="#DejaVuSans-Bold-75" transform="translate(833.203125 0)"/>
      <use xlink:href="#DejaVuSans-Bold-72" transform="translate(904.394531 0)"/>
      <use xlink:href="#DejaVuSans-Bold-72" transform="translate(953.710938 0)"/>
      <use xlink:href="#DejaVuSans-Bold-65" transform="translate(1003.027344 0)"/>
      <use xlink:href="#DejaVuSans-Bold-6e" transform="translate(1070.849609 0)"/>
      <use xlink:href="#DejaVuSans-Bold-63" transform="translate(1142.041016 0)"/>
      <use xlink:href="#DejaVuSans-Bold-65" transform="translate(1201.318359 0)"/>
      <use xlink:href="#DejaVuSans-Bold-73" transform="translate(1269.140625 0)"/>
     </g>
    </g>
   </g>
   <g id="patch_3">
    <path d="M 86.227614 375.909812 
L 101.394694 375.909812 
L 101.394694 295.416479 
L 86.227614 295.416479 
z
" clip-path="url(#pd5053dabcc)" style="fill: #4ecdc4; opacity: 0.7; stroke: #000000; stroke-width: 0.5; stroke-linejoin: miter"/>
   </g>
   <g id="patch_4">
    <path d="M 105.186463 375.909812 
L 120.353543 375.909812 
L 120.353543 335.663146 
L 105.186463 335.663146 
z
" clip-path="url(#pd5053dabcc)" style="fill: #4ecdc4; opacity: 0.7; stroke: #000000; stroke-width: 0.5; stroke-linejoin: miter"/>
   </g>
   <g id="patch_5">
    <path d="M 124.145313 375.909812 
L 139.312393 375.909812 
L 139.312393 295.416479 
L 124.145313 295.416479 
z
" clip-path="url(#pd5053dabcc)" style="fill: #4ecdc4; opacity: 0.7; stroke: #000000; stroke-width: 0.5; stroke-linejoin: miter"/>
   </g>
   <g id="patch_6">
    <path d="M 143.104163 375.909812 
L 158.271243 375.909812 
L 158.271243 335.663146 
L 143.104163 335.663146 
z
" clip-path="url(#pd5053dabcc)" style="fill: #4ecdc4; opacity: 0.7; stroke: #000000; stroke-width: 0.5; stroke-linejoin: miter"/>
   </g>
   <g id="patch_7">
    <path d="M 162.063013 375.909812 
L 177.230093 375.909812 
L 177.230093 295.416479 
L 162.063013 295.416479 
z
" clip-path="url(#pd5053dabcc)" style="fill: #4ecdc4; opacity: 0.7; stroke: #000000; stroke-width: 0.5; stroke-linejoin: miter"/>
   </g>
   <g id="patch_8">
    <path d="M 181.021863 375.909812 
L 196.188943 375.909812 
L 196.188943 295.416479 
L 181.021863 295.416479 
z
" clip-path="url(#pd5053dabcc)" style="fill: #4ecdc4; opacity: 0.7; stroke: #000000; stroke-width: 0.5; stroke-linejoin: miter"/>
   </g>
   <g id="patch_9">
    <path d="M 199.980713 375.909812 
L 215.147793 375.909812 
L 215.147793 295.416479 
L 199.980713 295.416479 
z
" clip-path="url(#pd5053dabcc)" style="fill: #4ecdc4; opacity: 0.7; stroke: #000000; stroke-width: 0.5; stroke-linejoin: miter"/>
   </g>
   <g id="patch_10">
    <path d="M 218.939563 375.909812 
L 234.106643 375.909812 
L 234.106643 214.923146 
L 218.939563 214.923146 
z
" clip-path="url(#pd5053dabcc)" style="fill: #4ecdc4; opacity: 0.7; stroke: #000000; stroke-width: 0.5; stroke-linejoin: miter"/>
   </g>
   <g id="patch_11">
    <path d="M 237.898413 375.909812 
L 253.065492 375.909812 
L 253.065492 295.416479 
L 237.898413 295.416479 
z
" clip-path="url(#pd5053dabcc)" style="fill: #4ecdc4; opacity: 0.7; stroke: #000000; stroke-width: 0.5; stroke-linejoin: miter"/>
   </g>
   <g id="patch_12">
    <path d="M 256.857262 375.909812 
L 272.024342 375.909812 
L 272.024342 295.416479 
L 256.857262 295.416479 
z
" clip-path="url(#pd5053dabcc)" style="fill: #4ecdc4; opacity: 0.7; stroke: #000000; stroke-width: 0.5; stroke-linejoin: miter"/>
   </g>
   <g id="patch_13">
    <path d="M 275.816112 375.909812 
L 290.983192 375.909812 
L 290.983192 255.169812 
L 275.816112 255.169812 
z
" clip-path="url(#pd5053dabcc)" style="fill: #4ecdc4; opacity: 0.7; stroke: #000000; stroke-width: 0.5; stroke-linejoin: miter"/>
   </g>
   <g id="patch_14">
    <path d="M 294.774962 375.909812 
L 309.942042 375.909812 
L 309.942042 214.923146 
L 294.774962 214.923146 
z
" clip-path="url(#pd5053dabcc)" style="fill: #4ecdc4; opacity: 0.7; stroke: #000000; stroke-width: 0.5; stroke-linejoin: miter"/>
   </g>
   <g id="patch_15">
    <path d="M 313.733812 375.909812 
L 328.900892 375.909812 
L 328.900892 255.169812 
L 313.733812 255.169812 
z
" clip-path="url(#pd5053dabcc)" style="fill: #4ecdc4; opacity: 0.7; stroke: #000000; stroke-width: 0.5; stroke-linejoin: miter"/>
   </g>
   <g id="patch_16">
    <path d="M 332.692662 375.909812 
L 347.859742 375.909812 
L 347.859742 134.429812 
L 332.692662 134.429812 
z
" clip-path="url(#pd5053dabcc)" style="fill: #4ecdc4; opacity: 0.7; stroke: #000000; stroke-width: 0.5; stroke-linejoin: miter"/>
   </g>
   <g id="patch_17">
    <path d="M 351.651512 375.909812 
L 366.818592 375.909812 
L 366.818592 255.169812 
L 351.651512 255.169812 
z
" clip-path="url(#pd5053dabcc)" style="fill: #4ecdc4; opacity: 0.7; stroke: #000000; stroke-width: 0.5; stroke-linejoin: miter"/>
   </g>
   <g id="patch_18">
    <path d="M 370.610362 375.909812 
L 385.777441 375.909812 
L 385.777441 214.923146 
L 370.610362 214.923146 
z
" clip-path="url(#pd5053dabcc)" style="fill: #4ecdc4; opacity: 0.7; stroke: #000000; stroke-width: 0.5; stroke-linejoin: miter"/>
   </g>
   <g id="patch_19">
    <path d="M 389.569211 375.909812 
L 404.736291 375.909812 
L 404.736291 174.676479 
L 389.569211 174.676479 
z
" clip-path="url(#pd5053dabcc)" style="fill: #4ecdc4; opacity: 0.7; stroke: #000000; stroke-width: 0.5; stroke-linejoin: miter"/>
   </g>
   <g id="patch_20">
    <path d="M 408.528061 375.909812 
L 423.695141 375.909812 
L 423.695141 214.923146 
L 408.528061 214.923146 
z
" clip-path="url(#pd5053dabcc)" style="fill: #4ecdc4; opacity: 0.7; stroke: #000000; stroke-width: 0.5; stroke-linejoin: miter"/>
   </g>
   <g id="patch_21">
    <path d="M 427.486911 375.909812 
L 442.653991 375.909812 
L 442.653991 134.429812 
L 427.486911 134.429812 
z
" clip-path="url(#pd5053dabcc)" style="fill: #4ecdc4; opacity: 0.7; stroke: #000000; stroke-width: 0.5; stroke-linejoin: miter"/>
   </g>
   <g id="patch_22">
    <path d="M 446.445761 375.909812 
L 461.612841 375.909812 
L 461.612841 134.429812 
L 446.445761 134.429812 
z
" clip-path="url(#pd5053dabcc)" style="fill: #4ecdc4; opacity: 0.7; stroke: #000000; stroke-width: 0.5; stroke-linejoin: miter"/>
   </g>
   <g id="patch_23">
    <path d="M 465.404611 375.909812 
L 480.571691 375.909812 
L 480.571691 174.676479 
L 465.404611 174.676479 
z
" clip-path="url(#pd5053dabcc)" style="fill: #4ecdc4; opacity: 0.7; stroke: #000000; stroke-width: 0.5; stroke-linejoin: miter"/>
   </g>
   <g id="patch_24">
    <path d="M 484.363461 375.909812 
L 499.530541 375.909812 
L 499.530541 94.183146 
L 484.363461 94.183146 
z
" clip-path="url(#pd5053dabcc)" style="fill: #4ecdc4; opacity: 0.7; stroke: #000000; stroke-width: 0.5; stroke-linejoin: miter"/>
   </g>
   <g id="patch_25">
    <path d="M 503.322311 375.909812 
L 518.48939 375.909812 
L 518.48939 174.676479 
L 503.322311 174.676479 
z
" clip-path="url(#pd5053dabcc)" style="fill: #4ecdc4; opacity: 0.7; stroke: #000000; stroke-width: 0.5; stroke-linejoin: miter"/>
   </g>
   <g id="patch_26">
    <path d="M 522.28116 375.909812 
L 537.44824 375.909812 
L 537.44824 94.183146 
L 522.28116 94.183146 
z
" clip-path="url(#pd5053dabcc)" style="fill: #4ecdc4; opacity: 0.7; stroke: #000000; stroke-width: 0.5; stroke-linejoin: miter"/>
   </g>
   <g id="patch_27">
    <path d="M 541.24001 375.909812 
L 556.40709 375.909812 
L 556.40709 174.676479 
L 541.24001 174.676479 
z
" clip-path="url(#pd5053dabcc)" style="fill: #4ecdc4; opacity: 0.7; stroke: #000000; stroke-width: 0.5; stroke-linejoin: miter"/>
   </g>
   <g id="patch_28">
    <path d="M 560.19886 375.909812 
L 575.36594 375.909812 
L 575.36594 174.676479 
L 560.19886 174.676479 
z
" clip-path="url(#pd5053dabcc)" style="fill: #4ecdc4; opacity: 0.7; stroke: #000000; stroke-width: 0.5; stroke-linejoin: miter"/>
   </g>
   <g id="patch_29">
    <path d="M 579.15771 375.909812 
L 594.32479 375.909812 
L 594.32479 134.429812 
L 579.15771 134.429812 
z
" clip-path="url(#pd5053dabcc)" style="fill: #4ecdc4; opacity: 0.7; stroke: #000000; stroke-width: 0.5; stroke-linejoin: miter"/>
   </g>
   <g id="patch_30">
    <path d="M 598.11656 375.909812 
L 613.28364 375.909812 
L 613.28364 174.676479 
L 598.11656 174.676479 
z
" clip-path="url(#pd5053dabcc)" style="fill: #4ecdc4; opacity: 0.7; stroke: #000000; stroke-width: 0.5; stroke-linejoin: miter"/>
   </g>
   <g id="patch_31">
    <path d="M 617.07541 375.909812 
L 632.24249 375.909812 
L 632.24249 174.676479 
L 617.07541 174.676479 
z
" clip-path="url(#pd5053dabcc)" style="fill: #4ecdc4; opacity: 0.7; stroke: #000000; stroke-width: 0.5; stroke-linejoin: miter"/>
   </g>
   <g id="patch_32">
    <path d="M 636.03426 375.909812 
L 651.20134 375.909812 
L 651.20134 134.429812 
L 636.03426 134.429812 
z
" clip-path="url(#pd5053dabcc)" style="fill: #4ecdc4; opacity: 0.7; stroke: #000000; stroke-width: 0.5; stroke-linejoin: miter"/>
   </g>
   <g id="patch_33">
    <path d="M 654.99311 375.909812 
L 670.160189 375.909812 
L 670.160189 174.676479 
L 654.99311 174.676479 
z
" clip-path="url(#pd5053dabcc)" style="fill: #4ecdc4; opacity: 0.7; stroke: #000000; stroke-width: 0.5; stroke-linejoin: miter"/>
   </g>
   <g id="patch_34">
    <path d="M 673.951959 375.909812 
L 689.119039 375.909812 
L 689.119039 134.429812 
L 673.951959 134.429812 
z
" clip-path="url(#pd5053dabcc)" style="fill: #4ecdc4; opacity: 0.7; stroke: #000000; stroke-width: 0.5; stroke-linejoin: miter"/>
   </g>
   <g id="patch_35">
    <path d="M 692.910809 375.909812 
L 708.077889 375.909812 
L 708.077889 134.429812 
L 692.910809 134.429812 
z
" clip-path="url(#pd5053dabcc)" style="fill: #4ecdc4; opacity: 0.7; stroke: #000000; stroke-width: 0.5; stroke-linejoin: miter"/>
   </g>
   <g id="patch_36">
    <path d="M 711.869659 375.909812 
L 727.036739 375.909812 
L 727.036739 214.923146 
L 711.869659 214.923146 
z
" clip-path="url(#pd5053dabcc)" style="fill: #4ecdc4; opacity: 0.7; stroke: #000000; stroke-width: 0.5; stroke-linejoin: miter"/>
   </g>
   <g id="patch_37">
    <path d="M 730.828509 375.909812 
L 745.995589 375.909812 
L 745.995589 53.936479 
L 730.828509 53.936479 
z
" clip-path="url(#pd5053dabcc)" style="fill: #4ecdc4; opacity: 0.7; stroke: #000000; stroke-width: 0.5; stroke-linejoin: miter"/>
   </g>
   <g id="patch_38">
    <path d="M 749.787359 375.909812 
L 764.954439 375.909812 
L 764.954439 214.923146 
L 749.787359 214.923146 
z
" clip-path="url(#pd5053dabcc)" style="fill: #4ecdc4; opacity: 0.7; stroke: #000000; stroke-width: 0.5; stroke-linejoin: miter"/>
   </g>
   <g id="patch_39">
    <path d="M 768.746209 375.909812 
L 783.913289 375.909812 
L 783.913289 255.169812 
L 768.746209 255.169812 
z
" clip-path="url(#pd5053dabcc)" style="fill: #4ecdc4; opacity: 0.7; stroke: #000000; stroke-width: 0.5; stroke-linejoin: miter"/>
   </g>
   <g id="patch_40">
    <path d="M 787.705059 375.909812 
L 802.872138 375.909812 
L 802.872138 134.429812 
L 787.705059 134.429812 
z
" clip-path="url(#pd5053dabcc)" style="fill: #4ecdc4; opacity: 0.7; stroke: #000000; stroke-width: 0.5; stroke-linejoin: miter"/>
   </g>
   <g id="patch_41">
    <path d="M 806.663908 375.909812 
L 821.830988 375.909812 
L 821.830988 255.169812 
L 806.663908 255.169812 
z
" clip-path="url(#pd5053dabcc)" style="fill: #4ecdc4; opacity: 0.7; stroke: #000000; stroke-width: 0.5; stroke-linejoin: miter"/>
   </g>
   <g id="patch_42">
    <path d="M 825.622758 375.909812 
L 840.789838 375.909812 
L 840.789838 214.923146 
L 825.622758 214.923146 
z
" clip-path="url(#pd5053dabcc)" style="fill: #4ecdc4; opacity: 0.7; stroke: #000000; stroke-width: 0.5; stroke-linejoin: miter"/>
   </g>
   <g id="patch_43">
    <path d="M 844.581608 375.909812 
L 859.748688 375.909812 
L 859.748688 174.676479 
L 844.581608 174.676479 
z
" clip-path="url(#pd5053dabcc)" style="fill: #4ecdc4; opacity: 0.7; stroke: #000000; stroke-width: 0.5; stroke-linejoin: miter"/>
   </g>
   <g id="patch_44">
    <path d="M 863.540458 375.909812 
L 878.707538 375.909812 
L 878.707538 255.169812 
L 863.540458 255.169812 
z
" clip-path="url(#pd5053dabcc)" style="fill: #4ecdc4; opacity: 0.7; stroke: #000000; stroke-width: 0.5; stroke-linejoin: miter"/>
   </g>
   <g id="patch_45">
    <path d="M 882.499308 375.909812 
L 897.666388 375.909812 
L 897.666388 255.169812 
L 882.499308 255.169812 
z
" clip-path="url(#pd5053dabcc)" style="fill: #4ecdc4; opacity: 0.7; stroke: #000000; stroke-width: 0.5; stroke-linejoin: miter"/>
   </g>
   <g id="patch_46">
    <path d="M 901.458158 375.909812 
L 916.625238 375.909812 
L 916.625238 255.169812 
L 901.458158 255.169812 
z
" clip-path="url(#pd5053dabcc)" style="fill: #4ecdc4; opacity: 0.7; stroke: #000000; stroke-width: 0.5; stroke-linejoin: miter"/>
   </g>
   <g id="patch_47">
    <path d="M 920.417008 375.909812 
L 935.584087 375.909812 
L 935.584087 295.416479 
L 920.417008 295.416479 
z
" clip-path="url(#pd5053dabcc)" style="fill: #4ecdc4; opacity: 0.7; stroke: #000000; stroke-width: 0.5; stroke-linejoin: miter"/>
   </g>
   <g id="patch_48">
    <path d="M 939.375857 375.909812 
L 954.542937 375.909812 
L 954.542937 295.416479 
L 939.375857 295.416479 
z
" clip-path="url(#pd5053dabcc)" style="fill: #4ecdc4; opacity: 0.7; stroke: #000000; stroke-width: 0.5; stroke-linejoin: miter"/>
   </g>
   <g id="patch_49">
    <path d="M 958.334707 375.909812 
L 973.501787 375.909812 
L 973.501787 214.923146 
L 958.334707 214.923146 
z
" clip-path="url(#pd5053dabcc)" style="fill: #4ecdc4; opacity: 0.7; stroke: #000000; stroke-width: 0.5; stroke-linejoin: miter"/>
   </g>
   <g id="patch_50">
    <path d="M 977.293557 375.909812 
L 992.460637 375.909812 
L 992.460637 295.416479 
L 977.293557 295.416479 
z
" clip-path="url(#pd5053dabcc)" style="fill: #4ecdc4; opacity: 0.7; stroke: #000000; stroke-width: 0.5; stroke-linejoin: miter"/>
   </g>
   <g id="patch_51">
    <path d="M 996.252407 375.909812 
L 1011.419487 375.909812 
L 1011.419487 295.416479 
L 996.252407 295.416479 
z
" clip-path="url(#pd5053dabcc)" style="fill: #4ecdc4; opacity: 0.7; stroke: #000000; stroke-width: 0.5; stroke-linejoin: miter"/>
   </g>
   <g id="patch_52">
    <path d="M 1015.211257 375.909812 
L 1030.378337 375.909812 
L 1030.378337 335.663146 
L 1015.211257 335.663146 
z
" clip-path="url(#pd5053dabcc)" style="fill: #4ecdc4; opacity: 0.7; stroke: #000000; stroke-width: 0.5; stroke-linejoin: miter"/>
   </g>
   <g id="patch_53">
    <path d="M 1034.170107 375.909812 
L 1049.337187 375.909812 
L 1049.337187 295.416479 
L 1034.170107 295.416479 
z
" clip-path="url(#pd5053dabcc)" style="fill: #4ecdc4; opacity: 0.7; stroke: #000000; stroke-width: 0.5; stroke-linejoin: miter"/>
   </g>
   <g id="patch_54">
    <path d="M 1053.128957 375.909812 
L 1068.296037 375.909812 
L 1068.296037 335.663146 
L 1053.128957 335.663146 
z
" clip-path="url(#pd5053dabcc)" style="fill: #4ecdc4; opacity: 0.7; stroke: #000000; stroke-width: 0.5; stroke-linejoin: miter"/>
   </g>
   <g id="patch_55">
    <path d="M 1072.087806 375.909812 
L 1087.254886 375.909812 
L 1087.254886 335.663146 
L 1072.087806 335.663146 
z
" clip-path="url(#pd5053dabcc)" style="fill: #4ecdc4; opacity: 0.7; stroke: #000000; stroke-width: 0.5; stroke-linejoin: miter"/>
   </g>
   <g id="patch_56">
    <path d="M 86.227614 375.909812 
L 101.394694 375.909812 
L 101.394694 375.909812 
L 86.227614 375.909812 
z
" clip-path="url(#pd5053dabcc)" style="fill: #ff6b6b; opacity: 0.8; stroke: #000000; stroke-width: 0.5; stroke-linejoin: miter"/>
   </g>
   <g id="patch_57">
    <path d="M 105.186463 375.909812 
L 120.353543 375.909812 
L 120.353543 375.909812 
L 105.186463 375.909812 
z
" clip-path="url(#pd5053dabcc)" style="fill: #ff6b6b; opacity: 0.8; stroke: #000000; stroke-width: 0.5; stroke-linejoin: miter"/>
   </g>
   <g id="patch_58">
    <path d="M 124.145313 375.909812 
L 139.312393 375.909812 
L 139.312393 375.909812 
L 124.145313 375.909812 
z
" clip-path="url(#pd5053dabcc)" style="fill: #ff6b6b; opacity: 0.8; stroke: #000000; stroke-width: 0.5; stroke-linejoin: miter"/>
   </g>
   <g id="patch_59">
    <path d="M 143.104163 375.909812 
L 158.271243 375.909812 
L 158.271243 375.909812 
L 143.104163 375.909812 
z
" clip-path="url(#pd5053dabcc)" style="fill: #ff6b6b; opacity: 0.8; stroke: #000000; stroke-width: 0.5; stroke-linejoin: miter"/>
   </g>
   <g id="patch_60">
    <path d="M 162.063013 375.909812 
L 177.230093 375.909812 
L 177.230093 295.416479 
L 162.063013 295.416479 
z
" clip-path="url(#pd5053dabcc)" style="fill: #ff6b6b; opacity: 0.8; stroke: #000000; stroke-width: 0.5; stroke-linejoin: miter"/>
   </g>
   <g id="patch_61">
    <path d="M 181.021863 375.909812 
L 196.188943 375.909812 
L 196.188943 335.663146 
L 181.021863 335.663146 
z
" clip-path="url(#pd5053dabcc)" style="fill: #ff6b6b; opacity: 0.8; stroke: #000000; stroke-width: 0.5; stroke-linejoin: miter"/>
   </g>
   <g id="patch_62">
    <path d="M 199.980713 375.909812 
L 215.147793 375.909812 
L 215.147793 335.663146 
L 199.980713 335.663146 
z
" clip-path="url(#pd5053dabcc)" style="fill: #ff6b6b; opacity: 0.8; stroke: #000000; stroke-width: 0.5; stroke-linejoin: miter"/>
   </g>
   <g id="patch_63">
    <path d="M 218.939563 375.909812 
L 234.106643 375.909812 
L 234.106643 295.416479 
L 218.939563 295.416479 
z
" clip-path="url(#pd5053dabcc)" style="fill: #ff6b6b; opacity: 0.8; stroke: #000000; stroke-width: 0.5; stroke-linejoin: miter"/>
   </g>
   <g id="patch_64">
    <path d="M 237.898413 375.909812 
L 253.065492 375.909812 
L 253.065492 335.663146 
L 237.898413 335.663146 
z
" clip-path="url(#pd5053dabcc)" style="fill: #ff6b6b; opacity: 0.8; stroke: #000000; stroke-width: 0.5; stroke-linejoin: miter"/>
   </g>
   <g id="patch_65">
    <path d="M 256.857262 375.909812 
L 272.024342 375.909812 
L 272.024342 335.663146 
L 256.857262 335.663146 
z
" clip-path="url(#pd5053dabcc)" style="fill: #ff6b6b; opacity: 0.8; stroke: #000000; stroke-width: 0.5; stroke-linejoin: miter"/>
   </g>
   <g id="patch_66">
    <path d="M 275.816112 375.909812 
L 290.983192 375.909812 
L 290.983192 255.169812 
L 275.816112 255.169812 
z
" clip-path="url(#pd5053dabcc)" style="fill: #ff6b6b; opacity: 0.8; stroke: #000000; stroke-width: 0.5; stroke-linejoin: miter"/>
   </g>
   <g id="patch_67">
    <path d="M 294.774962 375.909812 
L 309.942042 375.909812 
L 309.942042 255.169812 
L 294.774962 255.169812 
z
" clip-path="url(#pd5053dabcc)" style="fill: #ff6b6b; opacity: 0.8; stroke: #000000; stroke-width: 0.5; stroke-linejoin: miter"/>
   </g>
   <g id="patch_68">
    <path d="M 313.733812 375.909812 
L 328.900892 375.909812 
L 328.900892 295.416479 
L 313.733812 295.416479 
z
" clip-path="url(#pd5053dabcc)" style="fill: #ff6b6b; opacity: 0.8; stroke: #000000; stroke-width: 0.5; stroke-linejoin: miter"/>
   </g>
   <g id="patch_69">
    <path d="M 332.692662 375.909812 
L 347.859742 375.909812 
L 347.859742 295.416479 
L 332.692662 295.416479 
z
" clip-path="url(#pd5053dabcc)" style="fill: #ff6b6b; opacity: 0.8; stroke: #000000; stroke-width: 0.5; stroke-linejoin: miter"/>
   </g>
   <g id="patch_70">
    <path d="M 351.651512 375.909812 
L 366.818592 375.909812 
L 366.818592 335.663146 
L 351.651512 335.663146 
z
" clip-path="url(#pd5053dabcc)" style="fill: #ff6b6b; opacity: 0.8; stroke: #000000; stroke-width: 0.5; stroke-linejoin: miter"/>
   </g>
   <g id="patch_71">
    <path d="M 370.610362 375.909812 
L 385.777441 375.909812 
L 385.777441 335.663146 
L 370.610362 335.663146 
z
" clip-path="url(#pd5053dabcc)" style="fill: #ff6b6b; opacity: 0.8; stroke: #000000; stroke-width: 0.5; stroke-linejoin: miter"/>
   </g>
   <g id="patch_72">
    <path d="M 389.569211 375.909812 
L 404.736291 375.909812 
L 404.736291 214.923146 
L 389.569211 214.923146 
z
" clip-path="url(#pd5053dabcc)" style="fill: #ff6b6b; opacity: 0.8; stroke: #000000; stroke-width: 0.5; stroke-linejoin: miter"/>
   </g>
   <g id="patch_73">
    <path d="M 408.528061 375.909812 
L 423.695141 375.909812 
L 423.695141 295.416479 
L 408.528061 295.416479 
z
" clip-path="url(#pd5053dabcc)" style="fill: #ff6b6b; opacity: 0.8; stroke: #000000; stroke-width: 0.5; stroke-linejoin: miter"/>
   </g>
   <g id="patch_74">
    <path d="M 427.486911 375.909812 
L 442.653991 375.909812 
L 442.653991 295.416479 
L 427.486911 295.416479 
z
" clip-path="url(#pd5053dabcc)" style="fill: #ff6b6b; opacity: 0.8; stroke: #000000; stroke-width: 0.5; stroke-linejoin: miter"/>
   </g>
   <g id="patch_75">
    <path d="M 446.445761 375.909812 
L 461.612841 375.909812 
L 461.612841 255.169812 
L 446.445761 255.169812 
z
" clip-path="url(#pd5053dabcc)" style="fill: #ff6b6b; opacity: 0.8; stroke: #000000; stroke-width: 0.5; stroke-linejoin: miter"/>
   </g>
   <g id="patch_76">
    <path d="M 465.404611 375.909812 
L 480.571691 375.909812 
L 480.571691 295.416479 
L 465.404611 295.416479 
z
" clip-path="url(#pd5053dabcc)" style="fill: #ff6b6b; opacity: 0.8; stroke: #000000; stroke-width: 0.5; stroke-linejoin: miter"/>
   </g>
   <g id="patch_77">
    <path d="M 484.363461 375.909812 
L 499.530541 375.909812 
L 499.530541 295.416479 
L 484.363461 295.416479 
z
" clip-path="url(#pd5053dabcc)" style="fill: #ff6b6b; opacity: 0.8; stroke: #000000; stroke-width: 0.5; stroke-linejoin: miter"/>
   </g>
   <g id="patch_78">
    <path d="M 503.322311 375.909812 
L 518.48939 375.909812 
L 518.48939 255.169812 
L 503.322311 255.169812 
z
" clip-path="url(#pd5053dabcc)" style="fill: #ff6b6b; opacity: 0.8; stroke: #000000; stroke-width: 0.5; stroke-linejoin: miter"/>
   </g>
   <g id="patch_79">
    <path d="M 522.28116 375.909812 
L 537.44824 375.909812 
L 537.44824 255.169812 
L 522.28116 255.169812 
z
" clip-path="url(#pd5053dabcc)" style="fill: #ff6b6b; opacity: 0.8; stroke: #000000; stroke-width: 0.5; stroke-linejoin: miter"/>
   </g>
   <g id="patch_80">
    <path d="M 541.24001 375.909812 
L 556.40709 375.909812 
L 556.40709 295.416479 
L 541.24001 295.416479 
z
" clip-path="url(#pd5053dabcc)" style="fill: #ff6b6b; opacity: 0.8; stroke: #000000; stroke-width: 0.5; stroke-linejoin: miter"/>
   </g>
   <g id="patch_81">
    <path d="M 560.19886 375.909812 
L 575.36594 375.909812 
L 575.36594 295.416479 
L 560.19886 295.416479 
z
" clip-path="url(#pd5053dabcc)" style="fill: #ff6b6b; opacity: 0.8; stroke: #000000; stroke-width: 0.5; stroke-linejoin: miter"/>
   </g>
   <g id="patch_82">
    <path d="M 579.15771 375.909812 
L 594.32479 375.909812 
L 594.32479 335.663146 
L 579.15771 335.663146 
z
" clip-path="url(#pd5053dabcc)" style="fill: #ff6b6b; opacity: 0.8; stroke: #000000; stroke-width: 0.5; stroke-linejoin: miter"/>
   </g>
   <g id="patch_83">
    <path d="M 598.11656 375.909812 
L 613.28364 375.909812 
L 613.28364 335.663146 
L 598.11656 335.663146 
z
" clip-path="url(#pd5053dabcc)" style="fill: #ff6b6b; opacity: 0.8; stroke: #000000; stroke-width: 0.5; stroke-linejoin: miter"/>
   </g>
   <g id="patch_84">
    <path d="M 617.07541 375.909812 
L 632.24249 375.909812 
L 632.24249 335.663146 
L 617.07541 335.663146 
z
" clip-path="url(#pd5053dabcc)" style="fill: #ff6b6b; opacity: 0.8; stroke: #000000; stroke-width: 0.5; stroke-linejoin: miter"/>
   </g>
   <g id="patch_85">
    <path d="M 636.03426 375.909812 
L 651.20134 375.909812 
L 651.20134 295.416479 
L 636.03426 295.416479 
z
" clip-path="url(#pd5053dabcc)" style="fill: #ff6b6b; opacity: 0.8; stroke: #000000; stroke-width: 0.5; stroke-linejoin: miter"/>
   </g>
   <g id="patch_86">
    <path d="M 654.99311 375.909812 
L 670.160189 375.909812 
L 670.160189 335.663146 
L 654.99311 335.663146 
z
" clip-path="url(#pd5053dabcc)" style="fill: #ff6b6b; opacity: 0.8; stroke: #000000; stroke-width: 0.5; stroke-linejoin: miter"/>
   </g>
   <g id="patch_87">
    <path d="M 673.951959 375.909812 
L 689.119039 375.909812 
L 689.119039 375.909812 
L 673.951959 375.909812 
z
" clip-path="url(#pd5053dabcc)" style="fill: #ff6b6b; opacity: 0.8; stroke: #000000; stroke-width: 0.5; stroke-linejoin: miter"/>
   </g>
   <g id="patch_88">
    <path d="M 692.910809 375.909812 
L 708.077889 375.909812 
L 708.077889 375.909812 
L 692.910809 375.909812 
z
" clip-path="url(#pd5053dabcc)" style="fill: #ff6b6b; opacity: 0.8; stroke: #000000; stroke-width: 0.5; stroke-linejoin: miter"/>
   </g>
   <g id="patch_89">
    <path d="M 711.869659 375.909812 
L 727.036739 375.909812 
L 727.036739 375.909812 
L 711.869659 375.909812 
z
" clip-path="url(#pd5053dabcc)" style="fill: #ff6b6b; opacity: 0.8; stroke: #000000; stroke-width: 0.5; stroke-linejoin: miter"/>
   </g>
   <g id="patch_90">
    <path d="M 730.828509 375.909812 
L 745.995589 375.909812 
L 745.995589 375.909812 
L 730.828509 375.909812 
z
" clip-path="url(#pd5053dabcc)" style="fill: #ff6b6b; opacity: 0.8; stroke: #000000; stroke-width: 0.5; stroke-linejoin: miter"/>
   </g>
   <g id="patch_91">
    <path d="M 749.787359 375.909812 
L 764.954439 375.909812 
L 764.954439 375.909812 
L 749.787359 375.909812 
z
" clip-path="url(#pd5053dabcc)" style="fill: #ff6b6b; opacity: 0.8; stroke: #000000; stroke-width: 0.5; stroke-linejoin: miter"/>
   </g>
   <g id="patch_92">
    <path d="M 768.746209 375.909812 
L 783.913289 375.909812 
L 783.913289 375.909812 
L 768.746209 375.909812 
z
" clip-path="url(#pd5053dabcc)" style="fill: #ff6b6b; opacity: 0.8; stroke: #000000; stroke-width: 0.5; stroke-linejoin: miter"/>
   </g>
   <g id="patch_93">
    <path d="M 787.705059 375.909812 
L 802.872138 375.909812 
L 802.872138 375.909812 
L 787.705059 375.909812 
z
" clip-path="url(#pd5053dabcc)" style="fill: #ff6b6b; opacity: 0.8; stroke: #000000; stroke-width: 0.5; stroke-linejoin: miter"/>
   </g>
   <g id="patch_94">
    <path d="M 806.663908 375.909812 
L 821.830988 375.909812 
L 821.830988 375.909812 
L 806.663908 375.909812 
z
" clip-path="url(#pd5053dabcc)" style="fill: #ff6b6b; opacity: 0.8; stroke: #000000; stroke-width: 0.5; stroke-linejoin: miter"/>
   </g>
   <g id="patch_95">
    <path d="M 825.622758 375.909812 
L 840.789838 375.909812 
L 840.789838 375.909812 
L 825.622758 375.909812 
z
" clip-path="url(#pd5053dabcc)" style="fill: #ff6b6b; opacity: 0.8; stroke: #000000; stroke-width: 0.5; stroke-linejoin: miter"/>
   </g>
   <g id="patch_96">
    <path d="M 844.581608 375.909812 
L 859.748688 375.909812 
L 859.748688 375.909812 
L 844.581608 375.909812 
z
" clip-path="url(#pd5053dabcc)" style="fill: #ff6b6b; opacity: 0.8; stroke: #000000; stroke-width: 0.5; stroke-linejoin: miter"/>
   </g>
   <g id="patch_97">
    <path d="M 863.540458 375.909812 
L 878.707538 375.909812 
L 878.707538 375.909812 
L 863.540458 375.909812 
z
" clip-path="url(#pd5053dabcc)" style="fill: #ff6b6b; opacity: 0.8; stroke: #000000; stroke-width: 0.5; stroke-linejoin: miter"/>
   </g>
   <g id="patch_98">
    <path d="M 882.499308 375.909812 
L 897.666388 375.909812 
L 897.666388 375.909812 
L 882.499308 375.909812 
z
" clip-path="url(#pd5053dabcc)" style="fill: #ff6b6b; opacity: 0.8; stroke: #000000; stroke-width: 0.5; stroke-linejoin: miter"/>
   </g>
   <g id="patch_99">
    <path d="M 901.458158 375.909812 
L 916.625238 375.909812 
L 916.625238 375.909812 
L 901.458158 375.909812 
z
" clip-path="url(#pd5053dabcc)" style="fill: #ff6b6b; opacity: 0.8; stroke: #000000; stroke-width: 0.5; stroke-linejoin: miter"/>
   </g>
   <g id="patch_100">
    <path d="M 920.417008 375.909812 
L 935.584087 375.909812 
L 935.584087 375.909812 
L 920.417008 375.909812 
z
" clip-path="url(#pd5053dabcc)" style="fill: #ff6b6b; opacity: 0.8; stroke: #000000; stroke-width: 0.5; stroke-linejoin: miter"/>
   </g>
   <g id="patch_101">
    <path d="M 939.375857 375.909812 
L 954.542937 375.909812 
L 954.542937 375.909812 
L 939.375857 375.909812 
z
" clip-path="url(#pd5053dabcc)" style="fill: #ff6b6b; opacity: 0.8; stroke: #000000; stroke-width: 0.5; stroke-linejoin: miter"/>
   </g>
   <g id="patch_102">
    <path d="M 958.334707 375.909812 
L 973.501787 375.909812 
L 973.501787 375.909812 
L 958.334707 375.909812 
z
" clip-path="url(#pd5053dabcc)" style="fill: #ff6b6b; opacity: 0.8; stroke: #000000; stroke-width: 0.5; stroke-linejoin: miter"/>
   </g>
   <g id="patch_103">
    <path d="M 977.293557 375.909812 
L 992.460637 375.909812 
L 992.460637 375.909812 
L 977.293557 375.909812 
z
" clip-path="url(#pd5053dabcc)" style="fill: #ff6b6b; opacity: 0.8; stroke: #000000; stroke-width: 0.5; stroke-linejoin: miter"/>
   </g>
   <g id="patch_104">
    <path d="M 996.252407 375.909812 
L 1011.419487 375.909812 
L 1011.419487 375.909812 
L 996.252407 375.909812 
z
" clip-path="url(#pd5053dabcc)" style="fill: #ff6b6b; opacity: 0.8; stroke: #000000; stroke-width: 0.5; stroke-linejoin: miter"/>
   </g>
   <g id="patch_105">
    <path d="M 1015.211257 375.909812 
L 1030.378337 375.909812 
L 1030.378337 375.909812 
L 1015.211257 375.909812 
z
" clip-path="url(#pd5053dabcc)" style="fill: #ff6b6b; opacity: 0.8; stroke: #000000; stroke-width: 0.5; stroke-linejoin: miter"/>
   </g>
   <g id="patch_106">
    <path d="M 1034.170107 375.909812 
L 1049.337187 375.909812 
L 1049.337187 375.909812 
L 1034.170107 375.909812 
z
" clip-path="url(#pd5053dabcc)" style="fill: #ff6b6b; opacity: 0.8; stroke: #000000; stroke-width: 0.5; stroke-linejoin: miter"/>
   </g>
   <g id="patch_107">
    <path d="M 1053.128957 375.909812 
L 1068.296037 375.909812 
L 1068.296037 375.909812 
L 1053.128957 375.909812 
z
" clip-path="url(#pd5053dabcc)" style="fill: #ff6b6b; opacity: 0.8; stroke: #000000; stroke-width: 0.5; stroke-linejoin: miter"/>
   </g>
   <g id="patch_108">
    <path d="M 1072.087806 375.909812 
L 1087.254886 375.909812 
L 1087.254886 375.909812 
L 1072.087806 375.909812 
z
" clip-path="url(#pd5053dabcc)" style="fill: #ff6b6b; opacity: 0.8; stroke: #000000; stroke-width: 0.5; stroke-linejoin: miter"/>
   </g>
   <g id="line2d_28">
    <path d="M 273.920227 375.909812 
L 273.920227 37.837812 
" clip-path="url(#pd5053dabcc)" style="fill: none; stroke: #000000; stroke-opacity: 0.7; stroke-width: 2; stroke-linecap: square"/>
   </g>
   <g id="line2d_29">
    <path d="M 728.932624 375.909812 
L 728.932624 37.837812 
" clip-path="url(#pd5053dabcc)" style="fill: none; stroke: #000000; stroke-opacity: 0.7; stroke-width: 2; stroke-linecap: square"/>
   </g>
   <g id="patch_109">
    <path d="M 36.17625 375.909812 
L 36.17625 37.837812 
" style="fill: none; stroke: #000000; stroke-width: 0.8; stroke-linejoin: miter; stroke-linecap: square"/>
   </g>
   <g id="patch_110">
    <path d="M 1137.30625 375.909812 
L 1137.30625 37.837812 
" style="fill: none; stroke: #000000; stroke-width: 0.8; stroke-linejoin: miter; stroke-linecap: square"/>
   </g>
   <g id="patch_111">
    <path d="M 36.17625 375.909812 
L 1137.30625 375.909812 
" style="fill: none; stroke: #000000; stroke-width: 0.8; stroke-linejoin: miter; stroke-linecap: square"/>
   </g>
   <g id="patch_112">
    <path d="M 36.17625 37.837812 
L 1137.30625 37.837812 
" style="fill: none; stroke: #000000; stroke-width: 0.8; stroke-linejoin: miter; stroke-linecap: square"/>
   </g>
   <g id="text_21">
    <!-- March Equinox Distribution by Day and Hour (1900-2100 with 2025-2075 Overlay) -->
    <g transform="translate(263.722969 17.837812) scale(0.14 -0.14)">
     <defs>
      <path id="DejaVuSans-Bold-45" d="M 588 4666 
L 3834 4666 
L 3834 3756 
L 1791 3756 
L 1791 2888 
L 3713 2888 
L 3713 1978 
L 1791 1978 
L 1791 909 
L 3903 909 
L 3903 0 
L 588 0 
L 588 4666 
z
" transform="scale(0.015625)"/>
      <path id="DejaVuSans-Bold-71" d="M 2181 2772 
Q 1825 2772 1636 2509 
Q 1447 2247 1447 1747 
Q 1447 1247 1636 984 
Q 1825 722 2181 722 
Q 2541 722 2730 984 
Q 2919 1247 2919 1747 
Q 2919 2247 2730 2509 
Q 2541 2772 2181 2772 
z
M 2919 506 
Q 2688 197 2409 53 
Q 2131 -91 1766 -91 
Q 1119 -91 703 423 
Q 288 938 288 1747 
Q 288 2556 703 3067 
Q 1119 3578 1766 3578 
Q 2131 3578 2409 3434 
Q 2688 3291 2919 2981 
L 2919 3500 
L 4044 3500 
L 4044 -1331 
L 2919 -1331 
L 2919 506 
z
" transform="scale(0.015625)"/>
      <path id="DejaVuSans-Bold-69" d="M 538 3500 
L 1656 3500 
L 1656 0 
L 538 0 
L 538 3500 
z
M 538 4863 
L 1656 4863 
L 1656 3950 
L 538 3950 
L 538 4863 
z
" transform="scale(0.015625)"/>
      <path id="DejaVuSans-Bold-78" d="M 1422 1791 
L 159 3500 
L 1344 3500 
L 2059 2463 
L 2784 3500 
L 3969 3500 
L 2706 1797 
L 4031 0 
L 2847 0 
L 2059 1106 
L 1281 0 
L 97 0 
L 1422 1791 
z
" transform="scale(0.015625)"/>
      <path id="DejaVuSans-Bold-74" d="M 1759 4494 
L 1759 3500 
L 2913 3500 
L 2913 2700 
L 1759 2700 
L 1759 1216 
Q 1759 972 1856 886 
Q 1953 800 2241 800 
L 2816 800 
L 2816 0 
L 1856 0 
Q 1194 0 917 276 
Q 641 553 641 1216 
L 641 2700 
L 84 2700 
L 84 3500 
L 641 3500 
L 641 4494 
L 1759 4494 
z
" transform="scale(0.015625)"/>
      <path id="DejaVuSans-Bold-64" d="M 2919 2988 
L 2919 4863 
L 4044 4863 
L 4044 0 
L 2919 0 
L 2919 506 
Q 2688 197 2409 53 
Q 2131 -91 1766 -91 
Q 1119 -91 703 423 
Q 288 938 288 1747 
Q 288 2556 703 3070 
Q 1119 3584 1766 3584 
Q 2128 3584 2408 3439 
Q 2688 3294 2919 2988 
z
M 2181 722 
Q 2541 722 2730 984 
Q 2919 1247 2919 1747 
Q 2919 2247 2730 2509 
Q 2541 2772 2181 2772 
Q 1825 2772 1636 2509 
Q 1447 2247 1447 1747 
Q 1447 1247 1636 984 
Q 1825 722 2181 722 
z
" transform="scale(0.015625)"/>
      <path id="DejaVuSans-Bold-31" d="M 750 831 
L 1813 831 
L 1813 3847 
L 722 3622 
L 722 4441 
L 1806 4666 
L 2950 4666 
L 2950 831 
L 4013 831 
L 4013 0 
L 750 0 
L 750 831 
z
" transform="scale(0.015625)"/>
      <path id="DejaVuSans-Bold-39" d="M 641 103 
L 641 966 
Q 928 831 1190 764 
Q 1453 697 1709 697 
Q 2247 697 2547 995 
Q 2847 1294 2900 1881 
Q 2688 1725 2447 1647 
Q 2206 1569 1925 1569 
Q 1209 1569 770 1986 
Q 331 2403 331 3084 
Q 331 3838 820 4291 
Q 1309 4744 2131 4744 
Q 3044 4744 3544 4128 
Q 4044 3513 4044 2388 
Q 4044 1231 3459 570 
Q 2875 -91 1856 -91 
Q 1528 -91 1228 -42 
Q 928 6 641 103 
z
M 2125 2350 
Q 2441 2350 2600 2554 
Q 2759 2759 2759 3169 
Q 2759 3575 2600 3781 
Q 2441 3988 2125 3988 
Q 1809 3988 1650 3781 
Q 1491 3575 1491 3169 
Q 1491 2759 1650 2554 
Q 1809 2350 2125 2350 
z
" transform="scale(0.015625)"/>
      <path id="DejaVuSans-Bold-30" d="M 2944 2338 
Q 2944 3213 2780 3570 
Q 2616 3928 2228 3928 
Q 1841 3928 1675 3570 
Q 1509 3213 1509 2338 
Q 1509 1453 1675 1090 
Q 1841 728 2228 728 
Q 2613 728 2778 1090 
Q 2944 1453 2944 2338 
z
M 4147 2328 
Q 4147 1169 3647 539 
Q 3147 -91 2228 -91 
Q 1306 -91 806 539 
Q 306 1169 306 2328 
Q 306 3491 806 4120 
Q 1306 4750 2228 4750 
Q 3147 4750 3647 4120 
Q 4147 3491 4147 2328 
z
" transform="scale(0.015625)"/>
      <path id="DejaVuSans-Bold-2d" d="M 347 2297 
L 2309 2297 
L 2309 1388 
L 347 1388 
L 347 2297 
z
" transform="scale(0.015625)"/>
      <path id="DejaVuSans-Bold-32" d="M 1844 884 
L 3897 884 
L 3897 0 
L 506 0 
L 506 884 
L 2209 2388 
Q 2438 2594 2547 2791 
Q 2656 2988 2656 3200 
Q 2656 3528 2436 3728 
Q 2216 3928 1850 3928 
Q 1569 3928 1234 3808 
Q 900 3688 519 3450 
L 519 4475 
Q 925 4609 1322 4679 
Q 1719 4750 2100 4750 
Q 2938 4750 3402 4381 
Q 3866 4013 3866 3353 
Q 3866 2972 3669 2642 
Q 3472 2313 2841 1759 
L 1844 884 
z
" transform="scale(0.015625)"/>
      <path id="DejaVuSans-Bold-77" d="M 225 3500 
L 1313 3500 
L 1900 1088 
L 2491 3500 
L 3425 3500 
L 4013 1113 
L 4603 3500 
L 5691 3500 
L 4769 0 
L 3547 0 
L 2956 2406 
L 2369 0 
L 1147 0 
L 225 3500 
z
" transform="scale(0.015625)"/>
      <path id="DejaVuSans-Bold-35" d="M 678 4666 
L 3669 4666 
L 3669 3781 
L 1638 3781 
L 1638 3059 
Q 1775 3097 1914 3117 
Q 2053 3138 2203 3138 
Q 3056 3138 3531 2711 
Q 4006 2284 4006 1522 
Q 4006 766 3489 337 
Q 2972 -91 2053 -91 
Q 1656 -91 1267 -14 
Q 878 63 494 219 
L 494 1166 
Q 875 947 1217 837 
Q 1559 728 1863 728 
Q 2300 728 2551 942 
Q 2803 1156 2803 1522 
Q 2803 1891 2551 2103 
Q 2300 2316 1863 2316 
Q 1603 2316 1309 2248 
Q 1016 2181 678 2041 
L 678 4666 
z
" transform="scale(0.015625)"/>
      <path id="DejaVuSans-Bold-37" d="M 428 4666 
L 3944 4666 
L 3944 3988 
L 2125 0 
L 953 0 
L 2675 3781 
L 428 3781 
L 428 4666 
z
" transform="scale(0.015625)"/>
      <path id="DejaVuSans-Bold-76" d="M 97 3500 
L 1216 3500 
L 2088 1081 
L 2956 3500 
L 4078 3500 
L 2700 0 
L 1472 0 
L 97 3500 
z
" transform="scale(0.015625)"/>
      <path id="DejaVuSans-Bold-6c" d="M 538 4863 
L 1656 4863 
L 1656 0 
L 538 0 
L 538 4863 
z
" transform="scale(0.015625)"/>
     </defs>
     <use xlink:href="#DejaVuSans-Bold-4d"/>
     <use xlink:href="#DejaVuSans-Bold-61" transform="translate(99.511719 0)"/>
     <use xlink:href="#DejaVuSans-Bold-72" transform="translate(166.992188 0)"/>
     <use xlink:href="#DejaVuSans-Bold-63" transform="translate(216.308594 0)"/>
     <use xlink:href="#DejaVuSans-Bold-68" transform="translate(275.585938 0)"/>
     <use xlink:href="#DejaVuSans-Bold-20" transform="translate(346.777344 0)"/>
     <use xlink:href="#DejaVuSans-Bold-45" transform="translate(381.591797 0)"/>
     <use xlink:href="#DejaVuSans-Bold-71" transform="translate(449.902344 0)"/>
     <use xlink:href="#DejaVuSans-Bold-75" transform="translate(521.484375 0)"/>
     <use xlink:href="#DejaVuSans-Bold-69" transform="translate(592.675781 0)"/>
     <use xlink:href="#DejaVuSans-Bold-6e" transform="translate(626.953125 0)"/>
     <use xlink:href="#DejaVuSans-Bold-6f" transform="translate(698.144531 0)"/>
     <use xlink:href="#DejaVuSans-Bold-78" transform="translate(766.845703 0)"/>
     <use xlink:href="#DejaVuSans-Bold-20" transform="translate(831.347656 0)"/>
     <use xlink:href="#DejaVuSans-Bold-44" transform="translate(866.162109 0)"/>
     <use xlink:href="#DejaVuSans-Bold-69" transform="translate(949.169922 0)"/>
     <use xlink:href="#DejaVuSans-Bold-73" transform="translate(983.447266 0)"/>
     <use xlink:href="#DejaVuSans-Bold-74" transform="translate(1042.96875 0)"/>
     <use xlink:href="#DejaVuSans-Bold-72" transform="translate(1090.771484 0)"/>
     <use xlink:href="#DejaVuSans-Bold-69" transform="translate(1140.087891 0)"/>
     <use xlink:href="#DejaVuSans-Bold-62" transform="translate(1174.365234 0)"/>
     <use xlink:href="#DejaVuSans-Bold-75" transform="translate(1245.947266 0)"/>
     <use xlink:href="#DejaVuSans-Bold-74" transform="translate(1317.138672 0)"/>
     <use xlink:href="#DejaVuSans-Bold-69" transform="translate(1364.941406 0)"/>
     <use xlink:href="#DejaVuSans-Bold-6f" transform="translate(1399.21875 0)"/>
     <use xlink:href="#DejaVuSans-Bold-6e" transform="translate(1467.919922 0)"/>
     <use xlink:href="#DejaVuSans-Bold-20" transform="translate(1539.111328 0)"/>
     <use xlink:href="#DejaVuSans-Bold-62" transform="translate(1573.925781 0)"/>
     <use xlink:href="#DejaVuSans-Bold-79" transform="translate(1645.507812 0)"/>
     <use xlink:href="#DejaVuSans-Bold-20" transform="translate(1710.693359 0)"/>
     <use xlink:href="#DejaVuSans-Bold-44" transform="translate(1745.507812 0)"/>
     <use xlink:href="#DejaVuSans-Bold-61" transform="translate(1828.515625 0)"/>
     <use xlink:href="#DejaVuSans-Bold-79" transform="translate(1892.871094 0)"/>
     <use xlink:href="#DejaVuSans-Bold-20" transform="translate(1958.056641 0)"/>
     <use xlink:href="#DejaVuSans-Bold-61" transform="translate(1992.871094 0)"/>
     <use xlink:href="#DejaVuSans-Bold-6e" transform="translate(2060.351562 0)"/>
     <use xlink:href="#DejaVuSans-Bold-64" transform="translate(2131.542969 0)"/>
     <use xlink:href="#DejaVuSans-Bold-20" transform="translate(2203.125 0)"/>
     <use xlink:href="#DejaVuSans-Bold-48" transform="translate(2237.939453 0)"/>
     <use xlink:href="#DejaVuSans-Bold-6f" transform="translate(2321.630859 0)"/>
     <use xlink:href="#DejaVuSans-Bold-75" transform="translate(2390.332031 0)"/>
     <use xlink:href="#DejaVuSans-Bold-72" transform="translate(2461.523438 0)"/>
     <use xlink:href="#DejaVuSans-Bold-20" transform="translate(2510.839844 0)"/>
     <use xlink:href="#DejaVuSans-Bold-28" transform="translate(2545.654297 0)"/>
     <use xlink:href="#DejaVuSans-Bold-31" transform="translate(2591.357422 0)"/>
     <use xlink:href="#DejaVuSans-Bold-39" transform="translate(2660.9375 0)"/>
     <use xlink:href="#DejaVuSans-Bold-30" transform="translate(2730.517578 0)"/>
     <use xlink:href="#DejaVuSans-Bold-30" transform="translate(2800.097656 0)"/>
     <use xlink:href="#DejaVuSans-Bold-2d" transform="translate(2869.677734 0)"/>
     <use xlink:href="#DejaVuSans-Bold-32" transform="translate(2911.181641 0)"/>
     <use xlink:href="#DejaVuSans-Bold-31" transform="translate(2980.761719 0)"/>
     <use xlink:href="#DejaVuSans-Bold-30" transform="translate(3050.341797 0)"/>
     <use xlink:href="#DejaVuSans-Bold-30" transform="translate(3119.921875 0)"/>
     <use xlink:href="#DejaVuSans-Bold-20" transform="translate(3189.501953 0)"/>
     <use xlink:href="#DejaVuSans-Bold-77" transform="translate(3224.316406 0)"/>
     <use xlink:href="#DejaVuSans-Bold-69" transform="translate(3316.699219 0)"/>
     <use xlink:href="#DejaVuSans-Bold-74" transform="translate(3350.976562 0)"/>
     <use xlink:href="#DejaVuSans-Bold-68" transform="translate(3398.779297 0)"/>
     <use xlink:href="#DejaVuSans-Bold-20" transform="translate(3469.970703 0)"/>
     <use xlink:href="#DejaVuSans-Bold-32" transform="translate(3504.785156 0)"/>
     <use xlink:href="#DejaVuSans-Bold-30" transform="translate(3574.365234 0)"/>
     <use xlink:href="#DejaVuSans-Bold-32" transform="translate(3643.945312 0)"/>
     <use xlink:href="#DejaVuSans-Bold-35" transform="translate(3713.525391 0)"/>
     <use xlink:href="#DejaVuSans-Bold-2d" transform="translate(3783.105469 0)"/>
     <use xlink:href="#DejaVuSans-Bold-32" transform="translate(3824.609375 0)"/>
     <use xlink:href="#DejaVuSans-Bold-30" transform="translate(3894.189453 0)"/>
     <use xlink:href="#DejaVuSans-Bold-37" transform="translate(3963.769531 0)"/>
     <use xlink:href="#DejaVuSans-Bold-35" transform="translate(4033.349609 0)"/>
     <use xlink:href="#DejaVuSans-Bold-20" transform="translate(4102.929688 0)"/>
     <use xlink:href="#DejaVuSans-Bold-4f" transform="translate(4137.744141 0)"/>
     <use xlink:href="#DejaVuSans-Bold-76" transform="translate(4222.753906 0)"/>
     <use xlink:href="#DejaVuSans-Bold-65" transform="translate(4287.939453 0)"/>
     <use xlink:href="#DejaVuSans-Bold-72" transform="translate(4355.761719 0)"/>
     <use xlink:href="#DejaVuSans-Bold-6c" transform="translate(4405.078125 0)"/>
     <use xlink:href="#DejaVuSans-Bold-61" transform="translate(4439.355469 0)"/>
     <use xlink:href="#DejaVuSans-Bold-79" transform="translate(4503.710938 0)"/>
     <use xlink:href="#DejaVuSans-Bold-29" transform="translate(4568.896484 0)"/>
    </g>
   </g>
   <g id="legend_1">
    <g id="patch_113">
     <path d="M 1043.798438 75.194062 
L 1130.30625 75.194062 
Q 1132.30625 75.194062 1132.30625 73.194062 
L 1132.30625 44.837812 
Q 1132.30625 42.837812 1130.30625 42.837812 
L 1043.798438 42.837812 
Q 1041.798438 42.837812 1041.798438 44.837812 
L 1041.798438 73.194062 
Q 1041.798438 75.194062 1043.798438 75.194062 
z
" style="fill: #ffffff; opacity: 0.8; stroke: #cccccc; stroke-linejoin: miter"/>
    </g>
    <g id="patch_114">
     <path d="M 1045.798438 54.43625 
L 1065.798438 54.43625 
L 1065.798438 47.43625 
L 1045.798438 47.43625 
z
" style="fill: #4ecdc4; opacity: 0.7; stroke: #000000; stroke-width: 0.5; stroke-linejoin: miter"/>
    </g>
    <g id="text_22">
     <!-- 1900-2100 -->
     <g transform="translate(1073.798438 54.43625) scale(0.1 -0.1)">
      <defs>
       <path id="DejaVuSans-2d" d="M 313 2009 
L 1997 2009 
L 1997 1497 
L 313 1497 
L 313 2009 
z
" transform="scale(0.015625)"/>
      </defs>
      <use xlink:href="#DejaVuSans-31"/>
      <use xlink:href="#DejaVuSans-39" transform="translate(63.623047 0)"/>
      <use xlink:href="#DejaVuSans-30" transform="translate(127.246094 0)"/>
      <use xlink:href="#DejaVuSans-30" transform="translate(190.869141 0)"/>
      <use xlink:href="#DejaVuSans-2d" transform="translate(254.492188 0)"/>
      <use xlink:href="#DejaVuSans-32" transform="translate(290.576172 0)"/>
      <use xlink:href="#DejaVuSans-31" transform="translate(354.199219 0)"/>
      <use xlink:href="#DejaVuSans-30" transform="translate(417.822266 0)"/>
      <use xlink:href="#DejaVuSans-30" transform="translate(481.445312 0)"/>
     </g>
    </g>
    <g id="patch_115">
     <path d="M 1045.798438 69.114375 
L 1065.798438 69.114375 
L 1065.798438 62.114375 
L 1045.798438 62.114375 
z
" style="fill: #ff6b6b; opacity: 0.8; stroke: #000000; stroke-width: 0.5; stroke-linejoin: miter"/>
    </g>
    <g id="text_23">
     <!-- 2025-2075 -->
     <g transform="translate(1073.798438 69.114375) scale(0.1 -0.1)">
      <use xlink:href="#DejaVuSans-32"/>
      <use xlink:href="#DejaVuSans-30" transform="translate(63.623047 0)"/>
      <use xlink:href="#DejaVuSans-32" transform="translate(127.246094 0)"/>
      <use xlink:href="#DejaVuSans-35" transform="translate(190.869141 0)"/>
      <use xlink:href="#DejaVuSans-2d" transform="translate(254.492188 0)"/>
      <use xlink:href="#DejaVuSans-32" transform="translate(290.576172 0)"/>
      <use xlink:href="#DejaVuSans-30" transform="translate(354.199219 0)"/>
      <use xlink:href="#DejaVuSans-37" transform="translate(417.822266 0)"/>
      <use xlink:href="#DejaVuSans-35" transform="translate(481.445312 0)"/>
     </g>
    </g>
   </g>
  </g>
 </g>
 <defs>
  <clipPath id="pd5053dabcc">
   <rect x="36.17625" y="37.837812" width="1101.13" height="338.072"/>
  </clipPath>
 </defs>
</svg>
