<svg xmlns="http://www.w3.org/2000/svg" width="1000" height="500"><path d="M30 582.362h940v440H30z" style="fill:#fff;fill-opacity:1;fill-rule:nonzero;stroke:none" transform="translate(0 -552.362)"/><path d="M50 1002.362h300v-100l-300 100z" style="fill:#888;stroke:#000;stroke-width:4;stroke-linecap:butt;stroke-linejoin:miter;stroke-miterlimit:4;stroke-opacity:1;stroke-dasharray:none;fill-opacity:1" transform="translate(0 -552.362)"/><path d="M50 602.362h300v300H50z" style="fill:#ddd;stroke:#000;stroke-width:4;stroke-linecap:square;stroke-linejoin:miter;stroke-miterlimit:4;stroke-opacity:1;stroke-dasharray:none;stroke-dashoffset:0;fill-opacity:1" transform="translate(0 -552.362)"/><path d="M50 350v100l300-100H50z" style="fill:#888;stroke:#000;stroke-width:4;stroke-linecap:butt;stroke-linejoin:round;stroke-opacity:1;stroke-miterlimit:4;stroke-dasharray:none;fill-opacity:1"/><path d="M350 50v300h100L350 50z" style="fill:#888;stroke:#000;stroke-width:4;stroke-linecap:butt;stroke-linejoin:miter;stroke-opacity:1;stroke-miterlimit:4;stroke-dasharray:none;fill-opacity:1"/><path d="M450 350V50H350l100 300z" style="fill:#888;stroke:#000;stroke-width:4;stroke-linecap:butt;stroke-linejoin:miter;stroke-opacity:1;stroke-miterlimit:4;stroke-dasharray:none;fill-opacity:1"/><path d="M550 702.362v300h100l-100-300zM550 602.362v100l300-100H550zM950 902.362v-300H850l100 300zM650 1002.362h300v-100l-300 100z" style="fill:#888;fill-opacity:1;stroke:#000;stroke-width:4;stroke-linecap:butt;stroke-linejoin:miter;stroke-miterlimit:4;stroke-opacity:1;stroke-dasharray:none" transform="translate(0 -552.362)"/><path d="M350 350h100v100H350z" style="fill:#ddd;fill-opacity:1;stroke:#000;stroke-width:4;stroke-linecap:square;stroke-linejoin:round;stroke-miterlimit:4;stroke-opacity:1;stroke-dasharray:none;stroke-dashoffset:0"/><path d="m550 150 100 300 300-100L850 50 550 150z" style="fill:#ddd;fill-rule:evenodd;stroke:#000;stroke-width:4;stroke-linecap:butt;stroke-linejoin:round;stroke-opacity:1;fill-opacity:1;stroke-miterlimit:4;stroke-dasharray:none"/></svg>