<svg xmlns="http://www.w3.org/2000/svg" width="1000" height="500"><path d="M30 582.362h950v440H30z" style="fill:#fff;fill-opacity:1;fill-rule:nonzero;stroke:none" transform="translate(0 -552.362)"/><path d="M560 702.362h300v300H560z" style="fill:#ddd;fill-opacity:1;fill-rule:nonzero;stroke:#000;stroke-width:4;stroke-linejoin:miter;stroke-miterlimit:4;stroke-dasharray:none;stroke-opacity:1" transform="translate(0 -552.362)"/><path d="M860 902.362h100v100H860z" style="fill:#ddd;fill-opacity:1;fill-rule:nonzero;stroke:#000;stroke-width:4;stroke-linejoin:round;stroke-miterlimit:4;stroke-opacity:1;stroke-dasharray:none" transform="translate(0 -552.362)"/><path d="m560 702.362 300-100 100 300-300 100-100-300z" style="opacity:.98999999000000005;fill:#888;fill-opacity:1;stroke:#000;stroke-width:4;stroke-linecap:butt;stroke-linejoin:miter;stroke-miterlimit:4;stroke-dasharray:none;stroke-opacity:1" transform="translate(0 -552.362)"/><path d="M50 150h300v300H50z" style="fill:#888;fill-opacity:1;fill-rule:nonzero;stroke:#000;stroke-width:4;stroke-linejoin:miter;stroke-miterlimit:4;stroke-opacity:1;stroke-dasharray:none"/><path d="M50 150 350 50v100H50z" style="fill:#ddd;fill-rule:evenodd;stroke:#000;stroke-width:4;stroke-linecap:butt;stroke-linejoin:round;stroke-opacity:1;stroke-miterlimit:4;stroke-dasharray:none;fill-opacity:1"/><path d="m660 1002.362 300-100v100H660z" style="fill:#ddd;fill-opacity:1;fill-rule:evenodd;stroke:#000;stroke-width:4;stroke-linecap:butt;stroke-linejoin:round;stroke-miterlimit:4;stroke-dasharray:none;stroke-opacity:1" transform="translate(0 -552.362)"/><path d="M560 702.362h300v300H560z" style="fill:none;fill-opacity:.50196081000000004;fill-rule:nonzero;stroke:#000;stroke-width:4;stroke-linejoin:miter;stroke-miterlimit:4;stroke-opacity:1;stroke-dasharray:none" transform="translate(0 -552.362)"/><path d="M350 350h100v100H350z" style="fill:#888;fill-opacity:1;fill-rule:nonzero;stroke:#000;stroke-width:4;stroke-linejoin:round;stroke-miterlimit:4;stroke-opacity:1;stroke-dasharray:none"/><path d="M350 350h100L350 50v300z" style="fill:#ddd;fill-rule:evenodd;stroke:#000;stroke-width:4;stroke-linecap:butt;stroke-linejoin:round;stroke-opacity:1;stroke-miterlimit:4;stroke-dasharray:none;fill-opacity:1"/><path d="M50 1002.362h100l-100-300v300zM150 1002.362l300-100v100H150zM560 702.362l300-100v100H560zM860 902.362h100l-100-300v300z" style="fill:none;fill-opacity:1;fill-rule:evenodd;stroke:#000;stroke-width:4;stroke-linecap:butt;stroke-linejoin:round;stroke-miterlimit:4;stroke-dasharray:none;stroke-opacity:1" transform="translate(0 -552.362)"/><path d="M560 1002.362h100l-100-300v300z" style="fill:#ddd;fill-opacity:1;fill-rule:evenodd;stroke:#000;stroke-width:4;stroke-linecap:butt;stroke-linejoin:round;stroke-miterlimit:4;stroke-dasharray:none;stroke-opacity:1" transform="translate(0 -552.362)"/></svg>