<svg xmlns="http://www.w3.org/2000/svg" width="1150" height="500"><path d="M30 582.362h1100v440H30z" style="fill:#fff;fill-opacity:1;fill-rule:nonzero;stroke:none" transform="translate(0 -552.362)"/><path d="M550 1002.362v-240h320l-320 240z" style="fill:#ddd;fill-opacity:1;fill-rule:evenodd;stroke:#000;stroke-width:4;stroke-linecap:butt;stroke-linejoin:round;stroke-miterlimit:4;stroke-dasharray:none;stroke-opacity:1" transform="translate(0 -552.362)"/><path d="M50 450h400L194 258 50 450z" style="fill:#ddd;fill-rule:evenodd;stroke:#000;stroke-width:4;stroke-linecap:butt;stroke-linejoin:round;stroke-opacity:1;stroke-miterlimit:4;stroke-dasharray:none;fill-opacity:1"/><path d="M50 50v400l192-256L50 50z" style="fill:#ddd;fill-rule:evenodd;stroke:#000;stroke-width:4;stroke-linecap:butt;stroke-linejoin:round;stroke-opacity:1;stroke-miterlimit:4;stroke-dasharray:none;fill-opacity:1"/><path d="m50 50 256 192L450 50H50zM450 50v400L258 306 450 50z" style="fill:#ddd;fill-rule:evenodd;stroke:#000;stroke-width:4;stroke-linecap:butt;stroke-linejoin:round;stroke-opacity:1;stroke-miterlimit:4;stroke-dasharray:none;fill-opacity:1"/><path d="M1110 1002.362H870v-320l240 320z" style="fill:#ddd;fill-opacity:1;stroke:#000;stroke-width:4;stroke-linecap:butt;stroke-linejoin:round;stroke-miterlimit:4;stroke-dasharray:none;stroke-opacity:1" transform="translate(0 -552.362)"/><path d="M870 682.362h240v320l-240-320z" style="fill:#ddd;fill-opacity:1;fill-rule:evenodd;stroke:#000;stroke-width:4;stroke-linecap:butt;stroke-linejoin:round;stroke-miterlimit:4;stroke-dasharray:none;stroke-opacity:1" transform="translate(0 -552.362)"/><path d="M870 762.362v240H550l320-240z" style="fill:#ddd;fill-opacity:1;stroke:#000;stroke-width:4;stroke-linecap:butt;stroke-linejoin:round;stroke-miterlimit:4;stroke-dasharray:none;stroke-opacity:1" transform="translate(0 -552.362)"/><path d="M790 682.362h80v80h-80z" style="opacity:1;fill:#888;fill-opacity:1;stroke:#000;stroke-width:4;stroke-linecap:square;stroke-linejoin:round;stroke-miterlimit:4;stroke-dasharray:none;stroke-dashoffset:0;stroke-opacity:1" transform="translate(0 -552.362)"/><path d="m242 194-48 64 64 48 48-64-64-48z" style="fill:#888;fill-rule:evenodd;stroke:#000;stroke-width:4;stroke-linecap:butt;stroke-linejoin:miter;stroke-opacity:1;fill-opacity:1;stroke-miterlimit:4;stroke-dasharray:none"/><path d="M790 210v240" style="fill:none;fill-rule:evenodd;stroke:#000;stroke-width:4;stroke-linecap:butt;stroke-linejoin:miter;stroke-opacity:.26666667999999999;stroke-miterlimit:4;stroke-dasharray:8,4;stroke-dashoffset:0"/></svg>