<?xml version="1.0" encoding="UTF-8" standalone="no"?>
<!-- Created with Inkscape (http://www.inkscape.org/) -->
<svg
   xmlns:dc="http://purl.org/dc/elements/1.1/"
   xmlns:cc="http://creativecommons.org/ns#"
   xmlns:rdf="http://www.w3.org/1999/02/22-rdf-syntax-ns#"
   xmlns:svg="http://www.w3.org/2000/svg"
   xmlns="http://www.w3.org/2000/svg"
   xmlns:sodipodi="http://sodipodi.sourceforge.net/DTD/sodipodi-0.dtd"
   xmlns:inkscape="http://www.inkscape.org/namespaces/inkscape"
   width="641"
   height="115.64062"
   id="svg2"
   sodipodi:version="0.32"
   inkscape:version="0.46"
   sodipodi:docname="game234.svg"
   inkscape:output_extension="org.inkscape.output.svg.inkscape"
   version="1.0"
   inkscape:export-filename="C:\Work\SputSoft\SlikSVN\Blog\The Game of Nim\game234.png"
   inkscape:export-xdpi="200.0162"
   inkscape:export-ydpi="200.0162">
  <defs
     id="defs4">
    <marker
       inkscape:stockid="Arrow1Mend"
       orient="auto"
       refY="0"
       refX="0"
       id="Arrow1Mend"
       style="overflow:visible">
      <path
         id="path3248"
         d="M 0,0 L 5,-5 L -12.5,0 L 5,5 L 0,0 z"
         style="fill-rule:evenodd;stroke:#000000;stroke-width:1pt;marker-start:none"
         transform="matrix(-0.4,0,0,-0.4,-4,0)" />
    </marker>
    <inkscape:perspective
       sodipodi:type="inkscape:persp3d"
       inkscape:vp_x="0 : 526.18109 : 1"
       inkscape:vp_y="0 : 1000 : 0"
       inkscape:vp_z="744.09448 : 526.18109 : 1"
       inkscape:persp3d-origin="372.04724 : 350.78739 : 1"
       id="perspective10" />
  </defs>
  <sodipodi:namedview
     id="base"
     pagecolor="#ffffff"
     bordercolor="#666666"
     borderopacity="1.0"
     gridtolerance="10000"
     guidetolerance="10"
     objecttolerance="10"
     inkscape:pageopacity="0.0"
     inkscape:pageshadow="2"
     inkscape:zoom="1.8970588"
     inkscape:cx="302.66905"
     inkscape:cy="72.944071"
     inkscape:document-units="px"
     inkscape:current-layer="layer1"
     showgrid="true"
     inkscape:window-width="1680"
     inkscape:window-height="994"
     inkscape:window-x="-4"
     inkscape:window-y="-4"
     showborder="false"
     inkscape:showpageshadow="false">
    <inkscape:grid
       type="xygrid"
       id="grid2383"
       visible="true"
       enabled="true" />
  </sodipodi:namedview>
  <metadata
     id="metadata7">
    <rdf:RDF>
      <cc:Work
         rdf:about="">
        <dc:format>image/svg+xml</dc:format>
        <dc:type
           rdf:resource="http://purl.org/dc/dcmitype/StillImage" />
      </cc:Work>
    </rdf:RDF>
  </metadata>
  <g
     inkscape:label="Layer 1"
     inkscape:groupmode="layer"
     id="layer1"
     transform="translate(0.5,-926.86218)">
    <path
       sodipodi:type="arc"
       style="fill:#cbcbcb;fill-opacity:1;stroke:#000000;stroke-opacity:1"
       id="path3163"
       sodipodi:cx="10"
       sodipodi:cy="1042.3622"
       sodipodi:rx="10"
       sodipodi:ry="10"
       d="M 20,1042.3622 A 10,10 0 1 1 0,1042.3622 A 10,10 0 1 1 20,1042.3622 z"
       transform="translate(65,-105)" />
    <path
       sodipodi:type="arc"
       style="fill:#cbcbcb;fill-opacity:1;stroke:#000000;stroke-opacity:1"
       id="path3165"
       sodipodi:cx="10"
       sodipodi:cy="1042.3622"
       sodipodi:rx="10"
       sodipodi:ry="10"
       d="M 20,1042.3622 A 10,10 0 1 1 0,1042.3622 A 10,10 0 1 1 20,1042.3622 z"
       transform="translate(65,-80)" />
    <path
       sodipodi:type="arc"
       style="fill:#cbcbcb;fill-opacity:1;stroke:#000000;stroke-opacity:1"
       id="path3167"
       sodipodi:cx="10"
       sodipodi:cy="1042.3622"
       sodipodi:rx="10"
       sodipodi:ry="10"
       d="M 20,1042.3622 A 10,10 0 1 1 0,1042.3622 A 10,10 0 1 1 20,1042.3622 z"
       transform="translate(65,-55)" />
    <path
       sodipodi:type="arc"
       style="fill:#cbcbcb;fill-opacity:1;stroke:#000000;stroke-opacity:1"
       id="path3169"
       sodipodi:cx="10"
       sodipodi:cy="1042.3622"
       sodipodi:rx="10"
       sodipodi:ry="10"
       d="M 20,1042.3622 A 10,10 0 1 1 0,1042.3622 A 10,10 0 1 1 20,1042.3622 z"
       transform="translate(65,-30)" />
    <path
       sodipodi:type="arc"
       style="fill:#cbcbcb;fill-opacity:1;stroke:#000000;stroke-opacity:1"
       id="path3175"
       sodipodi:cx="10"
       sodipodi:cy="1042.3622"
       sodipodi:rx="10"
       sodipodi:ry="10"
       d="M 20,1042.3622 A 10,10 0 1 1 0,1042.3622 A 10,10 0 1 1 20,1042.3622 z"
       transform="translate(35,-80)" />
    <path
       sodipodi:type="arc"
       style="fill:#cbcbcb;fill-opacity:1;stroke:#000000;stroke-opacity:1"
       id="path3177"
       sodipodi:cx="10"
       sodipodi:cy="1042.3622"
       sodipodi:rx="10"
       sodipodi:ry="10"
       d="M 20,1042.3622 A 10,10 0 1 1 0,1042.3622 A 10,10 0 1 1 20,1042.3622 z"
       transform="translate(35,-55)" />
    <path
       sodipodi:type="arc"
       style="fill:#cbcbcb;fill-opacity:1;stroke:#000000;stroke-opacity:1"
       id="path3179"
       sodipodi:cx="10"
       sodipodi:cy="1042.3622"
       sodipodi:rx="10"
       sodipodi:ry="10"
       d="M 20,1042.3622 A 10,10 0 1 1 0,1042.3622 A 10,10 0 1 1 20,1042.3622 z"
       transform="translate(35,-30)" />
    <path
       sodipodi:type="arc"
       style="fill:#cbcbcb;fill-opacity:1;stroke:#000000;stroke-opacity:1"
       id="path3183"
       sodipodi:cx="10"
       sodipodi:cy="1042.3622"
       sodipodi:rx="10"
       sodipodi:ry="10"
       d="M 20,1042.3622 A 10,10 0 1 1 0,1042.3622 A 10,10 0 1 1 20,1042.3622 z"
       transform="translate(5,-55)" />
    <path
       sodipodi:type="arc"
       style="fill:#cbcbcb;fill-opacity:1;stroke:#000000;stroke-opacity:1"
       id="path3185"
       sodipodi:cx="10"
       sodipodi:cy="1042.3622"
       sodipodi:rx="10"
       sodipodi:ry="10"
       d="M 20,1042.3622 A 10,10 0 1 1 0,1042.3622 A 10,10 0 1 1 20,1042.3622 z"
       transform="translate(5,-30)" />
    <path
       style="fill:none;fill-rule:evenodd;stroke:#000000;stroke-width:1px;stroke-linecap:butt;stroke-linejoin:miter;stroke-opacity:1"
       d="M 0,1022.3622 L 0,1027.3622 L 30,1027.3622 L 30,1022.3622"
       id="path2397" />
    <path
       style="fill:none;fill-rule:evenodd;stroke:#000000;stroke-width:1px;stroke-linecap:butt;stroke-linejoin:miter;stroke-opacity:1"
       d="M 60,1022.3622 L 60,1027.3622 L 90,1027.3622 L 90,1022.3622"
       id="path2399" />
    <path
       style="fill:none;fill-rule:evenodd;stroke:#000000;stroke-width:1px;stroke-linecap:butt;stroke-linejoin:miter;stroke-opacity:1"
       d="M 30,1022.3622 L 30,1027.3622 L 60,1027.3622 L 60,1022.3622"
       id="path2401" />
    <path
       sodipodi:type="arc"
       style="fill:#cbcbcb;fill-opacity:1;stroke:#000000;stroke-opacity:1"
       id="path2409"
       sodipodi:cx="10"
       sodipodi:cy="1042.3622"
       sodipodi:rx="10"
       sodipodi:ry="10"
       d="M 20,1042.3622 A 10,10 0 1 1 0,1042.3622 A 10,10 0 1 1 20,1042.3622 z"
       transform="translate(175,-30.000017)" />
    <path
       sodipodi:type="arc"
       style="fill:#cbcbcb;fill-opacity:1;stroke:#000000;stroke-opacity:1"
       id="path2411"
       sodipodi:cx="10"
       sodipodi:cy="1042.3622"
       sodipodi:rx="10"
       sodipodi:ry="10"
       d="M 20,1042.3622 A 10,10 0 1 1 0,1042.3622 A 10,10 0 1 1 20,1042.3622 z"
       transform="translate(145,-80.000017)" />
    <path
       sodipodi:type="arc"
       style="fill:#cbcbcb;fill-opacity:1;stroke:#000000;stroke-opacity:1"
       id="path2413"
       sodipodi:cx="10"
       sodipodi:cy="1042.3622"
       sodipodi:rx="10"
       sodipodi:ry="10"
       d="M 20,1042.3622 A 10,10 0 1 1 0,1042.3622 A 10,10 0 1 1 20,1042.3622 z"
       transform="translate(145,-55.000017)" />
    <path
       sodipodi:type="arc"
       style="fill:#cbcbcb;fill-opacity:1;stroke:#000000;stroke-opacity:1"
       id="path2415"
       sodipodi:cx="10"
       sodipodi:cy="1042.3622"
       sodipodi:rx="10"
       sodipodi:ry="10"
       d="M 20,1042.3622 A 10,10 0 1 1 0,1042.3622 A 10,10 0 1 1 20,1042.3622 z"
       transform="translate(145,-30.000017)" />
    <path
       sodipodi:type="arc"
       style="fill:#cbcbcb;fill-opacity:1;stroke:#000000;stroke-opacity:1"
       id="path2417"
       sodipodi:cx="10"
       sodipodi:cy="1042.3622"
       sodipodi:rx="10"
       sodipodi:ry="10"
       d="M 20,1042.3622 A 10,10 0 1 1 0,1042.3622 A 10,10 0 1 1 20,1042.3622 z"
       transform="translate(115,-55.000017)" />
    <path
       sodipodi:type="arc"
       style="fill:#cbcbcb;fill-opacity:1;stroke:#000000;stroke-opacity:1"
       id="path2419"
       sodipodi:cx="10"
       sodipodi:cy="1042.3622"
       sodipodi:rx="10"
       sodipodi:ry="10"
       d="M 20,1042.3622 A 10,10 0 1 1 0,1042.3622 A 10,10 0 1 1 20,1042.3622 z"
       transform="translate(115,-30.000017)" />
    <path
       style="fill:none;fill-rule:evenodd;stroke:#000000;stroke-width:1px;stroke-linecap:butt;stroke-linejoin:miter;stroke-opacity:1"
       d="M 110,1022.3622 L 110,1027.3622 L 140,1027.3622 L 140,1022.3622"
       id="path2421" />
    <path
       style="fill:none;fill-rule:evenodd;stroke:#000000;stroke-width:1px;stroke-linecap:butt;stroke-linejoin:miter;stroke-opacity:1"
       d="M 170,1022.3622 L 170,1027.3622 L 200,1027.3622 L 200,1022.3622"
       id="path2423" />
    <path
       style="fill:none;fill-rule:evenodd;stroke:#000000;stroke-width:1px;stroke-linecap:butt;stroke-linejoin:miter;stroke-opacity:1"
       d="M 140,1022.3622 L 140,1027.3622 L 170,1027.3622 L 170,1022.3622"
       id="path2425" />
    <path
       sodipodi:type="arc"
       style="fill:#cbcbcb;fill-opacity:1;stroke:#000000;stroke-opacity:1"
       id="path2433"
       sodipodi:cx="10"
       sodipodi:cy="1042.3622"
       sodipodi:rx="10"
       sodipodi:ry="10"
       d="M 20,1042.3622 A 10,10 0 1 1 0,1042.3622 A 10,10 0 1 1 20,1042.3622 z"
       transform="translate(285,-30.000037)" />
    <path
       sodipodi:type="arc"
       style="fill:#cbcbcb;fill-opacity:1;stroke:#000000;stroke-opacity:1"
       id="path2435"
       sodipodi:cx="10"
       sodipodi:cy="1042.3622"
       sodipodi:rx="10"
       sodipodi:ry="10"
       d="M 20,1042.3622 A 10,10 0 1 1 0,1042.3622 A 10,10 0 1 1 20,1042.3622 z"
       transform="translate(255,-80.000037)" />
    <path
       sodipodi:type="arc"
       style="fill:#cbcbcb;fill-opacity:1;stroke:#000000;stroke-opacity:1"
       id="path2437"
       sodipodi:cx="10"
       sodipodi:cy="1042.3622"
       sodipodi:rx="10"
       sodipodi:ry="10"
       d="M 20,1042.3622 A 10,10 0 1 1 0,1042.3622 A 10,10 0 1 1 20,1042.3622 z"
       transform="translate(255,-55.000037)" />
    <path
       sodipodi:type="arc"
       style="fill:#cbcbcb;fill-opacity:1;stroke:#000000;stroke-opacity:1"
       id="path2439"
       sodipodi:cx="10"
       sodipodi:cy="1042.3622"
       sodipodi:rx="10"
       sodipodi:ry="10"
       d="M 20,1042.3622 A 10,10 0 1 1 0,1042.3622 A 10,10 0 1 1 20,1042.3622 z"
       transform="translate(255,-30.000037)" />
    <path
       sodipodi:type="arc"
       style="fill:#cbcbcb;fill-opacity:1;stroke:#000000;stroke-opacity:1"
       id="path2443"
       sodipodi:cx="10"
       sodipodi:cy="1042.3622"
       sodipodi:rx="10"
       sodipodi:ry="10"
       d="M 20,1042.3622 A 10,10 0 1 1 0,1042.3622 A 10,10 0 1 1 20,1042.3622 z"
       transform="translate(225,-30.000037)" />
    <path
       style="fill:none;fill-rule:evenodd;stroke:#000000;stroke-width:1px;stroke-linecap:butt;stroke-linejoin:miter;stroke-opacity:1"
       d="M 220,1022.3622 L 220,1027.3622 L 250,1027.3622 L 250,1022.3622"
       id="path2445" />
    <path
       style="fill:none;fill-rule:evenodd;stroke:#000000;stroke-width:1px;stroke-linecap:butt;stroke-linejoin:miter;stroke-opacity:1"
       d="M 280,1022.3622 L 280,1027.3622 L 310,1027.3622 L 310,1022.3622"
       id="path2447" />
    <path
       style="fill:none;fill-rule:evenodd;stroke:#000000;stroke-width:1px;stroke-linecap:butt;stroke-linejoin:miter;stroke-opacity:1"
       d="M 250,1022.3622 L 250,1027.3622 L 280,1027.3622 L 280,1022.3622"
       id="path2449" />
    <path
       sodipodi:type="arc"
       style="fill:#cbcbcb;fill-opacity:1;stroke:#000000;stroke-opacity:1"
       id="path2451"
       sodipodi:cx="10"
       sodipodi:cy="1042.3622"
       sodipodi:rx="10"
       sodipodi:ry="10"
       d="M 20,1042.3622 A 10,10 0 1 1 0,1042.3622 A 10,10 0 1 1 20,1042.3622 z"
       transform="translate(395,-30.000057)" />
    <path
       sodipodi:type="arc"
       style="fill:#cbcbcb;fill-opacity:1;stroke:#000000;stroke-opacity:1"
       id="path2459"
       sodipodi:cx="10"
       sodipodi:cy="1042.3622"
       sodipodi:rx="10"
       sodipodi:ry="10"
       d="M 20,1042.3622 A 10,10 0 1 1 0,1042.3622 A 10,10 0 1 1 20,1042.3622 z"
       transform="translate(335,-30.000057)" />
    <path
       style="fill:none;fill-rule:evenodd;stroke:#000000;stroke-width:1px;stroke-linecap:butt;stroke-linejoin:miter;stroke-opacity:1"
       d="M 330,1022.3622 L 330,1027.3622 L 360,1027.3622 L 360,1022.3622"
       id="path2461" />
    <path
       style="fill:none;fill-rule:evenodd;stroke:#000000;stroke-width:1px;stroke-linecap:butt;stroke-linejoin:miter;stroke-opacity:1"
       d="M 390,1022.3622 L 390,1027.3622 L 420,1027.3622 L 420,1022.3622"
       id="path2463" />
    <path
       style="fill:none;fill-rule:evenodd;stroke:#000000;stroke-width:1px;stroke-linecap:butt;stroke-linejoin:miter;stroke-opacity:1"
       d="M 360,1022.3622 L 360,1027.3622 L 390,1027.3622 L 390,1022.3622"
       id="path2467" />
    <path
       style="fill:none;fill-rule:evenodd;stroke:#000000;stroke-width:1px;stroke-linecap:butt;stroke-linejoin:miter;stroke-opacity:1"
       d="M 550,1022.3622 L 550,1027.3622 L 580,1027.3622 L 580,1022.3622"
       id="path2473" />
    <path
       style="fill:none;fill-rule:evenodd;stroke:#000000;stroke-width:1px;stroke-linecap:butt;stroke-linejoin:miter;stroke-opacity:1"
       d="M 610,1022.3622 L 610,1027.3622 L 640,1027.3622 L 640,1022.3622"
       id="path2475" />
    <path
       style="fill:none;fill-rule:evenodd;stroke:#000000;stroke-width:1px;stroke-linecap:butt;stroke-linejoin:miter;stroke-opacity:1"
       d="M 580,1022.3622 L 580,1027.3622 L 610,1027.3622 L 610,1022.3622"
       id="path2477" />
    <path
       sodipodi:type="arc"
       style="fill:#cbcbcb;fill-opacity:1;stroke:#000000;stroke-opacity:1"
       id="path2481"
       sodipodi:cx="10"
       sodipodi:cy="1042.3622"
       sodipodi:rx="10"
       sodipodi:ry="10"
       d="M 20,1042.3622 A 10,10 0 1 1 0,1042.3622 A 10,10 0 1 1 20,1042.3622 z"
       transform="translate(445,-30.000067)" />
    <path
       style="fill:none;fill-rule:evenodd;stroke:#000000;stroke-width:1px;stroke-linecap:butt;stroke-linejoin:miter;stroke-opacity:1"
       d="M 440,1022.3622 L 440,1027.3622 L 470,1027.3622 L 470,1022.3622"
       id="path2483" />
    <path
       style="fill:none;fill-rule:evenodd;stroke:#000000;stroke-width:1px;stroke-linecap:butt;stroke-linejoin:miter;stroke-opacity:1"
       d="M 500,1022.3622 L 500,1027.3622 L 530,1027.3622 L 530,1022.3622"
       id="path2485" />
    <path
       style="fill:none;fill-rule:evenodd;stroke:#000000;stroke-width:1px;stroke-linecap:butt;stroke-linejoin:miter;stroke-opacity:1"
       d="M 470,1022.3622 L 470,1027.3622 L 500,1027.3622 L 500,1022.3622"
       id="path2487" />
    <path
       style="fill:none;fill-opacity:1;fill-rule:evenodd;stroke:#000000;stroke-width:1px;stroke-linecap:butt;stroke-linejoin:miter;marker-mid:none;marker-end:url(#Arrow1Mend);stroke-opacity:1"
       d="M 90,1037.3622 L 110,1037.3622"
       id="path2489" />
    <text
       xml:space="preserve"
       style="font-size:12px;font-style:normal;font-variant:normal;font-weight:normal;font-stretch:normal;text-align:start;line-height:100%;writing-mode:lr-tb;text-anchor:start;fill:#000000;fill-opacity:1;stroke:none;stroke-width:1px;stroke-linecap:butt;stroke-linejoin:miter;stroke-opacity:1;font-family:Arial;-inkscape-font-specification:Arial"
       x="20"
       y="1042.3622"
       id="text6778"
       sodipodi:linespacing="100%"><tspan
         sodipodi:role="line"
         id="tspan6780"
         x="20"
         y="1042.3622">A moves</tspan></text>
    <text
       xml:space="preserve"
       style="font-size:12px;font-style:normal;font-variant:normal;font-weight:normal;font-stretch:normal;text-align:start;line-height:100%;writing-mode:lr-tb;text-anchor:start;fill:#000000;fill-opacity:1;stroke:none;stroke-width:1px;stroke-linecap:butt;stroke-linejoin:miter;stroke-opacity:1;font-family:Arial;-inkscape-font-specification:Arial"
       x="465"
       y="1042.3622"
       id="text6782"
       sodipodi:linespacing="100%"><tspan
         sodipodi:role="line"
         id="tspan6784"
         x="465"
         y="1042.3622">A moves</tspan></text>
    <text
       xml:space="preserve"
       style="font-size:12px;font-style:normal;font-variant:normal;font-weight:normal;font-stretch:normal;text-align:start;line-height:100%;writing-mode:lr-tb;text-anchor:start;fill:#000000;fill-opacity:1;stroke:none;stroke-width:1px;stroke-linecap:butt;stroke-linejoin:miter;stroke-opacity:1;font-family:Arial;-inkscape-font-specification:Arial"
       x="240"
       y="1042.3622"
       id="text6786"
       sodipodi:linespacing="100%"><tspan
         sodipodi:role="line"
         id="tspan6788"
         x="240"
         y="1042.3622">A moves</tspan></text>
    <text
       xml:space="preserve"
       style="font-size:12px;font-style:normal;font-variant:normal;font-weight:normal;font-stretch:normal;text-align:start;line-height:100%;writing-mode:lr-tb;text-anchor:start;fill:#000000;fill-opacity:1;stroke:none;stroke-width:1px;stroke-linecap:butt;stroke-linejoin:miter;stroke-opacity:1;font-family:Arial;-inkscape-font-specification:Arial"
       x="135"
       y="1042.3622"
       id="text6790"
       sodipodi:linespacing="100%"><tspan
         sodipodi:role="line"
         id="tspan6794"
         x="135"
         y="1042.3622">B moves</tspan></text>
    <text
       xml:space="preserve"
       style="font-size:12px;font-style:normal;font-variant:normal;font-weight:normal;font-stretch:normal;text-align:start;line-height:100%;writing-mode:lr-tb;text-anchor:start;fill:#000000;fill-opacity:1;stroke:none;stroke-width:1px;stroke-linecap:butt;stroke-linejoin:miter;stroke-opacity:1;font-family:Arial;-inkscape-font-specification:Arial"
       x="355"
       y="1042.3622"
       id="text6796"
       sodipodi:linespacing="100%"><tspan
         sodipodi:role="line"
         id="tspan6798"
         x="355"
         y="1042.3622">B moves</tspan></text>
    <text
       xml:space="preserve"
       style="font-size:12px;font-style:normal;font-variant:normal;font-weight:normal;font-stretch:normal;text-align:start;line-height:100%;writing-mode:lr-tb;text-anchor:start;fill:#000000;fill-opacity:1;stroke:none;stroke-width:1px;stroke-linecap:butt;stroke-linejoin:miter;stroke-opacity:1;font-family:Arial;-inkscape-font-specification:Arial"
       x="575"
       y="1042.3622"
       id="text6800"
       sodipodi:linespacing="100%"><tspan
         sodipodi:role="line"
         id="tspan6804"
         x="575"
         y="1042.3622">B looses</tspan></text>
    <path
       style="fill:none;fill-opacity:1;fill-rule:evenodd;stroke:#000000;stroke-width:1px;stroke-linecap:butt;stroke-linejoin:miter;marker-mid:none;marker-end:url(#Arrow1Mend);stroke-opacity:1"
       d="M 530,1037.3622 L 550,1037.3622"
       id="path6806" />
    <path
       style="fill:none;fill-opacity:1;fill-rule:evenodd;stroke:#000000;stroke-width:1px;stroke-linecap:butt;stroke-linejoin:miter;marker-mid:none;marker-end:url(#Arrow1Mend);stroke-opacity:1"
       d="M 420,1037.3622 L 440,1037.3622"
       id="path6808" />
    <path
       style="fill:none;fill-opacity:1;fill-rule:evenodd;stroke:#000000;stroke-width:1px;stroke-linecap:butt;stroke-linejoin:miter;marker-mid:none;marker-end:url(#Arrow1Mend);stroke-opacity:1"
       d="M 310,1037.3622 L 330,1037.3622"
       id="path6810" />
    <path
       style="fill:none;fill-opacity:1;fill-rule:evenodd;stroke:#000000;stroke-width:1px;stroke-linecap:butt;stroke-linejoin:miter;marker-mid:none;marker-end:url(#Arrow1Mend);stroke-opacity:1"
       d="M 200,1037.3622 L 220,1037.3622"
       id="path6812" />
  </g>
</svg>
