<?xml version="1.0" encoding="UTF-8" standalone="no"?>
<!-- Created with Inkscape (http://www.inkscape.org/) -->

<svg
   xmlns:ns0="http://www.iki.fi/pav/software/textext/"
   xmlns:dc="http://purl.org/dc/elements/1.1/"
   xmlns:cc="http://creativecommons.org/ns#"
   xmlns:rdf="http://www.w3.org/1999/02/22-rdf-syntax-ns#"
   xmlns:svg="http://www.w3.org/2000/svg"
   xmlns="http://www.w3.org/2000/svg"
   xmlns:xlink="http://www.w3.org/1999/xlink"
   xmlns:sodipodi="http://sodipodi.sourceforge.net/DTD/sodipodi-0.dtd"
   xmlns:inkscape="http://www.inkscape.org/namespaces/inkscape"
   width="525"
   height="505"
   id="svg2"
   sodipodi:version="0.32"
   inkscape:version="0.47 r22583"
   sodipodi:docname="trigadd.svg"
   inkscape:output_extension="org.inkscape.output.svg.inkscape"
   version="1.0"
   inkscape:export-filename="/home/jmr/sliksvn/blog/2009/Remembering Trigonometric Addition Formulas/trigadd.png"
   inkscape:export-xdpi="90"
   inkscape:export-ydpi="90">
  <title
     id="title5054">Addition formulas for sine and cosine</title>
  <sodipodi:namedview
     id="base"
     pagecolor="#ffffff"
     bordercolor="#666666"
     borderopacity="1.0"
     gridtolerance="10000"
     guidetolerance="10"
     objecttolerance="10"
     inkscape:pageopacity="1"
     inkscape:pageshadow="2"
     inkscape:zoom="1.5240062"
     inkscape:cx="264.80049"
     inkscape:cy="252.125"
     inkscape:document-units="px"
     inkscape:current-layer="layer1"
     showgrid="true"
     inkscape:window-width="1672"
     inkscape:window-height="993"
     inkscape:window-x="0"
     inkscape:window-y="0"
     inkscape:window-maximized="0">
    <inkscape:grid
       enabled="true"
       visible="true"
       id="grid2383"
       type="xygrid"
       empspacing="5"
       snapvisiblegridlinesonly="true" />
  </sodipodi:namedview>
  <defs
     id="defs4">
    <inkscape:perspective
       id="perspective10"
       inkscape:persp3d-origin="372.04724 : 350.78739 : 1"
       inkscape:vp_z="744.09448 : 526.18109 : 1"
       inkscape:vp_y="0 : 1000 : 0"
       inkscape:vp_x="0 : 526.18109 : 1"
       sodipodi:type="inkscape:persp3d" />
  </defs>
  <metadata
     id="metadata7">
    <rdf:RDF>
      <cc:Work
         rdf:about="">
        <dc:format>image/svg+xml</dc:format>
        <dc:type
           rdf:resource="http://purl.org/dc/dcmitype/StillImage" />
        <cc:license
           rdf:resource="http://creativecommons.org/licenses/by-sa/3.0/" />
        <dc:title>Addition formulas for sine and cosine</dc:title>
        <dc:date>2010</dc:date>
        <dc:creator>
          <cc:Agent>
            <dc:title>Sputsoft</dc:title>
          </cc:Agent>
        </dc:creator>
      </cc:Work>
      <cc:License
         rdf:about="http://creativecommons.org/licenses/by-sa/3.0/">
        <cc:permits
           rdf:resource="http://creativecommons.org/ns#Reproduction" />
        <cc:permits
           rdf:resource="http://creativecommons.org/ns#Distribution" />
        <cc:requires
           rdf:resource="http://creativecommons.org/ns#Notice" />
        <cc:requires
           rdf:resource="http://creativecommons.org/ns#Attribution" />
        <cc:permits
           rdf:resource="http://creativecommons.org/ns#DerivativeWorks" />
        <cc:requires
           rdf:resource="http://creativecommons.org/ns#ShareAlike" />
      </cc:License>
    </rdf:RDF>
  </metadata>
  <g
     id="layer1"
     inkscape:groupmode="layer"
     inkscape:label="Layer 1"
     transform="translate(-99.5,-470.95468)">
    <path
       id="path3216"
       d="m 400.00024,502.36218 -280.00024,440 280.00024,0 0,-440 z"
       style="fill:#dddddd;fill-opacity:1;fill-rule:evenodd;stroke:none" />
    <rect
       y="502.45123"
       x="119.96912"
       height="439.94189"
       width="400.06232"
       id="rect2385"
       style="fill:#ff0000;stroke:#000000;stroke-width:0.93809425999999996;stroke-miterlimit:4;stroke-opacity:1;stroke-dasharray:none;stroke-dashoffset:0;fill-opacity:0" />
    <path
       sodipodi:nodetypes="cccc"
       id="path2387"
       d="m 120,942.36218 400.00036,-200 -120.00012,-240 -280.00024,440 z"
       style="fill:none;stroke:#000000;stroke-width:1.00000048px;stroke-linecap:butt;stroke-linejoin:bevel;stroke-opacity:1" />
    <path
       sodipodi:open="true"
       sodipodi:end="6.2831853"
       sodipodi:start="5.819635"
       d="M 135.77883,934.47712 C 138.55481,940.03043 140,946.15369 140,952.36218"
       sodipodi:ry="40"
       sodipodi:rx="40"
       sodipodi:cy="952.36218"
       sodipodi:cx="100"
       id="path2389"
       style="fill:none;stroke:#000000;stroke-width:1;stroke-miterlimit:4;stroke-opacity:1;stroke-dasharray:none;stroke-dashoffset:0"
       sodipodi:type="arc"
       transform="translate(19.999963,-9.9999948)" />
    <path
       sodipodi:open="true"
       sodipodi:end="5.8167707"
       sodipodi:start="5.2786721"
       d="m 120.92346,919.45005 c 5.9392,3.77576 10.74601,9.08829 13.91081,15.37435"
       sodipodi:ry="39"
       sodipodi:rx="39"
       sodipodi:cy="952.36218"
       sodipodi:cx="100"
       id="path3177"
       style="fill:none;stroke:#000000;stroke-width:1;stroke-linejoin:bevel;stroke-miterlimit:4;stroke-opacity:1;stroke-dasharray:none;stroke-dashoffset:0"
       sodipodi:type="arc"
       transform="translate(19.999963,-9.9999948)" />
    <path
       sodipodi:open="true"
       sodipodi:end="5.8167707"
       sodipodi:start="5.2786721"
       d="m 121.99646,917.76225 c 6.24377,3.96939 11.29708,9.55436 14.62418,16.16278"
       sodipodi:ry="41"
       sodipodi:rx="41"
       sodipodi:cy="952.36218"
       sodipodi:cx="100"
       id="path3179"
       style="fill:none;stroke:#000000;stroke-width:1;stroke-linejoin:bevel;stroke-miterlimit:4;stroke-opacity:1;stroke-dasharray:none;stroke-dashoffset:0"
       sodipodi:type="arc"
       transform="translate(19.999963,-9.9999948)" />
    <path
       id="path3187"
       d="m 510.68838,723.85592 -17.78999,9.13875 9.13876,17.78998"
       style="fill:none;stroke:#000000;stroke-width:1.00000048px;stroke-linecap:butt;stroke-linejoin:miter;stroke-opacity:1" />
    <path
       id="path3189"
       d="m 400.00024,502.36218 0,440"
       style="fill:none;stroke:#000000;stroke-width:1.00000048;stroke-linecap:butt;stroke-linejoin:miter;stroke-miterlimit:4;stroke-opacity:1;stroke-dasharray:6.0000013, 6.0000013;stroke-dashoffset:0" />
    <path
       transform="matrix(0,-1,1.0000002,0,-432.36253,842.36218)"
       sodipodi:open="true"
       sodipodi:end="6.2831853"
       sodipodi:start="5.819635"
       d="M 135.77883,934.47712 C 138.55481,940.03043 140,946.15369 140,952.36218"
       sodipodi:ry="40"
       sodipodi:rx="40"
       sodipodi:cy="952.36218"
       sodipodi:cx="100"
       id="path3212"
       style="fill:none;stroke:#000000;stroke-width:1;stroke-miterlimit:4;stroke-opacity:1;stroke-dasharray:none;stroke-dashoffset:0"
       sodipodi:type="arc" />
    <g
       id="g3067"
       ns0:preamble=""
       ns0:text="$\\sin\\alpha\\sin\\beta$"
       transform="matrix(2.0000019,0,0,2,-29.156185,226.23718)">
      <defs
         id="defs3069">
        <g
           id="g3071">
          <symbol
             id="textext-83a061cd-0"
             overflow="visible"
             style="overflow:visible">
            <path
               id="path3074"
               d=""
               style="stroke:none" />
          </symbol>
          <symbol
             id="textext-83a061cd-1"
             overflow="visible"
             style="overflow:visible">
            <path
               id="path3077"
               d="m 4.75,-2.359375 c 0,-1.5625 -0.921875,-2.046875 -1.65625,-2.046875 -1.375,0 -2.6875,1.421875 -2.6875,2.828125 0,0.9375 0.59375,1.6875 1.625,1.6875 0.625,0 1.34375,-0.234375 2.09375,-0.84375 0.125,0.53125 0.453125,0.84375 0.90625,0.84375 0.53125,0 0.84375,-0.546875 0.84375,-0.703125 0,-0.078125 -0.0625,-0.109375 -0.125,-0.109375 -0.0625,0 -0.09375,0.03125 -0.125,0.109375 -0.1875,0.484375 -0.546875,0.484375 -0.5625,0.484375 -0.3125,0 -0.3125,-0.78125 -0.3125,-1.015625 0,-0.203125 0,-0.234375 0.109375,-0.34375 C 5.796875,-2.65625 6,-3.8125 6,-3.8125 6,-3.84375 5.984375,-3.921875 5.875,-3.921875 c -0.09375,0 -0.09375,0.03125 -0.140625,0.21875 -0.1875,0.625 -0.515625,1.375 -0.984375,1.96875 l 0,-0.625 z m -0.65625,1.375 c -0.890625,0.765625 -1.65625,0.875 -2.046875,0.875 -0.59375,0 -0.90625,-0.453125 -0.90625,-1.09375 0,-0.484375 0.265625,-1.5625 0.578125,-2.0625 C 2.1875,-4 2.734375,-4.1875 3.078125,-4.1875 c 0.984375,0 0.984375,1.3125 0.984375,2.078125 0,0.375 0,0.953125 0.03125,1.125 z"
               style="stroke:none" />
          </symbol>
          <symbol
             id="textext-83a061cd-2"
             overflow="visible"
             style="overflow:visible">
            <path
               id="path3080"
               d="M 0.28125,1.6875 C 0.265625,1.71875 0.25,1.78125 0.25,1.828125 0.25,1.9375 0.34375,1.9375 0.375,1.9375 0.421875,1.9375 0.4375,1.921875 0.46875,1.890625 0.515625,1.84375 0.796875,0.5625 1.21875,-1.046875 1.375,-0.46875 1.890625,0.125 2.828125,0.125 c 1.3125,0 2.640625,-1.34375 2.640625,-2.75 0,-0.71875 -0.3125,-1.15625 -0.65625,-1.390625 C 5.5,-4.4375 5.875,-5.140625 5.875,-5.75 c 0,-0.65625 -0.453125,-1.28125 -1.328125,-1.28125 -1.296875,0 -2.421875,1.375 -2.75,2.671875 L 0.28125,1.6875 z M 3.265625,-4 C 3.375,-4.046875 3.4375,-4.078125 3.78125,-4.078125 c 0.140625,0 0.265625,0 0.390625,0.0625 C 4,-3.9375 3.78125,-3.9375 3.703125,-3.9375 c -0.25,0 -0.265625,0 -0.4375,-0.0625 z m 1.21875,-0.203125 c -0.28125,-0.09375 -0.59375,-0.09375 -0.6875,-0.09375 -0.234375,0 -0.78125,0 -0.78125,0.3125 0,0.265625 0.4375,0.265625 0.6875,0.265625 0.140625,0 0.421875,0 0.75,-0.125 C 4.671875,-3.625 4.75,-3.328125 4.75,-3.015625 c 0,0.40625 -0.203125,1.34375 -0.5,1.890625 -0.21875,0.421875 -0.734375,1.03125 -1.453125,1.03125 -0.890625,0 -1.390625,-0.65625 -1.390625,-1.46875 0,-0.234375 0.046875,-0.375 0.125,-0.734375 C 1.625,-2.671875 1.9375,-3.921875 2,-4.140625 2.46875,-5.984375 3.65625,-6.8125 4.53125,-6.8125 4.828125,-6.8125 5.25,-6.65625 5.25,-6 c 0,0.234375 -0.109375,1.3125 -0.765625,1.796875 z"
               style="stroke:none" />
          </symbol>
          <symbol
             id="textext-83a061cd-3"
             overflow="visible"
             style="overflow:visible">
            <path
               id="path3083"
               d=""
               style="stroke:none" />
          </symbol>
          <symbol
             id="textext-83a061cd-4"
             overflow="visible"
             style="overflow:visible">
            <path
               id="path3086"
               d="m 2.078125,-1.9375 c 0.21875,0.046875 1.03125,0.203125 1.03125,0.921875 0,0.5 -0.34375,0.90625 -1.125,0.90625 -0.84375,0 -1.203125,-0.5625 -1.390625,-1.421875 C 0.5625,-1.65625 0.5625,-1.6875 0.453125,-1.6875 c -0.125,0 -0.125,0.0625 -0.125,0.234375 l 0,1.328125 c 0,0.171875 0,0.234375 0.109375,0.234375 0.046875,0 0.0625,-0.015625 0.25,-0.203125 0.015625,-0.015625 0.015625,-0.03125 0.203125,-0.21875 0.4375,0.40625 0.890625,0.421875 1.09375,0.421875 1.140625,0 1.609375,-0.671875 1.609375,-1.390625 0,-0.515625 -0.296875,-0.828125 -0.421875,-0.9375 C 2.84375,-2.546875 2.453125,-2.625 2.03125,-2.703125 1.46875,-2.8125 0.8125,-2.9375 0.8125,-3.515625 c 0,-0.359375 0.25,-0.765625 1.109375,-0.765625 1.09375,0 1.15625,0.90625 1.171875,1.203125 0,0.09375 0.09375,0.09375 0.109375,0.09375 0.140625,0 0.140625,-0.046875 0.140625,-0.234375 l 0,-1.015625 c 0,-0.15625 0,-0.234375 -0.109375,-0.234375 -0.046875,0 -0.078125,0 -0.203125,0.125 -0.03125,0.03125 -0.125,0.125 -0.171875,0.15625 -0.375,-0.28125 -0.78125,-0.28125 -0.9375,-0.28125 -1.21875,0 -1.59375,0.671875 -1.59375,1.234375 0,0.34375 0.15625,0.625 0.421875,0.84375 0.328125,0.25 0.609375,0.3125 1.328125,0.453125 z"
               style="stroke:none" />
          </symbol>
          <symbol
             id="textext-83a061cd-5"
             overflow="visible"
             style="overflow:visible">
            <path
               id="path3089"
               d="M 1.765625,-4.40625 0.375,-4.296875 l 0,0.3125 c 0.640625,0 0.734375,0.0625 0.734375,0.546875 l 0,2.6875 c 0,0.4375 -0.109375,0.4375 -0.78125,0.4375 l 0,0.3125 C 0.640625,-0.015625 1.1875,-0.03125 1.421875,-0.03125 1.78125,-0.03125 2.125,-0.015625 2.46875,0 l 0,-0.3125 c -0.671875,0 -0.703125,-0.046875 -0.703125,-0.4375 l 0,-3.65625 z m 0.03125,-1.734375 c 0,-0.3125 -0.234375,-0.53125 -0.515625,-0.53125 -0.3125,0 -0.53125,0.265625 -0.53125,0.53125 0,0.265625 0.21875,0.53125 0.53125,0.53125 0.28125,0 0.515625,-0.21875 0.515625,-0.53125 z"
               style="stroke:none" />
          </symbol>
          <symbol
             id="textext-83a061cd-6"
             overflow="visible"
             style="overflow:visible">
            <path
               id="path3092"
               d="m 1.09375,-3.421875 0,2.671875 c 0,0.4375 -0.109375,0.4375 -0.78125,0.4375 l 0,0.3125 c 0.359375,-0.015625 0.859375,-0.03125 1.140625,-0.03125 0.25,0 0.765625,0.015625 1.109375,0.03125 l 0,-0.3125 c -0.671875,0 -0.78125,0 -0.78125,-0.4375 l 0,-1.84375 C 1.78125,-3.625 2.5,-4.1875 3.125,-4.1875 c 0.640625,0 0.75,0.53125 0.75,1.109375 l 0,2.328125 c 0,0.4375 -0.109375,0.4375 -0.78125,0.4375 l 0,0.3125 c 0.34375,-0.015625 0.859375,-0.03125 1.125,-0.03125 0.25,0 0.78125,0.015625 1.109375,0.03125 l 0,-0.3125 c -0.515625,0 -0.765625,0 -0.765625,-0.296875 l 0,-1.90625 c 0,-0.859375 0,-1.15625 -0.3125,-1.515625 -0.140625,-0.171875 -0.46875,-0.375 -1.046875,-0.375 C 2.46875,-4.40625 2,-3.984375 1.71875,-3.359375 l 0,-1.046875 -1.40625,0.109375 0,0.3125 c 0.703125,0 0.78125,0.0625 0.78125,0.5625 z"
               style="stroke:none" />
          </symbol>
        </g>
      </defs>
      <g
         id="textext-83a061cd-7">
        <g
           id="g3095"
           style="fill:#000000;fill-opacity:1">
          <use
             id="use3097"
             y="134.765"
             x="223.43201"
             xlink:href="#textext-83a061cd-4"
             width="744.09448"
             height="1052.3622" />
          <use
             id="use3099"
             y="134.765"
             x="227.36125"
             xlink:href="#textext-83a061cd-5"
             width="744.09448"
             height="1052.3622" />
          <use
             id="use3101"
             y="134.765"
             x="230.12886"
             xlink:href="#textext-83a061cd-6"
             width="744.09448"
             height="1052.3622" />
        </g>
        <g
           id="g3103"
           style="fill:#000000;fill-opacity:1">
          <use
             id="use3105"
             y="134.765"
             x="237.32401"
             xlink:href="#textext-83a061cd-1"
             width="744.09448"
             height="1052.3622" />
        </g>
        <g
           id="g3107"
           style="fill:#000000;fill-opacity:1">
          <use
             id="use3109"
             y="134.765"
             x="245.395"
             xlink:href="#textext-83a061cd-4"
             width="744.09448"
             height="1052.3622" />
          <use
             id="use3111"
             y="134.765"
             x="249.32425"
             xlink:href="#textext-83a061cd-5"
             width="744.09448"
             height="1052.3622" />
          <use
             id="use3113"
             y="134.765"
             x="252.09186"
             xlink:href="#textext-83a061cd-6"
             width="744.09448"
             height="1052.3622" />
        </g>
        <g
           id="g3115"
           style="fill:#000000;fill-opacity:1">
          <use
             id="use3117"
             y="134.765"
             x="259.28699"
             xlink:href="#textext-83a061cd-2"
             width="744.09448"
             height="1052.3622" />
        </g>
      </g>
    </g>
    <g
       id="g3173"
       ns0:preamble=""
       ns0:text="$\\sin\\alpha\\sin\\beta$"
       transform="matrix(2.0000019,0,0,2,-53.011398,94.064145)">
      <defs
         id="defs3175">
        <g
           id="g3177">
          <symbol
             id="symbol3179"
             overflow="visible"
             style="overflow:visible">
            <path
               id="path3181"
               d=""
               style="stroke:none" />
          </symbol>
          <symbol
             id="symbol3183"
             overflow="visible"
             style="overflow:visible">
            <path
               id="path3185"
               d="m 4.75,-2.359375 c 0,-1.5625 -0.921875,-2.046875 -1.65625,-2.046875 -1.375,0 -2.6875,1.421875 -2.6875,2.828125 0,0.9375 0.59375,1.6875 1.625,1.6875 0.625,0 1.34375,-0.234375 2.09375,-0.84375 0.125,0.53125 0.453125,0.84375 0.90625,0.84375 0.53125,0 0.84375,-0.546875 0.84375,-0.703125 0,-0.078125 -0.0625,-0.109375 -0.125,-0.109375 -0.0625,0 -0.09375,0.03125 -0.125,0.109375 -0.1875,0.484375 -0.546875,0.484375 -0.5625,0.484375 -0.3125,0 -0.3125,-0.78125 -0.3125,-1.015625 0,-0.203125 0,-0.234375 0.109375,-0.34375 C 5.796875,-2.65625 6,-3.8125 6,-3.8125 6,-3.84375 5.984375,-3.921875 5.875,-3.921875 c -0.09375,0 -0.09375,0.03125 -0.140625,0.21875 -0.1875,0.625 -0.515625,1.375 -0.984375,1.96875 l 0,-0.625 z m -0.65625,1.375 c -0.890625,0.765625 -1.65625,0.875 -2.046875,0.875 -0.59375,0 -0.90625,-0.453125 -0.90625,-1.09375 0,-0.484375 0.265625,-1.5625 0.578125,-2.0625 C 2.1875,-4 2.734375,-4.1875 3.078125,-4.1875 c 0.984375,0 0.984375,1.3125 0.984375,2.078125 0,0.375 0,0.953125 0.03125,1.125 z"
               style="stroke:none" />
          </symbol>
          <symbol
             id="symbol3187"
             overflow="visible"
             style="overflow:visible">
            <path
               id="path3190"
               d="M 0.28125,1.6875 C 0.265625,1.71875 0.25,1.78125 0.25,1.828125 0.25,1.9375 0.34375,1.9375 0.375,1.9375 0.421875,1.9375 0.4375,1.921875 0.46875,1.890625 0.515625,1.84375 0.796875,0.5625 1.21875,-1.046875 1.375,-0.46875 1.890625,0.125 2.828125,0.125 c 1.3125,0 2.640625,-1.34375 2.640625,-2.75 0,-0.71875 -0.3125,-1.15625 -0.65625,-1.390625 C 5.5,-4.4375 5.875,-5.140625 5.875,-5.75 c 0,-0.65625 -0.453125,-1.28125 -1.328125,-1.28125 -1.296875,0 -2.421875,1.375 -2.75,2.671875 L 0.28125,1.6875 z M 3.265625,-4 C 3.375,-4.046875 3.4375,-4.078125 3.78125,-4.078125 c 0.140625,0 0.265625,0 0.390625,0.0625 C 4,-3.9375 3.78125,-3.9375 3.703125,-3.9375 c -0.25,0 -0.265625,0 -0.4375,-0.0625 z m 1.21875,-0.203125 c -0.28125,-0.09375 -0.59375,-0.09375 -0.6875,-0.09375 -0.234375,0 -0.78125,0 -0.78125,0.3125 0,0.265625 0.4375,0.265625 0.6875,0.265625 0.140625,0 0.421875,0 0.75,-0.125 C 4.671875,-3.625 4.75,-3.328125 4.75,-3.015625 c 0,0.40625 -0.203125,1.34375 -0.5,1.890625 -0.21875,0.421875 -0.734375,1.03125 -1.453125,1.03125 -0.890625,0 -1.390625,-0.65625 -1.390625,-1.46875 0,-0.234375 0.046875,-0.375 0.125,-0.734375 C 1.625,-2.671875 1.9375,-3.921875 2,-4.140625 2.46875,-5.984375 3.65625,-6.8125 4.53125,-6.8125 4.828125,-6.8125 5.25,-6.65625 5.25,-6 c 0,0.234375 -0.109375,1.3125 -0.765625,1.796875 z"
               style="stroke:none" />
          </symbol>
          <symbol
             id="symbol3192"
             overflow="visible"
             style="overflow:visible">
            <path
               id="path3194"
               d=""
               style="stroke:none" />
          </symbol>
          <symbol
             id="symbol3196"
             overflow="visible"
             style="overflow:visible">
            <path
               id="path3198"
               d="m 2.078125,-1.9375 c 0.21875,0.046875 1.03125,0.203125 1.03125,0.921875 0,0.5 -0.34375,0.90625 -1.125,0.90625 -0.84375,0 -1.203125,-0.5625 -1.390625,-1.421875 C 0.5625,-1.65625 0.5625,-1.6875 0.453125,-1.6875 c -0.125,0 -0.125,0.0625 -0.125,0.234375 l 0,1.328125 c 0,0.171875 0,0.234375 0.109375,0.234375 0.046875,0 0.0625,-0.015625 0.25,-0.203125 0.015625,-0.015625 0.015625,-0.03125 0.203125,-0.21875 0.4375,0.40625 0.890625,0.421875 1.09375,0.421875 1.140625,0 1.609375,-0.671875 1.609375,-1.390625 0,-0.515625 -0.296875,-0.828125 -0.421875,-0.9375 C 2.84375,-2.546875 2.453125,-2.625 2.03125,-2.703125 1.46875,-2.8125 0.8125,-2.9375 0.8125,-3.515625 c 0,-0.359375 0.25,-0.765625 1.109375,-0.765625 1.09375,0 1.15625,0.90625 1.171875,1.203125 0,0.09375 0.09375,0.09375 0.109375,0.09375 0.140625,0 0.140625,-0.046875 0.140625,-0.234375 l 0,-1.015625 c 0,-0.15625 0,-0.234375 -0.109375,-0.234375 -0.046875,0 -0.078125,0 -0.203125,0.125 -0.03125,0.03125 -0.125,0.125 -0.171875,0.15625 -0.375,-0.28125 -0.78125,-0.28125 -0.9375,-0.28125 -1.21875,0 -1.59375,0.671875 -1.59375,1.234375 0,0.34375 0.15625,0.625 0.421875,0.84375 0.328125,0.25 0.609375,0.3125 1.328125,0.453125 z"
               style="stroke:none" />
          </symbol>
          <symbol
             id="symbol3200"
             overflow="visible"
             style="overflow:visible">
            <path
               id="path3202"
               d="M 1.765625,-4.40625 0.375,-4.296875 l 0,0.3125 c 0.640625,0 0.734375,0.0625 0.734375,0.546875 l 0,2.6875 c 0,0.4375 -0.109375,0.4375 -0.78125,0.4375 l 0,0.3125 C 0.640625,-0.015625 1.1875,-0.03125 1.421875,-0.03125 1.78125,-0.03125 2.125,-0.015625 2.46875,0 l 0,-0.3125 c -0.671875,0 -0.703125,-0.046875 -0.703125,-0.4375 l 0,-3.65625 z m 0.03125,-1.734375 c 0,-0.3125 -0.234375,-0.53125 -0.515625,-0.53125 -0.3125,0 -0.53125,0.265625 -0.53125,0.53125 0,0.265625 0.21875,0.53125 0.53125,0.53125 0.28125,0 0.515625,-0.21875 0.515625,-0.53125 z"
               style="stroke:none" />
          </symbol>
          <symbol
             id="symbol3204"
             overflow="visible"
             style="overflow:visible">
            <path
               id="path3206"
               d="m 1.09375,-3.421875 0,2.671875 c 0,0.4375 -0.109375,0.4375 -0.78125,0.4375 l 0,0.3125 c 0.359375,-0.015625 0.859375,-0.03125 1.140625,-0.03125 0.25,0 0.765625,0.015625 1.109375,0.03125 l 0,-0.3125 c -0.671875,0 -0.78125,0 -0.78125,-0.4375 l 0,-1.84375 C 1.78125,-3.625 2.5,-4.1875 3.125,-4.1875 c 0.640625,0 0.75,0.53125 0.75,1.109375 l 0,2.328125 c 0,0.4375 -0.109375,0.4375 -0.78125,0.4375 l 0,0.3125 c 0.34375,-0.015625 0.859375,-0.03125 1.125,-0.03125 0.25,0 0.78125,0.015625 1.109375,0.03125 l 0,-0.3125 c -0.515625,0 -0.765625,0 -0.765625,-0.296875 l 0,-1.90625 c 0,-0.859375 0,-1.15625 -0.3125,-1.515625 -0.140625,-0.171875 -0.46875,-0.375 -1.046875,-0.375 C 2.46875,-4.40625 2,-3.984375 1.71875,-3.359375 l 0,-1.046875 -1.40625,0.109375 0,0.3125 c 0.703125,0 0.78125,0.0625 0.78125,0.5625 z"
               style="stroke:none" />
          </symbol>
        </g>
      </defs>
      <g
         id="g3208" />
    </g>
    <g
       ns0:text="$\\cos\\alpha\\sin\\beta$"
       ns0:preamble=""
       transform="matrix(2.0000019,0,0,2,76.406208,354.64343)"
       id="g3368">
      <defs
         id="defs3370">
        <g
           id="g3372">
          <symbol
             style="overflow:visible"
             overflow="visible"
             id="textext-d3b0aab5-0">
            <path
               style="stroke:none"
               d=""
               id="path3375" />
          </symbol>
          <symbol
             style="overflow:visible"
             overflow="visible"
             id="textext-d3b0aab5-1">
            <path
               style="stroke:none"
               d="m 3.578125,-3.84375 c -0.40625,0.03125 -0.46875,0.328125 -0.46875,0.453125 0,0.265625 0.1875,0.453125 0.453125,0.453125 0.265625,0 0.46875,-0.15625 0.46875,-0.46875 0,-0.671875 -0.765625,-1.0625 -1.53125,-1.0625 -1.25,0 -2.15625,1.078125 -2.15625,2.3125 0,1.28125 0.984375,2.265625 2.140625,2.265625 1.328125,0 1.65625,-1.203125 1.65625,-1.296875 0,-0.09375 -0.109375,-0.09375 -0.140625,-0.09375 -0.078125,0 -0.109375,0.03125 -0.125,0.09375 -0.28125,0.921875 -0.9375,1.046875 -1.296875,1.046875 -0.53125,0 -1.40625,-0.421875 -1.40625,-2.03125 0,-1.625 0.8125,-2.046875 1.34375,-2.046875 0.09375,0 0.71875,0.015625 1.0625,0.375 z"
               id="path3378" />
          </symbol>
          <symbol
             style="overflow:visible"
             overflow="visible"
             id="textext-d3b0aab5-2">
            <path
               style="stroke:none"
               d="M 4.6875,-2.140625 C 4.6875,-3.40625 3.703125,-4.46875 2.5,-4.46875 c -1.25,0 -2.21875,1.09375 -2.21875,2.328125 0,1.296875 1.03125,2.25 2.203125,2.25 1.203125,0 2.203125,-0.984375 2.203125,-2.25 z m -2.1875,2 c -0.4375,0 -0.875,-0.203125 -1.140625,-0.671875 -0.25,-0.4375 -0.25,-1.046875 -0.25,-1.40625 0,-0.390625 0,-0.921875 0.234375,-1.359375 C 1.609375,-4.03125 2.078125,-4.25 2.484375,-4.25 c 0.4375,0 0.859375,0.21875 1.125,0.65625 0.265625,0.421875 0.265625,1 0.265625,1.375 0,0.359375 0,0.90625 -0.21875,1.34375 C 3.421875,-0.421875 2.984375,-0.140625 2.5,-0.140625 z"
               id="path3381" />
          </symbol>
          <symbol
             style="overflow:visible"
             overflow="visible"
             id="textext-d3b0aab5-3">
            <path
               style="stroke:none"
               d="m 2.078125,-1.9375 c 0.21875,0.046875 1.03125,0.203125 1.03125,0.921875 0,0.5 -0.34375,0.90625 -1.125,0.90625 -0.84375,0 -1.203125,-0.5625 -1.390625,-1.421875 C 0.5625,-1.65625 0.5625,-1.6875 0.453125,-1.6875 c -0.125,0 -0.125,0.0625 -0.125,0.234375 l 0,1.328125 c 0,0.171875 0,0.234375 0.109375,0.234375 0.046875,0 0.0625,-0.015625 0.25,-0.203125 0.015625,-0.015625 0.015625,-0.03125 0.203125,-0.21875 0.4375,0.40625 0.890625,0.421875 1.09375,0.421875 1.140625,0 1.609375,-0.671875 1.609375,-1.390625 0,-0.515625 -0.296875,-0.828125 -0.421875,-0.9375 C 2.84375,-2.546875 2.453125,-2.625 2.03125,-2.703125 1.46875,-2.8125 0.8125,-2.9375 0.8125,-3.515625 c 0,-0.359375 0.25,-0.765625 1.109375,-0.765625 1.09375,0 1.15625,0.90625 1.171875,1.203125 0,0.09375 0.09375,0.09375 0.109375,0.09375 0.140625,0 0.140625,-0.046875 0.140625,-0.234375 l 0,-1.015625 c 0,-0.15625 0,-0.234375 -0.109375,-0.234375 -0.046875,0 -0.078125,0 -0.203125,0.125 -0.03125,0.03125 -0.125,0.125 -0.171875,0.15625 -0.375,-0.28125 -0.78125,-0.28125 -0.9375,-0.28125 -1.21875,0 -1.59375,0.671875 -1.59375,1.234375 0,0.34375 0.15625,0.625 0.421875,0.84375 0.328125,0.25 0.609375,0.3125 1.328125,0.453125 z"
               id="path3384" />
          </symbol>
          <symbol
             style="overflow:visible"
             overflow="visible"
             id="textext-d3b0aab5-4">
            <path
               style="stroke:none"
               d="M 1.765625,-4.40625 0.375,-4.296875 l 0,0.3125 c 0.640625,0 0.734375,0.0625 0.734375,0.546875 l 0,2.6875 c 0,0.4375 -0.109375,0.4375 -0.78125,0.4375 l 0,0.3125 C 0.640625,-0.015625 1.1875,-0.03125 1.421875,-0.03125 1.78125,-0.03125 2.125,-0.015625 2.46875,0 l 0,-0.3125 c -0.671875,0 -0.703125,-0.046875 -0.703125,-0.4375 l 0,-3.65625 z m 0.03125,-1.734375 c 0,-0.3125 -0.234375,-0.53125 -0.515625,-0.53125 -0.3125,0 -0.53125,0.265625 -0.53125,0.53125 0,0.265625 0.21875,0.53125 0.53125,0.53125 0.28125,0 0.515625,-0.21875 0.515625,-0.53125 z"
               id="path3387" />
          </symbol>
          <symbol
             style="overflow:visible"
             overflow="visible"
             id="textext-d3b0aab5-5">
            <path
               style="stroke:none"
               d="m 1.09375,-3.421875 0,2.671875 c 0,0.4375 -0.109375,0.4375 -0.78125,0.4375 l 0,0.3125 c 0.359375,-0.015625 0.859375,-0.03125 1.140625,-0.03125 0.25,0 0.765625,0.015625 1.109375,0.03125 l 0,-0.3125 c -0.671875,0 -0.78125,0 -0.78125,-0.4375 l 0,-1.84375 C 1.78125,-3.625 2.5,-4.1875 3.125,-4.1875 c 0.640625,0 0.75,0.53125 0.75,1.109375 l 0,2.328125 c 0,0.4375 -0.109375,0.4375 -0.78125,0.4375 l 0,0.3125 c 0.34375,-0.015625 0.859375,-0.03125 1.125,-0.03125 0.25,0 0.78125,0.015625 1.109375,0.03125 l 0,-0.3125 c -0.515625,0 -0.765625,0 -0.765625,-0.296875 l 0,-1.90625 c 0,-0.859375 0,-1.15625 -0.3125,-1.515625 -0.140625,-0.171875 -0.46875,-0.375 -1.046875,-0.375 C 2.46875,-4.40625 2,-3.984375 1.71875,-3.359375 l 0,-1.046875 -1.40625,0.109375 0,0.3125 c 0.703125,0 0.78125,0.0625 0.78125,0.5625 z"
               id="path3390" />
          </symbol>
          <symbol
             style="overflow:visible"
             overflow="visible"
             id="textext-d3b0aab5-6">
            <path
               style="stroke:none"
               d=""
               id="path3393" />
          </symbol>
          <symbol
             style="overflow:visible"
             overflow="visible"
             id="textext-d3b0aab5-7">
            <path
               style="stroke:none"
               d="m 4.75,-2.359375 c 0,-1.5625 -0.921875,-2.046875 -1.65625,-2.046875 -1.375,0 -2.6875,1.421875 -2.6875,2.828125 0,0.9375 0.59375,1.6875 1.625,1.6875 0.625,0 1.34375,-0.234375 2.09375,-0.84375 0.125,0.53125 0.453125,0.84375 0.90625,0.84375 0.53125,0 0.84375,-0.546875 0.84375,-0.703125 0,-0.078125 -0.0625,-0.109375 -0.125,-0.109375 -0.0625,0 -0.09375,0.03125 -0.125,0.109375 -0.1875,0.484375 -0.546875,0.484375 -0.5625,0.484375 -0.3125,0 -0.3125,-0.78125 -0.3125,-1.015625 0,-0.203125 0,-0.234375 0.109375,-0.34375 C 5.796875,-2.65625 6,-3.8125 6,-3.8125 6,-3.84375 5.984375,-3.921875 5.875,-3.921875 c -0.09375,0 -0.09375,0.03125 -0.140625,0.21875 -0.1875,0.625 -0.515625,1.375 -0.984375,1.96875 l 0,-0.625 z m -0.65625,1.375 c -0.890625,0.765625 -1.65625,0.875 -2.046875,0.875 -0.59375,0 -0.90625,-0.453125 -0.90625,-1.09375 0,-0.484375 0.265625,-1.5625 0.578125,-2.0625 C 2.1875,-4 2.734375,-4.1875 3.078125,-4.1875 c 0.984375,0 0.984375,1.3125 0.984375,2.078125 0,0.375 0,0.953125 0.03125,1.125 z"
               id="path3396" />
          </symbol>
          <symbol
             style="overflow:visible"
             overflow="visible"
             id="textext-d3b0aab5-8">
            <path
               style="stroke:none"
               d="M 0.28125,1.6875 C 0.265625,1.71875 0.25,1.78125 0.25,1.828125 0.25,1.9375 0.34375,1.9375 0.375,1.9375 0.421875,1.9375 0.4375,1.921875 0.46875,1.890625 0.515625,1.84375 0.796875,0.5625 1.21875,-1.046875 1.375,-0.46875 1.890625,0.125 2.828125,0.125 c 1.3125,0 2.640625,-1.34375 2.640625,-2.75 0,-0.71875 -0.3125,-1.15625 -0.65625,-1.390625 C 5.5,-4.4375 5.875,-5.140625 5.875,-5.75 c 0,-0.65625 -0.453125,-1.28125 -1.328125,-1.28125 -1.296875,0 -2.421875,1.375 -2.75,2.671875 L 0.28125,1.6875 z M 3.265625,-4 C 3.375,-4.046875 3.4375,-4.078125 3.78125,-4.078125 c 0.140625,0 0.265625,0 0.390625,0.0625 C 4,-3.9375 3.78125,-3.9375 3.703125,-3.9375 c -0.25,0 -0.265625,0 -0.4375,-0.0625 z m 1.21875,-0.203125 c -0.28125,-0.09375 -0.59375,-0.09375 -0.6875,-0.09375 -0.234375,0 -0.78125,0 -0.78125,0.3125 0,0.265625 0.4375,0.265625 0.6875,0.265625 0.140625,0 0.421875,0 0.75,-0.125 C 4.671875,-3.625 4.75,-3.328125 4.75,-3.015625 c 0,0.40625 -0.203125,1.34375 -0.5,1.890625 -0.21875,0.421875 -0.734375,1.03125 -1.453125,1.03125 -0.890625,0 -1.390625,-0.65625 -1.390625,-1.46875 0,-0.234375 0.046875,-0.375 0.125,-0.734375 C 1.625,-2.671875 1.9375,-3.921875 2,-4.140625 2.46875,-5.984375 3.65625,-6.8125 4.53125,-6.8125 4.828125,-6.8125 5.25,-6.65625 5.25,-6 c 0,0.234375 -0.109375,1.3125 -0.765625,1.796875 z"
               id="path3399" />
          </symbol>
        </g>
      </defs>
      <g
         id="textext-d3b0aab5-9">
        <g
           style="fill:#000000;fill-opacity:1"
           id="g3402">
          <use
             height="1052.3622"
             width="744.09448"
             xlink:href="#textext-d3b0aab5-1"
             x="223.43201"
             y="134.765"
             id="use3404" />
          <use
             height="1052.3622"
             width="744.09448"
             xlink:href="#textext-d3b0aab5-2"
             x="227.85938"
             y="134.765"
             id="use3406" />
          <use
             height="1052.3622"
             width="744.09448"
             xlink:href="#textext-d3b0aab5-3"
             x="232.84068"
             y="134.765"
             id="use3408" />
        </g>
        <g
           style="fill:#000000;fill-opacity:1"
           id="g3410">
          <use
             height="1052.3622"
             width="744.09448"
             xlink:href="#textext-d3b0aab5-7"
             x="238.431"
             y="134.765"
             id="use3412" />
        </g>
        <g
           style="fill:#000000;fill-opacity:1"
           id="g3414">
          <use
             height="1052.3622"
             width="744.09448"
             xlink:href="#textext-d3b0aab5-3"
             x="246.502"
             y="134.765"
             id="use3416" />
          <use
             height="1052.3622"
             width="744.09448"
             xlink:href="#textext-d3b0aab5-4"
             x="250.43124"
             y="134.765"
             id="use3418" />
          <use
             height="1052.3622"
             width="744.09448"
             xlink:href="#textext-d3b0aab5-5"
             x="253.19885"
             y="134.765"
             id="use3420" />
        </g>
        <g
           style="fill:#000000;fill-opacity:1"
           id="g3422">
          <use
             height="1052.3622"
             width="744.09448"
             xlink:href="#textext-d3b0aab5-8"
             x="260.39401"
             y="134.765"
             id="use3424" />
        </g>
      </g>
    </g>
    <g
       id="g3634"
       ns0:preamble=""
       ns0:text="$\\alpha$"
       transform="matrix(2.0000019,0,0,2,-285.50022,666.83093)">
      <defs
         id="defs3636">
        <g
           id="g3638">
          <symbol
             id="textext-343dd380-0"
             overflow="visible"
             style="overflow:visible">
            <path
               id="path3641"
               d=""
               style="stroke:none" />
          </symbol>
          <symbol
             id="textext-343dd380-1"
             overflow="visible"
             style="overflow:visible">
            <path
               id="path3644"
               d="m 4.75,-2.359375 c 0,-1.5625 -0.921875,-2.046875 -1.65625,-2.046875 -1.375,0 -2.6875,1.421875 -2.6875,2.828125 0,0.9375 0.59375,1.6875 1.625,1.6875 0.625,0 1.34375,-0.234375 2.09375,-0.84375 0.125,0.53125 0.453125,0.84375 0.90625,0.84375 0.53125,0 0.84375,-0.546875 0.84375,-0.703125 0,-0.078125 -0.0625,-0.109375 -0.125,-0.109375 -0.0625,0 -0.09375,0.03125 -0.125,0.109375 -0.1875,0.484375 -0.546875,0.484375 -0.5625,0.484375 -0.3125,0 -0.3125,-0.78125 -0.3125,-1.015625 0,-0.203125 0,-0.234375 0.109375,-0.34375 C 5.796875,-2.65625 6,-3.8125 6,-3.8125 6,-3.84375 5.984375,-3.921875 5.875,-3.921875 c -0.09375,0 -0.09375,0.03125 -0.140625,0.21875 -0.1875,0.625 -0.515625,1.375 -0.984375,1.96875 l 0,-0.625 z m -0.65625,1.375 c -0.890625,0.765625 -1.65625,0.875 -2.046875,0.875 -0.59375,0 -0.90625,-0.453125 -0.90625,-1.09375 0,-0.484375 0.265625,-1.5625 0.578125,-2.0625 C 2.1875,-4 2.734375,-4.1875 3.078125,-4.1875 c 0.984375,0 0.984375,1.3125 0.984375,2.078125 0,0.375 0,0.953125 0.03125,1.125 z"
               style="stroke:none" />
          </symbol>
        </g>
      </defs>
      <g
         id="textext-343dd380-2">
        <g
           id="g3647"
           style="fill:#000000;fill-opacity:1">
          <use
             id="use3649"
             y="134.765"
             x="223.43201"
             xlink:href="#textext-343dd380-1"
             width="744.09448"
             height="1052.3622" />
        </g>
      </g>
    </g>
    <g
       ns0:text="$\\beta$"
       ns0:preamble=""
       transform="matrix(2.0000019,0,0,2,-293.53148,641.36218)"
       id="g3885">
      <defs
         id="defs3887">
        <g
           id="g3889">
          <symbol
             style="overflow:visible"
             overflow="visible"
             id="textext-852aef09-0">
            <path
               style="stroke:none"
               d=""
               id="path3892" />
          </symbol>
          <symbol
             style="overflow:visible"
             overflow="visible"
             id="textext-852aef09-1">
            <path
               style="stroke:none"
               d="M 0.28125,1.6875 C 0.265625,1.71875 0.25,1.78125 0.25,1.828125 0.25,1.9375 0.34375,1.9375 0.375,1.9375 0.421875,1.9375 0.4375,1.921875 0.46875,1.890625 0.515625,1.84375 0.796875,0.5625 1.21875,-1.046875 1.375,-0.46875 1.890625,0.125 2.828125,0.125 c 1.3125,0 2.640625,-1.34375 2.640625,-2.75 0,-0.71875 -0.3125,-1.15625 -0.65625,-1.390625 C 5.5,-4.4375 5.875,-5.140625 5.875,-5.75 c 0,-0.65625 -0.453125,-1.28125 -1.328125,-1.28125 -1.296875,0 -2.421875,1.375 -2.75,2.671875 L 0.28125,1.6875 z M 3.265625,-4 C 3.375,-4.046875 3.4375,-4.078125 3.78125,-4.078125 c 0.140625,0 0.265625,0 0.390625,0.0625 C 4,-3.9375 3.78125,-3.9375 3.703125,-3.9375 c -0.25,0 -0.265625,0 -0.4375,-0.0625 z m 1.21875,-0.203125 c -0.28125,-0.09375 -0.59375,-0.09375 -0.6875,-0.09375 -0.234375,0 -0.78125,0 -0.78125,0.3125 0,0.265625 0.4375,0.265625 0.6875,0.265625 0.140625,0 0.421875,0 0.75,-0.125 C 4.671875,-3.625 4.75,-3.328125 4.75,-3.015625 c 0,0.40625 -0.203125,1.34375 -0.5,1.890625 -0.21875,0.421875 -0.734375,1.03125 -1.453125,1.03125 -0.890625,0 -1.390625,-0.65625 -1.390625,-1.46875 0,-0.234375 0.046875,-0.375 0.125,-0.734375 C 1.625,-2.671875 1.9375,-3.921875 2,-4.140625 2.46875,-5.984375 3.65625,-6.8125 4.53125,-6.8125 4.828125,-6.8125 5.25,-6.65625 5.25,-6 c 0,0.234375 -0.109375,1.3125 -0.765625,1.796875 z"
               id="path3895" />
          </symbol>
        </g>
      </defs>
      <g
         id="textext-852aef09-2">
        <g
           style="fill:#000000;fill-opacity:1"
           id="g3898">
          <use
             height="1052.3622"
             width="744.09448"
             xlink:href="#textext-852aef09-1"
             x="223.43201"
             y="134.765"
             id="use3900" />
        </g>
      </g>
    </g>
    <g
       id="g4204"
       transform="matrix(2.0000019,0,0,2,76.562458,581.17468)"
       ns0:preamble=""
       ns0:text="$\\sin\\alpha\\cos\\beta$">
      <defs
         id="defs4206">
        <g
           id="g4208">
          <symbol
             id="textext-29dd799e-0"
             overflow="visible"
             style="overflow:visible">
            <path
               id="path4211"
               d=""
               style="stroke:none" />
          </symbol>
          <symbol
             id="textext-29dd799e-1"
             overflow="visible"
             style="overflow:visible">
            <path
               id="path4214"
               d="m 2.078125,-1.9375 c 0.21875,0.046875 1.03125,0.203125 1.03125,0.921875 0,0.5 -0.34375,0.90625 -1.125,0.90625 -0.84375,0 -1.203125,-0.5625 -1.390625,-1.421875 C 0.5625,-1.65625 0.5625,-1.6875 0.453125,-1.6875 c -0.125,0 -0.125,0.0625 -0.125,0.234375 l 0,1.328125 c 0,0.171875 0,0.234375 0.109375,0.234375 0.046875,0 0.0625,-0.015625 0.25,-0.203125 0.015625,-0.015625 0.015625,-0.03125 0.203125,-0.21875 0.4375,0.40625 0.890625,0.421875 1.09375,0.421875 1.140625,0 1.609375,-0.671875 1.609375,-1.390625 0,-0.515625 -0.296875,-0.828125 -0.421875,-0.9375 C 2.84375,-2.546875 2.453125,-2.625 2.03125,-2.703125 1.46875,-2.8125 0.8125,-2.9375 0.8125,-3.515625 c 0,-0.359375 0.25,-0.765625 1.109375,-0.765625 1.09375,0 1.15625,0.90625 1.171875,1.203125 0,0.09375 0.09375,0.09375 0.109375,0.09375 0.140625,0 0.140625,-0.046875 0.140625,-0.234375 l 0,-1.015625 c 0,-0.15625 0,-0.234375 -0.109375,-0.234375 -0.046875,0 -0.078125,0 -0.203125,0.125 -0.03125,0.03125 -0.125,0.125 -0.171875,0.15625 -0.375,-0.28125 -0.78125,-0.28125 -0.9375,-0.28125 -1.21875,0 -1.59375,0.671875 -1.59375,1.234375 0,0.34375 0.15625,0.625 0.421875,0.84375 0.328125,0.25 0.609375,0.3125 1.328125,0.453125 z"
               style="stroke:none" />
          </symbol>
          <symbol
             id="textext-29dd799e-2"
             overflow="visible"
             style="overflow:visible">
            <path
               id="path4217"
               d="M 1.765625,-4.40625 0.375,-4.296875 l 0,0.3125 c 0.640625,0 0.734375,0.0625 0.734375,0.546875 l 0,2.6875 c 0,0.4375 -0.109375,0.4375 -0.78125,0.4375 l 0,0.3125 C 0.640625,-0.015625 1.1875,-0.03125 1.421875,-0.03125 1.78125,-0.03125 2.125,-0.015625 2.46875,0 l 0,-0.3125 c -0.671875,0 -0.703125,-0.046875 -0.703125,-0.4375 l 0,-3.65625 z m 0.03125,-1.734375 c 0,-0.3125 -0.234375,-0.53125 -0.515625,-0.53125 -0.3125,0 -0.53125,0.265625 -0.53125,0.53125 0,0.265625 0.21875,0.53125 0.53125,0.53125 0.28125,0 0.515625,-0.21875 0.515625,-0.53125 z"
               style="stroke:none" />
          </symbol>
          <symbol
             id="textext-29dd799e-3"
             overflow="visible"
             style="overflow:visible">
            <path
               id="path4220"
               d="m 1.09375,-3.421875 0,2.671875 c 0,0.4375 -0.109375,0.4375 -0.78125,0.4375 l 0,0.3125 c 0.359375,-0.015625 0.859375,-0.03125 1.140625,-0.03125 0.25,0 0.765625,0.015625 1.109375,0.03125 l 0,-0.3125 c -0.671875,0 -0.78125,0 -0.78125,-0.4375 l 0,-1.84375 C 1.78125,-3.625 2.5,-4.1875 3.125,-4.1875 c 0.640625,0 0.75,0.53125 0.75,1.109375 l 0,2.328125 c 0,0.4375 -0.109375,0.4375 -0.78125,0.4375 l 0,0.3125 c 0.34375,-0.015625 0.859375,-0.03125 1.125,-0.03125 0.25,0 0.78125,0.015625 1.109375,0.03125 l 0,-0.3125 c -0.515625,0 -0.765625,0 -0.765625,-0.296875 l 0,-1.90625 c 0,-0.859375 0,-1.15625 -0.3125,-1.515625 -0.140625,-0.171875 -0.46875,-0.375 -1.046875,-0.375 C 2.46875,-4.40625 2,-3.984375 1.71875,-3.359375 l 0,-1.046875 -1.40625,0.109375 0,0.3125 c 0.703125,0 0.78125,0.0625 0.78125,0.5625 z"
               style="stroke:none" />
          </symbol>
          <symbol
             id="textext-29dd799e-4"
             overflow="visible"
             style="overflow:visible">
            <path
               id="path4223"
               d="m 3.578125,-3.84375 c -0.40625,0.03125 -0.46875,0.328125 -0.46875,0.453125 0,0.265625 0.1875,0.453125 0.453125,0.453125 0.265625,0 0.46875,-0.15625 0.46875,-0.46875 0,-0.671875 -0.765625,-1.0625 -1.53125,-1.0625 -1.25,0 -2.15625,1.078125 -2.15625,2.3125 0,1.28125 0.984375,2.265625 2.140625,2.265625 1.328125,0 1.65625,-1.203125 1.65625,-1.296875 0,-0.09375 -0.109375,-0.09375 -0.140625,-0.09375 -0.078125,0 -0.109375,0.03125 -0.125,0.09375 -0.28125,0.921875 -0.9375,1.046875 -1.296875,1.046875 -0.53125,0 -1.40625,-0.421875 -1.40625,-2.03125 0,-1.625 0.8125,-2.046875 1.34375,-2.046875 0.09375,0 0.71875,0.015625 1.0625,0.375 z"
               style="stroke:none" />
          </symbol>
          <symbol
             id="textext-29dd799e-5"
             overflow="visible"
             style="overflow:visible">
            <path
               id="path4226"
               d="M 4.6875,-2.140625 C 4.6875,-3.40625 3.703125,-4.46875 2.5,-4.46875 c -1.25,0 -2.21875,1.09375 -2.21875,2.328125 0,1.296875 1.03125,2.25 2.203125,2.25 1.203125,0 2.203125,-0.984375 2.203125,-2.25 z m -2.1875,2 c -0.4375,0 -0.875,-0.203125 -1.140625,-0.671875 -0.25,-0.4375 -0.25,-1.046875 -0.25,-1.40625 0,-0.390625 0,-0.921875 0.234375,-1.359375 C 1.609375,-4.03125 2.078125,-4.25 2.484375,-4.25 c 0.4375,0 0.859375,0.21875 1.125,0.65625 0.265625,0.421875 0.265625,1 0.265625,1.375 0,0.359375 0,0.90625 -0.21875,1.34375 C 3.421875,-0.421875 2.984375,-0.140625 2.5,-0.140625 z"
               style="stroke:none" />
          </symbol>
          <symbol
             id="textext-29dd799e-6"
             overflow="visible"
             style="overflow:visible">
            <path
               id="path4229"
               d=""
               style="stroke:none" />
          </symbol>
          <symbol
             id="textext-29dd799e-7"
             overflow="visible"
             style="overflow:visible">
            <path
               id="path4232"
               d="m 4.75,-2.359375 c 0,-1.5625 -0.921875,-2.046875 -1.65625,-2.046875 -1.375,0 -2.6875,1.421875 -2.6875,2.828125 0,0.9375 0.59375,1.6875 1.625,1.6875 0.625,0 1.34375,-0.234375 2.09375,-0.84375 0.125,0.53125 0.453125,0.84375 0.90625,0.84375 0.53125,0 0.84375,-0.546875 0.84375,-0.703125 0,-0.078125 -0.0625,-0.109375 -0.125,-0.109375 -0.0625,0 -0.09375,0.03125 -0.125,0.109375 -0.1875,0.484375 -0.546875,0.484375 -0.5625,0.484375 -0.3125,0 -0.3125,-0.78125 -0.3125,-1.015625 0,-0.203125 0,-0.234375 0.109375,-0.34375 C 5.796875,-2.65625 6,-3.8125 6,-3.8125 6,-3.84375 5.984375,-3.921875 5.875,-3.921875 c -0.09375,0 -0.09375,0.03125 -0.140625,0.21875 -0.1875,0.625 -0.515625,1.375 -0.984375,1.96875 l 0,-0.625 z m -0.65625,1.375 c -0.890625,0.765625 -1.65625,0.875 -2.046875,0.875 -0.59375,0 -0.90625,-0.453125 -0.90625,-1.09375 0,-0.484375 0.265625,-1.5625 0.578125,-2.0625 C 2.1875,-4 2.734375,-4.1875 3.078125,-4.1875 c 0.984375,0 0.984375,1.3125 0.984375,2.078125 0,0.375 0,0.953125 0.03125,1.125 z"
               style="stroke:none" />
          </symbol>
          <symbol
             id="textext-29dd799e-8"
             overflow="visible"
             style="overflow:visible">
            <path
               id="path4235"
               d="M 0.28125,1.6875 C 0.265625,1.71875 0.25,1.78125 0.25,1.828125 0.25,1.9375 0.34375,1.9375 0.375,1.9375 0.421875,1.9375 0.4375,1.921875 0.46875,1.890625 0.515625,1.84375 0.796875,0.5625 1.21875,-1.046875 1.375,-0.46875 1.890625,0.125 2.828125,0.125 c 1.3125,0 2.640625,-1.34375 2.640625,-2.75 0,-0.71875 -0.3125,-1.15625 -0.65625,-1.390625 C 5.5,-4.4375 5.875,-5.140625 5.875,-5.75 c 0,-0.65625 -0.453125,-1.28125 -1.328125,-1.28125 -1.296875,0 -2.421875,1.375 -2.75,2.671875 L 0.28125,1.6875 z M 3.265625,-4 C 3.375,-4.046875 3.4375,-4.078125 3.78125,-4.078125 c 0.140625,0 0.265625,0 0.390625,0.0625 C 4,-3.9375 3.78125,-3.9375 3.703125,-3.9375 c -0.25,0 -0.265625,0 -0.4375,-0.0625 z m 1.21875,-0.203125 c -0.28125,-0.09375 -0.59375,-0.09375 -0.6875,-0.09375 -0.234375,0 -0.78125,0 -0.78125,0.3125 0,0.265625 0.4375,0.265625 0.6875,0.265625 0.140625,0 0.421875,0 0.75,-0.125 C 4.671875,-3.625 4.75,-3.328125 4.75,-3.015625 c 0,0.40625 -0.203125,1.34375 -0.5,1.890625 -0.21875,0.421875 -0.734375,1.03125 -1.453125,1.03125 -0.890625,0 -1.390625,-0.65625 -1.390625,-1.46875 0,-0.234375 0.046875,-0.375 0.125,-0.734375 C 1.625,-2.671875 1.9375,-3.921875 2,-4.140625 2.46875,-5.984375 3.65625,-6.8125 4.53125,-6.8125 4.828125,-6.8125 5.25,-6.65625 5.25,-6 c 0,0.234375 -0.109375,1.3125 -0.765625,1.796875 z"
               style="stroke:none" />
          </symbol>
        </g>
      </defs>
      <g
         id="textext-29dd799e-9">
        <g
           id="g4238"
           style="fill:#000000;fill-opacity:1">
          <use
             id="use4240"
             y="134.765"
             x="223.43201"
             xlink:href="#textext-29dd799e-1"
             width="744.09448"
             height="1052.3622" />
          <use
             id="use4242"
             y="134.765"
             x="227.36125"
             xlink:href="#textext-29dd799e-2"
             width="744.09448"
             height="1052.3622" />
          <use
             id="use4244"
             y="134.765"
             x="230.12886"
             xlink:href="#textext-29dd799e-3"
             width="744.09448"
             height="1052.3622" />
        </g>
        <g
           id="g4246"
           style="fill:#000000;fill-opacity:1">
          <use
             id="use4248"
             y="134.765"
             x="237.32401"
             xlink:href="#textext-29dd799e-7"
             width="744.09448"
             height="1052.3622" />
        </g>
        <g
           id="g4250"
           style="fill:#000000;fill-opacity:1">
          <use
             id="use4252"
             y="134.765"
             x="245.395"
             xlink:href="#textext-29dd799e-4"
             width="744.09448"
             height="1052.3622" />
          <use
             id="use4254"
             y="134.765"
             x="249.82237"
             xlink:href="#textext-29dd799e-5"
             width="744.09448"
             height="1052.3622" />
          <use
             id="use4256"
             y="134.765"
             x="254.80368"
             xlink:href="#textext-29dd799e-1"
             width="744.09448"
             height="1052.3622" />
        </g>
        <g
           id="g4258"
           style="fill:#000000;fill-opacity:1">
          <use
             id="use4260"
             y="134.765"
             x="260.39401"
             xlink:href="#textext-29dd799e-8"
             width="744.09448"
             height="1052.3622" />
        </g>
      </g>
    </g>
    <g
       ns0:text="$\\cos\\alpha\\cos\\beta$"
       ns0:preamble=""
       transform="matrix(2.0000019,0,0,2,-158.56265,692.54968)"
       id="g4632">
      <defs
         id="defs4634">
        <g
           id="g4636">
          <symbol
             overflow="visible"
             id="textext-6aaa7415-0"
             style="overflow:visible">
            <path
               style="stroke:none"
               d=""
               id="path4639" />
          </symbol>
          <symbol
             overflow="visible"
             id="textext-6aaa7415-1"
             style="overflow:visible">
            <path
               style="stroke:none"
               d="m 3.578125,-3.84375 c -0.40625,0.03125 -0.46875,0.328125 -0.46875,0.453125 0,0.265625 0.1875,0.453125 0.453125,0.453125 0.265625,0 0.46875,-0.15625 0.46875,-0.46875 0,-0.671875 -0.765625,-1.0625 -1.53125,-1.0625 -1.25,0 -2.15625,1.078125 -2.15625,2.3125 0,1.28125 0.984375,2.265625 2.140625,2.265625 1.328125,0 1.65625,-1.203125 1.65625,-1.296875 0,-0.09375 -0.109375,-0.09375 -0.140625,-0.09375 -0.078125,0 -0.109375,0.03125 -0.125,0.09375 -0.28125,0.921875 -0.9375,1.046875 -1.296875,1.046875 -0.53125,0 -1.40625,-0.421875 -1.40625,-2.03125 0,-1.625 0.8125,-2.046875 1.34375,-2.046875 0.09375,0 0.71875,0.015625 1.0625,0.375 z"
               id="path4642" />
          </symbol>
          <symbol
             overflow="visible"
             id="textext-6aaa7415-2"
             style="overflow:visible">
            <path
               style="stroke:none"
               d="M 4.6875,-2.140625 C 4.6875,-3.40625 3.703125,-4.46875 2.5,-4.46875 c -1.25,0 -2.21875,1.09375 -2.21875,2.328125 0,1.296875 1.03125,2.25 2.203125,2.25 1.203125,0 2.203125,-0.984375 2.203125,-2.25 z m -2.1875,2 c -0.4375,0 -0.875,-0.203125 -1.140625,-0.671875 -0.25,-0.4375 -0.25,-1.046875 -0.25,-1.40625 0,-0.390625 0,-0.921875 0.234375,-1.359375 C 1.609375,-4.03125 2.078125,-4.25 2.484375,-4.25 c 0.4375,0 0.859375,0.21875 1.125,0.65625 0.265625,0.421875 0.265625,1 0.265625,1.375 0,0.359375 0,0.90625 -0.21875,1.34375 C 3.421875,-0.421875 2.984375,-0.140625 2.5,-0.140625 z"
               id="path4645" />
          </symbol>
          <symbol
             overflow="visible"
             id="textext-6aaa7415-3"
             style="overflow:visible">
            <path
               style="stroke:none"
               d="m 2.078125,-1.9375 c 0.21875,0.046875 1.03125,0.203125 1.03125,0.921875 0,0.5 -0.34375,0.90625 -1.125,0.90625 -0.84375,0 -1.203125,-0.5625 -1.390625,-1.421875 C 0.5625,-1.65625 0.5625,-1.6875 0.453125,-1.6875 c -0.125,0 -0.125,0.0625 -0.125,0.234375 l 0,1.328125 c 0,0.171875 0,0.234375 0.109375,0.234375 0.046875,0 0.0625,-0.015625 0.25,-0.203125 0.015625,-0.015625 0.015625,-0.03125 0.203125,-0.21875 0.4375,0.40625 0.890625,0.421875 1.09375,0.421875 1.140625,0 1.609375,-0.671875 1.609375,-1.390625 0,-0.515625 -0.296875,-0.828125 -0.421875,-0.9375 C 2.84375,-2.546875 2.453125,-2.625 2.03125,-2.703125 1.46875,-2.8125 0.8125,-2.9375 0.8125,-3.515625 c 0,-0.359375 0.25,-0.765625 1.109375,-0.765625 1.09375,0 1.15625,0.90625 1.171875,1.203125 0,0.09375 0.09375,0.09375 0.109375,0.09375 0.140625,0 0.140625,-0.046875 0.140625,-0.234375 l 0,-1.015625 c 0,-0.15625 0,-0.234375 -0.109375,-0.234375 -0.046875,0 -0.078125,0 -0.203125,0.125 -0.03125,0.03125 -0.125,0.125 -0.171875,0.15625 -0.375,-0.28125 -0.78125,-0.28125 -0.9375,-0.28125 -1.21875,0 -1.59375,0.671875 -1.59375,1.234375 0,0.34375 0.15625,0.625 0.421875,0.84375 0.328125,0.25 0.609375,0.3125 1.328125,0.453125 z"
               id="path4648" />
          </symbol>
          <symbol
             overflow="visible"
             id="textext-6aaa7415-4"
             style="overflow:visible">
            <path
               style="stroke:none"
               d=""
               id="path4651" />
          </symbol>
          <symbol
             overflow="visible"
             id="textext-6aaa7415-5"
             style="overflow:visible">
            <path
               style="stroke:none"
               d="m 4.75,-2.359375 c 0,-1.5625 -0.921875,-2.046875 -1.65625,-2.046875 -1.375,0 -2.6875,1.421875 -2.6875,2.828125 0,0.9375 0.59375,1.6875 1.625,1.6875 0.625,0 1.34375,-0.234375 2.09375,-0.84375 0.125,0.53125 0.453125,0.84375 0.90625,0.84375 0.53125,0 0.84375,-0.546875 0.84375,-0.703125 0,-0.078125 -0.0625,-0.109375 -0.125,-0.109375 -0.0625,0 -0.09375,0.03125 -0.125,0.109375 -0.1875,0.484375 -0.546875,0.484375 -0.5625,0.484375 -0.3125,0 -0.3125,-0.78125 -0.3125,-1.015625 0,-0.203125 0,-0.234375 0.109375,-0.34375 C 5.796875,-2.65625 6,-3.8125 6,-3.8125 6,-3.84375 5.984375,-3.921875 5.875,-3.921875 c -0.09375,0 -0.09375,0.03125 -0.140625,0.21875 -0.1875,0.625 -0.515625,1.375 -0.984375,1.96875 l 0,-0.625 z m -0.65625,1.375 c -0.890625,0.765625 -1.65625,0.875 -2.046875,0.875 -0.59375,0 -0.90625,-0.453125 -0.90625,-1.09375 0,-0.484375 0.265625,-1.5625 0.578125,-2.0625 C 2.1875,-4 2.734375,-4.1875 3.078125,-4.1875 c 0.984375,0 0.984375,1.3125 0.984375,2.078125 0,0.375 0,0.953125 0.03125,1.125 z"
               id="path4654" />
          </symbol>
          <symbol
             overflow="visible"
             id="textext-6aaa7415-6"
             style="overflow:visible">
            <path
               style="stroke:none"
               d="M 0.28125,1.6875 C 0.265625,1.71875 0.25,1.78125 0.25,1.828125 0.25,1.9375 0.34375,1.9375 0.375,1.9375 0.421875,1.9375 0.4375,1.921875 0.46875,1.890625 0.515625,1.84375 0.796875,0.5625 1.21875,-1.046875 1.375,-0.46875 1.890625,0.125 2.828125,0.125 c 1.3125,0 2.640625,-1.34375 2.640625,-2.75 0,-0.71875 -0.3125,-1.15625 -0.65625,-1.390625 C 5.5,-4.4375 5.875,-5.140625 5.875,-5.75 c 0,-0.65625 -0.453125,-1.28125 -1.328125,-1.28125 -1.296875,0 -2.421875,1.375 -2.75,2.671875 L 0.28125,1.6875 z M 3.265625,-4 C 3.375,-4.046875 3.4375,-4.078125 3.78125,-4.078125 c 0.140625,0 0.265625,0 0.390625,0.0625 C 4,-3.9375 3.78125,-3.9375 3.703125,-3.9375 c -0.25,0 -0.265625,0 -0.4375,-0.0625 z m 1.21875,-0.203125 c -0.28125,-0.09375 -0.59375,-0.09375 -0.6875,-0.09375 -0.234375,0 -0.78125,0 -0.78125,0.3125 0,0.265625 0.4375,0.265625 0.6875,0.265625 0.140625,0 0.421875,0 0.75,-0.125 C 4.671875,-3.625 4.75,-3.328125 4.75,-3.015625 c 0,0.40625 -0.203125,1.34375 -0.5,1.890625 -0.21875,0.421875 -0.734375,1.03125 -1.453125,1.03125 -0.890625,0 -1.390625,-0.65625 -1.390625,-1.46875 0,-0.234375 0.046875,-0.375 0.125,-0.734375 C 1.625,-2.671875 1.9375,-3.921875 2,-4.140625 2.46875,-5.984375 3.65625,-6.8125 4.53125,-6.8125 4.828125,-6.8125 5.25,-6.65625 5.25,-6 c 0,0.234375 -0.109375,1.3125 -0.765625,1.796875 z"
               id="path4657" />
          </symbol>
        </g>
      </defs>
      <g
         id="textext-6aaa7415-7">
        <g
           style="fill:#000000;fill-opacity:1"
           id="g4660">
          <use
             xlink:href="#textext-6aaa7415-1"
             x="223.43201"
             y="134.765"
             id="use4662"
             width="744.09448"
             height="1052.3622" />
          <use
             xlink:href="#textext-6aaa7415-2"
             x="227.85938"
             y="134.765"
             id="use4664"
             width="744.09448"
             height="1052.3622" />
          <use
             xlink:href="#textext-6aaa7415-3"
             x="232.84068"
             y="134.765"
             id="use4666"
             width="744.09448"
             height="1052.3622" />
        </g>
        <g
           style="fill:#000000;fill-opacity:1"
           id="g4668">
          <use
             xlink:href="#textext-6aaa7415-5"
             x="238.431"
             y="134.765"
             id="use4670"
             width="744.09448"
             height="1052.3622" />
        </g>
        <g
           style="fill:#000000;fill-opacity:1"
           id="g4672">
          <use
             xlink:href="#textext-6aaa7415-1"
             x="246.502"
             y="134.765"
             id="use4674"
             width="744.09448"
             height="1052.3622" />
          <use
             xlink:href="#textext-6aaa7415-2"
             x="250.92938"
             y="134.765"
             id="use4676"
             width="744.09448"
             height="1052.3622" />
          <use
             xlink:href="#textext-6aaa7415-3"
             x="255.91068"
             y="134.765"
             id="use4678"
             width="744.09448"
             height="1052.3622" />
        </g>
        <g
           style="fill:#000000;fill-opacity:1"
           id="g4680">
          <use
             xlink:href="#textext-6aaa7415-6"
             x="261.50101"
             y="134.765"
             id="use4682"
             width="744.09448"
             height="1052.3622" />
        </g>
      </g>
    </g>
    <g
       id="g5114"
       transform="matrix(2.0000019,0,0,2,-135.00012,552.64343)"
       ns0:preamble=""
       ns0:text="$\\cos\\beta$">
      <defs
         id="defs5116">
        <g
           id="g5118">
          <symbol
             id="textext-94c7dbf4-0"
             overflow="visible"
             style="overflow:visible">
            <path
               id="path5121"
               d=""
               style="stroke:none" />
          </symbol>
          <symbol
             id="textext-94c7dbf4-1"
             overflow="visible"
             style="overflow:visible">
            <path
               id="path5124"
               d="m 3.578125,-3.84375 c -0.40625,0.03125 -0.46875,0.328125 -0.46875,0.453125 0,0.265625 0.1875,0.453125 0.453125,0.453125 0.265625,0 0.46875,-0.15625 0.46875,-0.46875 0,-0.671875 -0.765625,-1.0625 -1.53125,-1.0625 -1.25,0 -2.15625,1.078125 -2.15625,2.3125 0,1.28125 0.984375,2.265625 2.140625,2.265625 1.328125,0 1.65625,-1.203125 1.65625,-1.296875 0,-0.09375 -0.109375,-0.09375 -0.140625,-0.09375 -0.078125,0 -0.109375,0.03125 -0.125,0.09375 -0.28125,0.921875 -0.9375,1.046875 -1.296875,1.046875 -0.53125,0 -1.40625,-0.421875 -1.40625,-2.03125 0,-1.625 0.8125,-2.046875 1.34375,-2.046875 0.09375,0 0.71875,0.015625 1.0625,0.375 z"
               style="stroke:none" />
          </symbol>
          <symbol
             id="textext-94c7dbf4-2"
             overflow="visible"
             style="overflow:visible">
            <path
               id="path5127"
               d="M 4.6875,-2.140625 C 4.6875,-3.40625 3.703125,-4.46875 2.5,-4.46875 c -1.25,0 -2.21875,1.09375 -2.21875,2.328125 0,1.296875 1.03125,2.25 2.203125,2.25 1.203125,0 2.203125,-0.984375 2.203125,-2.25 z m -2.1875,2 c -0.4375,0 -0.875,-0.203125 -1.140625,-0.671875 -0.25,-0.4375 -0.25,-1.046875 -0.25,-1.40625 0,-0.390625 0,-0.921875 0.234375,-1.359375 C 1.609375,-4.03125 2.078125,-4.25 2.484375,-4.25 c 0.4375,0 0.859375,0.21875 1.125,0.65625 0.265625,0.421875 0.265625,1 0.265625,1.375 0,0.359375 0,0.90625 -0.21875,1.34375 C 3.421875,-0.421875 2.984375,-0.140625 2.5,-0.140625 z"
               style="stroke:none" />
          </symbol>
          <symbol
             id="textext-94c7dbf4-3"
             overflow="visible"
             style="overflow:visible">
            <path
               id="path5130"
               d="m 2.078125,-1.9375 c 0.21875,0.046875 1.03125,0.203125 1.03125,0.921875 0,0.5 -0.34375,0.90625 -1.125,0.90625 -0.84375,0 -1.203125,-0.5625 -1.390625,-1.421875 C 0.5625,-1.65625 0.5625,-1.6875 0.453125,-1.6875 c -0.125,0 -0.125,0.0625 -0.125,0.234375 l 0,1.328125 c 0,0.171875 0,0.234375 0.109375,0.234375 0.046875,0 0.0625,-0.015625 0.25,-0.203125 0.015625,-0.015625 0.015625,-0.03125 0.203125,-0.21875 0.4375,0.40625 0.890625,0.421875 1.09375,0.421875 1.140625,0 1.609375,-0.671875 1.609375,-1.390625 0,-0.515625 -0.296875,-0.828125 -0.421875,-0.9375 C 2.84375,-2.546875 2.453125,-2.625 2.03125,-2.703125 1.46875,-2.8125 0.8125,-2.9375 0.8125,-3.515625 c 0,-0.359375 0.25,-0.765625 1.109375,-0.765625 1.09375,0 1.15625,0.90625 1.171875,1.203125 0,0.09375 0.09375,0.09375 0.109375,0.09375 0.140625,0 0.140625,-0.046875 0.140625,-0.234375 l 0,-1.015625 c 0,-0.15625 0,-0.234375 -0.109375,-0.234375 -0.046875,0 -0.078125,0 -0.203125,0.125 -0.03125,0.03125 -0.125,0.125 -0.171875,0.15625 -0.375,-0.28125 -0.78125,-0.28125 -0.9375,-0.28125 -1.21875,0 -1.59375,0.671875 -1.59375,1.234375 0,0.34375 0.15625,0.625 0.421875,0.84375 0.328125,0.25 0.609375,0.3125 1.328125,0.453125 z"
               style="stroke:none" />
          </symbol>
          <symbol
             id="textext-94c7dbf4-4"
             overflow="visible"
             style="overflow:visible">
            <path
               id="path5133"
               d=""
               style="stroke:none" />
          </symbol>
          <symbol
             id="textext-94c7dbf4-5"
             overflow="visible"
             style="overflow:visible">
            <path
               id="path5136"
               d="M 0.28125,1.6875 C 0.265625,1.71875 0.25,1.78125 0.25,1.828125 0.25,1.9375 0.34375,1.9375 0.375,1.9375 0.421875,1.9375 0.4375,1.921875 0.46875,1.890625 0.515625,1.84375 0.796875,0.5625 1.21875,-1.046875 1.375,-0.46875 1.890625,0.125 2.828125,0.125 c 1.3125,0 2.640625,-1.34375 2.640625,-2.75 0,-0.71875 -0.3125,-1.15625 -0.65625,-1.390625 C 5.5,-4.4375 5.875,-5.140625 5.875,-5.75 c 0,-0.65625 -0.453125,-1.28125 -1.328125,-1.28125 -1.296875,0 -2.421875,1.375 -2.75,2.671875 L 0.28125,1.6875 z M 3.265625,-4 C 3.375,-4.046875 3.4375,-4.078125 3.78125,-4.078125 c 0.140625,0 0.265625,0 0.390625,0.0625 C 4,-3.9375 3.78125,-3.9375 3.703125,-3.9375 c -0.25,0 -0.265625,0 -0.4375,-0.0625 z m 1.21875,-0.203125 c -0.28125,-0.09375 -0.59375,-0.09375 -0.6875,-0.09375 -0.234375,0 -0.78125,0 -0.78125,0.3125 0,0.265625 0.4375,0.265625 0.6875,0.265625 0.140625,0 0.421875,0 0.75,-0.125 C 4.671875,-3.625 4.75,-3.328125 4.75,-3.015625 c 0,0.40625 -0.203125,1.34375 -0.5,1.890625 -0.21875,0.421875 -0.734375,1.03125 -1.453125,1.03125 -0.890625,0 -1.390625,-0.65625 -1.390625,-1.46875 0,-0.234375 0.046875,-0.375 0.125,-0.734375 C 1.625,-2.671875 1.9375,-3.921875 2,-4.140625 2.46875,-5.984375 3.65625,-6.8125 4.53125,-6.8125 4.828125,-6.8125 5.25,-6.65625 5.25,-6 c 0,0.234375 -0.109375,1.3125 -0.765625,1.796875 z"
               style="stroke:none" />
          </symbol>
        </g>
      </defs>
      <g
         id="textext-94c7dbf4-6">
        <g
           id="g5139"
           style="fill:#000000;fill-opacity:1">
          <use
             id="use5141"
             y="134.765"
             x="223.43201"
             xlink:href="#textext-94c7dbf4-1"
             width="744.09448"
             height="1052.3622" />
          <use
             id="use5143"
             y="134.765"
             x="227.85938"
             xlink:href="#textext-94c7dbf4-2"
             width="744.09448"
             height="1052.3622" />
          <use
             id="use5145"
             y="134.765"
             x="232.84068"
             xlink:href="#textext-94c7dbf4-3"
             width="744.09448"
             height="1052.3622" />
        </g>
        <g
           id="g5147"
           style="fill:#000000;fill-opacity:1">
          <use
             id="use5149"
             y="134.765"
             x="238.431"
             xlink:href="#textext-94c7dbf4-5"
             width="744.09448"
             height="1052.3622" />
        </g>
      </g>
    </g>
    <g
       ns0:text="$\\sin\\beta$"
       ns0:preamble=""
       transform="matrix(2.0000019,0,0,2,3.8124474,322.98718)"
       id="g5601">
      <defs
         id="defs5603">
        <g
           id="g5605">
          <symbol
             style="overflow:visible"
             overflow="visible"
             id="textext-a50536ca-0">
            <path
               style="stroke:none"
               d=""
               id="path5608" />
          </symbol>
          <symbol
             style="overflow:visible"
             overflow="visible"
             id="textext-a50536ca-1">
            <path
               style="stroke:none"
               d="M 0.28125,1.6875 C 0.265625,1.71875 0.25,1.78125 0.25,1.828125 0.25,1.9375 0.34375,1.9375 0.375,1.9375 0.421875,1.9375 0.4375,1.921875 0.46875,1.890625 0.515625,1.84375 0.796875,0.5625 1.21875,-1.046875 1.375,-0.46875 1.890625,0.125 2.828125,0.125 c 1.3125,0 2.640625,-1.34375 2.640625,-2.75 0,-0.71875 -0.3125,-1.15625 -0.65625,-1.390625 C 5.5,-4.4375 5.875,-5.140625 5.875,-5.75 c 0,-0.65625 -0.453125,-1.28125 -1.328125,-1.28125 -1.296875,0 -2.421875,1.375 -2.75,2.671875 L 0.28125,1.6875 z M 3.265625,-4 C 3.375,-4.046875 3.4375,-4.078125 3.78125,-4.078125 c 0.140625,0 0.265625,0 0.390625,0.0625 C 4,-3.9375 3.78125,-3.9375 3.703125,-3.9375 c -0.25,0 -0.265625,0 -0.4375,-0.0625 z m 1.21875,-0.203125 c -0.28125,-0.09375 -0.59375,-0.09375 -0.6875,-0.09375 -0.234375,0 -0.78125,0 -0.78125,0.3125 0,0.265625 0.4375,0.265625 0.6875,0.265625 0.140625,0 0.421875,0 0.75,-0.125 C 4.671875,-3.625 4.75,-3.328125 4.75,-3.015625 c 0,0.40625 -0.203125,1.34375 -0.5,1.890625 -0.21875,0.421875 -0.734375,1.03125 -1.453125,1.03125 -0.890625,0 -1.390625,-0.65625 -1.390625,-1.46875 0,-0.234375 0.046875,-0.375 0.125,-0.734375 C 1.625,-2.671875 1.9375,-3.921875 2,-4.140625 2.46875,-5.984375 3.65625,-6.8125 4.53125,-6.8125 4.828125,-6.8125 5.25,-6.65625 5.25,-6 c 0,0.234375 -0.109375,1.3125 -0.765625,1.796875 z"
               id="path5611" />
          </symbol>
          <symbol
             style="overflow:visible"
             overflow="visible"
             id="textext-a50536ca-2">
            <path
               style="stroke:none"
               d=""
               id="path5614" />
          </symbol>
          <symbol
             style="overflow:visible"
             overflow="visible"
             id="textext-a50536ca-3">
            <path
               style="stroke:none"
               d="m 2.078125,-1.9375 c 0.21875,0.046875 1.03125,0.203125 1.03125,0.921875 0,0.5 -0.34375,0.90625 -1.125,0.90625 -0.84375,0 -1.203125,-0.5625 -1.390625,-1.421875 C 0.5625,-1.65625 0.5625,-1.6875 0.453125,-1.6875 c -0.125,0 -0.125,0.0625 -0.125,0.234375 l 0,1.328125 c 0,0.171875 0,0.234375 0.109375,0.234375 0.046875,0 0.0625,-0.015625 0.25,-0.203125 0.015625,-0.015625 0.015625,-0.03125 0.203125,-0.21875 0.4375,0.40625 0.890625,0.421875 1.09375,0.421875 1.140625,0 1.609375,-0.671875 1.609375,-1.390625 0,-0.515625 -0.296875,-0.828125 -0.421875,-0.9375 C 2.84375,-2.546875 2.453125,-2.625 2.03125,-2.703125 1.46875,-2.8125 0.8125,-2.9375 0.8125,-3.515625 c 0,-0.359375 0.25,-0.765625 1.109375,-0.765625 1.09375,0 1.15625,0.90625 1.171875,1.203125 0,0.09375 0.09375,0.09375 0.109375,0.09375 0.140625,0 0.140625,-0.046875 0.140625,-0.234375 l 0,-1.015625 c 0,-0.15625 0,-0.234375 -0.109375,-0.234375 -0.046875,0 -0.078125,0 -0.203125,0.125 -0.03125,0.03125 -0.125,0.125 -0.171875,0.15625 -0.375,-0.28125 -0.78125,-0.28125 -0.9375,-0.28125 -1.21875,0 -1.59375,0.671875 -1.59375,1.234375 0,0.34375 0.15625,0.625 0.421875,0.84375 0.328125,0.25 0.609375,0.3125 1.328125,0.453125 z"
               id="path5617" />
          </symbol>
          <symbol
             style="overflow:visible"
             overflow="visible"
             id="textext-a50536ca-4">
            <path
               style="stroke:none"
               d="M 1.765625,-4.40625 0.375,-4.296875 l 0,0.3125 c 0.640625,0 0.734375,0.0625 0.734375,0.546875 l 0,2.6875 c 0,0.4375 -0.109375,0.4375 -0.78125,0.4375 l 0,0.3125 C 0.640625,-0.015625 1.1875,-0.03125 1.421875,-0.03125 1.78125,-0.03125 2.125,-0.015625 2.46875,0 l 0,-0.3125 c -0.671875,0 -0.703125,-0.046875 -0.703125,-0.4375 l 0,-3.65625 z m 0.03125,-1.734375 c 0,-0.3125 -0.234375,-0.53125 -0.515625,-0.53125 -0.3125,0 -0.53125,0.265625 -0.53125,0.53125 0,0.265625 0.21875,0.53125 0.53125,0.53125 0.28125,0 0.515625,-0.21875 0.515625,-0.53125 z"
               id="path5620" />
          </symbol>
          <symbol
             style="overflow:visible"
             overflow="visible"
             id="textext-a50536ca-5">
            <path
               style="stroke:none"
               d="m 1.09375,-3.421875 0,2.671875 c 0,0.4375 -0.109375,0.4375 -0.78125,0.4375 l 0,0.3125 c 0.359375,-0.015625 0.859375,-0.03125 1.140625,-0.03125 0.25,0 0.765625,0.015625 1.109375,0.03125 l 0,-0.3125 c -0.671875,0 -0.78125,0 -0.78125,-0.4375 l 0,-1.84375 C 1.78125,-3.625 2.5,-4.1875 3.125,-4.1875 c 0.640625,0 0.75,0.53125 0.75,1.109375 l 0,2.328125 c 0,0.4375 -0.109375,0.4375 -0.78125,0.4375 l 0,0.3125 c 0.34375,-0.015625 0.859375,-0.03125 1.125,-0.03125 0.25,0 0.78125,0.015625 1.109375,0.03125 l 0,-0.3125 c -0.515625,0 -0.765625,0 -0.765625,-0.296875 l 0,-1.90625 c 0,-0.859375 0,-1.15625 -0.3125,-1.515625 -0.140625,-0.171875 -0.46875,-0.375 -1.046875,-0.375 C 2.46875,-4.40625 2,-3.984375 1.71875,-3.359375 l 0,-1.046875 -1.40625,0.109375 0,0.3125 c 0.703125,0 0.78125,0.0625 0.78125,0.5625 z"
               id="path5623" />
          </symbol>
        </g>
      </defs>
      <g
         id="textext-a50536ca-6">
        <g
           style="fill:#000000;fill-opacity:1"
           id="g5626">
          <use
             height="1052.3622"
             width="744.09448"
             xlink:href="#textext-a50536ca-3"
             x="223.43201"
             y="134.765"
             id="use5628" />
          <use
             height="1052.3622"
             width="744.09448"
             xlink:href="#textext-a50536ca-4"
             x="227.36125"
             y="134.765"
             id="use5630" />
          <use
             height="1052.3622"
             width="744.09448"
             xlink:href="#textext-a50536ca-5"
             x="230.12886"
             y="134.765"
             id="use5632" />
        </g>
        <g
           style="fill:#000000;fill-opacity:1"
           id="g5634">
          <use
             height="1052.3622"
             width="744.09448"
             xlink:href="#textext-a50536ca-1"
             x="237.32401"
             y="134.765"
             id="use5636" />
        </g>
      </g>
    </g>
    <g
       id="g6132"
       transform="matrix(2.0000019,0,0,2,-182.53142,422.98718)"
       ns0:preamble=""
       ns0:text="$1$">
      <defs
         id="defs6134">
        <g
           id="g6136">
          <symbol
             id="textext-9959f50f-0"
             overflow="visible"
             style="overflow:visible">
            <path
               id="path6139"
               d=""
               style="stroke:none" />
          </symbol>
          <symbol
             id="textext-9959f50f-1"
             overflow="visible"
             style="overflow:visible">
            <path
               id="path6142"
               d="m 2.9375,-6.375 c 0,-0.25 0,-0.265625 -0.234375,-0.265625 C 2.078125,-6 1.203125,-6 0.890625,-6 l 0,0.3125 c 0.203125,0 0.78125,0 1.296875,-0.265625 l 0,5.171875 c 0,0.359375 -0.03125,0.46875 -0.921875,0.46875 l -0.3125,0 0,0.3125 c 0.34375,-0.03125 1.203125,-0.03125 1.609375,-0.03125 0.390625,0 1.265625,0 1.609375,0.03125 l 0,-0.3125 -0.3125,0 c -0.90625,0 -0.921875,-0.109375 -0.921875,-0.46875 l 0,-5.59375 z"
               style="stroke:none" />
          </symbol>
        </g>
      </defs>
      <g
         id="textext-9959f50f-2">
        <g
           id="g6145"
           style="fill:#000000;fill-opacity:1">
          <use
             id="use6147"
             y="134.765"
             x="223.43201"
             xlink:href="#textext-9959f50f-1"
             width="744.09448"
             height="1052.3622" />
        </g>
      </g>
    </g>
    <g
       id="g6383"
       ns0:preamble=""
       ns0:text="$\\alpha$"
       transform="matrix(2.0000019,0,0,2,55.812498,429.33093)">
      <defs
         id="defs6385">
        <g
           id="g6387">
          <symbol
             id="symbol6389"
             overflow="visible"
             style="overflow:visible">
            <path
               id="path6391"
               d=""
               style="stroke:none" />
          </symbol>
          <symbol
             id="symbol6393"
             overflow="visible"
             style="overflow:visible">
            <path
               id="path6395"
               d="m 4.75,-2.359375 c 0,-1.5625 -0.921875,-2.046875 -1.65625,-2.046875 -1.375,0 -2.6875,1.421875 -2.6875,2.828125 0,0.9375 0.59375,1.6875 1.625,1.6875 0.625,0 1.34375,-0.234375 2.09375,-0.84375 0.125,0.53125 0.453125,0.84375 0.90625,0.84375 0.53125,0 0.84375,-0.546875 0.84375,-0.703125 0,-0.078125 -0.0625,-0.109375 -0.125,-0.109375 -0.0625,0 -0.09375,0.03125 -0.125,0.109375 -0.1875,0.484375 -0.546875,0.484375 -0.5625,0.484375 -0.3125,0 -0.3125,-0.78125 -0.3125,-1.015625 0,-0.203125 0,-0.234375 0.109375,-0.34375 C 5.796875,-2.65625 6,-3.8125 6,-3.8125 6,-3.84375 5.984375,-3.921875 5.875,-3.921875 c -0.09375,0 -0.09375,0.03125 -0.140625,0.21875 -0.1875,0.625 -0.515625,1.375 -0.984375,1.96875 l 0,-0.625 z m -0.65625,1.375 c -0.890625,0.765625 -1.65625,0.875 -2.046875,0.875 -0.59375,0 -0.90625,-0.453125 -0.90625,-1.09375 0,-0.484375 0.265625,-1.5625 0.578125,-2.0625 C 2.1875,-4 2.734375,-4.1875 3.078125,-4.1875 c 0.984375,0 0.984375,1.3125 0.984375,2.078125 0,0.375 0,0.953125 0.03125,1.125 z"
               style="stroke:none" />
          </symbol>
        </g>
      </defs>
      <g
         id="g6397">
        <g
           id="g6399"
           style="fill:#000000;fill-opacity:1">
          <use
             id="use6401"
             y="134.765"
             x="223.43201"
             xlink:href="#textext-343dd380-1"
             width="744.09448"
             height="1052.3622" />
        </g>
      </g>
    </g>
  </g>
</svg>
