<?xml version="1.0" encoding="utf-8" standalone="no"?>
<!DOCTYPE svg PUBLIC "-//W3C//DTD SVG 1.1//EN"
  "http://www.w3.org/Graphics/SVG/1.1/DTD/svg11.dtd">
<svg xmlns:xlink="http://www.w3.org/1999/xlink" width="460.8pt" height="345.6pt" viewBox="0 0 460.8 345.6" xmlns="http://www.w3.org/2000/svg" version="1.1">
 <metadata>
  <rdf:RDF xmlns:dc="http://purl.org/dc/elements/1.1/" xmlns:cc="http://creativecommons.org/ns#" xmlns:rdf="http://www.w3.org/1999/02/22-rdf-syntax-ns#">
   <cc:Work>
    <dc:type rdf:resource="http://purl.org/dc/dcmitype/StillImage"/>
    <dc:date>2023-05-03T10:41:03.644611</dc:date>
    <dc:format>image/svg+xml</dc:format>
    <dc:creator>
     <cc:Agent>
      <dc:title>Matplotlib v3.6.3, https://matplotlib.org/</dc:title>
     </cc:Agent>
    </dc:creator>
   </cc:Work>
  </rdf:RDF>
 </metadata>
 <defs>
  <style type="text/css">*{stroke-linejoin: round; stroke-linecap: butt}</style>
 </defs>
 <g id="figure_1">
  <g id="patch_1">
   <path d="M 0 345.6 
L 460.8 345.6 
L 460.8 0 
L 0 0 
z
" style="fill: #ffffff"/>
  </g>
  <g id="axes_1">
   <g id="patch_2">
    <path d="M 57.6 307.584 
L 414.72 307.584 
L 414.72 41.472 
L 57.6 41.472 
z
" style="fill: #ffffff"/>
   </g>
   <g id="matplotlib.axis_1">
    <g id="xtick_1">
     <g id="line2d_1">
      <defs>
       <path id="m0025847fd4" d="M 0 0 
L 0 3.5 
" style="stroke: #000000; stroke-width: 0.8"/>
      </defs>
      <g>
       <use xlink:href="#m0025847fd4" x="57.6" y="307.584" style="stroke: #000000; stroke-width: 0.8"/>
      </g>
     </g>
     <g id="text_1">
      <!-- 0 -->
      <g transform="translate(54.41875 322.182437) scale(0.1 -0.1)">
       <defs>
        <path id="DejaVuSans-30" d="M 2034 4250 
Q 1547 4250 1301 3770 
Q 1056 3291 1056 2328 
Q 1056 1369 1301 889 
Q 1547 409 2034 409 
Q 2525 409 2770 889 
Q 3016 1369 3016 2328 
Q 3016 3291 2770 3770 
Q 2525 4250 2034 4250 
z
M 2034 4750 
Q 2819 4750 3233 4129 
Q 3647 3509 3647 2328 
Q 3647 1150 3233 529 
Q 2819 -91 2034 -91 
Q 1250 -91 836 529 
Q 422 1150 422 2328 
Q 422 3509 836 4129 
Q 1250 4750 2034 4750 
z
" transform="scale(0.015625)"/>
       </defs>
       <use xlink:href="#DejaVuSans-30"/>
      </g>
     </g>
    </g>
    <g id="xtick_2">
     <g id="line2d_2">
      <g>
       <use xlink:href="#m0025847fd4" x="102.24" y="307.584" style="stroke: #000000; stroke-width: 0.8"/>
      </g>
     </g>
     <g id="text_2">
      <!-- 1 -->
      <g transform="translate(99.05875 322.182437) scale(0.1 -0.1)">
       <defs>
        <path id="DejaVuSans-31" d="M 794 531 
L 1825 531 
L 1825 4091 
L 703 3866 
L 703 4441 
L 1819 4666 
L 2450 4666 
L 2450 531 
L 3481 531 
L 3481 0 
L 794 0 
L 794 531 
z
" transform="scale(0.015625)"/>
       </defs>
       <use xlink:href="#DejaVuSans-31"/>
      </g>
     </g>
    </g>
    <g id="xtick_3">
     <g id="line2d_3">
      <g>
       <use xlink:href="#m0025847fd4" x="146.88" y="307.584" style="stroke: #000000; stroke-width: 0.8"/>
      </g>
     </g>
     <g id="text_3">
      <!-- 2 -->
      <g transform="translate(143.69875 322.182437) scale(0.1 -0.1)">
       <defs>
        <path id="DejaVuSans-32" d="M 1228 531 
L 3431 531 
L 3431 0 
L 469 0 
L 469 531 
Q 828 903 1448 1529 
Q 2069 2156 2228 2338 
Q 2531 2678 2651 2914 
Q 2772 3150 2772 3378 
Q 2772 3750 2511 3984 
Q 2250 4219 1831 4219 
Q 1534 4219 1204 4116 
Q 875 4013 500 3803 
L 500 4441 
Q 881 4594 1212 4672 
Q 1544 4750 1819 4750 
Q 2544 4750 2975 4387 
Q 3406 4025 3406 3419 
Q 3406 3131 3298 2873 
Q 3191 2616 2906 2266 
Q 2828 2175 2409 1742 
Q 1991 1309 1228 531 
z
" transform="scale(0.015625)"/>
       </defs>
       <use xlink:href="#DejaVuSans-32"/>
      </g>
     </g>
    </g>
    <g id="xtick_4">
     <g id="line2d_4">
      <g>
       <use xlink:href="#m0025847fd4" x="191.52" y="307.584" style="stroke: #000000; stroke-width: 0.8"/>
      </g>
     </g>
     <g id="text_4">
      <!-- 3 -->
      <g transform="translate(188.33875 322.182437) scale(0.1 -0.1)">
       <defs>
        <path id="DejaVuSans-33" d="M 2597 2516 
Q 3050 2419 3304 2112 
Q 3559 1806 3559 1356 
Q 3559 666 3084 287 
Q 2609 -91 1734 -91 
Q 1441 -91 1130 -33 
Q 819 25 488 141 
L 488 750 
Q 750 597 1062 519 
Q 1375 441 1716 441 
Q 2309 441 2620 675 
Q 2931 909 2931 1356 
Q 2931 1769 2642 2001 
Q 2353 2234 1838 2234 
L 1294 2234 
L 1294 2753 
L 1863 2753 
Q 2328 2753 2575 2939 
Q 2822 3125 2822 3475 
Q 2822 3834 2567 4026 
Q 2313 4219 1838 4219 
Q 1578 4219 1281 4162 
Q 984 4106 628 3988 
L 628 4550 
Q 988 4650 1302 4700 
Q 1616 4750 1894 4750 
Q 2613 4750 3031 4423 
Q 3450 4097 3450 3541 
Q 3450 3153 3228 2886 
Q 3006 2619 2597 2516 
z
" transform="scale(0.015625)"/>
       </defs>
       <use xlink:href="#DejaVuSans-33"/>
      </g>
     </g>
    </g>
    <g id="xtick_5">
     <g id="line2d_5">
      <g>
       <use xlink:href="#m0025847fd4" x="236.16" y="307.584" style="stroke: #000000; stroke-width: 0.8"/>
      </g>
     </g>
     <g id="text_5">
      <!-- 4 -->
      <g transform="translate(232.97875 322.182437) scale(0.1 -0.1)">
       <defs>
        <path id="DejaVuSans-34" d="M 2419 4116 
L 825 1625 
L 2419 1625 
L 2419 4116 
z
M 2253 4666 
L 3047 4666 
L 3047 1625 
L 3713 1625 
L 3713 1100 
L 3047 1100 
L 3047 0 
L 2419 0 
L 2419 1100 
L 313 1100 
L 313 1709 
L 2253 4666 
z
" transform="scale(0.015625)"/>
       </defs>
       <use xlink:href="#DejaVuSans-34"/>
      </g>
     </g>
    </g>
    <g id="xtick_6">
     <g id="line2d_6">
      <g>
       <use xlink:href="#m0025847fd4" x="280.8" y="307.584" style="stroke: #000000; stroke-width: 0.8"/>
      </g>
     </g>
     <g id="text_6">
      <!-- 5 -->
      <g transform="translate(277.61875 322.182437) scale(0.1 -0.1)">
       <defs>
        <path id="DejaVuSans-35" d="M 691 4666 
L 3169 4666 
L 3169 4134 
L 1269 4134 
L 1269 2991 
Q 1406 3038 1543 3061 
Q 1681 3084 1819 3084 
Q 2600 3084 3056 2656 
Q 3513 2228 3513 1497 
Q 3513 744 3044 326 
Q 2575 -91 1722 -91 
Q 1428 -91 1123 -41 
Q 819 9 494 109 
L 494 744 
Q 775 591 1075 516 
Q 1375 441 1709 441 
Q 2250 441 2565 725 
Q 2881 1009 2881 1497 
Q 2881 1984 2565 2268 
Q 2250 2553 1709 2553 
Q 1456 2553 1204 2497 
Q 953 2441 691 2322 
L 691 4666 
z
" transform="scale(0.015625)"/>
       </defs>
       <use xlink:href="#DejaVuSans-35"/>
      </g>
     </g>
    </g>
    <g id="xtick_7">
     <g id="line2d_7">
      <g>
       <use xlink:href="#m0025847fd4" x="325.44" y="307.584" style="stroke: #000000; stroke-width: 0.8"/>
      </g>
     </g>
     <g id="text_7">
      <!-- 6 -->
      <g transform="translate(322.25875 322.182437) scale(0.1 -0.1)">
       <defs>
        <path id="DejaVuSans-36" d="M 2113 2584 
Q 1688 2584 1439 2293 
Q 1191 2003 1191 1497 
Q 1191 994 1439 701 
Q 1688 409 2113 409 
Q 2538 409 2786 701 
Q 3034 994 3034 1497 
Q 3034 2003 2786 2293 
Q 2538 2584 2113 2584 
z
M 3366 4563 
L 3366 3988 
Q 3128 4100 2886 4159 
Q 2644 4219 2406 4219 
Q 1781 4219 1451 3797 
Q 1122 3375 1075 2522 
Q 1259 2794 1537 2939 
Q 1816 3084 2150 3084 
Q 2853 3084 3261 2657 
Q 3669 2231 3669 1497 
Q 3669 778 3244 343 
Q 2819 -91 2113 -91 
Q 1303 -91 875 529 
Q 447 1150 447 2328 
Q 447 3434 972 4092 
Q 1497 4750 2381 4750 
Q 2619 4750 2861 4703 
Q 3103 4656 3366 4563 
z
" transform="scale(0.015625)"/>
       </defs>
       <use xlink:href="#DejaVuSans-36"/>
      </g>
     </g>
    </g>
    <g id="xtick_8">
     <g id="line2d_8">
      <g>
       <use xlink:href="#m0025847fd4" x="370.08" y="307.584" style="stroke: #000000; stroke-width: 0.8"/>
      </g>
     </g>
     <g id="text_8">
      <!-- 7 -->
      <g transform="translate(366.89875 322.182437) scale(0.1 -0.1)">
       <defs>
        <path id="DejaVuSans-37" d="M 525 4666 
L 3525 4666 
L 3525 4397 
L 1831 0 
L 1172 0 
L 2766 4134 
L 525 4134 
L 525 4666 
z
" transform="scale(0.015625)"/>
       </defs>
       <use xlink:href="#DejaVuSans-37"/>
      </g>
     </g>
    </g>
    <g id="xtick_9">
     <g id="line2d_9">
      <g>
       <use xlink:href="#m0025847fd4" x="414.72" y="307.584" style="stroke: #000000; stroke-width: 0.8"/>
      </g>
     </g>
     <g id="text_9">
      <!-- 8 -->
      <g transform="translate(411.53875 322.182437) scale(0.1 -0.1)">
       <defs>
        <path id="DejaVuSans-38" d="M 2034 2216 
Q 1584 2216 1326 1975 
Q 1069 1734 1069 1313 
Q 1069 891 1326 650 
Q 1584 409 2034 409 
Q 2484 409 2743 651 
Q 3003 894 3003 1313 
Q 3003 1734 2745 1975 
Q 2488 2216 2034 2216 
z
M 1403 2484 
Q 997 2584 770 2862 
Q 544 3141 544 3541 
Q 544 4100 942 4425 
Q 1341 4750 2034 4750 
Q 2731 4750 3128 4425 
Q 3525 4100 3525 3541 
Q 3525 3141 3298 2862 
Q 3072 2584 2669 2484 
Q 3125 2378 3379 2068 
Q 3634 1759 3634 1313 
Q 3634 634 3220 271 
Q 2806 -91 2034 -91 
Q 1263 -91 848 271 
Q 434 634 434 1313 
Q 434 1759 690 2068 
Q 947 2378 1403 2484 
z
M 1172 3481 
Q 1172 3119 1398 2916 
Q 1625 2713 2034 2713 
Q 2441 2713 2670 2916 
Q 2900 3119 2900 3481 
Q 2900 3844 2670 4047 
Q 2441 4250 2034 4250 
Q 1625 4250 1398 4047 
Q 1172 3844 1172 3481 
z
" transform="scale(0.015625)"/>
       </defs>
       <use xlink:href="#DejaVuSans-38"/>
      </g>
     </g>
    </g>
   </g>
   <g id="matplotlib.axis_2">
    <g id="ytick_1">
     <g id="line2d_10">
      <defs>
       <path id="md6d7d50c6b" d="M 0 0 
L -3.5 0 
" style="stroke: #000000; stroke-width: 0.8"/>
      </defs>
      <g>
       <use xlink:href="#md6d7d50c6b" x="57.6" y="307.584" style="stroke: #000000; stroke-width: 0.8"/>
      </g>
     </g>
     <g id="text_10">
      <!-- 0 -->
      <g transform="translate(44.2375 311.383219) scale(0.1 -0.1)">
       <use xlink:href="#DejaVuSans-30"/>
      </g>
     </g>
    </g>
    <g id="ytick_2">
     <g id="line2d_11">
      <g>
       <use xlink:href="#md6d7d50c6b" x="57.6" y="274.32" style="stroke: #000000; stroke-width: 0.8"/>
      </g>
     </g>
     <g id="text_11">
      <!-- 5 -->
      <g transform="translate(44.2375 278.119219) scale(0.1 -0.1)">
       <use xlink:href="#DejaVuSans-35"/>
      </g>
     </g>
    </g>
    <g id="ytick_3">
     <g id="line2d_12">
      <g>
       <use xlink:href="#md6d7d50c6b" x="57.6" y="241.056" style="stroke: #000000; stroke-width: 0.8"/>
      </g>
     </g>
     <g id="text_12">
      <!-- 10 -->
      <g transform="translate(37.875 244.855219) scale(0.1 -0.1)">
       <use xlink:href="#DejaVuSans-31"/>
       <use xlink:href="#DejaVuSans-30" x="63.623047"/>
      </g>
     </g>
    </g>
    <g id="ytick_4">
     <g id="line2d_13">
      <g>
       <use xlink:href="#md6d7d50c6b" x="57.6" y="207.792" style="stroke: #000000; stroke-width: 0.8"/>
      </g>
     </g>
     <g id="text_13">
      <!-- 15 -->
      <g transform="translate(37.875 211.591219) scale(0.1 -0.1)">
       <use xlink:href="#DejaVuSans-31"/>
       <use xlink:href="#DejaVuSans-35" x="63.623047"/>
      </g>
     </g>
    </g>
    <g id="ytick_5">
     <g id="line2d_14">
      <g>
       <use xlink:href="#md6d7d50c6b" x="57.6" y="174.528" style="stroke: #000000; stroke-width: 0.8"/>
      </g>
     </g>
     <g id="text_14">
      <!-- 20 -->
      <g transform="translate(37.875 178.327219) scale(0.1 -0.1)">
       <use xlink:href="#DejaVuSans-32"/>
       <use xlink:href="#DejaVuSans-30" x="63.623047"/>
      </g>
     </g>
    </g>
    <g id="ytick_6">
     <g id="line2d_15">
      <g>
       <use xlink:href="#md6d7d50c6b" x="57.6" y="141.264" style="stroke: #000000; stroke-width: 0.8"/>
      </g>
     </g>
     <g id="text_15">
      <!-- 25 -->
      <g transform="translate(37.875 145.063219) scale(0.1 -0.1)">
       <use xlink:href="#DejaVuSans-32"/>
       <use xlink:href="#DejaVuSans-35" x="63.623047"/>
      </g>
     </g>
    </g>
    <g id="ytick_7">
     <g id="line2d_16">
      <g>
       <use xlink:href="#md6d7d50c6b" x="57.6" y="108" style="stroke: #000000; stroke-width: 0.8"/>
      </g>
     </g>
     <g id="text_16">
      <!-- 30 -->
      <g transform="translate(37.875 111.799219) scale(0.1 -0.1)">
       <use xlink:href="#DejaVuSans-33"/>
       <use xlink:href="#DejaVuSans-30" x="63.623047"/>
      </g>
     </g>
    </g>
    <g id="ytick_8">
     <g id="line2d_17">
      <g>
       <use xlink:href="#md6d7d50c6b" x="57.6" y="74.736" style="stroke: #000000; stroke-width: 0.8"/>
      </g>
     </g>
     <g id="text_17">
      <!-- 35 -->
      <g transform="translate(37.875 78.535219) scale(0.1 -0.1)">
       <use xlink:href="#DejaVuSans-33"/>
       <use xlink:href="#DejaVuSans-35" x="63.623047"/>
      </g>
     </g>
    </g>
    <g id="ytick_9">
     <g id="line2d_18">
      <g>
       <use xlink:href="#md6d7d50c6b" x="57.6" y="41.472" style="stroke: #000000; stroke-width: 0.8"/>
      </g>
     </g>
     <g id="text_18">
      <!-- 40 -->
      <g transform="translate(37.875 45.271219) scale(0.1 -0.1)">
       <use xlink:href="#DejaVuSans-34"/>
       <use xlink:href="#DejaVuSans-30" x="63.623047"/>
      </g>
     </g>
    </g>
   </g>
   <g id="line2d_19">
    <path d="M 57.6 300.9312 
L 61.207273 300.9312 
L 64.814545 300.9312 
L 68.421818 300.9312 
L 72.029091 300.9312 
L 75.636364 300.9312 
L 79.243636 300.9312 
L 82.850909 300.9312 
L 86.458182 300.9312 
L 90.065455 300.9312 
L 93.672727 300.9312 
L 97.28 300.9312 
L 100.887273 300.9312 
L 104.494545 300.9312 
L 108.101818 300.9312 
L 111.709091 300.9312 
L 115.316364 300.9312 
L 118.923636 300.9312 
L 122.530909 300.9312 
L 126.138182 300.9312 
L 129.745455 300.9312 
L 133.352727 300.9312 
L 136.96 300.9312 
L 140.567273 300.9312 
L 144.174545 300.9312 
L 147.781818 300.9312 
L 151.389091 300.9312 
L 154.996364 300.9312 
L 158.603636 300.9312 
L 162.210909 300.9312 
L 165.818182 300.9312 
L 169.425455 300.9312 
L 173.032727 300.9312 
L 176.64 300.9312 
L 180.247273 300.9312 
L 183.854545 300.9312 
L 187.461818 300.9312 
L 191.069091 300.9312 
L 194.676364 300.9312 
L 198.283636 300.9312 
L 201.890909 300.9312 
L 205.498182 300.9312 
L 209.105455 300.9312 
L 212.712727 300.9312 
L 216.32 300.9312 
L 219.927273 300.9312 
L 223.534545 300.9312 
L 227.141818 300.9312 
L 230.749091 300.9312 
L 234.356364 300.9312 
L 237.963636 300.9312 
L 241.570909 300.9312 
L 245.178182 300.9312 
L 248.785455 300.9312 
L 252.392727 300.9312 
L 256 300.9312 
L 259.607273 300.9312 
L 263.214545 300.9312 
L 266.821818 300.9312 
L 270.429091 300.9312 
L 274.036364 300.9312 
L 277.643636 300.9312 
L 281.250909 300.9312 
L 284.858182 300.9312 
L 288.465455 300.9312 
L 292.072727 300.9312 
L 295.68 300.9312 
L 299.287273 300.9312 
L 302.894545 300.9312 
L 306.501818 300.9312 
L 310.109091 300.9312 
L 313.716364 300.9312 
L 317.323636 300.9312 
L 320.930909 300.9312 
L 324.538182 300.9312 
L 328.145455 300.9312 
L 331.752727 300.9312 
L 335.36 300.9312 
L 338.967273 300.9312 
L 342.574545 300.9312 
L 346.181818 300.9312 
L 349.789091 300.9312 
L 353.396364 300.9312 
L 357.003636 300.9312 
L 360.610909 300.9312 
L 364.218182 300.9312 
L 367.825455 300.9312 
L 371.432727 300.9312 
L 375.04 300.9312 
L 378.647273 300.9312 
L 382.254545 300.9312 
L 385.861818 300.9312 
L 389.469091 300.9312 
L 393.076364 300.9312 
L 396.683636 300.9312 
L 400.290909 300.9312 
L 403.898182 300.9312 
L 407.505455 300.9312 
L 411.112727 300.9312 
L 414.72 300.9312 
" clip-path="url(#pf47f086d4a)" style="fill: none; stroke: #ff0000; stroke-width: 1.5; stroke-linecap: square"/>
   </g>
   <g id="line2d_20">
    <path d="M 57.6 307.584 
L 61.207273 307.0464 
L 64.814545 306.5088 
L 68.421818 305.9712 
L 72.029091 305.4336 
L 75.636364 304.896 
L 79.243636 304.3584 
L 82.850909 303.8208 
L 86.458182 303.2832 
L 90.065455 302.7456 
L 93.672727 302.208 
L 97.28 301.6704 
L 100.887273 301.1328 
L 104.494545 300.5952 
L 108.101818 300.0576 
L 111.709091 299.52 
L 115.316364 298.9824 
L 118.923636 298.4448 
L 122.530909 297.9072 
L 126.138182 297.3696 
L 129.745455 296.832 
L 133.352727 296.2944 
L 136.96 295.7568 
L 140.567273 295.2192 
L 144.174545 294.6816 
L 147.781818 294.144 
L 151.389091 293.6064 
L 154.996364 293.0688 
L 158.603636 292.5312 
L 162.210909 291.9936 
L 165.818182 291.456 
L 169.425455 290.9184 
L 173.032727 290.3808 
L 176.64 289.8432 
L 180.247273 289.3056 
L 183.854545 288.768 
L 187.461818 288.2304 
L 191.069091 287.6928 
L 194.676364 287.1552 
L 198.283636 286.6176 
L 201.890909 286.08 
L 205.498182 285.5424 
L 209.105455 285.0048 
L 212.712727 284.4672 
L 216.32 283.9296 
L 219.927273 283.392 
L 223.534545 282.8544 
L 227.141818 282.3168 
L 230.749091 281.7792 
L 234.356364 281.2416 
L 237.963636 280.704 
L 241.570909 280.1664 
L 245.178182 279.6288 
L 248.785455 279.0912 
L 252.392727 278.5536 
L 256 278.016 
L 259.607273 277.4784 
L 263.214545 276.9408 
L 266.821818 276.4032 
L 270.429091 275.8656 
L 274.036364 275.328 
L 277.643636 274.7904 
L 281.250909 274.2528 
L 284.858182 273.7152 
L 288.465455 273.1776 
L 292.072727 272.64 
L 295.68 272.1024 
L 299.287273 271.5648 
L 302.894545 271.0272 
L 306.501818 270.4896 
L 310.109091 269.952 
L 313.716364 269.4144 
L 317.323636 268.8768 
L 320.930909 268.3392 
L 324.538182 267.8016 
L 328.145455 267.264 
L 331.752727 266.7264 
L 335.36 266.1888 
L 338.967273 265.6512 
L 342.574545 265.1136 
L 346.181818 264.576 
L 349.789091 264.0384 
L 353.396364 263.5008 
L 357.003636 262.9632 
L 360.610909 262.4256 
L 364.218182 261.888 
L 367.825455 261.3504 
L 371.432727 260.8128 
L 375.04 260.2752 
L 378.647273 259.7376 
L 382.254545 259.2 
L 385.861818 258.6624 
L 389.469091 258.1248 
L 393.076364 257.5872 
L 396.683636 257.0496 
L 400.290909 256.512 
L 403.898182 255.9744 
L 407.505455 255.4368 
L 411.112727 254.8992 
L 414.72 254.3616 
" clip-path="url(#pf47f086d4a)" style="fill: none; stroke: #ff0000; stroke-width: 1.5; stroke-linecap: square"/>
   </g>
   <g id="line2d_21">
    <path d="M 57.6 307.584 
L 61.207273 307.540558 
L 64.814545 307.41023 
L 68.421818 307.193018 
L 72.029091 306.888921 
L 75.636364 306.497939 
L 79.243636 306.020073 
L 82.850909 305.455321 
L 86.458182 304.803685 
L 90.065455 304.065164 
L 93.672727 303.239758 
L 97.28 302.327467 
L 100.887273 301.328291 
L 104.494545 300.24223 
L 108.101818 299.069285 
L 111.709091 297.809455 
L 115.316364 296.462739 
L 118.923636 295.029139 
L 122.530909 293.508655 
L 126.138182 291.901285 
L 129.745455 290.20703 
L 133.352727 288.425891 
L 136.96 286.557867 
L 140.567273 284.602958 
L 144.174545 282.561164 
L 147.781818 280.432485 
L 151.389091 278.216921 
L 154.996364 275.914473 
L 158.603636 273.525139 
L 162.210909 271.048921 
L 165.818182 268.485818 
L 169.425455 265.83583 
L 173.032727 263.098958 
L 176.64 260.2752 
L 180.247273 257.364558 
L 183.854545 254.36703 
L 187.461818 251.282618 
L 191.069091 248.111321 
L 194.676364 244.853139 
L 198.283636 241.508073 
L 201.890909 238.076121 
L 205.498182 234.557285 
L 209.105455 230.951564 
L 212.712727 227.258958 
L 216.32 223.479467 
L 219.927273 219.613091 
L 223.534545 215.65983 
L 227.141818 211.619685 
L 230.749091 207.492655 
L 234.356364 203.278739 
L 237.963636 198.977939 
L 241.570909 194.590255 
L 245.178182 190.115685 
L 248.785455 185.55423 
L 252.392727 180.905891 
L 256 176.170667 
L 259.607273 171.348558 
L 263.214545 166.439564 
L 266.821818 161.443685 
L 270.429091 156.360921 
L 274.036364 151.191273 
L 277.643636 145.934739 
L 281.250909 140.591321 
L 284.858182 135.161018 
L 288.465455 129.64383 
L 292.072727 124.039758 
L 295.68 118.3488 
L 299.287273 112.570958 
L 302.894545 106.70623 
L 306.501818 100.754618 
L 310.109091 94.716121 
L 313.716364 88.590739 
L 317.323636 82.378473 
L 320.930909 76.079321 
L 324.538182 69.693285 
L 328.145455 63.220364 
L 331.752727 56.660558 
L 335.36 50.013867 
L 338.967273 43.280291 
L 342.574545 36.45983 
L 346.181818 29.552485 
L 349.789091 22.558255 
L 353.396364 15.477139 
L 357.003636 8.309139 
L 360.610909 1.054255 
L 361.620237 -1 
" clip-path="url(#pf47f086d4a)" style="fill: none; stroke: #ff0000; stroke-width: 1.5; stroke-linecap: square"/>
   </g>
   <g id="line2d_22">
    <path d="M 57.6 307.584 
L 61.207273 307.58049 
L 64.814545 307.555916 
L 68.421818 307.489217 
L 72.029091 307.359328 
L 75.636364 307.145188 
L 79.243636 306.825732 
L 82.850909 306.379899 
L 86.458182 305.786625 
L 90.065455 305.024846 
L 93.672727 304.073501 
L 97.28 302.911526 
L 100.887273 301.517858 
L 104.494545 299.871434 
L 108.101818 297.951191 
L 111.709091 295.736066 
L 115.316364 293.204996 
L 118.923636 290.336919 
L 122.530909 287.11077 
L 126.138182 283.505488 
L 129.745455 279.500009 
L 133.352727 275.073269 
L 136.96 270.204207 
L 140.567273 264.87176 
L 144.174545 259.054863 
L 147.781818 252.732454 
L 151.389091 245.883471 
L 154.996364 238.48685 
L 158.603636 230.521528 
L 162.210909 221.966442 
L 165.818182 212.800529 
L 169.425455 203.002726 
L 173.032727 192.551971 
L 176.64 181.4272 
L 180.247273 169.60735 
L 183.854545 157.071358 
L 187.461818 143.798162 
L 191.069091 129.766698 
L 194.676364 114.955903 
L 198.283636 99.344714 
L 201.890909 82.912069 
L 205.498182 65.636903 
L 209.105455 47.498155 
L 212.712727 28.474762 
L 216.32 8.545659 
L 217.971036 -1 
" clip-path="url(#pf47f086d4a)" style="fill: none; stroke: #ff0000; stroke-width: 1.5; stroke-linecap: square"/>
   </g>
   <g id="patch_3">
    <path d="M 57.6 307.584 
L 57.6 41.472 
" style="fill: none; stroke: #000000; stroke-width: 0.8; stroke-linejoin: miter; stroke-linecap: square"/>
   </g>
   <g id="patch_4">
    <path d="M 414.72 307.584 
L 414.72 41.472 
" style="fill: none; stroke: #000000; stroke-width: 0.8; stroke-linejoin: miter; stroke-linecap: square"/>
   </g>
   <g id="patch_5">
    <path d="M 57.6 307.584 
L 414.72 307.584 
" style="fill: none; stroke: #000000; stroke-width: 0.8; stroke-linejoin: miter; stroke-linecap: square"/>
   </g>
   <g id="patch_6">
    <path d="M 57.6 41.472 
L 414.72 41.472 
" style="fill: none; stroke: #000000; stroke-width: 0.8; stroke-linejoin: miter; stroke-linecap: square"/>
   </g>
  </g>
 </g>
 <defs>
  <clipPath id="pf47f086d4a">
   <rect x="57.6" y="41.472" width="357.12" height="266.112"/>
  </clipPath>
 </defs>
</svg>
