<?xml version="1.0" encoding="utf-8" standalone="no"?>
<!DOCTYPE svg PUBLIC "-//W3C//DTD SVG 1.1//EN"
  "http://www.w3.org/Graphics/SVG/1.1/DTD/svg11.dtd">
<svg xmlns:xlink="http://www.w3.org/1999/xlink" width="460.8pt" height="345.6pt" viewBox="0 0 460.8 345.6" xmlns="http://www.w3.org/2000/svg" version="1.1">
 <metadata>
  <rdf:RDF xmlns:dc="http://purl.org/dc/elements/1.1/" xmlns:cc="http://creativecommons.org/ns#" xmlns:rdf="http://www.w3.org/1999/02/22-rdf-syntax-ns#">
   <cc:Work>
    <dc:type rdf:resource="http://purl.org/dc/dcmitype/StillImage"/>
    <dc:date>2023-05-03T10:42:37.627070</dc:date>
    <dc:format>image/svg+xml</dc:format>
    <dc:creator>
     <cc:Agent>
      <dc:title>Matplotlib v3.6.3, https://matplotlib.org/</dc:title>
     </cc:Agent>
    </dc:creator>
   </cc:Work>
  </rdf:RDF>
 </metadata>
 <defs>
  <style type="text/css">*{stroke-linejoin: round; stroke-linecap: butt}</style>
 </defs>
 <g id="figure_1">
  <g id="patch_1">
   <path d="M 0 345.6 
L 460.8 345.6 
L 460.8 0 
L 0 0 
z
" style="fill: #ffffff"/>
  </g>
  <g id="axes_1">
   <g id="patch_2">
    <path d="M 57.6 307.584 
L 414.72 307.584 
L 414.72 41.472 
L 57.6 41.472 
z
" style="fill: #ffffff"/>
   </g>
   <g id="matplotlib.axis_1">
    <g id="xtick_1">
     <g id="line2d_1">
      <defs>
       <path id="mca313faaa8" d="M 0 0 
L 0 3.5 
" style="stroke: #000000; stroke-width: 0.8"/>
      </defs>
      <g>
       <use xlink:href="#mca313faaa8" x="73.832727" y="307.584" style="stroke: #000000; stroke-width: 0.8"/>
      </g>
     </g>
     <g id="text_1">
      <!-- 0 -->
      <g transform="translate(70.651477 322.182437) scale(0.1 -0.1)">
       <defs>
        <path id="DejaVuSans-30" d="M 2034 4250 
Q 1547 4250 1301 3770 
Q 1056 3291 1056 2328 
Q 1056 1369 1301 889 
Q 1547 409 2034 409 
Q 2525 409 2770 889 
Q 3016 1369 3016 2328 
Q 3016 3291 2770 3770 
Q 2525 4250 2034 4250 
z
M 2034 4750 
Q 2819 4750 3233 4129 
Q 3647 3509 3647 2328 
Q 3647 1150 3233 529 
Q 2819 -91 2034 -91 
Q 1250 -91 836 529 
Q 422 1150 422 2328 
Q 422 3509 836 4129 
Q 1250 4750 2034 4750 
z
" transform="scale(0.015625)"/>
       </defs>
       <use xlink:href="#DejaVuSans-30"/>
      </g>
     </g>
    </g>
    <g id="xtick_2">
     <g id="line2d_2">
      <g>
       <use xlink:href="#mca313faaa8" x="114.414545" y="307.584" style="stroke: #000000; stroke-width: 0.8"/>
      </g>
     </g>
     <g id="text_2">
      <!-- 1 -->
      <g transform="translate(111.233295 322.182437) scale(0.1 -0.1)">
       <defs>
        <path id="DejaVuSans-31" d="M 794 531 
L 1825 531 
L 1825 4091 
L 703 3866 
L 703 4441 
L 1819 4666 
L 2450 4666 
L 2450 531 
L 3481 531 
L 3481 0 
L 794 0 
L 794 531 
z
" transform="scale(0.015625)"/>
       </defs>
       <use xlink:href="#DejaVuSans-31"/>
      </g>
     </g>
    </g>
    <g id="xtick_3">
     <g id="line2d_3">
      <g>
       <use xlink:href="#mca313faaa8" x="154.996364" y="307.584" style="stroke: #000000; stroke-width: 0.8"/>
      </g>
     </g>
     <g id="text_3">
      <!-- 2 -->
      <g transform="translate(151.815114 322.182437) scale(0.1 -0.1)">
       <defs>
        <path id="DejaVuSans-32" d="M 1228 531 
L 3431 531 
L 3431 0 
L 469 0 
L 469 531 
Q 828 903 1448 1529 
Q 2069 2156 2228 2338 
Q 2531 2678 2651 2914 
Q 2772 3150 2772 3378 
Q 2772 3750 2511 3984 
Q 2250 4219 1831 4219 
Q 1534 4219 1204 4116 
Q 875 4013 500 3803 
L 500 4441 
Q 881 4594 1212 4672 
Q 1544 4750 1819 4750 
Q 2544 4750 2975 4387 
Q 3406 4025 3406 3419 
Q 3406 3131 3298 2873 
Q 3191 2616 2906 2266 
Q 2828 2175 2409 1742 
Q 1991 1309 1228 531 
z
" transform="scale(0.015625)"/>
       </defs>
       <use xlink:href="#DejaVuSans-32"/>
      </g>
     </g>
    </g>
    <g id="xtick_4">
     <g id="line2d_4">
      <g>
       <use xlink:href="#mca313faaa8" x="195.578182" y="307.584" style="stroke: #000000; stroke-width: 0.8"/>
      </g>
     </g>
     <g id="text_4">
      <!-- 3 -->
      <g transform="translate(192.396932 322.182437) scale(0.1 -0.1)">
       <defs>
        <path id="DejaVuSans-33" d="M 2597 2516 
Q 3050 2419 3304 2112 
Q 3559 1806 3559 1356 
Q 3559 666 3084 287 
Q 2609 -91 1734 -91 
Q 1441 -91 1130 -33 
Q 819 25 488 141 
L 488 750 
Q 750 597 1062 519 
Q 1375 441 1716 441 
Q 2309 441 2620 675 
Q 2931 909 2931 1356 
Q 2931 1769 2642 2001 
Q 2353 2234 1838 2234 
L 1294 2234 
L 1294 2753 
L 1863 2753 
Q 2328 2753 2575 2939 
Q 2822 3125 2822 3475 
Q 2822 3834 2567 4026 
Q 2313 4219 1838 4219 
Q 1578 4219 1281 4162 
Q 984 4106 628 3988 
L 628 4550 
Q 988 4650 1302 4700 
Q 1616 4750 1894 4750 
Q 2613 4750 3031 4423 
Q 3450 4097 3450 3541 
Q 3450 3153 3228 2886 
Q 3006 2619 2597 2516 
z
" transform="scale(0.015625)"/>
       </defs>
       <use xlink:href="#DejaVuSans-33"/>
      </g>
     </g>
    </g>
    <g id="xtick_5">
     <g id="line2d_5">
      <g>
       <use xlink:href="#mca313faaa8" x="236.16" y="307.584" style="stroke: #000000; stroke-width: 0.8"/>
      </g>
     </g>
     <g id="text_5">
      <!-- 4 -->
      <g transform="translate(232.97875 322.182437) scale(0.1 -0.1)">
       <defs>
        <path id="DejaVuSans-34" d="M 2419 4116 
L 825 1625 
L 2419 1625 
L 2419 4116 
z
M 2253 4666 
L 3047 4666 
L 3047 1625 
L 3713 1625 
L 3713 1100 
L 3047 1100 
L 3047 0 
L 2419 0 
L 2419 1100 
L 313 1100 
L 313 1709 
L 2253 4666 
z
" transform="scale(0.015625)"/>
       </defs>
       <use xlink:href="#DejaVuSans-34"/>
      </g>
     </g>
    </g>
    <g id="xtick_6">
     <g id="line2d_6">
      <g>
       <use xlink:href="#mca313faaa8" x="276.741818" y="307.584" style="stroke: #000000; stroke-width: 0.8"/>
      </g>
     </g>
     <g id="text_6">
      <!-- 5 -->
      <g transform="translate(273.560568 322.182437) scale(0.1 -0.1)">
       <defs>
        <path id="DejaVuSans-35" d="M 691 4666 
L 3169 4666 
L 3169 4134 
L 1269 4134 
L 1269 2991 
Q 1406 3038 1543 3061 
Q 1681 3084 1819 3084 
Q 2600 3084 3056 2656 
Q 3513 2228 3513 1497 
Q 3513 744 3044 326 
Q 2575 -91 1722 -91 
Q 1428 -91 1123 -41 
Q 819 9 494 109 
L 494 744 
Q 775 591 1075 516 
Q 1375 441 1709 441 
Q 2250 441 2565 725 
Q 2881 1009 2881 1497 
Q 2881 1984 2565 2268 
Q 2250 2553 1709 2553 
Q 1456 2553 1204 2497 
Q 953 2441 691 2322 
L 691 4666 
z
" transform="scale(0.015625)"/>
       </defs>
       <use xlink:href="#DejaVuSans-35"/>
      </g>
     </g>
    </g>
    <g id="xtick_7">
     <g id="line2d_7">
      <g>
       <use xlink:href="#mca313faaa8" x="317.323636" y="307.584" style="stroke: #000000; stroke-width: 0.8"/>
      </g>
     </g>
     <g id="text_7">
      <!-- 6 -->
      <g transform="translate(314.142386 322.182437) scale(0.1 -0.1)">
       <defs>
        <path id="DejaVuSans-36" d="M 2113 2584 
Q 1688 2584 1439 2293 
Q 1191 2003 1191 1497 
Q 1191 994 1439 701 
Q 1688 409 2113 409 
Q 2538 409 2786 701 
Q 3034 994 3034 1497 
Q 3034 2003 2786 2293 
Q 2538 2584 2113 2584 
z
M 3366 4563 
L 3366 3988 
Q 3128 4100 2886 4159 
Q 2644 4219 2406 4219 
Q 1781 4219 1451 3797 
Q 1122 3375 1075 2522 
Q 1259 2794 1537 2939 
Q 1816 3084 2150 3084 
Q 2853 3084 3261 2657 
Q 3669 2231 3669 1497 
Q 3669 778 3244 343 
Q 2819 -91 2113 -91 
Q 1303 -91 875 529 
Q 447 1150 447 2328 
Q 447 3434 972 4092 
Q 1497 4750 2381 4750 
Q 2619 4750 2861 4703 
Q 3103 4656 3366 4563 
z
" transform="scale(0.015625)"/>
       </defs>
       <use xlink:href="#DejaVuSans-36"/>
      </g>
     </g>
    </g>
    <g id="xtick_8">
     <g id="line2d_8">
      <g>
       <use xlink:href="#mca313faaa8" x="357.905455" y="307.584" style="stroke: #000000; stroke-width: 0.8"/>
      </g>
     </g>
     <g id="text_8">
      <!-- 7 -->
      <g transform="translate(354.724205 322.182437) scale(0.1 -0.1)">
       <defs>
        <path id="DejaVuSans-37" d="M 525 4666 
L 3525 4666 
L 3525 4397 
L 1831 0 
L 1172 0 
L 2766 4134 
L 525 4134 
L 525 4666 
z
" transform="scale(0.015625)"/>
       </defs>
       <use xlink:href="#DejaVuSans-37"/>
      </g>
     </g>
    </g>
    <g id="xtick_9">
     <g id="line2d_9">
      <g>
       <use xlink:href="#mca313faaa8" x="398.487273" y="307.584" style="stroke: #000000; stroke-width: 0.8"/>
      </g>
     </g>
     <g id="text_9">
      <!-- 8 -->
      <g transform="translate(395.306023 322.182437) scale(0.1 -0.1)">
       <defs>
        <path id="DejaVuSans-38" d="M 2034 2216 
Q 1584 2216 1326 1975 
Q 1069 1734 1069 1313 
Q 1069 891 1326 650 
Q 1584 409 2034 409 
Q 2484 409 2743 651 
Q 3003 894 3003 1313 
Q 3003 1734 2745 1975 
Q 2488 2216 2034 2216 
z
M 1403 2484 
Q 997 2584 770 2862 
Q 544 3141 544 3541 
Q 544 4100 942 4425 
Q 1341 4750 2034 4750 
Q 2731 4750 3128 4425 
Q 3525 4100 3525 3541 
Q 3525 3141 3298 2862 
Q 3072 2584 2669 2484 
Q 3125 2378 3379 2068 
Q 3634 1759 3634 1313 
Q 3634 634 3220 271 
Q 2806 -91 2034 -91 
Q 1263 -91 848 271 
Q 434 634 434 1313 
Q 434 1759 690 2068 
Q 947 2378 1403 2484 
z
M 1172 3481 
Q 1172 3119 1398 2916 
Q 1625 2713 2034 2713 
Q 2441 2713 2670 2916 
Q 2900 3119 2900 3481 
Q 2900 3844 2670 4047 
Q 2441 4250 2034 4250 
Q 1625 4250 1398 4047 
Q 1172 3844 1172 3481 
z
" transform="scale(0.015625)"/>
       </defs>
       <use xlink:href="#DejaVuSans-38"/>
      </g>
     </g>
    </g>
   </g>
   <g id="matplotlib.axis_2">
    <g id="ytick_1">
     <g id="line2d_10">
      <defs>
       <path id="m7da82733eb" d="M 0 0 
L -3.5 0 
" style="stroke: #000000; stroke-width: 0.8"/>
      </defs>
      <g>
       <use xlink:href="#m7da82733eb" x="57.6" y="295.488" style="stroke: #000000; stroke-width: 0.8"/>
      </g>
     </g>
     <g id="text_10">
      <!-- 0.00 -->
      <g transform="translate(28.334375 299.287219) scale(0.1 -0.1)">
       <defs>
        <path id="DejaVuSans-2e" d="M 684 794 
L 1344 794 
L 1344 0 
L 684 0 
L 684 794 
z
" transform="scale(0.015625)"/>
       </defs>
       <use xlink:href="#DejaVuSans-30"/>
       <use xlink:href="#DejaVuSans-2e" x="63.623047"/>
       <use xlink:href="#DejaVuSans-30" x="95.410156"/>
       <use xlink:href="#DejaVuSans-30" x="159.033203"/>
      </g>
     </g>
    </g>
    <g id="ytick_2">
     <g id="line2d_11">
      <g>
       <use xlink:href="#m7da82733eb" x="57.6" y="265.248" style="stroke: #000000; stroke-width: 0.8"/>
      </g>
     </g>
     <g id="text_11">
      <!-- 0.25 -->
      <g transform="translate(28.334375 269.047219) scale(0.1 -0.1)">
       <use xlink:href="#DejaVuSans-30"/>
       <use xlink:href="#DejaVuSans-2e" x="63.623047"/>
       <use xlink:href="#DejaVuSans-32" x="95.410156"/>
       <use xlink:href="#DejaVuSans-35" x="159.033203"/>
      </g>
     </g>
    </g>
    <g id="ytick_3">
     <g id="line2d_12">
      <g>
       <use xlink:href="#m7da82733eb" x="57.6" y="235.008" style="stroke: #000000; stroke-width: 0.8"/>
      </g>
     </g>
     <g id="text_12">
      <!-- 0.50 -->
      <g transform="translate(28.334375 238.807219) scale(0.1 -0.1)">
       <use xlink:href="#DejaVuSans-30"/>
       <use xlink:href="#DejaVuSans-2e" x="63.623047"/>
       <use xlink:href="#DejaVuSans-35" x="95.410156"/>
       <use xlink:href="#DejaVuSans-30" x="159.033203"/>
      </g>
     </g>
    </g>
    <g id="ytick_4">
     <g id="line2d_13">
      <g>
       <use xlink:href="#m7da82733eb" x="57.6" y="204.768" style="stroke: #000000; stroke-width: 0.8"/>
      </g>
     </g>
     <g id="text_13">
      <!-- 0.75 -->
      <g transform="translate(28.334375 208.567219) scale(0.1 -0.1)">
       <use xlink:href="#DejaVuSans-30"/>
       <use xlink:href="#DejaVuSans-2e" x="63.623047"/>
       <use xlink:href="#DejaVuSans-37" x="95.410156"/>
       <use xlink:href="#DejaVuSans-35" x="159.033203"/>
      </g>
     </g>
    </g>
    <g id="ytick_5">
     <g id="line2d_14">
      <g>
       <use xlink:href="#m7da82733eb" x="57.6" y="174.528" style="stroke: #000000; stroke-width: 0.8"/>
      </g>
     </g>
     <g id="text_14">
      <!-- 1.00 -->
      <g transform="translate(28.334375 178.327219) scale(0.1 -0.1)">
       <use xlink:href="#DejaVuSans-31"/>
       <use xlink:href="#DejaVuSans-2e" x="63.623047"/>
       <use xlink:href="#DejaVuSans-30" x="95.410156"/>
       <use xlink:href="#DejaVuSans-30" x="159.033203"/>
      </g>
     </g>
    </g>
    <g id="ytick_6">
     <g id="line2d_15">
      <g>
       <use xlink:href="#m7da82733eb" x="57.6" y="144.288" style="stroke: #000000; stroke-width: 0.8"/>
      </g>
     </g>
     <g id="text_15">
      <!-- 1.25 -->
      <g transform="translate(28.334375 148.087219) scale(0.1 -0.1)">
       <use xlink:href="#DejaVuSans-31"/>
       <use xlink:href="#DejaVuSans-2e" x="63.623047"/>
       <use xlink:href="#DejaVuSans-32" x="95.410156"/>
       <use xlink:href="#DejaVuSans-35" x="159.033203"/>
      </g>
     </g>
    </g>
    <g id="ytick_7">
     <g id="line2d_16">
      <g>
       <use xlink:href="#m7da82733eb" x="57.6" y="114.048" style="stroke: #000000; stroke-width: 0.8"/>
      </g>
     </g>
     <g id="text_16">
      <!-- 1.50 -->
      <g transform="translate(28.334375 117.847219) scale(0.1 -0.1)">
       <use xlink:href="#DejaVuSans-31"/>
       <use xlink:href="#DejaVuSans-2e" x="63.623047"/>
       <use xlink:href="#DejaVuSans-35" x="95.410156"/>
       <use xlink:href="#DejaVuSans-30" x="159.033203"/>
      </g>
     </g>
    </g>
    <g id="ytick_8">
     <g id="line2d_17">
      <g>
       <use xlink:href="#m7da82733eb" x="57.6" y="83.808" style="stroke: #000000; stroke-width: 0.8"/>
      </g>
     </g>
     <g id="text_17">
      <!-- 1.75 -->
      <g transform="translate(28.334375 87.607219) scale(0.1 -0.1)">
       <use xlink:href="#DejaVuSans-31"/>
       <use xlink:href="#DejaVuSans-2e" x="63.623047"/>
       <use xlink:href="#DejaVuSans-37" x="95.410156"/>
       <use xlink:href="#DejaVuSans-35" x="159.033203"/>
      </g>
     </g>
    </g>
    <g id="ytick_9">
     <g id="line2d_18">
      <g>
       <use xlink:href="#m7da82733eb" x="57.6" y="53.568" style="stroke: #000000; stroke-width: 0.8"/>
      </g>
     </g>
     <g id="text_18">
      <!-- 2.00 -->
      <g transform="translate(28.334375 57.367219) scale(0.1 -0.1)">
       <use xlink:href="#DejaVuSans-32"/>
       <use xlink:href="#DejaVuSans-2e" x="63.623047"/>
       <use xlink:href="#DejaVuSans-30" x="95.410156"/>
       <use xlink:href="#DejaVuSans-30" x="159.033203"/>
      </g>
     </g>
    </g>
   </g>
   <g id="line2d_19">
    <path d="M 73.832727 174.528 
L 77.112066 174.528 
L 80.391405 174.528 
L 83.670744 174.528 
L 86.950083 174.528 
L 90.229421 174.528 
L 93.50876 174.528 
L 96.788099 174.528 
L 100.067438 174.528 
L 103.346777 174.528 
L 106.626116 174.528 
L 109.905455 174.528 
L 113.184793 174.528 
L 116.464132 174.528 
L 119.743471 174.528 
L 123.02281 174.528 
L 126.302149 174.528 
L 129.581488 174.528 
L 132.860826 174.528 
L 136.140165 174.528 
L 139.419504 174.528 
L 142.698843 174.528 
L 145.978182 174.528 
L 149.257521 174.528 
L 152.53686 174.528 
L 155.816198 174.528 
L 159.095537 174.528 
L 162.374876 174.528 
L 165.654215 174.528 
L 168.933554 174.528 
L 172.212893 174.528 
L 175.492231 174.528 
L 178.77157 174.528 
L 182.050909 174.528 
L 185.330248 174.528 
L 188.609587 174.528 
L 191.888926 174.528 
L 195.168264 174.528 
L 198.447603 174.528 
L 201.726942 174.528 
L 205.006281 174.528 
L 208.28562 174.528 
L 211.564959 174.528 
L 214.844298 174.528 
L 218.123636 174.528 
L 221.402975 174.528 
L 224.682314 174.528 
L 227.961653 174.528 
L 231.240992 174.528 
L 234.520331 174.528 
L 237.799669 174.528 
L 241.079008 174.528 
L 244.358347 174.528 
L 247.637686 174.528 
L 250.917025 174.528 
L 254.196364 174.528 
L 257.475702 174.528 
L 260.755041 174.528 
L 264.03438 174.528 
L 267.313719 174.528 
L 270.593058 174.528 
L 273.872397 174.528 
L 277.151736 174.528 
L 280.431074 174.528 
L 283.710413 174.528 
L 286.989752 174.528 
L 290.269091 174.528 
L 293.54843 174.528 
L 296.827769 174.528 
L 300.107107 174.528 
L 303.386446 174.528 
L 306.665785 174.528 
L 309.945124 174.528 
L 313.224463 174.528 
L 316.503802 174.528 
L 319.78314 174.528 
L 323.062479 174.528 
L 326.341818 174.528 
L 329.621157 174.528 
L 332.900496 174.528 
L 336.179835 174.528 
L 339.459174 174.528 
L 342.738512 174.528 
L 346.017851 174.528 
L 349.29719 174.528 
L 352.576529 174.528 
L 355.855868 174.528 
L 359.135207 174.528 
L 362.414545 174.528 
L 365.693884 174.528 
L 368.973223 174.528 
L 372.252562 174.528 
L 375.531901 174.528 
L 378.81124 174.528 
L 382.090579 174.528 
L 385.369917 174.528 
L 388.649256 174.528 
L 391.928595 174.528 
L 395.207934 174.528 
L 398.487273 174.528 
" clip-path="url(#p23432132ac)" style="fill: none; stroke: #ff0000; stroke-width: 1.5; stroke-linecap: square"/>
   </g>
   <g id="line2d_20">
    <path d="M 73.832727 53.568 
L 77.112066 63.342545 
L 80.391405 73.117091 
L 83.670744 82.891636 
L 86.950083 92.666182 
L 90.229421 102.440727 
L 93.50876 112.215273 
L 96.788099 121.989818 
L 100.067438 131.764364 
L 103.346777 141.538909 
L 106.626116 151.313455 
L 109.905455 161.088 
L 113.184793 170.862545 
L 116.464132 180.637091 
L 119.743471 190.411636 
L 123.02281 200.186182 
L 126.302149 209.960727 
L 129.581488 219.735273 
L 132.860826 229.509818 
L 136.140165 239.284364 
L 139.419504 249.058909 
L 142.698843 258.833455 
L 145.978182 268.608 
L 149.257521 278.382545 
L 152.53686 288.157091 
L 155.816198 295.488 
L 159.095537 295.488 
L 162.374876 295.488 
L 165.654215 295.488 
L 168.933554 295.488 
L 172.212893 295.488 
L 175.492231 295.488 
L 178.77157 295.488 
L 182.050909 295.488 
L 185.330248 295.488 
L 188.609587 295.488 
L 191.888926 295.488 
L 195.168264 295.488 
L 198.447603 295.488 
L 201.726942 295.488 
L 205.006281 295.488 
L 208.28562 295.488 
L 211.564959 295.488 
L 214.844298 295.488 
L 218.123636 295.488 
L 221.402975 295.488 
L 224.682314 295.488 
L 227.961653 295.488 
L 231.240992 295.488 
L 234.520331 295.488 
L 237.799669 295.488 
L 241.079008 295.488 
L 244.358347 295.488 
L 247.637686 295.488 
L 250.917025 295.488 
L 254.196364 295.488 
L 257.475702 295.488 
L 260.755041 295.488 
L 264.03438 295.488 
L 267.313719 295.488 
L 270.593058 295.488 
L 273.872397 295.488 
L 277.151736 295.488 
L 280.431074 295.488 
L 283.710413 295.488 
L 286.989752 295.488 
L 290.269091 295.488 
L 293.54843 295.488 
L 296.827769 295.488 
L 300.107107 295.488 
L 303.386446 295.488 
L 306.665785 295.488 
L 309.945124 295.488 
L 313.224463 295.488 
L 316.503802 295.488 
L 319.78314 295.488 
L 323.062479 295.488 
L 326.341818 295.488 
L 329.621157 295.488 
L 332.900496 295.488 
L 336.179835 295.488 
L 339.459174 295.488 
L 342.738512 295.488 
L 346.017851 295.488 
L 349.29719 295.488 
L 352.576529 295.488 
L 355.855868 295.488 
L 359.135207 295.488 
L 362.414545 295.488 
L 365.693884 295.488 
L 368.973223 295.488 
L 372.252562 295.488 
L 375.531901 295.488 
L 378.81124 295.488 
L 382.090579 295.488 
L 385.369917 295.488 
L 388.649256 295.488 
L 391.928595 295.488 
L 395.207934 295.488 
L 398.487273 295.488 
" clip-path="url(#p23432132ac)" style="fill: none; stroke: #ff0000; stroke-width: 1.5; stroke-linecap: square"/>
   </g>
   <g id="line2d_21">
    <path d="M 73.832727 295.488 
L 77.112066 295.488 
L 80.391405 295.488 
L 83.670744 295.488 
L 86.950083 295.488 
L 90.229421 295.488 
L 93.50876 295.488 
L 96.788099 295.488 
L 100.067438 295.488 
L 103.346777 295.488 
L 106.626116 295.488 
L 109.905455 295.488 
L 113.184793 295.488 
L 116.464132 295.488 
L 119.743471 295.488 
L 123.02281 295.488 
L 126.302149 295.488 
L 129.581488 295.488 
L 132.860826 295.488 
L 136.140165 295.488 
L 139.419504 295.488 
L 142.698843 295.488 
L 145.978182 295.488 
L 149.257521 295.488 
L 152.53686 295.488 
L 155.816198 295.488 
L 159.095537 295.488 
L 162.374876 295.488 
L 165.654215 295.488 
L 168.933554 295.488 
L 172.212893 295.488 
L 175.492231 295.488 
L 178.77157 295.488 
L 182.050909 295.488 
L 185.330248 295.488 
L 188.609587 295.488 
L 191.888926 295.488 
L 195.168264 295.488 
L 198.447603 295.488 
L 201.726942 295.488 
L 205.006281 295.488 
L 208.28562 295.488 
L 211.564959 295.488 
L 214.844298 295.488 
L 218.123636 295.488 
L 221.402975 295.488 
L 224.682314 295.488 
L 227.961653 295.488 
L 231.240992 295.488 
L 234.520331 295.488 
L 237.799669 295.488 
L 241.079008 295.488 
L 244.358347 295.488 
L 247.637686 295.488 
L 250.917025 295.488 
L 254.196364 295.488 
L 257.475702 295.488 
L 260.755041 295.488 
L 264.03438 295.488 
L 267.313719 295.488 
L 270.593058 295.488 
L 273.872397 295.488 
L 277.151736 295.488 
L 280.431074 295.488 
L 283.710413 295.488 
L 286.989752 295.488 
L 290.269091 295.488 
L 293.54843 295.488 
L 296.827769 295.488 
L 300.107107 295.488 
L 303.386446 295.488 
L 306.665785 295.488 
L 309.945124 295.488 
L 313.224463 295.488 
L 316.503802 295.488 
L 319.78314 288.157091 
L 323.062479 278.382545 
L 326.341818 268.608 
L 329.621157 258.833455 
L 332.900496 249.058909 
L 336.179835 239.284364 
L 339.459174 229.509818 
L 342.738512 219.735273 
L 346.017851 209.960727 
L 349.29719 200.186182 
L 352.576529 190.411636 
L 355.855868 180.637091 
L 359.135207 170.862545 
L 362.414545 161.088 
L 365.693884 151.313455 
L 368.973223 141.538909 
L 372.252562 131.764364 
L 375.531901 121.989818 
L 378.81124 112.215273 
L 382.090579 102.440727 
L 385.369917 92.666182 
L 388.649256 82.891636 
L 391.928595 73.117091 
L 395.207934 63.342545 
L 398.487273 53.568 
" clip-path="url(#p23432132ac)" style="fill: none; stroke: #ff0000; stroke-width: 1.5; stroke-linecap: square"/>
   </g>
   <g id="patch_3">
    <path d="M 57.6 307.584 
L 57.6 41.472 
" style="fill: none; stroke: #000000; stroke-width: 0.8; stroke-linejoin: miter; stroke-linecap: square"/>
   </g>
   <g id="patch_4">
    <path d="M 414.72 307.584 
L 414.72 41.472 
" style="fill: none; stroke: #000000; stroke-width: 0.8; stroke-linejoin: miter; stroke-linecap: square"/>
   </g>
   <g id="patch_5">
    <path d="M 57.6 307.584 
L 414.72 307.584 
" style="fill: none; stroke: #000000; stroke-width: 0.8; stroke-linejoin: miter; stroke-linecap: square"/>
   </g>
   <g id="patch_6">
    <path d="M 57.6 41.472 
L 414.72 41.472 
" style="fill: none; stroke: #000000; stroke-width: 0.8; stroke-linejoin: miter; stroke-linecap: square"/>
   </g>
  </g>
 </g>
 <defs>
  <clipPath id="p23432132ac">
   <rect x="57.6" y="41.472" width="357.12" height="266.112"/>
  </clipPath>
 </defs>
</svg>
