<?xml version="1.0" encoding="utf-8" standalone="no"?>
<!DOCTYPE svg PUBLIC "-//W3C//DTD SVG 1.1//EN"
  "http://www.w3.org/Graphics/SVG/1.1/DTD/svg11.dtd">
<svg xmlns:xlink="http://www.w3.org/1999/xlink" width="460.8pt" height="345.6pt" viewBox="0 0 460.8 345.6" xmlns="http://www.w3.org/2000/svg" version="1.1">
 <metadata>
  <rdf:RDF xmlns:dc="http://purl.org/dc/elements/1.1/" xmlns:cc="http://creativecommons.org/ns#" xmlns:rdf="http://www.w3.org/1999/02/22-rdf-syntax-ns#">
   <cc:Work>
    <dc:type rdf:resource="http://purl.org/dc/dcmitype/StillImage"/>
    <dc:date>2023-05-03T10:37:42.631245</dc:date>
    <dc:format>image/svg+xml</dc:format>
    <dc:creator>
     <cc:Agent>
      <dc:title>Matplotlib v3.6.3, https://matplotlib.org/</dc:title>
     </cc:Agent>
    </dc:creator>
   </cc:Work>
  </rdf:RDF>
 </metadata>
 <defs>
  <style type="text/css">*{stroke-linejoin: round; stroke-linecap: butt}</style>
 </defs>
 <g id="figure_1">
  <g id="patch_1">
   <path d="M 0 345.6 
L 460.8 345.6 
L 460.8 0 
L 0 0 
z
" style="fill: #ffffff"/>
  </g>
  <g id="axes_1">
   <g id="patch_2">
    <path d="M 57.6 307.584 
L 414.72 307.584 
L 414.72 41.472 
L 57.6 41.472 
z
" style="fill: #ffffff"/>
   </g>
   <g id="matplotlib.axis_1">
    <g id="xtick_1">
     <g id="line2d_1">
      <defs>
       <path id="m29b45b837e" d="M 0 0 
L 0 3.5 
" style="stroke: #000000; stroke-width: 0.8"/>
      </defs>
      <g>
       <use xlink:href="#m29b45b837e" x="73.832727" y="307.584" style="stroke: #000000; stroke-width: 0.8"/>
      </g>
     </g>
     <g id="text_1">
      <!-- 0 -->
      <g transform="translate(70.651477 322.182437) scale(0.1 -0.1)">
       <defs>
        <path id="DejaVuSans-30" d="M 2034 4250 
Q 1547 4250 1301 3770 
Q 1056 3291 1056 2328 
Q 1056 1369 1301 889 
Q 1547 409 2034 409 
Q 2525 409 2770 889 
Q 3016 1369 3016 2328 
Q 3016 3291 2770 3770 
Q 2525 4250 2034 4250 
z
M 2034 4750 
Q 2819 4750 3233 4129 
Q 3647 3509 3647 2328 
Q 3647 1150 3233 529 
Q 2819 -91 2034 -91 
Q 1250 -91 836 529 
Q 422 1150 422 2328 
Q 422 3509 836 4129 
Q 1250 4750 2034 4750 
z
" transform="scale(0.015625)"/>
       </defs>
       <use xlink:href="#DejaVuSans-30"/>
      </g>
     </g>
    </g>
    <g id="xtick_2">
     <g id="line2d_2">
      <g>
       <use xlink:href="#m29b45b837e" x="114.414545" y="307.584" style="stroke: #000000; stroke-width: 0.8"/>
      </g>
     </g>
     <g id="text_2">
      <!-- 1 -->
      <g transform="translate(111.233295 322.182437) scale(0.1 -0.1)">
       <defs>
        <path id="DejaVuSans-31" d="M 794 531 
L 1825 531 
L 1825 4091 
L 703 3866 
L 703 4441 
L 1819 4666 
L 2450 4666 
L 2450 531 
L 3481 531 
L 3481 0 
L 794 0 
L 794 531 
z
" transform="scale(0.015625)"/>
       </defs>
       <use xlink:href="#DejaVuSans-31"/>
      </g>
     </g>
    </g>
    <g id="xtick_3">
     <g id="line2d_3">
      <g>
       <use xlink:href="#m29b45b837e" x="154.996364" y="307.584" style="stroke: #000000; stroke-width: 0.8"/>
      </g>
     </g>
     <g id="text_3">
      <!-- 2 -->
      <g transform="translate(151.815114 322.182437) scale(0.1 -0.1)">
       <defs>
        <path id="DejaVuSans-32" d="M 1228 531 
L 3431 531 
L 3431 0 
L 469 0 
L 469 531 
Q 828 903 1448 1529 
Q 2069 2156 2228 2338 
Q 2531 2678 2651 2914 
Q 2772 3150 2772 3378 
Q 2772 3750 2511 3984 
Q 2250 4219 1831 4219 
Q 1534 4219 1204 4116 
Q 875 4013 500 3803 
L 500 4441 
Q 881 4594 1212 4672 
Q 1544 4750 1819 4750 
Q 2544 4750 2975 4387 
Q 3406 4025 3406 3419 
Q 3406 3131 3298 2873 
Q 3191 2616 2906 2266 
Q 2828 2175 2409 1742 
Q 1991 1309 1228 531 
z
" transform="scale(0.015625)"/>
       </defs>
       <use xlink:href="#DejaVuSans-32"/>
      </g>
     </g>
    </g>
    <g id="xtick_4">
     <g id="line2d_4">
      <g>
       <use xlink:href="#m29b45b837e" x="195.578182" y="307.584" style="stroke: #000000; stroke-width: 0.8"/>
      </g>
     </g>
     <g id="text_4">
      <!-- 3 -->
      <g transform="translate(192.396932 322.182437) scale(0.1 -0.1)">
       <defs>
        <path id="DejaVuSans-33" d="M 2597 2516 
Q 3050 2419 3304 2112 
Q 3559 1806 3559 1356 
Q 3559 666 3084 287 
Q 2609 -91 1734 -91 
Q 1441 -91 1130 -33 
Q 819 25 488 141 
L 488 750 
Q 750 597 1062 519 
Q 1375 441 1716 441 
Q 2309 441 2620 675 
Q 2931 909 2931 1356 
Q 2931 1769 2642 2001 
Q 2353 2234 1838 2234 
L 1294 2234 
L 1294 2753 
L 1863 2753 
Q 2328 2753 2575 2939 
Q 2822 3125 2822 3475 
Q 2822 3834 2567 4026 
Q 2313 4219 1838 4219 
Q 1578 4219 1281 4162 
Q 984 4106 628 3988 
L 628 4550 
Q 988 4650 1302 4700 
Q 1616 4750 1894 4750 
Q 2613 4750 3031 4423 
Q 3450 4097 3450 3541 
Q 3450 3153 3228 2886 
Q 3006 2619 2597 2516 
z
" transform="scale(0.015625)"/>
       </defs>
       <use xlink:href="#DejaVuSans-33"/>
      </g>
     </g>
    </g>
    <g id="xtick_5">
     <g id="line2d_5">
      <g>
       <use xlink:href="#m29b45b837e" x="236.16" y="307.584" style="stroke: #000000; stroke-width: 0.8"/>
      </g>
     </g>
     <g id="text_5">
      <!-- 4 -->
      <g transform="translate(232.97875 322.182437) scale(0.1 -0.1)">
       <defs>
        <path id="DejaVuSans-34" d="M 2419 4116 
L 825 1625 
L 2419 1625 
L 2419 4116 
z
M 2253 4666 
L 3047 4666 
L 3047 1625 
L 3713 1625 
L 3713 1100 
L 3047 1100 
L 3047 0 
L 2419 0 
L 2419 1100 
L 313 1100 
L 313 1709 
L 2253 4666 
z
" transform="scale(0.015625)"/>
       </defs>
       <use xlink:href="#DejaVuSans-34"/>
      </g>
     </g>
    </g>
    <g id="xtick_6">
     <g id="line2d_6">
      <g>
       <use xlink:href="#m29b45b837e" x="276.741818" y="307.584" style="stroke: #000000; stroke-width: 0.8"/>
      </g>
     </g>
     <g id="text_6">
      <!-- 5 -->
      <g transform="translate(273.560568 322.182437) scale(0.1 -0.1)">
       <defs>
        <path id="DejaVuSans-35" d="M 691 4666 
L 3169 4666 
L 3169 4134 
L 1269 4134 
L 1269 2991 
Q 1406 3038 1543 3061 
Q 1681 3084 1819 3084 
Q 2600 3084 3056 2656 
Q 3513 2228 3513 1497 
Q 3513 744 3044 326 
Q 2575 -91 1722 -91 
Q 1428 -91 1123 -41 
Q 819 9 494 109 
L 494 744 
Q 775 591 1075 516 
Q 1375 441 1709 441 
Q 2250 441 2565 725 
Q 2881 1009 2881 1497 
Q 2881 1984 2565 2268 
Q 2250 2553 1709 2553 
Q 1456 2553 1204 2497 
Q 953 2441 691 2322 
L 691 4666 
z
" transform="scale(0.015625)"/>
       </defs>
       <use xlink:href="#DejaVuSans-35"/>
      </g>
     </g>
    </g>
    <g id="xtick_7">
     <g id="line2d_7">
      <g>
       <use xlink:href="#m29b45b837e" x="317.323636" y="307.584" style="stroke: #000000; stroke-width: 0.8"/>
      </g>
     </g>
     <g id="text_7">
      <!-- 6 -->
      <g transform="translate(314.142386 322.182437) scale(0.1 -0.1)">
       <defs>
        <path id="DejaVuSans-36" d="M 2113 2584 
Q 1688 2584 1439 2293 
Q 1191 2003 1191 1497 
Q 1191 994 1439 701 
Q 1688 409 2113 409 
Q 2538 409 2786 701 
Q 3034 994 3034 1497 
Q 3034 2003 2786 2293 
Q 2538 2584 2113 2584 
z
M 3366 4563 
L 3366 3988 
Q 3128 4100 2886 4159 
Q 2644 4219 2406 4219 
Q 1781 4219 1451 3797 
Q 1122 3375 1075 2522 
Q 1259 2794 1537 2939 
Q 1816 3084 2150 3084 
Q 2853 3084 3261 2657 
Q 3669 2231 3669 1497 
Q 3669 778 3244 343 
Q 2819 -91 2113 -91 
Q 1303 -91 875 529 
Q 447 1150 447 2328 
Q 447 3434 972 4092 
Q 1497 4750 2381 4750 
Q 2619 4750 2861 4703 
Q 3103 4656 3366 4563 
z
" transform="scale(0.015625)"/>
       </defs>
       <use xlink:href="#DejaVuSans-36"/>
      </g>
     </g>
    </g>
    <g id="xtick_8">
     <g id="line2d_8">
      <g>
       <use xlink:href="#m29b45b837e" x="357.905455" y="307.584" style="stroke: #000000; stroke-width: 0.8"/>
      </g>
     </g>
     <g id="text_8">
      <!-- 7 -->
      <g transform="translate(354.724205 322.182437) scale(0.1 -0.1)">
       <defs>
        <path id="DejaVuSans-37" d="M 525 4666 
L 3525 4666 
L 3525 4397 
L 1831 0 
L 1172 0 
L 2766 4134 
L 525 4134 
L 525 4666 
z
" transform="scale(0.015625)"/>
       </defs>
       <use xlink:href="#DejaVuSans-37"/>
      </g>
     </g>
    </g>
    <g id="xtick_9">
     <g id="line2d_9">
      <g>
       <use xlink:href="#m29b45b837e" x="398.487273" y="307.584" style="stroke: #000000; stroke-width: 0.8"/>
      </g>
     </g>
     <g id="text_9">
      <!-- 8 -->
      <g transform="translate(395.306023 322.182437) scale(0.1 -0.1)">
       <defs>
        <path id="DejaVuSans-38" d="M 2034 2216 
Q 1584 2216 1326 1975 
Q 1069 1734 1069 1313 
Q 1069 891 1326 650 
Q 1584 409 2034 409 
Q 2484 409 2743 651 
Q 3003 894 3003 1313 
Q 3003 1734 2745 1975 
Q 2488 2216 2034 2216 
z
M 1403 2484 
Q 997 2584 770 2862 
Q 544 3141 544 3541 
Q 544 4100 942 4425 
Q 1341 4750 2034 4750 
Q 2731 4750 3128 4425 
Q 3525 4100 3525 3541 
Q 3525 3141 3298 2862 
Q 3072 2584 2669 2484 
Q 3125 2378 3379 2068 
Q 3634 1759 3634 1313 
Q 3634 634 3220 271 
Q 2806 -91 2034 -91 
Q 1263 -91 848 271 
Q 434 634 434 1313 
Q 434 1759 690 2068 
Q 947 2378 1403 2484 
z
M 1172 3481 
Q 1172 3119 1398 2916 
Q 1625 2713 2034 2713 
Q 2441 2713 2670 2916 
Q 2900 3119 2900 3481 
Q 2900 3844 2670 4047 
Q 2441 4250 2034 4250 
Q 1625 4250 1398 4047 
Q 1172 3844 1172 3481 
z
" transform="scale(0.015625)"/>
       </defs>
       <use xlink:href="#DejaVuSans-38"/>
      </g>
     </g>
    </g>
   </g>
   <g id="matplotlib.axis_2">
    <g id="ytick_1">
     <g id="line2d_10">
      <defs>
       <path id="m1be8f38054" d="M 0 0 
L -3.5 0 
" style="stroke: #000000; stroke-width: 0.8"/>
      </defs>
      <g>
       <use xlink:href="#m1be8f38054" x="57.6" y="285.621863" style="stroke: #000000; stroke-width: 0.8"/>
      </g>
     </g>
     <g id="text_10">
      <!-- 0 -->
      <g transform="translate(44.2375 289.421082) scale(0.1 -0.1)">
       <use xlink:href="#DejaVuSans-30"/>
      </g>
     </g>
    </g>
    <g id="ytick_2">
     <g id="line2d_11">
      <g>
       <use xlink:href="#m1be8f38054" x="57.6" y="251.454532" style="stroke: #000000; stroke-width: 0.8"/>
      </g>
     </g>
     <g id="text_11">
      <!-- 1 -->
      <g transform="translate(44.2375 255.25375) scale(0.1 -0.1)">
       <use xlink:href="#DejaVuSans-31"/>
      </g>
     </g>
    </g>
    <g id="ytick_3">
     <g id="line2d_12">
      <g>
       <use xlink:href="#m1be8f38054" x="57.6" y="217.2872" style="stroke: #000000; stroke-width: 0.8"/>
      </g>
     </g>
     <g id="text_12">
      <!-- 2 -->
      <g transform="translate(44.2375 221.086418) scale(0.1 -0.1)">
       <use xlink:href="#DejaVuSans-32"/>
      </g>
     </g>
    </g>
    <g id="ytick_4">
     <g id="line2d_13">
      <g>
       <use xlink:href="#m1be8f38054" x="57.6" y="183.119868" style="stroke: #000000; stroke-width: 0.8"/>
      </g>
     </g>
     <g id="text_13">
      <!-- 3 -->
      <g transform="translate(44.2375 186.919087) scale(0.1 -0.1)">
       <use xlink:href="#DejaVuSans-33"/>
      </g>
     </g>
    </g>
    <g id="ytick_5">
     <g id="line2d_14">
      <g>
       <use xlink:href="#m1be8f38054" x="57.6" y="148.952536" style="stroke: #000000; stroke-width: 0.8"/>
      </g>
     </g>
     <g id="text_14">
      <!-- 4 -->
      <g transform="translate(44.2375 152.751755) scale(0.1 -0.1)">
       <use xlink:href="#DejaVuSans-34"/>
      </g>
     </g>
    </g>
    <g id="ytick_6">
     <g id="line2d_15">
      <g>
       <use xlink:href="#m1be8f38054" x="57.6" y="114.785204" style="stroke: #000000; stroke-width: 0.8"/>
      </g>
     </g>
     <g id="text_15">
      <!-- 5 -->
      <g transform="translate(44.2375 118.584423) scale(0.1 -0.1)">
       <use xlink:href="#DejaVuSans-35"/>
      </g>
     </g>
    </g>
    <g id="ytick_7">
     <g id="line2d_16">
      <g>
       <use xlink:href="#m1be8f38054" x="57.6" y="80.617872" style="stroke: #000000; stroke-width: 0.8"/>
      </g>
     </g>
     <g id="text_16">
      <!-- 6 -->
      <g transform="translate(44.2375 84.417091) scale(0.1 -0.1)">
       <use xlink:href="#DejaVuSans-36"/>
      </g>
     </g>
    </g>
    <g id="ytick_8">
     <g id="line2d_17">
      <g>
       <use xlink:href="#m1be8f38054" x="57.6" y="46.450541" style="stroke: #000000; stroke-width: 0.8"/>
      </g>
     </g>
     <g id="text_17">
      <!-- 7 -->
      <g transform="translate(44.2375 50.249759) scale(0.1 -0.1)">
       <use xlink:href="#DejaVuSans-37"/>
      </g>
     </g>
    </g>
   </g>
   <g id="line2d_18">
    <defs>
     <path id="m7b3bc88156" d="M 0 1.5 
C 0.397805 1.5 0.77937 1.341951 1.06066 1.06066 
C 1.341951 0.77937 1.5 0.397805 1.5 0 
C 1.5 -0.397805 1.341951 -0.77937 1.06066 -1.06066 
C 0.77937 -1.341951 0.397805 -1.5 0 -1.5 
C -0.397805 -1.5 -0.77937 -1.341951 -1.06066 -1.06066 
C -1.341951 -0.77937 -1.5 -0.397805 -1.5 0 
C -1.5 0.397805 -1.341951 0.77937 -1.06066 1.06066 
C -0.77937 1.341951 -0.397805 1.5 0 1.5 
z
" style="stroke: #1f77b4"/>
    </defs>
    <g clip-path="url(#pbb324a96fe)">
     <use xlink:href="#m7b3bc88156" x="73.832727" y="278.53725" style="fill: #1f77b4; stroke: #1f77b4"/>
     <use xlink:href="#m7b3bc88156" x="77.112066" y="262.859159" style="fill: #1f77b4; stroke: #1f77b4"/>
     <use xlink:href="#m7b3bc88156" x="80.391405" y="267.314578" style="fill: #1f77b4; stroke: #1f77b4"/>
     <use xlink:href="#m7b3bc88156" x="83.670744" y="295.488" style="fill: #1f77b4; stroke: #1f77b4"/>
     <use xlink:href="#m7b3bc88156" x="86.950083" y="245.187624" style="fill: #1f77b4; stroke: #1f77b4"/>
     <use xlink:href="#m7b3bc88156" x="90.229421" y="249.855744" style="fill: #1f77b4; stroke: #1f77b4"/>
     <use xlink:href="#m7b3bc88156" x="93.50876" y="265.549834" style="fill: #1f77b4; stroke: #1f77b4"/>
     <use xlink:href="#m7b3bc88156" x="96.788099" y="238.433921" style="fill: #1f77b4; stroke: #1f77b4"/>
     <use xlink:href="#m7b3bc88156" x="100.067438" y="238.940569" style="fill: #1f77b4; stroke: #1f77b4"/>
     <use xlink:href="#m7b3bc88156" x="103.346777" y="236.707228" style="fill: #1f77b4; stroke: #1f77b4"/>
     <use xlink:href="#m7b3bc88156" x="106.626116" y="238.725106" style="fill: #1f77b4; stroke: #1f77b4"/>
     <use xlink:href="#m7b3bc88156" x="109.905455" y="224.911611" style="fill: #1f77b4; stroke: #1f77b4"/>
     <use xlink:href="#m7b3bc88156" x="113.184793" y="248.26254" style="fill: #1f77b4; stroke: #1f77b4"/>
     <use xlink:href="#m7b3bc88156" x="116.464132" y="233.776829" style="fill: #1f77b4; stroke: #1f77b4"/>
     <use xlink:href="#m7b3bc88156" x="119.743471" y="237.812462" style="fill: #1f77b4; stroke: #1f77b4"/>
     <use xlink:href="#m7b3bc88156" x="123.02281" y="213.356353" style="fill: #1f77b4; stroke: #1f77b4"/>
     <use xlink:href="#m7b3bc88156" x="126.302149" y="222.727997" style="fill: #1f77b4; stroke: #1f77b4"/>
     <use xlink:href="#m7b3bc88156" x="129.581488" y="227.645296" style="fill: #1f77b4; stroke: #1f77b4"/>
     <use xlink:href="#m7b3bc88156" x="132.860826" y="235.977734" style="fill: #1f77b4; stroke: #1f77b4"/>
     <use xlink:href="#m7b3bc88156" x="136.140165" y="223.703168" style="fill: #1f77b4; stroke: #1f77b4"/>
     <use xlink:href="#m7b3bc88156" x="139.419504" y="216.922736" style="fill: #1f77b4; stroke: #1f77b4"/>
     <use xlink:href="#m7b3bc88156" x="142.698843" y="221.568217" style="fill: #1f77b4; stroke: #1f77b4"/>
     <use xlink:href="#m7b3bc88156" x="145.978182" y="188.380441" style="fill: #1f77b4; stroke: #1f77b4"/>
     <use xlink:href="#m7b3bc88156" x="149.257521" y="193.417319" style="fill: #1f77b4; stroke: #1f77b4"/>
     <use xlink:href="#m7b3bc88156" x="152.53686" y="268.929932" style="fill: #1f77b4; stroke: #1f77b4"/>
     <use xlink:href="#m7b3bc88156" x="155.816198" y="251.510999" style="fill: #1f77b4; stroke: #1f77b4"/>
     <use xlink:href="#m7b3bc88156" x="159.095537" y="215.937693" style="fill: #1f77b4; stroke: #1f77b4"/>
     <use xlink:href="#m7b3bc88156" x="162.374876" y="220.705916" style="fill: #1f77b4; stroke: #1f77b4"/>
     <use xlink:href="#m7b3bc88156" x="165.654215" y="207.486714" style="fill: #1f77b4; stroke: #1f77b4"/>
     <use xlink:href="#m7b3bc88156" x="168.933554" y="207.339378" style="fill: #1f77b4; stroke: #1f77b4"/>
     <use xlink:href="#m7b3bc88156" x="172.212893" y="168.411417" style="fill: #1f77b4; stroke: #1f77b4"/>
     <use xlink:href="#m7b3bc88156" x="175.492231" y="234.756387" style="fill: #1f77b4; stroke: #1f77b4"/>
     <use xlink:href="#m7b3bc88156" x="178.77157" y="219.923161" style="fill: #1f77b4; stroke: #1f77b4"/>
     <use xlink:href="#m7b3bc88156" x="182.050909" y="170.610955" style="fill: #1f77b4; stroke: #1f77b4"/>
     <use xlink:href="#m7b3bc88156" x="185.330248" y="199.614148" style="fill: #1f77b4; stroke: #1f77b4"/>
     <use xlink:href="#m7b3bc88156" x="188.609587" y="199.731595" style="fill: #1f77b4; stroke: #1f77b4"/>
     <use xlink:href="#m7b3bc88156" x="191.888926" y="224.377306" style="fill: #1f77b4; stroke: #1f77b4"/>
     <use xlink:href="#m7b3bc88156" x="195.168264" y="248.196812" style="fill: #1f77b4; stroke: #1f77b4"/>
     <use xlink:href="#m7b3bc88156" x="198.447603" y="211.596354" style="fill: #1f77b4; stroke: #1f77b4"/>
     <use xlink:href="#m7b3bc88156" x="201.726942" y="213.454503" style="fill: #1f77b4; stroke: #1f77b4"/>
     <use xlink:href="#m7b3bc88156" x="205.006281" y="241.544343" style="fill: #1f77b4; stroke: #1f77b4"/>
     <use xlink:href="#m7b3bc88156" x="208.28562" y="231.110129" style="fill: #1f77b4; stroke: #1f77b4"/>
     <use xlink:href="#m7b3bc88156" x="211.564959" y="219.320841" style="fill: #1f77b4; stroke: #1f77b4"/>
     <use xlink:href="#m7b3bc88156" x="214.844298" y="237.964404" style="fill: #1f77b4; stroke: #1f77b4"/>
     <use xlink:href="#m7b3bc88156" x="218.123636" y="221.369248" style="fill: #1f77b4; stroke: #1f77b4"/>
     <use xlink:href="#m7b3bc88156" x="221.402975" y="218.153506" style="fill: #1f77b4; stroke: #1f77b4"/>
     <use xlink:href="#m7b3bc88156" x="224.682314" y="220.128761" style="fill: #1f77b4; stroke: #1f77b4"/>
     <use xlink:href="#m7b3bc88156" x="227.961653" y="231.968757" style="fill: #1f77b4; stroke: #1f77b4"/>
     <use xlink:href="#m7b3bc88156" x="231.240992" y="210.125583" style="fill: #1f77b4; stroke: #1f77b4"/>
     <use xlink:href="#m7b3bc88156" x="234.520331" y="204.706113" style="fill: #1f77b4; stroke: #1f77b4"/>
     <use xlink:href="#m7b3bc88156" x="237.799669" y="217.038127" style="fill: #1f77b4; stroke: #1f77b4"/>
     <use xlink:href="#m7b3bc88156" x="241.079008" y="240.985323" style="fill: #1f77b4; stroke: #1f77b4"/>
     <use xlink:href="#m7b3bc88156" x="244.358347" y="209.755983" style="fill: #1f77b4; stroke: #1f77b4"/>
     <use xlink:href="#m7b3bc88156" x="247.637686" y="235.519836" style="fill: #1f77b4; stroke: #1f77b4"/>
     <use xlink:href="#m7b3bc88156" x="250.917025" y="207.6359" style="fill: #1f77b4; stroke: #1f77b4"/>
     <use xlink:href="#m7b3bc88156" x="254.196364" y="247.97686" style="fill: #1f77b4; stroke: #1f77b4"/>
     <use xlink:href="#m7b3bc88156" x="257.475702" y="207.523275" style="fill: #1f77b4; stroke: #1f77b4"/>
     <use xlink:href="#m7b3bc88156" x="260.755041" y="226.859495" style="fill: #1f77b4; stroke: #1f77b4"/>
     <use xlink:href="#m7b3bc88156" x="264.03438" y="252.131406" style="fill: #1f77b4; stroke: #1f77b4"/>
     <use xlink:href="#m7b3bc88156" x="267.313719" y="232.94825" style="fill: #1f77b4; stroke: #1f77b4"/>
     <use xlink:href="#m7b3bc88156" x="270.593058" y="225.27682" style="fill: #1f77b4; stroke: #1f77b4"/>
     <use xlink:href="#m7b3bc88156" x="273.872397" y="220.550342" style="fill: #1f77b4; stroke: #1f77b4"/>
     <use xlink:href="#m7b3bc88156" x="277.151736" y="245.911499" style="fill: #1f77b4; stroke: #1f77b4"/>
     <use xlink:href="#m7b3bc88156" x="280.431074" y="247.981121" style="fill: #1f77b4; stroke: #1f77b4"/>
     <use xlink:href="#m7b3bc88156" x="283.710413" y="220.553814" style="fill: #1f77b4; stroke: #1f77b4"/>
     <use xlink:href="#m7b3bc88156" x="286.989752" y="233.435199" style="fill: #1f77b4; stroke: #1f77b4"/>
     <use xlink:href="#m7b3bc88156" x="290.269091" y="218.10824" style="fill: #1f77b4; stroke: #1f77b4"/>
     <use xlink:href="#m7b3bc88156" x="293.54843" y="206.276444" style="fill: #1f77b4; stroke: #1f77b4"/>
     <use xlink:href="#m7b3bc88156" x="296.827769" y="254.3924" style="fill: #1f77b4; stroke: #1f77b4"/>
     <use xlink:href="#m7b3bc88156" x="300.107107" y="213.948113" style="fill: #1f77b4; stroke: #1f77b4"/>
     <use xlink:href="#m7b3bc88156" x="303.386446" y="192.448716" style="fill: #1f77b4; stroke: #1f77b4"/>
     <use xlink:href="#m7b3bc88156" x="306.665785" y="221.85777" style="fill: #1f77b4; stroke: #1f77b4"/>
     <use xlink:href="#m7b3bc88156" x="309.945124" y="230.389705" style="fill: #1f77b4; stroke: #1f77b4"/>
     <use xlink:href="#m7b3bc88156" x="313.224463" y="196.154022" style="fill: #1f77b4; stroke: #1f77b4"/>
     <use xlink:href="#m7b3bc88156" x="316.503802" y="203.978373" style="fill: #1f77b4; stroke: #1f77b4"/>
     <use xlink:href="#m7b3bc88156" x="319.78314" y="188.191003" style="fill: #1f77b4; stroke: #1f77b4"/>
     <use xlink:href="#m7b3bc88156" x="323.062479" y="210.793748" style="fill: #1f77b4; stroke: #1f77b4"/>
     <use xlink:href="#m7b3bc88156" x="326.341818" y="231.024028" style="fill: #1f77b4; stroke: #1f77b4"/>
     <use xlink:href="#m7b3bc88156" x="329.621157" y="199.593511" style="fill: #1f77b4; stroke: #1f77b4"/>
     <use xlink:href="#m7b3bc88156" x="332.900496" y="202.925457" style="fill: #1f77b4; stroke: #1f77b4"/>
     <use xlink:href="#m7b3bc88156" x="336.179835" y="174.08724" style="fill: #1f77b4; stroke: #1f77b4"/>
     <use xlink:href="#m7b3bc88156" x="339.459174" y="181.949215" style="fill: #1f77b4; stroke: #1f77b4"/>
     <use xlink:href="#m7b3bc88156" x="342.738512" y="215.022955" style="fill: #1f77b4; stroke: #1f77b4"/>
     <use xlink:href="#m7b3bc88156" x="346.017851" y="201.489256" style="fill: #1f77b4; stroke: #1f77b4"/>
     <use xlink:href="#m7b3bc88156" x="349.29719" y="153.987723" style="fill: #1f77b4; stroke: #1f77b4"/>
     <use xlink:href="#m7b3bc88156" x="352.576529" y="153.000744" style="fill: #1f77b4; stroke: #1f77b4"/>
     <use xlink:href="#m7b3bc88156" x="355.855868" y="174.597384" style="fill: #1f77b4; stroke: #1f77b4"/>
     <use xlink:href="#m7b3bc88156" x="359.135207" y="155.727936" style="fill: #1f77b4; stroke: #1f77b4"/>
     <use xlink:href="#m7b3bc88156" x="362.414545" y="140.49751" style="fill: #1f77b4; stroke: #1f77b4"/>
     <use xlink:href="#m7b3bc88156" x="365.693884" y="133.639055" style="fill: #1f77b4; stroke: #1f77b4"/>
     <use xlink:href="#m7b3bc88156" x="368.973223" y="118.564737" style="fill: #1f77b4; stroke: #1f77b4"/>
     <use xlink:href="#m7b3bc88156" x="372.252562" y="124.226311" style="fill: #1f77b4; stroke: #1f77b4"/>
     <use xlink:href="#m7b3bc88156" x="375.531901" y="124.04736" style="fill: #1f77b4; stroke: #1f77b4"/>
     <use xlink:href="#m7b3bc88156" x="378.81124" y="119.68432" style="fill: #1f77b4; stroke: #1f77b4"/>
     <use xlink:href="#m7b3bc88156" x="382.090579" y="84.65755" style="fill: #1f77b4; stroke: #1f77b4"/>
     <use xlink:href="#m7b3bc88156" x="385.369917" y="144.008215" style="fill: #1f77b4; stroke: #1f77b4"/>
     <use xlink:href="#m7b3bc88156" x="388.649256" y="91.905497" style="fill: #1f77b4; stroke: #1f77b4"/>
     <use xlink:href="#m7b3bc88156" x="391.928595" y="79.211654" style="fill: #1f77b4; stroke: #1f77b4"/>
     <use xlink:href="#m7b3bc88156" x="395.207934" y="99.553374" style="fill: #1f77b4; stroke: #1f77b4"/>
     <use xlink:href="#m7b3bc88156" x="398.487273" y="53.568" style="fill: #1f77b4; stroke: #1f77b4"/>
    </g>
   </g>
   <g id="patch_3">
    <path d="M 57.6 307.584 
L 57.6 41.472 
" style="fill: none; stroke: #000000; stroke-width: 0.8; stroke-linejoin: miter; stroke-linecap: square"/>
   </g>
   <g id="patch_4">
    <path d="M 414.72 307.584 
L 414.72 41.472 
" style="fill: none; stroke: #000000; stroke-width: 0.8; stroke-linejoin: miter; stroke-linecap: square"/>
   </g>
   <g id="patch_5">
    <path d="M 57.6 307.584 
L 414.72 307.584 
" style="fill: none; stroke: #000000; stroke-width: 0.8; stroke-linejoin: miter; stroke-linecap: square"/>
   </g>
   <g id="patch_6">
    <path d="M 57.6 41.472 
L 414.72 41.472 
" style="fill: none; stroke: #000000; stroke-width: 0.8; stroke-linejoin: miter; stroke-linecap: square"/>
   </g>
  </g>
 </g>
 <defs>
  <clipPath id="pbb324a96fe">
   <rect x="57.6" y="41.472" width="357.12" height="266.112"/>
  </clipPath>
 </defs>
</svg>
