<?xml version="1.0" encoding="utf-8" standalone="no"?>
<!DOCTYPE svg PUBLIC "-//W3C//DTD SVG 1.1//EN"
  "http://www.w3.org/Graphics/SVG/1.1/DTD/svg11.dtd">
<svg xmlns:xlink="http://www.w3.org/1999/xlink" width="339.507055pt" height="340.929666pt" viewBox="0 0 339.507055 340.929666" xmlns="http://www.w3.org/2000/svg" version="1.1">
 <metadata>
  <rdf:RDF xmlns:dc="http://purl.org/dc/elements/1.1/" xmlns:cc="http://creativecommons.org/ns#" xmlns:rdf="http://www.w3.org/1999/02/22-rdf-syntax-ns#">
   <cc:Work>
    <dc:type rdf:resource="http://purl.org/dc/dcmitype/StillImage"/>
    <dc:date>2026-03-13T14:41:36.950751</dc:date>
    <dc:format>image/svg+xml</dc:format>
    <dc:creator>
     <cc:Agent>
      <dc:title>Matplotlib v3.10.8, https://matplotlib.org/</dc:title>
     </cc:Agent>
    </dc:creator>
   </cc:Work>
  </rdf:RDF>
 </metadata>
 <defs>
  <style type="text/css">*{stroke-linejoin: round; stroke-linecap: butt}</style>
 </defs>
 <g id="figure_1">
  <g id="patch_1">
   <path d="M 0 340.929666 
L 339.507055 340.929666 
L 339.507055 0 
L 0 0 
z
" style="fill: #ffffff"/>
  </g>
  <g id="patch_2">
   <path d="M 7.2 331.2 
L 331.2 331.2 
L 331.2 7.2 
L 7.2 7.2 
z
" style="fill: #ffffff"/>
  </g>
  <g id="pane3d_1">
   <g id="patch_3">
    <path d="M 40.46985 262.228474 
L 151.90441 200.606514 
L 151.05398 31.926473 
L 34.795618 81.596555 
" style="fill: #f2f2f2; opacity: 0.5; stroke: #f2f2f2; stroke-linejoin: miter"/>
   </g>
  </g>
  <g id="pane3d_2">
   <g id="patch_4">
    <path d="M 151.90441 200.606514 
L 303.459214 242.708393 
L 308.856019 65.827446 
L 151.05398 31.926473 
" style="fill: #e6e6e6; opacity: 0.5; stroke: #e6e6e6; stroke-linejoin: miter"/>
   </g>
  </g>
  <g id="pane3d_3">
   <g id="patch_5">
    <path d="M 40.46985 262.228474 
L 198.495266 311.83258 
L 303.459214 242.708393 
L 151.90441 200.606514 
" style="fill: #ececec; opacity: 0.5; stroke: #ececec; stroke-linejoin: miter"/>
   </g>
  </g>
  <g id="grid3d_1">
   <g id="Line3DCollection_1">
    <path d="M 47.253797 264.357952 
L 158.439943 202.422083 
L 157.844442 33.385283 
" style="fill: none; stroke: #b0b0b0; stroke-width: 0.8"/>
    <path d="M 74.752338 272.989731 
L 184.904463 209.773919 
L 185.354567 39.295346 
" style="fill: none; stroke: #b0b0b0; stroke-width: 0.8"/>
    <path d="M 102.8454 281.808131 
L 211.896368 217.272262 
L 213.434926 45.327914 
" style="fill: none; stroke: #b0b0b0; stroke-width: 0.8"/>
    <path d="M 131.552473 290.819268 
L 239.431581 224.921536 
L 242.103434 51.486835 
" style="fill: none; stroke: #b0b0b0; stroke-width: 0.8"/>
    <path d="M 160.893911 300.029532 
L 267.526672 232.726343 
L 271.378765 57.776121 
" style="fill: none; stroke: #b0b0b0; stroke-width: 0.8"/>
    <path d="M 190.890976 309.445597 
L 296.198892 240.691478 
L 301.280392 64.199956 
" style="fill: none; stroke: #b0b0b0; stroke-width: 0.8"/>
   </g>
  </g>
  <g id="grid3d_2">
   <g id="Line3DCollection_2">
    <path d="M 40.51435 79.153291 
L 45.934346 259.206674 
L 203.665541 308.427687 
" style="fill: none; stroke: #b0b0b0; stroke-width: 0.8"/>
    <path d="M 62.948609 69.568505 
L 67.388146 247.342982 
L 223.941118 295.075171 
" style="fill: none; stroke: #b0b0b0; stroke-width: 0.8"/>
    <path d="M 84.701871 60.274668 
L 88.216465 235.825174 
L 243.590404 282.1351 
" style="fill: none; stroke: #b0b0b0; stroke-width: 0.8"/>
    <path d="M 105.804681 51.258729 
L 108.446263 224.638342 
L 262.641977 269.588654 
" style="fill: none; stroke: #b0b0b0; stroke-width: 0.8"/>
    <path d="M 126.285782 42.508408 
L 128.102973 213.76842 
L 281.122699 257.418143 
" style="fill: none; stroke: #b0b0b0; stroke-width: 0.8"/>
    <path d="M 146.17225 34.012137 
L 147.210607 203.20213 
L 299.057851 245.606918 
" style="fill: none; stroke: #b0b0b0; stroke-width: 0.8"/>
   </g>
  </g>
  <g id="grid3d_3">
   <g id="Line3DCollection_3">
    <path d="M 303.695164 234.975078 
L 151.867149 193.216041 
L 40.222015 254.338964 
" style="fill: none; stroke: #b0b0b0; stroke-width: 0.8"/>
    <path d="M 304.647603 203.758785 
L 151.716818 163.398287 
L 39.221376 222.484929 
" style="fill: none; stroke: #b0b0b0; stroke-width: 0.8"/>
    <path d="M 305.614088 172.082123 
L 151.56439 133.16473 
L 38.205608 190.149247 
" style="fill: none; stroke: #b0b0b0; stroke-width: 0.8"/>
    <path d="M 306.594932 139.934833 
L 151.409822 102.50661 
L 37.174364 157.320912 
" style="fill: none; stroke: #b0b0b0; stroke-width: 0.8"/>
    <path d="M 307.590458 107.306348 
L 151.253067 71.414923 
L 36.127288 123.988577 
" style="fill: none; stroke: #b0b0b0; stroke-width: 0.8"/>
    <path d="M 308.600998 74.185782 
L 151.094081 39.880405 
L 35.064012 90.140546 
" style="fill: none; stroke: #b0b0b0; stroke-width: 0.8"/>
   </g>
  </g>
  <g id="axis3d_1">
   <g id="line2d_1">
    <path d="M 40.46985 262.228474 
L 198.495266 311.83258 
" style="fill: none; stroke: #000000; stroke-width: 0.8; stroke-linecap: square"/>
   </g>
   <g id="xtick_1">
    <g id="line2d_2">
     <path d="M 48.216575 263.821639 
L 45.324395 265.432718 
" style="fill: none; stroke: #000000; stroke-width: 0.8; stroke-linecap: square"/>
    </g>
    <g id="text_1">
     <!-- 0.0 -->
     <g transform="translate(33.811106 286.127422) scale(0.07 -0.07)">
      <defs>
       <path id="DejaVuSans-30" d="M 2034 4250 
Q 1547 4250 1301 3770 
Q 1056 3291 1056 2328 
Q 1056 1369 1301 889 
Q 1547 409 2034 409 
Q 2525 409 2770 889 
Q 3016 1369 3016 2328 
Q 3016 3291 2770 3770 
Q 2525 4250 2034 4250 
z
M 2034 4750 
Q 2819 4750 3233 4129 
Q 3647 3509 3647 2328 
Q 3647 1150 3233 529 
Q 2819 -91 2034 -91 
Q 1250 -91 836 529 
Q 422 1150 422 2328 
Q 422 3509 836 4129 
Q 1250 4750 2034 4750 
z
" transform="scale(0.015625)"/>
       <path id="DejaVuSans-2e" d="M 684 794 
L 1344 794 
L 1344 0 
L 684 0 
L 684 794 
z
" transform="scale(0.015625)"/>
      </defs>
      <use xlink:href="#DejaVuSans-30"/>
      <use xlink:href="#DejaVuSans-2e" transform="translate(63.623047 0)"/>
      <use xlink:href="#DejaVuSans-30" transform="translate(95.410156 0)"/>
     </g>
    </g>
   </g>
   <g id="xtick_2">
    <g id="line2d_3">
     <path d="M 75.706938 272.44189 
L 72.839283 274.087625 
" style="fill: none; stroke: #000000; stroke-width: 0.8; stroke-linecap: square"/>
    </g>
    <g id="text_2">
     <!-- 0.2 -->
     <g transform="translate(61.305175 294.960758) scale(0.07 -0.07)">
      <defs>
       <path id="DejaVuSans-32" d="M 1228 531 
L 3431 531 
L 3431 0 
L 469 0 
L 469 531 
Q 828 903 1448 1529 
Q 2069 2156 2228 2338 
Q 2531 2678 2651 2914 
Q 2772 3150 2772 3378 
Q 2772 3750 2511 3984 
Q 2250 4219 1831 4219 
Q 1534 4219 1204 4116 
Q 875 4013 500 3803 
L 500 4441 
Q 881 4594 1212 4672 
Q 1544 4750 1819 4750 
Q 2544 4750 2975 4387 
Q 3406 4025 3406 3419 
Q 3406 3131 3298 2873 
Q 3191 2616 2906 2266 
Q 2828 2175 2409 1742 
Q 1991 1309 1228 531 
z
" transform="scale(0.015625)"/>
      </defs>
      <use xlink:href="#DejaVuSans-30"/>
      <use xlink:href="#DejaVuSans-2e" transform="translate(63.623047 0)"/>
      <use xlink:href="#DejaVuSans-32" transform="translate(95.410156 0)"/>
     </g>
    </g>
   </g>
   <g id="xtick_3">
    <g id="line2d_4">
     <path d="M 103.791242 281.248385 
L 100.949855 282.929905 
" style="fill: none; stroke: #000000; stroke-width: 0.8; stroke-linecap: square"/>
    </g>
    <g id="text_3">
     <!-- 0.4 -->
     <g transform="translate(89.395416 303.985632) scale(0.07 -0.07)">
      <defs>
       <path id="DejaVuSans-34" d="M 2419 4116 
L 825 1625 
L 2419 1625 
L 2419 4116 
z
M 2253 4666 
L 3047 4666 
L 3047 1625 
L 3713 1625 
L 3713 1100 
L 3047 1100 
L 3047 0 
L 2419 0 
L 2419 1100 
L 313 1100 
L 313 1709 
L 2253 4666 
z
" transform="scale(0.015625)"/>
      </defs>
      <use xlink:href="#DejaVuSans-30"/>
      <use xlink:href="#DejaVuSans-2e" transform="translate(63.623047 0)"/>
      <use xlink:href="#DejaVuSans-34" transform="translate(95.410156 0)"/>
     </g>
    </g>
   </g>
   <g id="xtick_4">
    <g id="line2d_5">
     <path d="M 132.488945 290.247226 
L 129.675667 291.965712 
" style="fill: none; stroke: #000000; stroke-width: 0.8; stroke-linecap: square"/>
    </g>
    <g id="text_4">
     <!-- 0.6 -->
     <g transform="translate(118.101432 313.208344) scale(0.07 -0.07)">
      <defs>
       <path id="DejaVuSans-36" d="M 2113 2584 
Q 1688 2584 1439 2293 
Q 1191 2003 1191 1497 
Q 1191 994 1439 701 
Q 1688 409 2113 409 
Q 2538 409 2786 701 
Q 3034 994 3034 1497 
Q 3034 2003 2786 2293 
Q 2538 2584 2113 2584 
z
M 3366 4563 
L 3366 3988 
Q 3128 4100 2886 4159 
Q 2644 4219 2406 4219 
Q 1781 4219 1451 3797 
Q 1122 3375 1075 2522 
Q 1259 2794 1537 2939 
Q 1816 3084 2150 3084 
Q 2853 3084 3261 2657 
Q 3669 2231 3669 1497 
Q 3669 778 3244 343 
Q 2819 -91 2113 -91 
Q 1303 -91 875 529 
Q 447 1150 447 2328 
Q 447 3434 972 4092 
Q 1497 4750 2381 4750 
Q 2619 4750 2861 4703 
Q 3103 4656 3366 4563 
z
" transform="scale(0.015625)"/>
      </defs>
      <use xlink:href="#DejaVuSans-30"/>
      <use xlink:href="#DejaVuSans-2e" transform="translate(63.623047 0)"/>
      <use xlink:href="#DejaVuSans-36" transform="translate(95.410156 0)"/>
     </g>
    </g>
   </g>
   <g id="xtick_5">
    <g id="line2d_6">
     <path d="M 161.820365 299.444784 
L 159.037139 301.201467 
" style="fill: none; stroke: #000000; stroke-width: 0.8; stroke-linecap: square"/>
    </g>
    <g id="text_5">
     <!-- 0.8 -->
     <g transform="translate(147.443696 322.635471) scale(0.07 -0.07)">
      <defs>
       <path id="DejaVuSans-38" d="M 2034 2216 
Q 1584 2216 1326 1975 
Q 1069 1734 1069 1313 
Q 1069 891 1326 650 
Q 1584 409 2034 409 
Q 2484 409 2743 651 
Q 3003 894 3003 1313 
Q 3003 1734 2745 1975 
Q 2488 2216 2034 2216 
z
M 1403 2484 
Q 997 2584 770 2862 
Q 544 3141 544 3541 
Q 544 4100 942 4425 
Q 1341 4750 2034 4750 
Q 2731 4750 3128 4425 
Q 3525 4100 3525 3541 
Q 3525 3141 3298 2862 
Q 3072 2584 2669 2484 
Q 3125 2378 3379 2068 
Q 3634 1759 3634 1313 
Q 3634 634 3220 271 
Q 2806 -91 2034 -91 
Q 1263 -91 848 271 
Q 434 634 434 1313 
Q 434 1759 690 2068 
Q 947 2378 1403 2484 
z
M 1172 3481 
Q 1172 3119 1398 2916 
Q 1625 2713 2034 2713 
Q 2441 2713 2670 2916 
Q 2900 3119 2900 3481 
Q 2900 3844 2670 4047 
Q 2441 4250 2034 4250 
Q 1625 4250 1398 4047 
Q 1172 3844 1172 3481 
z
" transform="scale(0.015625)"/>
      </defs>
      <use xlink:href="#DejaVuSans-30"/>
      <use xlink:href="#DejaVuSans-2e" transform="translate(63.623047 0)"/>
      <use xlink:href="#DejaVuSans-38" transform="translate(95.410156 0)"/>
     </g>
    </g>
   </g>
   <g id="xtick_6">
    <g id="line2d_7">
     <path d="M 191.806728 308.847715 
L 189.055608 310.643884 
" style="fill: none; stroke: #000000; stroke-width: 0.8; stroke-linecap: square"/>
    </g>
    <g id="text_6">
     <!-- 1.0 -->
     <g transform="translate(177.443599 332.273884) scale(0.07 -0.07)">
      <defs>
       <path id="DejaVuSans-31" d="M 794 531 
L 1825 531 
L 1825 4091 
L 703 3866 
L 703 4441 
L 1819 4666 
L 2450 4666 
L 2450 531 
L 3481 531 
L 3481 0 
L 794 0 
L 794 531 
z
" transform="scale(0.015625)"/>
      </defs>
      <use xlink:href="#DejaVuSans-31"/>
      <use xlink:href="#DejaVuSans-2e" transform="translate(63.623047 0)"/>
      <use xlink:href="#DejaVuSans-30" transform="translate(95.410156 0)"/>
     </g>
    </g>
   </g>
   <g id="text_7">
    <!-- $\hat{x}$ -->
    <g transform="translate(97.616164 322.05155) rotate(-342.572951) scale(0.1 -0.1)">
     <defs>
      <path id="DejaVuSans-302" d="M -1831 5119 
L -1369 5119 
L -603 3944 
L -1038 3944 
L -1600 4709 
L -2163 3944 
L -2597 3944 
L -1831 5119 
z
M -1600 3584 
L -1600 3584 
z
" transform="scale(0.015625)"/>
      <path id="DejaVuSans-Oblique-78" d="M 3841 3500 
L 2234 1784 
L 3219 0 
L 2559 0 
L 1819 1388 
L 531 0 
L -166 0 
L 1556 1844 
L 641 3500 
L 1300 3500 
L 1972 2234 
L 3144 3500 
L 3841 3500 
z
" transform="scale(0.015625)"/>
     </defs>
     <use xlink:href="#DejaVuSans-302" transform="translate(62.373047 12.015625)"/>
     <use xlink:href="#DejaVuSans-Oblique-78" transform="translate(0 0.828125)"/>
    </g>
   </g>
  </g>
  <g id="axis3d_2">
   <g id="line2d_8">
    <path d="M 303.459214 242.708393 
L 198.495266 311.83258 
" style="fill: none; stroke: #000000; stroke-width: 0.8; stroke-linecap: square"/>
   </g>
   <g id="xtick_7">
    <g id="line2d_9">
     <path d="M 202.326903 308.009956 
L 206.346764 309.264379 
" style="fill: none; stroke: #000000; stroke-width: 0.8; stroke-linecap: square"/>
    </g>
    <g id="text_8">
     <!-- 0.0 -->
     <g transform="translate(209.433628 329.67438) scale(0.07 -0.07)">
      <use xlink:href="#DejaVuSans-30"/>
      <use xlink:href="#DejaVuSans-2e" transform="translate(63.623047 0)"/>
      <use xlink:href="#DejaVuSans-30" transform="translate(95.410156 0)"/>
     </g>
    </g>
   </g>
   <g id="xtick_8">
    <g id="line2d_10">
     <path d="M 222.613674 294.67044 
L 226.599858 295.885807 
" style="fill: none; stroke: #000000; stroke-width: 0.8; stroke-linecap: square"/>
    </g>
    <g id="text_9">
     <!-- 0.2 -->
     <g transform="translate(229.555897 316.055435) scale(0.07 -0.07)">
      <use xlink:href="#DejaVuSans-30"/>
      <use xlink:href="#DejaVuSans-2e" transform="translate(63.623047 0)"/>
      <use xlink:href="#DejaVuSans-32" transform="translate(95.410156 0)"/>
     </g>
    </g>
   </g>
   <g id="xtick_9">
    <g id="line2d_11">
     <path d="M 242.274107 281.742771 
L 246.226759 282.920878 
" style="fill: none; stroke: #000000; stroke-width: 0.8; stroke-linecap: square"/>
    </g>
    <g id="text_10">
     <!-- 0.4 -->
     <g transform="translate(249.055865 302.857669) scale(0.07 -0.07)">
      <use xlink:href="#DejaVuSans-30"/>
      <use xlink:href="#DejaVuSans-2e" transform="translate(63.623047 0)"/>
      <use xlink:href="#DejaVuSans-34" transform="translate(95.410156 0)"/>
     </g>
    </g>
   </g>
   <g id="xtick_10">
    <g id="line2d_12">
     <path d="M 261.336767 269.208166 
L 265.256068 270.3507 
" style="fill: none; stroke: #000000; stroke-width: 0.8; stroke-linecap: square"/>
    </g>
    <g id="text_11">
     <!-- 0.6 -->
     <g transform="translate(267.961961 290.061842) scale(0.07 -0.07)">
      <use xlink:href="#DejaVuSans-30"/>
      <use xlink:href="#DejaVuSans-2e" transform="translate(63.623047 0)"/>
      <use xlink:href="#DejaVuSans-36" transform="translate(95.410156 0)"/>
     </g>
    </g>
   </g>
   <g id="xtick_11">
    <g id="line2d_13">
     <path d="M 279.828509 257.048968 
L 283.714667 258.157516 
" style="fill: none; stroke: #000000; stroke-width: 0.8; stroke-linecap: square"/>
    </g>
    <g id="text_12">
     <!-- 0.8 -->
     <g transform="translate(286.300907 277.649868) scale(0.07 -0.07)">
      <use xlink:href="#DejaVuSans-30"/>
      <use xlink:href="#DejaVuSans-2e" transform="translate(63.623047 0)"/>
      <use xlink:href="#DejaVuSans-38" transform="translate(95.410156 0)"/>
     </g>
    </g>
   </g>
   <g id="xtick_12">
    <g id="line2d_14">
     <path d="M 297.774602 245.248559 
L 301.627852 246.324615 
" style="fill: none; stroke: #000000; stroke-width: 0.8; stroke-linecap: square"/>
    </g>
    <g id="text_13">
     <!-- 1.0 -->
     <g transform="translate(304.097846 265.604729) scale(0.07 -0.07)">
      <use xlink:href="#DejaVuSans-31"/>
      <use xlink:href="#DejaVuSans-2e" transform="translate(63.623047 0)"/>
      <use xlink:href="#DejaVuSans-30" transform="translate(95.410156 0)"/>
     </g>
    </g>
   </g>
   <g id="text_14">
    <!-- $\hat{y}$ -->
    <g transform="translate(274.579001 311.020974) rotate(-33.36697) scale(0.1 -0.1)">
     <defs>
      <path id="DejaVuSans-Oblique-79" d="M 1588 -325 
Q 1188 -997 936 -1164 
Q 684 -1331 294 -1331 
L -159 -1331 
L -63 -850 
L 269 -850 
Q 509 -850 678 -719 
Q 847 -588 1056 -206 
L 1234 128 
L 459 3500 
L 1069 3500 
L 1650 819 
L 3256 3500 
L 3859 3500 
L 1588 -325 
z
" transform="scale(0.015625)"/>
     </defs>
     <use xlink:href="#DejaVuSans-302" transform="translate(62.373047 12.015625)"/>
     <use xlink:href="#DejaVuSans-Oblique-79" transform="translate(0 0.828125)"/>
    </g>
   </g>
  </g>
  <g id="axis3d_3">
   <g id="line2d_15">
    <path d="M 303.459214 242.708393 
L 308.856019 65.827446 
" style="fill: none; stroke: #000000; stroke-width: 0.8; stroke-linecap: square"/>
   </g>
   <g id="xtick_13">
    <g id="line2d_16">
     <path d="M 302.412206 234.622211 
L 306.264578 235.681774 
" style="fill: none; stroke: #000000; stroke-width: 0.8; stroke-linecap: square"/>
    </g>
    <g id="text_15">
     <!-- 0.0 -->
     <g transform="translate(315.619144 239.008556) scale(0.07 -0.07)">
      <use xlink:href="#DejaVuSans-30"/>
      <use xlink:href="#DejaVuSans-2e" transform="translate(63.623047 0)"/>
      <use xlink:href="#DejaVuSans-30" transform="translate(95.410156 0)"/>
     </g>
    </g>
   </g>
   <g id="xtick_14">
    <g id="line2d_17">
     <path d="M 303.354823 203.417603 
L 307.236714 204.442086 
" style="fill: none; stroke: #000000; stroke-width: 0.8; stroke-linecap: square"/>
    </g>
    <g id="text_16">
     <!-- 0.2 -->
     <g transform="translate(316.697809 207.83484) scale(0.07 -0.07)">
      <use xlink:href="#DejaVuSans-30"/>
      <use xlink:href="#DejaVuSans-2e" transform="translate(63.623047 0)"/>
      <use xlink:href="#DejaVuSans-32" transform="translate(95.410156 0)"/>
     </g>
    </g>
   </g>
   <g id="xtick_15">
    <g id="line2d_18">
     <path d="M 304.311334 171.75301 
L 308.223199 172.74126 
" style="fill: none; stroke: #000000; stroke-width: 0.8; stroke-linecap: square"/>
    </g>
    <g id="text_17">
     <!-- 0.4 -->
     <g transform="translate(317.792355 176.202154) scale(0.07 -0.07)">
      <use xlink:href="#DejaVuSans-30"/>
      <use xlink:href="#DejaVuSans-2e" transform="translate(63.623047 0)"/>
      <use xlink:href="#DejaVuSans-34" transform="translate(95.410156 0)"/>
     </g>
    </g>
   </g>
   <g id="xtick_16">
    <g id="line2d_19">
     <path d="M 305.282051 139.618187 
L 309.224355 140.569009 
" style="fill: none; stroke: #000000; stroke-width: 0.8; stroke-linecap: square"/>
    </g>
    <g id="text_18">
     <!-- 0.6 -->
     <g transform="translate(318.903136 144.100287) scale(0.07 -0.07)">
      <use xlink:href="#DejaVuSans-30"/>
      <use xlink:href="#DejaVuSans-2e" transform="translate(63.623047 0)"/>
      <use xlink:href="#DejaVuSans-36" transform="translate(95.410156 0)"/>
     </g>
    </g>
   </g>
   <g id="xtick_17">
    <g id="line2d_20">
     <path d="M 306.26729 107.002579 
L 310.24051 107.914738 
" style="fill: none; stroke: #000000; stroke-width: 0.8; stroke-linecap: square"/>
    </g>
    <g id="text_19">
     <!-- 0.8 -->
     <g transform="translate(320.030515 111.518722) scale(0.07 -0.07)">
      <use xlink:href="#DejaVuSans-30"/>
      <use xlink:href="#DejaVuSans-2e" transform="translate(63.623047 0)"/>
      <use xlink:href="#DejaVuSans-38" transform="translate(95.410156 0)"/>
     </g>
    </g>
   </g>
   <g id="xtick_18">
    <g id="line2d_21">
     <path d="M 307.267381 73.895317 
L 311.272005 74.767533 
" style="fill: none; stroke: #000000; stroke-width: 0.8; stroke-linecap: square"/>
    </g>
    <g id="text_20">
     <!-- 1.0 -->
     <g transform="translate(321.174867 78.446627) scale(0.07 -0.07)">
      <use xlink:href="#DejaVuSans-31"/>
      <use xlink:href="#DejaVuSans-2e" transform="translate(63.623047 0)"/>
      <use xlink:href="#DejaVuSans-30" transform="translate(95.410156 0)"/>
     </g>
    </g>
   </g>
   <g id="text_21">
    <!-- $\hat{z}$ -->
    <g transform="translate(344.338299 156.452136) rotate(-88.252394) scale(0.1 -0.1)">
     <defs>
      <path id="DejaVuSans-Oblique-7a" d="M 744 3500 
L 3475 3500 
L 3372 2975 
L 738 459 
L 2913 459 
L 2822 0 
L -19 0 
L 84 525 
L 2719 3041 
L 653 3041 
L 744 3500 
z
" transform="scale(0.015625)"/>
     </defs>
     <use xlink:href="#DejaVuSans-302" transform="translate(57.700684 12.015625)"/>
     <use xlink:href="#DejaVuSans-Oblique-7a" transform="translate(0 0.828125)"/>
    </g>
   </g>
  </g>
  <g id="axes_1">
   <g id="line2d_22"/>
   <g id="line2d_23"/>
   <g id="Poly3DCollection_1">
    <path d="M 291.997125 235.834822 
L 153.723235 197.603536 
L 153.01189 43.478248 
L 296.467026 74.893528 
z
" clip-path="url(#pbd7d3cd69a)" style="fill: #d0dff0; fill-opacity: 0.12; stroke: #555555; stroke-opacity: 0.12"/>
    <path d="M 52.482365 253.437893 
L 153.723235 197.603536 
L 153.01189 43.478248 
L 47.804072 89.397448 
z
" clip-path="url(#pbd7d3cd69a)" style="fill: #d0dff0; fill-opacity: 0.12; stroke: #555555; stroke-opacity: 0.12"/>
    <path d="M 52.482365 253.437893 
L 196.121255 297.825794 
L 291.997125 235.834822 
L 153.723235 197.603536 
z
" clip-path="url(#pbd7d3cd69a)" style="fill: #d0dff0; fill-opacity: 0.12; stroke: #555555; stroke-opacity: 0.12"/>
    <path d="M 47.804072 89.397448 
L 197.042689 126.080778 
L 296.467026 74.893528 
L 153.01189 43.478248 
z
" clip-path="url(#pbd7d3cd69a)" style="fill: #d0dff0; fill-opacity: 0.12; stroke: #555555; stroke-opacity: 0.12"/>
    <path d="M 196.121255 297.825794 
L 291.997125 235.834822 
L 296.467026 74.893528 
L 197.042689 126.080778 
z
" clip-path="url(#pbd7d3cd69a)" style="fill: #d0dff0; fill-opacity: 0.12; stroke: #555555; stroke-opacity: 0.12"/>
    <path d="M 52.482365 253.437893 
L 196.121255 297.825794 
L 197.042689 126.080778 
L 47.804072 89.397448 
z
" clip-path="url(#pbd7d3cd69a)" style="fill: #d0dff0; fill-opacity: 0.12; stroke: #555555; stroke-opacity: 0.12"/>
   </g>
   <g id="text_22">
    <!-- $\hat{x}_0$ -->
    <g style="fill: #1a5fa8" transform="translate(22.642395 256.32462) scale(0.1 -0.1)">
     <use xlink:href="#DejaVuSans-302" transform="translate(62.373047 12.015625)"/>
     <use xlink:href="#DejaVuSans-Oblique-78" transform="translate(0 0.828125)"/>
     <use xlink:href="#DejaVuSans-30" transform="translate(60.136719 -15.578125) scale(0.7)"/>
    </g>
   </g>
   <g id="text_23">
    <!-- $(0,0,0)$ -->
    <g style="fill: #555555" transform="translate(15.508706 277.895136) scale(0.07 -0.07)">
     <defs>
      <path id="DejaVuSans-28" d="M 1984 4856 
Q 1566 4138 1362 3434 
Q 1159 2731 1159 2009 
Q 1159 1288 1364 580 
Q 1569 -128 1984 -844 
L 1484 -844 
Q 1016 -109 783 600 
Q 550 1309 550 2009 
Q 550 2706 781 3412 
Q 1013 4119 1484 4856 
L 1984 4856 
z
" transform="scale(0.015625)"/>
      <path id="DejaVuSans-2c" d="M 750 794 
L 1409 794 
L 1409 256 
L 897 -744 
L 494 -744 
L 750 256 
L 750 794 
z
" transform="scale(0.015625)"/>
      <path id="DejaVuSans-29" d="M 513 4856 
L 1013 4856 
Q 1481 4119 1714 3412 
Q 1947 2706 1947 2009 
Q 1947 1309 1714 600 
Q 1481 -109 1013 -844 
L 513 -844 
Q 928 -128 1133 580 
Q 1338 1288 1338 2009 
Q 1338 2731 1133 3434 
Q 928 4138 513 4856 
z
" transform="scale(0.015625)"/>
     </defs>
     <use xlink:href="#DejaVuSans-28" transform="translate(0 0.125)"/>
     <use xlink:href="#DejaVuSans-30" transform="translate(39.013672 0.125)"/>
     <use xlink:href="#DejaVuSans-2c" transform="translate(102.636719 0.125)"/>
     <use xlink:href="#DejaVuSans-30" transform="translate(153.90625 0.125)"/>
     <use xlink:href="#DejaVuSans-2c" transform="translate(217.529297 0.125)"/>
     <use xlink:href="#DejaVuSans-30" transform="translate(268.798828 0.125)"/>
     <use xlink:href="#DejaVuSans-29" transform="translate(332.421875 0.125)"/>
    </g>
   </g>
   <g id="text_24">
    <!-- $\hat{x}_1$ -->
    <g style="fill: #1a5fa8" transform="translate(192.505107 309.64956) scale(0.1 -0.1)">
     <use xlink:href="#DejaVuSans-302" transform="translate(62.373047 12.015625)"/>
     <use xlink:href="#DejaVuSans-Oblique-78" transform="translate(0 0.828125)"/>
     <use xlink:href="#DejaVuSans-31" transform="translate(60.136719 -15.578125) scale(0.7)"/>
    </g>
   </g>
   <g id="text_25">
    <!-- $(1,0,0)$ -->
    <g style="fill: #555555" transform="translate(184.798428 331.969973) scale(0.07 -0.07)">
     <use xlink:href="#DejaVuSans-28" transform="translate(0 0.125)"/>
     <use xlink:href="#DejaVuSans-31" transform="translate(39.013672 0.125)"/>
     <use xlink:href="#DejaVuSans-2c" transform="translate(102.636719 0.125)"/>
     <use xlink:href="#DejaVuSans-30" transform="translate(153.90625 0.125)"/>
     <use xlink:href="#DejaVuSans-2c" transform="translate(217.529297 0.125)"/>
     <use xlink:href="#DejaVuSans-30" transform="translate(268.798828 0.125)"/>
     <use xlink:href="#DejaVuSans-29" transform="translate(332.421875 0.125)"/>
    </g>
   </g>
   <g id="text_26">
    <!-- $\hat{x}_2$ -->
    <g style="fill: #1a5fa8" transform="translate(305.202091 235.475475) scale(0.1 -0.1)">
     <use xlink:href="#DejaVuSans-302" transform="translate(62.373047 12.015625)"/>
     <use xlink:href="#DejaVuSans-Oblique-78" transform="translate(0 0.828125)"/>
     <use xlink:href="#DejaVuSans-32" transform="translate(60.136719 -15.578125) scale(0.7)"/>
    </g>
   </g>
   <g id="text_27">
    <!-- $(1,1,0)$ -->
    <g style="fill: #555555" transform="translate(297.1361 256.746253) scale(0.07 -0.07)">
     <use xlink:href="#DejaVuSans-28" transform="translate(0 0.125)"/>
     <use xlink:href="#DejaVuSans-31" transform="translate(39.013672 0.125)"/>
     <use xlink:href="#DejaVuSans-2c" transform="translate(102.636719 0.125)"/>
     <use xlink:href="#DejaVuSans-31" transform="translate(153.90625 0.125)"/>
     <use xlink:href="#DejaVuSans-2c" transform="translate(217.529297 0.125)"/>
     <use xlink:href="#DejaVuSans-30" transform="translate(268.798828 0.125)"/>
     <use xlink:href="#DejaVuSans-29" transform="translate(332.421875 0.125)"/>
    </g>
   </g>
   <g id="text_28">
    <!-- $\hat{x}_3$ -->
    <g style="fill: #1a5fa8" transform="translate(142.781971 190.764182) scale(0.1 -0.1)">
     <defs>
      <path id="DejaVuSans-33" d="M 2597 2516 
Q 3050 2419 3304 2112 
Q 3559 1806 3559 1356 
Q 3559 666 3084 287 
Q 2609 -91 1734 -91 
Q 1441 -91 1130 -33 
Q 819 25 488 141 
L 488 750 
Q 750 597 1062 519 
Q 1375 441 1716 441 
Q 2309 441 2620 675 
Q 2931 909 2931 1356 
Q 2931 1769 2642 2001 
Q 2353 2234 1838 2234 
L 1294 2234 
L 1294 2753 
L 1863 2753 
Q 2328 2753 2575 2939 
Q 2822 3125 2822 3475 
Q 2822 3834 2567 4026 
Q 2313 4219 1838 4219 
Q 1578 4219 1281 4162 
Q 984 4106 628 3988 
L 628 4550 
Q 988 4650 1302 4700 
Q 1616 4750 1894 4750 
Q 2613 4750 3031 4423 
Q 3450 4097 3450 3541 
Q 3450 3153 3228 2886 
Q 3006 2619 2597 2516 
z
" transform="scale(0.015625)"/>
     </defs>
     <use xlink:href="#DejaVuSans-302" transform="translate(62.373047 12.015625)"/>
     <use xlink:href="#DejaVuSans-Oblique-78" transform="translate(0 0.828125)"/>
     <use xlink:href="#DejaVuSans-33" transform="translate(60.136719 -15.578125) scale(0.7)"/>
    </g>
   </g>
   <g id="text_29">
    <!-- $(0,1,0)$ -->
    <g style="fill: #555555" transform="translate(135.239911 211.379763) scale(0.07 -0.07)">
     <use xlink:href="#DejaVuSans-28" transform="translate(0 0.125)"/>
     <use xlink:href="#DejaVuSans-30" transform="translate(39.013672 0.125)"/>
     <use xlink:href="#DejaVuSans-2c" transform="translate(102.636719 0.125)"/>
     <use xlink:href="#DejaVuSans-31" transform="translate(153.90625 0.125)"/>
     <use xlink:href="#DejaVuSans-2c" transform="translate(217.529297 0.125)"/>
     <use xlink:href="#DejaVuSans-30" transform="translate(268.798828 0.125)"/>
     <use xlink:href="#DejaVuSans-29" transform="translate(332.421875 0.125)"/>
    </g>
   </g>
   <g id="text_30">
    <!-- $\hat{x}_4$ -->
    <g style="fill: #c0392b" transform="translate(15.950791 61.320015) scale(0.1 -0.1)">
     <use xlink:href="#DejaVuSans-302" transform="translate(62.373047 12.015625)"/>
     <use xlink:href="#DejaVuSans-Oblique-78" transform="translate(0 0.828125)"/>
     <use xlink:href="#DejaVuSans-34" transform="translate(60.136719 -15.578125) scale(0.7)"/>
    </g>
   </g>
   <g id="text_31">
    <!-- $(0,0,1)$ -->
    <g style="fill: #555555" transform="translate(8.862769 84.221332) scale(0.07 -0.07)">
     <use xlink:href="#DejaVuSans-28" transform="translate(0 0.125)"/>
     <use xlink:href="#DejaVuSans-30" transform="translate(39.013672 0.125)"/>
     <use xlink:href="#DejaVuSans-2c" transform="translate(102.636719 0.125)"/>
     <use xlink:href="#DejaVuSans-30" transform="translate(153.90625 0.125)"/>
     <use xlink:href="#DejaVuSans-2c" transform="translate(217.529297 0.125)"/>
     <use xlink:href="#DejaVuSans-31" transform="translate(268.798828 0.125)"/>
     <use xlink:href="#DejaVuSans-29" transform="translate(332.421875 0.125)"/>
    </g>
   </g>
   <g id="text_32">
    <!-- $\hat{x}_5$ -->
    <g style="fill: #c0392b" transform="translate(193.701736 103.650351) scale(0.1 -0.1)">
     <defs>
      <path id="DejaVuSans-35" d="M 691 4666 
L 3169 4666 
L 3169 4134 
L 1269 4134 
L 1269 2991 
Q 1406 3038 1543 3061 
Q 1681 3084 1819 3084 
Q 2600 3084 3056 2656 
Q 3513 2228 3513 1497 
Q 3513 744 3044 326 
Q 2575 -91 1722 -91 
Q 1428 -91 1123 -41 
Q 819 9 494 109 
L 494 744 
Q 775 591 1075 516 
Q 1375 441 1709 441 
Q 2250 441 2565 725 
Q 2881 1009 2881 1497 
Q 2881 1984 2565 2268 
Q 2250 2553 1709 2553 
Q 1456 2553 1204 2497 
Q 953 2441 691 2322 
L 691 4666 
z
" transform="scale(0.015625)"/>
     </defs>
     <use xlink:href="#DejaVuSans-302" transform="translate(62.373047 12.015625)"/>
     <use xlink:href="#DejaVuSans-Oblique-78" transform="translate(0 0.828125)"/>
     <use xlink:href="#DejaVuSans-35" transform="translate(60.136719 -15.578125) scale(0.7)"/>
    </g>
   </g>
   <g id="text_33">
    <!-- $(1,0,1)$ -->
    <g style="fill: #555555" transform="translate(185.986336 127.471995) scale(0.07 -0.07)">
     <use xlink:href="#DejaVuSans-28" transform="translate(0 0.125)"/>
     <use xlink:href="#DejaVuSans-31" transform="translate(39.013672 0.125)"/>
     <use xlink:href="#DejaVuSans-2c" transform="translate(102.636719 0.125)"/>
     <use xlink:href="#DejaVuSans-30" transform="translate(153.90625 0.125)"/>
     <use xlink:href="#DejaVuSans-2c" transform="translate(217.529297 0.125)"/>
     <use xlink:href="#DejaVuSans-31" transform="translate(268.798828 0.125)"/>
     <use xlink:href="#DejaVuSans-29" transform="translate(332.421875 0.125)"/>
    </g>
   </g>
   <g id="text_34">
    <!-- $\hat{x}_6$ -->
    <g style="fill: #c0392b" transform="translate(311.331023 44.839941) scale(0.1 -0.1)">
     <use xlink:href="#DejaVuSans-302" transform="translate(62.373047 12.015625)"/>
     <use xlink:href="#DejaVuSans-Oblique-78" transform="translate(0 0.828125)"/>
     <use xlink:href="#DejaVuSans-36" transform="translate(60.136719 -15.578125) scale(0.7)"/>
    </g>
   </g>
   <g id="text_35">
    <!-- $(1,1,1)$ -->
    <g style="fill: #555555" transform="translate(303.224313 67.377247) scale(0.07 -0.07)">
     <use xlink:href="#DejaVuSans-28" transform="translate(0 0.125)"/>
     <use xlink:href="#DejaVuSans-31" transform="translate(39.013672 0.125)"/>
     <use xlink:href="#DejaVuSans-2c" transform="translate(102.636719 0.125)"/>
     <use xlink:href="#DejaVuSans-31" transform="translate(153.90625 0.125)"/>
     <use xlink:href="#DejaVuSans-2c" transform="translate(217.529297 0.125)"/>
     <use xlink:href="#DejaVuSans-31" transform="translate(268.798828 0.125)"/>
     <use xlink:href="#DejaVuSans-29" transform="translate(332.421875 0.125)"/>
    </g>
   </g>
   <g id="text_36">
    <!-- $\hat{x}_7$ -->
    <g style="fill: #c0392b" transform="translate(141.713841 9.630659) scale(0.1 -0.1)">
     <defs>
      <path id="DejaVuSans-37" d="M 525 4666 
L 3525 4666 
L 3525 4397 
L 1831 0 
L 1172 0 
L 2766 4134 
L 525 4134 
L 525 4666 
z
" transform="scale(0.015625)"/>
     </defs>
     <use xlink:href="#DejaVuSans-302" transform="translate(62.373047 12.015625)"/>
     <use xlink:href="#DejaVuSans-Oblique-78" transform="translate(0 0.828125)"/>
     <use xlink:href="#DejaVuSans-37" transform="translate(60.136719 -15.578125) scale(0.7)"/>
    </g>
   </g>
   <g id="text_37">
    <!-- $(0,1,1)$ -->
    <g style="fill: #555555" transform="translate(134.178464 31.379535) scale(0.07 -0.07)">
     <use xlink:href="#DejaVuSans-28" transform="translate(0 0.125)"/>
     <use xlink:href="#DejaVuSans-30" transform="translate(39.013672 0.125)"/>
     <use xlink:href="#DejaVuSans-2c" transform="translate(102.636719 0.125)"/>
     <use xlink:href="#DejaVuSans-31" transform="translate(153.90625 0.125)"/>
     <use xlink:href="#DejaVuSans-2c" transform="translate(217.529297 0.125)"/>
     <use xlink:href="#DejaVuSans-31" transform="translate(268.798828 0.125)"/>
     <use xlink:href="#DejaVuSans-29" transform="translate(332.421875 0.125)"/>
    </g>
   </g>
   <g id="Path3DCollection_1">
    <defs>
     <path id="C0_0_0dfea71c5d" d="M 0 3.872983 
C 1.027127 3.872983 2.012324 3.464901 2.738613 2.738613 
C 3.464901 2.012324 3.872983 1.027127 3.872983 -0 
C 3.872983 -1.027127 3.464901 -2.012324 2.738613 -2.738613 
C 2.012324 -3.464901 1.027127 -3.872983 0 -3.872983 
C -1.027127 -3.872983 -2.012324 -3.464901 -2.738613 -2.738613 
C -3.464901 -2.012324 -3.872983 -1.027127 -3.872983 0 
C -3.872983 1.027127 -3.464901 2.012324 -2.738613 2.738613 
C -2.012324 3.464901 -1.027127 3.872983 0 3.872983 
z
"/>
    </defs>
    <g clip-path="url(#pbd7d3cd69a)">
     <use xlink:href="#C0_0_0dfea71c5d" x="153.723235" y="197.603536" style="fill: #1a5fa8; fill-opacity: 0.3; stroke: #1a5fa8; stroke-opacity: 0.3"/>
    </g>
    <g clip-path="url(#pbd7d3cd69a)">
     <use xlink:href="#C0_0_0dfea71c5d" x="153.01189" y="43.478248" style="fill: #c0392b; fill-opacity: 0.437966; stroke: #c0392b; stroke-opacity: 0.437966"/>
    </g>
    <g clip-path="url(#pbd7d3cd69a)">
     <use xlink:href="#C0_0_0dfea71c5d" x="291.997125" y="235.834822" style="fill: #1a5fa8; fill-opacity: 0.498853; stroke: #1a5fa8; stroke-opacity: 0.498853"/>
    </g>
    <g clip-path="url(#pbd7d3cd69a)">
     <use xlink:href="#C0_0_0dfea71c5d" x="52.482365" y="253.437893" style="fill: #1a5fa8; fill-opacity: 0.590412; stroke: #1a5fa8; stroke-opacity: 0.590412"/>
    </g>
    <g clip-path="url(#pbd7d3cd69a)">
     <use xlink:href="#C0_0_0dfea71c5d" x="296.467026" y="74.893528" style="fill: #c0392b; fill-opacity: 0.651718; stroke: #c0392b; stroke-opacity: 0.651718"/>
    </g>
    <g clip-path="url(#pbd7d3cd69a)">
     <use xlink:href="#C0_0_0dfea71c5d" x="47.804072" y="89.397448" style="fill: #c0392b; fill-opacity: 0.750404; stroke: #c0392b; stroke-opacity: 0.750404"/>
    </g>
    <g clip-path="url(#pbd7d3cd69a)">
     <use xlink:href="#C0_0_0dfea71c5d" x="196.121255" y="297.825794" style="fill: #1a5fa8; fill-opacity: 0.821287; stroke: #1a5fa8; stroke-opacity: 0.821287"/>
    </g>
    <g clip-path="url(#pbd7d3cd69a)">
     <use xlink:href="#C0_0_0dfea71c5d" x="197.042689" y="126.080778" style="fill: #c0392b; stroke: #c0392b"/>
    </g>
   </g>
   <g id="legend_1">
    <g id="line2d_24">
     <defs>
      <path id="ma2e2f9168c" d="M 0 3 
C 0.795609 3 1.55874 2.683901 2.12132 2.12132 
C 2.683901 1.55874 3 0.795609 3 0 
C 3 -0.795609 2.683901 -1.55874 2.12132 -2.12132 
C 1.55874 -2.683901 0.795609 -3 0 -3 
C -0.795609 -3 -1.55874 -2.683901 -2.12132 -2.12132 
C -2.683901 -1.55874 -3 -0.795609 -3 0 
C -3 0.795609 -2.683901 1.55874 -2.12132 2.12132 
C -1.55874 2.683901 -0.795609 3 0 3 
z
" style="stroke: #1a5fa8"/>
     </defs>
     <g>
      <use xlink:href="#ma2e2f9168c" x="24.3" y="18.988594" style="fill: #1a5fa8; stroke: #1a5fa8"/>
     </g>
    </g>
    <g id="text_38">
     <!-- bottom face -->
     <g transform="translate(40.5 22.138594) scale(0.09 -0.09)">
      <defs>
       <path id="DejaVuSans-62" d="M 3116 1747 
Q 3116 2381 2855 2742 
Q 2594 3103 2138 3103 
Q 1681 3103 1420 2742 
Q 1159 2381 1159 1747 
Q 1159 1113 1420 752 
Q 1681 391 2138 391 
Q 2594 391 2855 752 
Q 3116 1113 3116 1747 
z
M 1159 2969 
Q 1341 3281 1617 3432 
Q 1894 3584 2278 3584 
Q 2916 3584 3314 3078 
Q 3713 2572 3713 1747 
Q 3713 922 3314 415 
Q 2916 -91 2278 -91 
Q 1894 -91 1617 61 
Q 1341 213 1159 525 
L 1159 0 
L 581 0 
L 581 4863 
L 1159 4863 
L 1159 2969 
z
" transform="scale(0.015625)"/>
       <path id="DejaVuSans-6f" d="M 1959 3097 
Q 1497 3097 1228 2736 
Q 959 2375 959 1747 
Q 959 1119 1226 758 
Q 1494 397 1959 397 
Q 2419 397 2687 759 
Q 2956 1122 2956 1747 
Q 2956 2369 2687 2733 
Q 2419 3097 1959 3097 
z
M 1959 3584 
Q 2709 3584 3137 3096 
Q 3566 2609 3566 1747 
Q 3566 888 3137 398 
Q 2709 -91 1959 -91 
Q 1206 -91 779 398 
Q 353 888 353 1747 
Q 353 2609 779 3096 
Q 1206 3584 1959 3584 
z
" transform="scale(0.015625)"/>
       <path id="DejaVuSans-74" d="M 1172 4494 
L 1172 3500 
L 2356 3500 
L 2356 3053 
L 1172 3053 
L 1172 1153 
Q 1172 725 1289 603 
Q 1406 481 1766 481 
L 2356 481 
L 2356 0 
L 1766 0 
Q 1100 0 847 248 
Q 594 497 594 1153 
L 594 3053 
L 172 3053 
L 172 3500 
L 594 3500 
L 594 4494 
L 1172 4494 
z
" transform="scale(0.015625)"/>
       <path id="DejaVuSans-6d" d="M 3328 2828 
Q 3544 3216 3844 3400 
Q 4144 3584 4550 3584 
Q 5097 3584 5394 3201 
Q 5691 2819 5691 2113 
L 5691 0 
L 5113 0 
L 5113 2094 
Q 5113 2597 4934 2840 
Q 4756 3084 4391 3084 
Q 3944 3084 3684 2787 
Q 3425 2491 3425 1978 
L 3425 0 
L 2847 0 
L 2847 2094 
Q 2847 2600 2669 2842 
Q 2491 3084 2119 3084 
Q 1678 3084 1418 2786 
Q 1159 2488 1159 1978 
L 1159 0 
L 581 0 
L 581 3500 
L 1159 3500 
L 1159 2956 
Q 1356 3278 1631 3431 
Q 1906 3584 2284 3584 
Q 2666 3584 2933 3390 
Q 3200 3197 3328 2828 
z
" transform="scale(0.015625)"/>
       <path id="DejaVuSans-20" transform="scale(0.015625)"/>
       <path id="DejaVuSans-66" d="M 2375 4863 
L 2375 4384 
L 1825 4384 
Q 1516 4384 1395 4259 
Q 1275 4134 1275 3809 
L 1275 3500 
L 2222 3500 
L 2222 3053 
L 1275 3053 
L 1275 0 
L 697 0 
L 697 3053 
L 147 3053 
L 147 3500 
L 697 3500 
L 697 3744 
Q 697 4328 969 4595 
Q 1241 4863 1831 4863 
L 2375 4863 
z
" transform="scale(0.015625)"/>
       <path id="DejaVuSans-61" d="M 2194 1759 
Q 1497 1759 1228 1600 
Q 959 1441 959 1056 
Q 959 750 1161 570 
Q 1363 391 1709 391 
Q 2188 391 2477 730 
Q 2766 1069 2766 1631 
L 2766 1759 
L 2194 1759 
z
M 3341 1997 
L 3341 0 
L 2766 0 
L 2766 531 
Q 2569 213 2275 61 
Q 1981 -91 1556 -91 
Q 1019 -91 701 211 
Q 384 513 384 1019 
Q 384 1609 779 1909 
Q 1175 2209 1959 2209 
L 2766 2209 
L 2766 2266 
Q 2766 2663 2505 2880 
Q 2244 3097 1772 3097 
Q 1472 3097 1187 3025 
Q 903 2953 641 2809 
L 641 3341 
Q 956 3463 1253 3523 
Q 1550 3584 1831 3584 
Q 2591 3584 2966 3190 
Q 3341 2797 3341 1997 
z
" transform="scale(0.015625)"/>
       <path id="DejaVuSans-63" d="M 3122 3366 
L 3122 2828 
Q 2878 2963 2633 3030 
Q 2388 3097 2138 3097 
Q 1578 3097 1268 2742 
Q 959 2388 959 1747 
Q 959 1106 1268 751 
Q 1578 397 2138 397 
Q 2388 397 2633 464 
Q 2878 531 3122 666 
L 3122 134 
Q 2881 22 2623 -34 
Q 2366 -91 2075 -91 
Q 1284 -91 818 406 
Q 353 903 353 1747 
Q 353 2603 823 3093 
Q 1294 3584 2113 3584 
Q 2378 3584 2631 3529 
Q 2884 3475 3122 3366 
z
" transform="scale(0.015625)"/>
       <path id="DejaVuSans-65" d="M 3597 1894 
L 3597 1613 
L 953 1613 
Q 991 1019 1311 708 
Q 1631 397 2203 397 
Q 2534 397 2845 478 
Q 3156 559 3463 722 
L 3463 178 
Q 3153 47 2828 -22 
Q 2503 -91 2169 -91 
Q 1331 -91 842 396 
Q 353 884 353 1716 
Q 353 2575 817 3079 
Q 1281 3584 2069 3584 
Q 2775 3584 3186 3129 
Q 3597 2675 3597 1894 
z
M 3022 2063 
Q 3016 2534 2758 2815 
Q 2500 3097 2075 3097 
Q 1594 3097 1305 2825 
Q 1016 2553 972 2059 
L 3022 2063 
z
" transform="scale(0.015625)"/>
      </defs>
      <use xlink:href="#DejaVuSans-62"/>
      <use xlink:href="#DejaVuSans-6f" transform="translate(63.476562 0)"/>
      <use xlink:href="#DejaVuSans-74" transform="translate(124.658203 0)"/>
      <use xlink:href="#DejaVuSans-74" transform="translate(163.867188 0)"/>
      <use xlink:href="#DejaVuSans-6f" transform="translate(203.076172 0)"/>
      <use xlink:href="#DejaVuSans-6d" transform="translate(264.257812 0)"/>
      <use xlink:href="#DejaVuSans-20" transform="translate(361.669922 0)"/>
      <use xlink:href="#DejaVuSans-66" transform="translate(393.457031 0)"/>
      <use xlink:href="#DejaVuSans-61" transform="translate(428.662109 0)"/>
      <use xlink:href="#DejaVuSans-63" transform="translate(489.941406 0)"/>
      <use xlink:href="#DejaVuSans-65" transform="translate(544.921875 0)"/>
     </g>
    </g>
    <g id="line2d_25">
     <defs>
      <path id="madef5840d3" d="M 0 3 
C 0.795609 3 1.55874 2.683901 2.12132 2.12132 
C 2.683901 1.55874 3 0.795609 3 0 
C 3 -0.795609 2.683901 -1.55874 2.12132 -2.12132 
C 1.55874 -2.683901 0.795609 -3 0 -3 
C -0.795609 -3 -1.55874 -2.683901 -2.12132 -2.12132 
C -2.683901 -1.55874 -3 -0.795609 -3 0 
C -3 0.795609 -2.683901 1.55874 -2.12132 2.12132 
C -1.55874 2.683901 -0.795609 3 0 3 
z
" style="stroke: #c0392b"/>
     </defs>
     <g>
      <use xlink:href="#madef5840d3" x="24.3" y="32.198906" style="fill: #c0392b; stroke: #c0392b"/>
     </g>
    </g>
    <g id="text_39">
     <!-- top face -->
     <g transform="translate(40.5 35.348906) scale(0.09 -0.09)">
      <defs>
       <path id="DejaVuSans-70" d="M 1159 525 
L 1159 -1331 
L 581 -1331 
L 581 3500 
L 1159 3500 
L 1159 2969 
Q 1341 3281 1617 3432 
Q 1894 3584 2278 3584 
Q 2916 3584 3314 3078 
Q 3713 2572 3713 1747 
Q 3713 922 3314 415 
Q 2916 -91 2278 -91 
Q 1894 -91 1617 61 
Q 1341 213 1159 525 
z
M 3116 1747 
Q 3116 2381 2855 2742 
Q 2594 3103 2138 3103 
Q 1681 3103 1420 2742 
Q 1159 2381 1159 1747 
Q 1159 1113 1420 752 
Q 1681 391 2138 391 
Q 2594 391 2855 752 
Q 3116 1113 3116 1747 
z
" transform="scale(0.015625)"/>
      </defs>
      <use xlink:href="#DejaVuSans-74"/>
      <use xlink:href="#DejaVuSans-6f" transform="translate(39.208984 0)"/>
      <use xlink:href="#DejaVuSans-70" transform="translate(100.390625 0)"/>
      <use xlink:href="#DejaVuSans-20" transform="translate(163.867188 0)"/>
      <use xlink:href="#DejaVuSans-66" transform="translate(195.654297 0)"/>
      <use xlink:href="#DejaVuSans-61" transform="translate(230.859375 0)"/>
      <use xlink:href="#DejaVuSans-63" transform="translate(292.138672 0)"/>
      <use xlink:href="#DejaVuSans-65" transform="translate(347.119141 0)"/>
     </g>
    </g>
   </g>
  </g>
 </g>
 <defs>
  <clipPath id="pbd7d3cd69a">
   <rect x="7.2" y="7.2" width="324" height="324"/>
  </clipPath>
 </defs>
</svg>
