<?xml version="1.0" encoding="utf-8" standalone="no"?>
<!DOCTYPE svg PUBLIC "-//W3C//DTD SVG 1.1//EN"
  "http://www.w3.org/Graphics/SVG/1.1/DTD/svg11.dtd">
<svg xmlns:xlink="http://www.w3.org/1999/xlink" width="302.52pt" height="316.878281pt" viewBox="0 0 302.52 316.878281" xmlns="http://www.w3.org/2000/svg" version="1.1">
 <metadata>
  <rdf:RDF xmlns:dc="http://purl.org/dc/elements/1.1/" xmlns:cc="http://creativecommons.org/ns#" xmlns:rdf="http://www.w3.org/1999/02/22-rdf-syntax-ns#">
   <cc:Work>
    <dc:type rdf:resource="http://purl.org/dc/dcmitype/StillImage"/>
    <dc:date>2026-03-13T11:31:28.424951</dc:date>
    <dc:format>image/svg+xml</dc:format>
    <dc:creator>
     <cc:Agent>
      <dc:title>Matplotlib v3.10.8, https://matplotlib.org/</dc:title>
     </cc:Agent>
    </dc:creator>
   </cc:Work>
  </rdf:RDF>
 </metadata>
 <defs>
  <style type="text/css">*{stroke-linejoin: round; stroke-linecap: butt}</style>
 </defs>
 <g id="figure_1">
  <g id="patch_1">
   <path d="M -0 316.878281 
L 302.52 316.878281 
L 302.52 0 
L -0 0 
z
" style="fill: #ffffff"/>
  </g>
  <g id="patch_2">
   <path d="M 7.2 309.678281 
L 295.32 309.678281 
L 295.32 21.558281 
L 7.2 21.558281 
z
" style="fill: #ffffff"/>
  </g>
  <g id="pane3d_1">
   <g id="patch_3">
    <path d="M 271.749484 250.432363 
L 215.673286 190.381765 
L 217.255217 65.840923 
L 275.149465 113.247633 
" style="fill: #f2f2f2; opacity: 0.5; stroke: #f2f2f2; stroke-linejoin: miter"/>
   </g>
  </g>
  <g id="pane3d_2">
   <g id="patch_4">
    <path d="M 47.415367 205.249875 
L 215.673286 190.381765 
L 217.255217 65.840923 
L 44.518775 77.552549 
" style="fill: #e6e6e6; opacity: 0.5; stroke: #e6e6e6; stroke-linejoin: miter"/>
   </g>
  </g>
  <g id="pane3d_3">
   <g id="patch_5">
    <path d="M 85.748168 268.885296 
L 271.749484 250.432363 
L 215.673286 190.381765 
L 47.415367 205.249875 
" style="fill: #ececec; opacity: 0.5; stroke: #ececec; stroke-linejoin: miter"/>
   </g>
  </g>
  <g id="grid3d_1">
   <g id="Line3DCollection_1">
    <path d="M 85.748168 268.885296 
L 47.415367 205.249875 
L 44.518775 77.552549 
" style="fill: none; stroke: #b0b0b0; stroke-width: 0.8"/>
    <path d="M 123.866104 265.103668 
L 81.811411 202.210468 
L 79.850771 75.15702 
" style="fill: none; stroke: #b0b0b0; stroke-width: 0.8"/>
    <path d="M 161.516767 261.368398 
L 115.829083 199.204497 
L 114.783766 72.788544 
" style="fill: none; stroke: #b0b0b0; stroke-width: 0.8"/>
    <path d="M 198.708696 257.678638 
L 149.474592 196.231412 
L 149.324483 70.446664 
" style="fill: none; stroke: #b0b0b0; stroke-width: 0.8"/>
    <path d="M 235.450224 254.033562 
L 182.754012 193.290677 
L 183.479492 68.130936 
" style="fill: none; stroke: #b0b0b0; stroke-width: 0.8"/>
    <path d="M 271.749484 250.432363 
L 215.673286 190.381765 
L 217.255217 65.840923 
" style="fill: none; stroke: #b0b0b0; stroke-width: 0.8"/>
   </g>
  </g>
  <g id="grid3d_2">
   <g id="Line3DCollection_2">
    <path d="M 275.149465 113.247633 
L 271.749484 250.432363 
L 85.748168 268.885296 
" style="fill: none; stroke: #b0b0b0; stroke-width: 0.8"/>
    <path d="M 262.524138 102.909384 
L 259.548719 237.366869 
L 77.387489 255.005921 
" style="fill: none; stroke: #b0b0b0; stroke-width: 0.8"/>
    <path d="M 250.456734 93.027989 
L 247.872494 224.863092 
L 69.396914 241.740948 
" style="fill: none; stroke: #b0b0b0; stroke-width: 0.8"/>
    <path d="M 238.911069 83.573819 
L 236.687695 212.88557 
L 61.752401 229.050463 
" style="fill: none; stroke: #b0b0b0; stroke-width: 0.8"/>
    <path d="M 227.854021 74.519755 
L 225.963935 201.401765 
L 54.431945 216.897938 
" style="fill: none; stroke: #b0b0b0; stroke-width: 0.8"/>
    <path d="M 217.255217 65.840923 
L 215.673286 190.381765 
L 47.415367 205.249875 
" style="fill: none; stroke: #b0b0b0; stroke-width: 0.8"/>
   </g>
  </g>
  <g id="grid3d_3">
   <g id="Line3DCollection_3">
    <path d="M 47.415367 205.249875 
L 215.673286 190.381765 
L 271.749484 250.432363 
" style="fill: none; stroke: #b0b0b0; stroke-width: 0.8"/>
    <path d="M 46.848247 180.248156 
L 215.983191 165.98379 
L 272.413978 223.620883 
" style="fill: none; stroke: #b0b0b0; stroke-width: 0.8"/>
    <path d="M 46.275124 154.981833 
L 216.296287 141.334657 
L 273.086091 196.502047 
" style="fill: none; stroke: #b0b0b0; stroke-width: 0.8"/>
    <path d="M 45.695904 129.446681 
L 216.612623 116.430468 
L 273.765952 169.070541 
" style="fill: none; stroke: #b0b0b0; stroke-width: 0.8"/>
    <path d="M 45.110487 103.638389 
L 216.932249 91.267244 
L 274.453697 141.320925 
" style="fill: none; stroke: #b0b0b0; stroke-width: 0.8"/>
    <path d="M 44.518775 77.552549 
L 217.255217 65.840923 
L 275.149465 113.247633 
" style="fill: none; stroke: #b0b0b0; stroke-width: 0.8"/>
   </g>
  </g>
  <g id="axis3d_1">
   <g id="line2d_1">
    <path d="M 271.749484 250.432363 
L 85.748168 268.885296 
" style="fill: none; stroke: #000000; stroke-width: 0.8; stroke-linecap: square"/>
   </g>
   <g id="xtick_1">
    <g id="line2d_2">
     <path d="M 85.406312 268.31779 
L 86.433782 270.023469 
" style="fill: none; stroke: #000000; stroke-width: 0.8; stroke-linecap: square"/>
    </g>
    <g id="text_1">
     <!-- 0.0 -->
     <g transform="translate(81.979513 282.545555) scale(0.07 -0.07)">
      <defs>
       <path id="DejaVuSans-30" d="M 2034 4250 
Q 1547 4250 1301 3770 
Q 1056 3291 1056 2328 
Q 1056 1369 1301 889 
Q 1547 409 2034 409 
Q 2525 409 2770 889 
Q 3016 1369 3016 2328 
Q 3016 3291 2770 3770 
Q 2525 4250 2034 4250 
z
M 2034 4750 
Q 2819 4750 3233 4129 
Q 3647 3509 3647 2328 
Q 3647 1150 3233 529 
Q 2819 -91 2034 -91 
Q 1250 -91 836 529 
Q 422 1150 422 2328 
Q 422 3509 836 4129 
Q 1250 4750 2034 4750 
z
" transform="scale(0.015625)"/>
       <path id="DejaVuSans-2e" d="M 684 794 
L 1344 794 
L 1344 0 
L 684 0 
L 684 794 
z
" transform="scale(0.015625)"/>
      </defs>
      <use xlink:href="#DejaVuSans-30"/>
      <use xlink:href="#DejaVuSans-2e" transform="translate(63.623047 0)"/>
      <use xlink:href="#DejaVuSans-30" transform="translate(95.410156 0)"/>
     </g>
    </g>
   </g>
   <g id="xtick_2">
    <g id="line2d_3">
     <path d="M 123.491295 264.543137 
L 124.617798 266.227833 
" style="fill: none; stroke: #000000; stroke-width: 0.8; stroke-linecap: square"/>
    </g>
    <g id="text_2">
     <!-- 0.2 -->
     <g transform="translate(120.217921 278.699252) scale(0.07 -0.07)">
      <defs>
       <path id="DejaVuSans-32" d="M 1228 531 
L 3431 531 
L 3431 0 
L 469 0 
L 469 531 
Q 828 903 1448 1529 
Q 2069 2156 2228 2338 
Q 2531 2678 2651 2914 
Q 2772 3150 2772 3378 
Q 2772 3750 2511 3984 
Q 2250 4219 1831 4219 
Q 1534 4219 1204 4116 
Q 875 4013 500 3803 
L 500 4441 
Q 881 4594 1212 4672 
Q 1544 4750 1819 4750 
Q 2544 4750 2975 4387 
Q 3406 4025 3406 3419 
Q 3406 3131 3298 2873 
Q 3191 2616 2906 2266 
Q 2828 2175 2409 1742 
Q 1991 1309 1228 531 
z
" transform="scale(0.015625)"/>
      </defs>
      <use xlink:href="#DejaVuSans-30"/>
      <use xlink:href="#DejaVuSans-2e" transform="translate(63.623047 0)"/>
      <use xlink:href="#DejaVuSans-32" transform="translate(95.410156 0)"/>
     </g>
    </g>
   </g>
   <g id="xtick_3">
    <g id="line2d_4">
     <path d="M 161.109834 260.814714 
L 162.332872 262.478812 
" style="fill: none; stroke: #000000; stroke-width: 0.8; stroke-linecap: square"/>
    </g>
    <g id="text_3">
     <!-- 0.4 -->
     <g transform="translate(157.985971 274.900261) scale(0.07 -0.07)">
      <defs>
       <path id="DejaVuSans-34" d="M 2419 4116 
L 825 1625 
L 2419 1625 
L 2419 4116 
z
M 2253 4666 
L 3047 4666 
L 3047 1625 
L 3713 1625 
L 3713 1100 
L 3047 1100 
L 3047 0 
L 2419 0 
L 2419 1100 
L 313 1100 
L 313 1709 
L 2253 4666 
z
" transform="scale(0.015625)"/>
      </defs>
      <use xlink:href="#DejaVuSans-30"/>
      <use xlink:href="#DejaVuSans-2e" transform="translate(63.623047 0)"/>
      <use xlink:href="#DejaVuSans-34" transform="translate(95.410156 0)"/>
     </g>
    </g>
   </g>
   <g id="xtick_4">
    <g id="line2d_5">
     <path d="M 198.270447 257.131676 
L 199.58759 258.775552 
" style="fill: none; stroke: #000000; stroke-width: 0.8; stroke-linecap: square"/>
    </g>
    <g id="text_4">
     <!-- 0.6 -->
     <g transform="translate(195.292287 271.147715) scale(0.07 -0.07)">
      <defs>
       <path id="DejaVuSans-36" d="M 2113 2584 
Q 1688 2584 1439 2293 
Q 1191 2003 1191 1497 
Q 1191 994 1439 701 
Q 1688 409 2113 409 
Q 2538 409 2786 701 
Q 3034 994 3034 1497 
Q 3034 2003 2786 2293 
Q 2538 2584 2113 2584 
z
M 3366 4563 
L 3366 3988 
Q 3128 4100 2886 4159 
Q 2644 4219 2406 4219 
Q 1781 4219 1451 3797 
Q 1122 3375 1075 2522 
Q 1259 2794 1537 2939 
Q 1816 3084 2150 3084 
Q 2853 3084 3261 2657 
Q 3669 2231 3669 1497 
Q 3669 778 3244 343 
Q 2819 -91 2113 -91 
Q 1303 -91 875 529 
Q 447 1150 447 2328 
Q 447 3434 972 4092 
Q 1497 4750 2381 4750 
Q 2619 4750 2861 4703 
Q 3103 4656 3366 4563 
z
" transform="scale(0.015625)"/>
      </defs>
      <use xlink:href="#DejaVuSans-30"/>
      <use xlink:href="#DejaVuSans-2e" transform="translate(63.623047 0)"/>
      <use xlink:href="#DejaVuSans-36" transform="translate(95.410156 0)"/>
     </g>
    </g>
   </g>
   <g id="xtick_5">
    <g id="line2d_6">
     <path d="M 234.981445 253.493201 
L 236.390329 255.11722 
" style="fill: none; stroke: #000000; stroke-width: 0.8; stroke-linecap: square"/>
    </g>
    <g id="text_5">
     <!-- 0.8 -->
     <g transform="translate(232.145286 267.440767) scale(0.07 -0.07)">
      <defs>
       <path id="DejaVuSans-38" d="M 2034 2216 
Q 1584 2216 1326 1975 
Q 1069 1734 1069 1313 
Q 1069 891 1326 650 
Q 1584 409 2034 409 
Q 2484 409 2743 651 
Q 3003 894 3003 1313 
Q 3003 1734 2745 1975 
Q 2488 2216 2034 2216 
z
M 1403 2484 
Q 997 2584 770 2862 
Q 544 3141 544 3541 
Q 544 4100 942 4425 
Q 1341 4750 2034 4750 
Q 2731 4750 3128 4425 
Q 3525 4100 3525 3541 
Q 3525 3141 3298 2862 
Q 3072 2584 2669 2484 
Q 3125 2378 3379 2068 
Q 3634 1759 3634 1313 
Q 3634 634 3220 271 
Q 2806 -91 2034 -91 
Q 1263 -91 848 271 
Q 434 634 434 1313 
Q 434 1759 690 2068 
Q 947 2378 1403 2484 
z
M 1172 3481 
Q 1172 3119 1398 2916 
Q 1625 2713 2034 2713 
Q 2441 2713 2670 2916 
Q 2900 3119 2900 3481 
Q 2900 3844 2670 4047 
Q 2441 4250 2034 4250 
Q 1625 4250 1398 4047 
Q 1172 3844 1172 3481 
z
" transform="scale(0.015625)"/>
      </defs>
      <use xlink:href="#DejaVuSans-30"/>
      <use xlink:href="#DejaVuSans-2e" transform="translate(63.623047 0)"/>
      <use xlink:href="#DejaVuSans-38" transform="translate(95.410156 0)"/>
     </g>
    </g>
   </g>
   <g id="xtick_6">
    <g id="line2d_7">
     <path d="M 271.250939 249.898483 
L 272.749266 251.503004 
" style="fill: none; stroke: #000000; stroke-width: 0.8; stroke-linecap: square"/>
    </g>
    <g id="text_6">
     <!-- 1.0 -->
     <g transform="translate(268.55318 263.778591) scale(0.07 -0.07)">
      <defs>
       <path id="DejaVuSans-31" d="M 794 531 
L 1825 531 
L 1825 4091 
L 703 3866 
L 703 4441 
L 1819 4666 
L 2450 4666 
L 2450 531 
L 3481 531 
L 3481 0 
L 794 0 
L 794 531 
z
" transform="scale(0.015625)"/>
      </defs>
      <use xlink:href="#DejaVuSans-31"/>
      <use xlink:href="#DejaVuSans-2e" transform="translate(63.623047 0)"/>
      <use xlink:href="#DejaVuSans-30" transform="translate(95.410156 0)"/>
     </g>
    </g>
   </g>
   <g id="text_7">
    <!-- x -->
    <g transform="translate(183.473303 285.328373) scale(0.09 -0.09)">
     <defs>
      <path id="DejaVuSans-78" d="M 3513 3500 
L 2247 1797 
L 3578 0 
L 2900 0 
L 1881 1375 
L 863 0 
L 184 0 
L 1544 1831 
L 300 3500 
L 978 3500 
L 1906 2253 
L 2834 3500 
L 3513 3500 
z
" transform="scale(0.015625)"/>
     </defs>
     <use xlink:href="#DejaVuSans-78"/>
    </g>
   </g>
  </g>
  <g id="axis3d_2">
   <g id="line2d_8">
    <path d="M 47.415367 205.249875 
L 85.748168 268.885296 
" style="fill: none; stroke: #000000; stroke-width: 0.8; stroke-linecap: square"/>
   </g>
   <g id="xtick_7">
    <g id="line2d_9">
     <path d="M 87.281966 268.73313 
L 82.678286 269.189855 
" style="fill: none; stroke: #000000; stroke-width: 0.8; stroke-linecap: square"/>
    </g>
    <g id="text_8">
     <!-- 0.0 -->
     <g transform="translate(72.594892 280.438855) scale(0.07 -0.07)">
      <use xlink:href="#DejaVuSans-30"/>
      <use xlink:href="#DejaVuSans-2e" transform="translate(63.623047 0)"/>
      <use xlink:href="#DejaVuSans-30" transform="translate(95.410156 0)"/>
     </g>
    </g>
   </g>
   <g id="xtick_8">
    <g id="line2d_10">
     <path d="M 78.888606 254.860564 
L 74.383068 255.296845 
" style="fill: none; stroke: #000000; stroke-width: 0.8; stroke-linecap: square"/>
    </g>
    <g id="text_9">
     <!-- 0.2 -->
     <g transform="translate(64.405366 266.417366) scale(0.07 -0.07)">
      <use xlink:href="#DejaVuSans-30"/>
      <use xlink:href="#DejaVuSans-2e" transform="translate(63.623047 0)"/>
      <use xlink:href="#DejaVuSans-32" transform="translate(95.410156 0)"/>
     </g>
    </g>
   </g>
   <g id="xtick_9">
    <g id="line2d_11">
     <path d="M 70.86671 241.601954 
L 66.455231 242.019133 
" style="fill: none; stroke: #000000; stroke-width: 0.8; stroke-linecap: square"/>
    </g>
    <g id="text_10">
     <!-- 0.4 -->
     <g transform="translate(56.578393 253.016614) scale(0.07 -0.07)">
      <use xlink:href="#DejaVuSans-30"/>
      <use xlink:href="#DejaVuSans-2e" transform="translate(63.623047 0)"/>
      <use xlink:href="#DejaVuSans-34" transform="translate(95.410156 0)"/>
     </g>
    </g>
   </g>
   <g id="xtick_10">
    <g id="line2d_12">
     <path d="M 63.19215 228.917423 
L 58.870897 229.316728 
" style="fill: none; stroke: #000000; stroke-width: 0.8; stroke-linecap: square"/>
    </g>
    <g id="text_11">
     <!-- 0.6 -->
     <g transform="translate(49.090419 240.196271) scale(0.07 -0.07)">
      <use xlink:href="#DejaVuSans-30"/>
      <use xlink:href="#DejaVuSans-2e" transform="translate(63.623047 0)"/>
      <use xlink:href="#DejaVuSans-36" transform="translate(95.410156 0)"/>
     </g>
    </g>
   </g>
   <g id="xtick_11">
    <g id="line2d_13">
     <path d="M 55.842847 216.770477 
L 51.608216 217.153033 
" style="fill: none; stroke: #000000; stroke-width: 0.8; stroke-linecap: square"/>
    </g>
    <g id="text_12">
     <!-- 0.8 -->
     <g transform="translate(41.919886 227.919427) scale(0.07 -0.07)">
      <use xlink:href="#DejaVuSans-30"/>
      <use xlink:href="#DejaVuSans-2e" transform="translate(63.623047 0)"/>
      <use xlink:href="#DejaVuSans-38" transform="translate(95.410156 0)"/>
     </g>
    </g>
   </g>
   <g id="xtick_12">
    <g id="line2d_14">
     <path d="M 48.798553 205.127649 
L 44.647149 205.494488 
" style="fill: none; stroke: #000000; stroke-width: 0.8; stroke-linecap: square"/>
    </g>
    <g id="text_13">
     <!-- 1.0 -->
     <g transform="translate(35.047029 216.15224) scale(0.07 -0.07)">
      <use xlink:href="#DejaVuSans-31"/>
      <use xlink:href="#DejaVuSans-2e" transform="translate(63.623047 0)"/>
      <use xlink:href="#DejaVuSans-30" transform="translate(95.410156 0)"/>
     </g>
    </g>
   </g>
   <g id="text_14">
    <!-- y -->
    <g transform="translate(42.542466 254.503282) scale(0.09 -0.09)">
     <defs>
      <path id="DejaVuSans-79" d="M 2059 -325 
Q 1816 -950 1584 -1140 
Q 1353 -1331 966 -1331 
L 506 -1331 
L 506 -850 
L 844 -850 
Q 1081 -850 1212 -737 
Q 1344 -625 1503 -206 
L 1606 56 
L 191 3500 
L 800 3500 
L 1894 763 
L 2988 3500 
L 3597 3500 
L 2059 -325 
z
" transform="scale(0.015625)"/>
     </defs>
     <use xlink:href="#DejaVuSans-79"/>
    </g>
   </g>
  </g>
  <g id="axis3d_3">
   <g id="line2d_15">
    <path d="M 47.415367 205.249875 
L 44.518775 77.552549 
" style="fill: none; stroke: #000000; stroke-width: 0.8; stroke-linecap: square"/>
   </g>
   <g id="xtick_13">
    <g id="line2d_16">
     <path d="M 48.798553 205.127649 
L 44.647149 205.494488 
" style="fill: none; stroke: #000000; stroke-width: 0.8; stroke-linecap: square"/>
    </g>
    <g id="text_15">
     <!-- 0.0 -->
     <g transform="translate(33.586171 208.904533) scale(0.07 -0.07)">
      <use xlink:href="#DejaVuSans-30"/>
      <use xlink:href="#DejaVuSans-2e" transform="translate(63.623047 0)"/>
      <use xlink:href="#DejaVuSans-30" transform="translate(95.410156 0)"/>
     </g>
    </g>
   </g>
   <g id="xtick_14">
    <g id="line2d_17">
     <path d="M 48.238839 180.130877 
L 44.065197 180.482871 
" style="fill: none; stroke: #000000; stroke-width: 0.8; stroke-linecap: square"/>
    </g>
    <g id="text_16">
     <!-- 0.2 -->
     <g transform="translate(32.977413 183.970192) scale(0.07 -0.07)">
      <use xlink:href="#DejaVuSans-30"/>
      <use xlink:href="#DejaVuSans-2e" transform="translate(63.623047 0)"/>
      <use xlink:href="#DejaVuSans-32" transform="translate(95.410156 0)"/>
     </g>
    </g>
   </g>
   <g id="xtick_15">
    <g id="line2d_18">
     <path d="M 47.673202 154.869612 
L 43.477082 155.206424 
" style="fill: none; stroke: #000000; stroke-width: 0.8; stroke-linecap: square"/>
    </g>
    <g id="text_17">
     <!-- 0.4 -->
     <g transform="translate(32.362232 158.772767) scale(0.07 -0.07)">
      <use xlink:href="#DejaVuSans-30"/>
      <use xlink:href="#DejaVuSans-2e" transform="translate(63.623047 0)"/>
      <use xlink:href="#DejaVuSans-34" transform="translate(95.410156 0)"/>
     </g>
    </g>
   </g>
   <g id="xtick_16">
    <g id="line2d_19">
     <path d="M 47.101548 129.339634 
L 42.882708 129.660921 
" style="fill: none; stroke: #000000; stroke-width: 0.8; stroke-linecap: square"/>
    </g>
    <g id="text_18">
     <!-- 0.6 -->
     <g transform="translate(31.740526 133.308071) scale(0.07 -0.07)">
      <use xlink:href="#DejaVuSans-30"/>
      <use xlink:href="#DejaVuSans-2e" transform="translate(63.623047 0)"/>
      <use xlink:href="#DejaVuSans-36" transform="translate(95.410156 0)"/>
     </g>
    </g>
   </g>
   <g id="xtick_17">
    <g id="line2d_20">
     <path d="M 46.523781 103.536632 
L 42.281973 103.842042 
" style="fill: none; stroke: #000000; stroke-width: 0.8; stroke-linecap: square"/>
    </g>
    <g id="text_19">
     <!-- 0.8 -->
     <g transform="translate(31.112191 107.571831) scale(0.07 -0.07)">
      <use xlink:href="#DejaVuSans-30"/>
      <use xlink:href="#DejaVuSans-2e" transform="translate(63.623047 0)"/>
      <use xlink:href="#DejaVuSans-38" transform="translate(95.410156 0)"/>
     </g>
    </g>
   </g>
   <g id="xtick_18">
    <g id="line2d_21">
     <path d="M 45.939802 77.456203 
L 41.674774 77.745374 
" style="fill: none; stroke: #000000; stroke-width: 0.8; stroke-linecap: square"/>
    </g>
    <g id="text_20">
     <!-- 1.0 -->
     <g transform="translate(30.477119 81.559679) scale(0.07 -0.07)">
      <use xlink:href="#DejaVuSans-31"/>
      <use xlink:href="#DejaVuSans-2e" transform="translate(63.623047 0)"/>
      <use xlink:href="#DejaVuSans-30" transform="translate(95.410156 0)"/>
     </g>
    </g>
   </g>
   <g id="text_21">
    <!-- z -->
    <g transform="translate(20.047816 140.525227) scale(0.09 -0.09)">
     <defs>
      <path id="DejaVuSans-7a" d="M 353 3500 
L 3084 3500 
L 3084 2975 
L 922 459 
L 3084 459 
L 3084 0 
L 275 0 
L 275 525 
L 2438 3041 
L 353 3041 
L 353 3500 
z
" transform="scale(0.015625)"/>
     </defs>
     <use xlink:href="#DejaVuSans-7a"/>
    </g>
   </g>
  </g>
  <g id="axes_1">
   <g id="line2d_22">
    <path d="M 85.748168 268.885296 
L 83.659598 127.871353 
" clip-path="url(#p8dab6ef4fc)" style="fill: none; stroke: #333333; stroke-width: 1.4; stroke-linecap: square"/>
   </g>
   <g id="line2d_23">
    <path d="M 85.748168 268.885296 
L 47.415367 205.249875 
" clip-path="url(#p8dab6ef4fc)" style="fill: none; stroke: #333333; stroke-width: 1.4; stroke-linecap: square"/>
   </g>
   <g id="line2d_24">
    <path d="M 85.748168 268.885296 
L 271.749484 250.432363 
" clip-path="url(#p8dab6ef4fc)" style="fill: none; stroke: #333333; stroke-width: 1.4; stroke-linecap: square"/>
   </g>
   <g id="line2d_25">
    <path d="M 83.659598 127.871353 
L 44.518775 77.552549 
" clip-path="url(#p8dab6ef4fc)" style="fill: none; stroke: #333333; stroke-width: 1.4; stroke-linecap: square"/>
   </g>
   <g id="line2d_26">
    <path d="M 83.659598 127.871353 
L 275.149465 113.247633 
" clip-path="url(#p8dab6ef4fc)" style="fill: none; stroke: #333333; stroke-width: 1.4; stroke-linecap: square"/>
   </g>
   <g id="line2d_27">
    <path d="M 47.415367 205.249875 
L 44.518775 77.552549 
" clip-path="url(#p8dab6ef4fc)" style="fill: none; stroke: #333333; stroke-width: 1.4; stroke-linecap: square"/>
   </g>
   <g id="line2d_28">
    <path d="M 47.415367 205.249875 
L 215.673286 190.381765 
" clip-path="url(#p8dab6ef4fc)" style="fill: none; stroke: #333333; stroke-width: 1.4; stroke-linecap: square"/>
   </g>
   <g id="line2d_29">
    <path d="M 44.518775 77.552549 
L 217.255217 65.840923 
" clip-path="url(#p8dab6ef4fc)" style="fill: none; stroke: #333333; stroke-width: 1.4; stroke-linecap: square"/>
   </g>
   <g id="line2d_30">
    <path d="M 271.749484 250.432363 
L 275.149465 113.247633 
" clip-path="url(#p8dab6ef4fc)" style="fill: none; stroke: #333333; stroke-width: 1.4; stroke-linecap: square"/>
   </g>
   <g id="line2d_31">
    <path d="M 271.749484 250.432363 
L 215.673286 190.381765 
" clip-path="url(#p8dab6ef4fc)" style="fill: none; stroke: #333333; stroke-width: 1.4; stroke-linecap: square"/>
   </g>
   <g id="line2d_32">
    <path d="M 275.149465 113.247633 
L 217.255217 65.840923 
" clip-path="url(#p8dab6ef4fc)" style="fill: none; stroke: #333333; stroke-width: 1.4; stroke-linecap: square"/>
   </g>
   <g id="line2d_33">
    <path d="M 215.673286 190.381765 
L 217.255217 65.840923 
" clip-path="url(#p8dab6ef4fc)" style="fill: none; stroke: #333333; stroke-width: 1.4; stroke-linecap: square"/>
   </g>
   <g id="Path3DCollection_1">
    <path d="M 202.857174 187.019478 
C 203.574901 187.019478 204.263328 186.734322 204.770838 186.226813 
C 205.278347 185.719303 205.563503 185.030876 205.563503 184.313149 
C 205.563503 183.595422 205.278347 182.906995 204.770838 182.399485 
C 204.263328 181.891975 203.574901 181.606819 202.857174 181.606819 
C 202.139447 181.606819 201.451019 181.891975 200.94351 182.399485 
C 200.436 182.906995 200.150844 183.595422 200.150844 184.313149 
C 200.150844 185.030876 200.436 185.719303 200.94351 186.226813 
C 201.451019 186.734322 202.139447 187.019478 202.857174 187.019478 
z
" clip-path="url(#p8dab6ef4fc)" style="fill: #1a5fa8; stroke: #1a5fa8"/>
    <path d="M 203.340948 139.356522 
C 204.248808 139.356522 205.119608 138.995825 205.761562 138.353871 
C 206.403517 137.711916 206.764214 136.841117 206.764214 135.933256 
C 206.764214 135.025396 206.403517 134.154596 205.761562 133.512642 
C 205.119608 132.870687 204.248808 132.50999 203.340948 132.50999 
C 202.433087 132.50999 201.562287 132.870687 200.920333 133.512642 
C 200.278378 134.154596 199.917682 135.025396 199.917682 135.933256 
C 199.917682 136.841117 200.278378 137.711916 200.920333 138.353871 
C 201.562287 138.995825 202.433087 139.356522 203.340948 139.356522 
z
" clip-path="url(#p8dab6ef4fc)" style="fill: #1a5fa8; stroke: #1a5fa8"/>
    <path d="M 137.504577 193.433685 
C 138.412437 193.433685 139.283237 193.072989 139.925191 192.431034 
C 140.567146 191.78908 140.927843 190.91828 140.927843 190.01042 
C 140.927843 189.102559 140.567146 188.231759 139.925191 187.589805 
C 139.283237 186.94785 138.412437 186.587154 137.504577 186.587154 
C 136.596716 186.587154 135.725916 186.94785 135.083962 187.589805 
C 134.442007 188.231759 134.081311 189.102559 134.081311 190.01042 
C 134.081311 190.91828 134.442007 191.78908 135.083962 192.431034 
C 135.725916 193.072989 136.596716 193.433685 137.504577 193.433685 
z
" clip-path="url(#p8dab6ef4fc)" style="fill: #1a5fa8; stroke: #1a5fa8"/>
    <path d="M 203.834634 89.268377 
C 204.552361 89.268377 205.240788 88.983221 205.748298 88.475711 
C 206.255808 87.968201 206.540964 87.279774 206.540964 86.562047 
C 206.540964 85.84432 206.255808 85.155893 205.748298 84.648383 
C 205.240788 84.140874 204.552361 83.855718 203.834634 83.855718 
C 203.116907 83.855718 202.42848 84.140874 201.92097 84.648383 
C 201.413461 85.155893 201.128305 85.84432 201.128305 86.562047 
C 201.128305 87.279774 201.413461 87.968201 201.92097 88.475711 
C 202.42848 88.983221 203.116907 89.268377 203.834634 89.268377 
z
" clip-path="url(#p8dab6ef4fc)" style="fill: #1a5fa8; stroke: #1a5fa8"/>
    <path d="M 137.323646 145.492295 
C 138.472009 145.492295 139.573493 145.036045 140.385508 144.22403 
C 141.197523 143.412014 141.653773 142.310531 141.653773 141.162167 
C 141.653773 140.013804 141.197523 138.912321 140.385508 138.100305 
C 139.573493 137.28829 138.472009 136.83204 137.323646 136.83204 
C 136.175283 136.83204 135.073799 137.28829 134.261784 138.100305 
C 133.449768 138.912321 132.993519 140.013804 132.993519 141.162167 
C 132.993519 142.310531 133.449768 143.412014 134.261784 144.22403 
C 135.073799 145.036045 136.175283 145.492295 137.323646 145.492295 
z
" clip-path="url(#p8dab6ef4fc)" style="fill: #1a5fa8; stroke: #1a5fa8"/>
    <path d="M 70.72794 198.538164 
C 71.445667 198.538164 72.134094 198.253008 72.641604 197.745498 
C 73.149113 197.237989 73.434269 196.549561 73.434269 195.831834 
C 73.434269 195.114107 73.149113 194.42568 72.641604 193.91817 
C 72.134094 193.410661 71.445667 193.125505 70.72794 193.125505 
C 70.010213 193.125505 69.321785 193.410661 68.814276 193.91817 
C 68.306766 194.42568 68.02161 195.114107 68.02161 195.831834 
C 68.02161 196.549561 68.306766 197.237989 68.814276 197.745498 
C 69.321785 198.253008 70.010213 198.538164 70.72794 198.538164 
z
" clip-path="url(#p8dab6ef4fc)" style="fill: #1a5fa8; stroke: #1a5fa8"/>
    <path d="M 137.138967 94.725257 
C 138.046828 94.725257 138.917627 94.36456 139.559582 93.722606 
C 140.201536 93.080651 140.562233 92.209852 140.562233 91.301991 
C 140.562233 90.39413 140.201536 89.523331 139.559582 88.881376 
C 138.917627 88.239422 138.046828 87.878725 137.138967 87.878725 
C 136.231106 87.878725 135.360307 88.239422 134.718352 88.881376 
C 134.076398 89.523331 133.715701 90.39413 133.715701 91.301991 
C 133.715701 92.209852 134.076398 93.080651 134.718352 93.722606 
C 135.360307 94.36456 136.231106 94.725257 137.138967 94.725257 
z
" clip-path="url(#p8dab6ef4fc)" style="fill: #1a5fa8; stroke: #1a5fa8"/>
    <path d="M 69.852911 149.929464 
C 70.760771 149.929464 71.631571 149.568767 72.273525 148.926813 
C 72.91548 148.284858 73.276177 147.414059 73.276177 146.506198 
C 73.276177 145.598337 72.91548 144.727538 72.273525 144.085583 
C 71.631571 143.443629 70.760771 143.082932 69.852911 143.082932 
C 68.94505 143.082932 68.074251 143.443629 67.432296 144.085583 
C 66.790342 144.727538 66.429645 145.598337 66.429645 146.506198 
C 66.429645 147.414059 66.790342 148.284858 67.432296 148.926813 
C 68.074251 149.568767 68.94505 149.929464 69.852911 149.929464 
z
" clip-path="url(#p8dab6ef4fc)" style="fill: #1a5fa8; stroke: #1a5fa8"/>
    <path d="M 223.01853 209.643987 
C 223.926391 209.643987 224.79719 209.28329 225.439145 208.641336 
C 226.081099 207.999381 226.441796 207.128582 226.441796 206.220721 
C 226.441796 205.312861 226.081099 204.442061 225.439145 203.800107 
C 224.79719 203.158152 223.926391 202.797455 223.01853 202.797455 
C 222.110669 202.797455 221.23987 203.158152 220.597916 203.800107 
C 219.955961 204.442061 219.595264 205.312861 219.595264 206.220721 
C 219.595264 207.128582 219.955961 207.999381 220.597916 208.641336 
C 221.23987 209.28329 222.110669 209.643987 223.01853 209.643987 
z
" clip-path="url(#p8dab6ef4fc)" style="fill: #1a5fa8; stroke: #1a5fa8"/>
    <path d="M 68.959553 98.853712 
C 69.67728 98.853712 70.365708 98.568556 70.873217 98.061046 
C 71.380727 97.553537 71.665883 96.865109 71.665883 96.147382 
C 71.665883 95.429655 71.380727 94.741228 70.873217 94.233718 
C 70.365708 93.726209 69.67728 93.441053 68.959553 93.441053 
C 68.241826 93.441053 67.553399 93.726209 67.045889 94.233718 
C 66.53838 94.741228 66.253224 95.429655 66.253224 96.147382 
C 66.253224 96.865109 66.53838 97.553537 67.045889 98.061046 
C 67.553399 98.568556 68.241826 98.853712 68.959553 98.853712 
z
" clip-path="url(#p8dab6ef4fc)" style="fill: #1a5fa8; stroke: #1a5fa8"/>
    <path d="M 223.735589 160.37624 
C 224.883952 160.37624 225.985436 159.919991 226.797451 159.107975 
C 227.609467 158.29596 228.065716 157.194476 228.065716 156.046113 
C 228.065716 154.89775 227.609467 153.796266 226.797451 152.984251 
C 225.985436 152.172236 224.883952 151.715986 223.735589 151.715986 
C 222.587226 151.715986 221.485742 152.172236 220.673727 152.984251 
C 219.861711 153.796266 219.405462 154.89775 219.405462 156.046113 
C 219.405462 157.194476 219.861711 158.29596 220.673727 159.107975 
C 221.485742 159.919991 222.587226 160.37624 223.735589 160.37624 
z
" clip-path="url(#p8dab6ef4fc)" style="fill: #1a5fa8; stroke: #1a5fa8"/>
    <path d="M 155.153514 216.732889 
C 156.301877 216.732889 157.40336 216.276639 158.215376 215.464624 
C 159.027391 214.652609 159.483641 213.551125 159.483641 212.402762 
C 159.483641 211.254399 159.027391 210.152915 158.215376 209.3409 
C 157.40336 208.528884 156.301877 208.072635 155.153514 208.072635 
C 154.00515 208.072635 152.903667 208.528884 152.091651 209.3409 
C 151.279636 210.152915 150.823386 211.254399 150.823386 212.402762 
C 150.823386 213.551125 151.279636 214.652609 152.091651 215.464624 
C 152.903667 216.276639 154.00515 216.732889 155.153514 216.732889 
z
" clip-path="url(#p8dab6ef4fc)" style="fill: #1a5fa8; stroke: #1a5fa8"/>
    <path d="M 224.467962 108.223163 
C 225.375823 108.223163 226.246623 107.862466 226.888577 107.220512 
C 227.530532 106.578557 227.891228 105.707758 227.891228 104.799897 
C 227.891228 103.892037 227.530532 103.021237 226.888577 102.379283 
C 226.246623 101.737328 225.375823 101.376631 224.467962 101.376631 
C 223.560102 101.376631 222.689302 101.737328 222.047348 102.379283 
C 221.405393 103.021237 221.044696 103.892037 221.044696 104.799897 
C 221.044696 105.707758 221.405393 106.578557 222.047348 107.220512 
C 222.689302 107.862466 223.560102 108.223163 224.467962 108.223163 
z
" clip-path="url(#p8dab6ef4fc)" style="fill: #1a5fa8; stroke: #1a5fa8"/>
    <path d="M 155.153514 167.201993 
C 156.606091 167.201993 157.99937 166.624878 159.026497 165.597751 
C 160.053624 164.570624 160.630739 163.177345 160.630739 161.724768 
C 160.630739 160.272191 160.053624 158.878912 159.026497 157.851784 
C 157.99937 156.824657 156.606091 156.247542 155.153514 156.247542 
C 153.700936 156.247542 152.307657 156.824657 151.28053 157.851784 
C 150.253403 158.878912 149.676288 160.272191 149.676288 161.724768 
C 149.676288 163.177345 150.253403 164.570624 151.28053 165.597751 
C 152.307657 166.624878 153.700936 167.201993 155.153514 167.201993 
z
" clip-path="url(#p8dab6ef4fc)" style="fill: #1a5fa8; stroke: #1a5fa8"/>
    <path d="M 85.747034 222.148485 
C 86.654895 222.148485 87.525694 221.787788 88.167648 221.145834 
C 88.809603 220.503879 89.1703 219.63308 89.1703 218.725219 
C 89.1703 217.817358 88.809603 216.946559 88.167648 216.304604 
C 87.525694 215.66265 86.654895 215.301953 85.747034 215.301953 
C 84.839173 215.301953 83.968374 215.66265 83.326419 216.304604 
C 82.684465 216.946559 82.323768 217.817358 82.323768 218.725219 
C 82.323768 219.63308 82.684465 220.503879 83.326419 221.145834 
C 83.968374 221.787788 84.839173 222.148485 85.747034 222.148485 
z
" clip-path="url(#p8dab6ef4fc)" style="fill: #1a5fa8; stroke: #1a5fa8"/>
    <path d="M 155.153514 114.282125 
C 156.301877 114.282125 157.40336 113.825875 158.215376 113.01386 
C 159.027391 112.201845 159.483641 111.100361 159.483641 109.951998 
C 159.483641 108.803635 159.027391 107.702151 158.215376 106.890136 
C 157.40336 106.07812 156.301877 105.621871 155.153514 105.621871 
C 154.00515 105.621871 152.903667 106.07812 152.091651 106.890136 
C 151.279636 107.702151 150.823386 108.803635 150.823386 109.951998 
C 150.823386 111.100361 151.279636 112.201845 152.091651 113.01386 
C 152.903667 113.825875 154.00515 114.282125 155.153514 114.282125 
z
" clip-path="url(#p8dab6ef4fc)" style="fill: #1a5fa8; stroke: #1a5fa8"/>
    <path d="M 84.996851 171.863926 
C 86.145214 171.863926 87.246698 171.407677 88.058713 170.595661 
C 88.870729 169.783646 89.326978 168.682162 89.326978 167.533799 
C 89.326978 166.385436 88.870729 165.283952 88.058713 164.471937 
C 87.246698 163.659922 86.145214 163.203672 84.996851 163.203672 
C 83.848488 163.203672 82.747004 163.659922 81.934989 164.471937 
C 81.122974 165.283952 80.666724 166.385436 80.666724 167.533799 
C 80.666724 168.682162 81.122974 169.783646 81.934989 170.595661 
C 82.747004 171.407677 83.848488 171.863926 84.996851 171.863926 
z
" clip-path="url(#p8dab6ef4fc)" style="fill: #1a5fa8; stroke: #1a5fa8"/>
    <path d="M 244.923228 232.728959 
C 245.640955 232.728959 246.329382 232.443803 246.836892 231.936293 
C 247.344401 231.428784 247.629557 230.740356 247.629557 230.022629 
C 247.629557 229.304902 247.344401 228.616475 246.836892 228.108966 
C 246.329382 227.601456 245.640955 227.3163 244.923228 227.3163 
C 244.205501 227.3163 243.517074 227.601456 243.009564 228.108966 
C 242.502055 228.616475 242.216899 229.304902 242.216899 230.022629 
C 242.216899 230.740356 242.502055 231.428784 243.009564 231.936293 
C 243.517074 232.443803 244.205501 232.728959 244.923228 232.728959 
z
" clip-path="url(#p8dab6ef4fc)" style="fill: #1a5fa8; stroke: #1a5fa8"/>
    <path d="M 84.230274 118.646945 
C 85.138135 118.646945 86.008934 118.286248 86.650889 117.644294 
C 87.292843 117.002339 87.65354 116.13154 87.65354 115.223679 
C 87.65354 114.315818 87.292843 113.445019 86.650889 112.803064 
C 86.008934 112.16111 85.138135 111.800413 84.230274 111.800413 
C 83.322414 111.800413 82.451614 112.16111 81.80966 112.803064 
C 81.167705 113.445019 80.807008 114.315818 80.807008 115.223679 
C 80.807008 116.13154 81.167705 117.002339 81.80966 117.644294 
C 82.451614 118.286248 83.322414 118.646945 84.230274 118.646945 
z
" clip-path="url(#p8dab6ef4fc)" style="fill: #1a5fa8; stroke: #1a5fa8"/>
    <path d="M 245.913191 181.340563 
C 246.821052 181.340563 247.691851 180.979866 248.333806 180.337911 
C 248.97576 179.695957 249.336457 178.825157 249.336457 177.917297 
C 249.336457 177.009436 248.97576 176.138637 248.333806 175.496682 
C 247.691851 174.854728 246.821052 174.494031 245.913191 174.494031 
C 245.005331 174.494031 244.134531 174.854728 243.492577 175.496682 
C 242.850622 176.138637 242.489925 177.009436 242.489925 177.917297 
C 242.489925 178.825157 242.850622 179.695957 243.492577 180.337911 
C 244.134531 180.979866 245.005331 181.340563 245.913191 181.340563 
z
" clip-path="url(#p8dab6ef4fc)" style="fill: #1a5fa8; stroke: #1a5fa8"/>
    <path d="M 174.346431 240.177317 
C 175.254291 240.177317 176.125091 239.81662 176.767045 239.174666 
C 177.409 238.532711 177.769697 237.661912 177.769697 236.754051 
C 177.769697 235.84619 177.409 234.975391 176.767045 234.333437 
C 176.125091 233.691482 175.254291 233.330785 174.346431 233.330785 
C 173.43857 233.330785 172.567771 233.691482 171.925816 234.333437 
C 171.283862 234.975391 170.923165 235.84619 170.923165 236.754051 
C 170.923165 237.661912 171.283862 238.532711 171.925816 239.174666 
C 172.567771 239.81662 173.43857 240.177317 174.346431 240.177317 
z
" clip-path="url(#p8dab6ef4fc)" style="fill: #1a5fa8; stroke: #1a5fa8"/>
    <path d="M 246.925232 127.356263 
C 247.642959 127.356263 248.331387 127.071107 248.838896 126.563598 
C 249.346406 126.056088 249.631562 125.367661 249.631562 124.649934 
C 249.631562 123.932207 249.346406 123.24378 248.838896 122.73627 
C 248.331387 122.22876 247.642959 121.943605 246.925232 121.943605 
C 246.207505 121.943605 245.519078 122.22876 245.011569 122.73627 
C 244.504059 123.24378 244.218903 123.932207 244.218903 124.649934 
C 244.218903 125.367661 244.504059 126.056088 245.011569 126.563598 
C 245.519078 127.071107 246.207505 127.356263 246.925232 127.356263 
z
" clip-path="url(#p8dab6ef4fc)" style="fill: #1a5fa8; stroke: #1a5fa8"/>
    <path d="M 174.560595 188.436444 
C 175.708958 188.436444 176.810442 187.980194 177.622457 187.168179 
C 178.434472 186.356164 178.890722 185.25468 178.890722 184.106317 
C 178.890722 182.957954 178.434472 181.85647 177.622457 181.044455 
C 176.810442 180.232439 175.708958 179.77619 174.560595 179.77619 
C 173.412232 179.77619 172.310748 180.232439 171.498733 181.044455 
C 170.686717 181.85647 170.230468 182.957954 170.230468 184.106317 
C 170.230468 185.25468 170.686717 186.356164 171.498733 187.168179 
C 172.310748 187.980194 173.412232 188.436444 174.560595 188.436444 
z
" clip-path="url(#p8dab6ef4fc)" style="fill: #1a5fa8; stroke: #1a5fa8"/>
    <path d="M 102.095624 246.351465 
C 102.813351 246.351465 103.501779 246.066309 104.009288 245.558799 
C 104.516798 245.05129 104.801954 244.362862 104.801954 243.645135 
C 104.801954 242.927408 104.516798 242.238981 104.009288 241.731471 
C 103.501779 241.223962 102.813351 240.938806 102.095624 240.938806 
C 101.377897 240.938806 100.68947 241.223962 100.181961 241.731471 
C 99.674451 242.238981 99.389295 242.927408 99.389295 243.645135 
C 99.389295 244.362862 99.674451 245.05129 100.181961 245.558799 
C 100.68947 246.066309 101.377897 246.351465 102.095624 246.351465 
z
" clip-path="url(#p8dab6ef4fc)" style="fill: #1a5fa8; stroke: #1a5fa8"/>
    <path d="M 174.779593 133.69365 
C 175.687453 133.69365 176.558253 133.332953 177.200207 132.690998 
C 177.842162 132.049044 178.202859 131.178245 178.202859 130.270384 
C 178.202859 129.362523 177.842162 128.491724 177.200207 127.849769 
C 176.558253 127.207815 175.687453 126.847118 174.779593 126.847118 
C 173.871732 126.847118 173.000932 127.207815 172.358978 127.849769 
C 171.717023 128.491724 171.356327 129.362523 171.356327 130.270384 
C 171.356327 131.178245 171.717023 132.049044 172.358978 132.690998 
C 173.000932 133.332953 173.871732 133.69365 174.779593 133.69365 
z
" clip-path="url(#p8dab6ef4fc)" style="fill: #1a5fa8; stroke: #1a5fa8"/>
    <path d="M 101.496477 193.867058 
C 102.404338 193.867058 103.275137 193.506361 103.917092 192.864406 
C 104.559046 192.222452 104.919743 191.351652 104.919743 190.443792 
C 104.919743 189.535931 104.559046 188.665131 103.917092 188.023177 
C 103.275137 187.381222 102.404338 187.020526 101.496477 187.020526 
C 100.588616 187.020526 99.717817 187.381222 99.075863 188.023177 
C 98.433908 188.665131 98.073211 189.535931 98.073211 190.443792 
C 98.073211 191.351652 98.433908 192.222452 99.075863 192.864406 
C 99.717817 193.506361 100.588616 193.867058 101.496477 193.867058 
z
" clip-path="url(#p8dab6ef4fc)" style="fill: #1a5fa8; stroke: #1a5fa8"/>
    <path d="M 100.883644 138.73352 
C 101.601371 138.73352 102.289798 138.448364 102.797308 137.940854 
C 103.304817 137.433345 103.589973 136.744917 103.589973 136.02719 
C 103.589973 135.309463 103.304817 134.621036 102.797308 134.113526 
C 102.289798 133.606017 101.601371 133.320861 100.883644 133.320861 
C 100.165917 133.320861 99.477489 133.606017 98.96998 134.113526 
C 98.46247 134.621036 98.177314 135.309463 98.177314 136.02719 
C 98.177314 136.744917 98.46247 137.433345 98.96998 137.940854 
C 99.477489 138.448364 100.165917 138.73352 100.883644 138.73352 
z
" clip-path="url(#p8dab6ef4fc)" style="fill: #1a5fa8; stroke: #1a5fa8"/>
   </g>
   <g id="text_22">
    <!-- Order 5  (3×3×3 = 27 points) -->
    <g transform="translate(69.134687 15.558281) scale(0.11 -0.11)">
     <defs>
      <path id="DejaVuSans-4f" d="M 2522 4238 
Q 1834 4238 1429 3725 
Q 1025 3213 1025 2328 
Q 1025 1447 1429 934 
Q 1834 422 2522 422 
Q 3209 422 3611 934 
Q 4013 1447 4013 2328 
Q 4013 3213 3611 3725 
Q 3209 4238 2522 4238 
z
M 2522 4750 
Q 3503 4750 4090 4092 
Q 4678 3434 4678 2328 
Q 4678 1225 4090 567 
Q 3503 -91 2522 -91 
Q 1538 -91 948 565 
Q 359 1222 359 2328 
Q 359 3434 948 4092 
Q 1538 4750 2522 4750 
z
" transform="scale(0.015625)"/>
      <path id="DejaVuSans-72" d="M 2631 2963 
Q 2534 3019 2420 3045 
Q 2306 3072 2169 3072 
Q 1681 3072 1420 2755 
Q 1159 2438 1159 1844 
L 1159 0 
L 581 0 
L 581 3500 
L 1159 3500 
L 1159 2956 
Q 1341 3275 1631 3429 
Q 1922 3584 2338 3584 
Q 2397 3584 2469 3576 
Q 2541 3569 2628 3553 
L 2631 2963 
z
" transform="scale(0.015625)"/>
      <path id="DejaVuSans-64" d="M 2906 2969 
L 2906 4863 
L 3481 4863 
L 3481 0 
L 2906 0 
L 2906 525 
Q 2725 213 2448 61 
Q 2172 -91 1784 -91 
Q 1150 -91 751 415 
Q 353 922 353 1747 
Q 353 2572 751 3078 
Q 1150 3584 1784 3584 
Q 2172 3584 2448 3432 
Q 2725 3281 2906 2969 
z
M 947 1747 
Q 947 1113 1208 752 
Q 1469 391 1925 391 
Q 2381 391 2643 752 
Q 2906 1113 2906 1747 
Q 2906 2381 2643 2742 
Q 2381 3103 1925 3103 
Q 1469 3103 1208 2742 
Q 947 2381 947 1747 
z
" transform="scale(0.015625)"/>
      <path id="DejaVuSans-65" d="M 3597 1894 
L 3597 1613 
L 953 1613 
Q 991 1019 1311 708 
Q 1631 397 2203 397 
Q 2534 397 2845 478 
Q 3156 559 3463 722 
L 3463 178 
Q 3153 47 2828 -22 
Q 2503 -91 2169 -91 
Q 1331 -91 842 396 
Q 353 884 353 1716 
Q 353 2575 817 3079 
Q 1281 3584 2069 3584 
Q 2775 3584 3186 3129 
Q 3597 2675 3597 1894 
z
M 3022 2063 
Q 3016 2534 2758 2815 
Q 2500 3097 2075 3097 
Q 1594 3097 1305 2825 
Q 1016 2553 972 2059 
L 3022 2063 
z
" transform="scale(0.015625)"/>
      <path id="DejaVuSans-20" transform="scale(0.015625)"/>
      <path id="DejaVuSans-35" d="M 691 4666 
L 3169 4666 
L 3169 4134 
L 1269 4134 
L 1269 2991 
Q 1406 3038 1543 3061 
Q 1681 3084 1819 3084 
Q 2600 3084 3056 2656 
Q 3513 2228 3513 1497 
Q 3513 744 3044 326 
Q 2575 -91 1722 -91 
Q 1428 -91 1123 -41 
Q 819 9 494 109 
L 494 744 
Q 775 591 1075 516 
Q 1375 441 1709 441 
Q 2250 441 2565 725 
Q 2881 1009 2881 1497 
Q 2881 1984 2565 2268 
Q 2250 2553 1709 2553 
Q 1456 2553 1204 2497 
Q 953 2441 691 2322 
L 691 4666 
z
" transform="scale(0.015625)"/>
      <path id="DejaVuSans-28" d="M 1984 4856 
Q 1566 4138 1362 3434 
Q 1159 2731 1159 2009 
Q 1159 1288 1364 580 
Q 1569 -128 1984 -844 
L 1484 -844 
Q 1016 -109 783 600 
Q 550 1309 550 2009 
Q 550 2706 781 3412 
Q 1013 4119 1484 4856 
L 1984 4856 
z
" transform="scale(0.015625)"/>
      <path id="DejaVuSans-33" d="M 2597 2516 
Q 3050 2419 3304 2112 
Q 3559 1806 3559 1356 
Q 3559 666 3084 287 
Q 2609 -91 1734 -91 
Q 1441 -91 1130 -33 
Q 819 25 488 141 
L 488 750 
Q 750 597 1062 519 
Q 1375 441 1716 441 
Q 2309 441 2620 675 
Q 2931 909 2931 1356 
Q 2931 1769 2642 2001 
Q 2353 2234 1838 2234 
L 1294 2234 
L 1294 2753 
L 1863 2753 
Q 2328 2753 2575 2939 
Q 2822 3125 2822 3475 
Q 2822 3834 2567 4026 
Q 2313 4219 1838 4219 
Q 1578 4219 1281 4162 
Q 984 4106 628 3988 
L 628 4550 
Q 988 4650 1302 4700 
Q 1616 4750 1894 4750 
Q 2613 4750 3031 4423 
Q 3450 4097 3450 3541 
Q 3450 3153 3228 2886 
Q 3006 2619 2597 2516 
z
" transform="scale(0.015625)"/>
      <path id="DejaVuSans-d7" d="M 4488 3438 
L 3059 2003 
L 4488 575 
L 4116 197 
L 2681 1631 
L 1247 197 
L 878 575 
L 2303 2003 
L 878 3438 
L 1247 3816 
L 2681 2381 
L 4116 3816 
L 4488 3438 
z
" transform="scale(0.015625)"/>
      <path id="DejaVuSans-3d" d="M 678 2906 
L 4684 2906 
L 4684 2381 
L 678 2381 
L 678 2906 
z
M 678 1631 
L 4684 1631 
L 4684 1100 
L 678 1100 
L 678 1631 
z
" transform="scale(0.015625)"/>
      <path id="DejaVuSans-37" d="M 525 4666 
L 3525 4666 
L 3525 4397 
L 1831 0 
L 1172 0 
L 2766 4134 
L 525 4134 
L 525 4666 
z
" transform="scale(0.015625)"/>
      <path id="DejaVuSans-70" d="M 1159 525 
L 1159 -1331 
L 581 -1331 
L 581 3500 
L 1159 3500 
L 1159 2969 
Q 1341 3281 1617 3432 
Q 1894 3584 2278 3584 
Q 2916 3584 3314 3078 
Q 3713 2572 3713 1747 
Q 3713 922 3314 415 
Q 2916 -91 2278 -91 
Q 1894 -91 1617 61 
Q 1341 213 1159 525 
z
M 3116 1747 
Q 3116 2381 2855 2742 
Q 2594 3103 2138 3103 
Q 1681 3103 1420 2742 
Q 1159 2381 1159 1747 
Q 1159 1113 1420 752 
Q 1681 391 2138 391 
Q 2594 391 2855 752 
Q 3116 1113 3116 1747 
z
" transform="scale(0.015625)"/>
      <path id="DejaVuSans-6f" d="M 1959 3097 
Q 1497 3097 1228 2736 
Q 959 2375 959 1747 
Q 959 1119 1226 758 
Q 1494 397 1959 397 
Q 2419 397 2687 759 
Q 2956 1122 2956 1747 
Q 2956 2369 2687 2733 
Q 2419 3097 1959 3097 
z
M 1959 3584 
Q 2709 3584 3137 3096 
Q 3566 2609 3566 1747 
Q 3566 888 3137 398 
Q 2709 -91 1959 -91 
Q 1206 -91 779 398 
Q 353 888 353 1747 
Q 353 2609 779 3096 
Q 1206 3584 1959 3584 
z
" transform="scale(0.015625)"/>
      <path id="DejaVuSans-69" d="M 603 3500 
L 1178 3500 
L 1178 0 
L 603 0 
L 603 3500 
z
M 603 4863 
L 1178 4863 
L 1178 4134 
L 603 4134 
L 603 4863 
z
" transform="scale(0.015625)"/>
      <path id="DejaVuSans-6e" d="M 3513 2113 
L 3513 0 
L 2938 0 
L 2938 2094 
Q 2938 2591 2744 2837 
Q 2550 3084 2163 3084 
Q 1697 3084 1428 2787 
Q 1159 2491 1159 1978 
L 1159 0 
L 581 0 
L 581 3500 
L 1159 3500 
L 1159 2956 
Q 1366 3272 1645 3428 
Q 1925 3584 2291 3584 
Q 2894 3584 3203 3211 
Q 3513 2838 3513 2113 
z
" transform="scale(0.015625)"/>
      <path id="DejaVuSans-74" d="M 1172 4494 
L 1172 3500 
L 2356 3500 
L 2356 3053 
L 1172 3053 
L 1172 1153 
Q 1172 725 1289 603 
Q 1406 481 1766 481 
L 2356 481 
L 2356 0 
L 1766 0 
Q 1100 0 847 248 
Q 594 497 594 1153 
L 594 3053 
L 172 3053 
L 172 3500 
L 594 3500 
L 594 4494 
L 1172 4494 
z
" transform="scale(0.015625)"/>
      <path id="DejaVuSans-73" d="M 2834 3397 
L 2834 2853 
Q 2591 2978 2328 3040 
Q 2066 3103 1784 3103 
Q 1356 3103 1142 2972 
Q 928 2841 928 2578 
Q 928 2378 1081 2264 
Q 1234 2150 1697 2047 
L 1894 2003 
Q 2506 1872 2764 1633 
Q 3022 1394 3022 966 
Q 3022 478 2636 193 
Q 2250 -91 1575 -91 
Q 1294 -91 989 -36 
Q 684 19 347 128 
L 347 722 
Q 666 556 975 473 
Q 1284 391 1588 391 
Q 1994 391 2212 530 
Q 2431 669 2431 922 
Q 2431 1156 2273 1281 
Q 2116 1406 1581 1522 
L 1381 1569 
Q 847 1681 609 1914 
Q 372 2147 372 2553 
Q 372 3047 722 3315 
Q 1072 3584 1716 3584 
Q 2034 3584 2315 3537 
Q 2597 3491 2834 3397 
z
" transform="scale(0.015625)"/>
      <path id="DejaVuSans-29" d="M 513 4856 
L 1013 4856 
Q 1481 4119 1714 3412 
Q 1947 2706 1947 2009 
Q 1947 1309 1714 600 
Q 1481 -109 1013 -844 
L 513 -844 
Q 928 -128 1133 580 
Q 1338 1288 1338 2009 
Q 1338 2731 1133 3434 
Q 928 4138 513 4856 
z
" transform="scale(0.015625)"/>
     </defs>
     <use xlink:href="#DejaVuSans-4f"/>
     <use xlink:href="#DejaVuSans-72" transform="translate(78.710938 0)"/>
     <use xlink:href="#DejaVuSans-64" transform="translate(118.074219 0)"/>
     <use xlink:href="#DejaVuSans-65" transform="translate(181.550781 0)"/>
     <use xlink:href="#DejaVuSans-72" transform="translate(243.074219 0)"/>
     <use xlink:href="#DejaVuSans-20" transform="translate(284.1875 0)"/>
     <use xlink:href="#DejaVuSans-35" transform="translate(315.974609 0)"/>
     <use xlink:href="#DejaVuSans-20" transform="translate(379.597656 0)"/>
     <use xlink:href="#DejaVuSans-20" transform="translate(411.384766 0)"/>
     <use xlink:href="#DejaVuSans-28" transform="translate(443.171875 0)"/>
     <use xlink:href="#DejaVuSans-33" transform="translate(482.185547 0)"/>
     <use xlink:href="#DejaVuSans-d7" transform="translate(545.808594 0)"/>
     <use xlink:href="#DejaVuSans-33" transform="translate(629.597656 0)"/>
     <use xlink:href="#DejaVuSans-d7" transform="translate(693.220703 0)"/>
     <use xlink:href="#DejaVuSans-33" transform="translate(777.009766 0)"/>
     <use xlink:href="#DejaVuSans-20" transform="translate(840.632812 0)"/>
     <use xlink:href="#DejaVuSans-3d" transform="translate(872.419922 0)"/>
     <use xlink:href="#DejaVuSans-20" transform="translate(956.208984 0)"/>
     <use xlink:href="#DejaVuSans-32" transform="translate(987.996094 0)"/>
     <use xlink:href="#DejaVuSans-37" transform="translate(1051.619141 0)"/>
     <use xlink:href="#DejaVuSans-20" transform="translate(1115.242188 0)"/>
     <use xlink:href="#DejaVuSans-70" transform="translate(1147.029297 0)"/>
     <use xlink:href="#DejaVuSans-6f" transform="translate(1210.505859 0)"/>
     <use xlink:href="#DejaVuSans-69" transform="translate(1271.6875 0)"/>
     <use xlink:href="#DejaVuSans-6e" transform="translate(1299.470703 0)"/>
     <use xlink:href="#DejaVuSans-74" transform="translate(1362.849609 0)"/>
     <use xlink:href="#DejaVuSans-73" transform="translate(1402.058594 0)"/>
     <use xlink:href="#DejaVuSans-29" transform="translate(1454.158203 0)"/>
    </g>
   </g>
   <g id="Path3DCollection_2">
    <defs>
     <path id="C0_0_8b6395f521" d="M 0 2.12132 
C 0.562581 2.12132 1.102195 1.897805 1.5 1.5 
C 1.897805 1.102195 2.12132 0.562581 2.12132 -0 
C 2.12132 -0.562581 1.897805 -1.102195 1.5 -1.5 
C 1.102195 -1.897805 0.562581 -2.12132 0 -2.12132 
C -0.562581 -2.12132 -1.102195 -1.897805 -1.5 -1.5 
C -1.897805 -1.102195 -2.12132 -0.562581 -2.12132 0 
C -2.12132 0.562581 -1.897805 1.102195 -1.5 1.5 
C -1.102195 1.897805 -0.562581 2.12132 0 2.12132 
z
"/>
    </defs>
    <g clip-path="url(#p8dab6ef4fc)">
     <use xlink:href="#C0_0_8b6395f521" x="215.673286" y="190.381765" style="fill: #333333; fill-opacity: 0.3; stroke: #333333; stroke-opacity: 0.3"/>
    </g>
    <g clip-path="url(#p8dab6ef4fc)">
     <use xlink:href="#C0_0_8b6395f521" x="217.255217" y="65.840923" style="fill: #333333; fill-opacity: 0.400906; stroke: #333333; stroke-opacity: 0.400906"/>
    </g>
    <g clip-path="url(#p8dab6ef4fc)">
     <use xlink:href="#C0_0_8b6395f521" x="47.415367" y="205.249875" style="fill: #333333; fill-opacity: 0.407344; stroke: #333333; stroke-opacity: 0.407344"/>
    </g>
    <g clip-path="url(#p8dab6ef4fc)">
     <use xlink:href="#C0_0_8b6395f521" x="44.518775" y="77.552549" style="fill: #333333; fill-opacity: 0.514017; stroke: #333333; stroke-opacity: 0.514017"/>
    </g>
    <g clip-path="url(#p8dab6ef4fc)">
     <use xlink:href="#C0_0_8b6395f521" x="271.749484" y="250.432363" style="fill: #333333; fill-opacity: 0.733552; stroke: #333333; stroke-opacity: 0.733552"/>
    </g>
    <g clip-path="url(#p8dab6ef4fc)">
     <use xlink:href="#C0_0_8b6395f521" x="275.149465" y="113.247633" style="fill: #333333; fill-opacity: 0.858763; stroke: #333333; stroke-opacity: 0.858763"/>
    </g>
    <g clip-path="url(#p8dab6ef4fc)">
     <use xlink:href="#C0_0_8b6395f521" x="85.748168" y="268.885296" style="fill: #333333; fill-opacity: 0.866778; stroke: #333333; stroke-opacity: 0.866778"/>
    </g>
    <g clip-path="url(#p8dab6ef4fc)">
     <use xlink:href="#C0_0_8b6395f521" x="83.659598" y="127.871353" style="fill: #333333; stroke: #333333"/>
    </g>
   </g>
  </g>
 </g>
 <defs>
  <clipPath id="p8dab6ef4fc">
   <rect x="7.2" y="21.558281" width="288.12" height="288.12"/>
  </clipPath>
 </defs>
</svg>
