<?xml version="1.0" encoding="utf-8" standalone="no"?>
<!DOCTYPE svg PUBLIC "-//W3C//DTD SVG 1.1//EN"
  "http://www.w3.org/Graphics/SVG/1.1/DTD/svg11.dtd">
<svg xmlns:xlink="http://www.w3.org/1999/xlink" width="352.782813pt" height="221.084375pt" viewBox="0 0 352.782813 221.084375" xmlns="http://www.w3.org/2000/svg" version="1.1">
 <metadata>
  <rdf:RDF xmlns:dc="http://purl.org/dc/elements/1.1/" xmlns:cc="http://creativecommons.org/ns#" xmlns:rdf="http://www.w3.org/1999/02/22-rdf-syntax-ns#">
   <cc:Work>
    <dc:type rdf:resource="http://purl.org/dc/dcmitype/StillImage"/>
    <dc:date>2026-03-13T13:18:54.569775</dc:date>
    <dc:format>image/svg+xml</dc:format>
    <dc:creator>
     <cc:Agent>
      <dc:title>Matplotlib v3.10.8, https://matplotlib.org/</dc:title>
     </cc:Agent>
    </dc:creator>
   </cc:Work>
  </rdf:RDF>
 </metadata>
 <defs>
  <style type="text/css">*{stroke-linejoin: round; stroke-linecap: butt}</style>
 </defs>
 <g id="figure_1">
  <g id="patch_1">
   <path d="M 0 221.084375 
L 352.782813 221.084375 
L 352.782813 0 
L 0 0 
z
" style="fill: #ffffff"/>
  </g>
  <g id="axes_1">
   <g id="patch_2">
    <path d="M 38.482813 183.528125 
L 345.582812 183.528125 
L 345.582812 22.318125 
L 38.482813 22.318125 
z
" style="fill: #ffffff"/>
   </g>
   <g id="line2d_1">
    <path d="M 38.482813 145.912458 
L 345.582812 145.912458 
" clip-path="url(#pf9d6b3b09b)" style="fill: none; stroke: #aaaaaa; stroke-width: 0.8; stroke-linecap: square"/>
   </g>
   <g id="matplotlib.axis_1">
    <g id="xtick_1">
     <g id="line2d_2">
      <defs>
       <path id="m704d95454e" d="M 0 0 
L 0 3.5 
" style="stroke: #000000; stroke-width: 0.8"/>
      </defs>
      <g>
       <use xlink:href="#m704d95454e" x="52.441903" y="183.528125" style="stroke: #000000; stroke-width: 0.8"/>
      </g>
     </g>
     <g id="text_1">
      <!-- 0.0 -->
      <g transform="translate(44.490341 198.126562) scale(0.1 -0.1)">
       <defs>
        <path id="DejaVuSans-30" d="M 2034 4250 
Q 1547 4250 1301 3770 
Q 1056 3291 1056 2328 
Q 1056 1369 1301 889 
Q 1547 409 2034 409 
Q 2525 409 2770 889 
Q 3016 1369 3016 2328 
Q 3016 3291 2770 3770 
Q 2525 4250 2034 4250 
z
M 2034 4750 
Q 2819 4750 3233 4129 
Q 3647 3509 3647 2328 
Q 3647 1150 3233 529 
Q 2819 -91 2034 -91 
Q 1250 -91 836 529 
Q 422 1150 422 2328 
Q 422 3509 836 4129 
Q 1250 4750 2034 4750 
z
" transform="scale(0.015625)"/>
        <path id="DejaVuSans-2e" d="M 684 794 
L 1344 794 
L 1344 0 
L 684 0 
L 684 794 
z
" transform="scale(0.015625)"/>
       </defs>
       <use xlink:href="#DejaVuSans-30"/>
       <use xlink:href="#DejaVuSans-2e" transform="translate(63.623047 0)"/>
       <use xlink:href="#DejaVuSans-30" transform="translate(95.410156 0)"/>
      </g>
     </g>
    </g>
    <g id="xtick_2">
     <g id="line2d_3">
      <g>
       <use xlink:href="#m704d95454e" x="108.278267" y="183.528125" style="stroke: #000000; stroke-width: 0.8"/>
      </g>
     </g>
     <g id="text_2">
      <!-- 0.2 -->
      <g transform="translate(100.326705 198.126562) scale(0.1 -0.1)">
       <defs>
        <path id="DejaVuSans-32" d="M 1228 531 
L 3431 531 
L 3431 0 
L 469 0 
L 469 531 
Q 828 903 1448 1529 
Q 2069 2156 2228 2338 
Q 2531 2678 2651 2914 
Q 2772 3150 2772 3378 
Q 2772 3750 2511 3984 
Q 2250 4219 1831 4219 
Q 1534 4219 1204 4116 
Q 875 4013 500 3803 
L 500 4441 
Q 881 4594 1212 4672 
Q 1544 4750 1819 4750 
Q 2544 4750 2975 4387 
Q 3406 4025 3406 3419 
Q 3406 3131 3298 2873 
Q 3191 2616 2906 2266 
Q 2828 2175 2409 1742 
Q 1991 1309 1228 531 
z
" transform="scale(0.015625)"/>
       </defs>
       <use xlink:href="#DejaVuSans-30"/>
       <use xlink:href="#DejaVuSans-2e" transform="translate(63.623047 0)"/>
       <use xlink:href="#DejaVuSans-32" transform="translate(95.410156 0)"/>
      </g>
     </g>
    </g>
    <g id="xtick_3">
     <g id="line2d_4">
      <g>
       <use xlink:href="#m704d95454e" x="164.114631" y="183.528125" style="stroke: #000000; stroke-width: 0.8"/>
      </g>
     </g>
     <g id="text_3">
      <!-- 0.4 -->
      <g transform="translate(156.163068 198.126562) scale(0.1 -0.1)">
       <defs>
        <path id="DejaVuSans-34" d="M 2419 4116 
L 825 1625 
L 2419 1625 
L 2419 4116 
z
M 2253 4666 
L 3047 4666 
L 3047 1625 
L 3713 1625 
L 3713 1100 
L 3047 1100 
L 3047 0 
L 2419 0 
L 2419 1100 
L 313 1100 
L 313 1709 
L 2253 4666 
z
" transform="scale(0.015625)"/>
       </defs>
       <use xlink:href="#DejaVuSans-30"/>
       <use xlink:href="#DejaVuSans-2e" transform="translate(63.623047 0)"/>
       <use xlink:href="#DejaVuSans-34" transform="translate(95.410156 0)"/>
      </g>
     </g>
    </g>
    <g id="xtick_4">
     <g id="line2d_5">
      <g>
       <use xlink:href="#m704d95454e" x="219.950994" y="183.528125" style="stroke: #000000; stroke-width: 0.8"/>
      </g>
     </g>
     <g id="text_4">
      <!-- 0.6 -->
      <g transform="translate(211.999432 198.126562) scale(0.1 -0.1)">
       <defs>
        <path id="DejaVuSans-36" d="M 2113 2584 
Q 1688 2584 1439 2293 
Q 1191 2003 1191 1497 
Q 1191 994 1439 701 
Q 1688 409 2113 409 
Q 2538 409 2786 701 
Q 3034 994 3034 1497 
Q 3034 2003 2786 2293 
Q 2538 2584 2113 2584 
z
M 3366 4563 
L 3366 3988 
Q 3128 4100 2886 4159 
Q 2644 4219 2406 4219 
Q 1781 4219 1451 3797 
Q 1122 3375 1075 2522 
Q 1259 2794 1537 2939 
Q 1816 3084 2150 3084 
Q 2853 3084 3261 2657 
Q 3669 2231 3669 1497 
Q 3669 778 3244 343 
Q 2819 -91 2113 -91 
Q 1303 -91 875 529 
Q 447 1150 447 2328 
Q 447 3434 972 4092 
Q 1497 4750 2381 4750 
Q 2619 4750 2861 4703 
Q 3103 4656 3366 4563 
z
" transform="scale(0.015625)"/>
       </defs>
       <use xlink:href="#DejaVuSans-30"/>
       <use xlink:href="#DejaVuSans-2e" transform="translate(63.623047 0)"/>
       <use xlink:href="#DejaVuSans-36" transform="translate(95.410156 0)"/>
      </g>
     </g>
    </g>
    <g id="xtick_5">
     <g id="line2d_6">
      <g>
       <use xlink:href="#m704d95454e" x="275.787358" y="183.528125" style="stroke: #000000; stroke-width: 0.8"/>
      </g>
     </g>
     <g id="text_5">
      <!-- 0.8 -->
      <g transform="translate(267.835795 198.126562) scale(0.1 -0.1)">
       <defs>
        <path id="DejaVuSans-38" d="M 2034 2216 
Q 1584 2216 1326 1975 
Q 1069 1734 1069 1313 
Q 1069 891 1326 650 
Q 1584 409 2034 409 
Q 2484 409 2743 651 
Q 3003 894 3003 1313 
Q 3003 1734 2745 1975 
Q 2488 2216 2034 2216 
z
M 1403 2484 
Q 997 2584 770 2862 
Q 544 3141 544 3541 
Q 544 4100 942 4425 
Q 1341 4750 2034 4750 
Q 2731 4750 3128 4425 
Q 3525 4100 3525 3541 
Q 3525 3141 3298 2862 
Q 3072 2584 2669 2484 
Q 3125 2378 3379 2068 
Q 3634 1759 3634 1313 
Q 3634 634 3220 271 
Q 2806 -91 2034 -91 
Q 1263 -91 848 271 
Q 434 634 434 1313 
Q 434 1759 690 2068 
Q 947 2378 1403 2484 
z
M 1172 3481 
Q 1172 3119 1398 2916 
Q 1625 2713 2034 2713 
Q 2441 2713 2670 2916 
Q 2900 3119 2900 3481 
Q 2900 3844 2670 4047 
Q 2441 4250 2034 4250 
Q 1625 4250 1398 4047 
Q 1172 3844 1172 3481 
z
" transform="scale(0.015625)"/>
       </defs>
       <use xlink:href="#DejaVuSans-30"/>
       <use xlink:href="#DejaVuSans-2e" transform="translate(63.623047 0)"/>
       <use xlink:href="#DejaVuSans-38" transform="translate(95.410156 0)"/>
      </g>
     </g>
    </g>
    <g id="xtick_6">
     <g id="line2d_7">
      <g>
       <use xlink:href="#m704d95454e" x="331.623722" y="183.528125" style="stroke: #000000; stroke-width: 0.8"/>
      </g>
     </g>
     <g id="text_6">
      <!-- 1.0 -->
      <g transform="translate(323.672159 198.126562) scale(0.1 -0.1)">
       <defs>
        <path id="DejaVuSans-31" d="M 794 531 
L 1825 531 
L 1825 4091 
L 703 3866 
L 703 4441 
L 1819 4666 
L 2450 4666 
L 2450 531 
L 3481 531 
L 3481 0 
L 794 0 
L 794 531 
z
" transform="scale(0.015625)"/>
       </defs>
       <use xlink:href="#DejaVuSans-31"/>
       <use xlink:href="#DejaVuSans-2e" transform="translate(63.623047 0)"/>
       <use xlink:href="#DejaVuSans-30" transform="translate(95.410156 0)"/>
      </g>
     </g>
    </g>
    <g id="text_7">
     <!-- $\hat{x}$ -->
     <g transform="translate(189.032812 211.804687) scale(0.1 -0.1)">
      <defs>
       <path id="DejaVuSans-302" d="M -1831 5119 
L -1369 5119 
L -603 3944 
L -1038 3944 
L -1600 4709 
L -2163 3944 
L -2597 3944 
L -1831 5119 
z
M -1600 3584 
L -1600 3584 
z
" transform="scale(0.015625)"/>
       <path id="DejaVuSans-Oblique-78" d="M 3841 3500 
L 2234 1784 
L 3219 0 
L 2559 0 
L 1819 1388 
L 531 0 
L -166 0 
L 1556 1844 
L 641 3500 
L 1300 3500 
L 1972 2234 
L 3144 3500 
L 3841 3500 
z
" transform="scale(0.015625)"/>
      </defs>
      <use xlink:href="#DejaVuSans-302" transform="translate(62.373047 12.015625)"/>
      <use xlink:href="#DejaVuSans-Oblique-78" transform="translate(0 0.828125)"/>
     </g>
    </g>
   </g>
   <g id="matplotlib.axis_2">
    <g id="ytick_1">
     <g id="line2d_8">
      <defs>
       <path id="m7f803e9b8a" d="M 0 0 
L -3.5 0 
" style="stroke: #000000; stroke-width: 0.8"/>
      </defs>
      <g>
       <use xlink:href="#m7f803e9b8a" x="38.482813" y="167.407125" style="stroke: #000000; stroke-width: 0.8"/>
      </g>
     </g>
     <g id="text_8">
      <!-- −0.2 -->
      <g transform="translate(7.2 171.206344) scale(0.1 -0.1)">
       <defs>
        <path id="DejaVuSans-2212" d="M 678 2272 
L 4684 2272 
L 4684 1741 
L 678 1741 
L 678 2272 
z
" transform="scale(0.015625)"/>
       </defs>
       <use xlink:href="#DejaVuSans-2212"/>
       <use xlink:href="#DejaVuSans-30" transform="translate(83.789062 0)"/>
       <use xlink:href="#DejaVuSans-2e" transform="translate(147.412109 0)"/>
       <use xlink:href="#DejaVuSans-32" transform="translate(179.199219 0)"/>
      </g>
     </g>
    </g>
    <g id="ytick_2">
     <g id="line2d_9">
      <g>
       <use xlink:href="#m7f803e9b8a" x="38.482813" y="145.912458" style="stroke: #000000; stroke-width: 0.8"/>
      </g>
     </g>
     <g id="text_9">
      <!-- 0.0 -->
      <g transform="translate(15.579688 149.711677) scale(0.1 -0.1)">
       <use xlink:href="#DejaVuSans-30"/>
       <use xlink:href="#DejaVuSans-2e" transform="translate(63.623047 0)"/>
       <use xlink:href="#DejaVuSans-30" transform="translate(95.410156 0)"/>
      </g>
     </g>
    </g>
    <g id="ytick_3">
     <g id="line2d_10">
      <g>
       <use xlink:href="#m7f803e9b8a" x="38.482813" y="124.417792" style="stroke: #000000; stroke-width: 0.8"/>
      </g>
     </g>
     <g id="text_10">
      <!-- 0.2 -->
      <g transform="translate(15.579688 128.21701) scale(0.1 -0.1)">
       <use xlink:href="#DejaVuSans-30"/>
       <use xlink:href="#DejaVuSans-2e" transform="translate(63.623047 0)"/>
       <use xlink:href="#DejaVuSans-32" transform="translate(95.410156 0)"/>
      </g>
     </g>
    </g>
    <g id="ytick_4">
     <g id="line2d_11">
      <g>
       <use xlink:href="#m7f803e9b8a" x="38.482813" y="102.923125" style="stroke: #000000; stroke-width: 0.8"/>
      </g>
     </g>
     <g id="text_11">
      <!-- 0.4 -->
      <g transform="translate(15.579688 106.722344) scale(0.1 -0.1)">
       <use xlink:href="#DejaVuSans-30"/>
       <use xlink:href="#DejaVuSans-2e" transform="translate(63.623047 0)"/>
       <use xlink:href="#DejaVuSans-34" transform="translate(95.410156 0)"/>
      </g>
     </g>
    </g>
    <g id="ytick_5">
     <g id="line2d_12">
      <g>
       <use xlink:href="#m7f803e9b8a" x="38.482813" y="81.428458" style="stroke: #000000; stroke-width: 0.8"/>
      </g>
     </g>
     <g id="text_12">
      <!-- 0.6 -->
      <g transform="translate(15.579688 85.227677) scale(0.1 -0.1)">
       <use xlink:href="#DejaVuSans-30"/>
       <use xlink:href="#DejaVuSans-2e" transform="translate(63.623047 0)"/>
       <use xlink:href="#DejaVuSans-36" transform="translate(95.410156 0)"/>
      </g>
     </g>
    </g>
    <g id="ytick_6">
     <g id="line2d_13">
      <g>
       <use xlink:href="#m7f803e9b8a" x="38.482813" y="59.933792" style="stroke: #000000; stroke-width: 0.8"/>
      </g>
     </g>
     <g id="text_13">
      <!-- 0.8 -->
      <g transform="translate(15.579688 63.73301) scale(0.1 -0.1)">
       <use xlink:href="#DejaVuSans-30"/>
       <use xlink:href="#DejaVuSans-2e" transform="translate(63.623047 0)"/>
       <use xlink:href="#DejaVuSans-38" transform="translate(95.410156 0)"/>
      </g>
     </g>
    </g>
    <g id="ytick_7">
     <g id="line2d_14">
      <g>
       <use xlink:href="#m7f803e9b8a" x="38.482813" y="38.439125" style="stroke: #000000; stroke-width: 0.8"/>
      </g>
     </g>
     <g id="text_14">
      <!-- 1.0 -->
      <g transform="translate(15.579688 42.238344) scale(0.1 -0.1)">
       <use xlink:href="#DejaVuSans-31"/>
       <use xlink:href="#DejaVuSans-2e" transform="translate(63.623047 0)"/>
       <use xlink:href="#DejaVuSans-30" transform="translate(95.410156 0)"/>
      </g>
     </g>
    </g>
   </g>
   <g id="line2d_15">
    <path d="M 52.441903 38.439125 
L 59.911651 46.911872 
L 67.381399 55.076869 
L 74.851146 62.934115 
L 82.320894 70.483612 
L 89.790642 77.725358 
L 97.260389 84.659354 
L 104.730137 91.2856 
L 112.199885 97.604096 
L 119.669632 103.614842 
L 127.13938 109.317837 
L 134.609127 114.713082 
L 142.078875 119.800577 
L 148.614904 123.999684 
L 155.150934 127.96317 
L 161.686963 131.691034 
L 168.222992 135.183277 
L 174.759021 138.439899 
L 181.29505 141.4609 
L 187.831079 144.24628 
L 194.367109 146.796038 
L 200.903138 149.110175 
L 207.439167 151.188691 
L 213.975196 153.031585 
L 220.511225 154.638859 
L 227.047255 156.010511 
L 233.583284 157.146542 
L 240.119313 158.046952 
L 246.655342 158.71174 
L 253.191371 159.140907 
L 259.727401 159.334453 
L 266.26343 159.292378 
L 272.799459 159.014682 
L 279.335488 158.501364 
L 285.871517 157.752425 
L 292.407546 156.767865 
L 298.943576 155.547684 
L 305.479605 154.091881 
L 312.015634 152.400457 
L 318.551663 150.473412 
L 325.087692 148.310746 
L 331.623722 145.912458 
L 331.623722 145.912458 
" clip-path="url(#pf9d6b3b09b)" style="fill: none; stroke: #1a5fa8; stroke-width: 2; stroke-linecap: square"/>
   </g>
   <g id="line2d_16">
    <path d="M 52.441903 145.912458 
L 58.977933 148.310746 
L 65.513962 150.473412 
L 72.049991 152.400457 
L 78.58602 154.091881 
L 85.122049 155.547684 
L 91.658079 156.767865 
L 98.194108 157.752425 
L 104.730137 158.501364 
L 111.266166 159.014682 
L 117.802195 159.292378 
L 124.338224 159.334453 
L 130.874254 159.140907 
L 137.410283 158.71174 
L 143.946312 158.046952 
L 150.482341 157.146542 
L 157.01837 156.010511 
L 163.5544 154.638859 
L 170.090429 153.031585 
L 176.626458 151.188691 
L 183.162487 149.110175 
L 189.698516 146.796038 
L 196.234546 144.24628 
L 202.770575 141.4609 
L 209.306604 138.439899 
L 215.842633 135.183277 
L 222.378662 131.691034 
L 228.914691 127.96317 
L 235.450721 123.999684 
L 241.98675 119.800577 
L 248.522779 115.365849 
L 255.992527 110.009073 
L 263.462274 104.344546 
L 270.932022 98.372269 
L 278.40177 92.092242 
L 285.871517 85.504465 
L 293.341265 78.608938 
L 300.811013 71.40566 
L 308.28076 63.894633 
L 315.750508 56.075855 
L 323.220255 47.949327 
L 330.690003 39.515048 
L 331.623722 38.439125 
L 331.623722 38.439125 
" clip-path="url(#pf9d6b3b09b)" style="fill: none; stroke: #c0392b; stroke-width: 2; stroke-linecap: square"/>
   </g>
   <g id="line2d_17">
    <path d="M 52.441903 145.912458 
L 58.977933 136.083687 
L 64.580243 128.034097 
L 70.182554 120.330725 
L 75.784865 112.973572 
L 81.387176 105.962639 
L 86.989486 99.297924 
L 92.591797 92.979428 
L 98.194108 87.007152 
L 103.796418 81.381094 
L 109.398729 76.101255 
L 115.00104 71.167635 
L 120.603351 66.580234 
L 125.271943 63.021872 
L 129.940535 59.703941 
L 134.609127 56.626439 
L 139.27772 53.789367 
L 143.946312 51.192725 
L 148.614904 48.836513 
L 153.283497 46.72073 
L 157.952089 44.845378 
L 162.620681 43.210455 
L 167.289273 41.815962 
L 171.957866 40.661899 
L 176.626458 39.748265 
L 181.29505 39.075062 
L 185.963643 38.642288 
L 190.632235 38.449944 
L 195.300827 38.49803 
L 199.969419 38.786546 
L 204.638012 39.315492 
L 209.306604 40.084867 
L 213.975196 41.094672 
L 218.643788 42.344907 
L 223.312381 43.835572 
L 227.980973 45.566667 
L 232.649565 47.538192 
L 237.318158 49.750146 
L 241.98675 52.20253 
L 246.655342 54.895344 
L 251.323934 57.828588 
L 255.992527 61.002262 
L 260.661119 64.416365 
L 265.329711 68.070899 
L 269.998304 71.965862 
L 275.600614 76.957185 
L 281.202925 82.294727 
L 286.805236 87.978488 
L 292.407546 94.008468 
L 298.009857 100.384667 
L 303.612168 107.107085 
L 309.214479 114.175722 
L 314.816789 121.590577 
L 320.4191 129.351652 
L 326.021411 137.458946 
L 331.623722 145.912458 
L 331.623722 145.912458 
" clip-path="url(#pf9d6b3b09b)" style="fill: none; stroke: #2a9d3e; stroke-width: 2; stroke-linecap: square"/>
   </g>
   <g id="patch_3">
    <path d="M 38.482813 183.528125 
L 38.482813 22.318125 
" style="fill: none; stroke: #000000; stroke-width: 0.8; stroke-linejoin: miter; stroke-linecap: square"/>
   </g>
   <g id="patch_4">
    <path d="M 345.582812 183.528125 
L 345.582812 22.318125 
" style="fill: none; stroke: #000000; stroke-width: 0.8; stroke-linejoin: miter; stroke-linecap: square"/>
   </g>
   <g id="patch_5">
    <path d="M 38.482813 183.528125 
L 345.582812 183.528125 
" style="fill: none; stroke: #000000; stroke-width: 0.8; stroke-linejoin: miter; stroke-linecap: square"/>
   </g>
   <g id="patch_6">
    <path d="M 38.482813 22.318125 
L 345.582812 22.318125 
" style="fill: none; stroke: #000000; stroke-width: 0.8; stroke-linejoin: miter; stroke-linecap: square"/>
   </g>
   <g id="text_15">
    <!-- Line3 shape functions -->
    <g transform="translate(126.156562 16.318125) scale(0.12 -0.12)">
     <defs>
      <path id="DejaVuSans-4c" d="M 628 4666 
L 1259 4666 
L 1259 531 
L 3531 531 
L 3531 0 
L 628 0 
L 628 4666 
z
" transform="scale(0.015625)"/>
      <path id="DejaVuSans-69" d="M 603 3500 
L 1178 3500 
L 1178 0 
L 603 0 
L 603 3500 
z
M 603 4863 
L 1178 4863 
L 1178 4134 
L 603 4134 
L 603 4863 
z
" transform="scale(0.015625)"/>
      <path id="DejaVuSans-6e" d="M 3513 2113 
L 3513 0 
L 2938 0 
L 2938 2094 
Q 2938 2591 2744 2837 
Q 2550 3084 2163 3084 
Q 1697 3084 1428 2787 
Q 1159 2491 1159 1978 
L 1159 0 
L 581 0 
L 581 3500 
L 1159 3500 
L 1159 2956 
Q 1366 3272 1645 3428 
Q 1925 3584 2291 3584 
Q 2894 3584 3203 3211 
Q 3513 2838 3513 2113 
z
" transform="scale(0.015625)"/>
      <path id="DejaVuSans-65" d="M 3597 1894 
L 3597 1613 
L 953 1613 
Q 991 1019 1311 708 
Q 1631 397 2203 397 
Q 2534 397 2845 478 
Q 3156 559 3463 722 
L 3463 178 
Q 3153 47 2828 -22 
Q 2503 -91 2169 -91 
Q 1331 -91 842 396 
Q 353 884 353 1716 
Q 353 2575 817 3079 
Q 1281 3584 2069 3584 
Q 2775 3584 3186 3129 
Q 3597 2675 3597 1894 
z
M 3022 2063 
Q 3016 2534 2758 2815 
Q 2500 3097 2075 3097 
Q 1594 3097 1305 2825 
Q 1016 2553 972 2059 
L 3022 2063 
z
" transform="scale(0.015625)"/>
      <path id="DejaVuSans-33" d="M 2597 2516 
Q 3050 2419 3304 2112 
Q 3559 1806 3559 1356 
Q 3559 666 3084 287 
Q 2609 -91 1734 -91 
Q 1441 -91 1130 -33 
Q 819 25 488 141 
L 488 750 
Q 750 597 1062 519 
Q 1375 441 1716 441 
Q 2309 441 2620 675 
Q 2931 909 2931 1356 
Q 2931 1769 2642 2001 
Q 2353 2234 1838 2234 
L 1294 2234 
L 1294 2753 
L 1863 2753 
Q 2328 2753 2575 2939 
Q 2822 3125 2822 3475 
Q 2822 3834 2567 4026 
Q 2313 4219 1838 4219 
Q 1578 4219 1281 4162 
Q 984 4106 628 3988 
L 628 4550 
Q 988 4650 1302 4700 
Q 1616 4750 1894 4750 
Q 2613 4750 3031 4423 
Q 3450 4097 3450 3541 
Q 3450 3153 3228 2886 
Q 3006 2619 2597 2516 
z
" transform="scale(0.015625)"/>
      <path id="DejaVuSans-20" transform="scale(0.015625)"/>
      <path id="DejaVuSans-73" d="M 2834 3397 
L 2834 2853 
Q 2591 2978 2328 3040 
Q 2066 3103 1784 3103 
Q 1356 3103 1142 2972 
Q 928 2841 928 2578 
Q 928 2378 1081 2264 
Q 1234 2150 1697 2047 
L 1894 2003 
Q 2506 1872 2764 1633 
Q 3022 1394 3022 966 
Q 3022 478 2636 193 
Q 2250 -91 1575 -91 
Q 1294 -91 989 -36 
Q 684 19 347 128 
L 347 722 
Q 666 556 975 473 
Q 1284 391 1588 391 
Q 1994 391 2212 530 
Q 2431 669 2431 922 
Q 2431 1156 2273 1281 
Q 2116 1406 1581 1522 
L 1381 1569 
Q 847 1681 609 1914 
Q 372 2147 372 2553 
Q 372 3047 722 3315 
Q 1072 3584 1716 3584 
Q 2034 3584 2315 3537 
Q 2597 3491 2834 3397 
z
" transform="scale(0.015625)"/>
      <path id="DejaVuSans-68" d="M 3513 2113 
L 3513 0 
L 2938 0 
L 2938 2094 
Q 2938 2591 2744 2837 
Q 2550 3084 2163 3084 
Q 1697 3084 1428 2787 
Q 1159 2491 1159 1978 
L 1159 0 
L 581 0 
L 581 4863 
L 1159 4863 
L 1159 2956 
Q 1366 3272 1645 3428 
Q 1925 3584 2291 3584 
Q 2894 3584 3203 3211 
Q 3513 2838 3513 2113 
z
" transform="scale(0.015625)"/>
      <path id="DejaVuSans-61" d="M 2194 1759 
Q 1497 1759 1228 1600 
Q 959 1441 959 1056 
Q 959 750 1161 570 
Q 1363 391 1709 391 
Q 2188 391 2477 730 
Q 2766 1069 2766 1631 
L 2766 1759 
L 2194 1759 
z
M 3341 1997 
L 3341 0 
L 2766 0 
L 2766 531 
Q 2569 213 2275 61 
Q 1981 -91 1556 -91 
Q 1019 -91 701 211 
Q 384 513 384 1019 
Q 384 1609 779 1909 
Q 1175 2209 1959 2209 
L 2766 2209 
L 2766 2266 
Q 2766 2663 2505 2880 
Q 2244 3097 1772 3097 
Q 1472 3097 1187 3025 
Q 903 2953 641 2809 
L 641 3341 
Q 956 3463 1253 3523 
Q 1550 3584 1831 3584 
Q 2591 3584 2966 3190 
Q 3341 2797 3341 1997 
z
" transform="scale(0.015625)"/>
      <path id="DejaVuSans-70" d="M 1159 525 
L 1159 -1331 
L 581 -1331 
L 581 3500 
L 1159 3500 
L 1159 2969 
Q 1341 3281 1617 3432 
Q 1894 3584 2278 3584 
Q 2916 3584 3314 3078 
Q 3713 2572 3713 1747 
Q 3713 922 3314 415 
Q 2916 -91 2278 -91 
Q 1894 -91 1617 61 
Q 1341 213 1159 525 
z
M 3116 1747 
Q 3116 2381 2855 2742 
Q 2594 3103 2138 3103 
Q 1681 3103 1420 2742 
Q 1159 2381 1159 1747 
Q 1159 1113 1420 752 
Q 1681 391 2138 391 
Q 2594 391 2855 752 
Q 3116 1113 3116 1747 
z
" transform="scale(0.015625)"/>
      <path id="DejaVuSans-66" d="M 2375 4863 
L 2375 4384 
L 1825 4384 
Q 1516 4384 1395 4259 
Q 1275 4134 1275 3809 
L 1275 3500 
L 2222 3500 
L 2222 3053 
L 1275 3053 
L 1275 0 
L 697 0 
L 697 3053 
L 147 3053 
L 147 3500 
L 697 3500 
L 697 3744 
Q 697 4328 969 4595 
Q 1241 4863 1831 4863 
L 2375 4863 
z
" transform="scale(0.015625)"/>
      <path id="DejaVuSans-75" d="M 544 1381 
L 544 3500 
L 1119 3500 
L 1119 1403 
Q 1119 906 1312 657 
Q 1506 409 1894 409 
Q 2359 409 2629 706 
Q 2900 1003 2900 1516 
L 2900 3500 
L 3475 3500 
L 3475 0 
L 2900 0 
L 2900 538 
Q 2691 219 2414 64 
Q 2138 -91 1772 -91 
Q 1169 -91 856 284 
Q 544 659 544 1381 
z
M 1991 3584 
L 1991 3584 
z
" transform="scale(0.015625)"/>
      <path id="DejaVuSans-63" d="M 3122 3366 
L 3122 2828 
Q 2878 2963 2633 3030 
Q 2388 3097 2138 3097 
Q 1578 3097 1268 2742 
Q 959 2388 959 1747 
Q 959 1106 1268 751 
Q 1578 397 2138 397 
Q 2388 397 2633 464 
Q 2878 531 3122 666 
L 3122 134 
Q 2881 22 2623 -34 
Q 2366 -91 2075 -91 
Q 1284 -91 818 406 
Q 353 903 353 1747 
Q 353 2603 823 3093 
Q 1294 3584 2113 3584 
Q 2378 3584 2631 3529 
Q 2884 3475 3122 3366 
z
" transform="scale(0.015625)"/>
      <path id="DejaVuSans-74" d="M 1172 4494 
L 1172 3500 
L 2356 3500 
L 2356 3053 
L 1172 3053 
L 1172 1153 
Q 1172 725 1289 603 
Q 1406 481 1766 481 
L 2356 481 
L 2356 0 
L 1766 0 
Q 1100 0 847 248 
Q 594 497 594 1153 
L 594 3053 
L 172 3053 
L 172 3500 
L 594 3500 
L 594 4494 
L 1172 4494 
z
" transform="scale(0.015625)"/>
      <path id="DejaVuSans-6f" d="M 1959 3097 
Q 1497 3097 1228 2736 
Q 959 2375 959 1747 
Q 959 1119 1226 758 
Q 1494 397 1959 397 
Q 2419 397 2687 759 
Q 2956 1122 2956 1747 
Q 2956 2369 2687 2733 
Q 2419 3097 1959 3097 
z
M 1959 3584 
Q 2709 3584 3137 3096 
Q 3566 2609 3566 1747 
Q 3566 888 3137 398 
Q 2709 -91 1959 -91 
Q 1206 -91 779 398 
Q 353 888 353 1747 
Q 353 2609 779 3096 
Q 1206 3584 1959 3584 
z
" transform="scale(0.015625)"/>
     </defs>
     <use xlink:href="#DejaVuSans-4c"/>
     <use xlink:href="#DejaVuSans-69" transform="translate(55.712891 0)"/>
     <use xlink:href="#DejaVuSans-6e" transform="translate(83.496094 0)"/>
     <use xlink:href="#DejaVuSans-65" transform="translate(146.875 0)"/>
     <use xlink:href="#DejaVuSans-33" transform="translate(208.398438 0)"/>
     <use xlink:href="#DejaVuSans-20" transform="translate(272.021484 0)"/>
     <use xlink:href="#DejaVuSans-73" transform="translate(303.808594 0)"/>
     <use xlink:href="#DejaVuSans-68" transform="translate(355.908203 0)"/>
     <use xlink:href="#DejaVuSans-61" transform="translate(419.287109 0)"/>
     <use xlink:href="#DejaVuSans-70" transform="translate(480.566406 0)"/>
     <use xlink:href="#DejaVuSans-65" transform="translate(544.042969 0)"/>
     <use xlink:href="#DejaVuSans-20" transform="translate(605.566406 0)"/>
     <use xlink:href="#DejaVuSans-66" transform="translate(637.353516 0)"/>
     <use xlink:href="#DejaVuSans-75" transform="translate(672.558594 0)"/>
     <use xlink:href="#DejaVuSans-6e" transform="translate(735.9375 0)"/>
     <use xlink:href="#DejaVuSans-63" transform="translate(799.316406 0)"/>
     <use xlink:href="#DejaVuSans-74" transform="translate(854.296875 0)"/>
     <use xlink:href="#DejaVuSans-69" transform="translate(893.505859 0)"/>
     <use xlink:href="#DejaVuSans-6f" transform="translate(921.289062 0)"/>
     <use xlink:href="#DejaVuSans-6e" transform="translate(982.470703 0)"/>
     <use xlink:href="#DejaVuSans-73" transform="translate(1045.849609 0)"/>
    </g>
   </g>
   <g id="line2d_18">
    <defs>
     <path id="mff995ec73d" d="M 0 7 
L 0 -7 
" style="stroke: #555555; stroke-width: 2"/>
    </defs>
    <g clip-path="url(#pf9d6b3b09b)">
     <use xlink:href="#mff995ec73d" x="52.441903" y="145.912458" style="fill: #555555; stroke: #555555; stroke-width: 2"/>
     <use xlink:href="#mff995ec73d" x="331.623722" y="145.912458" style="fill: #555555; stroke: #555555; stroke-width: 2"/>
     <use xlink:href="#mff995ec73d" x="192.032812" y="145.912458" style="fill: #555555; stroke: #555555; stroke-width: 2"/>
    </g>
   </g>
   <g id="line2d_19">
    <defs>
     <path id="m32c2965c0e" d="M 0 3 
C 0.795609 3 1.55874 2.683901 2.12132 2.12132 
C 2.683901 1.55874 3 0.795609 3 0 
C 3 -0.795609 2.683901 -1.55874 2.12132 -2.12132 
C 1.55874 -2.683901 0.795609 -3 0 -3 
C -0.795609 -3 -1.55874 -2.683901 -2.12132 -2.12132 
C -2.683901 -1.55874 -3 -0.795609 -3 0 
C -3 0.795609 -2.683901 1.55874 -2.12132 2.12132 
C -1.55874 2.683901 -0.795609 3 0 3 
z
" style="stroke: #555555"/>
    </defs>
    <g clip-path="url(#pf9d6b3b09b)">
     <use xlink:href="#m32c2965c0e" x="52.441903" y="145.912458" style="fill: #555555; stroke: #555555"/>
     <use xlink:href="#m32c2965c0e" x="331.623722" y="145.912458" style="fill: #555555; stroke: #555555"/>
     <use xlink:href="#m32c2965c0e" x="192.032812" y="145.912458" style="fill: #555555; stroke: #555555"/>
    </g>
   </g>
   <g id="legend_1">
    <g id="patch_7">
     <path d="M 128.232812 128.323125 
L 255.832812 128.323125 
Q 257.832812 128.323125 257.832812 126.323125 
L 257.832812 79.523125 
Q 257.832812 77.523125 255.832812 77.523125 
L 128.232812 77.523125 
Q 126.232812 77.523125 126.232812 79.523125 
L 126.232812 126.323125 
Q 126.232812 128.323125 128.232812 128.323125 
z
" style="fill: #ffffff; opacity: 0.8; stroke: #cccccc; stroke-linejoin: miter"/>
    </g>
    <g id="line2d_20">
     <path d="M 130.232812 86.943437 
L 140.232812 86.943437 
L 150.232812 86.943437 
" style="fill: none; stroke: #1a5fa8; stroke-width: 2; stroke-linecap: square"/>
    </g>
    <g id="text_16">
     <!-- $N_0 = (1-\hat{x})(1-2\hat{x})$ -->
     <g transform="translate(158.232812 90.443437) scale(0.1 -0.1)">
      <defs>
       <path id="DejaVuSans-Oblique-4e" d="M 1081 4666 
L 1931 4666 
L 3219 666 
L 4000 4666 
L 4616 4666 
L 3706 0 
L 2853 0 
L 1569 4025 
L 788 0 
L 172 0 
L 1081 4666 
z
" transform="scale(0.015625)"/>
       <path id="DejaVuSans-3d" d="M 678 2906 
L 4684 2906 
L 4684 2381 
L 678 2381 
L 678 2906 
z
M 678 1631 
L 4684 1631 
L 4684 1100 
L 678 1100 
L 678 1631 
z
" transform="scale(0.015625)"/>
       <path id="DejaVuSans-28" d="M 1984 4856 
Q 1566 4138 1362 3434 
Q 1159 2731 1159 2009 
Q 1159 1288 1364 580 
Q 1569 -128 1984 -844 
L 1484 -844 
Q 1016 -109 783 600 
Q 550 1309 550 2009 
Q 550 2706 781 3412 
Q 1013 4119 1484 4856 
L 1984 4856 
z
" transform="scale(0.015625)"/>
       <path id="DejaVuSans-29" d="M 513 4856 
L 1013 4856 
Q 1481 4119 1714 3412 
Q 1947 2706 1947 2009 
Q 1947 1309 1714 600 
Q 1481 -109 1013 -844 
L 513 -844 
Q 928 -128 1133 580 
Q 1338 1288 1338 2009 
Q 1338 2731 1133 3434 
Q 928 4138 513 4856 
z
" transform="scale(0.015625)"/>
      </defs>
      <use xlink:href="#DejaVuSans-Oblique-4e" transform="translate(0 0.828125)"/>
      <use xlink:href="#DejaVuSans-30" transform="translate(74.804688 -15.578125) scale(0.7)"/>
      <use xlink:href="#DejaVuSans-3d" transform="translate(141.557617 0.828125)"/>
      <use xlink:href="#DejaVuSans-28" transform="translate(244.829102 0.828125)"/>
      <use xlink:href="#DejaVuSans-31" transform="translate(283.842773 0.828125)"/>
      <use xlink:href="#DejaVuSans-2212" transform="translate(366.948242 0.828125)"/>
      <use xlink:href="#DejaVuSans-302" transform="translate(532.592773 12.015625)"/>
      <use xlink:href="#DejaVuSans-Oblique-78" transform="translate(470.219727 0.828125)"/>
      <use xlink:href="#DejaVuSans-29" transform="translate(529.399414 0.828125)"/>
      <use xlink:href="#DejaVuSans-28" transform="translate(568.413086 0.828125)"/>
      <use xlink:href="#DejaVuSans-31" transform="translate(607.426758 0.828125)"/>
      <use xlink:href="#DejaVuSans-2212" transform="translate(690.532227 0.828125)"/>
      <use xlink:href="#DejaVuSans-32" transform="translate(793.803711 0.828125)"/>
      <use xlink:href="#DejaVuSans-302" transform="translate(919.799805 12.015625)"/>
      <use xlink:href="#DejaVuSans-Oblique-78" transform="translate(857.426758 0.828125)"/>
      <use xlink:href="#DejaVuSans-29" transform="translate(916.606445 0.828125)"/>
     </g>
    </g>
    <g id="line2d_21">
     <path d="M 130.232812 102.843437 
L 140.232812 102.843437 
L 150.232812 102.843437 
" style="fill: none; stroke: #c0392b; stroke-width: 2; stroke-linecap: square"/>
    </g>
    <g id="text_17">
     <!-- $N_1 = \hat{x}(2\hat{x}-1)$ -->
     <g transform="translate(158.232812 106.343437) scale(0.1 -0.1)">
      <use xlink:href="#DejaVuSans-Oblique-4e" transform="translate(0 0.828125)"/>
      <use xlink:href="#DejaVuSans-31" transform="translate(74.804688 -15.578125) scale(0.7)"/>
      <use xlink:href="#DejaVuSans-3d" transform="translate(141.557617 0.828125)"/>
      <use xlink:href="#DejaVuSans-302" transform="translate(307.202148 12.015625)"/>
      <use xlink:href="#DejaVuSans-Oblique-78" transform="translate(244.829102 0.828125)"/>
      <use xlink:href="#DejaVuSans-28" transform="translate(304.008789 0.828125)"/>
      <use xlink:href="#DejaVuSans-32" transform="translate(343.022461 0.828125)"/>
      <use xlink:href="#DejaVuSans-302" transform="translate(469.018555 12.015625)"/>
      <use xlink:href="#DejaVuSans-Oblique-78" transform="translate(406.645508 0.828125)"/>
      <use xlink:href="#DejaVuSans-2212" transform="translate(485.307617 0.828125)"/>
      <use xlink:href="#DejaVuSans-31" transform="translate(588.579102 0.828125)"/>
      <use xlink:href="#DejaVuSans-29" transform="translate(652.202148 0.828125)"/>
     </g>
    </g>
    <g id="line2d_22">
     <path d="M 130.232812 118.743437 
L 140.232812 118.743437 
L 150.232812 118.743437 
" style="fill: none; stroke: #2a9d3e; stroke-width: 2; stroke-linecap: square"/>
    </g>
    <g id="text_18">
     <!-- $N_2 = 4\hat{x}(1-\hat{x})$ -->
     <g transform="translate(158.232812 122.243437) scale(0.1 -0.1)">
      <use xlink:href="#DejaVuSans-Oblique-4e" transform="translate(0 0.828125)"/>
      <use xlink:href="#DejaVuSans-32" transform="translate(74.804688 -15.578125) scale(0.7)"/>
      <use xlink:href="#DejaVuSans-3d" transform="translate(141.557617 0.828125)"/>
      <use xlink:href="#DejaVuSans-34" transform="translate(244.829102 0.828125)"/>
      <use xlink:href="#DejaVuSans-302" transform="translate(370.825195 12.015625)"/>
      <use xlink:href="#DejaVuSans-Oblique-78" transform="translate(308.452148 0.828125)"/>
      <use xlink:href="#DejaVuSans-28" transform="translate(367.631836 0.828125)"/>
      <use xlink:href="#DejaVuSans-31" transform="translate(406.645508 0.828125)"/>
      <use xlink:href="#DejaVuSans-2212" transform="translate(489.750977 0.828125)"/>
      <use xlink:href="#DejaVuSans-302" transform="translate(655.395508 12.015625)"/>
      <use xlink:href="#DejaVuSans-Oblique-78" transform="translate(593.022461 0.828125)"/>
      <use xlink:href="#DejaVuSans-29" transform="translate(652.202148 0.828125)"/>
     </g>
    </g>
   </g>
  </g>
 </g>
 <defs>
  <clipPath id="pf9d6b3b09b">
   <rect x="38.482813" y="22.318125" width="307.1" height="161.21"/>
  </clipPath>
 </defs>
</svg>
