<?xml version="1.0" encoding="utf-8" standalone="no"?>
<!DOCTYPE svg PUBLIC "-//W3C//DTD SVG 1.1//EN"
  "http://www.w3.org/Graphics/SVG/1.1/DTD/svg11.dtd">
<svg xmlns:xlink="http://www.w3.org/1999/xlink" width="424.67pt" height="244.578906pt" viewBox="0 0 424.67 244.578906" xmlns="http://www.w3.org/2000/svg" version="1.1">
 <metadata>
  <rdf:RDF xmlns:dc="http://purl.org/dc/elements/1.1/" xmlns:cc="http://creativecommons.org/ns#" xmlns:rdf="http://www.w3.org/1999/02/22-rdf-syntax-ns#">
   <cc:Work>
    <dc:type rdf:resource="http://purl.org/dc/dcmitype/StillImage"/>
    <dc:date>2026-03-11T11:01:19.571533</dc:date>
    <dc:format>image/svg+xml</dc:format>
    <dc:creator>
     <cc:Agent>
      <dc:title>Matplotlib v3.10.8, https://matplotlib.org/</dc:title>
     </cc:Agent>
    </dc:creator>
   </cc:Work>
  </rdf:RDF>
 </metadata>
 <defs>
  <style type="text/css">*{stroke-linejoin: round; stroke-linecap: butt}</style>
 </defs>
 <g id="figure_1">
  <g id="patch_1">
   <path d="M 0 244.578906 
L 424.67 244.578906 
L 424.67 0 
L 0 0 
z
" style="fill: #ffffff"/>
  </g>
  <g id="axes_1">
   <g id="patch_2">
    <path d="M 50.625625 204.119219 
L 417.47 204.119219 
L 417.47 10.999219 
L 50.625625 10.999219 
z
" style="fill: #ffffff"/>
   </g>
   <g id="FillBetweenPolyCollection_1">
    <defs>
     <path id="m23ef0057c8" d="M 67.300369 -51.819688 
L 67.300369 -51.819688 
L 68.415737 -53.713 
L 69.531104 -55.593605 
L 70.646472 -57.461504 
L 71.761839 -59.316695 
L 72.877207 -61.15918 
L 73.992574 -62.988959 
L 75.107942 -64.80603 
L 76.223309 -66.610395 
L 77.338677 -68.402052 
L 78.454044 -70.181003 
L 79.569412 -71.947248 
L 80.684779 -73.700785 
L 81.800147 -75.441616 
L 82.915514 -77.16974 
L 84.030882 -78.885157 
L 85.14625 -80.587867 
L 86.261617 -82.27787 
L 87.376985 -83.955167 
L 88.492352 -85.619757 
L 89.60772 -87.27164 
L 90.723087 -88.910816 
L 91.838455 -90.537286 
L 92.953822 -92.151048 
L 94.06919 -93.752104 
L 95.184557 -95.340453 
L 96.299925 -96.916096 
L 97.415292 -98.479031 
L 98.53066 -100.02926 
L 99.646027 -101.566782 
L 100.761395 -103.091597 
L 101.876762 -104.603706 
L 102.99213 -106.103107 
L 104.107497 -107.589802 
L 105.222865 -109.06379 
L 106.338232 -110.525071 
L 107.4536 -111.973646 
L 108.568967 -113.409513 
L 109.684335 -114.832674 
L 110.799702 -116.243128 
L 111.91507 -117.640875 
L 113.030437 -119.025916 
L 114.145805 -120.398249 
L 115.261172 -121.757876 
L 116.37654 -123.104796 
L 117.491907 -124.439009 
L 118.607275 -125.760516 
L 119.722642 -127.069316 
L 120.83801 -128.365408 
L 121.953377 -129.648795 
L 123.068745 -130.919474 
L 124.184112 -132.177446 
L 125.29948 -133.422712 
L 126.414848 -134.655271 
L 127.530215 -135.875123 
L 128.645583 -137.082268 
L 129.76095 -138.276707 
L 130.876318 -139.458439 
L 131.991685 -140.627464 
L 133.107053 -141.783782 
L 134.22242 -142.927393 
L 135.337788 -144.058298 
L 136.453155 -145.176496 
L 137.568523 -146.281987 
L 138.68389 -147.374771 
L 139.799258 -148.454848 
L 140.914625 -149.522219 
L 142.029993 -150.576883 
L 143.14536 -151.61884 
L 144.260728 -152.64809 
L 145.376095 -153.664633 
L 146.491463 -154.66847 
L 147.60683 -155.6596 
L 148.722198 -156.638023 
L 149.837565 -157.603739 
L 150.952933 -158.556749 
L 152.0683 -159.497051 
L 153.183668 -160.424647 
L 154.299035 -161.339536 
L 155.414403 -162.241719 
L 156.52977 -163.131194 
L 157.645138 -164.007963 
L 158.760505 -164.872025 
L 159.875873 -165.72338 
L 160.99124 -166.562028 
L 162.106608 -167.38797 
L 163.221975 -168.201204 
L 164.337343 -169.001732 
L 165.45271 -169.789554 
L 166.568078 -170.564668 
L 167.683445 -171.327076 
L 168.798813 -172.076776 
L 169.914181 -172.81377 
L 171.029548 -173.538058 
L 172.144916 -174.249638 
L 173.260283 -174.948512 
L 174.375651 -175.634678 
L 175.491018 -176.308138 
L 176.606386 -176.968892 
L 177.721753 -177.616938 
L 178.837121 -178.252278 
L 179.952488 -178.874911 
L 181.067856 -179.484837 
L 182.183223 -180.082056 
L 183.298591 -180.666568 
L 184.413958 -181.238374 
L 185.529326 -181.797473 
L 186.644693 -182.343865 
L 187.760061 -182.87755 
L 188.875428 -183.398529 
L 189.990796 -183.906801 
L 191.106163 -184.402366 
L 192.221531 -184.885224 
L 193.336898 -185.355375 
L 194.452266 -185.81282 
L 195.567633 -186.257557 
L 196.683001 -186.689588 
L 197.798368 -187.108912 
L 198.913736 -187.51553 
L 200.029103 -187.90944 
L 201.144471 -188.290644 
L 202.259838 -188.659141 
L 203.375206 -189.014931 
L 204.490573 -189.358015 
L 205.605941 -189.688391 
L 206.721308 -190.006061 
L 207.836676 -190.311024 
L 208.952043 -190.603281 
L 210.067411 -190.88283 
L 211.182778 -191.149673 
L 212.298146 -191.403808 
L 213.413514 -191.645238 
L 214.528881 -191.87396 
L 215.644249 -192.089975 
L 216.759616 -192.293284 
L 217.874984 -192.483886 
L 218.990351 -192.661781 
L 220.105719 -192.826969 
L 221.221086 -192.979451 
L 222.336454 -193.119226 
L 223.451821 -193.246293 
L 224.567189 -193.360655 
L 225.682556 -193.462309 
L 226.797924 -193.551256 
L 227.913291 -193.627497 
L 229.028659 -193.691031 
L 230.144026 -193.741858 
L 231.259394 -193.779979 
L 232.374761 -193.805392 
L 233.490129 -193.818099 
L 234.605496 -193.818099 
L 235.720864 -193.805392 
L 236.836231 -193.779979 
L 237.951599 -193.741858 
L 239.066966 -193.691031 
L 240.182334 -193.627497 
L 241.297701 -193.551256 
L 242.413069 -193.462309 
L 243.528436 -193.360655 
L 244.643804 -193.246293 
L 245.759171 -193.119226 
L 246.874539 -192.979451 
L 247.989906 -192.826969 
L 249.105274 -192.661781 
L 250.220641 -192.483886 
L 251.336009 -192.293284 
L 252.451376 -192.089975 
L 253.566744 -191.87396 
L 254.682111 -191.645238 
L 255.797479 -191.403808 
L 256.912847 -191.149673 
L 258.028214 -190.88283 
L 259.143582 -190.603281 
L 260.258949 -190.311024 
L 261.374317 -190.006061 
L 262.489684 -189.688391 
L 263.605052 -189.358015 
L 264.720419 -189.014931 
L 265.835787 -188.659141 
L 266.951154 -188.290644 
L 268.066522 -187.90944 
L 269.181889 -187.51553 
L 270.297257 -187.108912 
L 271.412624 -186.689588 
L 272.527992 -186.257557 
L 273.643359 -185.81282 
L 274.758727 -185.355375 
L 275.874094 -184.885224 
L 276.989462 -184.402366 
L 278.104829 -183.906801 
L 279.220197 -183.398529 
L 280.335564 -182.87755 
L 281.450932 -182.343865 
L 282.566299 -181.797473 
L 283.681667 -181.238374 
L 284.797034 -180.666568 
L 285.912402 -180.082056 
L 287.027769 -179.484837 
L 288.143137 -178.874911 
L 289.258504 -178.252278 
L 290.373872 -177.616938 
L 291.489239 -176.968892 
L 292.604607 -176.308138 
L 293.719974 -175.634678 
L 294.835342 -174.948512 
L 295.950709 -174.249638 
L 297.066077 -173.538058 
L 298.181444 -172.81377 
L 299.296812 -172.076776 
L 300.41218 -171.327076 
L 301.527547 -170.564668 
L 302.642915 -169.789554 
L 303.758282 -169.001732 
L 304.87365 -168.201204 
L 305.989017 -167.38797 
L 307.104385 -166.562028 
L 308.219752 -165.72338 
L 309.33512 -164.872025 
L 310.450487 -164.007963 
L 311.565855 -163.131194 
L 312.681222 -162.241719 
L 313.79659 -161.339536 
L 314.911957 -160.424647 
L 316.027325 -159.497051 
L 317.142692 -158.556749 
L 318.25806 -157.603739 
L 319.373427 -156.638023 
L 320.488795 -155.6596 
L 321.604162 -154.66847 
L 322.71953 -153.664633 
L 323.834897 -152.64809 
L 324.950265 -151.61884 
L 326.065632 -150.576883 
L 327.181 -149.522219 
L 328.296367 -148.454848 
L 329.411735 -147.374771 
L 330.527102 -146.281987 
L 331.64247 -145.176496 
L 332.757837 -144.058298 
L 333.873205 -142.927393 
L 334.988572 -141.783782 
L 336.10394 -140.627464 
L 337.219307 -139.458439 
L 338.334675 -138.276707 
L 339.450042 -137.082268 
L 340.56541 -135.875123 
L 341.680777 -134.655271 
L 342.796145 -133.422712 
L 343.911513 -132.177446 
L 345.02688 -130.919474 
L 346.142248 -129.648795 
L 347.257615 -128.365408 
L 348.372983 -127.069316 
L 349.48835 -125.760516 
L 350.603718 -124.439009 
L 351.719085 -123.104796 
L 352.834453 -121.757876 
L 353.94982 -120.398249 
L 355.065188 -119.025916 
L 356.180555 -117.640875 
L 357.295923 -116.243128 
L 358.41129 -114.832674 
L 359.526658 -113.409513 
L 360.642025 -111.973646 
L 361.757393 -110.525071 
L 362.87276 -109.06379 
L 363.988128 -107.589802 
L 365.103495 -106.103107 
L 366.218863 -104.603706 
L 367.33423 -103.091597 
L 368.449598 -101.566782 
L 369.564965 -100.02926 
L 370.680333 -98.479031 
L 371.7957 -96.916096 
L 372.911068 -95.340453 
L 374.026435 -93.752104 
L 375.141803 -92.151048 
L 376.25717 -90.537286 
L 377.372538 -88.910816 
L 378.487905 -87.27164 
L 379.603273 -85.619757 
L 380.71864 -83.955167 
L 381.834008 -82.27787 
L 382.949375 -80.587867 
L 384.064743 -78.885157 
L 385.180111 -77.16974 
L 386.295478 -75.441616 
L 387.410846 -73.700785 
L 388.526213 -71.947248 
L 389.641581 -70.181003 
L 390.756948 -68.402052 
L 391.872316 -66.610395 
L 392.987683 -64.80603 
L 394.103051 -62.988959 
L 395.218418 -61.15918 
L 396.333786 -59.316695 
L 397.449153 -57.461504 
L 398.564521 -55.593605 
L 399.679888 -53.713 
L 400.795256 -51.819688 
L 400.795256 -51.819688 
L 400.795256 -51.819688 
L 399.679888 -51.819688 
L 398.564521 -51.819688 
L 397.449153 -51.819688 
L 396.333786 -51.819688 
L 395.218418 -51.819688 
L 394.103051 -51.819688 
L 392.987683 -51.819688 
L 391.872316 -51.819688 
L 390.756948 -51.819688 
L 389.641581 -51.819688 
L 388.526213 -51.819688 
L 387.410846 -51.819688 
L 386.295478 -51.819688 
L 385.180111 -51.819688 
L 384.064743 -51.819688 
L 382.949375 -51.819688 
L 381.834008 -51.819688 
L 380.71864 -51.819688 
L 379.603273 -51.819688 
L 378.487905 -51.819688 
L 377.372538 -51.819688 
L 376.25717 -51.819688 
L 375.141803 -51.819688 
L 374.026435 -51.819688 
L 372.911068 -51.819688 
L 371.7957 -51.819688 
L 370.680333 -51.819688 
L 369.564965 -51.819688 
L 368.449598 -51.819688 
L 367.33423 -51.819688 
L 366.218863 -51.819688 
L 365.103495 -51.819688 
L 363.988128 -51.819688 
L 362.87276 -51.819688 
L 361.757393 -51.819688 
L 360.642025 -51.819688 
L 359.526658 -51.819688 
L 358.41129 -51.819688 
L 357.295923 -51.819688 
L 356.180555 -51.819688 
L 355.065188 -51.819688 
L 353.94982 -51.819688 
L 352.834453 -51.819688 
L 351.719085 -51.819688 
L 350.603718 -51.819688 
L 349.48835 -51.819688 
L 348.372983 -51.819688 
L 347.257615 -51.819688 
L 346.142248 -51.819688 
L 345.02688 -51.819688 
L 343.911513 -51.819688 
L 342.796145 -51.819688 
L 341.680777 -51.819688 
L 340.56541 -51.819688 
L 339.450042 -51.819688 
L 338.334675 -51.819688 
L 337.219307 -51.819688 
L 336.10394 -51.819688 
L 334.988572 -51.819688 
L 333.873205 -51.819688 
L 332.757837 -51.819688 
L 331.64247 -51.819688 
L 330.527102 -51.819688 
L 329.411735 -51.819688 
L 328.296367 -51.819688 
L 327.181 -51.819688 
L 326.065632 -51.819688 
L 324.950265 -51.819688 
L 323.834897 -51.819688 
L 322.71953 -51.819688 
L 321.604162 -51.819688 
L 320.488795 -51.819688 
L 319.373427 -51.819688 
L 318.25806 -51.819688 
L 317.142692 -51.819688 
L 316.027325 -51.819688 
L 314.911957 -51.819688 
L 313.79659 -51.819688 
L 312.681222 -51.819688 
L 311.565855 -51.819688 
L 310.450487 -51.819688 
L 309.33512 -51.819688 
L 308.219752 -51.819688 
L 307.104385 -51.819688 
L 305.989017 -51.819688 
L 304.87365 -51.819688 
L 303.758282 -51.819688 
L 302.642915 -51.819688 
L 301.527547 -51.819688 
L 300.41218 -51.819688 
L 299.296812 -51.819688 
L 298.181444 -51.819688 
L 297.066077 -51.819688 
L 295.950709 -51.819688 
L 294.835342 -51.819688 
L 293.719974 -51.819688 
L 292.604607 -51.819688 
L 291.489239 -51.819688 
L 290.373872 -51.819688 
L 289.258504 -51.819688 
L 288.143137 -51.819688 
L 287.027769 -51.819688 
L 285.912402 -51.819688 
L 284.797034 -51.819688 
L 283.681667 -51.819688 
L 282.566299 -51.819688 
L 281.450932 -51.819688 
L 280.335564 -51.819688 
L 279.220197 -51.819688 
L 278.104829 -51.819688 
L 276.989462 -51.819688 
L 275.874094 -51.819688 
L 274.758727 -51.819688 
L 273.643359 -51.819688 
L 272.527992 -51.819688 
L 271.412624 -51.819688 
L 270.297257 -51.819688 
L 269.181889 -51.819688 
L 268.066522 -51.819688 
L 266.951154 -51.819688 
L 265.835787 -51.819688 
L 264.720419 -51.819688 
L 263.605052 -51.819688 
L 262.489684 -51.819688 
L 261.374317 -51.819688 
L 260.258949 -51.819688 
L 259.143582 -51.819688 
L 258.028214 -51.819688 
L 256.912847 -51.819688 
L 255.797479 -51.819688 
L 254.682111 -51.819688 
L 253.566744 -51.819688 
L 252.451376 -51.819688 
L 251.336009 -51.819688 
L 250.220641 -51.819688 
L 249.105274 -51.819688 
L 247.989906 -51.819688 
L 246.874539 -51.819688 
L 245.759171 -51.819688 
L 244.643804 -51.819688 
L 243.528436 -51.819688 
L 242.413069 -51.819688 
L 241.297701 -51.819688 
L 240.182334 -51.819688 
L 239.066966 -51.819688 
L 237.951599 -51.819688 
L 236.836231 -51.819688 
L 235.720864 -51.819688 
L 234.605496 -51.819688 
L 233.490129 -51.819688 
L 232.374761 -51.819688 
L 231.259394 -51.819688 
L 230.144026 -51.819688 
L 229.028659 -51.819688 
L 227.913291 -51.819688 
L 226.797924 -51.819688 
L 225.682556 -51.819688 
L 224.567189 -51.819688 
L 223.451821 -51.819688 
L 222.336454 -51.819688 
L 221.221086 -51.819688 
L 220.105719 -51.819688 
L 218.990351 -51.819688 
L 217.874984 -51.819688 
L 216.759616 -51.819688 
L 215.644249 -51.819688 
L 214.528881 -51.819688 
L 213.413514 -51.819688 
L 212.298146 -51.819688 
L 211.182778 -51.819688 
L 210.067411 -51.819688 
L 208.952043 -51.819688 
L 207.836676 -51.819688 
L 206.721308 -51.819688 
L 205.605941 -51.819688 
L 204.490573 -51.819688 
L 203.375206 -51.819688 
L 202.259838 -51.819688 
L 201.144471 -51.819688 
L 200.029103 -51.819688 
L 198.913736 -51.819688 
L 197.798368 -51.819688 
L 196.683001 -51.819688 
L 195.567633 -51.819688 
L 194.452266 -51.819688 
L 193.336898 -51.819688 
L 192.221531 -51.819688 
L 191.106163 -51.819688 
L 189.990796 -51.819688 
L 188.875428 -51.819688 
L 187.760061 -51.819688 
L 186.644693 -51.819688 
L 185.529326 -51.819688 
L 184.413958 -51.819688 
L 183.298591 -51.819688 
L 182.183223 -51.819688 
L 181.067856 -51.819688 
L 179.952488 -51.819688 
L 178.837121 -51.819688 
L 177.721753 -51.819688 
L 176.606386 -51.819688 
L 175.491018 -51.819688 
L 174.375651 -51.819688 
L 173.260283 -51.819688 
L 172.144916 -51.819688 
L 171.029548 -51.819688 
L 169.914181 -51.819688 
L 168.798813 -51.819688 
L 167.683445 -51.819688 
L 166.568078 -51.819688 
L 165.45271 -51.819688 
L 164.337343 -51.819688 
L 163.221975 -51.819688 
L 162.106608 -51.819688 
L 160.99124 -51.819688 
L 159.875873 -51.819688 
L 158.760505 -51.819688 
L 157.645138 -51.819688 
L 156.52977 -51.819688 
L 155.414403 -51.819688 
L 154.299035 -51.819688 
L 153.183668 -51.819688 
L 152.0683 -51.819688 
L 150.952933 -51.819688 
L 149.837565 -51.819688 
L 148.722198 -51.819688 
L 147.60683 -51.819688 
L 146.491463 -51.819688 
L 145.376095 -51.819688 
L 144.260728 -51.819688 
L 143.14536 -51.819688 
L 142.029993 -51.819688 
L 140.914625 -51.819688 
L 139.799258 -51.819688 
L 138.68389 -51.819688 
L 137.568523 -51.819688 
L 136.453155 -51.819688 
L 135.337788 -51.819688 
L 134.22242 -51.819688 
L 133.107053 -51.819688 
L 131.991685 -51.819688 
L 130.876318 -51.819688 
L 129.76095 -51.819688 
L 128.645583 -51.819688 
L 127.530215 -51.819688 
L 126.414848 -51.819688 
L 125.29948 -51.819688 
L 124.184112 -51.819688 
L 123.068745 -51.819688 
L 121.953377 -51.819688 
L 120.83801 -51.819688 
L 119.722642 -51.819688 
L 118.607275 -51.819688 
L 117.491907 -51.819688 
L 116.37654 -51.819688 
L 115.261172 -51.819688 
L 114.145805 -51.819688 
L 113.030437 -51.819688 
L 111.91507 -51.819688 
L 110.799702 -51.819688 
L 109.684335 -51.819688 
L 108.568967 -51.819688 
L 107.4536 -51.819688 
L 106.338232 -51.819688 
L 105.222865 -51.819688 
L 104.107497 -51.819688 
L 102.99213 -51.819688 
L 101.876762 -51.819688 
L 100.761395 -51.819688 
L 99.646027 -51.819688 
L 98.53066 -51.819688 
L 97.415292 -51.819688 
L 96.299925 -51.819688 
L 95.184557 -51.819688 
L 94.06919 -51.819688 
L 92.953822 -51.819688 
L 91.838455 -51.819688 
L 90.723087 -51.819688 
L 89.60772 -51.819688 
L 88.492352 -51.819688 
L 87.376985 -51.819688 
L 86.261617 -51.819688 
L 85.14625 -51.819688 
L 84.030882 -51.819688 
L 82.915514 -51.819688 
L 81.800147 -51.819688 
L 80.684779 -51.819688 
L 79.569412 -51.819688 
L 78.454044 -51.819688 
L 77.338677 -51.819688 
L 76.223309 -51.819688 
L 75.107942 -51.819688 
L 73.992574 -51.819688 
L 72.877207 -51.819688 
L 71.761839 -51.819688 
L 70.646472 -51.819688 
L 69.531104 -51.819688 
L 68.415737 -51.819688 
L 67.300369 -51.819688 
z
" style="stroke: #1a5fa8; stroke-opacity: 0.12"/>
    </defs>
    <g clip-path="url(#pfa805d4011)">
     <use xlink:href="#m23ef0057c8" x="0" y="244.578906" style="fill: #1a5fa8; fill-opacity: 0.12; stroke: #1a5fa8; stroke-opacity: 0.12"/>
    </g>
   </g>
   <g id="matplotlib.axis_1">
    <g id="xtick_1">
     <g id="line2d_1">
      <defs>
       <path id="m31c365f8dc" d="M 0 0 
L 0 3.5 
" style="stroke: #000000; stroke-width: 0.8"/>
      </defs>
      <g>
       <use xlink:href="#m31c365f8dc" x="67.300369" y="204.119219" style="stroke: #000000; stroke-width: 0.8"/>
      </g>
     </g>
     <g id="text_1">
      <!-- 0.0 -->
      <g transform="translate(59.348807 218.717656) scale(0.1 -0.1)">
       <defs>
        <path id="DejaVuSans-30" d="M 2034 4250 
Q 1547 4250 1301 3770 
Q 1056 3291 1056 2328 
Q 1056 1369 1301 889 
Q 1547 409 2034 409 
Q 2525 409 2770 889 
Q 3016 1369 3016 2328 
Q 3016 3291 2770 3770 
Q 2525 4250 2034 4250 
z
M 2034 4750 
Q 2819 4750 3233 4129 
Q 3647 3509 3647 2328 
Q 3647 1150 3233 529 
Q 2819 -91 2034 -91 
Q 1250 -91 836 529 
Q 422 1150 422 2328 
Q 422 3509 836 4129 
Q 1250 4750 2034 4750 
z
" transform="scale(0.015625)"/>
        <path id="DejaVuSans-2e" d="M 684 794 
L 1344 794 
L 1344 0 
L 684 0 
L 684 794 
z
" transform="scale(0.015625)"/>
       </defs>
       <use xlink:href="#DejaVuSans-30"/>
       <use xlink:href="#DejaVuSans-2e" transform="translate(63.623047 0)"/>
       <use xlink:href="#DejaVuSans-30" transform="translate(95.410156 0)"/>
      </g>
     </g>
    </g>
    <g id="xtick_2">
     <g id="line2d_2">
      <g>
       <use xlink:href="#m31c365f8dc" x="133.999347" y="204.119219" style="stroke: #000000; stroke-width: 0.8"/>
      </g>
     </g>
     <g id="text_2">
      <!-- 0.2 -->
      <g transform="translate(126.047784 218.717656) scale(0.1 -0.1)">
       <defs>
        <path id="DejaVuSans-32" d="M 1228 531 
L 3431 531 
L 3431 0 
L 469 0 
L 469 531 
Q 828 903 1448 1529 
Q 2069 2156 2228 2338 
Q 2531 2678 2651 2914 
Q 2772 3150 2772 3378 
Q 2772 3750 2511 3984 
Q 2250 4219 1831 4219 
Q 1534 4219 1204 4116 
Q 875 4013 500 3803 
L 500 4441 
Q 881 4594 1212 4672 
Q 1544 4750 1819 4750 
Q 2544 4750 2975 4387 
Q 3406 4025 3406 3419 
Q 3406 3131 3298 2873 
Q 3191 2616 2906 2266 
Q 2828 2175 2409 1742 
Q 1991 1309 1228 531 
z
" transform="scale(0.015625)"/>
       </defs>
       <use xlink:href="#DejaVuSans-30"/>
       <use xlink:href="#DejaVuSans-2e" transform="translate(63.623047 0)"/>
       <use xlink:href="#DejaVuSans-32" transform="translate(95.410156 0)"/>
      </g>
     </g>
    </g>
    <g id="xtick_3">
     <g id="line2d_3">
      <g>
       <use xlink:href="#m31c365f8dc" x="200.698324" y="204.119219" style="stroke: #000000; stroke-width: 0.8"/>
      </g>
     </g>
     <g id="text_3">
      <!-- 0.4 -->
      <g transform="translate(192.746761 218.717656) scale(0.1 -0.1)">
       <defs>
        <path id="DejaVuSans-34" d="M 2419 4116 
L 825 1625 
L 2419 1625 
L 2419 4116 
z
M 2253 4666 
L 3047 4666 
L 3047 1625 
L 3713 1625 
L 3713 1100 
L 3047 1100 
L 3047 0 
L 2419 0 
L 2419 1100 
L 313 1100 
L 313 1709 
L 2253 4666 
z
" transform="scale(0.015625)"/>
       </defs>
       <use xlink:href="#DejaVuSans-30"/>
       <use xlink:href="#DejaVuSans-2e" transform="translate(63.623047 0)"/>
       <use xlink:href="#DejaVuSans-34" transform="translate(95.410156 0)"/>
      </g>
     </g>
    </g>
    <g id="xtick_4">
     <g id="line2d_4">
      <g>
       <use xlink:href="#m31c365f8dc" x="267.397301" y="204.119219" style="stroke: #000000; stroke-width: 0.8"/>
      </g>
     </g>
     <g id="text_4">
      <!-- 0.6 -->
      <g transform="translate(259.445739 218.717656) scale(0.1 -0.1)">
       <defs>
        <path id="DejaVuSans-36" d="M 2113 2584 
Q 1688 2584 1439 2293 
Q 1191 2003 1191 1497 
Q 1191 994 1439 701 
Q 1688 409 2113 409 
Q 2538 409 2786 701 
Q 3034 994 3034 1497 
Q 3034 2003 2786 2293 
Q 2538 2584 2113 2584 
z
M 3366 4563 
L 3366 3988 
Q 3128 4100 2886 4159 
Q 2644 4219 2406 4219 
Q 1781 4219 1451 3797 
Q 1122 3375 1075 2522 
Q 1259 2794 1537 2939 
Q 1816 3084 2150 3084 
Q 2853 3084 3261 2657 
Q 3669 2231 3669 1497 
Q 3669 778 3244 343 
Q 2819 -91 2113 -91 
Q 1303 -91 875 529 
Q 447 1150 447 2328 
Q 447 3434 972 4092 
Q 1497 4750 2381 4750 
Q 2619 4750 2861 4703 
Q 3103 4656 3366 4563 
z
" transform="scale(0.015625)"/>
       </defs>
       <use xlink:href="#DejaVuSans-30"/>
       <use xlink:href="#DejaVuSans-2e" transform="translate(63.623047 0)"/>
       <use xlink:href="#DejaVuSans-36" transform="translate(95.410156 0)"/>
      </g>
     </g>
    </g>
    <g id="xtick_5">
     <g id="line2d_5">
      <g>
       <use xlink:href="#m31c365f8dc" x="334.096278" y="204.119219" style="stroke: #000000; stroke-width: 0.8"/>
      </g>
     </g>
     <g id="text_5">
      <!-- 0.8 -->
      <g transform="translate(326.144716 218.717656) scale(0.1 -0.1)">
       <defs>
        <path id="DejaVuSans-38" d="M 2034 2216 
Q 1584 2216 1326 1975 
Q 1069 1734 1069 1313 
Q 1069 891 1326 650 
Q 1584 409 2034 409 
Q 2484 409 2743 651 
Q 3003 894 3003 1313 
Q 3003 1734 2745 1975 
Q 2488 2216 2034 2216 
z
M 1403 2484 
Q 997 2584 770 2862 
Q 544 3141 544 3541 
Q 544 4100 942 4425 
Q 1341 4750 2034 4750 
Q 2731 4750 3128 4425 
Q 3525 4100 3525 3541 
Q 3525 3141 3298 2862 
Q 3072 2584 2669 2484 
Q 3125 2378 3379 2068 
Q 3634 1759 3634 1313 
Q 3634 634 3220 271 
Q 2806 -91 2034 -91 
Q 1263 -91 848 271 
Q 434 634 434 1313 
Q 434 1759 690 2068 
Q 947 2378 1403 2484 
z
M 1172 3481 
Q 1172 3119 1398 2916 
Q 1625 2713 2034 2713 
Q 2441 2713 2670 2916 
Q 2900 3119 2900 3481 
Q 2900 3844 2670 4047 
Q 2441 4250 2034 4250 
Q 1625 4250 1398 4047 
Q 1172 3844 1172 3481 
z
" transform="scale(0.015625)"/>
       </defs>
       <use xlink:href="#DejaVuSans-30"/>
       <use xlink:href="#DejaVuSans-2e" transform="translate(63.623047 0)"/>
       <use xlink:href="#DejaVuSans-38" transform="translate(95.410156 0)"/>
      </g>
     </g>
    </g>
    <g id="xtick_6">
     <g id="line2d_6">
      <g>
       <use xlink:href="#m31c365f8dc" x="400.795256" y="204.119219" style="stroke: #000000; stroke-width: 0.8"/>
      </g>
     </g>
     <g id="text_6">
      <!-- 1.0 -->
      <g transform="translate(392.843693 218.717656) scale(0.1 -0.1)">
       <defs>
        <path id="DejaVuSans-31" d="M 794 531 
L 1825 531 
L 1825 4091 
L 703 3866 
L 703 4441 
L 1819 4666 
L 2450 4666 
L 2450 531 
L 3481 531 
L 3481 0 
L 794 0 
L 794 531 
z
" transform="scale(0.015625)"/>
       </defs>
       <use xlink:href="#DejaVuSans-31"/>
       <use xlink:href="#DejaVuSans-2e" transform="translate(63.623047 0)"/>
       <use xlink:href="#DejaVuSans-30" transform="translate(95.410156 0)"/>
      </g>
     </g>
    </g>
    <g id="text_7">
     <!-- $x$ -->
     <g transform="translate(230.147812 234.675312) scale(0.13 -0.13)">
      <defs>
       <path id="DejaVuSans-Oblique-78" d="M 3841 3500 
L 2234 1784 
L 3219 0 
L 2559 0 
L 1819 1388 
L 531 0 
L -166 0 
L 1556 1844 
L 641 3500 
L 1300 3500 
L 1972 2234 
L 3144 3500 
L 3841 3500 
z
" transform="scale(0.015625)"/>
      </defs>
      <use xlink:href="#DejaVuSans-Oblique-78" transform="translate(0 0.3125)"/>
     </g>
    </g>
   </g>
   <g id="matplotlib.axis_2">
    <g id="ytick_1">
     <g id="line2d_7">
      <defs>
       <path id="mc8e5ec8e93" d="M 0 0 
L -3.5 0 
" style="stroke: #000000; stroke-width: 0.8"/>
      </defs>
      <g>
       <use xlink:href="#mc8e5ec8e93" x="50.625625" y="192.759219" style="stroke: #000000; stroke-width: 0.8"/>
      </g>
     </g>
     <g id="text_8">
      <!-- 0.00 -->
      <g transform="translate(21.36 196.558437) scale(0.1 -0.1)">
       <use xlink:href="#DejaVuSans-30"/>
       <use xlink:href="#DejaVuSans-2e" transform="translate(63.623047 0)"/>
       <use xlink:href="#DejaVuSans-30" transform="translate(95.410156 0)"/>
       <use xlink:href="#DejaVuSans-30" transform="translate(159.033203 0)"/>
      </g>
     </g>
    </g>
    <g id="ytick_2">
     <g id="line2d_8">
      <g>
       <use xlink:href="#mc8e5ec8e93" x="50.625625" y="170.039219" style="stroke: #000000; stroke-width: 0.8"/>
      </g>
     </g>
     <g id="text_9">
      <!-- 0.02 -->
      <g transform="translate(21.36 173.838437) scale(0.1 -0.1)">
       <use xlink:href="#DejaVuSans-30"/>
       <use xlink:href="#DejaVuSans-2e" transform="translate(63.623047 0)"/>
       <use xlink:href="#DejaVuSans-30" transform="translate(95.410156 0)"/>
       <use xlink:href="#DejaVuSans-32" transform="translate(159.033203 0)"/>
      </g>
     </g>
    </g>
    <g id="ytick_3">
     <g id="line2d_9">
      <g>
       <use xlink:href="#mc8e5ec8e93" x="50.625625" y="147.319219" style="stroke: #000000; stroke-width: 0.8"/>
      </g>
     </g>
     <g id="text_10">
      <!-- 0.04 -->
      <g transform="translate(21.36 151.118437) scale(0.1 -0.1)">
       <use xlink:href="#DejaVuSans-30"/>
       <use xlink:href="#DejaVuSans-2e" transform="translate(63.623047 0)"/>
       <use xlink:href="#DejaVuSans-30" transform="translate(95.410156 0)"/>
       <use xlink:href="#DejaVuSans-34" transform="translate(159.033203 0)"/>
      </g>
     </g>
    </g>
    <g id="ytick_4">
     <g id="line2d_10">
      <g>
       <use xlink:href="#mc8e5ec8e93" x="50.625625" y="124.599219" style="stroke: #000000; stroke-width: 0.8"/>
      </g>
     </g>
     <g id="text_11">
      <!-- 0.06 -->
      <g transform="translate(21.36 128.398438) scale(0.1 -0.1)">
       <use xlink:href="#DejaVuSans-30"/>
       <use xlink:href="#DejaVuSans-2e" transform="translate(63.623047 0)"/>
       <use xlink:href="#DejaVuSans-30" transform="translate(95.410156 0)"/>
       <use xlink:href="#DejaVuSans-36" transform="translate(159.033203 0)"/>
      </g>
     </g>
    </g>
    <g id="ytick_5">
     <g id="line2d_11">
      <g>
       <use xlink:href="#mc8e5ec8e93" x="50.625625" y="101.879219" style="stroke: #000000; stroke-width: 0.8"/>
      </g>
     </g>
     <g id="text_12">
      <!-- 0.08 -->
      <g transform="translate(21.36 105.678438) scale(0.1 -0.1)">
       <use xlink:href="#DejaVuSans-30"/>
       <use xlink:href="#DejaVuSans-2e" transform="translate(63.623047 0)"/>
       <use xlink:href="#DejaVuSans-30" transform="translate(95.410156 0)"/>
       <use xlink:href="#DejaVuSans-38" transform="translate(159.033203 0)"/>
      </g>
     </g>
    </g>
    <g id="ytick_6">
     <g id="line2d_12">
      <g>
       <use xlink:href="#mc8e5ec8e93" x="50.625625" y="79.159219" style="stroke: #000000; stroke-width: 0.8"/>
      </g>
     </g>
     <g id="text_13">
      <!-- 0.10 -->
      <g transform="translate(21.36 82.958437) scale(0.1 -0.1)">
       <use xlink:href="#DejaVuSans-30"/>
       <use xlink:href="#DejaVuSans-2e" transform="translate(63.623047 0)"/>
       <use xlink:href="#DejaVuSans-31" transform="translate(95.410156 0)"/>
       <use xlink:href="#DejaVuSans-30" transform="translate(159.033203 0)"/>
      </g>
     </g>
    </g>
    <g id="ytick_7">
     <g id="line2d_13">
      <g>
       <use xlink:href="#mc8e5ec8e93" x="50.625625" y="56.439219" style="stroke: #000000; stroke-width: 0.8"/>
      </g>
     </g>
     <g id="text_14">
      <!-- 0.12 -->
      <g transform="translate(21.36 60.238437) scale(0.1 -0.1)">
       <use xlink:href="#DejaVuSans-30"/>
       <use xlink:href="#DejaVuSans-2e" transform="translate(63.623047 0)"/>
       <use xlink:href="#DejaVuSans-31" transform="translate(95.410156 0)"/>
       <use xlink:href="#DejaVuSans-32" transform="translate(159.033203 0)"/>
      </g>
     </g>
    </g>
    <g id="ytick_8">
     <g id="line2d_14">
      <g>
       <use xlink:href="#mc8e5ec8e93" x="50.625625" y="33.719219" style="stroke: #000000; stroke-width: 0.8"/>
      </g>
     </g>
     <g id="text_15">
      <!-- 0.14 -->
      <g transform="translate(21.36 37.518437) scale(0.1 -0.1)">
       <use xlink:href="#DejaVuSans-30"/>
       <use xlink:href="#DejaVuSans-2e" transform="translate(63.623047 0)"/>
       <use xlink:href="#DejaVuSans-31" transform="translate(95.410156 0)"/>
       <use xlink:href="#DejaVuSans-34" transform="translate(159.033203 0)"/>
      </g>
     </g>
    </g>
    <g id="ytick_9">
     <g id="line2d_15">
      <g>
       <use xlink:href="#mc8e5ec8e93" x="50.625625" y="10.999219" style="stroke: #000000; stroke-width: 0.8"/>
      </g>
     </g>
     <g id="text_16">
      <!-- 0.16 -->
      <g transform="translate(21.36 14.798438) scale(0.1 -0.1)">
       <use xlink:href="#DejaVuSans-30"/>
       <use xlink:href="#DejaVuSans-2e" transform="translate(63.623047 0)"/>
       <use xlink:href="#DejaVuSans-31" transform="translate(95.410156 0)"/>
       <use xlink:href="#DejaVuSans-36" transform="translate(159.033203 0)"/>
      </g>
     </g>
    </g>
    <g id="text_17">
     <!-- $u$ -->
     <g transform="translate(7.2 104.855625) scale(0.13 -0.13)">
      <defs>
       <path id="DejaVuSans-Oblique-75" d="M 428 1388 
L 838 3500 
L 1416 3500 
L 1006 1409 
Q 975 1256 961 1147 
Q 947 1038 947 966 
Q 947 700 1109 554 
Q 1272 409 1569 409 
Q 2031 409 2368 721 
Q 2706 1034 2809 1563 
L 3194 3500 
L 3769 3500 
L 3091 0 
L 2516 0 
L 2631 550 
Q 2388 244 2052 76 
Q 1716 -91 1338 -91 
Q 878 -91 622 161 
Q 366 413 366 863 
Q 366 956 381 1097 
Q 397 1238 428 1388 
z
" transform="scale(0.015625)"/>
      </defs>
      <use xlink:href="#DejaVuSans-Oblique-75" transform="translate(0 0.3125)"/>
     </g>
    </g>
   </g>
   <g id="line2d_16">
    <path d="M 67.300369 192.759219 
L 73.992574 181.589948 
L 80.684779 170.878121 
L 87.376985 160.623739 
L 94.06919 150.826802 
L 100.761395 141.487309 
L 106.338232 134.053835 
L 111.91507 126.938031 
L 117.491907 120.139897 
L 123.068745 113.659432 
L 128.645583 107.496638 
L 134.22242 101.651513 
L 139.799258 96.124058 
L 145.376095 90.914273 
L 150.952933 86.022158 
L 156.52977 81.447712 
L 162.106608 77.190937 
L 167.683445 73.251831 
L 173.260283 69.630395 
L 178.837121 66.326629 
L 184.413958 63.340532 
L 188.875428 61.180377 
L 193.336898 59.223531 
L 197.798368 57.469994 
L 202.259838 55.919765 
L 206.721308 54.572845 
L 211.182778 53.429234 
L 215.644249 52.488931 
L 220.105719 51.751937 
L 224.567189 51.218252 
L 229.028659 50.887875 
L 233.490129 50.760807 
L 237.951599 50.837048 
L 242.413069 51.116597 
L 246.874539 51.599455 
L 251.336009 52.285622 
L 255.797479 53.175098 
L 260.258949 54.267882 
L 264.720419 55.563975 
L 269.181889 57.063376 
L 273.643359 58.766087 
L 278.104829 60.672106 
L 282.566299 62.781433 
L 287.027769 65.09407 
L 291.489239 67.610015 
L 297.066077 71.040849 
L 302.642915 74.789353 
L 308.219752 78.855526 
L 313.79659 83.23937 
L 319.373427 87.940883 
L 324.950265 92.960067 
L 330.527102 98.29692 
L 336.10394 103.951443 
L 341.680777 109.923635 
L 347.257615 116.213498 
L 352.834453 122.82103 
L 358.41129 129.746232 
L 363.988128 136.989104 
L 369.564965 144.549646 
L 375.141803 152.427858 
L 381.834008 162.301036 
L 388.526213 172.631659 
L 395.218418 183.419726 
L 400.795256 192.759219 
L 400.795256 192.759219 
" clip-path="url(#pfa805d4011)" style="fill: none; stroke: #1a5fa8; stroke-width: 2.5; stroke-linecap: square"/>
   </g>
   <g id="patch_3">
    <path d="M 50.625625 204.119219 
L 50.625625 10.999219 
" style="fill: none; stroke: #000000; stroke-width: 0.8; stroke-linejoin: miter; stroke-linecap: square"/>
   </g>
   <g id="patch_4">
    <path d="M 50.625625 204.119219 
L 417.47 204.119219 
" style="fill: none; stroke: #000000; stroke-width: 0.8; stroke-linejoin: miter; stroke-linecap: square"/>
   </g>
   <g id="line2d_17">
    <defs>
     <path id="m913fb28165" d="M 0 3.5 
C 0.928211 3.5 1.81853 3.131218 2.474874 2.474874 
C 3.131218 1.81853 3.5 0.928211 3.5 0 
C 3.5 -0.928211 3.131218 -1.81853 2.474874 -2.474874 
C 1.81853 -3.131218 0.928211 -3.5 0 -3.5 
C -0.928211 -3.5 -1.81853 -3.131218 -2.474874 -2.474874 
C -3.131218 -1.81853 -3.5 -0.928211 -3.5 0 
C -3.5 0.928211 -3.131218 1.81853 -2.474874 2.474874 
C -1.81853 3.131218 -0.928211 3.5 0 3.5 
z
" style="stroke: #c0392b"/>
    </defs>
    <g clip-path="url(#pfa805d4011)">
     <use xlink:href="#m913fb28165" x="67.300369" y="192.759219" style="fill: #c0392b; stroke: #c0392b"/>
     <use xlink:href="#m913fb28165" x="400.795256" y="192.759219" style="fill: #c0392b; stroke: #c0392b"/>
    </g>
   </g>
   <g id="patch_5">
    <path d="M 106.885351 158.795303 
Q 87.852716 175.125305 69.838299 190.581675 
" style="fill: none; stroke: #c0392b; stroke-width: 1.2; stroke-linecap: round"/>
    <path d="M 75.043987 189.277521 
L 69.838299 190.581675 
L 71.918388 185.634633 
z
" style="fill: #c0392b; stroke: #c0392b; stroke-width: 1.2; stroke-linecap: round"/>
   </g>
   <g id="text_18">
    <!-- $u(0)=0$ -->
    <g style="fill: #c0392b" transform="translate(93.97996 152.999219) scale(0.12 -0.12)">
     <defs>
      <path id="DejaVuSans-28" d="M 1984 4856 
Q 1566 4138 1362 3434 
Q 1159 2731 1159 2009 
Q 1159 1288 1364 580 
Q 1569 -128 1984 -844 
L 1484 -844 
Q 1016 -109 783 600 
Q 550 1309 550 2009 
Q 550 2706 781 3412 
Q 1013 4119 1484 4856 
L 1984 4856 
z
" transform="scale(0.015625)"/>
      <path id="DejaVuSans-29" d="M 513 4856 
L 1013 4856 
Q 1481 4119 1714 3412 
Q 1947 2706 1947 2009 
Q 1947 1309 1714 600 
Q 1481 -109 1013 -844 
L 513 -844 
Q 928 -128 1133 580 
Q 1338 1288 1338 2009 
Q 1338 2731 1133 3434 
Q 928 4138 513 4856 
z
" transform="scale(0.015625)"/>
      <path id="DejaVuSans-3d" d="M 678 2906 
L 4684 2906 
L 4684 2381 
L 678 2381 
L 678 2906 
z
M 678 1631 
L 4684 1631 
L 4684 1100 
L 678 1100 
L 678 1631 
z
" transform="scale(0.015625)"/>
     </defs>
     <use xlink:href="#DejaVuSans-Oblique-75" transform="translate(0 0.125)"/>
     <use xlink:href="#DejaVuSans-28" transform="translate(63.378906 0.125)"/>
     <use xlink:href="#DejaVuSans-30" transform="translate(102.392578 0.125)"/>
     <use xlink:href="#DejaVuSans-29" transform="translate(166.015625 0.125)"/>
     <use xlink:href="#DejaVuSans-3d" transform="translate(224.511719 0.125)"/>
     <use xlink:href="#DejaVuSans-30" transform="translate(327.783203 0.125)"/>
    </g>
   </g>
   <g id="patch_6">
    <path d="M 361.491814 158.799608 
Q 380.386684 175.125467 398.266371 190.57417 
" style="fill: none; stroke: #c0392b; stroke-width: 1.2; stroke-linecap: round"/>
    <path d="M 396.203444 185.619947 
L 398.266371 190.57417 
L 393.065236 189.251978 
z
" style="fill: #c0392b; stroke: #c0392b; stroke-width: 1.2; stroke-linecap: round"/>
   </g>
   <g id="text_19">
    <!-- $u(1)=0$ -->
    <g style="fill: #c0392b" transform="translate(327.426381 152.999219) scale(0.12 -0.12)">
     <use xlink:href="#DejaVuSans-Oblique-75" transform="translate(0 0.125)"/>
     <use xlink:href="#DejaVuSans-28" transform="translate(63.378906 0.125)"/>
     <use xlink:href="#DejaVuSans-31" transform="translate(102.392578 0.125)"/>
     <use xlink:href="#DejaVuSans-29" transform="translate(166.015625 0.125)"/>
     <use xlink:href="#DejaVuSans-3d" transform="translate(224.511719 0.125)"/>
     <use xlink:href="#DejaVuSans-30" transform="translate(327.783203 0.125)"/>
    </g>
   </g>
   <g id="text_20">
    <!-- $u(x)=\dfrac{x(1-x)}{2}$ -->
    <g style="fill: #1a5fa8" transform="translate(187.312812 37.020807) scale(0.13 -0.13)">
     <defs>
      <path id="DejaVuSans-2212" d="M 678 2272 
L 4684 2272 
L 4684 1741 
L 678 1741 
L 678 2272 
z
" transform="scale(0.015625)"/>
     </defs>
     <use xlink:href="#DejaVuSans-Oblique-75" transform="translate(0 0.140625)"/>
     <use xlink:href="#DejaVuSans-28" transform="translate(63.378906 0.140625)"/>
     <use xlink:href="#DejaVuSans-Oblique-78" transform="translate(102.392578 0.140625)"/>
     <use xlink:href="#DejaVuSans-29" transform="translate(161.572266 0.140625)"/>
     <use xlink:href="#DejaVuSans-3d" transform="translate(220.068359 0.140625)"/>
     <use xlink:href="#DejaVuSans-Oblique-78" transform="translate(323.339844 57.125)"/>
     <use xlink:href="#DejaVuSans-28" transform="translate(382.519531 57.125)"/>
     <use xlink:href="#DejaVuSans-31" transform="translate(421.533203 57.125)"/>
     <use xlink:href="#DejaVuSans-2212" transform="translate(504.638672 57.125)"/>
     <use xlink:href="#DejaVuSans-Oblique-78" transform="translate(607.910156 57.125)"/>
     <use xlink:href="#DejaVuSans-29" transform="translate(667.089844 57.125)"/>
     <use xlink:href="#DejaVuSans-32" transform="translate(483.339844 -61.53125)"/>
     <path d="M 323.339844 18.9375 
L 323.339844 25.1875 
L 706.103516 25.1875 
L 706.103516 18.9375 
L 323.339844 18.9375 
z
"/>
    </g>
   </g>
  </g>
 </g>
 <defs>
  <clipPath id="pfa805d4011">
   <rect x="50.625625" y="10.999219" width="366.844375" height="193.12"/>
  </clipPath>
 </defs>
</svg>
