<?xml version="1.0" encoding="utf-8" standalone="no"?>
<!DOCTYPE svg PUBLIC "-//W3C//DTD SVG 1.1//EN"
  "http://www.w3.org/Graphics/SVG/1.1/DTD/svg11.dtd">
<svg xmlns:xlink="http://www.w3.org/1999/xlink" width="352.8pt" height="352.8pt" viewBox="0 0 352.8 352.8" xmlns="http://www.w3.org/2000/svg" version="1.1">
 <metadata>
  <rdf:RDF xmlns:dc="http://purl.org/dc/elements/1.1/" xmlns:cc="http://creativecommons.org/ns#" xmlns:rdf="http://www.w3.org/1999/02/22-rdf-syntax-ns#">
   <cc:Work>
    <dc:type rdf:resource="http://purl.org/dc/dcmitype/StillImage"/>
    <dc:date>2026-03-11T11:01:19.053546</dc:date>
    <dc:format>image/svg+xml</dc:format>
    <dc:creator>
     <cc:Agent>
      <dc:title>Matplotlib v3.10.8, https://matplotlib.org/</dc:title>
     </cc:Agent>
    </dc:creator>
   </cc:Work>
  </rdf:RDF>
 </metadata>
 <defs>
  <style type="text/css">*{stroke-linejoin: round; stroke-linecap: butt}</style>
 </defs>
 <g id="figure_1">
  <g id="patch_1">
   <path d="M 0 352.8 
L 352.8 352.8 
L 352.8 0 
L 0 0 
z
" style="fill: #ffffff"/>
  </g>
  <g id="axes_1">
   <g id="patch_2">
    <path d="M 63.6 289.2 
L 289.2 289.2 
L 289.2 63.6 
L 63.6 63.6 
z
M 266.64 153.84 
L 266.57099 156.62919 
L 266.364128 159.411554 
L 266.019922 162.180284 
L 265.539212 164.928603 
L 264.923176 167.649787 
L 264.173322 170.337176 
L 263.291483 172.984194 
L 262.279818 175.584363 
L 261.140804 178.131319 
L 259.877226 180.618831 
L 258.492178 183.04081 
L 256.989049 185.39133 
L 255.371517 187.664639 
L 253.64354 189.855173 
L 251.809348 191.957572 
L 249.873429 193.966691 
L 247.84052 195.877613 
L 245.715596 197.685662 
L 243.503858 199.386413 
L 241.210717 200.975705 
L 238.841786 202.449648 
L 236.402861 203.804634 
L 233.899912 205.037349 
L 231.339063 206.144776 
L 228.72658 207.124204 
L 226.068858 207.973236 
L 223.372401 208.689795 
L 220.643806 209.272128 
L 217.889751 209.718809 
L 215.116976 210.028745 
L 212.332266 210.201178 
L 209.542436 210.235686 
L 206.754313 210.132184 
L 203.97472 209.890926 
L 201.210459 209.512501 
L 198.468295 208.997837 
L 195.754939 208.348192 
L 193.07703 207.565157 
L 190.441121 206.650647 
L 187.853664 205.6069 
L 185.32099 204.436471 
L 182.849296 203.142225 
L 180.444633 201.727327 
L 178.112883 200.195241 
L 175.859755 198.549716 
L 173.69076 196.794779 
L 171.611207 194.934724 
L 169.626186 192.974104 
L 167.740553 190.917716 
L 165.958924 188.770593 
L 164.285658 186.537988 
L 162.72485 184.225366 
L 161.280319 181.838386 
L 159.955601 179.38289 
L 158.753937 176.864885 
L 157.678268 174.290535 
L 156.731227 171.666139 
L 155.915131 168.998119 
L 155.231976 166.293005 
L 154.683436 163.557416 
L 154.270852 160.798048 
L 153.995233 158.021651 
L 153.857255 155.235022 
L 153.857255 152.444978 
L 153.995233 149.658349 
L 154.270852 146.881952 
L 154.683436 144.122584 
L 155.231976 141.386995 
L 155.915131 138.681881 
L 156.731227 136.013861 
L 157.678268 133.389465 
L 158.753937 130.815115 
L 159.955601 128.29711 
L 161.280319 125.841614 
L 162.72485 123.454634 
L 164.285658 121.142012 
L 165.958924 118.909407 
L 167.740553 116.762284 
L 169.626186 114.705896 
L 171.611207 112.745276 
L 173.69076 110.885221 
L 175.859755 109.130284 
L 178.112883 107.484759 
L 180.444633 105.952673 
L 182.849296 104.537775 
L 185.32099 103.243529 
L 187.853664 102.0731 
L 190.441121 101.029353 
L 193.07703 100.114843 
L 195.754939 99.331808 
L 198.468295 98.682163 
L 201.210459 98.167499 
L 203.97472 97.789074 
L 206.754313 97.547816 
L 209.542436 97.444314 
L 212.332266 97.478822 
L 215.116976 97.651255 
L 217.889751 97.961191 
L 220.643806 98.407872 
L 223.372401 98.990205 
L 226.068858 99.706764 
L 228.72658 100.555796 
L 231.339063 101.535224 
L 233.899912 102.642651 
L 236.402861 103.875366 
L 238.841786 105.230352 
L 241.210717 106.704295 
L 243.503858 108.293587 
L 245.715596 109.994338 
L 247.84052 111.802387 
L 249.873429 113.713309 
L 251.809348 115.722428 
L 253.64354 117.824827 
L 255.371517 120.015361 
L 256.989049 122.28867 
L 258.492178 124.63919 
L 259.877226 127.061169 
L 261.140804 129.548681 
L 262.279818 132.095637 
L 263.291483 134.695806 
L 264.173322 137.342824 
L 264.923176 140.030213 
L 265.539212 142.751397 
L 266.019922 145.499716 
L 266.364128 148.268446 
L 266.57099 151.05081 
L 266.64 153.84 
z
" clip-path="url(#p8f22440cfc)" style="fill: #dce8f5"/>
   </g>
   <g id="line2d_1">
    <path d="M 63.6 289.2 
L 289.2 289.2 
L 289.2 63.6 
L 63.6 63.6 
L 63.6 289.2 
" clip-path="url(#p8f22440cfc)" style="fill: none; stroke: #1a5fa8; stroke-width: 2.5; stroke-linecap: square"/>
   </g>
   <g id="line2d_2">
    <path d="M 266.64 153.84 
L 266.485981 149.674717 
L 266.024767 145.532184 
L 265.258875 141.435025 
L 264.192489 137.405618 
L 262.831434 133.46597 
L 261.183142 129.637598 
L 259.256617 125.94141 
L 257.062379 122.397596 
L 254.612415 119.025508 
L 251.920103 115.843566 
L 249.000149 112.869146 
L 245.868501 110.118496 
L 242.542262 107.606637 
L 239.039599 105.347288 
L 235.379643 103.35279 
L 231.582383 101.634036 
L 227.668558 100.200412 
L 223.659545 99.05975 
L 219.577239 98.218278 
L 215.443935 97.680592 
L 211.28221 97.44963 
L 207.114793 97.526653 
L 202.964444 97.911239 
L 198.853832 98.601289 
L 194.805407 99.593034 
L 190.841281 100.881056 
L 186.983104 102.458323 
L 183.251948 104.316218 
L 179.668191 106.444594 
L 176.251407 108.831828 
L 173.020256 111.464881 
L 169.992387 114.329373 
L 167.184337 117.409657 
L 164.611442 120.688912 
L 162.287754 124.149226 
L 160.225964 127.771701 
L 158.437334 131.536552 
L 156.931632 135.423217 
L 155.717082 139.410467 
L 154.800317 143.476527 
L 154.186345 147.599189 
L 153.878518 151.755935 
L 153.878518 155.924065 
L 154.186345 160.080811 
L 154.800317 164.203473 
L 155.717082 168.269533 
L 156.931632 172.256783 
L 158.437334 176.143448 
L 160.225964 179.908299 
L 162.287754 183.530774 
L 164.611442 186.991088 
L 167.184337 190.270343 
L 169.992387 193.350627 
L 173.020256 196.215119 
L 176.251407 198.848172 
L 179.668191 201.235406 
L 183.251948 203.363782 
L 186.983104 205.221677 
L 190.841281 206.798944 
L 194.805407 208.086966 
L 198.853832 209.078711 
L 202.964444 209.768761 
L 207.114793 210.153347 
L 211.28221 210.23037 
L 215.443935 209.999408 
L 219.577239 209.461722 
L 223.659545 208.62025 
L 227.668558 207.479588 
L 231.582383 206.045964 
L 235.379643 204.32721 
L 239.039599 202.332712 
L 242.542262 200.073363 
L 245.868501 197.561504 
L 249.000149 194.810854 
L 251.920103 191.836434 
L 254.612415 188.654492 
L 257.062379 185.282404 
L 259.256617 181.73859 
L 261.183142 178.042402 
L 262.831434 174.21403 
L 264.192489 170.274382 
L 265.258875 166.244975 
L 266.024767 162.147816 
L 266.485981 158.005283 
L 266.64 153.84 
L 266.64 153.84 
" clip-path="url(#p8f22440cfc)" style="fill: none; stroke: #c0392b; stroke-width: 2.5; stroke-linecap: square"/>
   </g>
   <g id="text_1">
    <!-- $\Omega$ -->
    <g style="fill: #222222" transform="translate(94.61 255.790625) scale(0.22 -0.22)">
     <defs>
      <path id="DejaVuSans-3a9" d="M 4647 556 
L 4647 0 
L 2772 0 
L 2772 556 
Q 3325 859 3634 1378 
Q 3944 1897 3944 2528 
Q 3944 3278 3531 3731 
Q 3119 4184 2444 4184 
Q 1769 4184 1355 3729 
Q 941 3275 941 2528 
Q 941 1897 1250 1378 
Q 1563 859 2119 556 
L 2119 0 
L 244 0 
L 244 556 
L 1241 556 
Q 747 991 519 1456 
Q 294 1922 294 2497 
Q 294 3491 894 4106 
Q 1491 4722 2444 4722 
Q 3391 4722 3994 4106 
Q 4594 3494 4594 2528 
Q 4594 1922 4372 1459 
Q 4150 997 3647 556 
L 4647 556 
z
" transform="scale(0.015625)"/>
     </defs>
     <use xlink:href="#DejaVuSans-3a9" transform="translate(0 0.21875)"/>
    </g>
   </g>
   <g id="patch_3">
    <path d="M 253.660702 31.12906 
Q 243.771476 46.522236 234.728284 60.59851 
" style="fill: none; stroke: #1a5fa8; stroke-width: 1.4; stroke-linecap: round"/>
    <path d="M 240.87983 56.943586 
L 234.728284 60.59851 
L 235.495272 53.484318 
z
" style="fill: #1a5fa8; stroke: #1a5fa8; stroke-width: 1.4; stroke-linecap: round"/>
   </g>
   <g id="text_2">
    <!-- $\Gamma_D$ -->
    <g style="fill: #1a5fa8" transform="translate(251.88 24.12) scale(0.16 -0.16)">
     <defs>
      <path id="DejaVuSans-393" d="M 628 0 
L 628 4666 
L 3531 4666 
L 3531 4134 
L 1259 4134 
L 1259 0 
L 628 0 
z
" transform="scale(0.015625)"/>
      <path id="DejaVuSans-Oblique-44" d="M 1081 4666 
L 2438 4666 
Q 3519 4666 4070 4208 
Q 4622 3750 4622 2847 
Q 4622 2250 4412 1698 
Q 4203 1147 3834 769 
Q 3463 381 2891 190 
Q 2319 0 1538 0 
L 172 0 
L 1081 4666 
z
M 1613 4147 
L 909 519 
L 1734 519 
Q 2794 519 3375 1128 
Q 3956 1738 3956 2847 
Q 3956 3519 3581 3833 
Q 3206 4147 2406 4147 
L 1613 4147 
z
" transform="scale(0.015625)"/>
     </defs>
     <use xlink:href="#DejaVuSans-393" transform="translate(0 0.09375)"/>
     <use xlink:href="#DejaVuSans-Oblique-44" transform="translate(56.669922 -16.3125) scale(0.7)"/>
    </g>
   </g>
   <g id="patch_4">
    <path d="M 121.63275 90.140919 
Q 152.155202 96.655208 181.146882 102.84279 
" style="fill: none; stroke: #c0392b; stroke-width: 1.4; stroke-linecap: round"/>
    <path d="M 175.555767 98.37743 
L 181.146882 102.84279 
L 174.219925 104.636466 
z
" style="fill: #c0392b; stroke: #c0392b; stroke-width: 1.4; stroke-linecap: round"/>
   </g>
   <g id="text_3">
    <!-- $\Gamma_N$ -->
    <g style="fill: #c0392b" transform="translate(99.76 91.8) scale(0.16 -0.16)">
     <defs>
      <path id="DejaVuSans-Oblique-4e" d="M 1081 4666 
L 1931 4666 
L 3219 666 
L 4000 4666 
L 4616 4666 
L 3706 0 
L 2853 0 
L 1569 4025 
L 788 0 
L 172 0 
L 1081 4666 
z
" transform="scale(0.015625)"/>
     </defs>
     <use xlink:href="#DejaVuSans-393" transform="translate(0 0.09375)"/>
     <use xlink:href="#DejaVuSans-Oblique-4e" transform="translate(56.669922 -16.3125) scale(0.7)"/>
    </g>
   </g>
  </g>
 </g>
 <defs>
  <clipPath id="p8f22440cfc">
   <rect x="7.2" y="7.2" width="338.4" height="338.4"/>
  </clipPath>
 </defs>
</svg>
