<?xml version="1.0" encoding="utf-8" standalone="no"?>
<!DOCTYPE svg PUBLIC "-//W3C//DTD SVG 1.1//EN"
  "http://www.w3.org/Graphics/SVG/1.1/DTD/svg11.dtd">
<svg xmlns:xlink="http://www.w3.org/1999/xlink" width="230.52pt" height="244.878281pt" viewBox="0 0 230.52 244.878281" xmlns="http://www.w3.org/2000/svg" version="1.1">
 <metadata>
  <rdf:RDF xmlns:dc="http://purl.org/dc/elements/1.1/" xmlns:cc="http://creativecommons.org/ns#" xmlns:rdf="http://www.w3.org/1999/02/22-rdf-syntax-ns#">
   <cc:Work>
    <dc:type rdf:resource="http://purl.org/dc/dcmitype/StillImage"/>
    <dc:date>2026-03-13T10:22:52.769256</dc:date>
    <dc:format>image/svg+xml</dc:format>
    <dc:creator>
     <cc:Agent>
      <dc:title>Matplotlib v3.10.8, https://matplotlib.org/</dc:title>
     </cc:Agent>
    </dc:creator>
   </cc:Work>
  </rdf:RDF>
 </metadata>
 <defs>
  <style type="text/css">*{stroke-linejoin: round; stroke-linecap: butt}</style>
 </defs>
 <g id="figure_1">
  <g id="patch_1">
   <path d="M 0 244.878281 
L 230.52 244.878281 
L 230.52 0 
L 0 0 
z
" style="fill: #ffffff"/>
  </g>
  <g id="axes_1">
   <g id="patch_2">
    <path d="M 22.104828 222.773454 
L 208.415172 222.773454 
L 208.415172 36.463109 
L 22.104828 36.463109 
z
" clip-path="url(#pe912b57e0c)" style="fill: #f0f4fa; stroke: #555555; stroke-width: 1.5; stroke-linejoin: miter"/>
   </g>
   <g id="line2d_1">
    <defs>
     <path id="m32ed99fe3c" d="M 0 2.5 
C 0.663008 2.5 1.29895 2.236584 1.767767 1.767767 
C 2.236584 1.29895 2.5 0.663008 2.5 0 
C 2.5 -0.663008 2.236584 -1.29895 1.767767 -1.767767 
C 1.29895 -2.236584 0.663008 -2.5 0 -2.5 
C -0.663008 -2.5 -1.29895 -2.236584 -1.767767 -1.767767 
C -2.236584 -1.29895 -2.5 -0.663008 -2.5 0 
C -2.5 0.663008 -2.236584 1.29895 -1.767767 1.767767 
C -1.29895 2.236584 -0.663008 2.5 0 2.5 
z
" style="stroke: #555555"/>
    </defs>
    <g clip-path="url(#pe912b57e0c)">
     <use xlink:href="#m32ed99fe3c" x="22.104828" y="222.773454" style="fill: #555555; stroke: #555555"/>
     <use xlink:href="#m32ed99fe3c" x="208.415172" y="222.773454" style="fill: #555555; stroke: #555555"/>
     <use xlink:href="#m32ed99fe3c" x="208.415172" y="36.463109" style="fill: #555555; stroke: #555555"/>
     <use xlink:href="#m32ed99fe3c" x="22.104828" y="36.463109" style="fill: #555555; stroke: #555555"/>
    </g>
   </g>
   <g id="text_1">
    <!-- Order 7 (4×4 = 16 points) -->
    <g transform="translate(42.990859 15.558281) scale(0.11 -0.11)">
     <defs>
      <path id="DejaVuSans-4f" d="M 2522 4238 
Q 1834 4238 1429 3725 
Q 1025 3213 1025 2328 
Q 1025 1447 1429 934 
Q 1834 422 2522 422 
Q 3209 422 3611 934 
Q 4013 1447 4013 2328 
Q 4013 3213 3611 3725 
Q 3209 4238 2522 4238 
z
M 2522 4750 
Q 3503 4750 4090 4092 
Q 4678 3434 4678 2328 
Q 4678 1225 4090 567 
Q 3503 -91 2522 -91 
Q 1538 -91 948 565 
Q 359 1222 359 2328 
Q 359 3434 948 4092 
Q 1538 4750 2522 4750 
z
" transform="scale(0.015625)"/>
      <path id="DejaVuSans-72" d="M 2631 2963 
Q 2534 3019 2420 3045 
Q 2306 3072 2169 3072 
Q 1681 3072 1420 2755 
Q 1159 2438 1159 1844 
L 1159 0 
L 581 0 
L 581 3500 
L 1159 3500 
L 1159 2956 
Q 1341 3275 1631 3429 
Q 1922 3584 2338 3584 
Q 2397 3584 2469 3576 
Q 2541 3569 2628 3553 
L 2631 2963 
z
" transform="scale(0.015625)"/>
      <path id="DejaVuSans-64" d="M 2906 2969 
L 2906 4863 
L 3481 4863 
L 3481 0 
L 2906 0 
L 2906 525 
Q 2725 213 2448 61 
Q 2172 -91 1784 -91 
Q 1150 -91 751 415 
Q 353 922 353 1747 
Q 353 2572 751 3078 
Q 1150 3584 1784 3584 
Q 2172 3584 2448 3432 
Q 2725 3281 2906 2969 
z
M 947 1747 
Q 947 1113 1208 752 
Q 1469 391 1925 391 
Q 2381 391 2643 752 
Q 2906 1113 2906 1747 
Q 2906 2381 2643 2742 
Q 2381 3103 1925 3103 
Q 1469 3103 1208 2742 
Q 947 2381 947 1747 
z
" transform="scale(0.015625)"/>
      <path id="DejaVuSans-65" d="M 3597 1894 
L 3597 1613 
L 953 1613 
Q 991 1019 1311 708 
Q 1631 397 2203 397 
Q 2534 397 2845 478 
Q 3156 559 3463 722 
L 3463 178 
Q 3153 47 2828 -22 
Q 2503 -91 2169 -91 
Q 1331 -91 842 396 
Q 353 884 353 1716 
Q 353 2575 817 3079 
Q 1281 3584 2069 3584 
Q 2775 3584 3186 3129 
Q 3597 2675 3597 1894 
z
M 3022 2063 
Q 3016 2534 2758 2815 
Q 2500 3097 2075 3097 
Q 1594 3097 1305 2825 
Q 1016 2553 972 2059 
L 3022 2063 
z
" transform="scale(0.015625)"/>
      <path id="DejaVuSans-20" transform="scale(0.015625)"/>
      <path id="DejaVuSans-37" d="M 525 4666 
L 3525 4666 
L 3525 4397 
L 1831 0 
L 1172 0 
L 2766 4134 
L 525 4134 
L 525 4666 
z
" transform="scale(0.015625)"/>
      <path id="DejaVuSans-28" d="M 1984 4856 
Q 1566 4138 1362 3434 
Q 1159 2731 1159 2009 
Q 1159 1288 1364 580 
Q 1569 -128 1984 -844 
L 1484 -844 
Q 1016 -109 783 600 
Q 550 1309 550 2009 
Q 550 2706 781 3412 
Q 1013 4119 1484 4856 
L 1984 4856 
z
" transform="scale(0.015625)"/>
      <path id="DejaVuSans-34" d="M 2419 4116 
L 825 1625 
L 2419 1625 
L 2419 4116 
z
M 2253 4666 
L 3047 4666 
L 3047 1625 
L 3713 1625 
L 3713 1100 
L 3047 1100 
L 3047 0 
L 2419 0 
L 2419 1100 
L 313 1100 
L 313 1709 
L 2253 4666 
z
" transform="scale(0.015625)"/>
      <path id="DejaVuSans-d7" d="M 4488 3438 
L 3059 2003 
L 4488 575 
L 4116 197 
L 2681 1631 
L 1247 197 
L 878 575 
L 2303 2003 
L 878 3438 
L 1247 3816 
L 2681 2381 
L 4116 3816 
L 4488 3438 
z
" transform="scale(0.015625)"/>
      <path id="DejaVuSans-3d" d="M 678 2906 
L 4684 2906 
L 4684 2381 
L 678 2381 
L 678 2906 
z
M 678 1631 
L 4684 1631 
L 4684 1100 
L 678 1100 
L 678 1631 
z
" transform="scale(0.015625)"/>
      <path id="DejaVuSans-31" d="M 794 531 
L 1825 531 
L 1825 4091 
L 703 3866 
L 703 4441 
L 1819 4666 
L 2450 4666 
L 2450 531 
L 3481 531 
L 3481 0 
L 794 0 
L 794 531 
z
" transform="scale(0.015625)"/>
      <path id="DejaVuSans-36" d="M 2113 2584 
Q 1688 2584 1439 2293 
Q 1191 2003 1191 1497 
Q 1191 994 1439 701 
Q 1688 409 2113 409 
Q 2538 409 2786 701 
Q 3034 994 3034 1497 
Q 3034 2003 2786 2293 
Q 2538 2584 2113 2584 
z
M 3366 4563 
L 3366 3988 
Q 3128 4100 2886 4159 
Q 2644 4219 2406 4219 
Q 1781 4219 1451 3797 
Q 1122 3375 1075 2522 
Q 1259 2794 1537 2939 
Q 1816 3084 2150 3084 
Q 2853 3084 3261 2657 
Q 3669 2231 3669 1497 
Q 3669 778 3244 343 
Q 2819 -91 2113 -91 
Q 1303 -91 875 529 
Q 447 1150 447 2328 
Q 447 3434 972 4092 
Q 1497 4750 2381 4750 
Q 2619 4750 2861 4703 
Q 3103 4656 3366 4563 
z
" transform="scale(0.015625)"/>
      <path id="DejaVuSans-70" d="M 1159 525 
L 1159 -1331 
L 581 -1331 
L 581 3500 
L 1159 3500 
L 1159 2969 
Q 1341 3281 1617 3432 
Q 1894 3584 2278 3584 
Q 2916 3584 3314 3078 
Q 3713 2572 3713 1747 
Q 3713 922 3314 415 
Q 2916 -91 2278 -91 
Q 1894 -91 1617 61 
Q 1341 213 1159 525 
z
M 3116 1747 
Q 3116 2381 2855 2742 
Q 2594 3103 2138 3103 
Q 1681 3103 1420 2742 
Q 1159 2381 1159 1747 
Q 1159 1113 1420 752 
Q 1681 391 2138 391 
Q 2594 391 2855 752 
Q 3116 1113 3116 1747 
z
" transform="scale(0.015625)"/>
      <path id="DejaVuSans-6f" d="M 1959 3097 
Q 1497 3097 1228 2736 
Q 959 2375 959 1747 
Q 959 1119 1226 758 
Q 1494 397 1959 397 
Q 2419 397 2687 759 
Q 2956 1122 2956 1747 
Q 2956 2369 2687 2733 
Q 2419 3097 1959 3097 
z
M 1959 3584 
Q 2709 3584 3137 3096 
Q 3566 2609 3566 1747 
Q 3566 888 3137 398 
Q 2709 -91 1959 -91 
Q 1206 -91 779 398 
Q 353 888 353 1747 
Q 353 2609 779 3096 
Q 1206 3584 1959 3584 
z
" transform="scale(0.015625)"/>
      <path id="DejaVuSans-69" d="M 603 3500 
L 1178 3500 
L 1178 0 
L 603 0 
L 603 3500 
z
M 603 4863 
L 1178 4863 
L 1178 4134 
L 603 4134 
L 603 4863 
z
" transform="scale(0.015625)"/>
      <path id="DejaVuSans-6e" d="M 3513 2113 
L 3513 0 
L 2938 0 
L 2938 2094 
Q 2938 2591 2744 2837 
Q 2550 3084 2163 3084 
Q 1697 3084 1428 2787 
Q 1159 2491 1159 1978 
L 1159 0 
L 581 0 
L 581 3500 
L 1159 3500 
L 1159 2956 
Q 1366 3272 1645 3428 
Q 1925 3584 2291 3584 
Q 2894 3584 3203 3211 
Q 3513 2838 3513 2113 
z
" transform="scale(0.015625)"/>
      <path id="DejaVuSans-74" d="M 1172 4494 
L 1172 3500 
L 2356 3500 
L 2356 3053 
L 1172 3053 
L 1172 1153 
Q 1172 725 1289 603 
Q 1406 481 1766 481 
L 2356 481 
L 2356 0 
L 1766 0 
Q 1100 0 847 248 
Q 594 497 594 1153 
L 594 3053 
L 172 3053 
L 172 3500 
L 594 3500 
L 594 4494 
L 1172 4494 
z
" transform="scale(0.015625)"/>
      <path id="DejaVuSans-73" d="M 2834 3397 
L 2834 2853 
Q 2591 2978 2328 3040 
Q 2066 3103 1784 3103 
Q 1356 3103 1142 2972 
Q 928 2841 928 2578 
Q 928 2378 1081 2264 
Q 1234 2150 1697 2047 
L 1894 2003 
Q 2506 1872 2764 1633 
Q 3022 1394 3022 966 
Q 3022 478 2636 193 
Q 2250 -91 1575 -91 
Q 1294 -91 989 -36 
Q 684 19 347 128 
L 347 722 
Q 666 556 975 473 
Q 1284 391 1588 391 
Q 1994 391 2212 530 
Q 2431 669 2431 922 
Q 2431 1156 2273 1281 
Q 2116 1406 1581 1522 
L 1381 1569 
Q 847 1681 609 1914 
Q 372 2147 372 2553 
Q 372 3047 722 3315 
Q 1072 3584 1716 3584 
Q 2034 3584 2315 3537 
Q 2597 3491 2834 3397 
z
" transform="scale(0.015625)"/>
      <path id="DejaVuSans-29" d="M 513 4856 
L 1013 4856 
Q 1481 4119 1714 3412 
Q 1947 2706 1947 2009 
Q 1947 1309 1714 600 
Q 1481 -109 1013 -844 
L 513 -844 
Q 928 -128 1133 580 
Q 1338 1288 1338 2009 
Q 1338 2731 1133 3434 
Q 928 4138 513 4856 
z
" transform="scale(0.015625)"/>
     </defs>
     <use xlink:href="#DejaVuSans-4f"/>
     <use xlink:href="#DejaVuSans-72" transform="translate(78.710938 0)"/>
     <use xlink:href="#DejaVuSans-64" transform="translate(118.074219 0)"/>
     <use xlink:href="#DejaVuSans-65" transform="translate(181.550781 0)"/>
     <use xlink:href="#DejaVuSans-72" transform="translate(243.074219 0)"/>
     <use xlink:href="#DejaVuSans-20" transform="translate(284.1875 0)"/>
     <use xlink:href="#DejaVuSans-37" transform="translate(315.974609 0)"/>
     <use xlink:href="#DejaVuSans-20" transform="translate(379.597656 0)"/>
     <use xlink:href="#DejaVuSans-28" transform="translate(411.384766 0)"/>
     <use xlink:href="#DejaVuSans-34" transform="translate(450.398438 0)"/>
     <use xlink:href="#DejaVuSans-d7" transform="translate(514.021484 0)"/>
     <use xlink:href="#DejaVuSans-34" transform="translate(597.810547 0)"/>
     <use xlink:href="#DejaVuSans-20" transform="translate(661.433594 0)"/>
     <use xlink:href="#DejaVuSans-3d" transform="translate(693.220703 0)"/>
     <use xlink:href="#DejaVuSans-20" transform="translate(777.009766 0)"/>
     <use xlink:href="#DejaVuSans-31" transform="translate(808.796875 0)"/>
     <use xlink:href="#DejaVuSans-36" transform="translate(872.419922 0)"/>
     <use xlink:href="#DejaVuSans-20" transform="translate(936.042969 0)"/>
     <use xlink:href="#DejaVuSans-70" transform="translate(967.830078 0)"/>
     <use xlink:href="#DejaVuSans-6f" transform="translate(1031.306641 0)"/>
     <use xlink:href="#DejaVuSans-69" transform="translate(1092.488281 0)"/>
     <use xlink:href="#DejaVuSans-6e" transform="translate(1120.271484 0)"/>
     <use xlink:href="#DejaVuSans-74" transform="translate(1183.650391 0)"/>
     <use xlink:href="#DejaVuSans-73" transform="translate(1222.859375 0)"/>
     <use xlink:href="#DejaVuSans-29" transform="translate(1274.958984 0)"/>
    </g>
   </g>
   <g id="PathCollection_1">
    <path d="M 35.040698 213.415745 
C 35.989638 213.415745 36.89984 213.038727 37.570841 212.367726 
C 38.241843 211.696724 38.618861 210.786523 38.618861 209.837583 
C 38.618861 208.888643 38.241843 207.978442 37.570841 207.30744 
C 36.89984 206.636438 35.989638 206.25942 35.040698 206.25942 
C 34.091759 206.25942 33.181557 206.636438 32.510556 207.30744 
C 31.839554 207.978442 31.462536 208.888643 31.462536 209.837583 
C 31.462536 210.786523 31.839554 211.696724 32.510556 212.367726 
C 33.181557 213.038727 34.091759 213.415745 35.040698 213.415745 
z
" clip-path="url(#pe912b57e0c)" style="fill: #1a5fa8; stroke: #1a5fa8"/>
    <path d="M 35.040698 166.188564 
C 36.340005 166.188564 37.586271 165.672344 38.50502 164.753595 
C 39.423768 163.834846 39.939988 162.588581 39.939988 161.289274 
C 39.939988 159.989967 39.423768 158.743702 38.50502 157.824953 
C 37.586271 156.906204 36.340005 156.389984 35.040698 156.389984 
C 33.741392 156.389984 32.495126 156.906204 31.576377 157.824953 
C 30.657629 158.743702 30.141408 159.989967 30.141408 161.289274 
C 30.141408 162.588581 30.657629 163.834846 31.576377 164.753595 
C 32.495126 165.672344 33.741392 166.188564 35.040698 166.188564 
z
" clip-path="url(#pe912b57e0c)" style="fill: #1a5fa8; stroke: #1a5fa8"/>
    <path d="M 35.040698 102.846579 
C 36.340005 102.846579 37.586271 102.330358 38.50502 101.41161 
C 39.423768 100.492861 39.939988 99.246595 39.939988 97.947289 
C 39.939988 96.647982 39.423768 95.401716 38.50502 94.482967 
C 37.586271 93.564219 36.340005 93.047998 35.040698 93.047998 
C 33.741392 93.047998 32.495126 93.564219 31.576377 94.482967 
C 30.657629 95.401716 30.141408 96.647982 30.141408 97.947289 
C 30.141408 99.246595 30.657629 100.492861 31.576377 101.41161 
C 32.495126 102.330358 33.741392 102.846579 35.040698 102.846579 
z
" clip-path="url(#pe912b57e0c)" style="fill: #1a5fa8; stroke: #1a5fa8"/>
    <path d="M 35.040698 52.977142 
C 35.989638 52.977142 36.89984 52.600124 37.570841 51.929123 
C 38.241843 51.258121 38.618861 50.347919 38.618861 49.39898 
C 38.618861 48.45004 38.241843 47.539839 37.570841 46.868837 
C 36.89984 46.197835 35.989638 45.820817 35.040698 45.820817 
C 34.091759 45.820817 33.181557 46.197835 32.510556 46.868837 
C 31.839554 47.539839 31.462536 48.45004 31.462536 49.39898 
C 31.462536 50.347919 31.839554 51.258121 32.510556 51.929123 
C 33.181557 52.600124 34.091759 52.977142 35.040698 52.977142 
z
" clip-path="url(#pe912b57e0c)" style="fill: #1a5fa8; stroke: #1a5fa8"/>
    <path d="M 83.589007 214.736873 
C 84.888314 214.736873 86.13458 214.220653 87.053328 213.301904 
C 87.972077 212.383155 88.488297 211.13689 88.488297 209.837583 
C 88.488297 208.538276 87.972077 207.29201 87.053328 206.373262 
C 86.13458 205.454513 84.888314 204.938293 83.589007 204.938293 
C 82.2897 204.938293 81.043435 205.454513 80.124686 206.373262 
C 79.205937 207.29201 78.689717 208.538276 78.689717 209.837583 
C 78.689717 211.13689 79.205937 212.383155 80.124686 213.301904 
C 81.043435 214.220653 82.2897 214.736873 83.589007 214.736873 
z
" clip-path="url(#pe912b57e0c)" style="fill: #1a5fa8; stroke: #1a5fa8"/>
    <path d="M 83.589007 167.997478 
C 85.368044 167.997478 87.074455 167.290659 88.332424 166.03269 
C 89.590393 164.774722 90.297211 163.06831 90.297211 161.289274 
C 90.297211 159.510238 89.590393 157.803826 88.332424 156.545857 
C 87.074455 155.287889 85.368044 154.58107 83.589007 154.58107 
C 81.809971 154.58107 80.10356 155.287889 78.845591 156.545857 
C 77.587622 157.803826 76.880803 159.510238 76.880803 161.289274 
C 76.880803 163.06831 77.587622 164.774722 78.845591 166.03269 
C 80.10356 167.290659 81.809971 167.997478 83.589007 167.997478 
z
" clip-path="url(#pe912b57e0c)" style="fill: #1a5fa8; stroke: #1a5fa8"/>
    <path d="M 83.589007 104.655492 
C 85.368044 104.655492 87.074455 103.948674 88.332424 102.690705 
C 89.590393 101.432736 90.297211 99.726325 90.297211 97.947289 
C 90.297211 96.168252 89.590393 94.461841 88.332424 93.203872 
C 87.074455 91.945903 85.368044 91.239085 83.589007 91.239085 
C 81.809971 91.239085 80.10356 91.945903 78.845591 93.203872 
C 77.587622 94.461841 76.880803 96.168252 76.880803 97.947289 
C 76.880803 99.726325 77.587622 101.432736 78.845591 102.690705 
C 80.10356 103.948674 81.809971 104.655492 83.589007 104.655492 
z
" clip-path="url(#pe912b57e0c)" style="fill: #1a5fa8; stroke: #1a5fa8"/>
    <path d="M 83.589007 54.29827 
C 84.888314 54.29827 86.13458 53.78205 87.053328 52.863301 
C 87.972077 51.944552 88.488297 50.698287 88.488297 49.39898 
C 88.488297 48.099673 87.972077 46.853407 87.053328 45.934658 
C 86.13458 45.01591 84.888314 44.49969 83.589007 44.49969 
C 82.2897 44.49969 81.043435 45.01591 80.124686 45.934658 
C 79.205937 46.853407 78.689717 48.099673 78.689717 49.39898 
C 78.689717 50.698287 79.205937 51.944552 80.124686 52.863301 
C 81.043435 53.78205 82.2897 54.29827 83.589007 54.29827 
z
" clip-path="url(#pe912b57e0c)" style="fill: #1a5fa8; stroke: #1a5fa8"/>
    <path d="M 146.930993 214.736873 
C 148.2303 214.736873 149.476565 214.220653 150.395314 213.301904 
C 151.314063 212.383155 151.830283 211.13689 151.830283 209.837583 
C 151.830283 208.538276 151.314063 207.29201 150.395314 206.373262 
C 149.476565 205.454513 148.2303 204.938293 146.930993 204.938293 
C 145.631686 204.938293 144.38542 205.454513 143.466672 206.373262 
C 142.547923 207.29201 142.031703 208.538276 142.031703 209.837583 
C 142.031703 211.13689 142.547923 212.383155 143.466672 213.301904 
C 144.38542 214.220653 145.631686 214.736873 146.930993 214.736873 
z
" clip-path="url(#pe912b57e0c)" style="fill: #1a5fa8; stroke: #1a5fa8"/>
    <path d="M 146.930993 167.997478 
C 148.710029 167.997478 150.41644 167.290659 151.674409 166.03269 
C 152.932378 164.774722 153.639197 163.06831 153.639197 161.289274 
C 153.639197 159.510238 152.932378 157.803826 151.674409 156.545857 
C 150.41644 155.287889 148.710029 154.58107 146.930993 154.58107 
C 145.151956 154.58107 143.445545 155.287889 142.187576 156.545857 
C 140.929607 157.803826 140.222789 159.510238 140.222789 161.289274 
C 140.222789 163.06831 140.929607 164.774722 142.187576 166.03269 
C 143.445545 167.290659 145.151956 167.997478 146.930993 167.997478 
z
" clip-path="url(#pe912b57e0c)" style="fill: #1a5fa8; stroke: #1a5fa8"/>
    <path d="M 146.930993 104.655492 
C 148.710029 104.655492 150.41644 103.948674 151.674409 102.690705 
C 152.932378 101.432736 153.639197 99.726325 153.639197 97.947289 
C 153.639197 96.168252 152.932378 94.461841 151.674409 93.203872 
C 150.41644 91.945903 148.710029 91.239085 146.930993 91.239085 
C 145.151956 91.239085 143.445545 91.945903 142.187576 93.203872 
C 140.929607 94.461841 140.222789 96.168252 140.222789 97.947289 
C 140.222789 99.726325 140.929607 101.432736 142.187576 102.690705 
C 143.445545 103.948674 145.151956 104.655492 146.930993 104.655492 
z
" clip-path="url(#pe912b57e0c)" style="fill: #1a5fa8; stroke: #1a5fa8"/>
    <path d="M 146.930993 54.29827 
C 148.2303 54.29827 149.476565 53.78205 150.395314 52.863301 
C 151.314063 51.944552 151.830283 50.698287 151.830283 49.39898 
C 151.830283 48.099673 151.314063 46.853407 150.395314 45.934658 
C 149.476565 45.01591 148.2303 44.49969 146.930993 44.49969 
C 145.631686 44.49969 144.38542 45.01591 143.466672 45.934658 
C 142.547923 46.853407 142.031703 48.099673 142.031703 49.39898 
C 142.031703 50.698287 142.547923 51.944552 143.466672 52.863301 
C 144.38542 53.78205 145.631686 54.29827 146.930993 54.29827 
z
" clip-path="url(#pe912b57e0c)" style="fill: #1a5fa8; stroke: #1a5fa8"/>
    <path d="M 195.479302 213.415745 
C 196.428241 213.415745 197.338443 213.038727 198.009444 212.367726 
C 198.680446 211.696724 199.057464 210.786523 199.057464 209.837583 
C 199.057464 208.888643 198.680446 207.978442 198.009444 207.30744 
C 197.338443 206.636438 196.428241 206.25942 195.479302 206.25942 
C 194.530362 206.25942 193.62016 206.636438 192.949159 207.30744 
C 192.278157 207.978442 191.901139 208.888643 191.901139 209.837583 
C 191.901139 210.786523 192.278157 211.696724 192.949159 212.367726 
C 193.62016 213.038727 194.530362 213.415745 195.479302 213.415745 
z
" clip-path="url(#pe912b57e0c)" style="fill: #1a5fa8; stroke: #1a5fa8"/>
    <path d="M 195.479302 166.188564 
C 196.778608 166.188564 198.024874 165.672344 198.943623 164.753595 
C 199.862371 163.834846 200.378592 162.588581 200.378592 161.289274 
C 200.378592 159.989967 199.862371 158.743702 198.943623 157.824953 
C 198.024874 156.906204 196.778608 156.389984 195.479302 156.389984 
C 194.179995 156.389984 192.933729 156.906204 192.01498 157.824953 
C 191.096232 158.743702 190.580012 159.989967 190.580012 161.289274 
C 190.580012 162.588581 191.096232 163.834846 192.01498 164.753595 
C 192.933729 165.672344 194.179995 166.188564 195.479302 166.188564 
z
" clip-path="url(#pe912b57e0c)" style="fill: #1a5fa8; stroke: #1a5fa8"/>
    <path d="M 195.479302 102.846579 
C 196.778608 102.846579 198.024874 102.330358 198.943623 101.41161 
C 199.862371 100.492861 200.378592 99.246595 200.378592 97.947289 
C 200.378592 96.647982 199.862371 95.401716 198.943623 94.482967 
C 198.024874 93.564219 196.778608 93.047998 195.479302 93.047998 
C 194.179995 93.047998 192.933729 93.564219 192.01498 94.482967 
C 191.096232 95.401716 190.580012 96.647982 190.580012 97.947289 
C 190.580012 99.246595 191.096232 100.492861 192.01498 101.41161 
C 192.933729 102.330358 194.179995 102.846579 195.479302 102.846579 
z
" clip-path="url(#pe912b57e0c)" style="fill: #1a5fa8; stroke: #1a5fa8"/>
    <path d="M 195.479302 52.977142 
C 196.428241 52.977142 197.338443 52.600124 198.009444 51.929123 
C 198.680446 51.258121 199.057464 50.347919 199.057464 49.39898 
C 199.057464 48.45004 198.680446 47.539839 198.009444 46.868837 
C 197.338443 46.197835 196.428241 45.820817 195.479302 45.820817 
C 194.530362 45.820817 193.62016 46.197835 192.949159 46.868837 
C 192.278157 47.539839 191.901139 48.45004 191.901139 49.39898 
C 191.901139 50.347919 192.278157 51.258121 192.949159 51.929123 
C 193.62016 52.600124 194.530362 52.977142 195.479302 52.977142 
z
" clip-path="url(#pe912b57e0c)" style="fill: #1a5fa8; stroke: #1a5fa8"/>
   </g>
  </g>
 </g>
 <defs>
  <clipPath id="pe912b57e0c">
   <rect x="7.2" y="21.558281" width="216.12" height="216.12"/>
  </clipPath>
 </defs>
</svg>
