<?xml version="1.0" encoding="utf-8" standalone="no"?>
<!DOCTYPE svg PUBLIC "-//W3C//DTD SVG 1.1//EN"
  "http://www.w3.org/Graphics/SVG/1.1/DTD/svg11.dtd">
<svg xmlns:xlink="http://www.w3.org/1999/xlink" width="640.8pt" height="243.324pt" viewBox="0 0 640.8 243.324" xmlns="http://www.w3.org/2000/svg" version="1.1">
 <metadata>
  <rdf:RDF xmlns:dc="http://purl.org/dc/elements/1.1/" xmlns:cc="http://creativecommons.org/ns#" xmlns:rdf="http://www.w3.org/1999/02/22-rdf-syntax-ns#">
   <cc:Work>
    <dc:type rdf:resource="http://purl.org/dc/dcmitype/StillImage"/>
    <dc:date>2026-03-13T11:09:53.363091</dc:date>
    <dc:format>image/svg+xml</dc:format>
    <dc:creator>
     <cc:Agent>
      <dc:title>Matplotlib v3.10.8, https://matplotlib.org/</dc:title>
     </cc:Agent>
    </dc:creator>
   </cc:Work>
  </rdf:RDF>
 </metadata>
 <defs>
  <style type="text/css">*{stroke-linejoin: round; stroke-linecap: butt}</style>
 </defs>
 <g id="figure_1">
  <g id="patch_1">
   <path d="M 0 243.324 
L 640.8 243.324 
L 640.8 0 
L 0 0 
z
" style="fill: #ffffff"/>
  </g>
  <g id="patch_2">
   <path d="M 7.2 236.124 
L 208.8 236.124 
L 208.8 34.524 
L 7.2 34.524 
z
" style="fill: #ffffff"/>
  </g>
  <g id="pane3d_1">
   <g id="patch_3">
    <path d="M 188.981877 192.010273 
L 159.63917 165.008706 
L 160.354528 75.100564 
L 190.266233 91.557 
" style="fill: #f2f2f2; opacity: 0.5; stroke: #f2f2f2; stroke-linejoin: miter"/>
   </g>
  </g>
  <g id="pane3d_2">
   <g id="patch_4">
    <path d="M 39.519027 169.340759 
L 159.63917 165.008706 
L 160.354528 75.100564 
L 38.457293 77.736888 
" style="fill: #e6e6e6; opacity: 0.5; stroke: #e6e6e6; stroke-linejoin: miter"/>
   </g>
  </g>
  <g id="pane3d_3">
   <g id="patch_5">
    <path d="M 54.740826 197.459402 
L 188.981877 192.010273 
L 159.63917 165.008706 
L 39.519027 169.340759 
" style="fill: #ececec; opacity: 0.5; stroke: #ececec; stroke-linejoin: miter"/>
   </g>
  </g>
  <g id="grid3d_1">
   <g id="Line3DCollection_1">
    <path d="M 54.740826 197.459402 
L 39.519027 169.340759 
L 38.457293 77.736888 
" style="fill: none; stroke: #b0b0b0; stroke-width: 0.8"/>
    <path d="M 82.052286 196.350772 
L 63.912398 168.461028 
L 63.217113 77.201396 
" style="fill: none; stroke: #b0b0b0; stroke-width: 0.8"/>
    <path d="M 109.129136 195.251665 
L 88.118977 167.588034 
L 87.78453 76.670066 
" style="fill: none; stroke: #b0b0b0; stroke-width: 0.8"/>
    <path d="M 135.974387 194.161959 
L 112.1409 166.7217 
L 112.161777 76.142849 
" style="fill: none; stroke: #b0b0b0; stroke-width: 0.8"/>
    <path d="M 162.590997 193.081535 
L 135.980274 165.861948 
L 136.351055 75.619697 
" style="fill: none; stroke: #b0b0b0; stroke-width: 0.8"/>
    <path d="M 188.981877 192.010273 
L 159.63917 165.008706 
L 160.354528 75.100564 
" style="fill: none; stroke: #b0b0b0; stroke-width: 0.8"/>
   </g>
  </g>
  <g id="grid3d_2">
   <g id="Line3DCollection_2">
    <path d="M 190.266233 91.557 
L 188.981877 192.010273 
L 54.740826 197.459402 
" style="fill: none; stroke: #b0b0b0; stroke-width: 0.8"/>
    <path d="M 183.712934 87.951591 
L 182.56207 186.102678 
L 51.404447 191.296236 
" style="fill: none; stroke: #b0b0b0; stroke-width: 0.8"/>
    <path d="M 177.465073 84.514223 
L 176.43687 180.466183 
L 48.224335 185.421739 
" style="fill: none; stroke: #b0b0b0; stroke-width: 0.8"/>
    <path d="M 171.501781 81.233416 
L 170.586451 175.082546 
L 45.189764 179.816093 
" style="fill: none; stroke: #b0b0b0; stroke-width: 0.8"/>
    <path d="M 165.804051 78.098712 
L 164.992728 169.935124 
L 42.290965 174.461254 
" style="fill: none; stroke: #b0b0b0; stroke-width: 0.8"/>
    <path d="M 160.354528 75.100564 
L 159.63917 165.008706 
L 39.519027 169.340759 
" style="fill: none; stroke: #b0b0b0; stroke-width: 0.8"/>
   </g>
  </g>
  <g id="grid3d_3">
   <g id="Line3DCollection_3">
    <path d="M 39.519027 169.340759 
L 159.63917 165.008706 
L 188.981877 192.010273 
" style="fill: none; stroke: #b0b0b0; stroke-width: 0.8"/>
    <path d="M 39.309183 151.235952 
L 159.780587 147.235023 
L 189.235419 172.179981 
" style="fill: none; stroke: #b0b0b0; stroke-width: 0.8"/>
    <path d="M 39.098099 133.024119 
L 159.922824 129.358272 
L 189.49061 152.220777 
" style="fill: none; stroke: #b0b0b0; stroke-width: 0.8"/>
    <path d="M 38.885764 114.704307 
L 160.065889 111.377553 
L 189.747464 132.1314 
" style="fill: none; stroke: #b0b0b0; stroke-width: 0.8"/>
    <path d="M 38.672165 96.275555 
L 160.209787 93.291957 
L 190.006 111.910573 
" style="fill: none; stroke: #b0b0b0; stroke-width: 0.8"/>
    <path d="M 38.457293 77.736888 
L 160.354528 75.100564 
L 190.266233 91.557 
" style="fill: none; stroke: #b0b0b0; stroke-width: 0.8"/>
   </g>
  </g>
  <g id="axis3d_1">
   <g id="line2d_1">
    <path d="M 188.981877 192.010273 
L 54.740826 197.459402 
" style="fill: none; stroke: #000000; stroke-width: 0.8; stroke-linecap: square"/>
   </g>
   <g id="xtick_1">
    <g id="line2d_2">
     <path d="M 54.604227 197.207066 
L 55.014833 197.965564 
" style="fill: none; stroke: #000000; stroke-width: 0.8; stroke-linecap: square"/>
    </g>
    <g id="text_1">
     <!-- 0.0 -->
     <g transform="translate(51.00563 209.633609) scale(0.06 -0.06)">
      <defs>
       <path id="DejaVuSans-30" d="M 2034 4250 
Q 1547 4250 1301 3770 
Q 1056 3291 1056 2328 
Q 1056 1369 1301 889 
Q 1547 409 2034 409 
Q 2525 409 2770 889 
Q 3016 1369 3016 2328 
Q 3016 3291 2770 3770 
Q 2525 4250 2034 4250 
z
M 2034 4750 
Q 2819 4750 3233 4129 
Q 3647 3509 3647 2328 
Q 3647 1150 3233 529 
Q 2819 -91 2034 -91 
Q 1250 -91 836 529 
Q 422 1150 422 2328 
Q 422 3509 836 4129 
Q 1250 4750 2034 4750 
z
" transform="scale(0.015625)"/>
       <path id="DejaVuSans-2e" d="M 684 794 
L 1344 794 
L 1344 0 
L 684 0 
L 684 794 
z
" transform="scale(0.015625)"/>
      </defs>
      <use xlink:href="#DejaVuSans-30"/>
      <use xlink:href="#DejaVuSans-2e" transform="translate(63.623047 0)"/>
      <use xlink:href="#DejaVuSans-30" transform="translate(95.410156 0)"/>
     </g>
    </g>
   </g>
   <g id="xtick_2">
    <g id="line2d_3">
     <path d="M 81.889575 196.100607 
L 82.378664 196.852573 
" style="fill: none; stroke: #000000; stroke-width: 0.8; stroke-linecap: square"/>
    </g>
    <g id="text_2">
     <!-- 0.2 -->
     <g transform="translate(78.478861 208.485181) scale(0.06 -0.06)">
      <defs>
       <path id="DejaVuSans-32" d="M 1228 531 
L 3431 531 
L 3431 0 
L 469 0 
L 469 531 
Q 828 903 1448 1529 
Q 2069 2156 2228 2338 
Q 2531 2678 2651 2914 
Q 2772 3150 2772 3378 
Q 2772 3750 2511 3984 
Q 2250 4219 1831 4219 
Q 1534 4219 1204 4116 
Q 875 4013 500 3803 
L 500 4441 
Q 881 4594 1212 4672 
Q 1544 4750 1819 4750 
Q 2544 4750 2975 4387 
Q 3406 4025 3406 3419 
Q 3406 3131 3298 2873 
Q 3191 2616 2906 2266 
Q 2828 2175 2409 1742 
Q 1991 1309 1228 531 
z
" transform="scale(0.015625)"/>
      </defs>
      <use xlink:href="#DejaVuSans-30"/>
      <use xlink:href="#DejaVuSans-2e" transform="translate(63.623047 0)"/>
      <use xlink:href="#DejaVuSans-32" transform="translate(95.410156 0)"/>
     </g>
    </g>
   </g>
   <g id="xtick_3">
    <g id="line2d_4">
     <path d="M 108.940767 195.003644 
L 109.506977 195.74916 
" style="fill: none; stroke: #000000; stroke-width: 0.8; stroke-linecap: square"/>
    </g>
    <g id="text_3">
     <!-- 0.4 -->
     <g transform="translate(105.714664 207.346679) scale(0.06 -0.06)">
      <defs>
       <path id="DejaVuSans-34" d="M 2419 4116 
L 825 1625 
L 2419 1625 
L 2419 4116 
z
M 2253 4666 
L 3047 4666 
L 3047 1625 
L 3713 1625 
L 3713 1100 
L 3047 1100 
L 3047 0 
L 2419 0 
L 2419 1100 
L 313 1100 
L 313 1709 
L 2253 4666 
z
" transform="scale(0.015625)"/>
      </defs>
      <use xlink:href="#DejaVuSans-30"/>
      <use xlink:href="#DejaVuSans-2e" transform="translate(63.623047 0)"/>
      <use xlink:href="#DejaVuSans-34" transform="translate(95.410156 0)"/>
     </g>
    </g>
   </g>
   <g id="xtick_4">
    <g id="line2d_5">
     <path d="M 135.760803 193.916054 
L 136.402799 194.655204 
" style="fill: none; stroke: #000000; stroke-width: 0.8; stroke-linecap: square"/>
    </g>
    <g id="text_4">
     <!-- 0.6 -->
     <g transform="translate(132.716102 206.217973) scale(0.06 -0.06)">
      <defs>
       <path id="DejaVuSans-36" d="M 2113 2584 
Q 1688 2584 1439 2293 
Q 1191 2003 1191 1497 
Q 1191 994 1439 701 
Q 1688 409 2113 409 
Q 2538 409 2786 701 
Q 3034 994 3034 1497 
Q 3034 2003 2786 2293 
Q 2538 2584 2113 2584 
z
M 3366 4563 
L 3366 3988 
Q 3128 4100 2886 4159 
Q 2644 4219 2406 4219 
Q 1781 4219 1451 3797 
Q 1122 3375 1075 2522 
Q 1259 2794 1537 2939 
Q 1816 3084 2150 3084 
Q 2853 3084 3261 2657 
Q 3669 2231 3669 1497 
Q 3669 778 3244 343 
Q 2819 -91 2113 -91 
Q 1303 -91 875 529 
Q 447 1150 447 2328 
Q 447 3434 972 4092 
Q 1497 4750 2381 4750 
Q 2619 4750 2861 4703 
Q 3103 4656 3366 4563 
z
" transform="scale(0.015625)"/>
      </defs>
      <use xlink:href="#DejaVuSans-30"/>
      <use xlink:href="#DejaVuSans-2e" transform="translate(63.623047 0)"/>
      <use xlink:href="#DejaVuSans-36" transform="translate(95.410156 0)"/>
     </g>
    </g>
   </g>
   <g id="xtick_5">
    <g id="line2d_6">
     <path d="M 162.352635 192.837718 
L 163.069107 193.570584 
" style="fill: none; stroke: #000000; stroke-width: 0.8; stroke-linecap: square"/>
    </g>
    <g id="text_5">
     <!-- 0.8 -->
     <g transform="translate(159.486188 205.098937) scale(0.06 -0.06)">
      <defs>
       <path id="DejaVuSans-38" d="M 2034 2216 
Q 1584 2216 1326 1975 
Q 1069 1734 1069 1313 
Q 1069 891 1326 650 
Q 1584 409 2034 409 
Q 2484 409 2743 651 
Q 3003 894 3003 1313 
Q 3003 1734 2745 1975 
Q 2488 2216 2034 2216 
z
M 1403 2484 
Q 997 2584 770 2862 
Q 544 3141 544 3541 
Q 544 4100 942 4425 
Q 1341 4750 2034 4750 
Q 2731 4750 3128 4425 
Q 3525 4100 3525 3541 
Q 3525 3141 3298 2862 
Q 3072 2584 2669 2484 
Q 3125 2378 3379 2068 
Q 3634 1759 3634 1313 
Q 3634 634 3220 271 
Q 2806 -91 2034 -91 
Q 1263 -91 848 271 
Q 434 634 434 1313 
Q 434 1759 690 2068 
Q 947 2378 1403 2484 
z
M 1172 3481 
Q 1172 3119 1398 2916 
Q 1625 2713 2034 2713 
Q 2441 2713 2670 2916 
Q 2900 3119 2900 3481 
Q 2900 3844 2670 4047 
Q 2441 4250 2034 4250 
Q 1625 4250 1398 4047 
Q 1172 3844 1172 3481 
z
" transform="scale(0.015625)"/>
      </defs>
      <use xlink:href="#DejaVuSans-30"/>
      <use xlink:href="#DejaVuSans-2e" transform="translate(63.623047 0)"/>
      <use xlink:href="#DejaVuSans-38" transform="translate(95.410156 0)"/>
     </g>
    </g>
   </g>
   <g id="xtick_6">
    <g id="line2d_7">
     <path d="M 188.719162 191.768519 
L 189.508826 192.495179 
" style="fill: none; stroke: #000000; stroke-width: 0.8; stroke-linecap: square"/>
    </g>
    <g id="text_6">
     <!-- 1.0 -->
     <g transform="translate(186.027881 203.98945) scale(0.06 -0.06)">
      <defs>
       <path id="DejaVuSans-31" d="M 794 531 
L 1825 531 
L 1825 4091 
L 703 3866 
L 703 4441 
L 1819 4666 
L 2450 4666 
L 2450 531 
L 3481 531 
L 3481 0 
L 794 0 
L 794 531 
z
" transform="scale(0.015625)"/>
      </defs>
      <use xlink:href="#DejaVuSans-31"/>
      <use xlink:href="#DejaVuSans-2e" transform="translate(63.623047 0)"/>
      <use xlink:href="#DejaVuSans-30" transform="translate(95.410156 0)"/>
     </g>
    </g>
   </g>
   <g id="text_7">
    <!-- x -->
    <g transform="translate(124.324168 218.448417) scale(0.08 -0.08)">
     <defs>
      <path id="DejaVuSans-78" d="M 3513 3500 
L 2247 1797 
L 3578 0 
L 2900 0 
L 1881 1375 
L 863 0 
L 184 0 
L 1544 1831 
L 300 3500 
L 978 3500 
L 1906 2253 
L 2834 3500 
L 3513 3500 
z
" transform="scale(0.015625)"/>
     </defs>
     <use xlink:href="#DejaVuSans-78"/>
    </g>
   </g>
  </g>
  <g id="axis3d_2">
   <g id="line2d_8">
    <path d="M 39.519027 169.340759 
L 54.740826 197.459402 
" style="fill: none; stroke: #000000; stroke-width: 0.8; stroke-linecap: square"/>
   </g>
   <g id="xtick_7">
    <g id="line2d_9">
     <path d="M 55.837828 197.414872 
L 52.545683 197.548507 
" style="fill: none; stroke: #000000; stroke-width: 0.8; stroke-linecap: square"/>
    </g>
    <g id="text_8">
     <!-- 0.0 -->
     <g transform="translate(42.183285 208.103081) scale(0.06 -0.06)">
      <use xlink:href="#DejaVuSans-30"/>
      <use xlink:href="#DejaVuSans-2e" transform="translate(63.623047 0)"/>
      <use xlink:href="#DejaVuSans-30" transform="translate(95.410156 0)"/>
     </g>
    </g>
   </g>
   <g id="xtick_8">
    <g id="line2d_10">
     <path d="M 52.47571 191.253817 
L 49.260833 191.381119 
" style="fill: none; stroke: #000000; stroke-width: 0.8; stroke-linecap: square"/>
    </g>
    <g id="text_9">
     <!-- 0.2 -->
     <g transform="translate(39.032723 201.792186) scale(0.06 -0.06)">
      <use xlink:href="#DejaVuSans-30"/>
      <use xlink:href="#DejaVuSans-2e" transform="translate(63.623047 0)"/>
      <use xlink:href="#DejaVuSans-32" transform="translate(95.410156 0)"/>
     </g>
    </g>
   </g>
   <g id="xtick_9">
    <g id="line2d_11">
     <path d="M 49.27104 185.381283 
L 46.129888 185.502692 
" style="fill: none; stroke: #000000; stroke-width: 0.8; stroke-linecap: square"/>
    </g>
    <g id="text_10">
     <!-- 0.4 -->
     <g transform="translate(36.029768 195.776961) scale(0.06 -0.06)">
      <use xlink:href="#DejaVuSans-30"/>
      <use xlink:href="#DejaVuSans-2e" transform="translate(63.623047 0)"/>
      <use xlink:href="#DejaVuSans-34" transform="translate(95.410156 0)"/>
     </g>
    </g>
   </g>
   <g id="xtick_10">
    <g id="line2d_12">
     <path d="M 46.213011 179.777466 
L 43.142279 179.893382 
" style="fill: none; stroke: #000000; stroke-width: 0.8; stroke-linecap: square"/>
    </g>
    <g id="text_11">
     <!-- 0.6 -->
     <g transform="translate(33.164284 190.037104) scale(0.06 -0.06)">
      <use xlink:href="#DejaVuSans-30"/>
      <use xlink:href="#DejaVuSans-2e" transform="translate(63.623047 0)"/>
      <use xlink:href="#DejaVuSans-36" transform="translate(95.410156 0)"/>
     </g>
    </g>
   </g>
   <g id="xtick_11">
    <g id="line2d_13">
     <path d="M 43.291782 174.424337 
L 40.288384 174.535124 
" style="fill: none; stroke: #000000; stroke-width: 0.8; stroke-linecap: square"/>
    </g>
    <g id="text_12">
     <!-- 0.8 -->
     <g transform="translate(30.427041 184.554129) scale(0.06 -0.06)">
      <use xlink:href="#DejaVuSans-30"/>
      <use xlink:href="#DejaVuSans-2e" transform="translate(63.623047 0)"/>
      <use xlink:href="#DejaVuSans-38" transform="translate(95.410156 0)"/>
     </g>
    </g>
   </g>
   <g id="xtick_12">
    <g id="line2d_14">
     <path d="M 40.498375 169.30544 
L 37.559423 169.411431 
" style="fill: none; stroke: #000000; stroke-width: 0.8; stroke-linecap: square"/>
    </g>
    <g id="text_13">
     <!-- 1.0 -->
     <g transform="translate(27.80962 179.311168) scale(0.06 -0.06)">
      <use xlink:href="#DejaVuSans-31"/>
      <use xlink:href="#DejaVuSans-2e" transform="translate(63.623047 0)"/>
      <use xlink:href="#DejaVuSans-30" transform="translate(95.410156 0)"/>
     </g>
    </g>
   </g>
   <g id="text_14">
    <!-- y -->
    <g transform="translate(23.520064 201.032351) scale(0.08 -0.08)">
     <defs>
      <path id="DejaVuSans-79" d="M 2059 -325 
Q 1816 -950 1584 -1140 
Q 1353 -1331 966 -1331 
L 506 -1331 
L 506 -850 
L 844 -850 
Q 1081 -850 1212 -737 
Q 1344 -625 1503 -206 
L 1606 56 
L 191 3500 
L 800 3500 
L 1894 763 
L 2988 3500 
L 3597 3500 
L 2059 -325 
z
" transform="scale(0.015625)"/>
     </defs>
     <use xlink:href="#DejaVuSans-79"/>
    </g>
   </g>
  </g>
  <g id="axis3d_3">
   <g id="line2d_15">
    <path d="M 39.519027 169.340759 
L 38.457293 77.736888 
" style="fill: none; stroke: #000000; stroke-width: 0.8; stroke-linecap: square"/>
   </g>
   <g id="xtick_13">
    <g id="line2d_16">
     <path d="M 40.498375 169.30544 
L 37.559423 169.411431 
" style="fill: none; stroke: #000000; stroke-width: 0.8; stroke-linecap: square"/>
    </g>
    <g id="text_15">
     <!-- 0.0 -->
     <g transform="translate(27.016824 172.727196) scale(0.06 -0.06)">
      <use xlink:href="#DejaVuSans-30"/>
      <use xlink:href="#DejaVuSans-2e" transform="translate(63.623047 0)"/>
      <use xlink:href="#DejaVuSans-30" transform="translate(95.410156 0)"/>
     </g>
    </g>
   </g>
   <g id="xtick_14">
    <g id="line2d_17">
     <path d="M 40.29145 151.20333 
L 37.343738 151.301226 
" style="fill: none; stroke: #000000; stroke-width: 0.8; stroke-linecap: square"/>
    </g>
    <g id="text_16">
     <!-- 0.2 -->
     <g transform="translate(26.785391 154.711975) scale(0.06 -0.06)">
      <use xlink:href="#DejaVuSans-30"/>
      <use xlink:href="#DejaVuSans-2e" transform="translate(63.623047 0)"/>
      <use xlink:href="#DejaVuSans-32" transform="translate(95.410156 0)"/>
     </g>
    </g>
   </g>
   <g id="xtick_15">
    <g id="line2d_18">
     <path d="M 40.083301 132.994227 
L 37.126777 133.083929 
" style="fill: none; stroke: #000000; stroke-width: 0.8; stroke-linecap: square"/>
    </g>
    <g id="text_17">
     <!-- 0.4 -->
     <g transform="translate(26.552598 136.590807) scale(0.06 -0.06)">
      <use xlink:href="#DejaVuSans-30"/>
      <use xlink:href="#DejaVuSans-2e" transform="translate(63.623047 0)"/>
      <use xlink:href="#DejaVuSans-34" transform="translate(95.410156 0)"/>
     </g>
    </g>
   </g>
   <g id="xtick_16">
    <g id="line2d_19">
     <path d="M 39.873919 114.67718 
L 36.908529 114.758588 
" style="fill: none; stroke: #000000; stroke-width: 0.8; stroke-linecap: square"/>
    </g>
    <g id="text_18">
     <!-- 0.6 -->
     <g transform="translate(26.318431 118.362754) scale(0.06 -0.06)">
      <use xlink:href="#DejaVuSans-30"/>
      <use xlink:href="#DejaVuSans-2e" transform="translate(63.623047 0)"/>
      <use xlink:href="#DejaVuSans-36" transform="translate(95.410156 0)"/>
     </g>
    </g>
   </g>
   <g id="xtick_17">
    <g id="line2d_20">
     <path d="M 39.663292 96.251224 
L 36.688983 96.32424 
" style="fill: none; stroke: #000000; stroke-width: 0.8; stroke-linecap: square"/>
    </g>
    <g id="text_19">
     <!-- 0.8 -->
     <g transform="translate(26.082879 100.026867) scale(0.06 -0.06)">
      <use xlink:href="#DejaVuSans-30"/>
      <use xlink:href="#DejaVuSans-2e" transform="translate(63.623047 0)"/>
      <use xlink:href="#DejaVuSans-38" transform="translate(95.410156 0)"/>
     </g>
    </g>
   </g>
   <g id="xtick_18">
    <g id="line2d_21">
     <path d="M 39.451408 77.715388 
L 36.468128 77.779908 
" style="fill: none; stroke: #000000; stroke-width: 0.8; stroke-linecap: square"/>
    </g>
    <g id="text_20">
     <!-- 1.0 -->
     <g transform="translate(25.845929 81.582187) scale(0.06 -0.06)">
      <use xlink:href="#DejaVuSans-31"/>
      <use xlink:href="#DejaVuSans-2e" transform="translate(63.623047 0)"/>
      <use xlink:href="#DejaVuSans-30" transform="translate(95.410156 0)"/>
     </g>
    </g>
   </g>
   <g id="text_21">
    <!-- z -->
    <g transform="translate(15.040651 123.428283) scale(0.08 -0.08)">
     <defs>
      <path id="DejaVuSans-7a" d="M 353 3500 
L 3084 3500 
L 3084 2975 
L 922 459 
L 3084 459 
L 3084 0 
L 275 0 
L 275 525 
L 2438 3041 
L 353 3041 
L 353 3500 
z
" transform="scale(0.015625)"/>
     </defs>
     <use xlink:href="#DejaVuSans-7a"/>
    </g>
   </g>
  </g>
  <g id="axes_1">
   <g id="line2d_22">
    <path d="M 54.740826 197.459402 
L 188.981877 192.010273 
" clip-path="url(#pdb58546414)" style="fill: none; stroke: #333333; stroke-width: 1.6; stroke-linecap: square"/>
   </g>
   <g id="line2d_23">
    <path d="M 54.740826 197.459402 
L 39.519027 169.340759 
" clip-path="url(#pdb58546414)" style="fill: none; stroke: #333333; stroke-width: 1.6; stroke-linecap: square"/>
   </g>
   <g id="line2d_24">
    <path d="M 54.740826 197.459402 
L 53.801794 94.885072 
" clip-path="url(#pdb58546414)" style="fill: none; stroke: #333333; stroke-width: 1.6; stroke-linecap: square"/>
   </g>
   <g id="line2d_25">
    <path d="M 188.981877 192.010273 
L 39.519027 169.340759 
" clip-path="url(#pdb58546414)" style="fill: none; stroke: #333333; stroke-width: 1.6; stroke-linecap: square"/>
   </g>
   <g id="line2d_26">
    <path d="M 188.981877 192.010273 
L 53.801794 94.885072 
" clip-path="url(#pdb58546414)" style="fill: none; stroke: #333333; stroke-width: 1.6; stroke-linecap: square"/>
   </g>
   <g id="line2d_27">
    <path d="M 39.519027 169.340759 
L 53.801794 94.885072 
" clip-path="url(#pdb58546414)" style="fill: none; stroke: #333333; stroke-width: 1.6; stroke-linecap: square"/>
   </g>
   <g id="Path3DCollection_1">
    <defs>
     <path id="m012752876e" d="M 0 5.477226 
C 1.452577 5.477226 2.845856 4.900111 3.872983 3.872983 
C 4.900111 2.845856 5.477226 1.452577 5.477226 0 
C 5.477226 -1.452577 4.900111 -2.845856 3.872983 -3.872983 
C 2.845856 -4.900111 1.452577 -5.477226 0 -5.477226 
C -1.452577 -5.477226 -2.845856 -4.900111 -3.872983 -3.872983 
C -4.900111 -2.845856 -5.477226 -1.452577 -5.477226 0 
C -5.477226 1.452577 -4.900111 2.845856 -3.872983 3.872983 
C -2.845856 4.900111 -1.452577 5.477226 0 5.477226 
z
" style="stroke: #1a5fa8"/>
    </defs>
    <g clip-path="url(#pdb58546414)">
     <use xlink:href="#m012752876e" x="83.60062" y="164.023865" style="fill: #1a5fa8; stroke: #1a5fa8"/>
    </g>
   </g>
   <g id="text_22">
    <!-- order 1  (1 pt) -->
    <g transform="translate(72.911719 28.524) scale(0.1 -0.1)">
     <defs>
      <path id="DejaVuSans-6f" d="M 1959 3097 
Q 1497 3097 1228 2736 
Q 959 2375 959 1747 
Q 959 1119 1226 758 
Q 1494 397 1959 397 
Q 2419 397 2687 759 
Q 2956 1122 2956 1747 
Q 2956 2369 2687 2733 
Q 2419 3097 1959 3097 
z
M 1959 3584 
Q 2709 3584 3137 3096 
Q 3566 2609 3566 1747 
Q 3566 888 3137 398 
Q 2709 -91 1959 -91 
Q 1206 -91 779 398 
Q 353 888 353 1747 
Q 353 2609 779 3096 
Q 1206 3584 1959 3584 
z
" transform="scale(0.015625)"/>
      <path id="DejaVuSans-72" d="M 2631 2963 
Q 2534 3019 2420 3045 
Q 2306 3072 2169 3072 
Q 1681 3072 1420 2755 
Q 1159 2438 1159 1844 
L 1159 0 
L 581 0 
L 581 3500 
L 1159 3500 
L 1159 2956 
Q 1341 3275 1631 3429 
Q 1922 3584 2338 3584 
Q 2397 3584 2469 3576 
Q 2541 3569 2628 3553 
L 2631 2963 
z
" transform="scale(0.015625)"/>
      <path id="DejaVuSans-64" d="M 2906 2969 
L 2906 4863 
L 3481 4863 
L 3481 0 
L 2906 0 
L 2906 525 
Q 2725 213 2448 61 
Q 2172 -91 1784 -91 
Q 1150 -91 751 415 
Q 353 922 353 1747 
Q 353 2572 751 3078 
Q 1150 3584 1784 3584 
Q 2172 3584 2448 3432 
Q 2725 3281 2906 2969 
z
M 947 1747 
Q 947 1113 1208 752 
Q 1469 391 1925 391 
Q 2381 391 2643 752 
Q 2906 1113 2906 1747 
Q 2906 2381 2643 2742 
Q 2381 3103 1925 3103 
Q 1469 3103 1208 2742 
Q 947 2381 947 1747 
z
" transform="scale(0.015625)"/>
      <path id="DejaVuSans-65" d="M 3597 1894 
L 3597 1613 
L 953 1613 
Q 991 1019 1311 708 
Q 1631 397 2203 397 
Q 2534 397 2845 478 
Q 3156 559 3463 722 
L 3463 178 
Q 3153 47 2828 -22 
Q 2503 -91 2169 -91 
Q 1331 -91 842 396 
Q 353 884 353 1716 
Q 353 2575 817 3079 
Q 1281 3584 2069 3584 
Q 2775 3584 3186 3129 
Q 3597 2675 3597 1894 
z
M 3022 2063 
Q 3016 2534 2758 2815 
Q 2500 3097 2075 3097 
Q 1594 3097 1305 2825 
Q 1016 2553 972 2059 
L 3022 2063 
z
" transform="scale(0.015625)"/>
      <path id="DejaVuSans-20" transform="scale(0.015625)"/>
      <path id="DejaVuSans-28" d="M 1984 4856 
Q 1566 4138 1362 3434 
Q 1159 2731 1159 2009 
Q 1159 1288 1364 580 
Q 1569 -128 1984 -844 
L 1484 -844 
Q 1016 -109 783 600 
Q 550 1309 550 2009 
Q 550 2706 781 3412 
Q 1013 4119 1484 4856 
L 1984 4856 
z
" transform="scale(0.015625)"/>
      <path id="DejaVuSans-70" d="M 1159 525 
L 1159 -1331 
L 581 -1331 
L 581 3500 
L 1159 3500 
L 1159 2969 
Q 1341 3281 1617 3432 
Q 1894 3584 2278 3584 
Q 2916 3584 3314 3078 
Q 3713 2572 3713 1747 
Q 3713 922 3314 415 
Q 2916 -91 2278 -91 
Q 1894 -91 1617 61 
Q 1341 213 1159 525 
z
M 3116 1747 
Q 3116 2381 2855 2742 
Q 2594 3103 2138 3103 
Q 1681 3103 1420 2742 
Q 1159 2381 1159 1747 
Q 1159 1113 1420 752 
Q 1681 391 2138 391 
Q 2594 391 2855 752 
Q 3116 1113 3116 1747 
z
" transform="scale(0.015625)"/>
      <path id="DejaVuSans-74" d="M 1172 4494 
L 1172 3500 
L 2356 3500 
L 2356 3053 
L 1172 3053 
L 1172 1153 
Q 1172 725 1289 603 
Q 1406 481 1766 481 
L 2356 481 
L 2356 0 
L 1766 0 
Q 1100 0 847 248 
Q 594 497 594 1153 
L 594 3053 
L 172 3053 
L 172 3500 
L 594 3500 
L 594 4494 
L 1172 4494 
z
" transform="scale(0.015625)"/>
      <path id="DejaVuSans-29" d="M 513 4856 
L 1013 4856 
Q 1481 4119 1714 3412 
Q 1947 2706 1947 2009 
Q 1947 1309 1714 600 
Q 1481 -109 1013 -844 
L 513 -844 
Q 928 -128 1133 580 
Q 1338 1288 1338 2009 
Q 1338 2731 1133 3434 
Q 928 4138 513 4856 
z
" transform="scale(0.015625)"/>
     </defs>
     <use xlink:href="#DejaVuSans-6f"/>
     <use xlink:href="#DejaVuSans-72" transform="translate(61.181641 0)"/>
     <use xlink:href="#DejaVuSans-64" transform="translate(100.544922 0)"/>
     <use xlink:href="#DejaVuSans-65" transform="translate(164.021484 0)"/>
     <use xlink:href="#DejaVuSans-72" transform="translate(225.544922 0)"/>
     <use xlink:href="#DejaVuSans-20" transform="translate(266.658203 0)"/>
     <use xlink:href="#DejaVuSans-31" transform="translate(298.445312 0)"/>
     <use xlink:href="#DejaVuSans-20" transform="translate(362.068359 0)"/>
     <use xlink:href="#DejaVuSans-20" transform="translate(393.855469 0)"/>
     <use xlink:href="#DejaVuSans-28" transform="translate(425.642578 0)"/>
     <use xlink:href="#DejaVuSans-31" transform="translate(464.65625 0)"/>
     <use xlink:href="#DejaVuSans-20" transform="translate(528.279297 0)"/>
     <use xlink:href="#DejaVuSans-70" transform="translate(560.066406 0)"/>
     <use xlink:href="#DejaVuSans-74" transform="translate(623.542969 0)"/>
     <use xlink:href="#DejaVuSans-29" transform="translate(662.751953 0)"/>
    </g>
   </g>
   <g id="Poly3DCollection_1">
    <path d="M 54.740826 197.459402 
L 188.981877 192.010273 
L 39.519027 169.340759 
z
" clip-path="url(#pdb58546414)" style="fill: #1a5fa8; fill-opacity: 0.07"/>
    <path d="M 188.981877 192.010273 
L 39.519027 169.340759 
L 53.801794 94.885072 
z
" clip-path="url(#pdb58546414)" style="fill: #1a5fa8; fill-opacity: 0.07"/>
    <path d="M 54.740826 197.459402 
L 39.519027 169.340759 
L 53.801794 94.885072 
z
" clip-path="url(#pdb58546414)" style="fill: #1a5fa8; fill-opacity: 0.07"/>
    <path d="M 54.740826 197.459402 
L 188.981877 192.010273 
L 53.801794 94.885072 
z
" clip-path="url(#pdb58546414)" style="fill: #1a5fa8; fill-opacity: 0.07"/>
   </g>
   <g id="Path3DCollection_2">
    <defs>
     <path id="C0_0_ccdc378ed5" d="M 0 2.345208 
C 0.621956 2.345208 1.218523 2.098102 1.658312 1.658312 
C 2.098102 1.218523 2.345208 0.621956 2.345208 -0 
C 2.345208 -0.621956 2.098102 -1.218523 1.658312 -1.658312 
C 1.218523 -2.098102 0.621956 -2.345208 0 -2.345208 
C -0.621956 -2.345208 -1.218523 -2.098102 -1.658312 -1.658312 
C -2.098102 -1.218523 -2.345208 -0.621956 -2.345208 0 
C -2.345208 0.621956 -2.098102 1.218523 -1.658312 1.658312 
C -1.218523 2.098102 -0.621956 2.345208 0 2.345208 
z
"/>
    </defs>
    <g clip-path="url(#pdb58546414)">
     <use xlink:href="#C0_0_ccdc378ed5" x="39.519027" y="169.340759" style="fill: #333333; fill-opacity: 0.3; stroke: #333333; stroke-opacity: 0.3"/>
    </g>
    <g clip-path="url(#pdb58546414)">
     <use xlink:href="#C0_0_ccdc378ed5" x="188.981877" y="192.010273" style="fill: #333333; fill-opacity: 0.789327; stroke: #333333; stroke-opacity: 0.789327"/>
    </g>
    <g clip-path="url(#pdb58546414)">
     <use xlink:href="#C0_0_ccdc378ed5" x="54.740826" y="197.459402" style="fill: #333333; fill-opacity: 0.906948; stroke: #333333; stroke-opacity: 0.906948"/>
    </g>
    <g clip-path="url(#pdb58546414)">
     <use xlink:href="#C0_0_ccdc378ed5" x="53.801794" y="94.885072" style="fill: #333333; stroke: #333333"/>
    </g>
   </g>
  </g>
  <g id="patch_6">
   <path d="M 219.6 236.124 
L 421.2 236.124 
L 421.2 34.524 
L 219.6 34.524 
z
" style="fill: #ffffff"/>
  </g>
  <g id="pane3d_4">
   <g id="patch_7">
    <path d="M 401.381877 192.010273 
L 372.03917 165.008706 
L 372.754528 75.100564 
L 402.666233 91.557 
" style="fill: #f2f2f2; opacity: 0.5; stroke: #f2f2f2; stroke-linejoin: miter"/>
   </g>
  </g>
  <g id="pane3d_5">
   <g id="patch_8">
    <path d="M 251.919027 169.340759 
L 372.03917 165.008706 
L 372.754528 75.100564 
L 250.857293 77.736888 
" style="fill: #e6e6e6; opacity: 0.5; stroke: #e6e6e6; stroke-linejoin: miter"/>
   </g>
  </g>
  <g id="pane3d_6">
   <g id="patch_9">
    <path d="M 267.140826 197.459402 
L 401.381877 192.010273 
L 372.03917 165.008706 
L 251.919027 169.340759 
" style="fill: #ececec; opacity: 0.5; stroke: #ececec; stroke-linejoin: miter"/>
   </g>
  </g>
  <g id="grid3d_4">
   <g id="Line3DCollection_4">
    <path d="M 267.140826 197.459402 
L 251.919027 169.340759 
L 250.857293 77.736888 
" style="fill: none; stroke: #b0b0b0; stroke-width: 0.8"/>
    <path d="M 294.452286 196.350772 
L 276.312398 168.461028 
L 275.617113 77.201396 
" style="fill: none; stroke: #b0b0b0; stroke-width: 0.8"/>
    <path d="M 321.529136 195.251665 
L 300.518977 167.588034 
L 300.18453 76.670066 
" style="fill: none; stroke: #b0b0b0; stroke-width: 0.8"/>
    <path d="M 348.374387 194.161959 
L 324.5409 166.7217 
L 324.561777 76.142849 
" style="fill: none; stroke: #b0b0b0; stroke-width: 0.8"/>
    <path d="M 374.990997 193.081535 
L 348.380274 165.861948 
L 348.751055 75.619697 
" style="fill: none; stroke: #b0b0b0; stroke-width: 0.8"/>
    <path d="M 401.381877 192.010273 
L 372.03917 165.008706 
L 372.754528 75.100564 
" style="fill: none; stroke: #b0b0b0; stroke-width: 0.8"/>
   </g>
  </g>
  <g id="grid3d_5">
   <g id="Line3DCollection_5">
    <path d="M 402.666233 91.557 
L 401.381877 192.010273 
L 267.140826 197.459402 
" style="fill: none; stroke: #b0b0b0; stroke-width: 0.8"/>
    <path d="M 396.112934 87.951591 
L 394.96207 186.102678 
L 263.804447 191.296236 
" style="fill: none; stroke: #b0b0b0; stroke-width: 0.8"/>
    <path d="M 389.865073 84.514223 
L 388.83687 180.466183 
L 260.624335 185.421739 
" style="fill: none; stroke: #b0b0b0; stroke-width: 0.8"/>
    <path d="M 383.901781 81.233416 
L 382.986451 175.082546 
L 257.589764 179.816093 
" style="fill: none; stroke: #b0b0b0; stroke-width: 0.8"/>
    <path d="M 378.204051 78.098712 
L 377.392728 169.935124 
L 254.690965 174.461254 
" style="fill: none; stroke: #b0b0b0; stroke-width: 0.8"/>
    <path d="M 372.754528 75.100564 
L 372.03917 165.008706 
L 251.919027 169.340759 
" style="fill: none; stroke: #b0b0b0; stroke-width: 0.8"/>
   </g>
  </g>
  <g id="grid3d_6">
   <g id="Line3DCollection_6">
    <path d="M 251.919027 169.340759 
L 372.03917 165.008706 
L 401.381877 192.010273 
" style="fill: none; stroke: #b0b0b0; stroke-width: 0.8"/>
    <path d="M 251.709183 151.235952 
L 372.180587 147.235023 
L 401.635419 172.179981 
" style="fill: none; stroke: #b0b0b0; stroke-width: 0.8"/>
    <path d="M 251.498099 133.024119 
L 372.322824 129.358272 
L 401.89061 152.220777 
" style="fill: none; stroke: #b0b0b0; stroke-width: 0.8"/>
    <path d="M 251.285764 114.704307 
L 372.465889 111.377553 
L 402.147464 132.1314 
" style="fill: none; stroke: #b0b0b0; stroke-width: 0.8"/>
    <path d="M 251.072165 96.275555 
L 372.609787 93.291957 
L 402.406 111.910573 
" style="fill: none; stroke: #b0b0b0; stroke-width: 0.8"/>
    <path d="M 250.857293 77.736888 
L 372.754528 75.100564 
L 402.666233 91.557 
" style="fill: none; stroke: #b0b0b0; stroke-width: 0.8"/>
   </g>
  </g>
  <g id="axis3d_4">
   <g id="line2d_28">
    <path d="M 401.381877 192.010273 
L 267.140826 197.459402 
" style="fill: none; stroke: #000000; stroke-width: 0.8; stroke-linecap: square"/>
   </g>
   <g id="xtick_19">
    <g id="line2d_29">
     <path d="M 267.004227 197.207066 
L 267.414833 197.965564 
" style="fill: none; stroke: #000000; stroke-width: 0.8; stroke-linecap: square"/>
    </g>
    <g id="text_23">
     <!-- 0.0 -->
     <g transform="translate(263.40563 209.633609) scale(0.06 -0.06)">
      <use xlink:href="#DejaVuSans-30"/>
      <use xlink:href="#DejaVuSans-2e" transform="translate(63.623047 0)"/>
      <use xlink:href="#DejaVuSans-30" transform="translate(95.410156 0)"/>
     </g>
    </g>
   </g>
   <g id="xtick_20">
    <g id="line2d_30">
     <path d="M 294.289575 196.100607 
L 294.778664 196.852573 
" style="fill: none; stroke: #000000; stroke-width: 0.8; stroke-linecap: square"/>
    </g>
    <g id="text_24">
     <!-- 0.2 -->
     <g transform="translate(290.878861 208.485181) scale(0.06 -0.06)">
      <use xlink:href="#DejaVuSans-30"/>
      <use xlink:href="#DejaVuSans-2e" transform="translate(63.623047 0)"/>
      <use xlink:href="#DejaVuSans-32" transform="translate(95.410156 0)"/>
     </g>
    </g>
   </g>
   <g id="xtick_21">
    <g id="line2d_31">
     <path d="M 321.340767 195.003644 
L 321.906977 195.74916 
" style="fill: none; stroke: #000000; stroke-width: 0.8; stroke-linecap: square"/>
    </g>
    <g id="text_25">
     <!-- 0.4 -->
     <g transform="translate(318.114664 207.346679) scale(0.06 -0.06)">
      <use xlink:href="#DejaVuSans-30"/>
      <use xlink:href="#DejaVuSans-2e" transform="translate(63.623047 0)"/>
      <use xlink:href="#DejaVuSans-34" transform="translate(95.410156 0)"/>
     </g>
    </g>
   </g>
   <g id="xtick_22">
    <g id="line2d_32">
     <path d="M 348.160803 193.916054 
L 348.802799 194.655204 
" style="fill: none; stroke: #000000; stroke-width: 0.8; stroke-linecap: square"/>
    </g>
    <g id="text_26">
     <!-- 0.6 -->
     <g transform="translate(345.116102 206.217973) scale(0.06 -0.06)">
      <use xlink:href="#DejaVuSans-30"/>
      <use xlink:href="#DejaVuSans-2e" transform="translate(63.623047 0)"/>
      <use xlink:href="#DejaVuSans-36" transform="translate(95.410156 0)"/>
     </g>
    </g>
   </g>
   <g id="xtick_23">
    <g id="line2d_33">
     <path d="M 374.752635 192.837718 
L 375.469107 193.570584 
" style="fill: none; stroke: #000000; stroke-width: 0.8; stroke-linecap: square"/>
    </g>
    <g id="text_27">
     <!-- 0.8 -->
     <g transform="translate(371.886188 205.098937) scale(0.06 -0.06)">
      <use xlink:href="#DejaVuSans-30"/>
      <use xlink:href="#DejaVuSans-2e" transform="translate(63.623047 0)"/>
      <use xlink:href="#DejaVuSans-38" transform="translate(95.410156 0)"/>
     </g>
    </g>
   </g>
   <g id="xtick_24">
    <g id="line2d_34">
     <path d="M 401.119162 191.768519 
L 401.908826 192.495179 
" style="fill: none; stroke: #000000; stroke-width: 0.8; stroke-linecap: square"/>
    </g>
    <g id="text_28">
     <!-- 1.0 -->
     <g transform="translate(398.427881 203.98945) scale(0.06 -0.06)">
      <use xlink:href="#DejaVuSans-31"/>
      <use xlink:href="#DejaVuSans-2e" transform="translate(63.623047 0)"/>
      <use xlink:href="#DejaVuSans-30" transform="translate(95.410156 0)"/>
     </g>
    </g>
   </g>
   <g id="text_29">
    <!-- x -->
    <g transform="translate(336.724168 218.448417) scale(0.08 -0.08)">
     <use xlink:href="#DejaVuSans-78"/>
    </g>
   </g>
  </g>
  <g id="axis3d_5">
   <g id="line2d_35">
    <path d="M 251.919027 169.340759 
L 267.140826 197.459402 
" style="fill: none; stroke: #000000; stroke-width: 0.8; stroke-linecap: square"/>
   </g>
   <g id="xtick_25">
    <g id="line2d_36">
     <path d="M 268.237828 197.414872 
L 264.945683 197.548507 
" style="fill: none; stroke: #000000; stroke-width: 0.8; stroke-linecap: square"/>
    </g>
    <g id="text_30">
     <!-- 0.0 -->
     <g transform="translate(254.583285 208.103081) scale(0.06 -0.06)">
      <use xlink:href="#DejaVuSans-30"/>
      <use xlink:href="#DejaVuSans-2e" transform="translate(63.623047 0)"/>
      <use xlink:href="#DejaVuSans-30" transform="translate(95.410156 0)"/>
     </g>
    </g>
   </g>
   <g id="xtick_26">
    <g id="line2d_37">
     <path d="M 264.87571 191.253817 
L 261.660833 191.381119 
" style="fill: none; stroke: #000000; stroke-width: 0.8; stroke-linecap: square"/>
    </g>
    <g id="text_31">
     <!-- 0.2 -->
     <g transform="translate(251.432723 201.792186) scale(0.06 -0.06)">
      <use xlink:href="#DejaVuSans-30"/>
      <use xlink:href="#DejaVuSans-2e" transform="translate(63.623047 0)"/>
      <use xlink:href="#DejaVuSans-32" transform="translate(95.410156 0)"/>
     </g>
    </g>
   </g>
   <g id="xtick_27">
    <g id="line2d_38">
     <path d="M 261.67104 185.381283 
L 258.529888 185.502692 
" style="fill: none; stroke: #000000; stroke-width: 0.8; stroke-linecap: square"/>
    </g>
    <g id="text_32">
     <!-- 0.4 -->
     <g transform="translate(248.429768 195.776961) scale(0.06 -0.06)">
      <use xlink:href="#DejaVuSans-30"/>
      <use xlink:href="#DejaVuSans-2e" transform="translate(63.623047 0)"/>
      <use xlink:href="#DejaVuSans-34" transform="translate(95.410156 0)"/>
     </g>
    </g>
   </g>
   <g id="xtick_28">
    <g id="line2d_39">
     <path d="M 258.613011 179.777466 
L 255.542279 179.893382 
" style="fill: none; stroke: #000000; stroke-width: 0.8; stroke-linecap: square"/>
    </g>
    <g id="text_33">
     <!-- 0.6 -->
     <g transform="translate(245.564284 190.037104) scale(0.06 -0.06)">
      <use xlink:href="#DejaVuSans-30"/>
      <use xlink:href="#DejaVuSans-2e" transform="translate(63.623047 0)"/>
      <use xlink:href="#DejaVuSans-36" transform="translate(95.410156 0)"/>
     </g>
    </g>
   </g>
   <g id="xtick_29">
    <g id="line2d_40">
     <path d="M 255.691782 174.424337 
L 252.688384 174.535124 
" style="fill: none; stroke: #000000; stroke-width: 0.8; stroke-linecap: square"/>
    </g>
    <g id="text_34">
     <!-- 0.8 -->
     <g transform="translate(242.827041 184.554129) scale(0.06 -0.06)">
      <use xlink:href="#DejaVuSans-30"/>
      <use xlink:href="#DejaVuSans-2e" transform="translate(63.623047 0)"/>
      <use xlink:href="#DejaVuSans-38" transform="translate(95.410156 0)"/>
     </g>
    </g>
   </g>
   <g id="xtick_30">
    <g id="line2d_41">
     <path d="M 252.898375 169.30544 
L 249.959423 169.411431 
" style="fill: none; stroke: #000000; stroke-width: 0.8; stroke-linecap: square"/>
    </g>
    <g id="text_35">
     <!-- 1.0 -->
     <g transform="translate(240.20962 179.311168) scale(0.06 -0.06)">
      <use xlink:href="#DejaVuSans-31"/>
      <use xlink:href="#DejaVuSans-2e" transform="translate(63.623047 0)"/>
      <use xlink:href="#DejaVuSans-30" transform="translate(95.410156 0)"/>
     </g>
    </g>
   </g>
   <g id="text_36">
    <!-- y -->
    <g transform="translate(235.920064 201.032351) scale(0.08 -0.08)">
     <use xlink:href="#DejaVuSans-79"/>
    </g>
   </g>
  </g>
  <g id="axis3d_6">
   <g id="line2d_42">
    <path d="M 251.919027 169.340759 
L 250.857293 77.736888 
" style="fill: none; stroke: #000000; stroke-width: 0.8; stroke-linecap: square"/>
   </g>
   <g id="xtick_31">
    <g id="line2d_43">
     <path d="M 252.898375 169.30544 
L 249.959423 169.411431 
" style="fill: none; stroke: #000000; stroke-width: 0.8; stroke-linecap: square"/>
    </g>
    <g id="text_37">
     <!-- 0.0 -->
     <g transform="translate(239.416824 172.727196) scale(0.06 -0.06)">
      <use xlink:href="#DejaVuSans-30"/>
      <use xlink:href="#DejaVuSans-2e" transform="translate(63.623047 0)"/>
      <use xlink:href="#DejaVuSans-30" transform="translate(95.410156 0)"/>
     </g>
    </g>
   </g>
   <g id="xtick_32">
    <g id="line2d_44">
     <path d="M 252.69145 151.20333 
L 249.743738 151.301226 
" style="fill: none; stroke: #000000; stroke-width: 0.8; stroke-linecap: square"/>
    </g>
    <g id="text_38">
     <!-- 0.2 -->
     <g transform="translate(239.185391 154.711975) scale(0.06 -0.06)">
      <use xlink:href="#DejaVuSans-30"/>
      <use xlink:href="#DejaVuSans-2e" transform="translate(63.623047 0)"/>
      <use xlink:href="#DejaVuSans-32" transform="translate(95.410156 0)"/>
     </g>
    </g>
   </g>
   <g id="xtick_33">
    <g id="line2d_45">
     <path d="M 252.483301 132.994227 
L 249.526777 133.083929 
" style="fill: none; stroke: #000000; stroke-width: 0.8; stroke-linecap: square"/>
    </g>
    <g id="text_39">
     <!-- 0.4 -->
     <g transform="translate(238.952598 136.590807) scale(0.06 -0.06)">
      <use xlink:href="#DejaVuSans-30"/>
      <use xlink:href="#DejaVuSans-2e" transform="translate(63.623047 0)"/>
      <use xlink:href="#DejaVuSans-34" transform="translate(95.410156 0)"/>
     </g>
    </g>
   </g>
   <g id="xtick_34">
    <g id="line2d_46">
     <path d="M 252.273919 114.67718 
L 249.308529 114.758588 
" style="fill: none; stroke: #000000; stroke-width: 0.8; stroke-linecap: square"/>
    </g>
    <g id="text_40">
     <!-- 0.6 -->
     <g transform="translate(238.718431 118.362754) scale(0.06 -0.06)">
      <use xlink:href="#DejaVuSans-30"/>
      <use xlink:href="#DejaVuSans-2e" transform="translate(63.623047 0)"/>
      <use xlink:href="#DejaVuSans-36" transform="translate(95.410156 0)"/>
     </g>
    </g>
   </g>
   <g id="xtick_35">
    <g id="line2d_47">
     <path d="M 252.063292 96.251224 
L 249.088983 96.32424 
" style="fill: none; stroke: #000000; stroke-width: 0.8; stroke-linecap: square"/>
    </g>
    <g id="text_41">
     <!-- 0.8 -->
     <g transform="translate(238.482879 100.026867) scale(0.06 -0.06)">
      <use xlink:href="#DejaVuSans-30"/>
      <use xlink:href="#DejaVuSans-2e" transform="translate(63.623047 0)"/>
      <use xlink:href="#DejaVuSans-38" transform="translate(95.410156 0)"/>
     </g>
    </g>
   </g>
   <g id="xtick_36">
    <g id="line2d_48">
     <path d="M 251.851408 77.715388 
L 248.868128 77.779908 
" style="fill: none; stroke: #000000; stroke-width: 0.8; stroke-linecap: square"/>
    </g>
    <g id="text_42">
     <!-- 1.0 -->
     <g transform="translate(238.245929 81.582187) scale(0.06 -0.06)">
      <use xlink:href="#DejaVuSans-31"/>
      <use xlink:href="#DejaVuSans-2e" transform="translate(63.623047 0)"/>
      <use xlink:href="#DejaVuSans-30" transform="translate(95.410156 0)"/>
     </g>
    </g>
   </g>
   <g id="text_43">
    <!-- z -->
    <g transform="translate(227.440651 123.428283) scale(0.08 -0.08)">
     <use xlink:href="#DejaVuSans-7a"/>
    </g>
   </g>
  </g>
  <g id="axes_2">
   <g id="line2d_49">
    <path d="M 267.140826 197.459402 
L 401.381877 192.010273 
" clip-path="url(#p57e94ec527)" style="fill: none; stroke: #333333; stroke-width: 1.6; stroke-linecap: square"/>
   </g>
   <g id="line2d_50">
    <path d="M 267.140826 197.459402 
L 251.919027 169.340759 
" clip-path="url(#p57e94ec527)" style="fill: none; stroke: #333333; stroke-width: 1.6; stroke-linecap: square"/>
   </g>
   <g id="line2d_51">
    <path d="M 267.140826 197.459402 
L 266.201794 94.885072 
" clip-path="url(#p57e94ec527)" style="fill: none; stroke: #333333; stroke-width: 1.6; stroke-linecap: square"/>
   </g>
   <g id="line2d_52">
    <path d="M 401.381877 192.010273 
L 251.919027 169.340759 
" clip-path="url(#p57e94ec527)" style="fill: none; stroke: #333333; stroke-width: 1.6; stroke-linecap: square"/>
   </g>
   <g id="line2d_53">
    <path d="M 401.381877 192.010273 
L 266.201794 94.885072 
" clip-path="url(#p57e94ec527)" style="fill: none; stroke: #333333; stroke-width: 1.6; stroke-linecap: square"/>
   </g>
   <g id="line2d_54">
    <path d="M 251.919027 169.340759 
L 266.201794 94.885072 
" clip-path="url(#p57e94ec527)" style="fill: none; stroke: #333333; stroke-width: 1.6; stroke-linecap: square"/>
   </g>
   <g id="Path3DCollection_3">
    <path d="M 275.363779 169.251587 
C 276.090068 169.251587 276.786707 168.96303 277.300271 168.449466 
C 277.813835 167.935902 278.102392 167.239263 278.102392 166.512974 
C 278.102392 165.786686 277.813835 165.090046 277.300271 164.576483 
C 276.786707 164.062919 276.090068 163.774362 275.363779 163.774362 
C 274.637491 163.774362 273.940851 164.062919 273.427288 164.576483 
C 272.913724 165.090046 272.625166 165.786686 272.625166 166.512974 
C 272.625166 167.239263 272.913724 167.935902 273.427288 168.449466 
C 273.940851 168.96303 274.637491 169.251587 275.363779 169.251587 
z
" clip-path="url(#p57e94ec527)" style="fill: #1a5fa8; stroke: #1a5fa8"/>
    <path d="M 342.86631 179.208736 
C 343.592599 179.208736 344.289238 178.920179 344.802802 178.406615 
C 345.316365 177.893051 345.604923 177.196412 345.604923 176.470123 
C 345.604923 175.743835 345.316365 175.047195 344.802802 174.533632 
C 344.289238 174.020068 343.592599 173.731511 342.86631 173.731511 
C 342.140021 173.731511 341.443382 174.020068 340.929818 174.533632 
C 340.416255 175.047195 340.127697 175.743835 340.127697 176.470123 
C 340.127697 177.196412 340.416255 177.893051 340.929818 178.406615 
C 341.443382 178.920179 342.140021 179.208736 342.86631 179.208736 
z
" clip-path="url(#p57e94ec527)" style="fill: #1a5fa8; stroke: #1a5fa8"/>
    <path d="M 283.318486 181.455374 
C 284.044775 181.455374 284.741414 181.166816 285.254978 180.653253 
C 285.768542 180.139689 286.057099 179.44305 286.057099 178.716761 
C 286.057099 177.990472 285.768542 177.293833 285.254978 176.780269 
C 284.741414 176.266706 284.044775 175.978148 283.318486 175.978148 
C 282.592198 175.978148 281.895558 176.266706 281.381995 176.780269 
C 280.868431 177.293833 280.579874 177.990472 280.579874 178.716761 
C 280.579874 179.44305 280.868431 180.139689 281.381995 180.653253 
C 281.895558 181.166816 282.592198 181.455374 283.318486 181.455374 
z
" clip-path="url(#p57e94ec527)" style="fill: #1a5fa8; stroke: #1a5fa8"/>
    <path d="M 283.027815 136.663169 
C 283.754104 136.663169 284.450743 136.374612 284.964307 135.861048 
C 285.47787 135.347485 285.766428 134.650845 285.766428 133.924557 
C 285.766428 133.198268 285.47787 132.501629 284.964307 131.988065 
C 284.450743 131.474501 283.754104 131.185944 283.027815 131.185944 
C 282.301527 131.185944 281.604887 131.474501 281.091323 131.988065 
C 280.57776 132.501629 280.289202 133.198268 280.289202 133.924557 
C 280.289202 134.650845 280.57776 135.347485 281.091323 135.861048 
C 281.604887 136.374612 282.301527 136.663169 283.027815 136.663169 
z
" clip-path="url(#p57e94ec527)" style="fill: #1a5fa8; stroke: #1a5fa8"/>
   </g>
   <g id="text_44">
    <!-- order 2  (4 pts) -->
    <g transform="translate(282.707031 28.524) scale(0.1 -0.1)">
     <defs>
      <path id="DejaVuSans-73" d="M 2834 3397 
L 2834 2853 
Q 2591 2978 2328 3040 
Q 2066 3103 1784 3103 
Q 1356 3103 1142 2972 
Q 928 2841 928 2578 
Q 928 2378 1081 2264 
Q 1234 2150 1697 2047 
L 1894 2003 
Q 2506 1872 2764 1633 
Q 3022 1394 3022 966 
Q 3022 478 2636 193 
Q 2250 -91 1575 -91 
Q 1294 -91 989 -36 
Q 684 19 347 128 
L 347 722 
Q 666 556 975 473 
Q 1284 391 1588 391 
Q 1994 391 2212 530 
Q 2431 669 2431 922 
Q 2431 1156 2273 1281 
Q 2116 1406 1581 1522 
L 1381 1569 
Q 847 1681 609 1914 
Q 372 2147 372 2553 
Q 372 3047 722 3315 
Q 1072 3584 1716 3584 
Q 2034 3584 2315 3537 
Q 2597 3491 2834 3397 
z
" transform="scale(0.015625)"/>
     </defs>
     <use xlink:href="#DejaVuSans-6f"/>
     <use xlink:href="#DejaVuSans-72" transform="translate(61.181641 0)"/>
     <use xlink:href="#DejaVuSans-64" transform="translate(100.544922 0)"/>
     <use xlink:href="#DejaVuSans-65" transform="translate(164.021484 0)"/>
     <use xlink:href="#DejaVuSans-72" transform="translate(225.544922 0)"/>
     <use xlink:href="#DejaVuSans-20" transform="translate(266.658203 0)"/>
     <use xlink:href="#DejaVuSans-32" transform="translate(298.445312 0)"/>
     <use xlink:href="#DejaVuSans-20" transform="translate(362.068359 0)"/>
     <use xlink:href="#DejaVuSans-20" transform="translate(393.855469 0)"/>
     <use xlink:href="#DejaVuSans-28" transform="translate(425.642578 0)"/>
     <use xlink:href="#DejaVuSans-34" transform="translate(464.65625 0)"/>
     <use xlink:href="#DejaVuSans-20" transform="translate(528.279297 0)"/>
     <use xlink:href="#DejaVuSans-70" transform="translate(560.066406 0)"/>
     <use xlink:href="#DejaVuSans-74" transform="translate(623.542969 0)"/>
     <use xlink:href="#DejaVuSans-73" transform="translate(662.751953 0)"/>
     <use xlink:href="#DejaVuSans-29" transform="translate(714.851562 0)"/>
    </g>
   </g>
   <g id="Poly3DCollection_2">
    <path d="M 267.140826 197.459402 
L 401.381877 192.010273 
L 251.919027 169.340759 
z
" clip-path="url(#p57e94ec527)" style="fill: #1a5fa8; fill-opacity: 0.07"/>
    <path d="M 401.381877 192.010273 
L 251.919027 169.340759 
L 266.201794 94.885072 
z
" clip-path="url(#p57e94ec527)" style="fill: #1a5fa8; fill-opacity: 0.07"/>
    <path d="M 267.140826 197.459402 
L 251.919027 169.340759 
L 266.201794 94.885072 
z
" clip-path="url(#p57e94ec527)" style="fill: #1a5fa8; fill-opacity: 0.07"/>
    <path d="M 267.140826 197.459402 
L 401.381877 192.010273 
L 266.201794 94.885072 
z
" clip-path="url(#p57e94ec527)" style="fill: #1a5fa8; fill-opacity: 0.07"/>
   </g>
   <g id="Path3DCollection_4">
    <defs>
     <path id="C1_0_62144cf5c6" d="M 0 2.345208 
C 0.621956 2.345208 1.218523 2.098102 1.658312 1.658312 
C 2.098102 1.218523 2.345208 0.621956 2.345208 -0 
C 2.345208 -0.621956 2.098102 -1.218523 1.658312 -1.658312 
C 1.218523 -2.098102 0.621956 -2.345208 0 -2.345208 
C -0.621956 -2.345208 -1.218523 -2.098102 -1.658312 -1.658312 
C -2.098102 -1.218523 -2.345208 -0.621956 -2.345208 0 
C -2.345208 0.621956 -2.098102 1.218523 -1.658312 1.658312 
C -1.218523 2.098102 -0.621956 2.345208 0 2.345208 
z
"/>
    </defs>
    <g clip-path="url(#p57e94ec527)">
     <use xlink:href="#C1_0_62144cf5c6" x="251.919027" y="169.340759" style="fill: #333333; fill-opacity: 0.3; stroke: #333333; stroke-opacity: 0.3"/>
    </g>
    <g clip-path="url(#p57e94ec527)">
     <use xlink:href="#C1_0_62144cf5c6" x="401.381877" y="192.010273" style="fill: #333333; fill-opacity: 0.789327; stroke: #333333; stroke-opacity: 0.789327"/>
    </g>
    <g clip-path="url(#p57e94ec527)">
     <use xlink:href="#C1_0_62144cf5c6" x="267.140826" y="197.459402" style="fill: #333333; fill-opacity: 0.906948; stroke: #333333; stroke-opacity: 0.906948"/>
    </g>
    <g clip-path="url(#p57e94ec527)">
     <use xlink:href="#C1_0_62144cf5c6" x="266.201794" y="94.885072" style="fill: #333333; stroke: #333333"/>
    </g>
   </g>
  </g>
  <g id="patch_10">
   <path d="M 432 236.124 
L 633.6 236.124 
L 633.6 34.524 
L 432 34.524 
z
" style="fill: #ffffff"/>
  </g>
  <g id="pane3d_7">
   <g id="patch_11">
    <path d="M 613.781877 192.010273 
L 584.43917 165.008706 
L 585.154528 75.100564 
L 615.066233 91.557 
" style="fill: #f2f2f2; opacity: 0.5; stroke: #f2f2f2; stroke-linejoin: miter"/>
   </g>
  </g>
  <g id="pane3d_8">
   <g id="patch_12">
    <path d="M 464.319027 169.340759 
L 584.43917 165.008706 
L 585.154528 75.100564 
L 463.257293 77.736888 
" style="fill: #e6e6e6; opacity: 0.5; stroke: #e6e6e6; stroke-linejoin: miter"/>
   </g>
  </g>
  <g id="pane3d_9">
   <g id="patch_13">
    <path d="M 479.540826 197.459402 
L 613.781877 192.010273 
L 584.43917 165.008706 
L 464.319027 169.340759 
" style="fill: #ececec; opacity: 0.5; stroke: #ececec; stroke-linejoin: miter"/>
   </g>
  </g>
  <g id="grid3d_7">
   <g id="Line3DCollection_7">
    <path d="M 479.540826 197.459402 
L 464.319027 169.340759 
L 463.257293 77.736888 
" style="fill: none; stroke: #b0b0b0; stroke-width: 0.8"/>
    <path d="M 506.852286 196.350772 
L 488.712398 168.461028 
L 488.017113 77.201396 
" style="fill: none; stroke: #b0b0b0; stroke-width: 0.8"/>
    <path d="M 533.929136 195.251665 
L 512.918977 167.588034 
L 512.58453 76.670066 
" style="fill: none; stroke: #b0b0b0; stroke-width: 0.8"/>
    <path d="M 560.774387 194.161959 
L 536.9409 166.7217 
L 536.961777 76.142849 
" style="fill: none; stroke: #b0b0b0; stroke-width: 0.8"/>
    <path d="M 587.390997 193.081535 
L 560.780274 165.861948 
L 561.151055 75.619697 
" style="fill: none; stroke: #b0b0b0; stroke-width: 0.8"/>
    <path d="M 613.781877 192.010273 
L 584.43917 165.008706 
L 585.154528 75.100564 
" style="fill: none; stroke: #b0b0b0; stroke-width: 0.8"/>
   </g>
  </g>
  <g id="grid3d_8">
   <g id="Line3DCollection_8">
    <path d="M 615.066233 91.557 
L 613.781877 192.010273 
L 479.540826 197.459402 
" style="fill: none; stroke: #b0b0b0; stroke-width: 0.8"/>
    <path d="M 608.512934 87.951591 
L 607.36207 186.102678 
L 476.204447 191.296236 
" style="fill: none; stroke: #b0b0b0; stroke-width: 0.8"/>
    <path d="M 602.265073 84.514223 
L 601.23687 180.466183 
L 473.024335 185.421739 
" style="fill: none; stroke: #b0b0b0; stroke-width: 0.8"/>
    <path d="M 596.301781 81.233416 
L 595.386451 175.082546 
L 469.989764 179.816093 
" style="fill: none; stroke: #b0b0b0; stroke-width: 0.8"/>
    <path d="M 590.604051 78.098712 
L 589.792728 169.935124 
L 467.090965 174.461254 
" style="fill: none; stroke: #b0b0b0; stroke-width: 0.8"/>
    <path d="M 585.154528 75.100564 
L 584.43917 165.008706 
L 464.319027 169.340759 
" style="fill: none; stroke: #b0b0b0; stroke-width: 0.8"/>
   </g>
  </g>
  <g id="grid3d_9">
   <g id="Line3DCollection_9">
    <path d="M 464.319027 169.340759 
L 584.43917 165.008706 
L 613.781877 192.010273 
" style="fill: none; stroke: #b0b0b0; stroke-width: 0.8"/>
    <path d="M 464.109183 151.235952 
L 584.580587 147.235023 
L 614.035419 172.179981 
" style="fill: none; stroke: #b0b0b0; stroke-width: 0.8"/>
    <path d="M 463.898099 133.024119 
L 584.722824 129.358272 
L 614.29061 152.220777 
" style="fill: none; stroke: #b0b0b0; stroke-width: 0.8"/>
    <path d="M 463.685764 114.704307 
L 584.865889 111.377553 
L 614.547464 132.1314 
" style="fill: none; stroke: #b0b0b0; stroke-width: 0.8"/>
    <path d="M 463.472165 96.275555 
L 585.009787 93.291957 
L 614.806 111.910573 
" style="fill: none; stroke: #b0b0b0; stroke-width: 0.8"/>
    <path d="M 463.257293 77.736888 
L 585.154528 75.100564 
L 615.066233 91.557 
" style="fill: none; stroke: #b0b0b0; stroke-width: 0.8"/>
   </g>
  </g>
  <g id="axis3d_7">
   <g id="line2d_55">
    <path d="M 613.781877 192.010273 
L 479.540826 197.459402 
" style="fill: none; stroke: #000000; stroke-width: 0.8; stroke-linecap: square"/>
   </g>
   <g id="xtick_37">
    <g id="line2d_56">
     <path d="M 479.404227 197.207066 
L 479.814833 197.965564 
" style="fill: none; stroke: #000000; stroke-width: 0.8; stroke-linecap: square"/>
    </g>
    <g id="text_45">
     <!-- 0.0 -->
     <g transform="translate(475.80563 209.633609) scale(0.06 -0.06)">
      <use xlink:href="#DejaVuSans-30"/>
      <use xlink:href="#DejaVuSans-2e" transform="translate(63.623047 0)"/>
      <use xlink:href="#DejaVuSans-30" transform="translate(95.410156 0)"/>
     </g>
    </g>
   </g>
   <g id="xtick_38">
    <g id="line2d_57">
     <path d="M 506.689575 196.100607 
L 507.178664 196.852573 
" style="fill: none; stroke: #000000; stroke-width: 0.8; stroke-linecap: square"/>
    </g>
    <g id="text_46">
     <!-- 0.2 -->
     <g transform="translate(503.278861 208.485181) scale(0.06 -0.06)">
      <use xlink:href="#DejaVuSans-30"/>
      <use xlink:href="#DejaVuSans-2e" transform="translate(63.623047 0)"/>
      <use xlink:href="#DejaVuSans-32" transform="translate(95.410156 0)"/>
     </g>
    </g>
   </g>
   <g id="xtick_39">
    <g id="line2d_58">
     <path d="M 533.740767 195.003644 
L 534.306977 195.74916 
" style="fill: none; stroke: #000000; stroke-width: 0.8; stroke-linecap: square"/>
    </g>
    <g id="text_47">
     <!-- 0.4 -->
     <g transform="translate(530.514664 207.346679) scale(0.06 -0.06)">
      <use xlink:href="#DejaVuSans-30"/>
      <use xlink:href="#DejaVuSans-2e" transform="translate(63.623047 0)"/>
      <use xlink:href="#DejaVuSans-34" transform="translate(95.410156 0)"/>
     </g>
    </g>
   </g>
   <g id="xtick_40">
    <g id="line2d_59">
     <path d="M 560.560803 193.916054 
L 561.202799 194.655204 
" style="fill: none; stroke: #000000; stroke-width: 0.8; stroke-linecap: square"/>
    </g>
    <g id="text_48">
     <!-- 0.6 -->
     <g transform="translate(557.516102 206.217973) scale(0.06 -0.06)">
      <use xlink:href="#DejaVuSans-30"/>
      <use xlink:href="#DejaVuSans-2e" transform="translate(63.623047 0)"/>
      <use xlink:href="#DejaVuSans-36" transform="translate(95.410156 0)"/>
     </g>
    </g>
   </g>
   <g id="xtick_41">
    <g id="line2d_60">
     <path d="M 587.152635 192.837718 
L 587.869107 193.570584 
" style="fill: none; stroke: #000000; stroke-width: 0.8; stroke-linecap: square"/>
    </g>
    <g id="text_49">
     <!-- 0.8 -->
     <g transform="translate(584.286188 205.098937) scale(0.06 -0.06)">
      <use xlink:href="#DejaVuSans-30"/>
      <use xlink:href="#DejaVuSans-2e" transform="translate(63.623047 0)"/>
      <use xlink:href="#DejaVuSans-38" transform="translate(95.410156 0)"/>
     </g>
    </g>
   </g>
   <g id="xtick_42">
    <g id="line2d_61">
     <path d="M 613.519162 191.768519 
L 614.308826 192.495179 
" style="fill: none; stroke: #000000; stroke-width: 0.8; stroke-linecap: square"/>
    </g>
    <g id="text_50">
     <!-- 1.0 -->
     <g transform="translate(610.827881 203.98945) scale(0.06 -0.06)">
      <use xlink:href="#DejaVuSans-31"/>
      <use xlink:href="#DejaVuSans-2e" transform="translate(63.623047 0)"/>
      <use xlink:href="#DejaVuSans-30" transform="translate(95.410156 0)"/>
     </g>
    </g>
   </g>
   <g id="text_51">
    <!-- x -->
    <g transform="translate(549.124168 218.448417) scale(0.08 -0.08)">
     <use xlink:href="#DejaVuSans-78"/>
    </g>
   </g>
  </g>
  <g id="axis3d_8">
   <g id="line2d_62">
    <path d="M 464.319027 169.340759 
L 479.540826 197.459402 
" style="fill: none; stroke: #000000; stroke-width: 0.8; stroke-linecap: square"/>
   </g>
   <g id="xtick_43">
    <g id="line2d_63">
     <path d="M 480.637828 197.414872 
L 477.345683 197.548507 
" style="fill: none; stroke: #000000; stroke-width: 0.8; stroke-linecap: square"/>
    </g>
    <g id="text_52">
     <!-- 0.0 -->
     <g transform="translate(466.983285 208.103081) scale(0.06 -0.06)">
      <use xlink:href="#DejaVuSans-30"/>
      <use xlink:href="#DejaVuSans-2e" transform="translate(63.623047 0)"/>
      <use xlink:href="#DejaVuSans-30" transform="translate(95.410156 0)"/>
     </g>
    </g>
   </g>
   <g id="xtick_44">
    <g id="line2d_64">
     <path d="M 477.27571 191.253817 
L 474.060833 191.381119 
" style="fill: none; stroke: #000000; stroke-width: 0.8; stroke-linecap: square"/>
    </g>
    <g id="text_53">
     <!-- 0.2 -->
     <g transform="translate(463.832723 201.792186) scale(0.06 -0.06)">
      <use xlink:href="#DejaVuSans-30"/>
      <use xlink:href="#DejaVuSans-2e" transform="translate(63.623047 0)"/>
      <use xlink:href="#DejaVuSans-32" transform="translate(95.410156 0)"/>
     </g>
    </g>
   </g>
   <g id="xtick_45">
    <g id="line2d_65">
     <path d="M 474.07104 185.381283 
L 470.929888 185.502692 
" style="fill: none; stroke: #000000; stroke-width: 0.8; stroke-linecap: square"/>
    </g>
    <g id="text_54">
     <!-- 0.4 -->
     <g transform="translate(460.829768 195.776961) scale(0.06 -0.06)">
      <use xlink:href="#DejaVuSans-30"/>
      <use xlink:href="#DejaVuSans-2e" transform="translate(63.623047 0)"/>
      <use xlink:href="#DejaVuSans-34" transform="translate(95.410156 0)"/>
     </g>
    </g>
   </g>
   <g id="xtick_46">
    <g id="line2d_66">
     <path d="M 471.013011 179.777466 
L 467.942279 179.893382 
" style="fill: none; stroke: #000000; stroke-width: 0.8; stroke-linecap: square"/>
    </g>
    <g id="text_55">
     <!-- 0.6 -->
     <g transform="translate(457.964284 190.037104) scale(0.06 -0.06)">
      <use xlink:href="#DejaVuSans-30"/>
      <use xlink:href="#DejaVuSans-2e" transform="translate(63.623047 0)"/>
      <use xlink:href="#DejaVuSans-36" transform="translate(95.410156 0)"/>
     </g>
    </g>
   </g>
   <g id="xtick_47">
    <g id="line2d_67">
     <path d="M 468.091782 174.424337 
L 465.088384 174.535124 
" style="fill: none; stroke: #000000; stroke-width: 0.8; stroke-linecap: square"/>
    </g>
    <g id="text_56">
     <!-- 0.8 -->
     <g transform="translate(455.227041 184.554129) scale(0.06 -0.06)">
      <use xlink:href="#DejaVuSans-30"/>
      <use xlink:href="#DejaVuSans-2e" transform="translate(63.623047 0)"/>
      <use xlink:href="#DejaVuSans-38" transform="translate(95.410156 0)"/>
     </g>
    </g>
   </g>
   <g id="xtick_48">
    <g id="line2d_68">
     <path d="M 465.298375 169.30544 
L 462.359423 169.411431 
" style="fill: none; stroke: #000000; stroke-width: 0.8; stroke-linecap: square"/>
    </g>
    <g id="text_57">
     <!-- 1.0 -->
     <g transform="translate(452.60962 179.311168) scale(0.06 -0.06)">
      <use xlink:href="#DejaVuSans-31"/>
      <use xlink:href="#DejaVuSans-2e" transform="translate(63.623047 0)"/>
      <use xlink:href="#DejaVuSans-30" transform="translate(95.410156 0)"/>
     </g>
    </g>
   </g>
   <g id="text_58">
    <!-- y -->
    <g transform="translate(448.320064 201.032351) scale(0.08 -0.08)">
     <use xlink:href="#DejaVuSans-79"/>
    </g>
   </g>
  </g>
  <g id="axis3d_9">
   <g id="line2d_69">
    <path d="M 464.319027 169.340759 
L 463.257293 77.736888 
" style="fill: none; stroke: #000000; stroke-width: 0.8; stroke-linecap: square"/>
   </g>
   <g id="xtick_49">
    <g id="line2d_70">
     <path d="M 465.298375 169.30544 
L 462.359423 169.411431 
" style="fill: none; stroke: #000000; stroke-width: 0.8; stroke-linecap: square"/>
    </g>
    <g id="text_59">
     <!-- 0.0 -->
     <g transform="translate(451.816824 172.727196) scale(0.06 -0.06)">
      <use xlink:href="#DejaVuSans-30"/>
      <use xlink:href="#DejaVuSans-2e" transform="translate(63.623047 0)"/>
      <use xlink:href="#DejaVuSans-30" transform="translate(95.410156 0)"/>
     </g>
    </g>
   </g>
   <g id="xtick_50">
    <g id="line2d_71">
     <path d="M 465.09145 151.20333 
L 462.143738 151.301226 
" style="fill: none; stroke: #000000; stroke-width: 0.8; stroke-linecap: square"/>
    </g>
    <g id="text_60">
     <!-- 0.2 -->
     <g transform="translate(451.585391 154.711975) scale(0.06 -0.06)">
      <use xlink:href="#DejaVuSans-30"/>
      <use xlink:href="#DejaVuSans-2e" transform="translate(63.623047 0)"/>
      <use xlink:href="#DejaVuSans-32" transform="translate(95.410156 0)"/>
     </g>
    </g>
   </g>
   <g id="xtick_51">
    <g id="line2d_72">
     <path d="M 464.883301 132.994227 
L 461.926777 133.083929 
" style="fill: none; stroke: #000000; stroke-width: 0.8; stroke-linecap: square"/>
    </g>
    <g id="text_61">
     <!-- 0.4 -->
     <g transform="translate(451.352598 136.590807) scale(0.06 -0.06)">
      <use xlink:href="#DejaVuSans-30"/>
      <use xlink:href="#DejaVuSans-2e" transform="translate(63.623047 0)"/>
      <use xlink:href="#DejaVuSans-34" transform="translate(95.410156 0)"/>
     </g>
    </g>
   </g>
   <g id="xtick_52">
    <g id="line2d_73">
     <path d="M 464.673919 114.67718 
L 461.708529 114.758588 
" style="fill: none; stroke: #000000; stroke-width: 0.8; stroke-linecap: square"/>
    </g>
    <g id="text_62">
     <!-- 0.6 -->
     <g transform="translate(451.118431 118.362754) scale(0.06 -0.06)">
      <use xlink:href="#DejaVuSans-30"/>
      <use xlink:href="#DejaVuSans-2e" transform="translate(63.623047 0)"/>
      <use xlink:href="#DejaVuSans-36" transform="translate(95.410156 0)"/>
     </g>
    </g>
   </g>
   <g id="xtick_53">
    <g id="line2d_74">
     <path d="M 464.463292 96.251224 
L 461.488983 96.32424 
" style="fill: none; stroke: #000000; stroke-width: 0.8; stroke-linecap: square"/>
    </g>
    <g id="text_63">
     <!-- 0.8 -->
     <g transform="translate(450.882879 100.026867) scale(0.06 -0.06)">
      <use xlink:href="#DejaVuSans-30"/>
      <use xlink:href="#DejaVuSans-2e" transform="translate(63.623047 0)"/>
      <use xlink:href="#DejaVuSans-38" transform="translate(95.410156 0)"/>
     </g>
    </g>
   </g>
   <g id="xtick_54">
    <g id="line2d_75">
     <path d="M 464.251408 77.715388 
L 461.268128 77.779908 
" style="fill: none; stroke: #000000; stroke-width: 0.8; stroke-linecap: square"/>
    </g>
    <g id="text_64">
     <!-- 1.0 -->
     <g transform="translate(450.645929 81.582187) scale(0.06 -0.06)">
      <use xlink:href="#DejaVuSans-31"/>
      <use xlink:href="#DejaVuSans-2e" transform="translate(63.623047 0)"/>
      <use xlink:href="#DejaVuSans-30" transform="translate(95.410156 0)"/>
     </g>
    </g>
   </g>
   <g id="text_65">
    <!-- z -->
    <g transform="translate(439.840651 123.428283) scale(0.08 -0.08)">
     <use xlink:href="#DejaVuSans-7a"/>
    </g>
   </g>
  </g>
  <g id="axes_3">
   <g id="line2d_76">
    <path d="M 479.540826 197.459402 
L 613.781877 192.010273 
" clip-path="url(#p877408c241)" style="fill: none; stroke: #333333; stroke-width: 1.6; stroke-linecap: square"/>
   </g>
   <g id="line2d_77">
    <path d="M 479.540826 197.459402 
L 464.319027 169.340759 
" clip-path="url(#p877408c241)" style="fill: none; stroke: #333333; stroke-width: 1.6; stroke-linecap: square"/>
   </g>
   <g id="line2d_78">
    <path d="M 479.540826 197.459402 
L 478.601794 94.885072 
" clip-path="url(#p877408c241)" style="fill: none; stroke: #333333; stroke-width: 1.6; stroke-linecap: square"/>
   </g>
   <g id="line2d_79">
    <path d="M 613.781877 192.010273 
L 464.319027 169.340759 
" clip-path="url(#p877408c241)" style="fill: none; stroke: #333333; stroke-width: 1.6; stroke-linecap: square"/>
   </g>
   <g id="line2d_80">
    <path d="M 613.781877 192.010273 
L 478.601794 94.885072 
" clip-path="url(#p877408c241)" style="fill: none; stroke: #333333; stroke-width: 1.6; stroke-linecap: square"/>
   </g>
   <g id="line2d_81">
    <path d="M 464.319027 169.340759 
L 478.601794 94.885072 
" clip-path="url(#p877408c241)" style="fill: none; stroke: #333333; stroke-width: 1.6; stroke-linecap: square"/>
   </g>
   <g id="Path3DCollection_5">
    <path d="M 492.869026 169.57144 
C 493.843445 169.57144 494.778085 169.1843 495.467102 168.495282 
C 496.15612 167.806264 496.543261 166.871624 496.543261 165.897206 
C 496.543261 164.922787 496.15612 163.988148 495.467102 163.29913 
C 494.778085 162.610112 493.843445 162.222971 492.869026 162.222971 
C 491.894608 162.222971 490.959968 162.610112 490.27095 163.29913 
C 489.581932 163.988148 489.194792 164.922787 489.194792 165.897206 
C 489.194792 166.871624 489.581932 167.806264 490.27095 168.495282 
C 490.959968 169.1843 491.894608 169.57144 492.869026 169.57144 
z
" clip-path="url(#p877408c241)" style="fill: #1a5fa8; stroke: #1a5fa8"/>
    <path d="M 508.40062 168.922845 
C 509.699844 168.922845 510.946031 168.406657 511.864721 167.487967 
C 512.783412 166.569276 513.299599 165.32309 513.299599 164.023865 
C 513.299599 162.724641 512.783412 161.478454 511.864721 160.559764 
C 510.946031 159.641073 509.699844 159.124886 508.40062 159.124886 
C 507.101395 159.124886 505.855209 159.641073 504.936518 160.559764 
C 504.017828 161.478454 503.50164 162.724641 503.50164 164.023865 
C 503.50164 165.32309 504.017828 166.569276 504.936518 167.487967 
C 505.855209 168.406657 507.101395 168.922845 508.40062 168.922845 
z
" clip-path="url(#p877408c241)" style="fill: #c0392b; stroke: #c0392b"/>
    <path d="M 543.292245 176.964371 
C 544.266664 176.964371 545.201304 176.57723 545.890321 175.888212 
C 546.579339 175.199194 546.96648 174.264554 546.96648 173.290136 
C 546.96648 172.315718 546.579339 171.381078 545.890321 170.69206 
C 545.201304 170.003042 544.266664 169.615901 543.292245 169.615901 
C 542.317827 169.615901 541.383187 170.003042 540.694169 170.69206 
C 540.005151 171.381078 539.618011 172.315718 539.618011 173.290136 
C 539.618011 174.264554 540.005151 175.199194 540.694169 175.888212 
C 541.383187 176.57723 542.317827 176.964371 543.292245 176.964371 
z
" clip-path="url(#p877408c241)" style="fill: #1a5fa8; stroke: #1a5fa8"/>
    <path d="M 498.981647 178.610459 
C 499.956065 178.610459 500.890705 178.223318 501.579723 177.5343 
C 502.268741 176.845283 502.655881 175.910643 502.655881 174.936224 
C 502.655881 173.961806 502.268741 173.027166 501.579723 172.338148 
C 500.890705 171.64913 499.956065 171.26199 498.981647 171.26199 
C 498.007228 171.26199 497.072588 171.64913 496.38357 172.338148 
C 495.694553 173.027166 495.307412 173.961806 495.307412 174.936224 
C 495.307412 175.910643 495.694553 176.845283 496.38357 177.5343 
C 497.072588 178.223318 498.007228 178.610459 498.981647 178.610459 
z
" clip-path="url(#p877408c241)" style="fill: #1a5fa8; stroke: #1a5fa8"/>
    <path d="M 498.783835 145.385379 
C 499.758254 145.385379 500.692893 144.998238 501.381911 144.30922 
C 502.070929 143.620203 502.45807 142.685563 502.45807 141.711144 
C 502.45807 140.736726 502.070929 139.802086 501.381911 139.113068 
C 500.692893 138.42405 499.758254 138.03691 498.783835 138.03691 
C 497.809417 138.03691 496.874777 138.42405 496.185759 139.113068 
C 495.496741 139.802086 495.1096 140.736726 495.1096 141.711144 
C 495.1096 142.685563 495.496741 143.620203 496.185759 144.30922 
C 496.874777 144.998238 497.809417 145.385379 498.783835 145.385379 
z
" clip-path="url(#p877408c241)" style="fill: #1a5fa8; stroke: #1a5fa8"/>
   </g>
   <g id="text_66">
    <!-- order 3  (5 pts) -->
    <g transform="translate(495.107031 28.524) scale(0.1 -0.1)">
     <defs>
      <path id="DejaVuSans-33" d="M 2597 2516 
Q 3050 2419 3304 2112 
Q 3559 1806 3559 1356 
Q 3559 666 3084 287 
Q 2609 -91 1734 -91 
Q 1441 -91 1130 -33 
Q 819 25 488 141 
L 488 750 
Q 750 597 1062 519 
Q 1375 441 1716 441 
Q 2309 441 2620 675 
Q 2931 909 2931 1356 
Q 2931 1769 2642 2001 
Q 2353 2234 1838 2234 
L 1294 2234 
L 1294 2753 
L 1863 2753 
Q 2328 2753 2575 2939 
Q 2822 3125 2822 3475 
Q 2822 3834 2567 4026 
Q 2313 4219 1838 4219 
Q 1578 4219 1281 4162 
Q 984 4106 628 3988 
L 628 4550 
Q 988 4650 1302 4700 
Q 1616 4750 1894 4750 
Q 2613 4750 3031 4423 
Q 3450 4097 3450 3541 
Q 3450 3153 3228 2886 
Q 3006 2619 2597 2516 
z
" transform="scale(0.015625)"/>
      <path id="DejaVuSans-35" d="M 691 4666 
L 3169 4666 
L 3169 4134 
L 1269 4134 
L 1269 2991 
Q 1406 3038 1543 3061 
Q 1681 3084 1819 3084 
Q 2600 3084 3056 2656 
Q 3513 2228 3513 1497 
Q 3513 744 3044 326 
Q 2575 -91 1722 -91 
Q 1428 -91 1123 -41 
Q 819 9 494 109 
L 494 744 
Q 775 591 1075 516 
Q 1375 441 1709 441 
Q 2250 441 2565 725 
Q 2881 1009 2881 1497 
Q 2881 1984 2565 2268 
Q 2250 2553 1709 2553 
Q 1456 2553 1204 2497 
Q 953 2441 691 2322 
L 691 4666 
z
" transform="scale(0.015625)"/>
     </defs>
     <use xlink:href="#DejaVuSans-6f"/>
     <use xlink:href="#DejaVuSans-72" transform="translate(61.181641 0)"/>
     <use xlink:href="#DejaVuSans-64" transform="translate(100.544922 0)"/>
     <use xlink:href="#DejaVuSans-65" transform="translate(164.021484 0)"/>
     <use xlink:href="#DejaVuSans-72" transform="translate(225.544922 0)"/>
     <use xlink:href="#DejaVuSans-20" transform="translate(266.658203 0)"/>
     <use xlink:href="#DejaVuSans-33" transform="translate(298.445312 0)"/>
     <use xlink:href="#DejaVuSans-20" transform="translate(362.068359 0)"/>
     <use xlink:href="#DejaVuSans-20" transform="translate(393.855469 0)"/>
     <use xlink:href="#DejaVuSans-28" transform="translate(425.642578 0)"/>
     <use xlink:href="#DejaVuSans-35" transform="translate(464.65625 0)"/>
     <use xlink:href="#DejaVuSans-20" transform="translate(528.279297 0)"/>
     <use xlink:href="#DejaVuSans-70" transform="translate(560.066406 0)"/>
     <use xlink:href="#DejaVuSans-74" transform="translate(623.542969 0)"/>
     <use xlink:href="#DejaVuSans-73" transform="translate(662.751953 0)"/>
     <use xlink:href="#DejaVuSans-29" transform="translate(714.851562 0)"/>
    </g>
   </g>
   <g id="Poly3DCollection_3">
    <path d="M 479.540826 197.459402 
L 613.781877 192.010273 
L 464.319027 169.340759 
z
" clip-path="url(#p877408c241)" style="fill: #1a5fa8; fill-opacity: 0.07"/>
    <path d="M 613.781877 192.010273 
L 464.319027 169.340759 
L 478.601794 94.885072 
z
" clip-path="url(#p877408c241)" style="fill: #1a5fa8; fill-opacity: 0.07"/>
    <path d="M 479.540826 197.459402 
L 464.319027 169.340759 
L 478.601794 94.885072 
z
" clip-path="url(#p877408c241)" style="fill: #1a5fa8; fill-opacity: 0.07"/>
    <path d="M 479.540826 197.459402 
L 613.781877 192.010273 
L 478.601794 94.885072 
z
" clip-path="url(#p877408c241)" style="fill: #1a5fa8; fill-opacity: 0.07"/>
   </g>
   <g id="Path3DCollection_6">
    <defs>
     <path id="C2_0_4a11a3feac" d="M 0 2.345208 
C 0.621956 2.345208 1.218523 2.098102 1.658312 1.658312 
C 2.098102 1.218523 2.345208 0.621956 2.345208 -0 
C 2.345208 -0.621956 2.098102 -1.218523 1.658312 -1.658312 
C 1.218523 -2.098102 0.621956 -2.345208 0 -2.345208 
C -0.621956 -2.345208 -1.218523 -2.098102 -1.658312 -1.658312 
C -2.098102 -1.218523 -2.345208 -0.621956 -2.345208 0 
C -2.345208 0.621956 -2.098102 1.218523 -1.658312 1.658312 
C -1.218523 2.098102 -0.621956 2.345208 0 2.345208 
z
"/>
    </defs>
    <g clip-path="url(#p877408c241)">
     <use xlink:href="#C2_0_4a11a3feac" x="464.319027" y="169.340759" style="fill: #333333; fill-opacity: 0.3; stroke: #333333; stroke-opacity: 0.3"/>
    </g>
    <g clip-path="url(#p877408c241)">
     <use xlink:href="#C2_0_4a11a3feac" x="613.781877" y="192.010273" style="fill: #333333; fill-opacity: 0.789327; stroke: #333333; stroke-opacity: 0.789327"/>
    </g>
    <g clip-path="url(#p877408c241)">
     <use xlink:href="#C2_0_4a11a3feac" x="479.540826" y="197.459402" style="fill: #333333; fill-opacity: 0.906948; stroke: #333333; stroke-opacity: 0.906948"/>
    </g>
    <g clip-path="url(#p877408c241)">
     <use xlink:href="#C2_0_4a11a3feac" x="478.601794" y="94.885072" style="fill: #333333; stroke: #333333"/>
    </g>
   </g>
  </g>
  <g id="text_67">
   <!-- Quadrature points on the reference tetrahedron -->
   <g transform="translate(188.484219 15.558281) scale(0.11 -0.11)">
    <defs>
     <path id="DejaVuSans-51" d="M 2522 4238 
Q 1834 4238 1429 3725 
Q 1025 3213 1025 2328 
Q 1025 1447 1429 934 
Q 1834 422 2522 422 
Q 3209 422 3611 934 
Q 4013 1447 4013 2328 
Q 4013 3213 3611 3725 
Q 3209 4238 2522 4238 
z
M 3406 84 
L 4238 -825 
L 3475 -825 
L 2784 -78 
Q 2681 -84 2626 -87 
Q 2572 -91 2522 -91 
Q 1538 -91 948 567 
Q 359 1225 359 2328 
Q 359 3434 948 4092 
Q 1538 4750 2522 4750 
Q 3503 4750 4090 4092 
Q 4678 3434 4678 2328 
Q 4678 1516 4351 937 
Q 4025 359 3406 84 
z
" transform="scale(0.015625)"/>
     <path id="DejaVuSans-75" d="M 544 1381 
L 544 3500 
L 1119 3500 
L 1119 1403 
Q 1119 906 1312 657 
Q 1506 409 1894 409 
Q 2359 409 2629 706 
Q 2900 1003 2900 1516 
L 2900 3500 
L 3475 3500 
L 3475 0 
L 2900 0 
L 2900 538 
Q 2691 219 2414 64 
Q 2138 -91 1772 -91 
Q 1169 -91 856 284 
Q 544 659 544 1381 
z
M 1991 3584 
L 1991 3584 
z
" transform="scale(0.015625)"/>
     <path id="DejaVuSans-61" d="M 2194 1759 
Q 1497 1759 1228 1600 
Q 959 1441 959 1056 
Q 959 750 1161 570 
Q 1363 391 1709 391 
Q 2188 391 2477 730 
Q 2766 1069 2766 1631 
L 2766 1759 
L 2194 1759 
z
M 3341 1997 
L 3341 0 
L 2766 0 
L 2766 531 
Q 2569 213 2275 61 
Q 1981 -91 1556 -91 
Q 1019 -91 701 211 
Q 384 513 384 1019 
Q 384 1609 779 1909 
Q 1175 2209 1959 2209 
L 2766 2209 
L 2766 2266 
Q 2766 2663 2505 2880 
Q 2244 3097 1772 3097 
Q 1472 3097 1187 3025 
Q 903 2953 641 2809 
L 641 3341 
Q 956 3463 1253 3523 
Q 1550 3584 1831 3584 
Q 2591 3584 2966 3190 
Q 3341 2797 3341 1997 
z
" transform="scale(0.015625)"/>
     <path id="DejaVuSans-69" d="M 603 3500 
L 1178 3500 
L 1178 0 
L 603 0 
L 603 3500 
z
M 603 4863 
L 1178 4863 
L 1178 4134 
L 603 4134 
L 603 4863 
z
" transform="scale(0.015625)"/>
     <path id="DejaVuSans-6e" d="M 3513 2113 
L 3513 0 
L 2938 0 
L 2938 2094 
Q 2938 2591 2744 2837 
Q 2550 3084 2163 3084 
Q 1697 3084 1428 2787 
Q 1159 2491 1159 1978 
L 1159 0 
L 581 0 
L 581 3500 
L 1159 3500 
L 1159 2956 
Q 1366 3272 1645 3428 
Q 1925 3584 2291 3584 
Q 2894 3584 3203 3211 
Q 3513 2838 3513 2113 
z
" transform="scale(0.015625)"/>
     <path id="DejaVuSans-68" d="M 3513 2113 
L 3513 0 
L 2938 0 
L 2938 2094 
Q 2938 2591 2744 2837 
Q 2550 3084 2163 3084 
Q 1697 3084 1428 2787 
Q 1159 2491 1159 1978 
L 1159 0 
L 581 0 
L 581 4863 
L 1159 4863 
L 1159 2956 
Q 1366 3272 1645 3428 
Q 1925 3584 2291 3584 
Q 2894 3584 3203 3211 
Q 3513 2838 3513 2113 
z
" transform="scale(0.015625)"/>
     <path id="DejaVuSans-66" d="M 2375 4863 
L 2375 4384 
L 1825 4384 
Q 1516 4384 1395 4259 
Q 1275 4134 1275 3809 
L 1275 3500 
L 2222 3500 
L 2222 3053 
L 1275 3053 
L 1275 0 
L 697 0 
L 697 3053 
L 147 3053 
L 147 3500 
L 697 3500 
L 697 3744 
Q 697 4328 969 4595 
Q 1241 4863 1831 4863 
L 2375 4863 
z
" transform="scale(0.015625)"/>
     <path id="DejaVuSans-63" d="M 3122 3366 
L 3122 2828 
Q 2878 2963 2633 3030 
Q 2388 3097 2138 3097 
Q 1578 3097 1268 2742 
Q 959 2388 959 1747 
Q 959 1106 1268 751 
Q 1578 397 2138 397 
Q 2388 397 2633 464 
Q 2878 531 3122 666 
L 3122 134 
Q 2881 22 2623 -34 
Q 2366 -91 2075 -91 
Q 1284 -91 818 406 
Q 353 903 353 1747 
Q 353 2603 823 3093 
Q 1294 3584 2113 3584 
Q 2378 3584 2631 3529 
Q 2884 3475 3122 3366 
z
" transform="scale(0.015625)"/>
    </defs>
    <use xlink:href="#DejaVuSans-51"/>
    <use xlink:href="#DejaVuSans-75" transform="translate(78.710938 0)"/>
    <use xlink:href="#DejaVuSans-61" transform="translate(142.089844 0)"/>
    <use xlink:href="#DejaVuSans-64" transform="translate(203.369141 0)"/>
    <use xlink:href="#DejaVuSans-72" transform="translate(266.845703 0)"/>
    <use xlink:href="#DejaVuSans-61" transform="translate(307.958984 0)"/>
    <use xlink:href="#DejaVuSans-74" transform="translate(369.238281 0)"/>
    <use xlink:href="#DejaVuSans-75" transform="translate(408.447266 0)"/>
    <use xlink:href="#DejaVuSans-72" transform="translate(471.826172 0)"/>
    <use xlink:href="#DejaVuSans-65" transform="translate(510.689453 0)"/>
    <use xlink:href="#DejaVuSans-20" transform="translate(572.212891 0)"/>
    <use xlink:href="#DejaVuSans-70" transform="translate(604 0)"/>
    <use xlink:href="#DejaVuSans-6f" transform="translate(667.476562 0)"/>
    <use xlink:href="#DejaVuSans-69" transform="translate(728.658203 0)"/>
    <use xlink:href="#DejaVuSans-6e" transform="translate(756.441406 0)"/>
    <use xlink:href="#DejaVuSans-74" transform="translate(819.820312 0)"/>
    <use xlink:href="#DejaVuSans-73" transform="translate(859.029297 0)"/>
    <use xlink:href="#DejaVuSans-20" transform="translate(911.128906 0)"/>
    <use xlink:href="#DejaVuSans-6f" transform="translate(942.916016 0)"/>
    <use xlink:href="#DejaVuSans-6e" transform="translate(1004.097656 0)"/>
    <use xlink:href="#DejaVuSans-20" transform="translate(1067.476562 0)"/>
    <use xlink:href="#DejaVuSans-74" transform="translate(1099.263672 0)"/>
    <use xlink:href="#DejaVuSans-68" transform="translate(1138.472656 0)"/>
    <use xlink:href="#DejaVuSans-65" transform="translate(1201.851562 0)"/>
    <use xlink:href="#DejaVuSans-20" transform="translate(1263.375 0)"/>
    <use xlink:href="#DejaVuSans-72" transform="translate(1295.162109 0)"/>
    <use xlink:href="#DejaVuSans-65" transform="translate(1334.025391 0)"/>
    <use xlink:href="#DejaVuSans-66" transform="translate(1395.548828 0)"/>
    <use xlink:href="#DejaVuSans-65" transform="translate(1430.753906 0)"/>
    <use xlink:href="#DejaVuSans-72" transform="translate(1492.277344 0)"/>
    <use xlink:href="#DejaVuSans-65" transform="translate(1531.140625 0)"/>
    <use xlink:href="#DejaVuSans-6e" transform="translate(1592.664062 0)"/>
    <use xlink:href="#DejaVuSans-63" transform="translate(1656.042969 0)"/>
    <use xlink:href="#DejaVuSans-65" transform="translate(1711.023438 0)"/>
    <use xlink:href="#DejaVuSans-20" transform="translate(1772.546875 0)"/>
    <use xlink:href="#DejaVuSans-74" transform="translate(1804.333984 0)"/>
    <use xlink:href="#DejaVuSans-65" transform="translate(1843.542969 0)"/>
    <use xlink:href="#DejaVuSans-74" transform="translate(1905.066406 0)"/>
    <use xlink:href="#DejaVuSans-72" transform="translate(1944.275391 0)"/>
    <use xlink:href="#DejaVuSans-61" transform="translate(1985.388672 0)"/>
    <use xlink:href="#DejaVuSans-68" transform="translate(2046.667969 0)"/>
    <use xlink:href="#DejaVuSans-65" transform="translate(2110.046875 0)"/>
    <use xlink:href="#DejaVuSans-64" transform="translate(2171.570312 0)"/>
    <use xlink:href="#DejaVuSans-72" transform="translate(2235.046875 0)"/>
    <use xlink:href="#DejaVuSans-6f" transform="translate(2273.910156 0)"/>
    <use xlink:href="#DejaVuSans-6e" transform="translate(2335.091797 0)"/>
   </g>
  </g>
 </g>
 <defs>
  <clipPath id="pdb58546414">
   <rect x="7.2" y="34.524" width="201.6" height="201.6"/>
  </clipPath>
  <clipPath id="p57e94ec527">
   <rect x="219.6" y="34.524" width="201.6" height="201.6"/>
  </clipPath>
  <clipPath id="p877408c241">
   <rect x="432" y="34.524" width="201.6" height="201.6"/>
  </clipPath>
 </defs>
</svg>
