<?xml version="1.0" encoding="utf-8" standalone="no"?>
<!DOCTYPE svg PUBLIC "-//W3C//DTD SVG 1.1//EN"
  "http://www.w3.org/Graphics/SVG/1.1/DTD/svg11.dtd">
<svg xmlns:xlink="http://www.w3.org/1999/xlink" width="712.8pt" height="206.96pt" viewBox="0 0 712.8 206.96" xmlns="http://www.w3.org/2000/svg" version="1.1">
 <metadata>
  <rdf:RDF xmlns:dc="http://purl.org/dc/elements/1.1/" xmlns:cc="http://creativecommons.org/ns#" xmlns:rdf="http://www.w3.org/1999/02/22-rdf-syntax-ns#">
   <cc:Work>
    <dc:type rdf:resource="http://purl.org/dc/dcmitype/StillImage"/>
    <dc:date>2026-03-13T09:30:11.070482</dc:date>
    <dc:format>image/svg+xml</dc:format>
    <dc:creator>
     <cc:Agent>
      <dc:title>Matplotlib v3.10.8, https://matplotlib.org/</dc:title>
     </cc:Agent>
    </dc:creator>
   </cc:Work>
  </rdf:RDF>
 </metadata>
 <defs>
  <style type="text/css">*{stroke-linejoin: round; stroke-linecap: butt}</style>
 </defs>
 <g id="figure_1">
  <g id="patch_1">
   <path d="M 0 206.96 
L 712.8 206.96 
L 712.8 0 
L 0 0 
z
" style="fill: #ffffff"/>
  </g>
  <g id="axes_1">
   <g id="patch_2">
    <path d="M 16.237241 167.784542 
L 129.202759 167.784542 
L 16.237241 54.819025 
z
" clip-path="url(#pbe14e188ef)" style="fill: #f0f4fa; stroke: #555555; stroke-width: 1.5; stroke-linejoin: miter"/>
   </g>
   <g id="line2d_1">
    <defs>
     <path id="m941edc5708" d="M 0 2 
C 0.530406 2 1.03916 1.789267 1.414214 1.414214 
C 1.789267 1.03916 2 0.530406 2 0 
C 2 -0.530406 1.789267 -1.03916 1.414214 -1.414214 
C 1.03916 -1.789267 0.530406 -2 0 -2 
C -0.530406 -2 -1.03916 -1.789267 -1.414214 -1.414214 
C -1.789267 -1.03916 -2 -0.530406 -2 0 
C -2 0.530406 -1.789267 1.03916 -1.414214 1.414214 
C -1.03916 1.789267 -0.530406 2 0 2 
z
" style="stroke: #555555"/>
    </defs>
    <g clip-path="url(#pbe14e188ef)">
     <use xlink:href="#m941edc5708" x="16.237241" y="167.784542" style="fill: #555555; stroke: #555555"/>
     <use xlink:href="#m941edc5708" x="129.202759" y="167.784542" style="fill: #555555; stroke: #555555"/>
     <use xlink:href="#m941edc5708" x="16.237241" y="54.819025" style="fill: #555555; stroke: #555555"/>
    </g>
   </g>
   <g id="text_1">
    <!-- order 1 -->
    <g transform="translate(56.426484 29.703752) scale(0.09 -0.09)">
     <defs>
      <path id="DejaVuSans-6f" d="M 1959 3097 
Q 1497 3097 1228 2736 
Q 959 2375 959 1747 
Q 959 1119 1226 758 
Q 1494 397 1959 397 
Q 2419 397 2687 759 
Q 2956 1122 2956 1747 
Q 2956 2369 2687 2733 
Q 2419 3097 1959 3097 
z
M 1959 3584 
Q 2709 3584 3137 3096 
Q 3566 2609 3566 1747 
Q 3566 888 3137 398 
Q 2709 -91 1959 -91 
Q 1206 -91 779 398 
Q 353 888 353 1747 
Q 353 2609 779 3096 
Q 1206 3584 1959 3584 
z
" transform="scale(0.015625)"/>
      <path id="DejaVuSans-72" d="M 2631 2963 
Q 2534 3019 2420 3045 
Q 2306 3072 2169 3072 
Q 1681 3072 1420 2755 
Q 1159 2438 1159 1844 
L 1159 0 
L 581 0 
L 581 3500 
L 1159 3500 
L 1159 2956 
Q 1341 3275 1631 3429 
Q 1922 3584 2338 3584 
Q 2397 3584 2469 3576 
Q 2541 3569 2628 3553 
L 2631 2963 
z
" transform="scale(0.015625)"/>
      <path id="DejaVuSans-64" d="M 2906 2969 
L 2906 4863 
L 3481 4863 
L 3481 0 
L 2906 0 
L 2906 525 
Q 2725 213 2448 61 
Q 2172 -91 1784 -91 
Q 1150 -91 751 415 
Q 353 922 353 1747 
Q 353 2572 751 3078 
Q 1150 3584 1784 3584 
Q 2172 3584 2448 3432 
Q 2725 3281 2906 2969 
z
M 947 1747 
Q 947 1113 1208 752 
Q 1469 391 1925 391 
Q 2381 391 2643 752 
Q 2906 1113 2906 1747 
Q 2906 2381 2643 2742 
Q 2381 3103 1925 3103 
Q 1469 3103 1208 2742 
Q 947 2381 947 1747 
z
" transform="scale(0.015625)"/>
      <path id="DejaVuSans-65" d="M 3597 1894 
L 3597 1613 
L 953 1613 
Q 991 1019 1311 708 
Q 1631 397 2203 397 
Q 2534 397 2845 478 
Q 3156 559 3463 722 
L 3463 178 
Q 3153 47 2828 -22 
Q 2503 -91 2169 -91 
Q 1331 -91 842 396 
Q 353 884 353 1716 
Q 353 2575 817 3079 
Q 1281 3584 2069 3584 
Q 2775 3584 3186 3129 
Q 3597 2675 3597 1894 
z
M 3022 2063 
Q 3016 2534 2758 2815 
Q 2500 3097 2075 3097 
Q 1594 3097 1305 2825 
Q 1016 2553 972 2059 
L 3022 2063 
z
" transform="scale(0.015625)"/>
      <path id="DejaVuSans-20" transform="scale(0.015625)"/>
      <path id="DejaVuSans-31" d="M 794 531 
L 1825 531 
L 1825 4091 
L 703 3866 
L 703 4441 
L 1819 4666 
L 2450 4666 
L 2450 531 
L 3481 531 
L 3481 0 
L 794 0 
L 794 531 
z
" transform="scale(0.015625)"/>
     </defs>
     <use xlink:href="#DejaVuSans-6f"/>
     <use xlink:href="#DejaVuSans-72" transform="translate(61.181641 0)"/>
     <use xlink:href="#DejaVuSans-64" transform="translate(100.544922 0)"/>
     <use xlink:href="#DejaVuSans-65" transform="translate(164.021484 0)"/>
     <use xlink:href="#DejaVuSans-72" transform="translate(225.544922 0)"/>
     <use xlink:href="#DejaVuSans-20" transform="translate(266.658203 0)"/>
     <use xlink:href="#DejaVuSans-31" transform="translate(298.445312 0)"/>
    </g>
    <!-- (1 pt) -->
    <g transform="translate(60.294375 39.781784) scale(0.09 -0.09)">
     <defs>
      <path id="DejaVuSans-28" d="M 1984 4856 
Q 1566 4138 1362 3434 
Q 1159 2731 1159 2009 
Q 1159 1288 1364 580 
Q 1569 -128 1984 -844 
L 1484 -844 
Q 1016 -109 783 600 
Q 550 1309 550 2009 
Q 550 2706 781 3412 
Q 1013 4119 1484 4856 
L 1984 4856 
z
" transform="scale(0.015625)"/>
      <path id="DejaVuSans-70" d="M 1159 525 
L 1159 -1331 
L 581 -1331 
L 581 3500 
L 1159 3500 
L 1159 2969 
Q 1341 3281 1617 3432 
Q 1894 3584 2278 3584 
Q 2916 3584 3314 3078 
Q 3713 2572 3713 1747 
Q 3713 922 3314 415 
Q 2916 -91 2278 -91 
Q 1894 -91 1617 61 
Q 1341 213 1159 525 
z
M 3116 1747 
Q 3116 2381 2855 2742 
Q 2594 3103 2138 3103 
Q 1681 3103 1420 2742 
Q 1159 2381 1159 1747 
Q 1159 1113 1420 752 
Q 1681 391 2138 391 
Q 2594 391 2855 752 
Q 3116 1113 3116 1747 
z
" transform="scale(0.015625)"/>
      <path id="DejaVuSans-74" d="M 1172 4494 
L 1172 3500 
L 2356 3500 
L 2356 3053 
L 1172 3053 
L 1172 1153 
Q 1172 725 1289 603 
Q 1406 481 1766 481 
L 2356 481 
L 2356 0 
L 1766 0 
Q 1100 0 847 248 
Q 594 497 594 1153 
L 594 3053 
L 172 3053 
L 172 3500 
L 594 3500 
L 594 4494 
L 1172 4494 
z
" transform="scale(0.015625)"/>
      <path id="DejaVuSans-29" d="M 513 4856 
L 1013 4856 
Q 1481 4119 1714 3412 
Q 1947 2706 1947 2009 
Q 1947 1309 1714 600 
Q 1481 -109 1013 -844 
L 513 -844 
Q 928 -128 1133 580 
Q 1338 1288 1338 2009 
Q 1338 2731 1133 3434 
Q 928 4138 513 4856 
z
" transform="scale(0.015625)"/>
     </defs>
     <use xlink:href="#DejaVuSans-28"/>
     <use xlink:href="#DejaVuSans-31" transform="translate(39.013672 0)"/>
     <use xlink:href="#DejaVuSans-20" transform="translate(102.636719 0)"/>
     <use xlink:href="#DejaVuSans-70" transform="translate(134.423828 0)"/>
     <use xlink:href="#DejaVuSans-74" transform="translate(197.900391 0)"/>
     <use xlink:href="#DejaVuSans-29" transform="translate(237.109375 0)"/>
    </g>
   </g>
   <g id="PathCollection_1">
    <defs>
     <path id="m75ea42d27b" d="M 0 6.324555 
C 1.677292 6.324555 3.286112 5.65816 4.472136 4.472136 
C 5.65816 3.286112 6.324555 1.677292 6.324555 0 
C 6.324555 -1.677292 5.65816 -3.286112 4.472136 -4.472136 
C 3.286112 -5.65816 1.677292 -6.324555 0 -6.324555 
C -1.677292 -6.324555 -3.286112 -5.65816 -4.472136 -4.472136 
C -5.65816 -3.286112 -6.324555 -1.677292 -6.324555 0 
C -6.324555 1.677292 -5.65816 3.286112 -4.472136 4.472136 
C -3.286112 5.65816 -1.677292 6.324555 0 6.324555 
z
" style="stroke: #1a5fa8"/>
    </defs>
    <g clip-path="url(#pbe14e188ef)">
     <use xlink:href="#m75ea42d27b" x="53.892414" y="130.12937" style="fill: #1a5fa8; stroke: #1a5fa8"/>
    </g>
   </g>
  </g>
  <g id="axes_2">
   <g id="patch_3">
    <path d="M 158.077241 167.784542 
L 271.042759 167.784542 
L 158.077241 54.819025 
z
" clip-path="url(#p0051304bc4)" style="fill: #f0f4fa; stroke: #555555; stroke-width: 1.5; stroke-linejoin: miter"/>
   </g>
   <g id="line2d_2">
    <g clip-path="url(#p0051304bc4)">
     <use xlink:href="#m941edc5708" x="158.077241" y="167.784542" style="fill: #555555; stroke: #555555"/>
     <use xlink:href="#m941edc5708" x="271.042759" y="167.784542" style="fill: #555555; stroke: #555555"/>
     <use xlink:href="#m941edc5708" x="158.077241" y="54.819025" style="fill: #555555; stroke: #555555"/>
    </g>
   </g>
   <g id="text_2">
    <!-- order 2 -->
    <g transform="translate(198.266484 29.703752) scale(0.09 -0.09)">
     <defs>
      <path id="DejaVuSans-32" d="M 1228 531 
L 3431 531 
L 3431 0 
L 469 0 
L 469 531 
Q 828 903 1448 1529 
Q 2069 2156 2228 2338 
Q 2531 2678 2651 2914 
Q 2772 3150 2772 3378 
Q 2772 3750 2511 3984 
Q 2250 4219 1831 4219 
Q 1534 4219 1204 4116 
Q 875 4013 500 3803 
L 500 4441 
Q 881 4594 1212 4672 
Q 1544 4750 1819 4750 
Q 2544 4750 2975 4387 
Q 3406 4025 3406 3419 
Q 3406 3131 3298 2873 
Q 3191 2616 2906 2266 
Q 2828 2175 2409 1742 
Q 1991 1309 1228 531 
z
" transform="scale(0.015625)"/>
     </defs>
     <use xlink:href="#DejaVuSans-6f"/>
     <use xlink:href="#DejaVuSans-72" transform="translate(61.181641 0)"/>
     <use xlink:href="#DejaVuSans-64" transform="translate(100.544922 0)"/>
     <use xlink:href="#DejaVuSans-65" transform="translate(164.021484 0)"/>
     <use xlink:href="#DejaVuSans-72" transform="translate(225.544922 0)"/>
     <use xlink:href="#DejaVuSans-20" transform="translate(266.658203 0)"/>
     <use xlink:href="#DejaVuSans-32" transform="translate(298.445312 0)"/>
    </g>
    <!-- (3 pts) -->
    <g transform="translate(199.790156 39.781784) scale(0.09 -0.09)">
     <defs>
      <path id="DejaVuSans-33" d="M 2597 2516 
Q 3050 2419 3304 2112 
Q 3559 1806 3559 1356 
Q 3559 666 3084 287 
Q 2609 -91 1734 -91 
Q 1441 -91 1130 -33 
Q 819 25 488 141 
L 488 750 
Q 750 597 1062 519 
Q 1375 441 1716 441 
Q 2309 441 2620 675 
Q 2931 909 2931 1356 
Q 2931 1769 2642 2001 
Q 2353 2234 1838 2234 
L 1294 2234 
L 1294 2753 
L 1863 2753 
Q 2328 2753 2575 2939 
Q 2822 3125 2822 3475 
Q 2822 3834 2567 4026 
Q 2313 4219 1838 4219 
Q 1578 4219 1281 4162 
Q 984 4106 628 3988 
L 628 4550 
Q 988 4650 1302 4700 
Q 1616 4750 1894 4750 
Q 2613 4750 3031 4423 
Q 3450 4097 3450 3541 
Q 3450 3153 3228 2886 
Q 3006 2619 2597 2516 
z
" transform="scale(0.015625)"/>
      <path id="DejaVuSans-73" d="M 2834 3397 
L 2834 2853 
Q 2591 2978 2328 3040 
Q 2066 3103 1784 3103 
Q 1356 3103 1142 2972 
Q 928 2841 928 2578 
Q 928 2378 1081 2264 
Q 1234 2150 1697 2047 
L 1894 2003 
Q 2506 1872 2764 1633 
Q 3022 1394 3022 966 
Q 3022 478 2636 193 
Q 2250 -91 1575 -91 
Q 1294 -91 989 -36 
Q 684 19 347 128 
L 347 722 
Q 666 556 975 473 
Q 1284 391 1588 391 
Q 1994 391 2212 530 
Q 2431 669 2431 922 
Q 2431 1156 2273 1281 
Q 2116 1406 1581 1522 
L 1381 1569 
Q 847 1681 609 1914 
Q 372 2147 372 2553 
Q 372 3047 722 3315 
Q 1072 3584 1716 3584 
Q 2034 3584 2315 3537 
Q 2597 3491 2834 3397 
z
" transform="scale(0.015625)"/>
     </defs>
     <use xlink:href="#DejaVuSans-28"/>
     <use xlink:href="#DejaVuSans-33" transform="translate(39.013672 0)"/>
     <use xlink:href="#DejaVuSans-20" transform="translate(102.636719 0)"/>
     <use xlink:href="#DejaVuSans-70" transform="translate(134.423828 0)"/>
     <use xlink:href="#DejaVuSans-74" transform="translate(197.900391 0)"/>
     <use xlink:href="#DejaVuSans-73" transform="translate(237.109375 0)"/>
     <use xlink:href="#DejaVuSans-29" transform="translate(289.208984 0)"/>
    </g>
   </g>
   <g id="PathCollection_2">
    <path d="M 176.904828 152.60844 
C 177.873212 152.60844 178.802065 152.223696 179.486816 151.538945 
C 180.171568 150.854193 180.556311 149.925341 180.556311 148.956956 
C 180.556311 147.988571 180.171568 147.059719 179.486816 146.374967 
C 178.802065 145.690216 177.873212 145.305472 176.904828 145.305472 
C 175.936443 145.305472 175.00759 145.690216 174.322839 146.374967 
C 173.638087 147.059719 173.253344 147.988571 173.253344 148.956956 
C 173.253344 149.925341 173.638087 150.854193 174.322839 151.538945 
C 175.00759 152.223696 175.936443 152.60844 176.904828 152.60844 
z
" clip-path="url(#p0051304bc4)" style="fill: #1a5fa8; stroke: #1a5fa8"/>
    <path d="M 233.387586 152.60844 
C 234.355971 152.60844 235.284824 152.223696 235.969575 151.538945 
C 236.654327 150.854193 237.03907 149.925341 237.03907 148.956956 
C 237.03907 147.988571 236.654327 147.059719 235.969575 146.374967 
C 235.284824 145.690216 234.355971 145.305472 233.387586 145.305472 
C 232.419201 145.305472 231.490349 145.690216 230.805597 146.374967 
C 230.120846 147.059719 229.736102 147.988571 229.736102 148.956956 
C 229.736102 149.925341 230.120846 150.854193 230.805597 151.538945 
C 231.490349 152.223696 232.419201 152.60844 233.387586 152.60844 
z
" clip-path="url(#p0051304bc4)" style="fill: #1a5fa8; stroke: #1a5fa8"/>
    <path d="M 176.904828 96.125681 
C 177.873212 96.125681 178.802065 95.740938 179.486816 95.056186 
C 180.171568 94.371435 180.556311 93.442582 180.556311 92.474197 
C 180.556311 91.505813 180.171568 90.57696 179.486816 89.892208 
C 178.802065 89.207457 177.873212 88.822714 176.904828 88.822714 
C 175.936443 88.822714 175.00759 89.207457 174.322839 89.892208 
C 173.638087 90.57696 173.253344 91.505813 173.253344 92.474197 
C 173.253344 93.442582 173.638087 94.371435 174.322839 95.056186 
C 175.00759 95.740938 175.936443 96.125681 176.904828 96.125681 
z
" clip-path="url(#p0051304bc4)" style="fill: #1a5fa8; stroke: #1a5fa8"/>
   </g>
  </g>
  <g id="axes_3">
   <g id="patch_4">
    <path d="M 299.917241 167.784542 
L 412.882759 167.784542 
L 299.917241 54.819025 
z
" clip-path="url(#p9cb64ded6e)" style="fill: #f0f4fa; stroke: #555555; stroke-width: 1.5; stroke-linejoin: miter"/>
   </g>
   <g id="line2d_3">
    <g clip-path="url(#p9cb64ded6e)">
     <use xlink:href="#m941edc5708" x="299.917241" y="167.784542" style="fill: #555555; stroke: #555555"/>
     <use xlink:href="#m941edc5708" x="412.882759" y="167.784542" style="fill: #555555; stroke: #555555"/>
     <use xlink:href="#m941edc5708" x="299.917241" y="54.819025" style="fill: #555555; stroke: #555555"/>
    </g>
   </g>
   <g id="text_3">
    <!-- order 3 -->
    <g transform="translate(340.106484 29.703752) scale(0.09 -0.09)">
     <use xlink:href="#DejaVuSans-6f"/>
     <use xlink:href="#DejaVuSans-72" transform="translate(61.181641 0)"/>
     <use xlink:href="#DejaVuSans-64" transform="translate(100.544922 0)"/>
     <use xlink:href="#DejaVuSans-65" transform="translate(164.021484 0)"/>
     <use xlink:href="#DejaVuSans-72" transform="translate(225.544922 0)"/>
     <use xlink:href="#DejaVuSans-20" transform="translate(266.658203 0)"/>
     <use xlink:href="#DejaVuSans-33" transform="translate(298.445312 0)"/>
    </g>
    <!-- (4 pts) -->
    <g transform="translate(341.630156 39.781784) scale(0.09 -0.09)">
     <defs>
      <path id="DejaVuSans-34" d="M 2419 4116 
L 825 1625 
L 2419 1625 
L 2419 4116 
z
M 2253 4666 
L 3047 4666 
L 3047 1625 
L 3713 1625 
L 3713 1100 
L 3047 1100 
L 3047 0 
L 2419 0 
L 2419 1100 
L 313 1100 
L 313 1709 
L 2253 4666 
z
" transform="scale(0.015625)"/>
     </defs>
     <use xlink:href="#DejaVuSans-28"/>
     <use xlink:href="#DejaVuSans-34" transform="translate(39.013672 0)"/>
     <use xlink:href="#DejaVuSans-20" transform="translate(102.636719 0)"/>
     <use xlink:href="#DejaVuSans-70" transform="translate(134.423828 0)"/>
     <use xlink:href="#DejaVuSans-74" transform="translate(197.900391 0)"/>
     <use xlink:href="#DejaVuSans-73" transform="translate(237.109375 0)"/>
     <use xlink:href="#DejaVuSans-29" transform="translate(289.208984 0)"/>
    </g>
   </g>
   <g id="PathCollection_3">
    <path d="M 337.572414 134.872786 
C 338.830383 134.872786 340.036998 134.37299 340.926516 133.483472 
C 341.816034 132.593954 342.31583 131.387339 342.31583 130.12937 
C 342.31583 128.871401 341.816034 127.664786 340.926516 126.775268 
C 340.036998 125.88575 338.830383 125.385953 337.572414 125.385953 
C 336.314445 125.385953 335.10783 125.88575 334.218312 126.775268 
C 333.328794 127.664786 332.828997 128.871401 332.828997 130.12937 
C 332.828997 131.387339 333.328794 132.593954 334.218312 133.483472 
C 335.10783 134.37299 336.314445 134.872786 337.572414 134.872786 
z
" clip-path="url(#p9cb64ded6e)" style="fill: #c0392b; stroke: #c0392b"/>
    <path d="M 322.510345 149.755793 
C 323.720826 149.755793 324.881892 149.274864 325.737831 148.418925 
C 326.59377 147.562986 327.074699 146.40192 327.074699 145.191439 
C 327.074699 143.980958 326.59377 142.819892 325.737831 141.963953 
C 324.881892 141.108013 323.720826 140.627084 322.510345 140.627084 
C 321.299864 140.627084 320.138798 141.108013 319.282859 141.963953 
C 318.426919 142.819892 317.94599 143.980958 317.94599 145.191439 
C 317.94599 146.40192 318.426919 147.562986 319.282859 148.418925 
C 320.138798 149.274864 321.299864 149.755793 322.510345 149.755793 
z
" clip-path="url(#p9cb64ded6e)" style="fill: #1a5fa8; stroke: #1a5fa8"/>
    <path d="M 367.696552 149.755793 
C 368.907033 149.755793 370.068099 149.274864 370.924038 148.418925 
C 371.779977 147.562986 372.260906 146.40192 372.260906 145.191439 
C 372.260906 143.980958 371.779977 142.819892 370.924038 141.963953 
C 370.068099 141.108013 368.907033 140.627084 367.696552 140.627084 
C 366.486071 140.627084 365.325005 141.108013 364.469066 141.963953 
C 363.613126 142.819892 363.132197 143.980958 363.132197 145.191439 
C 363.132197 146.40192 363.613126 147.562986 364.469066 148.418925 
C 365.325005 149.274864 366.486071 149.755793 367.696552 149.755793 
z
" clip-path="url(#p9cb64ded6e)" style="fill: #1a5fa8; stroke: #1a5fa8"/>
    <path d="M 322.510345 104.569587 
C 323.720826 104.569587 324.881892 104.088657 325.737831 103.232718 
C 326.59377 102.376779 327.074699 101.215713 327.074699 100.005232 
C 327.074699 98.794751 326.59377 97.633685 325.737831 96.777746 
C 324.881892 95.921806 323.720826 95.440877 322.510345 95.440877 
C 321.299864 95.440877 320.138798 95.921806 319.282859 96.777746 
C 318.426919 97.633685 317.94599 98.794751 317.94599 100.005232 
C 317.94599 101.215713 318.426919 102.376779 319.282859 103.232718 
C 320.138798 104.088657 321.299864 104.569587 322.510345 104.569587 
z
" clip-path="url(#p9cb64ded6e)" style="fill: #1a5fa8; stroke: #1a5fa8"/>
   </g>
  </g>
  <g id="axes_4">
   <g id="patch_5">
    <path d="M 441.757241 167.784542 
L 554.722759 167.784542 
L 441.757241 54.819025 
z
" clip-path="url(#p64ae5bf583)" style="fill: #f0f4fa; stroke: #555555; stroke-width: 1.5; stroke-linejoin: miter"/>
   </g>
   <g id="line2d_4">
    <g clip-path="url(#p64ae5bf583)">
     <use xlink:href="#m941edc5708" x="441.757241" y="167.784542" style="fill: #555555; stroke: #555555"/>
     <use xlink:href="#m941edc5708" x="554.722759" y="167.784542" style="fill: #555555; stroke: #555555"/>
     <use xlink:href="#m941edc5708" x="441.757241" y="54.819025" style="fill: #555555; stroke: #555555"/>
    </g>
   </g>
   <g id="text_4">
    <!-- order 4 -->
    <g transform="translate(481.946484 29.703752) scale(0.09 -0.09)">
     <use xlink:href="#DejaVuSans-6f"/>
     <use xlink:href="#DejaVuSans-72" transform="translate(61.181641 0)"/>
     <use xlink:href="#DejaVuSans-64" transform="translate(100.544922 0)"/>
     <use xlink:href="#DejaVuSans-65" transform="translate(164.021484 0)"/>
     <use xlink:href="#DejaVuSans-72" transform="translate(225.544922 0)"/>
     <use xlink:href="#DejaVuSans-20" transform="translate(266.658203 0)"/>
     <use xlink:href="#DejaVuSans-34" transform="translate(298.445312 0)"/>
    </g>
    <!-- (6 pts) -->
    <g transform="translate(483.470156 39.781784) scale(0.09 -0.09)">
     <defs>
      <path id="DejaVuSans-36" d="M 2113 2584 
Q 1688 2584 1439 2293 
Q 1191 2003 1191 1497 
Q 1191 994 1439 701 
Q 1688 409 2113 409 
Q 2538 409 2786 701 
Q 3034 994 3034 1497 
Q 3034 2003 2786 2293 
Q 2538 2584 2113 2584 
z
M 3366 4563 
L 3366 3988 
Q 3128 4100 2886 4159 
Q 2644 4219 2406 4219 
Q 1781 4219 1451 3797 
Q 1122 3375 1075 2522 
Q 1259 2794 1537 2939 
Q 1816 3084 2150 3084 
Q 2853 3084 3261 2657 
Q 3669 2231 3669 1497 
Q 3669 778 3244 343 
Q 2819 -91 2113 -91 
Q 1303 -91 875 529 
Q 447 1150 447 2328 
Q 447 3434 972 4092 
Q 1497 4750 2381 4750 
Q 2619 4750 2861 4703 
Q 3103 4656 3366 4563 
z
" transform="scale(0.015625)"/>
     </defs>
     <use xlink:href="#DejaVuSans-28"/>
     <use xlink:href="#DejaVuSans-36" transform="translate(39.013672 0)"/>
     <use xlink:href="#DejaVuSans-20" transform="translate(102.636719 0)"/>
     <use xlink:href="#DejaVuSans-70" transform="translate(134.423828 0)"/>
     <use xlink:href="#DejaVuSans-74" transform="translate(197.900391 0)"/>
     <use xlink:href="#DejaVuSans-73" transform="translate(237.109375 0)"/>
     <use xlink:href="#DejaVuSans-29" transform="translate(289.208984 0)"/>
    </g>
   </g>
   <g id="PathCollection_4">
    <path d="M 492.134043 120.396931 
C 492.926786 120.396931 493.687167 120.081971 494.247721 119.521418 
C 494.808274 118.960864 495.123234 118.200483 495.123234 117.40774 
C 495.123234 116.614998 494.808274 115.854617 494.247721 115.294063 
C 493.687167 114.733509 492.926786 114.418549 492.134043 114.418549 
C 491.341301 114.418549 490.58092 114.733509 490.020366 115.294063 
C 489.459812 115.854617 489.144852 116.614998 489.144852 117.40774 
C 489.144852 118.200483 489.459812 118.960864 490.020366 119.521418 
C 490.58092 120.081971 491.341301 120.396931 492.134043 120.396931 
z
" clip-path="url(#p64ae5bf583)" style="fill: #1a5fa8; stroke: #1a5fa8"/>
    <path d="M 453.969155 120.396931 
C 454.761897 120.396931 455.522278 120.081971 456.082832 119.521418 
C 456.643386 118.960864 456.958346 118.200483 456.958346 117.40774 
C 456.958346 116.614998 456.643386 115.854617 456.082832 115.294063 
C 455.522278 114.733509 454.761897 114.418549 453.969155 114.418549 
C 453.176412 114.418549 452.416031 114.733509 451.855477 115.294063 
C 451.294924 115.854617 450.979964 116.614998 450.979964 117.40774 
C 450.979964 118.200483 451.294924 118.960864 451.855477 119.521418 
C 452.416031 120.081971 453.176412 120.396931 453.969155 120.396931 
z
" clip-path="url(#p64ae5bf583)" style="fill: #1a5fa8; stroke: #1a5fa8"/>
    <path d="M 492.134043 158.56182 
C 492.926786 158.56182 493.687167 158.24686 494.247721 157.686306 
C 494.808274 157.125752 495.123234 156.365372 495.123234 155.572629 
C 495.123234 154.779886 494.808274 154.019505 494.247721 153.458952 
C 493.687167 152.898398 492.926786 152.583438 492.134043 152.583438 
C 491.341301 152.583438 490.58092 152.898398 490.020366 153.458952 
C 489.459812 154.019505 489.144852 154.779886 489.144852 155.572629 
C 489.144852 156.365372 489.459812 157.125752 490.020366 157.686306 
C 490.58092 158.24686 491.341301 158.56182 492.134043 158.56182 
z
" clip-path="url(#p64ae5bf583)" style="fill: #1a5fa8; stroke: #1a5fa8"/>
    <path d="M 452.102196 159.536745 
C 452.658368 159.536745 453.191837 159.315776 453.58511 158.922502 
C 453.978383 158.529229 454.199353 157.995761 454.199353 157.439588 
C 454.199353 156.883415 453.978383 156.349947 453.58511 155.956674 
C 453.191837 155.5634 452.658368 155.34243 452.102196 155.34243 
C 451.546023 155.34243 451.012555 155.5634 450.619281 155.956674 
C 450.226008 156.349947 450.005038 156.883415 450.005038 157.439588 
C 450.005038 157.995761 450.226008 158.529229 450.619281 158.922502 
C 451.012555 159.315776 451.546023 159.536745 452.102196 159.536745 
z
" clip-path="url(#p64ae5bf583)" style="fill: #1a5fa8; stroke: #1a5fa8"/>
    <path d="M 534.03285 159.536745 
C 534.589023 159.536745 535.122491 159.315776 535.515764 158.922502 
C 535.909038 158.529229 536.130008 157.995761 536.130008 157.439588 
C 536.130008 156.883415 535.909038 156.349947 535.515764 155.956674 
C 535.122491 155.5634 534.589023 155.34243 534.03285 155.34243 
C 533.476677 155.34243 532.943209 155.5634 532.549936 155.956674 
C 532.156662 156.349947 531.935692 156.883415 531.935692 157.439588 
C 531.935692 157.995761 532.156662 158.529229 532.549936 158.922502 
C 532.943209 159.315776 533.476677 159.536745 534.03285 159.536745 
z
" clip-path="url(#p64ae5bf583)" style="fill: #1a5fa8; stroke: #1a5fa8"/>
    <path d="M 452.102196 77.606091 
C 452.658368 77.606091 453.191837 77.385121 453.58511 76.991848 
C 453.978383 76.598574 454.199353 76.065106 454.199353 75.508934 
C 454.199353 74.952761 453.978383 74.419293 453.58511 74.026019 
C 453.191837 73.632746 452.658368 73.411776 452.102196 73.411776 
C 451.546023 73.411776 451.012555 73.632746 450.619281 74.026019 
C 450.226008 74.419293 450.005038 74.952761 450.005038 75.508934 
C 450.005038 76.065106 450.226008 76.598574 450.619281 76.991848 
C 451.012555 77.385121 451.546023 77.606091 452.102196 77.606091 
z
" clip-path="url(#p64ae5bf583)" style="fill: #1a5fa8; stroke: #1a5fa8"/>
   </g>
  </g>
  <g id="axes_5">
   <g id="patch_6">
    <path d="M 583.597241 167.784542 
L 696.562759 167.784542 
L 583.597241 54.819025 
z
" clip-path="url(#pfd1bd24e33)" style="fill: #f0f4fa; stroke: #555555; stroke-width: 1.5; stroke-linejoin: miter"/>
   </g>
   <g id="line2d_5">
    <g clip-path="url(#pfd1bd24e33)">
     <use xlink:href="#m941edc5708" x="583.597241" y="167.784542" style="fill: #555555; stroke: #555555"/>
     <use xlink:href="#m941edc5708" x="696.562759" y="167.784542" style="fill: #555555; stroke: #555555"/>
     <use xlink:href="#m941edc5708" x="583.597241" y="54.819025" style="fill: #555555; stroke: #555555"/>
    </g>
   </g>
   <g id="text_5">
    <!-- order 5 -->
    <g transform="translate(623.786484 29.703752) scale(0.09 -0.09)">
     <defs>
      <path id="DejaVuSans-35" d="M 691 4666 
L 3169 4666 
L 3169 4134 
L 1269 4134 
L 1269 2991 
Q 1406 3038 1543 3061 
Q 1681 3084 1819 3084 
Q 2600 3084 3056 2656 
Q 3513 2228 3513 1497 
Q 3513 744 3044 326 
Q 2575 -91 1722 -91 
Q 1428 -91 1123 -41 
Q 819 9 494 109 
L 494 744 
Q 775 591 1075 516 
Q 1375 441 1709 441 
Q 2250 441 2565 725 
Q 2881 1009 2881 1497 
Q 2881 1984 2565 2268 
Q 2250 2553 1709 2553 
Q 1456 2553 1204 2497 
Q 953 2441 691 2322 
L 691 4666 
z
" transform="scale(0.015625)"/>
     </defs>
     <use xlink:href="#DejaVuSans-6f"/>
     <use xlink:href="#DejaVuSans-72" transform="translate(61.181641 0)"/>
     <use xlink:href="#DejaVuSans-64" transform="translate(100.544922 0)"/>
     <use xlink:href="#DejaVuSans-65" transform="translate(164.021484 0)"/>
     <use xlink:href="#DejaVuSans-72" transform="translate(225.544922 0)"/>
     <use xlink:href="#DejaVuSans-20" transform="translate(266.658203 0)"/>
     <use xlink:href="#DejaVuSans-35" transform="translate(298.445312 0)"/>
    </g>
    <!-- (7 pts) -->
    <g transform="translate(625.310156 39.781784) scale(0.09 -0.09)">
     <defs>
      <path id="DejaVuSans-37" d="M 525 4666 
L 3525 4666 
L 3525 4397 
L 1831 0 
L 1172 0 
L 2766 4134 
L 525 4134 
L 525 4666 
z
" transform="scale(0.015625)"/>
     </defs>
     <use xlink:href="#DejaVuSans-28"/>
     <use xlink:href="#DejaVuSans-37" transform="translate(39.013672 0)"/>
     <use xlink:href="#DejaVuSans-20" transform="translate(102.636719 0)"/>
     <use xlink:href="#DejaVuSans-70" transform="translate(134.423828 0)"/>
     <use xlink:href="#DejaVuSans-74" transform="translate(197.900391 0)"/>
     <use xlink:href="#DejaVuSans-73" transform="translate(237.109375 0)"/>
     <use xlink:href="#DejaVuSans-29" transform="translate(289.208984 0)"/>
    </g>
   </g>
   <g id="PathCollection_5">
    <path d="M 621.252414 133.12937 
C 622.048023 133.12937 622.811153 132.813271 623.373734 132.25069 
C 623.936315 131.688109 624.252414 130.924979 624.252414 130.12937 
C 624.252414 129.33376 623.936315 128.57063 623.373734 128.008049 
C 622.811153 127.445469 622.048023 127.12937 621.252414 127.12937 
C 620.456804 127.12937 619.693674 127.445469 619.131093 128.008049 
C 618.568513 128.57063 618.252414 129.33376 618.252414 130.12937 
C 618.252414 130.924979 618.568513 131.688109 619.131093 132.25069 
C 619.693674 132.813271 620.456804 133.12937 621.252414 133.12937 
z
" clip-path="url(#pfd1bd24e33)" style="fill: #1a5fa8; stroke: #1a5fa8"/>
    <path d="M 636.707083 116.975954 
C 637.317382 116.975954 637.902768 116.733479 638.334315 116.301932 
C 638.765861 115.870386 639.008336 115.285 639.008336 114.674701 
C 639.008336 114.064401 638.765861 113.479016 638.334315 113.047469 
C 637.902768 112.615922 637.317382 112.373448 636.707083 112.373448 
C 636.096783 112.373448 635.511398 112.615922 635.079851 113.047469 
C 634.648304 113.479016 634.40583 114.064401 634.40583 114.674701 
C 634.40583 115.285 634.648304 115.870386 635.079851 116.301932 
C 635.511398 116.733479 636.096783 116.975954 636.707083 116.975954 
z
" clip-path="url(#pfd1bd24e33)" style="fill: #1a5fa8; stroke: #1a5fa8"/>
    <path d="M 590.343076 116.975954 
C 590.953375 116.975954 591.538761 116.733479 591.970307 116.301932 
C 592.401854 115.870386 592.644329 115.285 592.644329 114.674701 
C 592.644329 114.064401 592.401854 113.479016 591.970307 113.047469 
C 591.538761 112.615922 590.953375 112.373448 590.343076 112.373448 
C 589.732776 112.373448 589.147391 112.615922 588.715844 113.047469 
C 588.284297 113.479016 588.041823 114.064401 588.041823 114.674701 
C 588.041823 115.285 588.284297 115.870386 588.715844 116.301932 
C 589.147391 116.733479 589.732776 116.975954 590.343076 116.975954 
z
" clip-path="url(#pfd1bd24e33)" style="fill: #1a5fa8; stroke: #1a5fa8"/>
    <path d="M 636.707083 163.339961 
C 637.317382 163.339961 637.902768 163.097486 638.334315 162.66594 
C 638.765861 162.234393 639.008336 161.649007 639.008336 161.038708 
C 639.008336 160.428408 638.765861 159.843023 638.334315 159.411476 
C 637.902768 158.979929 637.317382 158.737455 636.707083 158.737455 
C 636.096783 158.737455 635.511398 158.979929 635.079851 159.411476 
C 634.648304 159.843023 634.40583 160.428408 634.40583 161.038708 
C 634.40583 161.649007 634.648304 162.234393 635.079851 162.66594 
C 635.511398 163.097486 636.096783 163.339961 636.707083 163.339961 
z
" clip-path="url(#pfd1bd24e33)" style="fill: #1a5fa8; stroke: #1a5fa8"/>
    <path d="M 595.039124 158.587112 
C 595.63436 158.587112 596.205296 158.350622 596.626192 157.929727 
C 597.047087 157.508832 597.283577 156.937895 597.283577 156.34266 
C 597.283577 155.747424 597.047087 155.176487 596.626192 154.755592 
C 596.205296 154.334697 595.63436 154.098207 595.039124 154.098207 
C 594.443888 154.098207 593.872952 154.334697 593.452056 154.755592 
C 593.031161 155.176487 592.794672 155.747424 592.794672 156.34266 
C 592.794672 156.937895 593.031161 157.508832 593.452056 157.929727 
C 593.872952 158.350622 594.443888 158.587112 595.039124 158.587112 
z
" clip-path="url(#pfd1bd24e33)" style="fill: #1a5fa8; stroke: #1a5fa8"/>
    <path d="M 673.678993 158.587112 
C 674.274229 158.587112 674.845166 158.350622 675.266061 157.929727 
C 675.686956 157.508832 675.923446 156.937895 675.923446 156.34266 
C 675.923446 155.747424 675.686956 155.176487 675.266061 154.755592 
C 674.845166 154.334697 674.274229 154.098207 673.678993 154.098207 
C 673.083757 154.098207 672.512821 154.334697 672.091926 154.755592 
C 671.67103 155.176487 671.434541 155.747424 671.434541 156.34266 
C 671.434541 156.937895 671.67103 157.508832 672.091926 157.929727 
C 672.512821 158.350622 673.083757 158.587112 673.678993 158.587112 
z
" clip-path="url(#pfd1bd24e33)" style="fill: #1a5fa8; stroke: #1a5fa8"/>
    <path d="M 595.039124 79.947243 
C 595.63436 79.947243 596.205296 79.710753 596.626192 79.289858 
C 597.047087 78.868963 597.283577 78.298026 597.283577 77.70279 
C 597.283577 77.107555 597.047087 76.536618 596.626192 76.115723 
C 596.205296 75.694827 595.63436 75.458338 595.039124 75.458338 
C 594.443888 75.458338 593.872952 75.694827 593.452056 76.115723 
C 593.031161 76.536618 592.794672 77.107555 592.794672 77.70279 
C 592.794672 78.298026 593.031161 78.868963 593.452056 79.289858 
C 593.872952 79.710753 594.443888 79.947243 595.039124 79.947243 
z
" clip-path="url(#pfd1bd24e33)" style="fill: #1a5fa8; stroke: #1a5fa8"/>
   </g>
  </g>
  <g id="text_6">
   <!-- Quadrature points on the reference triangle -->
   <g transform="translate(235.956875 15.558281) scale(0.11 -0.11)">
    <defs>
     <path id="DejaVuSans-51" d="M 2522 4238 
Q 1834 4238 1429 3725 
Q 1025 3213 1025 2328 
Q 1025 1447 1429 934 
Q 1834 422 2522 422 
Q 3209 422 3611 934 
Q 4013 1447 4013 2328 
Q 4013 3213 3611 3725 
Q 3209 4238 2522 4238 
z
M 3406 84 
L 4238 -825 
L 3475 -825 
L 2784 -78 
Q 2681 -84 2626 -87 
Q 2572 -91 2522 -91 
Q 1538 -91 948 567 
Q 359 1225 359 2328 
Q 359 3434 948 4092 
Q 1538 4750 2522 4750 
Q 3503 4750 4090 4092 
Q 4678 3434 4678 2328 
Q 4678 1516 4351 937 
Q 4025 359 3406 84 
z
" transform="scale(0.015625)"/>
     <path id="DejaVuSans-75" d="M 544 1381 
L 544 3500 
L 1119 3500 
L 1119 1403 
Q 1119 906 1312 657 
Q 1506 409 1894 409 
Q 2359 409 2629 706 
Q 2900 1003 2900 1516 
L 2900 3500 
L 3475 3500 
L 3475 0 
L 2900 0 
L 2900 538 
Q 2691 219 2414 64 
Q 2138 -91 1772 -91 
Q 1169 -91 856 284 
Q 544 659 544 1381 
z
M 1991 3584 
L 1991 3584 
z
" transform="scale(0.015625)"/>
     <path id="DejaVuSans-61" d="M 2194 1759 
Q 1497 1759 1228 1600 
Q 959 1441 959 1056 
Q 959 750 1161 570 
Q 1363 391 1709 391 
Q 2188 391 2477 730 
Q 2766 1069 2766 1631 
L 2766 1759 
L 2194 1759 
z
M 3341 1997 
L 3341 0 
L 2766 0 
L 2766 531 
Q 2569 213 2275 61 
Q 1981 -91 1556 -91 
Q 1019 -91 701 211 
Q 384 513 384 1019 
Q 384 1609 779 1909 
Q 1175 2209 1959 2209 
L 2766 2209 
L 2766 2266 
Q 2766 2663 2505 2880 
Q 2244 3097 1772 3097 
Q 1472 3097 1187 3025 
Q 903 2953 641 2809 
L 641 3341 
Q 956 3463 1253 3523 
Q 1550 3584 1831 3584 
Q 2591 3584 2966 3190 
Q 3341 2797 3341 1997 
z
" transform="scale(0.015625)"/>
     <path id="DejaVuSans-69" d="M 603 3500 
L 1178 3500 
L 1178 0 
L 603 0 
L 603 3500 
z
M 603 4863 
L 1178 4863 
L 1178 4134 
L 603 4134 
L 603 4863 
z
" transform="scale(0.015625)"/>
     <path id="DejaVuSans-6e" d="M 3513 2113 
L 3513 0 
L 2938 0 
L 2938 2094 
Q 2938 2591 2744 2837 
Q 2550 3084 2163 3084 
Q 1697 3084 1428 2787 
Q 1159 2491 1159 1978 
L 1159 0 
L 581 0 
L 581 3500 
L 1159 3500 
L 1159 2956 
Q 1366 3272 1645 3428 
Q 1925 3584 2291 3584 
Q 2894 3584 3203 3211 
Q 3513 2838 3513 2113 
z
" transform="scale(0.015625)"/>
     <path id="DejaVuSans-68" d="M 3513 2113 
L 3513 0 
L 2938 0 
L 2938 2094 
Q 2938 2591 2744 2837 
Q 2550 3084 2163 3084 
Q 1697 3084 1428 2787 
Q 1159 2491 1159 1978 
L 1159 0 
L 581 0 
L 581 4863 
L 1159 4863 
L 1159 2956 
Q 1366 3272 1645 3428 
Q 1925 3584 2291 3584 
Q 2894 3584 3203 3211 
Q 3513 2838 3513 2113 
z
" transform="scale(0.015625)"/>
     <path id="DejaVuSans-66" d="M 2375 4863 
L 2375 4384 
L 1825 4384 
Q 1516 4384 1395 4259 
Q 1275 4134 1275 3809 
L 1275 3500 
L 2222 3500 
L 2222 3053 
L 1275 3053 
L 1275 0 
L 697 0 
L 697 3053 
L 147 3053 
L 147 3500 
L 697 3500 
L 697 3744 
Q 697 4328 969 4595 
Q 1241 4863 1831 4863 
L 2375 4863 
z
" transform="scale(0.015625)"/>
     <path id="DejaVuSans-63" d="M 3122 3366 
L 3122 2828 
Q 2878 2963 2633 3030 
Q 2388 3097 2138 3097 
Q 1578 3097 1268 2742 
Q 959 2388 959 1747 
Q 959 1106 1268 751 
Q 1578 397 2138 397 
Q 2388 397 2633 464 
Q 2878 531 3122 666 
L 3122 134 
Q 2881 22 2623 -34 
Q 2366 -91 2075 -91 
Q 1284 -91 818 406 
Q 353 903 353 1747 
Q 353 2603 823 3093 
Q 1294 3584 2113 3584 
Q 2378 3584 2631 3529 
Q 2884 3475 3122 3366 
z
" transform="scale(0.015625)"/>
     <path id="DejaVuSans-67" d="M 2906 1791 
Q 2906 2416 2648 2759 
Q 2391 3103 1925 3103 
Q 1463 3103 1205 2759 
Q 947 2416 947 1791 
Q 947 1169 1205 825 
Q 1463 481 1925 481 
Q 2391 481 2648 825 
Q 2906 1169 2906 1791 
z
M 3481 434 
Q 3481 -459 3084 -895 
Q 2688 -1331 1869 -1331 
Q 1566 -1331 1297 -1286 
Q 1028 -1241 775 -1147 
L 775 -588 
Q 1028 -725 1275 -790 
Q 1522 -856 1778 -856 
Q 2344 -856 2625 -561 
Q 2906 -266 2906 331 
L 2906 616 
Q 2728 306 2450 153 
Q 2172 0 1784 0 
Q 1141 0 747 490 
Q 353 981 353 1791 
Q 353 2603 747 3093 
Q 1141 3584 1784 3584 
Q 2172 3584 2450 3431 
Q 2728 3278 2906 2969 
L 2906 3500 
L 3481 3500 
L 3481 434 
z
" transform="scale(0.015625)"/>
     <path id="DejaVuSans-6c" d="M 603 4863 
L 1178 4863 
L 1178 0 
L 603 0 
L 603 4863 
z
" transform="scale(0.015625)"/>
    </defs>
    <use xlink:href="#DejaVuSans-51"/>
    <use xlink:href="#DejaVuSans-75" transform="translate(78.710938 0)"/>
    <use xlink:href="#DejaVuSans-61" transform="translate(142.089844 0)"/>
    <use xlink:href="#DejaVuSans-64" transform="translate(203.369141 0)"/>
    <use xlink:href="#DejaVuSans-72" transform="translate(266.845703 0)"/>
    <use xlink:href="#DejaVuSans-61" transform="translate(307.958984 0)"/>
    <use xlink:href="#DejaVuSans-74" transform="translate(369.238281 0)"/>
    <use xlink:href="#DejaVuSans-75" transform="translate(408.447266 0)"/>
    <use xlink:href="#DejaVuSans-72" transform="translate(471.826172 0)"/>
    <use xlink:href="#DejaVuSans-65" transform="translate(510.689453 0)"/>
    <use xlink:href="#DejaVuSans-20" transform="translate(572.212891 0)"/>
    <use xlink:href="#DejaVuSans-70" transform="translate(604 0)"/>
    <use xlink:href="#DejaVuSans-6f" transform="translate(667.476562 0)"/>
    <use xlink:href="#DejaVuSans-69" transform="translate(728.658203 0)"/>
    <use xlink:href="#DejaVuSans-6e" transform="translate(756.441406 0)"/>
    <use xlink:href="#DejaVuSans-74" transform="translate(819.820312 0)"/>
    <use xlink:href="#DejaVuSans-73" transform="translate(859.029297 0)"/>
    <use xlink:href="#DejaVuSans-20" transform="translate(911.128906 0)"/>
    <use xlink:href="#DejaVuSans-6f" transform="translate(942.916016 0)"/>
    <use xlink:href="#DejaVuSans-6e" transform="translate(1004.097656 0)"/>
    <use xlink:href="#DejaVuSans-20" transform="translate(1067.476562 0)"/>
    <use xlink:href="#DejaVuSans-74" transform="translate(1099.263672 0)"/>
    <use xlink:href="#DejaVuSans-68" transform="translate(1138.472656 0)"/>
    <use xlink:href="#DejaVuSans-65" transform="translate(1201.851562 0)"/>
    <use xlink:href="#DejaVuSans-20" transform="translate(1263.375 0)"/>
    <use xlink:href="#DejaVuSans-72" transform="translate(1295.162109 0)"/>
    <use xlink:href="#DejaVuSans-65" transform="translate(1334.025391 0)"/>
    <use xlink:href="#DejaVuSans-66" transform="translate(1395.548828 0)"/>
    <use xlink:href="#DejaVuSans-65" transform="translate(1430.753906 0)"/>
    <use xlink:href="#DejaVuSans-72" transform="translate(1492.277344 0)"/>
    <use xlink:href="#DejaVuSans-65" transform="translate(1531.140625 0)"/>
    <use xlink:href="#DejaVuSans-6e" transform="translate(1592.664062 0)"/>
    <use xlink:href="#DejaVuSans-63" transform="translate(1656.042969 0)"/>
    <use xlink:href="#DejaVuSans-65" transform="translate(1711.023438 0)"/>
    <use xlink:href="#DejaVuSans-20" transform="translate(1772.546875 0)"/>
    <use xlink:href="#DejaVuSans-74" transform="translate(1804.333984 0)"/>
    <use xlink:href="#DejaVuSans-72" transform="translate(1843.542969 0)"/>
    <use xlink:href="#DejaVuSans-69" transform="translate(1884.65625 0)"/>
    <use xlink:href="#DejaVuSans-61" transform="translate(1912.439453 0)"/>
    <use xlink:href="#DejaVuSans-6e" transform="translate(1973.71875 0)"/>
    <use xlink:href="#DejaVuSans-67" transform="translate(2037.097656 0)"/>
    <use xlink:href="#DejaVuSans-6c" transform="translate(2100.574219 0)"/>
    <use xlink:href="#DejaVuSans-65" transform="translate(2128.357422 0)"/>
   </g>
  </g>
  <g id="legend_1">
   <g id="patch_7">
    <path d="M 263.3 194.89625 
L 279.3 194.89625 
L 279.3 189.29625 
L 263.3 189.29625 
z
" style="fill: #1a5fa8; stroke: #1a5fa8; stroke-linejoin: miter"/>
   </g>
   <g id="text_7">
    <!-- positive weight -->
    <g transform="translate(285.7 194.89625) scale(0.08 -0.08)">
     <defs>
      <path id="DejaVuSans-76" d="M 191 3500 
L 800 3500 
L 1894 563 
L 2988 3500 
L 3597 3500 
L 2284 0 
L 1503 0 
L 191 3500 
z
" transform="scale(0.015625)"/>
      <path id="DejaVuSans-77" d="M 269 3500 
L 844 3500 
L 1563 769 
L 2278 3500 
L 2956 3500 
L 3675 769 
L 4391 3500 
L 4966 3500 
L 4050 0 
L 3372 0 
L 2619 2869 
L 1863 0 
L 1184 0 
L 269 3500 
z
" transform="scale(0.015625)"/>
     </defs>
     <use xlink:href="#DejaVuSans-70"/>
     <use xlink:href="#DejaVuSans-6f" transform="translate(63.476562 0)"/>
     <use xlink:href="#DejaVuSans-73" transform="translate(124.658203 0)"/>
     <use xlink:href="#DejaVuSans-69" transform="translate(176.757812 0)"/>
     <use xlink:href="#DejaVuSans-74" transform="translate(204.541016 0)"/>
     <use xlink:href="#DejaVuSans-69" transform="translate(243.75 0)"/>
     <use xlink:href="#DejaVuSans-76" transform="translate(271.533203 0)"/>
     <use xlink:href="#DejaVuSans-65" transform="translate(330.712891 0)"/>
     <use xlink:href="#DejaVuSans-20" transform="translate(392.236328 0)"/>
     <use xlink:href="#DejaVuSans-77" transform="translate(424.023438 0)"/>
     <use xlink:href="#DejaVuSans-65" transform="translate(505.810547 0)"/>
     <use xlink:href="#DejaVuSans-69" transform="translate(567.333984 0)"/>
     <use xlink:href="#DejaVuSans-67" transform="translate(595.117188 0)"/>
     <use xlink:href="#DejaVuSans-68" transform="translate(658.59375 0)"/>
     <use xlink:href="#DejaVuSans-74" transform="translate(721.972656 0)"/>
    </g>
   </g>
   <g id="patch_8">
    <path d="M 362.595 194.89625 
L 378.595 194.89625 
L 378.595 189.29625 
L 362.595 189.29625 
z
" style="fill: #c0392b; stroke: #c0392b; stroke-linejoin: miter"/>
   </g>
   <g id="text_8">
    <!-- negative weight -->
    <g transform="translate(384.995 194.89625) scale(0.08 -0.08)">
     <use xlink:href="#DejaVuSans-6e"/>
     <use xlink:href="#DejaVuSans-65" transform="translate(63.378906 0)"/>
     <use xlink:href="#DejaVuSans-67" transform="translate(124.902344 0)"/>
     <use xlink:href="#DejaVuSans-61" transform="translate(188.378906 0)"/>
     <use xlink:href="#DejaVuSans-74" transform="translate(249.658203 0)"/>
     <use xlink:href="#DejaVuSans-69" transform="translate(288.867188 0)"/>
     <use xlink:href="#DejaVuSans-76" transform="translate(316.650391 0)"/>
     <use xlink:href="#DejaVuSans-65" transform="translate(375.830078 0)"/>
     <use xlink:href="#DejaVuSans-20" transform="translate(437.353516 0)"/>
     <use xlink:href="#DejaVuSans-77" transform="translate(469.140625 0)"/>
     <use xlink:href="#DejaVuSans-65" transform="translate(550.927734 0)"/>
     <use xlink:href="#DejaVuSans-69" transform="translate(612.451172 0)"/>
     <use xlink:href="#DejaVuSans-67" transform="translate(640.234375 0)"/>
     <use xlink:href="#DejaVuSans-68" transform="translate(703.710938 0)"/>
     <use xlink:href="#DejaVuSans-74" transform="translate(767.089844 0)"/>
    </g>
   </g>
  </g>
 </g>
 <defs>
  <clipPath id="pbe14e188ef">
   <rect x="7.2" y="45.781784" width="131.04" height="135.558621"/>
  </clipPath>
  <clipPath id="p0051304bc4">
   <rect x="149.04" y="45.781784" width="131.04" height="135.558621"/>
  </clipPath>
  <clipPath id="p9cb64ded6e">
   <rect x="290.88" y="45.781784" width="131.04" height="135.558621"/>
  </clipPath>
  <clipPath id="p64ae5bf583">
   <rect x="432.72" y="45.781784" width="131.04" height="135.558621"/>
  </clipPath>
  <clipPath id="pfd1bd24e33">
   <rect x="574.56" y="45.781784" width="131.04" height="135.558621"/>
  </clipPath>
 </defs>
</svg>
