<svg xmlns="http://www.w3.org/2000/svg" viewBox="0 0 556 420" width="556" height="420" font-family="Helvetica, Arial, sans-serif">
  <title>Round-robin schedule for 6 players by the circle method</title>
  <rect width="556" height="420" fill="#fff"/>
  <text x="278" y="38" text-anchor="middle" font-size="20" font-weight="bold" fill="#222">6 players, 5 rounds, 3 matches each</text>
  <text x="278" y="64" text-anchor="middle" font-size="15" fill="#666">Player 1 stays put; the rest rotate one step each round</text>
  <g>
    <text x="106" y="118" text-anchor="middle" font-size="15" fill="#666">Round 1</text>
    <line x1="60" y1="152" x2="60" y2="214" stroke="#888" stroke-width="2"/>
    <line x1="106" y1="152" x2="106" y2="214" stroke="#888" stroke-width="2"/>
    <line x1="152" y1="152" x2="152" y2="214" stroke="#888" stroke-width="2"/>
    <circle cx="60" cy="152" r="17" fill="#333" stroke="#333" stroke-width="2"/>
    <text x="60" y="159" text-anchor="middle" font-size="19" fill="#fff">1</text>
    <circle cx="60" cy="214" r="17" fill="#eee" stroke="#333" stroke-width="2"/>
    <text x="60" y="221" text-anchor="middle" font-size="19" fill="#222">6</text>
    <circle cx="106" cy="152" r="17" fill="#eee" stroke="#333" stroke-width="2"/>
    <text x="106" y="159" text-anchor="middle" font-size="19" fill="#222">2</text>
    <circle cx="106" cy="214" r="17" fill="#eee" stroke="#333" stroke-width="2"/>
    <text x="106" y="221" text-anchor="middle" font-size="19" fill="#222">5</text>
    <circle cx="152" cy="152" r="17" fill="#eee" stroke="#333" stroke-width="2"/>
    <text x="152" y="159" text-anchor="middle" font-size="19" fill="#222">3</text>
    <circle cx="152" cy="214" r="17" fill="#eee" stroke="#333" stroke-width="2"/>
    <text x="152" y="221" text-anchor="middle" font-size="19" fill="#222">4</text>
  </g>
  <g>
    <text x="278" y="118" text-anchor="middle" font-size="15" fill="#666">Round 2</text>
    <line x1="232" y1="152" x2="232" y2="214" stroke="#888" stroke-width="2"/>
    <line x1="278" y1="152" x2="278" y2="214" stroke="#888" stroke-width="2"/>
    <line x1="324" y1="152" x2="324" y2="214" stroke="#888" stroke-width="2"/>
    <circle cx="232" cy="152" r="17" fill="#333" stroke="#333" stroke-width="2"/>
    <text x="232" y="159" text-anchor="middle" font-size="19" fill="#fff">1</text>
    <circle cx="232" cy="214" r="17" fill="#eee" stroke="#333" stroke-width="2"/>
    <text x="232" y="221" text-anchor="middle" font-size="19" fill="#222">5</text>
    <circle cx="278" cy="152" r="17" fill="#eee" stroke="#333" stroke-width="2"/>
    <text x="278" y="159" text-anchor="middle" font-size="19" fill="#222">6</text>
    <circle cx="278" cy="214" r="17" fill="#eee" stroke="#333" stroke-width="2"/>
    <text x="278" y="221" text-anchor="middle" font-size="19" fill="#222">4</text>
    <circle cx="324" cy="152" r="17" fill="#eee" stroke="#333" stroke-width="2"/>
    <text x="324" y="159" text-anchor="middle" font-size="19" fill="#222">2</text>
    <circle cx="324" cy="214" r="17" fill="#eee" stroke="#333" stroke-width="2"/>
    <text x="324" y="221" text-anchor="middle" font-size="19" fill="#222">3</text>
  </g>
  <g>
    <text x="450" y="118" text-anchor="middle" font-size="15" fill="#666">Round 3</text>
    <line x1="404" y1="152" x2="404" y2="214" stroke="#888" stroke-width="2"/>
    <line x1="450" y1="152" x2="450" y2="214" stroke="#888" stroke-width="2"/>
    <line x1="496" y1="152" x2="496" y2="214" stroke="#888" stroke-width="2"/>
    <circle cx="404" cy="152" r="17" fill="#333" stroke="#333" stroke-width="2"/>
    <text x="404" y="159" text-anchor="middle" font-size="19" fill="#fff">1</text>
    <circle cx="404" cy="214" r="17" fill="#eee" stroke="#333" stroke-width="2"/>
    <text x="404" y="221" text-anchor="middle" font-size="19" fill="#222">4</text>
    <circle cx="450" cy="152" r="17" fill="#eee" stroke="#333" stroke-width="2"/>
    <text x="450" y="159" text-anchor="middle" font-size="19" fill="#222">5</text>
    <circle cx="450" cy="214" r="17" fill="#eee" stroke="#333" stroke-width="2"/>
    <text x="450" y="221" text-anchor="middle" font-size="19" fill="#222">3</text>
    <circle cx="496" cy="152" r="17" fill="#eee" stroke="#333" stroke-width="2"/>
    <text x="496" y="159" text-anchor="middle" font-size="19" fill="#222">6</text>
    <circle cx="496" cy="214" r="17" fill="#eee" stroke="#333" stroke-width="2"/>
    <text x="496" y="221" text-anchor="middle" font-size="19" fill="#222">2</text>
  </g>
  <g>
    <text x="192" y="278" text-anchor="middle" font-size="15" fill="#666">Round 4</text>
    <line x1="146" y1="312" x2="146" y2="374" stroke="#888" stroke-width="2"/>
    <line x1="192" y1="312" x2="192" y2="374" stroke="#888" stroke-width="2"/>
    <line x1="238" y1="312" x2="238" y2="374" stroke="#888" stroke-width="2"/>
    <circle cx="146" cy="312" r="17" fill="#333" stroke="#333" stroke-width="2"/>
    <text x="146" y="319" text-anchor="middle" font-size="19" fill="#fff">1</text>
    <circle cx="146" cy="374" r="17" fill="#eee" stroke="#333" stroke-width="2"/>
    <text x="146" y="381" text-anchor="middle" font-size="19" fill="#222">3</text>
    <circle cx="192" cy="312" r="17" fill="#eee" stroke="#333" stroke-width="2"/>
    <text x="192" y="319" text-anchor="middle" font-size="19" fill="#222">4</text>
    <circle cx="192" cy="374" r="17" fill="#eee" stroke="#333" stroke-width="2"/>
    <text x="192" y="381" text-anchor="middle" font-size="19" fill="#222">2</text>
    <circle cx="238" cy="312" r="17" fill="#eee" stroke="#333" stroke-width="2"/>
    <text x="238" y="319" text-anchor="middle" font-size="19" fill="#222">5</text>
    <circle cx="238" cy="374" r="17" fill="#eee" stroke="#333" stroke-width="2"/>
    <text x="238" y="381" text-anchor="middle" font-size="19" fill="#222">6</text>
  </g>
  <g>
    <text x="364" y="278" text-anchor="middle" font-size="15" fill="#666">Round 5</text>
    <line x1="318" y1="312" x2="318" y2="374" stroke="#888" stroke-width="2"/>
    <line x1="364" y1="312" x2="364" y2="374" stroke="#888" stroke-width="2"/>
    <line x1="410" y1="312" x2="410" y2="374" stroke="#888" stroke-width="2"/>
    <circle cx="318" cy="312" r="17" fill="#333" stroke="#333" stroke-width="2"/>
    <text x="318" y="319" text-anchor="middle" font-size="19" fill="#fff">1</text>
    <circle cx="318" cy="374" r="17" fill="#eee" stroke="#333" stroke-width="2"/>
    <text x="318" y="381" text-anchor="middle" font-size="19" fill="#222">2</text>
    <circle cx="364" cy="312" r="17" fill="#eee" stroke="#333" stroke-width="2"/>
    <text x="364" y="319" text-anchor="middle" font-size="19" fill="#222">3</text>
    <circle cx="364" cy="374" r="17" fill="#eee" stroke="#333" stroke-width="2"/>
    <text x="364" y="381" text-anchor="middle" font-size="19" fill="#222">6</text>
    <circle cx="410" cy="312" r="17" fill="#eee" stroke="#333" stroke-width="2"/>
    <text x="410" y="319" text-anchor="middle" font-size="19" fill="#222">4</text>
    <circle cx="410" cy="374" r="17" fill="#eee" stroke="#333" stroke-width="2"/>
    <text x="410" y="381" text-anchor="middle" font-size="19" fill="#222">5</text>
  </g>
</svg>
