<?xml version="1.0" encoding="utf-8" standalone="no"?>
<!DOCTYPE svg PUBLIC "-//W3C//DTD SVG 1.1//EN"
  "http://www.w3.org/Graphics/SVG/1.1/DTD/svg11.dtd">
<svg xmlns:xlink="http://www.w3.org/1999/xlink" width="697.3625pt" height="230.107725pt" viewBox="0 0 697.3625 230.107725" xmlns="http://www.w3.org/2000/svg" version="1.1">
 <metadata>
  <rdf:RDF xmlns:dc="http://purl.org/dc/elements/1.1/" xmlns:cc="http://creativecommons.org/ns#" xmlns:rdf="http://www.w3.org/1999/02/22-rdf-syntax-ns#">
   <cc:Work>
    <dc:type rdf:resource="http://purl.org/dc/dcmitype/StillImage"/>
    <dc:date>2023-01-20T13:02:59.556008</dc:date>
    <dc:format>image/svg+xml</dc:format>
    <dc:creator>
     <cc:Agent>
      <dc:title>Matplotlib v3.5.2, https://matplotlib.org/</dc:title>
     </cc:Agent>
    </dc:creator>
   </cc:Work>
  </rdf:RDF>
 </metadata>
 <defs>
  <style type="text/css">*{stroke-linejoin: round; stroke-linecap: butt}</style>
 </defs>
 <g id="figure_1">
  <g id="patch_1">
   <path d="M 0 230.107725 
L 697.3625 230.107725 
L 697.3625 0 
L 0 0 
z
" style="fill: #ffffff"/>
  </g>
  <g id="axes_1">
   <g id="patch_2">
    <path d="M 20.5625 206.2296 
L 690.1625 206.2296 
L 690.1625 7.2 
L 20.5625 7.2 
z
" style="fill: #ffffff"/>
   </g>
   <g id="matplotlib.axis_1">
    <g id="xtick_1">
     <g id="line2d_1">
      <defs>
       <path id="m629efdd0b2" d="M 0 0 
L 0 3.5 
" style="stroke: #000000; stroke-width: 0.8"/>
      </defs>
      <g>
       <use xlink:href="#m629efdd0b2" x="111.871591" y="206.2296" style="stroke: #000000; stroke-width: 0.8"/>
      </g>
     </g>
     <g id="text_1">
      <!-- −4 -->
      <g transform="translate(104.500497 220.828038)scale(0.1 -0.1)">
       <defs>
        <path id="DejaVuSans-2212" d="M 678 2272 
L 4684 2272 
L 4684 1741 
L 678 1741 
L 678 2272 
z
" transform="scale(0.015625)"/>
        <path id="DejaVuSans-34" d="M 2419 4116 
L 825 1625 
L 2419 1625 
L 2419 4116 
z
M 2253 4666 
L 3047 4666 
L 3047 1625 
L 3713 1625 
L 3713 1100 
L 3047 1100 
L 3047 0 
L 2419 0 
L 2419 1100 
L 313 1100 
L 313 1709 
L 2253 4666 
z
" transform="scale(0.015625)"/>
       </defs>
       <use xlink:href="#DejaVuSans-2212"/>
       <use xlink:href="#DejaVuSans-34" x="83.789062"/>
      </g>
     </g>
    </g>
    <g id="xtick_2">
     <g id="line2d_2">
      <g>
       <use xlink:href="#m629efdd0b2" x="233.617045" y="206.2296" style="stroke: #000000; stroke-width: 0.8"/>
      </g>
     </g>
     <g id="text_2">
      <!-- −2 -->
      <g transform="translate(226.245952 220.828038)scale(0.1 -0.1)">
       <defs>
        <path id="DejaVuSans-32" d="M 1228 531 
L 3431 531 
L 3431 0 
L 469 0 
L 469 531 
Q 828 903 1448 1529 
Q 2069 2156 2228 2338 
Q 2531 2678 2651 2914 
Q 2772 3150 2772 3378 
Q 2772 3750 2511 3984 
Q 2250 4219 1831 4219 
Q 1534 4219 1204 4116 
Q 875 4013 500 3803 
L 500 4441 
Q 881 4594 1212 4672 
Q 1544 4750 1819 4750 
Q 2544 4750 2975 4387 
Q 3406 4025 3406 3419 
Q 3406 3131 3298 2873 
Q 3191 2616 2906 2266 
Q 2828 2175 2409 1742 
Q 1991 1309 1228 531 
z
" transform="scale(0.015625)"/>
       </defs>
       <use xlink:href="#DejaVuSans-2212"/>
       <use xlink:href="#DejaVuSans-32" x="83.789062"/>
      </g>
     </g>
    </g>
    <g id="xtick_3">
     <g id="line2d_3">
      <g>
       <use xlink:href="#m629efdd0b2" x="355.3625" y="206.2296" style="stroke: #000000; stroke-width: 0.8"/>
      </g>
     </g>
     <g id="text_3">
      <!-- 0 -->
      <g transform="translate(352.18125 220.828038)scale(0.1 -0.1)">
       <defs>
        <path id="DejaVuSans-30" d="M 2034 4250 
Q 1547 4250 1301 3770 
Q 1056 3291 1056 2328 
Q 1056 1369 1301 889 
Q 1547 409 2034 409 
Q 2525 409 2770 889 
Q 3016 1369 3016 2328 
Q 3016 3291 2770 3770 
Q 2525 4250 2034 4250 
z
M 2034 4750 
Q 2819 4750 3233 4129 
Q 3647 3509 3647 2328 
Q 3647 1150 3233 529 
Q 2819 -91 2034 -91 
Q 1250 -91 836 529 
Q 422 1150 422 2328 
Q 422 3509 836 4129 
Q 1250 4750 2034 4750 
z
" transform="scale(0.015625)"/>
       </defs>
       <use xlink:href="#DejaVuSans-30"/>
      </g>
     </g>
    </g>
    <g id="xtick_4">
     <g id="line2d_4">
      <g>
       <use xlink:href="#m629efdd0b2" x="477.107955" y="206.2296" style="stroke: #000000; stroke-width: 0.8"/>
      </g>
     </g>
     <g id="text_4">
      <!-- 2 -->
      <g transform="translate(473.926705 220.828038)scale(0.1 -0.1)">
       <use xlink:href="#DejaVuSans-32"/>
      </g>
     </g>
    </g>
    <g id="xtick_5">
     <g id="line2d_5">
      <g>
       <use xlink:href="#m629efdd0b2" x="598.853409" y="206.2296" style="stroke: #000000; stroke-width: 0.8"/>
      </g>
     </g>
     <g id="text_5">
      <!-- 4 -->
      <g transform="translate(595.672159 220.828038)scale(0.1 -0.1)">
       <use xlink:href="#DejaVuSans-34"/>
      </g>
     </g>
    </g>
   </g>
   <g id="matplotlib.axis_2">
    <g id="ytick_1">
     <g id="line2d_6">
      <defs>
       <path id="m6975f6ac5d" d="M 0 0 
L -3.5 0 
" style="stroke: #000000; stroke-width: 0.8"/>
      </defs>
      <g>
       <use xlink:href="#m6975f6ac5d" x="20.5625" y="197.1828" style="stroke: #000000; stroke-width: 0.8"/>
      </g>
     </g>
     <g id="text_6">
      <!-- 0 -->
      <g transform="translate(7.2 200.982019)scale(0.1 -0.1)">
       <use xlink:href="#DejaVuSans-30"/>
      </g>
     </g>
    </g>
    <g id="ytick_2">
     <g id="line2d_7">
      <g>
       <use xlink:href="#m6975f6ac5d" x="20.5625" y="160.9956" style="stroke: #000000; stroke-width: 0.8"/>
      </g>
     </g>
     <g id="text_7">
      <!-- 1 -->
      <g transform="translate(7.2 164.794819)scale(0.1 -0.1)">
       <defs>
        <path id="DejaVuSans-31" d="M 794 531 
L 1825 531 
L 1825 4091 
L 703 3866 
L 703 4441 
L 1819 4666 
L 2450 4666 
L 2450 531 
L 3481 531 
L 3481 0 
L 794 0 
L 794 531 
z
" transform="scale(0.015625)"/>
       </defs>
       <use xlink:href="#DejaVuSans-31"/>
      </g>
     </g>
    </g>
    <g id="ytick_3">
     <g id="line2d_8">
      <g>
       <use xlink:href="#m6975f6ac5d" x="20.5625" y="124.8084" style="stroke: #000000; stroke-width: 0.8"/>
      </g>
     </g>
     <g id="text_8">
      <!-- 2 -->
      <g transform="translate(7.2 128.607619)scale(0.1 -0.1)">
       <use xlink:href="#DejaVuSans-32"/>
      </g>
     </g>
    </g>
    <g id="ytick_4">
     <g id="line2d_9">
      <g>
       <use xlink:href="#m6975f6ac5d" x="20.5625" y="88.6212" style="stroke: #000000; stroke-width: 0.8"/>
      </g>
     </g>
     <g id="text_9">
      <!-- 3 -->
      <g transform="translate(7.2 92.420419)scale(0.1 -0.1)">
       <defs>
        <path id="DejaVuSans-33" d="M 2597 2516 
Q 3050 2419 3304 2112 
Q 3559 1806 3559 1356 
Q 3559 666 3084 287 
Q 2609 -91 1734 -91 
Q 1441 -91 1130 -33 
Q 819 25 488 141 
L 488 750 
Q 750 597 1062 519 
Q 1375 441 1716 441 
Q 2309 441 2620 675 
Q 2931 909 2931 1356 
Q 2931 1769 2642 2001 
Q 2353 2234 1838 2234 
L 1294 2234 
L 1294 2753 
L 1863 2753 
Q 2328 2753 2575 2939 
Q 2822 3125 2822 3475 
Q 2822 3834 2567 4026 
Q 2313 4219 1838 4219 
Q 1578 4219 1281 4162 
Q 984 4106 628 3988 
L 628 4550 
Q 988 4650 1302 4700 
Q 1616 4750 1894 4750 
Q 2613 4750 3031 4423 
Q 3450 4097 3450 3541 
Q 3450 3153 3228 2886 
Q 3006 2619 2597 2516 
z
" transform="scale(0.015625)"/>
       </defs>
       <use xlink:href="#DejaVuSans-33"/>
      </g>
     </g>
    </g>
    <g id="ytick_5">
     <g id="line2d_10">
      <g>
       <use xlink:href="#m6975f6ac5d" x="20.5625" y="52.434" style="stroke: #000000; stroke-width: 0.8"/>
      </g>
     </g>
     <g id="text_10">
      <!-- 4 -->
      <g transform="translate(7.2 56.233219)scale(0.1 -0.1)">
       <use xlink:href="#DejaVuSans-34"/>
      </g>
     </g>
    </g>
    <g id="ytick_6">
     <g id="line2d_11">
      <g>
       <use xlink:href="#m6975f6ac5d" x="20.5625" y="16.2468" style="stroke: #000000; stroke-width: 0.8"/>
      </g>
     </g>
     <g id="text_11">
      <!-- 5 -->
      <g transform="translate(7.2 20.046019)scale(0.1 -0.1)">
       <defs>
        <path id="DejaVuSans-35" d="M 691 4666 
L 3169 4666 
L 3169 4134 
L 1269 4134 
L 1269 2991 
Q 1406 3038 1543 3061 
Q 1681 3084 1819 3084 
Q 2600 3084 3056 2656 
Q 3513 2228 3513 1497 
Q 3513 744 3044 326 
Q 2575 -91 1722 -91 
Q 1428 -91 1123 -41 
Q 819 9 494 109 
L 494 744 
Q 775 591 1075 516 
Q 1375 441 1709 441 
Q 2250 441 2565 725 
Q 2881 1009 2881 1497 
Q 2881 1984 2565 2268 
Q 2250 2553 1709 2553 
Q 1456 2553 1204 2497 
Q 953 2441 691 2322 
L 691 4666 
z
" transform="scale(0.015625)"/>
       </defs>
       <use xlink:href="#DejaVuSans-35"/>
      </g>
     </g>
    </g>
   </g>
   <g id="line2d_12">
    <path d="M 50.998864 197.1828 
L 57.210366 197.1828 
L 63.421869 197.1828 
L 69.633372 197.1828 
L 75.844875 197.1828 
L 82.056378 197.1828 
L 88.26788 197.1828 
L 94.479383 197.1828 
L 100.690886 197.1828 
L 106.902389 197.1828 
L 113.113891 197.1828 
L 119.325394 197.1828 
L 125.536897 197.1828 
L 131.7484 197.1828 
L 137.959903 197.1828 
L 144.171405 197.1828 
L 150.382908 197.1828 
L 156.594411 197.1828 
L 162.805914 197.1828 
L 169.017417 197.1828 
L 175.228919 197.1828 
L 181.440422 197.1828 
L 187.651925 197.1828 
L 193.863428 197.1828 
L 200.07493 197.1828 
L 206.286433 197.1828 
L 212.497936 197.1828 
L 218.709439 197.1828 
L 224.920942 197.1828 
L 231.132444 197.1828 
L 237.343947 197.1828 
L 243.55545 197.1828 
L 249.766953 197.1828 
L 255.978455 197.1828 
L 262.189958 197.1828 
L 268.401461 197.1828 
L 274.612964 197.1828 
L 280.824467 197.1828 
L 287.035969 197.1828 
L 293.247472 197.1828 
L 299.458975 197.1828 
L 305.670478 197.1828 
L 311.881981 197.1828 
L 318.093483 197.1828 
L 324.304986 197.1828 
L 330.516489 197.1828 
L 336.727992 197.1828 
L 342.939494 197.1828 
L 349.150997 197.1828 
L 355.3625 197.1828 
" clip-path="url(#p1c40dcff41)" style="fill: none; stroke: #ff0000; stroke-width: 1.5; stroke-linecap: square"/>
   </g>
   <g id="line2d_13">
    <path d="M 355.3625 160.9956 
L 361.574003 160.9956 
L 367.785506 160.9956 
L 373.997008 160.9956 
L 380.208511 160.9956 
L 386.420014 160.9956 
L 392.631517 160.9956 
L 398.843019 160.9956 
L 405.054522 160.9956 
L 411.266025 160.9956 
L 417.477528 160.9956 
L 423.689031 160.9956 
L 429.900533 160.9956 
L 436.112036 160.9956 
L 442.323539 160.9956 
L 448.535042 160.9956 
L 454.746545 160.9956 
L 460.958047 160.9956 
L 467.16955 160.9956 
L 473.381053 160.9956 
L 479.592556 160.9956 
L 485.804058 160.9956 
L 492.015561 160.9956 
L 498.227064 160.9956 
L 504.438567 160.9956 
L 510.65007 160.9956 
L 516.861572 160.9956 
L 523.073075 160.9956 
L 529.284578 160.9956 
L 535.496081 160.9956 
L 541.707583 160.9956 
L 547.919086 160.9956 
L 554.130589 160.9956 
L 560.342092 160.9956 
L 566.553595 160.9956 
L 572.765097 160.9956 
L 578.9766 160.9956 
L 585.188103 160.9956 
L 591.399606 160.9956 
L 597.611109 160.9956 
L 603.822611 160.9956 
L 610.034114 160.9956 
L 616.245617 160.9956 
L 622.45712 160.9956 
L 628.668622 160.9956 
L 634.880125 160.9956 
L 641.091628 160.9956 
L 647.303131 160.9956 
L 653.514634 160.9956 
L 659.726136 160.9956 
" clip-path="url(#p1c40dcff41)" style="fill: none; stroke: #ff0000; stroke-width: 1.5; stroke-linecap: square"/>
   </g>
   <g id="line2d_14">
    <path d="M 50.998864 197.1828 
L 57.147624 197.1828 
L 63.296384 197.1828 
L 69.445145 197.1828 
L 75.593905 197.1828 
L 81.742665 197.1828 
L 87.891426 197.1828 
L 94.040186 197.1828 
L 100.188946 197.1828 
L 106.337707 197.1828 
L 112.486467 197.1828 
L 118.635227 197.1828 
L 124.783988 197.1828 
L 130.932748 197.1828 
L 137.081508 197.1828 
L 143.230269 197.1828 
L 149.379029 197.1828 
L 155.527789 197.1828 
L 161.67655 197.1828 
L 167.82531 197.1828 
L 173.97407 197.1828 
L 180.122831 197.1828 
L 186.271591 197.1828 
L 192.420351 197.1828 
L 198.569112 197.1828 
L 204.717872 197.1828 
L 210.866632 197.1828 
L 217.015393 197.1828 
L 223.164153 197.1828 
L 229.312913 197.1828 
L 235.461674 197.1828 
L 241.610434 197.1828 
L 247.759194 197.1828 
L 253.907955 197.1828 
L 260.056715 197.1828 
L 266.205475 197.1828 
L 272.354236 197.1828 
L 278.502996 197.1828 
L 284.651756 197.1828 
L 290.800517 197.1828 
L 296.949277 197.1828 
L 303.098037 197.1828 
L 309.246798 197.1828 
L 315.395558 197.1828 
L 321.544318 197.1828 
L 327.693079 197.1828 
L 333.841839 197.1828 
L 339.990599 197.1828 
L 346.13936 197.1828 
L 352.28812 197.1828 
L 358.43688 195.355164 
L 364.58564 191.699891 
L 370.734401 188.044618 
L 376.883161 184.389345 
L 383.031921 180.734073 
L 389.180682 177.0788 
L 395.329442 173.423527 
L 401.478202 169.768255 
L 407.626963 166.112982 
L 413.775723 162.457709 
L 419.924483 158.802436 
L 426.073244 155.147164 
L 432.222004 151.491891 
L 438.370764 147.836618 
L 444.519525 144.181345 
L 450.668285 140.526073 
L 456.817045 136.8708 
L 462.965806 133.215527 
L 469.114566 129.560255 
L 475.263326 125.904982 
L 481.412087 122.249709 
L 487.560847 118.594436 
L 493.709607 114.939164 
L 499.858368 111.283891 
L 506.007128 107.628618 
L 512.155888 103.973345 
L 518.304649 100.318073 
L 524.453409 96.6628 
L 530.602169 93.007527 
L 536.75093 89.352255 
L 542.89969 85.696982 
L 549.04845 82.041709 
L 555.197211 78.386436 
L 561.345971 74.731164 
L 567.494731 71.075891 
L 573.643492 67.420618 
L 579.792252 63.765345 
L 585.941012 60.110073 
L 592.089773 56.4548 
L 598.238533 52.799527 
L 604.387293 49.144255 
L 610.536054 45.488982 
L 616.684814 41.833709 
L 622.833574 38.178436 
L 628.982335 34.523164 
L 635.131095 30.867891 
L 641.279855 27.212618 
L 647.428616 23.557345 
L 653.577376 19.902073 
L 659.726136 16.2468 
" clip-path="url(#p1c40dcff41)" style="fill: none; stroke: #0000ff; stroke-width: 1.5; stroke-linecap: square"/>
   </g>
   <g id="patch_3">
    <path d="M 20.5625 206.2296 
L 20.5625 7.2 
" style="fill: none; stroke: #000000; stroke-width: 0.8; stroke-linejoin: miter; stroke-linecap: square"/>
   </g>
   <g id="patch_4">
    <path d="M 690.1625 206.2296 
L 690.1625 7.2 
" style="fill: none; stroke: #000000; stroke-width: 0.8; stroke-linejoin: miter; stroke-linecap: square"/>
   </g>
   <g id="patch_5">
    <path d="M 20.5625 206.2296 
L 690.1625 206.2296 
" style="fill: none; stroke: #000000; stroke-width: 0.8; stroke-linejoin: miter; stroke-linecap: square"/>
   </g>
   <g id="patch_6">
    <path d="M 20.5625 7.2 
L 690.1625 7.2 
" style="fill: none; stroke: #000000; stroke-width: 0.8; stroke-linejoin: miter; stroke-linecap: square"/>
   </g>
   <g id="legend_1">
    <g id="patch_7">
     <path d="M 27.5625 44.55625 
L 153.115625 44.55625 
Q 155.115625 44.55625 155.115625 42.55625 
L 155.115625 14.2 
Q 155.115625 12.2 153.115625 12.2 
L 27.5625 12.2 
Q 25.5625 12.2 25.5625 14.2 
L 25.5625 42.55625 
Q 25.5625 44.55625 27.5625 44.55625 
z
" style="fill: #ffffff; opacity: 0.8; stroke: #cccccc; stroke-linejoin: miter"/>
    </g>
    <g id="line2d_15">
     <path d="M 29.5625 20.298437 
L 39.5625 20.298437 
L 49.5625 20.298437 
" style="fill: none; stroke: #ff0000; stroke-width: 1.5; stroke-linecap: square"/>
    </g>
    <g id="text_12">
     <!-- derivative -->
     <g transform="translate(57.5625 23.798437)scale(0.1 -0.1)">
      <defs>
       <path id="DejaVuSans-64" d="M 2906 2969 
L 2906 4863 
L 3481 4863 
L 3481 0 
L 2906 0 
L 2906 525 
Q 2725 213 2448 61 
Q 2172 -91 1784 -91 
Q 1150 -91 751 415 
Q 353 922 353 1747 
Q 353 2572 751 3078 
Q 1150 3584 1784 3584 
Q 2172 3584 2448 3432 
Q 2725 3281 2906 2969 
z
M 947 1747 
Q 947 1113 1208 752 
Q 1469 391 1925 391 
Q 2381 391 2643 752 
Q 2906 1113 2906 1747 
Q 2906 2381 2643 2742 
Q 2381 3103 1925 3103 
Q 1469 3103 1208 2742 
Q 947 2381 947 1747 
z
" transform="scale(0.015625)"/>
       <path id="DejaVuSans-65" d="M 3597 1894 
L 3597 1613 
L 953 1613 
Q 991 1019 1311 708 
Q 1631 397 2203 397 
Q 2534 397 2845 478 
Q 3156 559 3463 722 
L 3463 178 
Q 3153 47 2828 -22 
Q 2503 -91 2169 -91 
Q 1331 -91 842 396 
Q 353 884 353 1716 
Q 353 2575 817 3079 
Q 1281 3584 2069 3584 
Q 2775 3584 3186 3129 
Q 3597 2675 3597 1894 
z
M 3022 2063 
Q 3016 2534 2758 2815 
Q 2500 3097 2075 3097 
Q 1594 3097 1305 2825 
Q 1016 2553 972 2059 
L 3022 2063 
z
" transform="scale(0.015625)"/>
       <path id="DejaVuSans-72" d="M 2631 2963 
Q 2534 3019 2420 3045 
Q 2306 3072 2169 3072 
Q 1681 3072 1420 2755 
Q 1159 2438 1159 1844 
L 1159 0 
L 581 0 
L 581 3500 
L 1159 3500 
L 1159 2956 
Q 1341 3275 1631 3429 
Q 1922 3584 2338 3584 
Q 2397 3584 2469 3576 
Q 2541 3569 2628 3553 
L 2631 2963 
z
" transform="scale(0.015625)"/>
       <path id="DejaVuSans-69" d="M 603 3500 
L 1178 3500 
L 1178 0 
L 603 0 
L 603 3500 
z
M 603 4863 
L 1178 4863 
L 1178 4134 
L 603 4134 
L 603 4863 
z
" transform="scale(0.015625)"/>
       <path id="DejaVuSans-76" d="M 191 3500 
L 800 3500 
L 1894 563 
L 2988 3500 
L 3597 3500 
L 2284 0 
L 1503 0 
L 191 3500 
z
" transform="scale(0.015625)"/>
       <path id="DejaVuSans-61" d="M 2194 1759 
Q 1497 1759 1228 1600 
Q 959 1441 959 1056 
Q 959 750 1161 570 
Q 1363 391 1709 391 
Q 2188 391 2477 730 
Q 2766 1069 2766 1631 
L 2766 1759 
L 2194 1759 
z
M 3341 1997 
L 3341 0 
L 2766 0 
L 2766 531 
Q 2569 213 2275 61 
Q 1981 -91 1556 -91 
Q 1019 -91 701 211 
Q 384 513 384 1019 
Q 384 1609 779 1909 
Q 1175 2209 1959 2209 
L 2766 2209 
L 2766 2266 
Q 2766 2663 2505 2880 
Q 2244 3097 1772 3097 
Q 1472 3097 1187 3025 
Q 903 2953 641 2809 
L 641 3341 
Q 956 3463 1253 3523 
Q 1550 3584 1831 3584 
Q 2591 3584 2966 3190 
Q 3341 2797 3341 1997 
z
" transform="scale(0.015625)"/>
       <path id="DejaVuSans-74" d="M 1172 4494 
L 1172 3500 
L 2356 3500 
L 2356 3053 
L 1172 3053 
L 1172 1153 
Q 1172 725 1289 603 
Q 1406 481 1766 481 
L 2356 481 
L 2356 0 
L 1766 0 
Q 1100 0 847 248 
Q 594 497 594 1153 
L 594 3053 
L 172 3053 
L 172 3500 
L 594 3500 
L 594 4494 
L 1172 4494 
z
" transform="scale(0.015625)"/>
      </defs>
      <use xlink:href="#DejaVuSans-64"/>
      <use xlink:href="#DejaVuSans-65" x="63.476562"/>
      <use xlink:href="#DejaVuSans-72" x="125"/>
      <use xlink:href="#DejaVuSans-69" x="166.113281"/>
      <use xlink:href="#DejaVuSans-76" x="193.896484"/>
      <use xlink:href="#DejaVuSans-61" x="253.076172"/>
      <use xlink:href="#DejaVuSans-74" x="314.355469"/>
      <use xlink:href="#DejaVuSans-69" x="353.564453"/>
      <use xlink:href="#DejaVuSans-76" x="381.347656"/>
      <use xlink:href="#DejaVuSans-65" x="440.527344"/>
     </g>
    </g>
    <g id="line2d_16">
     <path d="M 29.5625 34.976562 
L 39.5625 34.976562 
L 49.5625 34.976562 
" style="fill: none; stroke: #0000ff; stroke-width: 1.5; stroke-linecap: square"/>
    </g>
    <g id="text_13">
     <!-- activation function -->
     <g transform="translate(57.5625 38.476562)scale(0.1 -0.1)">
      <defs>
       <path id="DejaVuSans-63" d="M 3122 3366 
L 3122 2828 
Q 2878 2963 2633 3030 
Q 2388 3097 2138 3097 
Q 1578 3097 1268 2742 
Q 959 2388 959 1747 
Q 959 1106 1268 751 
Q 1578 397 2138 397 
Q 2388 397 2633 464 
Q 2878 531 3122 666 
L 3122 134 
Q 2881 22 2623 -34 
Q 2366 -91 2075 -91 
Q 1284 -91 818 406 
Q 353 903 353 1747 
Q 353 2603 823 3093 
Q 1294 3584 2113 3584 
Q 2378 3584 2631 3529 
Q 2884 3475 3122 3366 
z
" transform="scale(0.015625)"/>
       <path id="DejaVuSans-6f" d="M 1959 3097 
Q 1497 3097 1228 2736 
Q 959 2375 959 1747 
Q 959 1119 1226 758 
Q 1494 397 1959 397 
Q 2419 397 2687 759 
Q 2956 1122 2956 1747 
Q 2956 2369 2687 2733 
Q 2419 3097 1959 3097 
z
M 1959 3584 
Q 2709 3584 3137 3096 
Q 3566 2609 3566 1747 
Q 3566 888 3137 398 
Q 2709 -91 1959 -91 
Q 1206 -91 779 398 
Q 353 888 353 1747 
Q 353 2609 779 3096 
Q 1206 3584 1959 3584 
z
" transform="scale(0.015625)"/>
       <path id="DejaVuSans-6e" d="M 3513 2113 
L 3513 0 
L 2938 0 
L 2938 2094 
Q 2938 2591 2744 2837 
Q 2550 3084 2163 3084 
Q 1697 3084 1428 2787 
Q 1159 2491 1159 1978 
L 1159 0 
L 581 0 
L 581 3500 
L 1159 3500 
L 1159 2956 
Q 1366 3272 1645 3428 
Q 1925 3584 2291 3584 
Q 2894 3584 3203 3211 
Q 3513 2838 3513 2113 
z
" transform="scale(0.015625)"/>
       <path id="DejaVuSans-20" transform="scale(0.015625)"/>
       <path id="DejaVuSans-66" d="M 2375 4863 
L 2375 4384 
L 1825 4384 
Q 1516 4384 1395 4259 
Q 1275 4134 1275 3809 
L 1275 3500 
L 2222 3500 
L 2222 3053 
L 1275 3053 
L 1275 0 
L 697 0 
L 697 3053 
L 147 3053 
L 147 3500 
L 697 3500 
L 697 3744 
Q 697 4328 969 4595 
Q 1241 4863 1831 4863 
L 2375 4863 
z
" transform="scale(0.015625)"/>
       <path id="DejaVuSans-75" d="M 544 1381 
L 544 3500 
L 1119 3500 
L 1119 1403 
Q 1119 906 1312 657 
Q 1506 409 1894 409 
Q 2359 409 2629 706 
Q 2900 1003 2900 1516 
L 2900 3500 
L 3475 3500 
L 3475 0 
L 2900 0 
L 2900 538 
Q 2691 219 2414 64 
Q 2138 -91 1772 -91 
Q 1169 -91 856 284 
Q 544 659 544 1381 
z
M 1991 3584 
L 1991 3584 
z
" transform="scale(0.015625)"/>
      </defs>
      <use xlink:href="#DejaVuSans-61"/>
      <use xlink:href="#DejaVuSans-63" x="61.279297"/>
      <use xlink:href="#DejaVuSans-74" x="116.259766"/>
      <use xlink:href="#DejaVuSans-69" x="155.46875"/>
      <use xlink:href="#DejaVuSans-76" x="183.251953"/>
      <use xlink:href="#DejaVuSans-61" x="242.431641"/>
      <use xlink:href="#DejaVuSans-74" x="303.710938"/>
      <use xlink:href="#DejaVuSans-69" x="342.919922"/>
      <use xlink:href="#DejaVuSans-6f" x="370.703125"/>
      <use xlink:href="#DejaVuSans-6e" x="431.884766"/>
      <use xlink:href="#DejaVuSans-20" x="495.263672"/>
      <use xlink:href="#DejaVuSans-66" x="527.050781"/>
      <use xlink:href="#DejaVuSans-75" x="562.255859"/>
      <use xlink:href="#DejaVuSans-6e" x="625.634766"/>
      <use xlink:href="#DejaVuSans-63" x="689.013672"/>
      <use xlink:href="#DejaVuSans-74" x="743.994141"/>
      <use xlink:href="#DejaVuSans-69" x="783.203125"/>
      <use xlink:href="#DejaVuSans-6f" x="810.986328"/>
      <use xlink:href="#DejaVuSans-6e" x="872.167969"/>
     </g>
    </g>
   </g>
  </g>
 </g>
 <defs>
  <clipPath id="p1c40dcff41">
   <rect x="20.5625" y="7.2" width="669.6" height="199.0296"/>
  </clipPath>
 </defs>
</svg>
