<?xml version="1.0" encoding="UTF-8" standalone="no"?>
<!DOCTYPE svg PUBLIC "-//W3C//DTD SVG 1.1//EN"
 "http://www.w3.org/Graphics/SVG/1.1/DTD/svg11.dtd">
<!-- Generated by graphviz version 7.0.6 (20230106.0513)
 -->
<!-- Title: G Pages: 1 -->
<svg width="720pt" height="587pt"
 viewBox="0.00 0.00 720.00 587.26" xmlns="http://www.w3.org/2000/svg" xmlns:xlink="http://www.w3.org/1999/xlink">
<g id="graph0" class="graph" transform="scale(2.01117 2.01117) rotate(0) translate(4 288)">
<title>G</title>
<polygon fill="white" stroke="none" points="-4,4 -4,-288 354,-288 354,4 -4,4"/>
<g id="clust1" class="cluster">
<title>cluster_0</title>
<polygon fill="none" stroke="white" points="8,-62 8,-222 60,-222 60,-62 8,-62"/>
</g>
<g id="clust2" class="cluster">
<title>cluster_1</title>
<polygon fill="none" stroke="white" points="102,-8 102,-276 154,-276 154,-8 102,-8"/>
</g>
<g id="clust3" class="cluster">
<title>cluster_2</title>
<polygon fill="none" stroke="white" points="196,-35 196,-249 248,-249 248,-35 196,-35"/>
</g>
<g id="clust4" class="cluster">
<title>cluster_3</title>
<polygon fill="none" stroke="white" points="290,-89 290,-195 342,-195 342,-89 290,-89"/>
</g>
<!-- x1 -->
<g id="node1" class="node">
<title>x1</title>
<ellipse fill="none" stroke="blue" cx="34" cy="-142" rx="18" ry="18"/>
</g>
<!-- a12 -->
<g id="node4" class="node">
<title>a12</title>
<ellipse fill="none" stroke="red" cx="128" cy="-88" rx="18" ry="18"/>
</g>
<!-- x1&#45;&gt;a12 -->
<g id="edge1" class="edge">
<title>x1&#45;&gt;a12</title>
<path fill="none" stroke="black" d="M50.19,-133.08C65.6,-124.04 89.54,-109.99 106.59,-99.98"/>
<polygon fill="black" stroke="black" points="107.36,-101.56 110.79,-97.52 105.59,-98.54 107.36,-101.56"/>
</g>
<!-- a22 -->
<g id="node5" class="node">
<title>a22</title>
<ellipse fill="none" stroke="red" cx="128" cy="-34" rx="18" ry="18"/>
</g>
<!-- x1&#45;&gt;a22 -->
<g id="edge2" class="edge">
<title>x1&#45;&gt;a22</title>
<path fill="none" stroke="black" d="M46.28,-128.76C62.63,-109.57 92.96,-73.96 111.43,-52.28"/>
<polygon fill="black" stroke="black" points="112.74,-53.44 114.65,-48.5 110.07,-51.17 112.74,-53.44"/>
</g>
<!-- a32 -->
<g id="node6" class="node">
<title>a32</title>
<ellipse fill="none" stroke="red" cx="128" cy="-250" rx="18" ry="18"/>
</g>
<!-- x1&#45;&gt;a32 -->
<g id="edge3" class="edge">
<title>x1&#45;&gt;a32</title>
<path fill="none" stroke="black" d="M46.28,-155.24C62.63,-174.43 92.96,-210.04 111.43,-231.72"/>
<polygon fill="black" stroke="black" points="110.07,-232.83 114.65,-235.5 112.74,-230.56 110.07,-232.83"/>
</g>
<!-- a42 -->
<g id="node7" class="node">
<title>a42</title>
<ellipse fill="none" stroke="red" cx="128" cy="-196" rx="18" ry="18"/>
</g>
<!-- x1&#45;&gt;a42 -->
<g id="edge4" class="edge">
<title>x1&#45;&gt;a42</title>
<path fill="none" stroke="black" d="M50.19,-150.92C65.6,-159.96 89.54,-174.01 106.59,-184.02"/>
<polygon fill="black" stroke="black" points="105.59,-185.46 110.79,-186.48 107.36,-182.44 105.59,-185.46"/>
</g>
<!-- a52 -->
<g id="node8" class="node">
<title>a52</title>
<ellipse fill="none" stroke="red" cx="128" cy="-142" rx="18" ry="18"/>
</g>
<!-- x1&#45;&gt;a52 -->
<g id="edge5" class="edge">
<title>x1&#45;&gt;a52</title>
<path fill="none" stroke="black" d="M52.3,-142C66.7,-142 87.33,-142 103.26,-142"/>
<polygon fill="black" stroke="black" points="103.26,-143.75 108.26,-142 103.26,-140.25 103.26,-143.75"/>
</g>
<!-- x2 -->
<g id="node2" class="node">
<title>x2</title>
<ellipse fill="none" stroke="blue" cx="34" cy="-88" rx="18" ry="18"/>
</g>
<!-- x2&#45;&gt;a12 -->
<g id="edge6" class="edge">
<title>x2&#45;&gt;a12</title>
<path fill="none" stroke="black" d="M52.3,-88C66.7,-88 87.33,-88 103.26,-88"/>
<polygon fill="black" stroke="black" points="103.26,-89.75 108.26,-88 103.26,-86.25 103.26,-89.75"/>
</g>
<!-- x2&#45;&gt;a22 -->
<g id="edge7" class="edge">
<title>x2&#45;&gt;a22</title>
<path fill="none" stroke="black" d="M50.19,-79.08C65.6,-70.04 89.54,-55.99 106.59,-45.98"/>
<polygon fill="black" stroke="black" points="107.36,-47.56 110.79,-43.52 105.59,-44.54 107.36,-47.56"/>
</g>
<!-- x2&#45;&gt;a32 -->
<g id="edge8" class="edge">
<title>x2&#45;&gt;a32</title>
<path fill="none" stroke="black" d="M43.82,-103.53C60.49,-132.88 96.6,-196.47 115.28,-229.36"/>
<polygon fill="black" stroke="black" points="113.6,-229.95 117.59,-233.43 116.64,-228.22 113.6,-229.95"/>
</g>
<!-- x2&#45;&gt;a42 -->
<g id="edge9" class="edge">
<title>x2&#45;&gt;a42</title>
<path fill="none" stroke="black" d="M46.28,-101.24C62.63,-120.43 92.96,-156.04 111.43,-177.72"/>
<polygon fill="black" stroke="black" points="110.07,-178.83 114.65,-181.5 112.74,-176.56 110.07,-178.83"/>
</g>
<!-- x2&#45;&gt;a52 -->
<g id="edge10" class="edge">
<title>x2&#45;&gt;a52</title>
<path fill="none" stroke="black" d="M50.19,-96.92C65.6,-105.96 89.54,-120.01 106.59,-130.02"/>
<polygon fill="black" stroke="black" points="105.59,-131.46 110.79,-132.48 107.36,-128.44 105.59,-131.46"/>
</g>
<!-- x3 -->
<g id="node3" class="node">
<title>x3</title>
<ellipse fill="none" stroke="blue" cx="34" cy="-196" rx="18" ry="18"/>
</g>
<!-- x3&#45;&gt;a12 -->
<g id="edge11" class="edge">
<title>x3&#45;&gt;a12</title>
<path fill="none" stroke="black" d="M46.28,-182.76C62.63,-163.57 92.96,-127.96 111.43,-106.28"/>
<polygon fill="black" stroke="black" points="112.74,-107.44 114.65,-102.5 110.07,-105.17 112.74,-107.44"/>
</g>
<!-- x3&#45;&gt;a22 -->
<g id="edge12" class="edge">
<title>x3&#45;&gt;a22</title>
<path fill="none" stroke="black" d="M43.82,-180.47C60.49,-151.12 96.6,-87.53 115.28,-54.64"/>
<polygon fill="black" stroke="black" points="116.64,-55.78 117.59,-50.57 113.6,-54.05 116.64,-55.78"/>
</g>
<!-- x3&#45;&gt;a32 -->
<g id="edge13" class="edge">
<title>x3&#45;&gt;a32</title>
<path fill="none" stroke="black" d="M50.19,-204.92C65.6,-213.96 89.54,-228.01 106.59,-238.02"/>
<polygon fill="black" stroke="black" points="105.59,-239.46 110.79,-240.48 107.36,-236.44 105.59,-239.46"/>
</g>
<!-- x3&#45;&gt;a42 -->
<g id="edge14" class="edge">
<title>x3&#45;&gt;a42</title>
<path fill="none" stroke="black" d="M52.3,-196C66.7,-196 87.33,-196 103.26,-196"/>
<polygon fill="black" stroke="black" points="103.26,-197.75 108.26,-196 103.26,-194.25 103.26,-197.75"/>
</g>
<!-- x3&#45;&gt;a52 -->
<g id="edge15" class="edge">
<title>x3&#45;&gt;a52</title>
<path fill="none" stroke="black" d="M50.19,-187.08C65.6,-178.04 89.54,-163.99 106.59,-153.98"/>
<polygon fill="black" stroke="black" points="107.36,-155.56 110.79,-151.52 105.59,-152.54 107.36,-155.56"/>
</g>
<!-- a13 -->
<g id="node9" class="node">
<title>a13</title>
<ellipse fill="none" stroke="red" cx="222" cy="-223" rx="18" ry="18"/>
</g>
<!-- a12&#45;&gt;a13 -->
<g id="edge16" class="edge">
<title>a12&#45;&gt;a13</title>
<path fill="none" stroke="black" d="M139.02,-102.7C155.61,-127.05 188.8,-175.76 207.46,-203.14"/>
<polygon fill="black" stroke="black" points="205.88,-203.92 210.14,-207.06 208.77,-201.95 205.88,-203.92"/>
</g>
<!-- a23 -->
<g id="node10" class="node">
<title>a23</title>
<ellipse fill="none" stroke="red" cx="222" cy="-169" rx="18" ry="18"/>
</g>
<!-- a12&#45;&gt;a23 -->
<g id="edge17" class="edge">
<title>a12&#45;&gt;a23</title>
<path fill="none" stroke="black" d="M142.18,-99.61C158.17,-113.68 185.19,-137.47 203.06,-153.21"/>
<polygon fill="black" stroke="black" points="201.8,-154.43 206.71,-156.42 204.11,-151.8 201.8,-154.43"/>
</g>
<!-- a33 -->
<g id="node11" class="node">
<title>a33</title>
<ellipse fill="none" stroke="red" cx="222" cy="-115" rx="18" ry="18"/>
</g>
<!-- a12&#45;&gt;a33 -->
<g id="edge18" class="edge">
<title>a12&#45;&gt;a33</title>
<path fill="none" stroke="black" d="M145.45,-92.83C160.14,-97.14 181.81,-103.5 198.18,-108.3"/>
<polygon fill="black" stroke="black" points="197.64,-109.97 202.93,-109.7 198.63,-106.61 197.64,-109.97"/>
</g>
<!-- a43 -->
<g id="node12" class="node">
<title>a43</title>
<ellipse fill="none" stroke="red" cx="222" cy="-61" rx="18" ry="18"/>
</g>
<!-- a12&#45;&gt;a43 -->
<g id="edge19" class="edge">
<title>a12&#45;&gt;a43</title>
<path fill="none" stroke="black" d="M145.45,-83.17C160.14,-78.86 181.81,-72.5 198.18,-67.7"/>
<polygon fill="black" stroke="black" points="198.63,-69.39 202.93,-66.3 197.64,-66.03 198.63,-69.39"/>
</g>
<!-- a22&#45;&gt;a13 -->
<g id="edge20" class="edge">
<title>a22&#45;&gt;a13</title>
<path fill="none" stroke="black" d="M136.84,-50.11C153.34,-84.01 191.65,-162.71 210.35,-201.12"/>
<polygon fill="black" stroke="black" points="208.75,-201.84 212.51,-205.57 211.9,-200.3 208.75,-201.84"/>
</g>
<!-- a22&#45;&gt;a23 -->
<g id="edge21" class="edge">
<title>a22&#45;&gt;a23</title>
<path fill="none" stroke="black" d="M139.02,-48.7C155.61,-73.05 188.8,-121.76 207.46,-149.14"/>
<polygon fill="black" stroke="black" points="205.88,-149.92 210.14,-153.06 208.77,-147.95 205.88,-149.92"/>
</g>
<!-- a22&#45;&gt;a33 -->
<g id="edge22" class="edge">
<title>a22&#45;&gt;a33</title>
<path fill="none" stroke="black" d="M142.18,-45.61C158.17,-59.68 185.19,-83.47 203.06,-99.21"/>
<polygon fill="black" stroke="black" points="201.8,-100.43 206.71,-102.42 204.11,-97.8 201.8,-100.43"/>
</g>
<!-- a22&#45;&gt;a43 -->
<g id="edge23" class="edge">
<title>a22&#45;&gt;a43</title>
<path fill="none" stroke="black" d="M145.45,-38.83C160.14,-43.14 181.81,-49.5 198.18,-54.3"/>
<polygon fill="black" stroke="black" points="197.64,-55.97 202.93,-55.7 198.63,-52.61 197.64,-55.97"/>
</g>
<!-- a32&#45;&gt;a13 -->
<g id="edge24" class="edge">
<title>a32&#45;&gt;a13</title>
<path fill="none" stroke="black" d="M145.45,-245.17C160.14,-240.86 181.81,-234.5 198.18,-229.7"/>
<polygon fill="black" stroke="black" points="198.63,-231.39 202.93,-228.3 197.64,-228.03 198.63,-231.39"/>
</g>
<!-- a32&#45;&gt;a23 -->
<g id="edge25" class="edge">
<title>a32&#45;&gt;a23</title>
<path fill="none" stroke="black" d="M142.18,-238.39C158.17,-224.32 185.19,-200.53 203.06,-184.79"/>
<polygon fill="black" stroke="black" points="204.11,-186.2 206.71,-181.58 201.8,-183.57 204.11,-186.2"/>
</g>
<!-- a32&#45;&gt;a33 -->
<g id="edge26" class="edge">
<title>a32&#45;&gt;a33</title>
<path fill="none" stroke="black" d="M139.02,-235.3C155.61,-210.95 188.8,-162.24 207.46,-134.86"/>
<polygon fill="black" stroke="black" points="208.77,-136.05 210.14,-130.94 205.88,-134.08 208.77,-136.05"/>
</g>
<!-- a32&#45;&gt;a43 -->
<g id="edge27" class="edge">
<title>a32&#45;&gt;a43</title>
<path fill="none" stroke="black" d="M136.84,-233.89C153.34,-199.99 191.65,-121.29 210.35,-82.88"/>
<polygon fill="black" stroke="black" points="211.9,-83.7 212.51,-78.43 208.75,-82.16 211.9,-83.7"/>
</g>
<!-- a42&#45;&gt;a13 -->
<g id="edge28" class="edge">
<title>a42&#45;&gt;a13</title>
<path fill="none" stroke="black" d="M145.45,-200.83C160.14,-205.14 181.81,-211.5 198.18,-216.3"/>
<polygon fill="black" stroke="black" points="197.64,-217.97 202.93,-217.7 198.63,-214.61 197.64,-217.97"/>
</g>
<!-- a42&#45;&gt;a23 -->
<g id="edge29" class="edge">
<title>a42&#45;&gt;a23</title>
<path fill="none" stroke="black" d="M145.45,-191.17C160.14,-186.86 181.81,-180.5 198.18,-175.7"/>
<polygon fill="black" stroke="black" points="198.63,-177.39 202.93,-174.3 197.64,-174.03 198.63,-177.39"/>
</g>
<!-- a42&#45;&gt;a33 -->
<g id="edge30" class="edge">
<title>a42&#45;&gt;a33</title>
<path fill="none" stroke="black" d="M142.18,-184.39C158.17,-170.32 185.19,-146.53 203.06,-130.79"/>
<polygon fill="black" stroke="black" points="204.11,-132.2 206.71,-127.58 201.8,-129.57 204.11,-132.2"/>
</g>
<!-- a42&#45;&gt;a43 -->
<g id="edge31" class="edge">
<title>a42&#45;&gt;a43</title>
<path fill="none" stroke="black" d="M139.02,-181.3C155.61,-156.95 188.8,-108.24 207.46,-80.86"/>
<polygon fill="black" stroke="black" points="208.77,-82.05 210.14,-76.94 205.88,-80.08 208.77,-82.05"/>
</g>
<!-- a52&#45;&gt;a13 -->
<g id="edge32" class="edge">
<title>a52&#45;&gt;a13</title>
<path fill="none" stroke="black" d="M142.18,-153.61C158.17,-167.68 185.19,-191.47 203.06,-207.21"/>
<polygon fill="black" stroke="black" points="201.8,-208.43 206.71,-210.42 204.11,-205.8 201.8,-208.43"/>
</g>
<!-- a52&#45;&gt;a23 -->
<g id="edge33" class="edge">
<title>a52&#45;&gt;a23</title>
<path fill="none" stroke="black" d="M145.45,-146.83C160.14,-151.14 181.81,-157.5 198.18,-162.3"/>
<polygon fill="black" stroke="black" points="197.64,-163.97 202.93,-163.7 198.63,-160.61 197.64,-163.97"/>
</g>
<!-- a52&#45;&gt;a33 -->
<g id="edge34" class="edge">
<title>a52&#45;&gt;a33</title>
<path fill="none" stroke="black" d="M145.45,-137.17C160.14,-132.86 181.81,-126.5 198.18,-121.7"/>
<polygon fill="black" stroke="black" points="198.63,-123.39 202.93,-120.3 197.64,-120.03 198.63,-123.39"/>
</g>
<!-- a52&#45;&gt;a43 -->
<g id="edge35" class="edge">
<title>a52&#45;&gt;a43</title>
<path fill="none" stroke="black" d="M142.18,-130.39C158.17,-116.32 185.19,-92.53 203.06,-76.79"/>
<polygon fill="black" stroke="black" points="204.11,-78.2 206.71,-73.58 201.8,-75.57 204.11,-78.2"/>
</g>
<!-- O1 -->
<g id="node13" class="node">
<title>O1</title>
<ellipse fill="none" stroke="green" cx="316" cy="-169" rx="18" ry="18"/>
</g>
<!-- a13&#45;&gt;O1 -->
<g id="edge36" class="edge">
<title>a13&#45;&gt;O1</title>
<path fill="none" stroke="black" d="M238.19,-214.08C253.6,-205.04 277.54,-190.99 294.59,-180.98"/>
<polygon fill="black" stroke="black" points="295.36,-182.56 298.79,-178.52 293.59,-179.54 295.36,-182.56"/>
</g>
<!-- O2 -->
<g id="node14" class="node">
<title>O2</title>
<ellipse fill="none" stroke="green" cx="316" cy="-115" rx="18" ry="18"/>
</g>
<!-- a13&#45;&gt;O2 -->
<g id="edge37" class="edge">
<title>a13&#45;&gt;O2</title>
<path fill="none" stroke="black" d="M234.28,-209.76C250.63,-190.57 280.96,-154.96 299.43,-133.28"/>
<polygon fill="black" stroke="black" points="300.74,-134.44 302.65,-129.5 298.07,-132.17 300.74,-134.44"/>
</g>
<!-- a23&#45;&gt;O1 -->
<g id="edge38" class="edge">
<title>a23&#45;&gt;O1</title>
<path fill="none" stroke="black" d="M240.3,-169C254.7,-169 275.33,-169 291.26,-169"/>
<polygon fill="black" stroke="black" points="291.26,-170.75 296.26,-169 291.26,-167.25 291.26,-170.75"/>
</g>
<!-- a23&#45;&gt;O2 -->
<g id="edge39" class="edge">
<title>a23&#45;&gt;O2</title>
<path fill="none" stroke="black" d="M238.19,-160.08C253.6,-151.04 277.54,-136.99 294.59,-126.98"/>
<polygon fill="black" stroke="black" points="295.36,-128.56 298.79,-124.52 293.59,-125.54 295.36,-128.56"/>
</g>
<!-- a33&#45;&gt;O1 -->
<g id="edge40" class="edge">
<title>a33&#45;&gt;O1</title>
<path fill="none" stroke="black" d="M238.19,-123.92C253.6,-132.96 277.54,-147.01 294.59,-157.02"/>
<polygon fill="black" stroke="black" points="293.59,-158.46 298.79,-159.48 295.36,-155.44 293.59,-158.46"/>
</g>
<!-- a33&#45;&gt;O2 -->
<g id="edge41" class="edge">
<title>a33&#45;&gt;O2</title>
<path fill="none" stroke="black" d="M240.3,-115C254.7,-115 275.33,-115 291.26,-115"/>
<polygon fill="black" stroke="black" points="291.26,-116.75 296.26,-115 291.26,-113.25 291.26,-116.75"/>
</g>
<!-- a43&#45;&gt;O1 -->
<g id="edge42" class="edge">
<title>a43&#45;&gt;O1</title>
<path fill="none" stroke="black" d="M234.28,-74.24C250.63,-93.43 280.96,-129.04 299.43,-150.72"/>
<polygon fill="black" stroke="black" points="298.07,-151.83 302.65,-154.5 300.74,-149.56 298.07,-151.83"/>
</g>
<!-- a43&#45;&gt;O2 -->
<g id="edge43" class="edge">
<title>a43&#45;&gt;O2</title>
<path fill="none" stroke="black" d="M238.19,-69.92C253.6,-78.96 277.54,-93.01 294.59,-103.02"/>
<polygon fill="black" stroke="black" points="293.59,-104.46 298.79,-105.48 295.36,-101.44 293.59,-104.46"/>
</g>
</g>
</svg>
