<svg xmlns="http://www.w3.org/2000/svg" width="830.211" height="830.211" viewBox="0 0 219.66 219.66"><path d="M33.073 78.052h23.813v23.813H33.073z" style="fill:none;stroke:#000;stroke-width:.2;stroke-dasharray:none" transform="translate(-6.565 -3.919)"/><path d="M56.885 78.052h23.813v23.813H56.885z" style="fill:none;stroke:#000;stroke-width:.2;stroke-dasharray:none" transform="translate(-6.565 -3.919)"/><path d="M33.073 101.865h23.813v23.813H33.073z" style="fill:none;stroke:#000;stroke-width:.2;stroke-dasharray:none" transform="translate(-6.565 -3.919)"/><path d="M33.073 125.677h23.813v23.813H33.073zM9.26 78.052h23.813v23.813H9.26z" style="fill:none;stroke:#000;stroke-width:.2;stroke-dasharray:none" transform="translate(-6.565 -3.919)"/><path d="M9.26 101.865h23.813v23.813H9.26z" style="fill:none;stroke:#000;stroke-width:.2;stroke-dasharray:none" transform="translate(-6.565 -3.919)"/><path d="M9.26 78.052h71.438v71.438H9.26z" style="fill:none;stroke:#000;stroke-width:1;stroke-dasharray:none" transform="translate(-6.565 -3.919)"/><path d="M56.885 149.49h23.813v23.813H56.885z" style="fill:none;stroke:#000;stroke-width:.2;stroke-dasharray:none" transform="translate(-6.565 -3.919)"/><path d="M33.073 173.302h23.813v23.813H33.073z" style="fill:none;stroke:#000;stroke-width:.2;stroke-dasharray:none" transform="translate(-6.565 -3.919)"/><path d="M56.885 173.302h23.813v23.813H56.885zM9.26 173.302h23.813v23.813H9.26zM56.885 197.115h23.813v23.813H56.885z" style="fill:none;stroke:#000;stroke-width:.2;stroke-dasharray:none" transform="translate(-6.565 -3.919)"/><path d="M9.26 149.49h71.438v71.438H9.26z" style="fill:none;stroke:#000;stroke-width:1;stroke-dasharray:none" transform="translate(-6.565 -3.919)"/><path d="M56.885 6.615h23.813v23.813H56.885z" style="fill:none;stroke:#000;stroke-width:.2;stroke-dasharray:none" transform="translate(-6.565 -3.919)"/><path d="M33.073 30.427h23.813V54.24H33.073z" style="fill:none;stroke:#000;stroke-width:.2;stroke-dasharray:none" transform="translate(-6.565 -3.919)"/><path d="M56.885 30.427h23.813V54.24H56.885zM33.073 54.24h23.813v23.813H33.073zM9.26 30.427h23.813V54.24H9.26zM9.26 54.24h23.813v23.813H9.26z" style="fill:none;stroke:#000;stroke-width:.2;stroke-dasharray:none" transform="translate(-6.565 -3.919)"/><path d="M9.26 6.615h71.438v71.438H9.26z" style="fill:none;stroke:#000;stroke-width:1;stroke-dasharray:none" transform="translate(-6.565 -3.919)"/><path d="M104.51 78.052h23.813v23.813H104.51zM128.323 78.052h23.813v23.813h-23.813z" style="fill:none;stroke:#000;stroke-width:.2;stroke-dasharray:none" transform="translate(-6.565 -3.919)"/><path d="M104.51 101.865h23.813v23.813H104.51zM128.323 101.865h23.813v23.813h-23.813z" style="fill:none;stroke:#000;stroke-width:.2;stroke-dasharray:none" transform="translate(-6.565 -3.919)"/><path d="M104.51 125.677h23.813v23.813H104.51z" style="fill:none;stroke:#000;stroke-width:.2;stroke-dasharray:none" transform="translate(-6.565 -3.919)"/><path d="M80.698 101.865h23.813v23.813H80.698z" style="fill:none;stroke:#000;stroke-width:.2;stroke-dasharray:none" transform="translate(-6.565 -3.919)"/><path d="M80.698 125.677h23.813v23.813H80.698z" style="fill:none;stroke:#000;stroke-width:.2;stroke-dasharray:none" transform="translate(-6.565 -3.919)"/><path d="M80.698 78.052h71.438v71.438H80.698z" style="fill:none;stroke:#000;stroke-width:1;stroke-dasharray:none" transform="translate(-6.565 -3.919)"/><path d="M128.323 173.302h23.813v23.813h-23.813zM104.51 197.115h23.813v23.813H104.51zM80.698 149.49h23.813v23.813H80.698z" style="fill:none;stroke:#000;stroke-width:.2;stroke-dasharray:none" transform="translate(-6.565 -3.919)"/><path d="M80.698 173.302h23.813v23.813H80.698zM80.698 197.115h23.813v23.813H80.698zM128.323 197.115h23.813v23.813h-23.813z" style="fill:none;stroke:#000;stroke-width:.2;stroke-dasharray:none" transform="translate(-6.565 -3.919)"/><path d="M80.698 149.49h71.438v71.438H80.698z" style="fill:none;stroke:#000;stroke-width:1;stroke-dasharray:none" transform="translate(-6.565 -3.919)"/><path d="M104.51 6.615h23.813v23.813H104.51zM128.323 6.615h23.813v23.813h-23.813z" style="fill:none;stroke:#000;stroke-width:.2;stroke-dasharray:none" transform="translate(-6.565 -3.919)"/><path d="M80.698 6.615h23.813v23.813H80.698zM128.323 54.24h23.813v23.813h-23.813z" style="fill:none;stroke:#000;stroke-width:.2;stroke-dasharray:none" transform="translate(-6.565 -3.919)"/><path d="M80.698 6.615h71.438v71.438H80.698z" style="fill:none;stroke:#000;stroke-width:1;stroke-dasharray:none" transform="translate(-6.565 -3.919)"/><path d="M175.948 78.052h23.813v23.813h-23.813z" style="fill:none;stroke:#000;stroke-width:.2;stroke-dasharray:none" transform="translate(-6.565 -3.919)"/><path d="M175.948 101.865h23.813v23.813h-23.813z" style="fill:none;stroke:#000;stroke-width:.2;stroke-dasharray:none" transform="translate(-6.565 -3.919)"/><path d="M199.76 101.865h23.813v23.813H199.76z" style="fill:none;stroke:#000;stroke-width:.2;stroke-dasharray:none" transform="translate(-6.565 -3.919)"/><path d="M175.948 125.677h23.813v23.813h-23.813zM152.135 125.677h23.813v23.813h-23.813z" style="fill:none;stroke:#000;stroke-width:.2;stroke-dasharray:none" transform="translate(-6.565 -3.919)"/><path d="M199.76 125.677h23.813v23.813H199.76z" style="fill:none;stroke:#000;stroke-width:.2;stroke-dasharray:none" transform="translate(-6.565 -3.919)"/><path d="M152.135 78.052h71.438v71.438h-71.438z" style="fill:none;stroke:#000;stroke-width:1;stroke-dasharray:none" transform="translate(-6.565 -3.919)"/><path d="M175.948 149.49h23.813v23.813h-23.813z" style="fill:none;stroke:#000;stroke-width:.2;stroke-dasharray:none" transform="translate(-6.565 -3.919)"/><path d="M199.76 149.49h23.813v23.813H199.76z" style="fill:none;stroke:#000;stroke-width:.2;stroke-dasharray:none" transform="translate(-6.565 -3.919)"/><path d="M175.948 173.302h23.813v23.813h-23.813z" style="fill:none;stroke:#000;stroke-width:.2;stroke-dasharray:none" transform="translate(-6.565 -3.919)"/><path d="M199.76 173.302h23.813v23.813H199.76zM152.135 173.302h23.813v23.813h-23.813zM152.135 197.115h23.813v23.813h-23.813z" style="fill:none;stroke:#000;stroke-width:.2;stroke-dasharray:none" transform="translate(-6.565 -3.919)"/><path d="M152.135 149.49h71.438v71.438h-71.438z" style="fill:none;stroke:#000;stroke-width:1;stroke-dasharray:none" transform="translate(-6.565 -3.919)"/><path d="M175.948 30.427h23.813V54.24h-23.813zM152.135 6.615h23.813v23.813h-23.813z" style="fill:none;stroke:#000;stroke-width:.2;stroke-dasharray:none" transform="translate(-6.565 -3.919)"/><path d="M152.135 30.427h23.813V54.24h-23.813zM152.135 54.24h23.813v23.813h-23.813z" style="fill:none;stroke:#000;stroke-width:.2;stroke-dasharray:none" transform="translate(-6.565 -3.919)"/><path d="M152.135 6.615h71.438v71.438h-71.438z" style="fill:none;stroke:#000;stroke-width:1;stroke-dasharray:none" transform="translate(-6.565 -3.919)"/><text xml:space="preserve" x="137.225" y="16.757" style="font-style:normal;font-variant:normal;font-weight:400;font-stretch:normal;font-size:11.2889px;font-family:sans-serif;-inkscape-font-specification:&quot;sans-serif, Normal&quot;;font-variant-ligatures:normal;font-variant-caps:normal;font-variant-numeric:normal;font-variant-east-asian:normal;fill:#000;stroke:none;stroke-width:.1;stroke-dasharray:none" transform="matrix(2 0 0 2 -195.742 37.092)"><tspan x="137.225" y="16.757" style="font-style:normal;font-variant:normal;font-weight:400;font-stretch:normal;font-size:11.2889px;font-family:sans-serif;-inkscape-font-specification:&quot;sans-serif, Normal&quot;;font-variant-ligatures:normal;font-variant-caps:normal;font-variant-numeric:normal;font-variant-east-asian:normal;fill:#000;stroke:none;stroke-width:.1">2</tspan></text><path d="M134.938 6.615h11.906v11.906h-11.906z" style="fill:none;stroke:#000;stroke-width:.1;stroke-dasharray:none" transform="matrix(2 0 0 2 -195.742 37.092)"/><text xml:space="preserve" x="137.225" y="16.757" style="font-style:normal;font-variant:normal;font-weight:400;font-stretch:normal;font-size:11.2889px;font-family:sans-serif;-inkscape-font-specification:&quot;sans-serif, Normal&quot;;font-variant-ligatures:normal;font-variant-caps:normal;font-variant-numeric:normal;font-variant-east-asian:normal;fill:#000;stroke:none;stroke-width:.1;stroke-dasharray:none" transform="matrix(2 0 0 2 -267.18 -10.533)"><tspan x="137.225" y="16.757" style="font-style:normal;font-variant:normal;font-weight:400;font-stretch:normal;font-size:11.2889px;font-family:sans-serif;-inkscape-font-specification:&quot;sans-serif, Normal&quot;;font-variant-ligatures:normal;font-variant-caps:normal;font-variant-numeric:normal;font-variant-east-asian:normal;fill:#000;stroke:none;stroke-width:.1">2</tspan></text><path d="M134.938 6.615h11.906v11.906h-11.906z" style="fill:none;stroke:#000;stroke-width:.1;stroke-dasharray:none" transform="matrix(2 0 0 2 -267.18 -10.533)"/><text xml:space="preserve" x="150.496" y="16.672" style="font-style:normal;font-variant:normal;font-weight:400;font-stretch:normal;font-size:11.2889px;font-family:sans-serif;-inkscape-font-specification:&quot;sans-serif, Normal&quot;;font-variant-ligatures:normal;font-variant-caps:normal;font-variant-numeric:normal;font-variant-east-asian:normal;fill:#000;stroke:none;stroke-width:.1;stroke-dasharray:none" transform="matrix(2 0 0 2 -198.388 132.342)"><tspan x="150.496" y="16.672">3</tspan></text><path d="M148.167 6.615h11.906v11.906h-11.906z" style="fill:none;stroke:#000;stroke-width:.1;stroke-dasharray:none" transform="matrix(2 0 0 2 -198.388 132.342)"/><text xml:space="preserve" x="150.496" y="16.672" style="font-style:normal;font-variant:normal;font-weight:400;font-stretch:normal;font-size:11.2889px;font-family:sans-serif;-inkscape-font-specification:&quot;sans-serif, Normal&quot;;font-variant-ligatures:normal;font-variant-caps:normal;font-variant-numeric:normal;font-variant-east-asian:normal;fill:#000;stroke:none;stroke-width:.1;stroke-dasharray:none" transform="matrix(2 0 0 2 -293.638 179.967)"><tspan x="150.496" y="16.672">3</tspan></text><path d="M148.167 6.615h11.906v11.906h-11.906z" style="fill:none;stroke:#000;stroke-width:.1;stroke-dasharray:none" transform="matrix(2 0 0 2 -293.638 179.967)"/><text xml:space="preserve" x="137.186" y="29.815" style="font-style:normal;font-variant:normal;font-weight:400;font-stretch:normal;font-size:11.2889px;font-family:sans-serif;-inkscape-font-specification:&quot;sans-serif, Normal&quot;;font-variant-ligatures:normal;font-variant-caps:normal;font-variant-numeric:normal;font-variant-east-asian:normal;fill:#000;stroke:none;stroke-width:.1;stroke-dasharray:none" transform="matrix(2 0 0 2 -219.554 10.633)"><tspan x="137.186" y="29.815">5</tspan></text><path d="M134.937 19.844h11.906V31.75h-11.906z" style="fill:none;stroke:#000;stroke-width:.1;stroke-dasharray:none" transform="matrix(2 0 0 2 -219.554 10.633)"/><text xml:space="preserve" x="150.46" y="29.892" style="font-style:normal;font-variant:normal;font-weight:400;font-stretch:normal;font-size:11.2889px;font-family:sans-serif;-inkscape-font-specification:&quot;sans-serif, Normal&quot;;font-variant-ligatures:normal;font-variant-caps:normal;font-variant-numeric:normal;font-variant-east-asian:normal;fill:#000;stroke:none;stroke-width:.1;stroke-dasharray:none" transform="matrix(2 0 0 2 -269.825 105.883)"><tspan x="150.46" y="29.892">6</tspan></text><path d="M148.167 19.844h11.906V31.75h-11.906z" style="fill:none;stroke:#000;stroke-width:.1;stroke-dasharray:none" transform="matrix(2 0 0 2 -269.825 105.883)"/><text xml:space="preserve" x="150.46" y="29.892" style="font-style:normal;font-variant:normal;font-weight:400;font-stretch:normal;font-size:11.2889px;font-family:sans-serif;-inkscape-font-specification:&quot;sans-serif, Normal&quot;;font-variant-ligatures:normal;font-variant-caps:normal;font-variant-numeric:normal;font-variant-east-asian:normal;fill:#000;stroke:none;stroke-width:.1;stroke-dasharray:none" transform="matrix(2 0 0 2 -174.575 82.07)"><tspan x="150.46" y="29.892">6</tspan></text><path d="M148.167 19.844h11.906V31.75h-11.906z" style="fill:none;stroke:#000;stroke-width:.1;stroke-dasharray:none" transform="matrix(2 0 0 2 -174.575 82.07)"/><text xml:space="preserve" x="150.46" y="29.892" style="font-style:normal;font-variant:normal;font-weight:400;font-stretch:normal;font-size:11.2889px;font-family:sans-serif;-inkscape-font-specification:&quot;sans-serif, Normal&quot;;font-variant-ligatures:normal;font-variant-caps:normal;font-variant-numeric:normal;font-variant-east-asian:normal;fill:#000;stroke:none;stroke-width:.1;stroke-dasharray:none" transform="matrix(2 0 0 2 -103.137 34.446)"><tspan x="150.46" y="29.892">6</tspan></text><path d="M148.167 19.844h11.906V31.75h-11.906z" style="fill:none;stroke:#000;stroke-width:.1;stroke-dasharray:none" transform="matrix(2 0 0 2 -103.137 34.446)"/><text xml:space="preserve" x="137.302" y="43.13" style="font-style:normal;font-variant:normal;font-weight:400;font-stretch:normal;font-size:11.2889px;font-family:sans-serif;-inkscape-font-specification:&quot;sans-serif, Normal&quot;;font-variant-ligatures:normal;font-variant-caps:normal;font-variant-numeric:normal;font-variant-east-asian:normal;fill:#000;stroke:none;stroke-width:.1;stroke-dasharray:none" transform="matrix(2 0 0 2 -76.68 127.05)"><tspan x="137.302" y="43.13">8</tspan></text><path d="M134.937 33.073h11.906v11.906h-11.906z" style="fill:none;stroke:#000;stroke-width:.1;stroke-dasharray:none" transform="matrix(2 0 0 2 -76.68 127.05)"/><text xml:space="preserve" x="137.302" y="43.13" style="font-style:normal;font-variant:normal;font-weight:400;font-stretch:normal;font-size:11.2889px;font-family:sans-serif;-inkscape-font-specification:&quot;sans-serif, Normal&quot;;font-variant-ligatures:normal;font-variant-caps:normal;font-variant-numeric:normal;font-variant-east-asian:normal;fill:#000;stroke:none;stroke-width:.1;stroke-dasharray:none" transform="matrix(2 0 0 2 -148.117 79.425)"><tspan x="137.302" y="43.13">8</tspan></text><path d="M134.937 33.073h11.906v11.906h-11.906z" style="fill:none;stroke:#000;stroke-width:.1;stroke-dasharray:none" transform="matrix(2 0 0 2 -148.117 79.425)"/><text xml:space="preserve" x="137.302" y="43.13" style="font-style:normal;font-variant:normal;font-weight:400;font-stretch:normal;font-size:11.2889px;font-family:sans-serif;-inkscape-font-specification:&quot;sans-serif, Normal&quot;;font-variant-ligatures:normal;font-variant-caps:normal;font-variant-numeric:normal;font-variant-east-asian:normal;fill:#000;stroke:none;stroke-width:.1;stroke-dasharray:none" transform="matrix(2 0 0 2 -171.93 -39.638)"><tspan x="137.302" y="43.13">8</tspan></text><path d="M134.937 33.073h11.906v11.906h-11.906z" style="fill:none;stroke:#000;stroke-width:.1;stroke-dasharray:none" transform="matrix(2 0 0 2 -171.93 -39.638)"/><text xml:space="preserve" x="137.302" y="43.13" style="font-style:normal;font-variant:normal;font-weight:400;font-stretch:normal;font-size:11.2889px;font-family:sans-serif;-inkscape-font-specification:&quot;sans-serif, Normal&quot;;font-variant-ligatures:normal;font-variant-caps:normal;font-variant-numeric:normal;font-variant-east-asian:normal;fill:#000;stroke:none;stroke-width:.1;stroke-dasharray:none" transform="matrix(2 0 0 2 -100.492 -63.45)"><tspan x="137.302" y="43.13">8</tspan></text><path d="M134.937 33.073h11.906v11.906h-11.906z" style="fill:none;stroke:#000;stroke-width:.1;stroke-dasharray:none" transform="matrix(2 0 0 2 -100.492 -63.45)"/><text xml:space="preserve" x="123.908" y="16.685" style="font-style:normal;font-variant:normal;font-weight:400;font-stretch:normal;font-size:11.2889px;font-family:sans-serif;-inkscape-font-specification:&quot;sans-serif, Normal&quot;;font-variant-ligatures:normal;font-variant-caps:normal;font-variant-numeric:normal;font-variant-east-asian:normal;fill:#000;stroke-width:.264583" transform="matrix(2 0 0 2 -97.846 60.904)"><tspan x="123.908" y="16.685" style="font-style:normal;font-variant:normal;font-weight:400;font-stretch:normal;font-size:11.2889px;font-family:sans-serif;-inkscape-font-specification:&quot;sans-serif, Normal&quot;;font-variant-ligatures:normal;font-variant-caps:normal;font-variant-numeric:normal;font-variant-east-asian:normal;fill:#000;stroke-width:.264583">1</tspan></text><path d="M121.708 6.615h11.906v11.906h-11.906z" style="fill:none;stroke:#000;stroke-width:.1;stroke-dasharray:none" transform="matrix(2 0 0 2 -97.846 60.904)"/><text xml:space="preserve" x="123.908" y="16.685" style="font-style:normal;font-variant:normal;font-weight:400;font-stretch:normal;font-size:11.2889px;font-family:sans-serif;-inkscape-font-specification:&quot;sans-serif, Normal&quot;;font-variant-ligatures:normal;font-variant-caps:normal;font-variant-numeric:normal;font-variant-east-asian:normal;fill:#000;stroke-width:.264583" transform="matrix(2 0 0 2 -50.22 37.092)"><tspan x="123.908" y="16.685" style="font-style:normal;font-variant:normal;font-weight:400;font-stretch:normal;font-size:11.2889px;font-family:sans-serif;-inkscape-font-specification:&quot;sans-serif, Normal&quot;;font-variant-ligatures:normal;font-variant-caps:normal;font-variant-numeric:normal;font-variant-east-asian:normal;fill:#000;stroke-width:.264583">1</tspan></text><path d="M121.708 6.615h11.906v11.906h-11.906z" style="fill:none;stroke:#000;stroke-width:.1;stroke-dasharray:none" transform="matrix(2 0 0 2 -50.22 37.092)"/><text xml:space="preserve" x="123.908" y="16.685" style="font-style:normal;font-variant:normal;font-weight:400;font-stretch:normal;font-size:11.2889px;font-family:sans-serif;-inkscape-font-specification:&quot;sans-serif, Normal&quot;;font-variant-ligatures:normal;font-variant-caps:normal;font-variant-numeric:normal;font-variant-east-asian:normal;fill:#000;stroke-width:.264583" transform="matrix(2 0 0 2 -193.096 84.717)"><tspan x="123.908" y="16.685" style="font-style:normal;font-variant:normal;font-weight:400;font-stretch:normal;font-size:11.2889px;font-family:sans-serif;-inkscape-font-specification:&quot;sans-serif, Normal&quot;;font-variant-ligatures:normal;font-variant-caps:normal;font-variant-numeric:normal;font-variant-east-asian:normal;fill:#000;stroke-width:.264583">1</tspan></text><path d="M121.708 6.615h11.906v11.906h-11.906z" style="fill:none;stroke:#000;stroke-width:.1;stroke-dasharray:none" transform="matrix(2 0 0 2 -193.096 84.717)"/><text xml:space="preserve" x="123.908" y="16.685" style="font-style:normal;font-variant:normal;font-weight:400;font-stretch:normal;font-size:11.2889px;font-family:sans-serif;-inkscape-font-specification:&quot;sans-serif, Normal&quot;;font-variant-ligatures:normal;font-variant-caps:normal;font-variant-numeric:normal;font-variant-east-asian:normal;fill:#000;stroke-width:.264583" transform="matrix(2 0 0 2 -216.908 179.967)"><tspan x="123.908" y="16.685" style="font-style:normal;font-variant:normal;font-weight:400;font-stretch:normal;font-size:11.2889px;font-family:sans-serif;-inkscape-font-specification:&quot;sans-serif, Normal&quot;;font-variant-ligatures:normal;font-variant-caps:normal;font-variant-numeric:normal;font-variant-east-asian:normal;fill:#000;stroke-width:.264583">1</tspan></text><path d="M121.708 6.615h11.906v11.906h-11.906z" style="fill:none;stroke:#000;stroke-width:.1;stroke-dasharray:none" transform="matrix(2 0 0 2 -216.908 179.967)"/><text xml:space="preserve" x="124.134" y="29.901" style="font-style:normal;font-variant:normal;font-weight:400;font-stretch:normal;font-size:11.2889px;font-family:sans-serif;-inkscape-font-specification:&quot;sans-serif, Normal&quot;;font-variant-ligatures:normal;font-variant-caps:normal;font-variant-numeric:normal;font-variant-east-asian:normal;fill:#000;stroke:none;stroke-width:.1;stroke-dasharray:none" transform="matrix(2 0 0 2 -193.096 82.07)"><tspan x="124.134" y="29.901">4</tspan></text><path d="M121.708 19.844h11.906V31.75h-11.906z" style="fill:none;stroke:#000;stroke-width:.1;stroke-dasharray:none" transform="matrix(2 0 0 2 -193.096 82.07)"/><text xml:space="preserve" x="124.134" y="29.901" style="font-style:normal;font-variant:normal;font-weight:400;font-stretch:normal;font-size:11.2889px;font-family:sans-serif;-inkscape-font-specification:&quot;sans-serif, Normal&quot;;font-variant-ligatures:normal;font-variant-caps:normal;font-variant-numeric:normal;font-variant-east-asian:normal;fill:#000;stroke:none;stroke-width:.1;stroke-dasharray:none" transform="matrix(2 0 0 2 -97.846 105.883)"><tspan x="124.134" y="29.901">4</tspan></text><path d="M121.708 19.844h11.906V31.75h-11.906z" style="fill:none;stroke:#000;stroke-width:.1;stroke-dasharray:none" transform="matrix(2 0 0 2 -97.846 105.883)"/><text xml:space="preserve" x="124.134" y="29.901" style="font-style:normal;font-variant:normal;font-weight:400;font-stretch:normal;font-size:11.2889px;font-family:sans-serif;-inkscape-font-specification:&quot;sans-serif, Normal&quot;;font-variant-ligatures:normal;font-variant-caps:normal;font-variant-numeric:normal;font-variant-east-asian:normal;fill:#000;stroke:none;stroke-width:.1;stroke-dasharray:none" transform="matrix(2 0 0 2 -74.033 10.633)"><tspan x="124.134" y="29.901">4</tspan></text><path d="M121.708 19.844h11.906V31.75h-11.906z" style="fill:none;stroke:#000;stroke-width:.1;stroke-dasharray:none" transform="matrix(2 0 0 2 -74.033 10.633)"/><text xml:space="preserve" x="124.004" y="43.13" style="font-style:normal;font-variant:normal;font-weight:400;font-stretch:normal;font-size:11.2889px;font-family:sans-serif;-inkscape-font-specification:&quot;sans-serif, Normal&quot;;font-variant-ligatures:normal;font-variant-caps:normal;font-variant-numeric:normal;font-variant-east-asian:normal;fill:#000;stroke:none;stroke-width:.1;stroke-dasharray:none" transform="matrix(2 0 0 2 -240.72 79.425)"><tspan x="124.004" y="43.13">7</tspan></text><path d="M121.708 33.073h11.906v11.906h-11.906z" style="fill:none;stroke:#000;stroke-width:.1;stroke-dasharray:none" transform="matrix(2 0 0 2 -240.72 79.425)"/><text xml:space="preserve" x="124.004" y="43.13" style="font-style:normal;font-variant:normal;font-weight:400;font-stretch:normal;font-size:11.2889px;font-family:sans-serif;-inkscape-font-specification:&quot;sans-serif, Normal&quot;;font-variant-ligatures:normal;font-variant-caps:normal;font-variant-numeric:normal;font-variant-east-asian:normal;fill:#000;stroke:none;stroke-width:.1;stroke-dasharray:none" transform="matrix(2 0 0 2 -145.47 -15.825)"><tspan x="124.004" y="43.13">7</tspan></text><path d="M121.708 33.073h11.906v11.906h-11.906z" style="fill:none;stroke:#000;stroke-width:.1;stroke-dasharray:none" transform="matrix(2 0 0 2 -145.47 -15.825)"/><text xml:space="preserve" x="124.004" y="43.13" style="font-style:normal;font-variant:normal;font-weight:400;font-stretch:normal;font-size:11.2889px;font-family:sans-serif;-inkscape-font-specification:&quot;sans-serif, Normal&quot;;font-variant-ligatures:normal;font-variant-caps:normal;font-variant-numeric:normal;font-variant-east-asian:normal;fill:#000;stroke:none;stroke-width:.1;stroke-dasharray:none" transform="matrix(2 0 0 2 -50.22 -63.45)"><tspan x="124.004" y="43.13">7</tspan></text><path d="M121.708 33.073h11.906v11.906h-11.906z" style="fill:none;stroke:#000;stroke-width:.1;stroke-dasharray:none" transform="matrix(2 0 0 2 -50.22 -63.45)"/><text xml:space="preserve" x="150.592" y="43.133" style="font-style:normal;font-variant:normal;font-weight:400;font-stretch:normal;font-size:11.2889px;font-family:sans-serif;-inkscape-font-specification:&quot;sans-serif, Normal&quot;;font-variant-ligatures:normal;font-variant-caps:normal;font-variant-numeric:normal;font-variant-east-asian:normal;fill:#000;stroke:none;stroke-width:.1;stroke-dasharray:none" transform="matrix(2 0 0 2 -293.637 55.612)"><tspan x="150.592" y="43.133">9</tspan></text><path d="M148.167 33.073h11.906v11.906h-11.906z" style="fill:none;stroke:#000;stroke-width:.1;stroke-dasharray:none" transform="matrix(2 0 0 2 -293.637 55.612)"/><text xml:space="preserve" x="150.592" y="43.133" style="font-style:normal;font-variant:normal;font-weight:400;font-stretch:normal;font-size:11.2889px;font-family:sans-serif;-inkscape-font-specification:&quot;sans-serif, Normal&quot;;font-variant-ligatures:normal;font-variant-caps:normal;font-variant-numeric:normal;font-variant-east-asian:normal;fill:#000;stroke:none;stroke-width:.1;stroke-dasharray:none" transform="matrix(2 0 0 2 -198.387 103.237)"><tspan x="150.592" y="43.133">9</tspan></text><path d="M148.167 33.073h11.906v11.906h-11.906z" style="fill:none;stroke:#000;stroke-width:.1;stroke-dasharray:none" transform="matrix(2 0 0 2 -198.387 103.237)"/><text xml:space="preserve" x="150.592" y="43.133" style="font-style:normal;font-variant:normal;font-weight:400;font-stretch:normal;font-size:11.2889px;font-family:sans-serif;-inkscape-font-specification:&quot;sans-serif, Normal&quot;;font-variant-ligatures:normal;font-variant-caps:normal;font-variant-numeric:normal;font-variant-east-asian:normal;fill:#000;stroke:none;stroke-width:.1;stroke-dasharray:none" transform="matrix(2 0 0 2 -126.95 127.05)"><tspan x="150.592" y="43.133">9</tspan></text><path d="M148.167 33.073h11.906v11.906h-11.906z" style="fill:none;stroke:#000;stroke-width:.1;stroke-dasharray:none" transform="matrix(2 0 0 2 -126.95 127.05)"/><text xml:space="preserve" x="150.592" y="43.133" style="font-style:normal;font-variant:normal;font-weight:400;font-stretch:normal;font-size:11.2889px;font-family:sans-serif;-inkscape-font-specification:&quot;sans-serif, Normal&quot;;font-variant-ligatures:normal;font-variant-caps:normal;font-variant-numeric:normal;font-variant-east-asian:normal;fill:#000;stroke:none;stroke-width:.1;stroke-dasharray:none" transform="matrix(2 0 0 2 -150.762 31.8)"><tspan x="150.592" y="43.133">9</tspan></text><path d="M148.167 33.073h11.906v11.906h-11.906z" style="fill:none;stroke:#000;stroke-width:.1;stroke-dasharray:none" transform="matrix(2 0 0 2 -150.762 31.8)"/><text xml:space="preserve" x="150.592" y="43.133" style="font-style:normal;font-variant:normal;font-weight:400;font-stretch:normal;font-size:11.2889px;font-family:sans-serif;-inkscape-font-specification:&quot;sans-serif, Normal&quot;;font-variant-ligatures:normal;font-variant-caps:normal;font-variant-numeric:normal;font-variant-east-asian:normal;fill:#000;stroke:none;stroke-width:.1;stroke-dasharray:none" transform="matrix(2 0 0 2 -222.2 7.987)"><tspan x="150.592" y="43.133">9</tspan></text><path d="M148.167 33.073h11.906v11.906h-11.906z" style="fill:none;stroke:#000;stroke-width:.1;stroke-dasharray:none" transform="matrix(2 0 0 2 -222.2 7.987)"/><text xml:space="preserve" x="150.592" y="43.133" style="font-style:normal;font-variant:normal;font-weight:400;font-stretch:normal;font-size:11.2889px;font-family:sans-serif;-inkscape-font-specification:&quot;sans-serif, Normal&quot;;font-variant-ligatures:normal;font-variant-caps:normal;font-variant-numeric:normal;font-variant-east-asian:normal;fill:#000;stroke:none;stroke-width:.1;stroke-dasharray:none" transform="matrix(2 0 0 2 -269.825 -63.45)"><tspan x="150.592" y="43.133">9</tspan></text><path d="M148.167 33.073h11.906v11.906h-11.906z" style="fill:none;stroke:#000;stroke-width:.1;stroke-dasharray:none" transform="matrix(2 0 0 2 -269.825 -63.45)"/></svg>